<?xml version="1.0" encoding="UTF-8" standalone="no"?>
<svg
   xmlns:dc="http://purl.org/dc/elements/1.1/"
   xmlns:cc="http://creativecommons.org/ns#"
   xmlns:rdf="http://www.w3.org/1999/02/22-rdf-syntax-ns#"
   xmlns:svg="http://www.w3.org/2000/svg"
   xmlns="http://www.w3.org/2000/svg"
   xmlns:xlink="http://www.w3.org/1999/xlink"
   xmlns:sodipodi="http://sodipodi.sourceforge.net/DTD/sodipodi-0.dtd"
   xmlns:inkscape="http://www.inkscape.org/namespaces/inkscape"
   inkscape:version="1.0beta2 (2b71d25, 2019-12-03)"
   sodipodi:docname="half-adder.svg"
   id="svg1059"
   width="650pt"
   viewBox="0 0 650 400"
   version="1.1"
   height="400pt">
  <sodipodi:namedview
     inkscape:current-layer="svg1059"
     inkscape:window-maximized="0"
     inkscape:window-y="33"
     inkscape:window-x="96"
     inkscape:cy="575.62823"
     inkscape:cx="561.04372"
     inkscape:zoom="0.54814481"
     showgrid="false"
     id="namedview1061"
     inkscape:window-height="1043"
     inkscape:window-width="1645"
     inkscape:pageshadow="2"
     inkscape:pageopacity="0"
     guidetolerance="10"
     gridtolerance="10"
     objecttolerance="10"
     borderopacity="1"
     inkscape:document-rotation="0"
     bordercolor="#666666"
     pagecolor="#ffffff" />
  <metadata
     id="metadata833">
    <rdf:RDF>
      <cc:Work>
        <dc:type
           rdf:resource="http://purl.org/dc/dcmitype/StillImage" />
        <dc:date>2020-11-13T14:23:48.418983</dc:date>
        <dc:format>image/svg+xml</dc:format>
        <dc:creator>
          <cc:Agent>
            <dc:title>Matplotlib v3.3.0, https://matplotlib.org/</dc:title>
          </cc:Agent>
        </dc:creator>
        <dc:title></dc:title>
      </cc:Work>
    </rdf:RDF>
  </metadata>
  <defs
     id="defs837">
    <marker
       inkscape:isstock="true"
       style="overflow:visible"
       id="marker1749"
       refX="0"
       refY="0"
       orient="auto"
       inkscape:stockid="Arrow1Mend">
      <path
         inkscape:connector-curvature="0"
         transform="matrix(-0.4,0,0,-0.4,-4,0)"
         style="fill:#000000;fill-opacity:1;fill-rule:evenodd;stroke:#000000;stroke-width:1pt;stroke-opacity:1"
         d="M 0,0 5,-5 -12.5,0 5,5 Z"
         id="path1747" />
    </marker>
    <marker
       inkscape:isstock="true"
       style="overflow:visible"
       id="Arrow1Mend"
       refX="0"
       refY="0"
       orient="auto"
       inkscape:stockid="Arrow1Mend">
      <path
         inkscape:connector-curvature="0"
         transform="matrix(-0.4,0,0,-0.4,-4,0)"
         style="fill:#000000;fill-opacity:1;fill-rule:evenodd;stroke:#000000;stroke-width:1pt;stroke-opacity:1"
         d="M 0,0 5,-5 -12.5,0 5,5 Z"
         id="path1243" />
    </marker>
    <marker
       inkscape:isstock="true"
       style="overflow:visible"
       id="Arrow1Lend"
       refX="0"
       refY="0"
       orient="auto"
       inkscape:stockid="Arrow1Lend">
      <path
         inkscape:connector-curvature="0"
         transform="matrix(-0.8,0,0,-0.8,-10,0)"
         style="fill:#000000;fill-opacity:1;fill-rule:evenodd;stroke:#000000;stroke-width:1pt;stroke-opacity:1"
         d="M 0,0 5,-5 -12.5,0 5,5 Z"
         id="path1237" />
    </marker>
    <style
       id="style835"
       type="text/css">*{stroke-linecap:butt;stroke-linejoin:round;}</style>
    <marker
       inkscape:stockid="Arrow1Mend"
       orient="auto"
       refY="0"
       refX="0"
       id="Arrow1Mend-7"
       style="overflow:visible"
       inkscape:isstock="true">
      <path
         inkscape:connector-curvature="0"
         id="path1243-7"
         d="M 0,0 5,-5 -12.5,0 5,5 Z"
         style="fill:#000000;fill-opacity:1;fill-rule:evenodd;stroke:#000000;stroke-width:1pt;stroke-opacity:1"
         transform="matrix(-0.4,0,0,-0.4,-4,0)" />
    </marker>
    <marker
       inkscape:stockid="Arrow1Mend"
       orient="auto"
       refY="0"
       refX="0"
       id="marker1749-7"
       style="overflow:visible"
       inkscape:isstock="true">
      <path
         inkscape:connector-curvature="0"
         id="path1747-1"
         d="M 0,0 5,-5 -12.5,0 5,5 Z"
         style="fill:#000000;fill-opacity:1;fill-rule:evenodd;stroke:#000000;stroke-width:1pt;stroke-opacity:1"
         transform="matrix(-0.4,0,0,-0.4,-4,0)" />
    </marker>
    <marker
       inkscape:stockid="Arrow1Mend"
       orient="auto"
       refY="0"
       refX="0"
       id="marker1749-8"
       style="overflow:visible"
       inkscape:isstock="true">
      <path
         inkscape:connector-curvature="0"
         id="path1747-0"
         d="M 0,0 5,-5 -12.5,0 5,5 Z"
         style="fill:#000000;fill-opacity:1;fill-rule:evenodd;stroke:#000000;stroke-width:1pt;stroke-opacity:1"
         transform="matrix(-0.4,0,0,-0.4,-4,0)" />
    </marker>
    <marker
       inkscape:isstock="true"
       style="overflow:visible"
       id="marker1749-8-9"
       refX="0"
       refY="0"
       orient="auto"
       inkscape:stockid="Arrow1Mend">
      <path
         transform="matrix(-0.4,0,0,-0.4,-4,0)"
         style="fill:#000000;fill-opacity:1;fill-rule:evenodd;stroke:#000000;stroke-width:1pt;stroke-opacity:1"
         d="M 0,0 5,-5 -12.5,0 5,5 Z"
         id="path1747-0-8"
         inkscape:connector-curvature="0" />
    </marker>
    <marker
       inkscape:stockid="Arrow1Mend"
       orient="auto"
       refY="0"
       refX="0"
       id="marker1749-8-9-2"
       style="overflow:visible"
       inkscape:isstock="true">
      <path
         inkscape:connector-curvature="0"
         id="path1747-0-8-9"
         d="M 0,0 5,-5 -12.5,0 5,5 Z"
         style="fill:#000000;fill-opacity:1;fill-rule:evenodd;stroke:#000000;stroke-width:1pt;stroke-opacity:1"
         transform="matrix(-0.4,0,0,-0.4,-4,0)" />
    </marker>
  </defs>
  <g
     transform="translate(33.322206,65.467773)"
     id="axes_1">
    <g
       id="patch_2">
      <path
         clip-path="url(#pd905ded8ee)"
         d="m 317.18239,246.8343 h 11.81727 l -5.90864,8.52206 z"
         style="fill:#778899"
         id="path842"
         inkscape:connector-curvature="0" />
    </g>
    <g
       id="patch_3">
      <path
         clip-path="url(#pd905ded8ee)"
         d="m 362.63339,246.8343 h 11.81726 l -5.90862,8.52206 z"
         style="fill:#778899"
         id="path845"
         inkscape:connector-curvature="0" />
    </g>
    <g
       id="line2d_1">
      <path
         clip-path="url(#pd905ded8ee)"
         d="M 116.74349,75.3704 H 393.99458"
         style="fill:none;stroke:#000000;stroke-width:2;stroke-linecap:square"
         id="path848"
         inkscape:connector-curvature="0" />
    </g>
    <g
       id="line2d_2">
      <path
         clip-path="url(#pd905ded8ee)"
         d="M 116.74349,120.8214 H 393.99458"
         style="fill:none;stroke:#000000;stroke-width:2;stroke-linecap:square"
         id="path851"
         inkscape:connector-curvature="0" />
    </g>
    <g
       id="line2d_3">
      <path
         clip-path="url(#pd905ded8ee)"
         d="M 116.74349,166.2724 H 393.99458"
         style="fill:none;stroke:#000000;stroke-width:2;stroke-linecap:square"
         id="path854"
         inkscape:connector-curvature="0" />
    </g>
    <g
       id="line2d_4">
      <path
         clip-path="url(#pd905ded8ee)"
         d="M 116.74349,211.7234 H 393.99458"
         style="fill:none;stroke:#000000;stroke-width:2;stroke-linecap:square"
         id="path857"
         inkscape:connector-curvature="0" />
    </g>
    <g
       id="line2d_5">
      <path
         clip-path="url(#pd905ded8ee)"
         d="M 116.74349,255.69724 H 393.99458"
         style="fill:none;stroke:#778899;stroke-width:2;stroke-linecap:square"
         id="path860"
         inkscape:connector-curvature="0" />
    </g>
    <g
       id="line2d_6">
      <path
         clip-path="url(#pd905ded8ee)"
         d="M 116.74349,258.65156 H 393.99458"
         style="fill:none;stroke:#778899;stroke-width:2;stroke-linecap:square"
         id="path863"
         inkscape:connector-curvature="0" />
    </g>
    <g
       id="line2d_7">
      <path
         clip-path="url(#pd905ded8ee)"
         d="M 186.73802,166.2724 V 75.3704"
         style="fill:none;stroke:#6fa4ff;stroke-width:2;stroke-linecap:square"
         id="path866"
         inkscape:connector-curvature="0" />
    </g>
    <g
       id="line2d_8">
      <path
         clip-path="url(#pd905ded8ee)"
         d="m 232.18902,166.2724 v -45.451"
         style="fill:none;stroke:#6fa4ff;stroke-width:2;stroke-linecap:square"
         id="path869"
         inkscape:connector-curvature="0" />
    </g>
    <g
       id="line2d_9">
      <path
         clip-path="url(#pd905ded8ee)"
         d="M 277.64002,211.7234 V 75.3704"
         style="fill:none;stroke:#bb8bff;stroke-width:2;stroke-linecap:square"
         id="path872"
         inkscape:connector-curvature="0" />
    </g>
    <g
       id="line2d_10">
      <path
         clip-path="url(#pd905ded8ee)"
         d="m 324.56818,166.2724 v 80.5619"
         style="fill:none;stroke:#778899;stroke-width:2;stroke-linecap:square"
         id="path875"
         inkscape:connector-curvature="0" />
    </g>
    <g
       id="line2d_11">
      <path
         clip-path="url(#pd905ded8ee)"
         d="m 321.61387,166.2724 v 80.5619"
         style="fill:none;stroke:#778899;stroke-width:2;stroke-linecap:square"
         id="path878"
         inkscape:connector-curvature="0" />
    </g>
    <g
       id="line2d_12">
      <path
         clip-path="url(#pd905ded8ee)"
         d="m 370.01918,211.7234 v 35.1109"
         style="fill:none;stroke:#778899;stroke-width:2;stroke-linecap:square"
         id="path881"
         inkscape:connector-curvature="0" />
    </g>
    <g
       id="line2d_13">
      <path
         clip-path="url(#pd905ded8ee)"
         d="m 367.06487,211.7234 v 35.1109"
         style="fill:none;stroke:#778899;stroke-width:2;stroke-linecap:square"
         id="path884"
         inkscape:connector-curvature="0" />
    </g>
    <g
       id="line2d_14">
      <path
         clip-path="url(#pd905ded8ee)"
         d="m 125.83369,261.7195 4.54509,-9.0902"
         style="fill:none;stroke:#778899;stroke-width:1.5;stroke-linecap:square"
         id="path887"
         inkscape:connector-curvature="0" />
    </g>
    <g
       id="patch_4">
      <path
         clip-path="url(#pd905ded8ee)"
         d="M 126.51545,90.141975 H 156.0586 V 60.598825 H 126.51545 Z"
         style="fill:#05bab6;stroke:#05bab6;stroke-width:1.5;stroke-linejoin:miter"
         id="path890"
         inkscape:connector-curvature="0" />
    </g>
    <g
       id="patch_5">
      <path
         clip-path="url(#pd905ded8ee)"
         d="M 126.51545,135.59297 H 156.0586 V 106.04983 H 126.51545 Z"
         style="fill:#05bab6;stroke:#05bab6;stroke-width:1.5;stroke-linejoin:miter"
         id="path893"
         inkscape:connector-curvature="0" />
    </g>
    <g
       id="patch_6">
      <path
         clip-path="url(#pd905ded8ee)"
         d="m 186.73802,79.801872 c 1.17524,0 2.30251,-0.466927 3.13353,-1.297948 0.83102,-0.83102 1.29795,-1.958284 1.29795,-3.133524 0,-1.17524 -0.46693,-2.302504 -1.29795,-3.133524 -0.83102,-0.831021 -1.95829,-1.297949 -3.13353,-1.297949 -1.17524,0 -2.3025,0.466928 -3.13352,1.297949 -0.83102,0.83102 -1.29795,1.958284 -1.29795,3.133524 0,1.17524 0.46693,2.302504 1.29795,3.133524 0.83102,0.831021 1.95828,1.297948 3.13352,1.297948 z"
         style="fill:#6fa4ff;stroke:#6fa4ff;stroke-width:1.5;stroke-linejoin:miter"
         id="path896"
         inkscape:connector-curvature="0" />
    </g>
    <g
       id="patch_7">
      <path
         clip-path="url(#pd905ded8ee)"
         d="m 186.73802,176.6125 c 2.74223,0 5.37251,-1.0895 7.31156,-3.02854 1.93905,-1.93905 3.02855,-4.56933 3.02855,-7.31156 0,-2.74223 -1.0895,-5.37251 -3.02855,-7.31156 -1.93905,-1.93904 -4.56933,-3.02854 -7.31156,-3.02854 -2.74222,0 -5.3725,1.0895 -7.31155,3.02854 -1.93905,1.93905 -3.02855,4.56933 -3.02855,7.31156 0,2.74223 1.0895,5.37251 3.02855,7.31156 1.93905,1.93904 4.56933,3.02854 7.31155,3.02854 z"
         style="fill:#6fa4ff;stroke:#6fa4ff;stroke-width:2;stroke-linejoin:miter"
         id="path899"
         inkscape:connector-curvature="0" />
    </g>
    <g
       id="patch_8">
      <path
         clip-path="url(#pd905ded8ee)"
         d="m 232.18902,125.25287 c 1.17524,0 2.30251,-0.46693 3.13353,-1.29795 0.83102,-0.83102 1.29795,-1.95828 1.29795,-3.13352 0,-1.17524 -0.46693,-2.3025 -1.29795,-3.13352 -0.83102,-0.83103 -1.95829,-1.29795 -3.13353,-1.29795 -1.17523,0 -2.3025,0.46692 -3.13352,1.29795 -0.83102,0.83102 -1.29795,1.95828 -1.29795,3.13352 0,1.17524 0.46693,2.3025 1.29795,3.13352 0.83102,0.83102 1.95829,1.29795 3.13352,1.29795 z"
         style="fill:#6fa4ff;stroke:#6fa4ff;stroke-width:1.5;stroke-linejoin:miter"
         id="path902"
         inkscape:connector-curvature="0" />
    </g>
    <g
       id="patch_9">
      <path
         clip-path="url(#pd905ded8ee)"
         d="m 232.18902,176.6125 c 2.74223,0 5.37251,-1.0895 7.31156,-3.02854 1.93905,-1.93905 3.02855,-4.56933 3.02855,-7.31156 0,-2.74223 -1.0895,-5.37251 -3.02855,-7.31156 -1.93905,-1.93904 -4.56933,-3.02854 -7.31156,-3.02854 -2.74222,0 -5.3725,1.0895 -7.31155,3.02854 -1.93905,1.93905 -3.02855,4.56933 -3.02855,7.31156 0,2.74223 1.0895,5.37251 3.02855,7.31156 1.93905,1.93904 4.56933,3.02854 7.31155,3.02854 z"
         style="fill:#6fa4ff;stroke:#6fa4ff;stroke-width:2;stroke-linejoin:miter"
         id="path905"
         inkscape:connector-curvature="0" />
    </g>
    <g
       id="patch_10">
      <path
         clip-path="url(#pd905ded8ee)"
         d="m 277.64002,79.801872 c 1.17524,0 2.30251,-0.466927 3.13353,-1.297948 0.83102,-0.83102 1.29795,-1.958284 1.29795,-3.133524 0,-1.17524 -0.46693,-2.302504 -1.29795,-3.133524 -0.83102,-0.831021 -1.95829,-1.297949 -3.13353,-1.297949 -1.17524,0 -2.3025,0.466928 -3.13352,1.297949 -0.83102,0.83102 -1.29795,1.958284 -1.29795,3.133524 0,1.17524 0.46693,2.302504 1.29795,3.133524 0.83102,0.831021 1.95828,1.297948 3.13352,1.297948 z"
         style="fill:#bb8bff;stroke:#bb8bff;stroke-width:1.5;stroke-linejoin:miter"
         id="path908"
         inkscape:connector-curvature="0" />
    </g>
    <g
       id="patch_11">
      <path
         clip-path="url(#pd905ded8ee)"
         d="m 277.64002,125.25287 c 1.17524,0 2.30251,-0.46693 3.13353,-1.29795 0.83102,-0.83102 1.29795,-1.95828 1.29795,-3.13352 0,-1.17524 -0.46693,-2.3025 -1.29795,-3.13352 -0.83102,-0.83103 -1.95829,-1.29795 -3.13353,-1.29795 -1.17524,0 -2.3025,0.46692 -3.13352,1.29795 -0.83102,0.83102 -1.29795,1.95828 -1.29795,3.13352 0,1.17524 0.46693,2.3025 1.29795,3.13352 0.83102,0.83102 1.95828,1.29795 3.13352,1.29795 z"
         style="fill:#bb8bff;stroke:#bb8bff;stroke-width:1.5;stroke-linejoin:miter"
         id="path911"
         inkscape:connector-curvature="0" />
    </g>
    <g
       id="patch_12">
      <path
         clip-path="url(#pd905ded8ee)"
         d="m 277.64002,222.0635 c 2.74223,0 5.37251,-1.0895 7.31156,-3.02854 1.93905,-1.93905 3.02855,-4.56933 3.02855,-7.31156 0,-2.74223 -1.0895,-5.37251 -3.02855,-7.31156 -1.93905,-1.93904 -4.56933,-3.02854 -7.31156,-3.02854 -2.74222,0 -5.3725,1.0895 -7.31155,3.02854 -1.93905,1.93905 -3.02855,4.56933 -3.02855,7.31156 0,2.74223 1.0895,5.37251 3.02855,7.31156 1.93905,1.93904 4.56933,3.02854 7.31155,3.02854 z"
         style="fill:#bb8bff;stroke:#bb8bff;stroke-width:2;stroke-linejoin:miter"
         id="path914"
         inkscape:connector-curvature="0" />
    </g>
    <g
       id="patch_13">
      <path
         clip-path="url(#pd905ded8ee)"
         d="M 308.31945,181.04397 H 337.8626 V 151.50082 H 308.31945 Z"
         style="stroke:#000000;stroke-width:1.5;stroke-linejoin:miter"
         id="path917"
         inkscape:connector-curvature="0" />
    </g>
    <g
       id="patch_14">
      <path
         clip-path="url(#pd905ded8ee)"
         d="m 333.43113,170.70387 c 0,-2.74131 -1.09015,-5.37315 -3.02855,-7.31155 -1.9384,-1.93841 -4.57024,-3.02855 -7.31156,-3.02855 -2.74131,0 -5.37315,1.09014 -7.31155,3.02855 -1.9384,1.9384 -3.02855,4.57024 -3.02855,7.31155"
         style="fill:none;stroke:#ffffff;stroke-width:2;stroke-linejoin:miter"
         id="path920"
         inkscape:connector-curvature="0" />
    </g>
    <g
       id="patch_15">
      <path
         clip-path="url(#pd905ded8ee)"
         d="M 353.77045,226.49497 H 383.3136 V 196.95183 H 353.77045 Z"
         style="stroke:#000000;stroke-width:1.5;stroke-linejoin:miter"
         id="path923"
         inkscape:connector-curvature="0" />
    </g>
    <g
       id="patch_16">
      <path
         clip-path="url(#pd905ded8ee)"
         d="m 378.88213,216.15487 c 0,-2.74131 -1.09015,-5.37315 -3.02855,-7.31155 -1.9384,-1.93841 -4.57024,-3.02855 -7.31155,-3.02855 -2.74132,0 -5.37316,1.09014 -7.31156,3.02855 -1.9384,1.9384 -3.02855,4.57024 -3.02855,7.31155"
         style="fill:none;stroke:#ffffff;stroke-width:2;stroke-linejoin:miter"
         id="path926"
         inkscape:connector-curvature="0" />
    </g>
    <g
       id="line2d_15">
      <path
         clip-path="url(#pd905ded8ee)"
         d="m 323.09102,170.70387 10.34011,-10.3401"
         style="fill:none;stroke:#ffffff;stroke-width:2;stroke-linecap:square"
         id="path929"
         inkscape:connector-curvature="0" />
    </g>
    <g
       id="line2d_16">
      <path
         clip-path="url(#pd905ded8ee)"
         d="m 368.54203,216.15487 10.3401,-10.3401"
         style="fill:none;stroke:#ffffff;stroke-width:2;stroke-linecap:square"
         id="path932"
         inkscape:connector-curvature="0" />
    </g>
    <g
       id="line2d_17">
      <path
         clip-path="url(#pd905ded8ee)"
         d="M 186.73802,172.18103 V 160.36377"
         style="fill:none;stroke:#ffffff;stroke-width:2;stroke-linecap:square"
         id="path935"
         inkscape:connector-curvature="0" />
    </g>
    <g
       id="line2d_18">
      <path
         clip-path="url(#pd905ded8ee)"
         d="m 180.82939,166.2724 h 11.81726"
         style="fill:none;stroke:#ffffff;stroke-width:2;stroke-linecap:square"
         id="path938"
         inkscape:connector-curvature="0" />
    </g>
    <g
       id="line2d_19">
      <path
         clip-path="url(#pd905ded8ee)"
         d="M 232.18902,172.18103 V 160.36377"
         style="fill:none;stroke:#ffffff;stroke-width:2;stroke-linecap:square"
         id="path941"
         inkscape:connector-curvature="0" />
    </g>
    <g
       id="line2d_20">
      <path
         clip-path="url(#pd905ded8ee)"
         d="m 226.28039,166.2724 h 11.81726"
         style="fill:none;stroke:#ffffff;stroke-width:2;stroke-linecap:square"
         id="path944"
         inkscape:connector-curvature="0" />
    </g>
    <g
       id="line2d_21">
      <path
         clip-path="url(#pd905ded8ee)"
         d="M 277.64002,217.63203 V 205.81477"
         style="fill:none;stroke:#ffffff;stroke-width:2;stroke-linecap:square"
         id="path947"
         inkscape:connector-curvature="0" />
    </g>
    <g
       id="line2d_22">
      <path
         clip-path="url(#pd905ded8ee)"
         d="m 271.7314,211.7234 h 11.81725"
         style="fill:none;stroke:#ffffff;stroke-width:2;stroke-linecap:square"
         id="path950"
         inkscape:connector-curvature="0" />
    </g>
    <g
       id="text_1">
      <g
         clip-path="url(#pd905ded8ee)"
         id="g960">
        <!-- X -->
        <g
           transform="matrix(0.13,0,0,-0.13,136.83453,78.957587)"
           id="g958">
          <defs
             id="defs954">
            <path
               d="m 6.296875,72.90625 h 10.59375 L 35.015625,45.796875 53.21875,72.90625 H 63.8125 L 40.375,37.890625 65.375,0 H 54.78125 l -20.5,31 L 13.625,0 H 2.984375 L 29,38.921875 Z"
               id="DejaVuSans-88"
               inkscape:connector-curvature="0" />
          </defs>
          <use
             xlink:href="#DejaVuSans-88"
             id="use956"
             x="0"
             y="0"
             width="100%"
             height="100%" />
        </g>
      </g>
    </g>
    <g
       id="text_2">
      <g
         clip-path="url(#pd905ded8ee)"
         id="g967">
        <!-- X -->
        <g
           transform="matrix(0.13,0,0,-0.13,136.83453,124.40859)"
           id="g965">
          <use
             xlink:href="#DejaVuSans-88"
             id="use963"
             x="0"
             y="0"
             width="100%"
             height="100%" />
        </g>
      </g>
    </g>
    <g
       id="text_3">
      <g
         clip-path="url(#pd905ded8ee)"
         id="g977">
        <!-- 0 -->
        <g
           transform="matrix(0.104,0,0,-0.104,334.45377,250.46642)"
           id="g975">
          <defs
             id="defs971">
            <path
               d="m 31.78125,66.40625 q -7.609375,0 -11.453125,-7.5 Q 16.5,51.421875 16.5,36.375 q 0,-14.984375 3.828125,-22.484375 3.84375,-7.5 11.453125,-7.5 7.671875,0 11.5,7.5 3.84375,7.5 3.84375,22.484375 0,15.046875 -3.84375,22.53125 -3.828125,7.5 -11.5,7.5 z m 0,7.8125 q 12.265625,0 18.734375,-9.703125 6.46875,-9.6875 6.46875,-28.140625 0,-18.40625 -6.46875,-28.109375 -6.46875,-9.6875 -18.734375,-9.6875 -12.25,0 -18.71875,9.6875 Q 6.59375,17.96875 6.59375,36.375 q 0,18.453125 6.46875,28.140625 6.46875,9.703125 18.71875,9.703125 z"
               id="DejaVuSans-48"
               inkscape:connector-curvature="0" />
          </defs>
          <use
             xlink:href="#DejaVuSans-48"
             id="use973"
             x="0"
             y="0"
             width="100%"
             height="100%" />
        </g>
      </g>
    </g>
    <g
       id="text_4">
      <g
         clip-path="url(#pd905ded8ee)"
         id="g984">
        <!-- 0 -->
        <g
           transform="matrix(0.104,0,0,-0.104,379.90477,250.46642)"
           id="g982">
          <use
             xlink:href="#DejaVuSans-48"
             id="use980"
             x="0"
             y="0"
             width="100%"
             height="100%" />
        </g>
      </g>
    </g>
    <g
       id="text_5">
      <g
         clip-path="url(#pd905ded8ee)"
         id="g996">
        <!-- ${q}_{0}$ -->
        <g
           transform="matrix(0.1625,0,0,-0.1625,89.615785,79.821377)"
           id="g994">
          <defs
             id="defs988">
            <path
               d="m 41.703125,8.203125 q -3.609375,-4.734375 -8.53125,-7.1875 -4.90625,-2.4375 -10.859375,-2.4375 -8.296875,0 -13.015625,5.59375 -4.703125,5.59375 -4.703125,15.40625 0,7.90625 2.90625,15.28125 2.90625,7.375 8.328125,13.234375 3.515625,3.8125 8.078125,5.859375 Q 28.46875,56 33.5,56 q 6.046875,0 9.953125,-2.390625 3.90625,-2.390625 5.671875,-7.21875 l 1.5625,8.203125 h 9.03125 L 45.125,-20.609375 H 36.078125 Z M 13.921875,20.90625 q 0,-7.234375 3.015625,-11.015625 3.03125,-3.78125 8.75,-3.78125 8.5,0 14.5,8.125 6,8.125 6,19.75 0,7.03125 -3.109375,10.765625 -3.09375,3.734375 -8.890625,3.734375 -4.25,0 -7.875,-1.984375 -3.609375,-1.96875 -6.296875,-5.78125 -2.828125,-4 -4.46875,-9.375 -1.625,-5.359375 -1.625,-10.4375 z"
               id="DejaVuSans-Oblique-113"
               inkscape:connector-curvature="0" />
          </defs>
          <use
             xlink:href="#DejaVuSans-Oblique-113"
             id="use990"
             x="0"
             y="0"
             width="100%"
             height="100%" />
          <use
             transform="matrix(0.7,0,0,0.7,63.476562,-16.40625)"
             xlink:href="#DejaVuSans-48"
             id="use992"
             x="0"
             y="0"
             width="100%"
             height="100%" />
        </g>
      </g>
    </g>
    <g
       id="text_6">
      <g
         clip-path="url(#pd905ded8ee)"
         id="g1008">
        <!-- ${q}_{1}$ -->
        <g
           transform="matrix(0.1625,0,0,-0.1625,89.615785,125.27238)"
           id="g1006">
          <defs
             id="defs1000">
            <path
               d="m 12.40625,8.296875 h 16.109375 v 55.625 L 10.984375,60.40625 v 8.984375 l 17.4375,3.515625 H 38.28125 V 8.296875 H 54.390625 V 0 H 12.40625 Z"
               id="DejaVuSans-49"
               inkscape:connector-curvature="0" />
          </defs>
          <use
             xlink:href="#DejaVuSans-Oblique-113"
             id="use1002"
             x="0"
             y="0"
             width="100%"
             height="100%" />
          <use
             transform="matrix(0.7,0,0,0.7,63.476562,-16.40625)"
             xlink:href="#DejaVuSans-49"
             id="use1004"
             x="0"
             y="0"
             width="100%"
             height="100%" />
        </g>
      </g>
    </g>
    <g
       id="text_7">
      <g
         clip-path="url(#pd905ded8ee)"
         id="g1020">
        <!-- ${q}_{2}$ -->
        <g
           transform="matrix(0.1625,0,0,-0.1625,89.615785,170.72338)"
           id="g1018">
          <defs
             id="defs1012">
            <path
               d="M 19.1875,8.296875 H 53.609375 V 0 H 7.328125 v 8.296875 q 5.609375,5.8125 15.296875,15.59375 9.703125,9.796875 12.1875,12.640625 4.734375,5.3125 6.609375,9 1.890625,3.6875 1.890625,7.25 0,5.8125 -4.078125,9.46875 -4.078125,3.671875 -10.625,3.671875 -4.640625,0 -9.796875,-1.609375 -5.140625,-1.609375 -11,-4.890625 v 9.96875 Q 13.765625,71.78125 18.9375,73 q 5.1875,1.21875 9.484375,1.21875 11.328125,0 18.0625,-5.671875 6.734375,-5.65625 6.734375,-15.125 0,-4.5 -1.6875,-8.53125 Q 49.859375,40.875 45.40625,35.40625 44.1875,33.984375 37.640625,27.21875 31.109375,20.453125 19.1875,8.296875 Z"
               id="DejaVuSans-50"
               inkscape:connector-curvature="0" />
          </defs>
          <use
             xlink:href="#DejaVuSans-Oblique-113"
             id="use1014"
             x="0"
             y="0"
             width="100%"
             height="100%" />
          <use
             transform="matrix(0.7,0,0,0.7,63.476562,-16.40625)"
             xlink:href="#DejaVuSans-50"
             id="use1016"
             x="0"
             y="0"
             width="100%"
             height="100%" />
        </g>
      </g>
    </g>
    <g
       id="text_8">
      <g
         clip-path="url(#pd905ded8ee)"
         id="g1032">
        <!-- ${q}_{3}$ -->
        <g
           transform="matrix(0.1625,0,0,-0.1625,89.615785,216.17438)"
           id="g1030">
          <defs
             id="defs1024">
            <path
               d="M 40.578125,39.3125 Q 47.65625,37.796875 51.625,33 q 3.984375,-4.78125 3.984375,-11.8125 0,-10.78125 -7.421875,-16.703125 -7.421875,-5.90625 -21.09375,-5.90625 -4.578125,0 -9.4375,0.90625 -4.859375,0.90625 -10.03125,2.71875 v 9.515625 q 4.09375,-2.390625 8.96875,-3.609375 4.890625,-1.21875 10.21875,-1.21875 9.265625,0 14.125,3.65625 4.859375,3.65625 4.859375,10.640625 0,6.453125 -4.515625,10.078125 -4.515625,3.640625 -12.5625,3.640625 h -8.5 v 8.109375 h 8.890625 q 7.265625,0 11.125,2.90625 3.859375,2.90625 3.859375,8.375 0,5.609375 -3.984375,8.609375 -3.96875,3.015625 -11.390625,3.015625 -4.0625,0 -8.703125,-0.890625 Q 15.375,64.15625 9.8125,62.3125 v 8.78125 q 5.625,1.5625 10.53125,2.34375 4.90625,0.78125 9.25,0.78125 11.234375,0 17.765625,-5.109375 6.546875,-5.09375 6.546875,-13.78125 0,-6.0625 -3.46875,-10.234375 -3.46875,-4.171875 -9.859375,-5.78125 z"
               id="DejaVuSans-51"
               inkscape:connector-curvature="0" />
          </defs>
          <use
             xlink:href="#DejaVuSans-Oblique-113"
             id="use1026"
             x="0"
             y="0"
             width="100%"
             height="100%" />
          <use
             transform="matrix(0.7,0,0,0.7,63.476562,-16.40625)"
             xlink:href="#DejaVuSans-51"
             id="use1028"
             x="0"
             y="0"
             width="100%"
             height="100%" />
        </g>
      </g>
    </g>
    <g
       id="text_9">
      <g
         clip-path="url(#pd905ded8ee)"
         id="g1039">
        <!-- 2 -->
        <g
           transform="matrix(0.104,0,0,-0.104,121.28858,250.46642)"
           id="g1037">
          <use
             xlink:href="#DejaVuSans-50"
             id="use1035"
             x="0"
             y="0"
             width="100%"
             height="100%" />
        </g>
      </g>
    </g>
    <g
       id="text_10">
      <g
         clip-path="url(#pd905ded8ee)"
         id="g1049">
        <!-- c -->
        <g
           transform="matrix(0.1625,0,0,-0.1625,98.718324,261.65838)"
           id="g1047">
          <defs
             id="defs1043">
            <path
               d="M 48.78125,52.59375 V 44.1875 q -3.8125,2.109375 -7.640625,3.15625 -3.828125,1.046875 -7.734375,1.046875 -8.75,0 -13.59375,-5.546875 -4.828125,-5.53125 -4.828125,-15.546875 0,-10.015625 4.828125,-15.5625 4.84375,-5.53125 13.59375,-5.53125 3.90625,0 7.734375,1.046875 3.828125,1.046875 7.640625,3.15625 v -8.3125 q -3.765625,-1.75 -7.796875,-2.625 -4.015625,-0.890625 -8.5625,-0.890625 -12.359375,0 -19.640625,7.765625 -7.265625,7.765625 -7.265625,20.953125 0,13.375 7.34375,21.03125 Q 20.21875,56 33.015625,56 q 4.140625,0 8.09375,-0.859375 3.953125,-0.84375 7.671875,-2.546875 z"
               id="DejaVuSans-99"
               inkscape:connector-curvature="0" />
          </defs>
          <use
             xlink:href="#DejaVuSans-99"
             id="use1045"
             x="0"
             y="0"
             width="100%"
             height="100%" />
        </g>
      </g>
    </g>
  </g>
  <defs
     id="defs1057">
    <clipPath
       id="pd905ded8ee">
      <rect
         id="rect1054"
         y="39.009602"
         x="60.452648"
         width="338.08704"
         height="245.43539" />
    </clipPath>
  </defs>
  <text
     id="text1200"
     y="239.93999"
     x="177.05249"
     style="font-style:normal;font-variant:normal;font-weight:normal;font-stretch:normal;font-size:12px;line-height:1.25;font-family:'IBM Plex Mono';-inkscape-font-specification:'IBM Plex Mono Normal';font-variant-ligatures:normal;font-variant-caps:normal;font-variant-numeric:normal;font-variant-east-asian:normal;fill:#000000;fill-opacity:1;stroke:none;stroke-width:0.75;stroke-linecap:butt;stroke-linejoin:round"
     xml:space="preserve"><tspan
       y="239.93999"
       x="177.05249"
       id="tspan1202"
       sodipodi:role="line"></tspan></text>
  <text
     id="text1206"
     y="269.93246"
     x="169.31248"
     style="font-style:normal;font-variant:normal;font-weight:normal;font-stretch:normal;font-size:12px;line-height:1.25;font-family:'IBM Plex Mono';-inkscape-font-specification:'IBM Plex Mono Normal';font-variant-ligatures:normal;font-variant-caps:normal;font-variant-numeric:normal;font-variant-east-asian:normal;fill:#000000;fill-opacity:1;stroke:none;stroke-width:0.75;stroke-linecap:butt;stroke-linejoin:round"
     xml:space="preserve"><tspan
       y="269.93246"
       x="169.31248"
       id="tspan1208"
       sodipodi:role="line"></tspan></text>
  <text
     id="text1212"
     y="225.42747"
     x="190.59749"
     style="font-size:16px;line-height:1.25;font-family:'IBM Plex Mono';-inkscape-font-specification:'IBM Plex Mono Normal';stroke-width:0.75"
     xml:space="preserve"><tspan
       style="stroke-width:0.75"
       y="225.42747"
       x="190.59749"
       id="tspan1210"
       sodipodi:role="line" /></text>
  <text
     id="text1216"
     y="83.850288"
     x="18.325962"
     style="font-size:16px;line-height:1.25;font-family:'IBM Plex Mono';-inkscape-font-specification:'IBM Plex Mono Normal';stroke-width:0.75"
     xml:space="preserve"><tspan
       style="stroke-width:0.75"
       y="83.850288"
       x="18.325962"
       id="tspan1214"
       sodipodi:role="line">Encode</tspan><tspan
       id="tspan1218"
       style="stroke-width:0.75"
       y="103.85029"
       x="18.325962"
       sodipodi:role="line">input</tspan></text>
  <text
     id="text1222"
     y="34.50779"
     x="249.07468"
     style="font-size:16px;line-height:1.25;font-family:'IBM Plex Mono';-inkscape-font-specification:'IBM Plex Mono Normal';stroke-width:0.75"
     xml:space="preserve"><tspan
       style="stroke-width:0.75"
       y="34.50779"
       x="249.07468"
       id="tspan1220"
       sodipodi:role="line">Do operations</tspan><tspan
       id="tspan1224"
       style="stroke-width:0.75"
       y="54.50779"
       x="249.07468"
       sodipodi:role="line">on bits</tspan></text>
  <text
     id="text1228"
     y="217.3653"
     x="494.33594"
     style="font-size:16px;line-height:1.25;font-family:'IBM Plex Mono';-inkscape-font-specification:'IBM Plex Mono Normal';stroke-width:0.75"
     xml:space="preserve"><tspan
       style="stroke-width:0.75"
       y="217.3653"
       x="494.33594"
       id="tspan1226"
       sodipodi:role="line">Extract</tspan><tspan
       id="tspan1230"
       style="stroke-width:0.75"
       y="237.3653"
       x="494.33594"
       sodipodi:role="line">output</tspan></text>
  <path
     inkscape:connector-curvature="0"
     id="path1232"
     d="m 67.311796,118.84181 55.559554,46.87327"
     style="fill:none;stroke:#000000;stroke-width:1.82827;stroke-linecap:butt;stroke-linejoin:miter;stroke-miterlimit:4;stroke-dasharray:none;stroke-opacity:1;marker-end:url(#Arrow1Mend)" />
  <path
     style="fill:none;stroke:#000000;stroke-width:1.82827;stroke-linecap:butt;stroke-linejoin:miter;stroke-miterlimit:4;stroke-dasharray:none;stroke-opacity:1;marker-end:url(#Arrow1Mend-7)"
     d="M 76.279936,97.322623 144.81362,121.55281"
     id="path1232-2"
     inkscape:connector-curvature="0" />
  <path
     inkscape:connector-curvature="0"
     id="path1745"
     d="M 260.68469,68.854033 231.17594,122.55027"
     style="fill:none;stroke:#000000;stroke-width:1.41732;stroke-linecap:butt;stroke-linejoin:miter;stroke-miterlimit:4;stroke-dasharray:none;stroke-opacity:1;marker-end:url(#marker1749)" />
  <path
     style="fill:none;stroke:#000000;stroke-width:1.37137;stroke-linecap:butt;stroke-linejoin:miter;stroke-miterlimit:4;stroke-dasharray:none;stroke-opacity:1;marker-end:url(#marker1749-7)"
     d="M 279.32323,70.782193 270.07666,127.4874"
     id="path1745-2"
     inkscape:connector-curvature="0" />
  <path
     style="fill:none;stroke:#000000;stroke-width:1.38407;stroke-linecap:butt;stroke-linejoin:miter;stroke-miterlimit:4;stroke-dasharray:none;stroke-opacity:1;marker-end:url(#marker1749-8)"
     d="m 306.00217,68.515503 3.86575,58.312617"
     id="path1745-6"
     inkscape:connector-curvature="0" />
  <path
     inkscape:connector-curvature="0"
     id="path1745-6-4"
     d="m 480.86494,219.52877 -58.38589,2.52873"
     style="fill:none;stroke:#000000;stroke-width:1.38407;stroke-linecap:butt;stroke-linejoin:miter;stroke-miterlimit:4;stroke-dasharray:none;stroke-opacity:1;marker-end:url(#marker1749-8-9)" />
  <path
     style="fill:none;stroke:#000000;stroke-width:1.38407;stroke-linecap:butt;stroke-linejoin:miter;stroke-miterlimit:4;stroke-dasharray:none;stroke-opacity:1;marker-end:url(#marker1749-8-9-2)"
     d="m 484.24485,235.84601 -54.25727,21.71302"
     id="path1745-6-4-7"
     inkscape:connector-curvature="0" />
</svg>
