<svg width="577" height="338" viewBox="0 0 577 338" fill="none" xmlns="http://www.w3.org/2000/svg">
<line x1="4.37114e-08" y1="0.5" x2="576" y2="0.50005" stroke="#F2F4F8"/>
<line x1="4.37114e-08" y1="337.5" x2="576" y2="337.5" stroke="#F2F4F8"/>
<line x1="576.5" y1="1" x2="576.5" y2="337" stroke="#F2F4F8"/>
<line x1="0.5" y1="1" x2="0.5" y2="337" stroke="#F2F4F8"/>
<rect x="174" y="156" width="224" height="8" fill="black"/>
<rect x="230" y="108" width="112" height="104" fill="#FA4D56"/>
<path d="M292.904 161.712H275.496V182H270.12V137.328H275.496V157.04H292.904V137.328H298.28V182H292.904V161.712Z" fill="black"/>
<path d="M453.296 166.24V156.192C456.965 156.021 459.845 155.232 461.936 153.824C464.027 152.373 465.072 150.197 465.072 147.296V146.4C465.072 144.011 464.347 142.219 462.896 141.024C461.488 139.829 459.547 139.232 457.072 139.232C454.512 139.232 452.464 139.936 450.928 141.344C449.392 142.752 448.325 144.544 447.728 146.72L442.928 144.928C443.355 143.52 443.952 142.197 444.72 140.96C445.488 139.68 446.448 138.571 447.6 137.632C448.795 136.693 450.181 135.947 451.76 135.392C453.381 134.837 455.216 134.56 457.264 134.56C459.312 134.56 461.147 134.859 462.768 135.456C464.432 136.011 465.84 136.821 466.992 137.888C468.144 138.912 469.04 140.171 469.68 141.664C470.32 143.157 470.64 144.821 470.64 146.656C470.64 148.661 470.277 150.432 469.552 151.968C468.827 153.461 467.888 154.741 466.736 155.808C465.584 156.875 464.261 157.749 462.768 158.432C461.317 159.072 459.845 159.52 458.352 159.776V166.24H453.296ZM456.048 180.576C454.299 180.576 453.061 180.213 452.336 179.488C451.653 178.763 451.312 177.845 451.312 176.736V175.584C451.312 174.475 451.653 173.557 452.336 172.832C453.061 172.107 454.299 171.744 456.048 171.744C457.797 171.744 459.013 172.107 459.696 172.832C460.421 173.557 460.784 174.475 460.784 175.584V176.736C460.784 177.845 460.421 178.763 459.696 179.488C459.013 180.213 457.797 180.576 456.048 180.576Z" fill="black"/>
<path d="M115.2 180.768C112.469 180.768 110.123 180.256 108.16 179.232C106.197 178.165 104.576 176.651 103.296 174.688C102.016 172.725 101.077 170.315 100.48 167.456C99.8827 164.597 99.584 161.333 99.584 157.664C99.584 154.037 99.8827 150.795 100.48 147.936C101.077 145.035 102.016 142.603 103.296 140.64C104.576 138.677 106.197 137.184 108.16 136.16C110.123 135.093 112.469 134.56 115.2 134.56C117.931 134.56 120.277 135.093 122.24 136.16C124.203 137.184 125.824 138.677 127.104 140.64C128.384 142.603 129.323 145.035 129.92 147.936C130.517 150.795 130.816 154.037 130.816 157.664C130.816 161.333 130.517 164.597 129.92 167.456C129.323 170.315 128.384 172.725 127.104 174.688C125.824 176.651 124.203 178.165 122.24 179.232C120.277 180.256 117.931 180.768 115.2 180.768ZM115.2 176.096C116.992 176.096 118.528 175.755 119.808 175.072C121.088 174.347 122.112 173.344 122.88 172.064C123.691 170.784 124.288 169.248 124.672 167.456C125.056 165.621 125.248 163.573 125.248 161.312V154.016C125.248 151.797 125.056 149.771 124.672 147.936C124.288 146.101 123.691 144.544 122.88 143.264C122.112 141.984 121.088 141.003 119.808 140.32C118.528 139.595 116.992 139.232 115.2 139.232C113.408 139.232 111.872 139.595 110.592 140.32C109.312 141.003 108.267 141.984 107.456 143.264C106.688 144.544 106.112 146.101 105.728 147.936C105.344 149.771 105.152 151.797 105.152 154.016V161.312C105.152 163.573 105.344 165.621 105.728 167.456C106.112 169.248 106.688 170.784 107.456 172.064C108.267 173.344 109.312 174.347 110.592 175.072C111.872 175.755 113.408 176.096 115.2 176.096ZM115.2 161.44C113.707 161.44 112.661 161.141 112.064 160.544C111.509 159.947 111.232 159.221 111.232 158.368V156.96C111.232 156.107 111.509 155.381 112.064 154.784C112.661 154.187 113.707 153.888 115.2 153.888C116.693 153.888 117.717 154.187 118.272 154.784C118.869 155.381 119.168 156.107 119.168 156.96V158.368C119.168 159.221 118.869 159.947 118.272 160.544C117.717 161.141 116.693 161.44 115.2 161.44Z" fill="black"/>
</svg>
