<svg width="577" height="338" viewBox="0 0 577 338" fill="none" xmlns="http://www.w3.org/2000/svg">
<rect width="576" height="337" fill="white"/>
<path d="M28.18 111.656V100.88H29.02V111.656H28.18ZM36.1153 110.144C35.6033 110.144 35.1633 110.048 34.7953 109.856C34.4273 109.656 34.1233 109.372 33.8833 109.004C33.6433 108.636 33.4673 108.184 33.3553 107.648C33.2433 107.112 33.1873 106.5 33.1873 105.812C33.1873 105.132 33.2433 104.524 33.3553 103.988C33.4673 103.444 33.6433 102.988 33.8833 102.62C34.1233 102.252 34.4273 101.972 34.7953 101.78C35.1633 101.58 35.6033 101.48 36.1153 101.48C36.6273 101.48 37.0673 101.58 37.4353 101.78C37.8033 101.972 38.1073 102.252 38.3473 102.62C38.5873 102.988 38.7633 103.444 38.8753 103.988C38.9873 104.524 39.0433 105.132 39.0433 105.812C39.0433 106.5 38.9873 107.112 38.8753 107.648C38.7633 108.184 38.5873 108.636 38.3473 109.004C38.1073 109.372 37.8033 109.656 37.4353 109.856C37.0673 110.048 36.6273 110.144 36.1153 110.144ZM36.1153 109.268C36.4513 109.268 36.7393 109.204 36.9793 109.076C37.2193 108.94 37.4113 108.752 37.5553 108.512C37.7073 108.272 37.8193 107.984 37.8913 107.648C37.9633 107.304 37.9993 106.92 37.9993 106.496V105.128C37.9993 104.712 37.9633 104.332 37.8913 103.988C37.8193 103.644 37.7073 103.352 37.5553 103.112C37.4113 102.872 37.2193 102.688 36.9793 102.56C36.7393 102.424 36.4513 102.356 36.1153 102.356C35.7793 102.356 35.4913 102.424 35.2513 102.56C35.0113 102.688 34.8153 102.872 34.6633 103.112C34.5193 103.352 34.4113 103.644 34.3393 103.988C34.2673 104.332 34.2313 104.712 34.2313 105.128V106.496C34.2313 106.92 34.2673 107.304 34.3393 107.648C34.4113 107.984 34.5193 108.272 34.6633 108.512C34.8153 108.752 35.0113 108.94 35.2513 109.076C35.4913 109.204 35.7793 109.268 36.1153 109.268ZM36.1153 106.52C35.8353 106.52 35.6393 106.464 35.5273 106.352C35.4233 106.24 35.3713 106.104 35.3713 105.944V105.68C35.3713 105.52 35.4233 105.384 35.5273 105.272C35.6393 105.16 35.8353 105.104 36.1153 105.104C36.3953 105.104 36.5873 105.16 36.6913 105.272C36.8033 105.384 36.8593 105.52 36.8593 105.68V105.944C36.8593 106.104 36.8033 106.24 36.6913 106.352C36.5873 106.464 36.3953 106.52 36.1153 106.52ZM41.0506 108.812L45.3106 106.4V106.304L41.0506 103.892V102.872L46.2106 105.86V106.82L41.0506 109.808V108.812Z" fill="black"/>
<path d="M19.468 22.144C18.788 22.144 18.208 22.016 17.728 21.76C17.248 21.496 16.84 21.136 16.504 20.68L17.248 20.056C17.544 20.448 17.872 20.748 18.232 20.956C18.592 21.156 19.016 21.256 19.504 21.256C20.104 21.256 20.56 21.112 20.872 20.824C21.192 20.536 21.352 20.152 21.352 19.672C21.352 19.272 21.232 18.964 20.992 18.748C20.752 18.532 20.356 18.36 19.804 18.232L19.12 18.076C18.352 17.9 17.764 17.636 17.356 17.284C16.956 16.924 16.756 16.42 16.756 15.772C16.756 15.404 16.824 15.076 16.96 14.788C17.096 14.5 17.284 14.26 17.524 14.068C17.772 13.876 18.064 13.732 18.4 13.636C18.744 13.532 19.12 13.48 19.528 13.48C20.16 13.48 20.7 13.596 21.148 13.828C21.604 14.06 21.988 14.4 22.3 14.848L21.544 15.4C21.312 15.08 21.032 14.828 20.704 14.644C20.376 14.46 19.968 14.368 19.48 14.368C18.944 14.368 18.52 14.484 18.208 14.716C17.904 14.94 17.752 15.28 17.752 15.736C17.752 16.136 17.88 16.44 18.136 16.648C18.4 16.848 18.796 17.008 19.324 17.128L20.008 17.284C20.832 17.468 21.428 17.748 21.796 18.124C22.164 18.5 22.348 19 22.348 19.624C22.348 20.008 22.28 20.356 22.144 20.668C22.016 20.98 21.828 21.244 21.58 21.46C21.332 21.676 21.028 21.844 20.668 21.964C20.316 22.084 19.916 22.144 19.468 22.144ZM25.6807 22C25.3447 22 25.0887 21.908 24.9127 21.724C24.7447 21.532 24.6607 21.284 24.6607 20.98V16.648H23.6407V15.808H24.2167C24.4247 15.808 24.5647 15.768 24.6367 15.688C24.7167 15.6 24.7567 15.452 24.7567 15.244V14.092H25.6207V15.808H26.9767V16.648H25.6207V21.16H26.8807V22H25.6807ZM33.3397 22C32.9797 22 32.7197 21.904 32.5597 21.712C32.4077 21.52 32.3117 21.28 32.2717 20.992H32.2117C32.0757 21.376 31.8517 21.664 31.5397 21.856C31.2277 22.048 30.8557 22.144 30.4237 22.144C29.7677 22.144 29.2557 21.976 28.8877 21.64C28.5277 21.304 28.3477 20.848 28.3477 20.272C28.3477 19.688 28.5597 19.24 28.9837 18.928C29.4157 18.616 30.0837 18.46 30.9877 18.46H32.2117V17.848C32.2117 17.408 32.0917 17.072 31.8517 16.84C31.6117 16.608 31.2437 16.492 30.7477 16.492C30.3717 16.492 30.0557 16.576 29.7997 16.744C29.5517 16.912 29.3437 17.136 29.1757 17.416L28.5997 16.876C28.7677 16.54 29.0357 16.256 29.4037 16.024C29.7717 15.784 30.2357 15.664 30.7957 15.664C31.5477 15.664 32.1317 15.848 32.5477 16.216C32.9637 16.584 33.1717 17.096 33.1717 17.752V21.16H33.8797V22H33.3397ZM30.5797 21.328C30.8197 21.328 31.0397 21.3 31.2397 21.244C31.4397 21.188 31.6117 21.108 31.7557 21.004C31.8997 20.9 32.0117 20.78 32.0917 20.644C32.1717 20.508 32.2117 20.36 32.2117 20.2V19.18H30.9397C30.3877 19.18 29.9837 19.26 29.7277 19.42C29.4797 19.58 29.3557 19.812 29.3557 20.116V20.368C29.3557 20.672 29.4637 20.908 29.6797 21.076C29.9037 21.244 30.2037 21.328 30.5797 21.328ZM35.5698 22V15.808H36.5298V16.948H36.5898C36.7018 16.652 36.9018 16.388 37.1898 16.156C37.4778 15.924 37.8738 15.808 38.3778 15.808H38.7498V16.768H38.1858C37.6658 16.768 37.2578 16.868 36.9618 17.068C36.6738 17.26 36.5298 17.504 36.5298 17.8V22H35.5698ZM41.711 22C41.375 22 41.119 21.908 40.943 21.724C40.775 21.532 40.691 21.284 40.691 20.98V16.648H39.671V15.808H40.247C40.455 15.808 40.595 15.768 40.667 15.688C40.747 15.6 40.787 15.452 40.787 15.244V14.092H41.651V15.808H43.007V16.648H41.651V21.16H42.911V22H41.711ZM45.35 14.356C45.142 14.356 44.99 14.308 44.894 14.212C44.806 14.108 44.762 13.976 44.762 13.816V13.66C44.762 13.5 44.806 13.372 44.894 13.276C44.99 13.172 45.142 13.12 45.35 13.12C45.558 13.12 45.706 13.172 45.794 13.276C45.89 13.372 45.938 13.5 45.938 13.66V13.816C45.938 13.976 45.89 14.108 45.794 14.212C45.706 14.308 45.558 14.356 45.35 14.356ZM44.87 15.808H45.83V22H44.87V15.808ZM48.19 22V15.808H49.15V16.816H49.198C49.35 16.464 49.562 16.184 49.834 15.976C50.114 15.768 50.486 15.664 50.95 15.664C51.59 15.664 52.094 15.872 52.462 16.288C52.838 16.696 53.026 17.276 53.026 18.028V22H52.066V18.196C52.066 17.084 51.598 16.528 50.662 16.528C50.47 16.528 50.282 16.552 50.098 16.6C49.922 16.648 49.762 16.72 49.618 16.816C49.474 16.912 49.358 17.036 49.27 17.188C49.19 17.332 49.15 17.504 49.15 17.704V22H48.19ZM60.5503 22.684C60.5503 23.324 60.2983 23.792 59.7943 24.088C59.2983 24.392 58.5503 24.544 57.5503 24.544C56.5823 24.544 55.8863 24.412 55.4623 24.148C55.0383 23.884 54.8263 23.508 54.8263 23.02C54.8263 22.684 54.9143 22.42 55.0903 22.228C55.2663 22.044 55.5063 21.908 55.8103 21.82V21.688C55.4423 21.512 55.2583 21.224 55.2583 20.824C55.2583 20.512 55.3583 20.276 55.5583 20.116C55.7583 19.948 56.0143 19.824 56.3263 19.744V19.696C55.9583 19.52 55.6703 19.268 55.4623 18.94C55.2623 18.612 55.1623 18.232 55.1623 17.8C55.1623 17.488 55.2183 17.2 55.3303 16.936C55.4423 16.672 55.5983 16.448 55.7983 16.264C56.0063 16.072 56.2503 15.924 56.5303 15.82C56.8183 15.716 57.1383 15.664 57.4903 15.664C57.9303 15.664 58.3223 15.744 58.6663 15.904V15.796C58.6663 15.556 58.7223 15.36 58.8343 15.208C58.9463 15.048 59.1303 14.968 59.3863 14.968H60.3103V15.808H59.1343V16.204C59.3583 16.396 59.5303 16.628 59.6503 16.9C59.7783 17.164 59.8423 17.464 59.8423 17.8C59.8423 18.112 59.7863 18.4 59.6743 18.664C59.5623 18.928 59.4023 19.156 59.1943 19.348C58.9943 19.532 58.7503 19.676 58.4623 19.78C58.1743 19.884 57.8543 19.936 57.5023 19.936C57.3023 19.936 57.1023 19.916 56.9023 19.876C56.6943 19.932 56.5063 20.016 56.3383 20.128C56.1703 20.232 56.0863 20.38 56.0863 20.572C56.0863 20.756 56.1743 20.88 56.3503 20.944C56.5263 21.008 56.7543 21.04 57.0343 21.04H58.3543C59.1223 21.04 59.6783 21.188 60.0223 21.484C60.3743 21.772 60.5503 22.172 60.5503 22.684ZM59.6503 22.756C59.6503 22.508 59.5543 22.308 59.3623 22.156C59.1783 22.012 58.8463 21.94 58.3663 21.94H56.3023C55.9183 22.116 55.7263 22.396 55.7263 22.78C55.7263 23.052 55.8263 23.284 56.0263 23.476C56.2343 23.668 56.5823 23.764 57.0703 23.764H57.9583C58.4943 23.764 58.9103 23.68 59.2063 23.512C59.5023 23.344 59.6503 23.092 59.6503 22.756ZM57.5023 19.168C57.9103 19.168 58.2343 19.072 58.4743 18.88C58.7143 18.68 58.8343 18.376 58.8343 17.968V17.632C58.8343 17.224 58.7143 16.924 58.4743 16.732C58.2343 16.532 57.9103 16.432 57.5023 16.432C57.0943 16.432 56.7703 16.532 56.5303 16.732C56.2903 16.924 56.1703 17.224 56.1703 17.632V17.968C56.1703 18.376 56.2903 18.68 56.5303 18.88C56.7703 19.072 57.0943 19.168 57.5023 19.168ZM69.6461 22C69.2861 22 69.0261 21.904 68.8661 21.712C68.7141 21.52 68.6181 21.28 68.5781 20.992H68.5181C68.3821 21.376 68.1581 21.664 67.8461 21.856C67.5341 22.048 67.1621 22.144 66.7301 22.144C66.0741 22.144 65.5621 21.976 65.1941 21.64C64.8341 21.304 64.6541 20.848 64.6541 20.272C64.6541 19.688 64.8661 19.24 65.2901 18.928C65.7221 18.616 66.3901 18.46 67.2941 18.46H68.5181V17.848C68.5181 17.408 68.3981 17.072 68.1581 16.84C67.9181 16.608 67.5501 16.492 67.0541 16.492C66.6781 16.492 66.3621 16.576 66.1061 16.744C65.8581 16.912 65.6501 17.136 65.4821 17.416L64.9061 16.876C65.0741 16.54 65.3421 16.256 65.7101 16.024C66.0781 15.784 66.5421 15.664 67.1021 15.664C67.8541 15.664 68.4381 15.848 68.8541 16.216C69.2701 16.584 69.4781 17.096 69.4781 17.752V21.16H70.1861V22H69.6461ZM66.8861 21.328C67.1261 21.328 67.3461 21.3 67.5461 21.244C67.7461 21.188 67.9181 21.108 68.0621 21.004C68.2061 20.9 68.3181 20.78 68.3981 20.644C68.4781 20.508 68.5181 20.36 68.5181 20.2V19.18H67.2461C66.6941 19.18 66.2901 19.26 66.0341 19.42C65.7861 19.58 65.6621 19.812 65.6621 20.116V20.368C65.6621 20.672 65.7701 20.908 65.9861 21.076C66.2101 21.244 66.5101 21.328 66.8861 21.328ZM71.8763 22V15.808H72.8363V16.816H72.8843C72.9563 16.656 73.0363 16.508 73.1243 16.372C73.2203 16.228 73.3323 16.104 73.4603 16C73.5963 15.896 73.7523 15.816 73.9283 15.76C74.1043 15.696 74.3123 15.664 74.5523 15.664C74.9603 15.664 75.3363 15.764 75.6803 15.964C76.0243 16.156 76.2803 16.476 76.4483 16.924H76.4723C76.5843 16.588 76.7923 16.296 77.0963 16.048C77.4083 15.792 77.8283 15.664 78.3563 15.664C78.9883 15.664 79.4803 15.872 79.8323 16.288C80.1923 16.696 80.3723 17.276 80.3723 18.028V22H79.4123V18.196C79.4123 17.644 79.3043 17.228 79.0883 16.948C78.8723 16.668 78.5283 16.528 78.0563 16.528C77.8643 16.528 77.6803 16.552 77.5043 16.6C77.3363 16.648 77.1843 16.72 77.0483 16.816C76.9123 16.912 76.8043 17.036 76.7243 17.188C76.6443 17.332 76.6043 17.504 76.6043 17.704V22H75.6443V18.196C75.6443 17.644 75.5363 17.228 75.3203 16.948C75.1043 16.668 74.7683 16.528 74.3123 16.528C74.1203 16.528 73.9363 16.552 73.7603 16.6C73.5843 16.648 73.4283 16.72 73.2923 16.816C73.1563 16.912 73.0443 17.036 72.9563 17.188C72.8763 17.332 72.8363 17.504 72.8363 17.704V22H71.8763ZM82.6728 15.808H83.6328V16.816H83.6808C83.8408 16.424 84.0728 16.136 84.3768 15.952C84.6888 15.76 85.0608 15.664 85.4928 15.664C85.8768 15.664 86.2248 15.74 86.5368 15.892C86.8488 16.044 87.1128 16.26 87.3288 16.54C87.5528 16.82 87.7208 17.16 87.8328 17.56C87.9528 17.96 88.0128 18.408 88.0128 18.904C88.0128 19.4 87.9528 19.848 87.8328 20.248C87.7208 20.648 87.5528 20.988 87.3288 21.268C87.1128 21.548 86.8488 21.764 86.5368 21.916C86.2248 22.068 85.8768 22.144 85.4928 22.144C84.6528 22.144 84.0488 21.76 83.6808 20.992H83.6328V24.4H82.6728V15.808ZM85.2288 21.28C85.7728 21.28 86.2008 21.112 86.5128 20.776C86.8248 20.432 86.9808 19.984 86.9808 19.432V18.376C86.9808 17.824 86.8248 17.38 86.5128 17.044C86.2008 16.7 85.7728 16.528 85.2288 16.528C85.0128 16.528 84.8048 16.56 84.6048 16.624C84.4128 16.68 84.2448 16.76 84.1008 16.864C83.9568 16.968 83.8408 17.096 83.7528 17.248C83.6728 17.392 83.6328 17.548 83.6328 17.716V20.02C83.6328 20.22 83.6728 20.4 83.7528 20.56C83.8408 20.712 83.9568 20.844 84.1008 20.956C84.2448 21.06 84.4128 21.14 84.6048 21.196C84.8048 21.252 85.0128 21.28 85.2288 21.28ZM90.9737 22C90.6377 22 90.3817 21.908 90.2057 21.724C90.0377 21.532 89.9537 21.292 89.9537 21.004V13.12H90.9137V21.16H91.8257V22H90.9737ZM94.0233 14.356C93.8153 14.356 93.6633 14.308 93.5673 14.212C93.4793 14.108 93.4353 13.976 93.4353 13.816V13.66C93.4353 13.5 93.4793 13.372 93.5673 13.276C93.6633 13.172 93.8153 13.12 94.0233 13.12C94.2313 13.12 94.3793 13.172 94.4673 13.276C94.5633 13.372 94.6113 13.5 94.6113 13.66V13.816C94.6113 13.976 94.5633 14.108 94.4673 14.212C94.3793 14.308 94.2313 14.356 94.0233 14.356ZM93.5433 15.808H94.5033V22H93.5433V15.808ZM98.2313 22C97.8953 22 97.6393 21.908 97.4633 21.724C97.2953 21.532 97.2113 21.284 97.2113 20.98V16.648H96.1913V15.808H96.7673C96.9753 15.808 97.1153 15.768 97.1873 15.688C97.2673 15.6 97.3073 15.452 97.3073 15.244V14.092H98.1713V15.808H99.5273V16.648H98.1713V21.16H99.4313V22H98.2313ZM105.206 20.992H105.158C105.094 21.136 105.014 21.28 104.918 21.424C104.83 21.56 104.718 21.684 104.582 21.796C104.446 21.9 104.282 21.984 104.09 22.048C103.898 22.112 103.674 22.144 103.418 22.144C102.778 22.144 102.27 21.94 101.894 21.532C101.518 21.116 101.33 20.532 101.33 19.78V15.808H102.29V19.612C102.29 20.724 102.762 21.28 103.706 21.28C103.898 21.28 104.082 21.256 104.258 21.208C104.442 21.16 104.602 21.088 104.738 20.992C104.882 20.896 104.994 20.776 105.074 20.632C105.162 20.48 105.206 20.3 105.206 20.092V15.808H106.166V22H105.206V20.992ZM112.491 20.992H112.443C112.067 21.76 111.463 22.144 110.631 22.144C110.247 22.144 109.899 22.068 109.587 21.916C109.275 21.764 109.007 21.548 108.783 21.268C108.567 20.988 108.399 20.648 108.279 20.248C108.167 19.848 108.111 19.4 108.111 18.904C108.111 18.408 108.167 17.96 108.279 17.56C108.399 17.16 108.567 16.82 108.783 16.54C109.007 16.26 109.275 16.044 109.587 15.892C109.899 15.74 110.247 15.664 110.631 15.664C111.063 15.664 111.431 15.76 111.735 15.952C112.047 16.136 112.283 16.424 112.443 16.816H112.491V13.12H113.451V22H112.491V20.992ZM110.895 21.28C111.111 21.28 111.315 21.252 111.507 21.196C111.707 21.14 111.879 21.06 112.023 20.956C112.167 20.844 112.279 20.712 112.359 20.56C112.447 20.4 112.491 20.22 112.491 20.02V17.716C112.491 17.548 112.447 17.392 112.359 17.248C112.279 17.096 112.167 16.968 112.023 16.864C111.879 16.76 111.707 16.68 111.507 16.624C111.315 16.56 111.111 16.528 110.895 16.528C110.351 16.528 109.923 16.7 109.611 17.044C109.299 17.38 109.143 17.824 109.143 18.376V19.432C109.143 19.984 109.299 20.432 109.611 20.776C109.923 21.112 110.351 21.28 110.895 21.28ZM118.14 22.144C117.716 22.144 117.332 22.068 116.988 21.916C116.652 21.764 116.36 21.548 116.112 21.268C115.872 20.98 115.684 20.64 115.548 20.248C115.42 19.848 115.356 19.4 115.356 18.904C115.356 18.416 115.42 17.972 115.548 17.572C115.684 17.172 115.872 16.832 116.112 16.552C116.36 16.264 116.652 16.044 116.988 15.892C117.332 15.74 117.716 15.664 118.14 15.664C118.556 15.664 118.928 15.74 119.256 15.892C119.584 16.044 119.864 16.256 120.096 16.528C120.328 16.792 120.504 17.108 120.624 17.476C120.752 17.844 120.816 18.248 120.816 18.688V19.144H116.364V19.432C116.364 19.696 116.404 19.944 116.484 20.176C116.572 20.4 116.692 20.596 116.844 20.764C117.004 20.932 117.196 21.064 117.42 21.16C117.652 21.256 117.912 21.304 118.2 21.304C118.592 21.304 118.932 21.212 119.22 21.028C119.516 20.844 119.744 20.58 119.904 20.236L120.588 20.728C120.388 21.152 120.076 21.496 119.652 21.76C119.228 22.016 118.724 22.144 118.14 22.144ZM118.14 16.468C117.876 16.468 117.636 16.516 117.42 16.612C117.204 16.7 117.016 16.828 116.856 16.996C116.704 17.164 116.584 17.364 116.496 17.596C116.408 17.82 116.364 18.068 116.364 18.34V18.424H119.784V18.292C119.784 17.74 119.632 17.3 119.328 16.972C119.032 16.636 118.636 16.468 118.14 16.468ZM124.578 22.144C124.002 22.144 123.518 22.036 123.126 21.82C122.742 21.596 122.41 21.3 122.13 20.932L122.814 20.38C123.054 20.684 123.322 20.92 123.618 21.088C123.914 21.248 124.258 21.328 124.65 21.328C125.058 21.328 125.374 21.24 125.598 21.064C125.83 20.888 125.946 20.64 125.946 20.32C125.946 20.08 125.866 19.876 125.706 19.708C125.554 19.532 125.274 19.412 124.866 19.348L124.374 19.276C124.086 19.236 123.822 19.176 123.582 19.096C123.342 19.008 123.13 18.896 122.946 18.76C122.77 18.616 122.63 18.44 122.526 18.232C122.43 18.024 122.382 17.776 122.382 17.488C122.382 17.184 122.438 16.92 122.55 16.696C122.662 16.464 122.814 16.272 123.006 16.12C123.206 15.968 123.442 15.856 123.714 15.784C123.986 15.704 124.278 15.664 124.59 15.664C125.094 15.664 125.514 15.752 125.85 15.928C126.194 16.104 126.494 16.348 126.75 16.66L126.114 17.236C125.978 17.044 125.778 16.872 125.514 16.72C125.25 16.56 124.918 16.48 124.518 16.48C124.118 16.48 123.814 16.568 123.606 16.744C123.406 16.912 123.306 17.144 123.306 17.44C123.306 17.744 123.406 17.964 123.606 18.1C123.814 18.236 124.11 18.336 124.494 18.4L124.974 18.472C125.662 18.576 126.15 18.776 126.438 19.072C126.726 19.36 126.87 19.74 126.87 20.212C126.87 20.812 126.666 21.284 126.258 21.628C125.85 21.972 125.29 22.144 124.578 22.144Z" fill="black"/>
<line x1="4.37114e-08" y1="0.5" x2="576" y2="0.50005" stroke="#C1C7CD"/>
<line x1="4.37114e-08" y1="337.5" x2="576" y2="337.5" stroke="#C1C7CD"/>
<line x1="192.5" y1="1" x2="192.5" y2="337" stroke="#C1C7CD"/>
<line x1="384.5" y1="1" x2="384.5" y2="337" stroke="#C1C7CD"/>
<line x1="576.5" y1="1" x2="576.5" y2="337" stroke="#C1C7CD"/>
<line x1="0.5" y1="1" x2="0.5" y2="337" stroke="#C1C7CD"/>
<circle cx="36" cy="74" r="20" fill="#A56EFF"/>
<line x1="37" y1="75" x2="56" y2="75" stroke="white" stroke-width="2"/>
<rect x="76" y="65" width="115" height="91" rx="2" fill="#393939"/>
<path d="M73 76.5L76.75 72.6029L76.75 80.3971L73 76.5Z" fill="#393939"/>
<path d="M97.577 82L97.027 80.174H94.464L93.914 82H92.22L94.75 74.322H96.818L99.315 82H97.577ZM95.762 75.84H95.707L94.86 78.755H96.62L95.762 75.84ZM100.449 82V76.225H102.077V77.204H102.143C102.246 76.896 102.422 76.6357 102.671 76.423C102.921 76.203 103.262 76.093 103.694 76.093C104.09 76.093 104.428 76.192 104.706 76.39C104.985 76.588 105.187 76.8777 105.311 77.259H105.344C105.396 77.0977 105.473 76.9473 105.575 76.808C105.685 76.6613 105.817 76.5367 105.971 76.434C106.125 76.3313 106.298 76.2507 106.488 76.192C106.679 76.126 106.884 76.093 107.104 76.093C107.662 76.093 108.087 76.291 108.38 76.687C108.681 77.083 108.831 77.6477 108.831 78.381V82H107.203V78.513C107.203 77.7797 106.939 77.413 106.411 77.413C106.169 77.413 105.949 77.4827 105.751 77.622C105.553 77.7613 105.454 77.974 105.454 78.26V82H103.826V78.513C103.826 77.7797 103.562 77.413 103.034 77.413C102.917 77.413 102.8 77.4313 102.682 77.468C102.572 77.4973 102.47 77.5487 102.374 77.622C102.286 77.6953 102.213 77.787 102.154 77.897C102.103 77.9997 102.077 78.1207 102.077 78.26V82H100.449ZM110.438 76.225H112.066V77.193H112.121C112.202 76.8703 112.385 76.6063 112.671 76.401C112.965 76.1957 113.298 76.093 113.672 76.093C114.406 76.093 114.959 76.3497 115.333 76.863C115.707 77.3763 115.894 78.1243 115.894 79.107C115.894 80.0897 115.707 80.8413 115.333 81.362C114.959 81.8753 114.406 82.132 113.672 82.132C113.482 82.132 113.302 82.1027 113.133 82.044C112.965 81.9927 112.811 81.9193 112.671 81.824C112.539 81.7213 112.426 81.604 112.33 81.472C112.235 81.3327 112.165 81.186 112.121 81.032H112.066V84.2H110.438V76.225ZM113.133 80.812C113.441 80.812 113.694 80.7057 113.892 80.493C114.098 80.273 114.2 79.9797 114.2 79.613V78.612C114.2 78.2453 114.098 77.9557 113.892 77.743C113.694 77.523 113.441 77.413 113.133 77.413C112.825 77.413 112.569 77.49 112.363 77.644C112.165 77.7907 112.066 77.996 112.066 78.26V79.965C112.066 80.229 112.165 80.438 112.363 80.592C112.569 80.7387 112.825 80.812 113.133 80.812ZM118.908 82C118.35 82 117.94 81.8643 117.676 81.593C117.419 81.3217 117.291 80.9293 117.291 80.416V73.86H118.919V80.735H119.645V82H118.908ZM121.595 75.609C121.265 75.609 121.023 75.5357 120.869 75.389C120.722 75.235 120.649 75.0407 120.649 74.806V74.564C120.649 74.3293 120.722 74.1387 120.869 73.992C121.023 73.838 121.265 73.761 121.595 73.761C121.925 73.761 122.163 73.838 122.31 73.992C122.464 74.1387 122.541 74.3293 122.541 74.564V74.806C122.541 75.0407 122.464 75.235 122.31 75.389C122.163 75.5357 121.925 75.609 121.595 75.609ZM120.781 76.225H122.409V82H120.781V76.225ZM126.112 82C125.548 82 125.119 81.857 124.825 81.571C124.539 81.285 124.396 80.867 124.396 80.317V77.49H123.582V76.225H123.989C124.209 76.225 124.36 76.1737 124.44 76.071C124.521 75.961 124.561 75.807 124.561 75.609V74.663H126.024V76.225H127.168V77.49H126.024V80.735H127.08V82H126.112ZM131.869 81.032H131.814C131.763 81.1787 131.693 81.318 131.605 81.45C131.525 81.582 131.418 81.6993 131.286 81.802C131.154 81.9047 130.997 81.9853 130.813 82.044C130.637 82.1027 130.432 82.132 130.197 82.132C129.603 82.132 129.152 81.9377 128.844 81.549C128.544 81.153 128.393 80.5883 128.393 79.855V76.225H130.021V79.712C130.021 80.064 130.084 80.3353 130.208 80.526C130.333 80.7167 130.546 80.812 130.846 80.812C130.971 80.812 131.096 80.7937 131.22 80.757C131.345 80.7203 131.455 80.669 131.55 80.603C131.646 80.5297 131.723 80.4417 131.781 80.339C131.84 80.2363 131.869 80.1153 131.869 79.976V76.225H133.497V82H131.869V81.032ZM138.714 81.032H138.659C138.615 81.186 138.545 81.3327 138.45 81.472C138.355 81.604 138.237 81.7213 138.098 81.824C137.966 81.9193 137.812 81.9927 137.636 82.044C137.467 82.1027 137.291 82.132 137.108 82.132C136.375 82.132 135.821 81.8753 135.447 81.362C135.073 80.8413 134.886 80.0897 134.886 79.107C134.886 78.1243 135.073 77.3763 135.447 76.863C135.821 76.3497 136.375 76.093 137.108 76.093C137.482 76.093 137.812 76.1957 138.098 76.401C138.391 76.6063 138.578 76.8703 138.659 77.193H138.714V73.86H140.342V82H138.714V81.032ZM137.647 80.812C137.955 80.812 138.208 80.7387 138.406 80.592C138.611 80.438 138.714 80.229 138.714 79.965V78.26C138.714 77.996 138.611 77.7907 138.406 77.644C138.208 77.49 137.955 77.413 137.647 77.413C137.339 77.413 137.082 77.523 136.877 77.743C136.679 77.9557 136.58 78.2453 136.58 78.612V79.613C136.58 79.9797 136.679 80.273 136.877 80.493C137.082 80.7057 137.339 80.812 137.647 80.812ZM144.433 82.132C143.993 82.132 143.601 82.0623 143.256 81.923C142.912 81.7763 142.618 81.5747 142.376 81.318C142.142 81.054 141.962 80.735 141.837 80.361C141.72 79.987 141.661 79.569 141.661 79.107C141.661 78.6523 141.72 78.2417 141.837 77.875C141.955 77.501 142.127 77.182 142.354 76.918C142.589 76.654 142.875 76.4523 143.212 76.313C143.55 76.1663 143.935 76.093 144.367 76.093C144.844 76.093 145.251 76.1737 145.588 76.335C145.933 76.4963 146.212 76.7127 146.424 76.984C146.644 77.2553 146.802 77.5707 146.897 77.93C147 78.282 147.051 78.6523 147.051 79.041V79.525H143.344V79.613C143.344 79.9943 143.447 80.2987 143.652 80.526C143.858 80.746 144.18 80.856 144.62 80.856C144.958 80.856 145.233 80.79 145.445 80.658C145.658 80.5187 145.856 80.3537 146.039 80.163L146.853 81.175C146.597 81.4757 146.259 81.7103 145.841 81.879C145.431 82.0477 144.961 82.132 144.433 82.132ZM144.4 77.292C144.07 77.292 143.81 77.402 143.619 77.622C143.436 77.8347 143.344 78.1207 143.344 78.48V78.568H145.368V78.469C145.368 78.117 145.288 77.8347 145.126 77.622C144.972 77.402 144.73 77.292 144.4 77.292ZM99.007 95.532H98.952L98.303 96.819L96.466 100.163L94.629 96.819L93.98 95.532H93.925V102H93.023V94.322H94.255L96.455 98.458H96.51L98.721 94.322H99.909V102H99.007V95.532ZM106.147 102C105.817 102 105.578 101.912 105.432 101.736C105.292 101.56 105.204 101.34 105.168 101.076H105.113C104.988 101.428 104.783 101.692 104.497 101.868C104.211 102.044 103.87 102.132 103.474 102.132C102.872 102.132 102.403 101.978 102.066 101.67C101.736 101.362 101.571 100.944 101.571 100.416C101.571 99.8807 101.765 99.47 102.154 99.184C102.55 98.898 103.162 98.755 103.991 98.755H105.113V98.194C105.113 97.7907 105.003 97.4827 104.783 97.27C104.563 97.0573 104.225 96.951 103.771 96.951C103.426 96.951 103.136 97.028 102.902 97.182C102.674 97.336 102.484 97.5413 102.33 97.798L101.802 97.303C101.956 96.995 102.201 96.7347 102.539 96.522C102.876 96.302 103.301 96.192 103.815 96.192C104.504 96.192 105.039 96.3607 105.421 96.698C105.802 97.0353 105.993 97.5047 105.993 98.106V101.23H106.642V102H106.147ZM103.617 101.384C103.837 101.384 104.038 101.358 104.222 101.307C104.405 101.256 104.563 101.182 104.695 101.087C104.827 100.992 104.929 100.882 105.003 100.757C105.076 100.632 105.113 100.497 105.113 100.35V99.415H103.947C103.441 99.415 103.07 99.4883 102.836 99.635C102.608 99.7817 102.495 99.9943 102.495 100.273V100.504C102.495 100.783 102.594 100.999 102.792 101.153C102.997 101.307 103.272 101.384 103.617 101.384ZM112.843 102.627C112.843 103.214 112.612 103.643 112.15 103.914C111.695 104.193 111.009 104.332 110.093 104.332C109.205 104.332 108.567 104.211 108.179 103.969C107.79 103.727 107.596 103.382 107.596 102.935C107.596 102.627 107.676 102.385 107.838 102.209C107.999 102.04 108.219 101.916 108.498 101.835V101.714C108.16 101.553 107.992 101.289 107.992 100.922C107.992 100.636 108.083 100.42 108.267 100.273C108.45 100.119 108.685 100.005 108.971 99.932V99.888C108.633 99.7267 108.369 99.4957 108.179 99.195C107.995 98.8943 107.904 98.546 107.904 98.15C107.904 97.864 107.955 97.6 108.058 97.358C108.16 97.116 108.303 96.9107 108.487 96.742C108.677 96.566 108.901 96.4303 109.158 96.335C109.422 96.2397 109.715 96.192 110.038 96.192C110.441 96.192 110.8 96.2653 111.116 96.412V96.313C111.116 96.093 111.167 95.9133 111.27 95.774C111.372 95.6273 111.541 95.554 111.776 95.554H112.623V96.324H111.545V96.687C111.75 96.863 111.908 97.0757 112.018 97.325C112.135 97.567 112.194 97.842 112.194 98.15C112.194 98.436 112.142 98.7 112.04 98.942C111.937 99.184 111.79 99.393 111.6 99.569C111.416 99.7377 111.193 99.8697 110.929 99.965C110.665 100.06 110.371 100.108 110.049 100.108C109.865 100.108 109.682 100.09 109.499 100.053C109.308 100.104 109.136 100.181 108.982 100.284C108.828 100.379 108.751 100.515 108.751 100.691C108.751 100.86 108.831 100.973 108.993 101.032C109.154 101.091 109.363 101.12 109.62 101.12H110.83C111.534 101.12 112.043 101.256 112.359 101.527C112.681 101.791 112.843 102.158 112.843 102.627ZM112.018 102.693C112.018 102.466 111.93 102.282 111.754 102.143C111.585 102.011 111.281 101.945 110.841 101.945H108.949C108.597 102.106 108.421 102.363 108.421 102.715C108.421 102.964 108.512 103.177 108.696 103.353C108.886 103.529 109.205 103.617 109.653 103.617H110.467C110.958 103.617 111.339 103.54 111.611 103.386C111.882 103.232 112.018 103.001 112.018 102.693ZM110.049 99.404C110.423 99.404 110.72 99.316 110.94 99.14C111.16 98.9567 111.27 98.678 111.27 98.304V97.996C111.27 97.622 111.16 97.347 110.94 97.171C110.72 96.9877 110.423 96.896 110.049 96.896C109.675 96.896 109.378 96.9877 109.158 97.171C108.938 97.347 108.828 97.622 108.828 97.996V98.304C108.828 98.678 108.938 98.9567 109.158 99.14C109.378 99.316 109.675 99.404 110.049 99.404ZM114.029 102V96.324H114.909V97.248H114.953C115.093 96.9253 115.287 96.6687 115.536 96.478C115.793 96.2873 116.134 96.192 116.559 96.192C117.146 96.192 117.608 96.3827 117.945 96.764C118.29 97.138 118.462 97.6697 118.462 98.359V102H117.582V98.513C117.582 97.4937 117.153 96.984 116.295 96.984C116.119 96.984 115.947 97.006 115.778 97.05C115.617 97.094 115.47 97.16 115.338 97.248C115.206 97.336 115.1 97.4497 115.019 97.589C114.946 97.721 114.909 97.8787 114.909 98.062V102H114.029ZM120.881 94.993C120.691 94.993 120.551 94.949 120.463 94.861C120.383 94.7657 120.342 94.6447 120.342 94.498V94.355C120.342 94.2083 120.383 94.091 120.463 94.003C120.551 93.9077 120.691 93.86 120.881 93.86C121.072 93.86 121.208 93.9077 121.288 94.003C121.376 94.091 121.42 94.2083 121.42 94.355V94.498C121.42 94.6447 121.376 94.7657 121.288 94.861C121.208 94.949 121.072 94.993 120.881 94.993ZM120.441 96.324H121.321V102H120.441V96.324ZM124.605 102C124.297 102 124.063 101.916 123.901 101.747C123.747 101.571 123.67 101.344 123.67 101.065V97.094H122.735V96.324H123.263C123.454 96.324 123.582 96.2873 123.648 96.214C123.722 96.1333 123.758 95.9977 123.758 95.807V94.751H124.55V96.324H125.793V97.094H124.55V101.23H125.705V102H124.605ZM130.866 101.076H130.822C130.763 101.208 130.69 101.34 130.602 101.472C130.521 101.597 130.418 101.71 130.294 101.813C130.169 101.908 130.019 101.985 129.843 102.044C129.667 102.103 129.461 102.132 129.227 102.132C128.64 102.132 128.174 101.945 127.83 101.571C127.485 101.19 127.313 100.654 127.313 99.965V96.324H128.193V99.811C128.193 100.83 128.625 101.34 129.491 101.34C129.667 101.34 129.835 101.318 129.997 101.274C130.165 101.23 130.312 101.164 130.437 101.076C130.569 100.988 130.671 100.878 130.745 100.746C130.825 100.607 130.866 100.442 130.866 100.251V96.324H131.746V102H130.866V101.076ZM137.41 101.076H137.366C137.021 101.78 136.467 102.132 135.705 102.132C135.353 102.132 135.034 102.062 134.748 101.923C134.462 101.784 134.216 101.586 134.011 101.329C133.813 101.072 133.659 100.761 133.549 100.394C133.446 100.027 133.395 99.6167 133.395 99.162C133.395 98.7073 133.446 98.2967 133.549 97.93C133.659 97.5633 133.813 97.2517 134.011 96.995C134.216 96.7383 134.462 96.5403 134.748 96.401C135.034 96.2617 135.353 96.192 135.705 96.192C136.101 96.192 136.438 96.28 136.717 96.456C137.003 96.6247 137.219 96.8887 137.366 97.248H137.41V93.86H138.29V102H137.41V101.076ZM135.947 101.34C136.145 101.34 136.332 101.314 136.508 101.263C136.691 101.212 136.849 101.138 136.981 101.043C137.113 100.94 137.215 100.819 137.289 100.68C137.369 100.533 137.41 100.368 137.41 100.185V98.073C137.41 97.919 137.369 97.776 137.289 97.644C137.215 97.5047 137.113 97.3873 136.981 97.292C136.849 97.1967 136.691 97.1233 136.508 97.072C136.332 97.0133 136.145 96.984 135.947 96.984C135.448 96.984 135.056 97.1417 134.77 97.457C134.484 97.765 134.341 98.172 134.341 98.678V99.646C134.341 100.152 134.484 100.563 134.77 100.878C135.056 101.186 135.448 101.34 135.947 101.34ZM142.454 102.132C142.066 102.132 141.714 102.062 141.398 101.923C141.09 101.784 140.823 101.586 140.595 101.329C140.375 101.065 140.203 100.753 140.078 100.394C139.961 100.027 139.902 99.6167 139.902 99.162C139.902 98.7147 139.961 98.3077 140.078 97.941C140.203 97.5743 140.375 97.2627 140.595 97.006C140.823 96.742 141.09 96.5403 141.398 96.401C141.714 96.2617 142.066 96.192 142.454 96.192C142.836 96.192 143.177 96.2617 143.477 96.401C143.778 96.5403 144.035 96.7347 144.247 96.984C144.46 97.226 144.621 97.5157 144.731 97.853C144.849 98.1903 144.907 98.5607 144.907 98.964V99.382H140.826V99.646C140.826 99.888 140.863 100.115 140.936 100.328C141.017 100.533 141.127 100.713 141.266 100.867C141.413 101.021 141.589 101.142 141.794 101.23C142.007 101.318 142.245 101.362 142.509 101.362C142.869 101.362 143.18 101.278 143.444 101.109C143.716 100.94 143.925 100.698 144.071 100.383L144.698 100.834C144.515 101.223 144.229 101.538 143.84 101.78C143.452 102.015 142.99 102.132 142.454 102.132ZM142.454 96.929C142.212 96.929 141.992 96.973 141.794 97.061C141.596 97.1417 141.424 97.259 141.277 97.413C141.138 97.567 141.028 97.7503 140.947 97.963C140.867 98.1683 140.826 98.3957 140.826 98.645V98.722H143.961V98.601C143.961 98.095 143.822 97.6917 143.543 97.391C143.272 97.083 142.909 96.929 142.454 96.929ZM147.189 102.132C146.954 102.132 146.782 102.073 146.672 101.956C146.569 101.839 146.518 101.685 146.518 101.494V101.351C146.518 101.16 146.569 101.006 146.672 100.889C146.782 100.772 146.954 100.713 147.189 100.713C147.423 100.713 147.592 100.772 147.695 100.889C147.805 101.006 147.86 101.16 147.86 101.351V101.494C147.86 101.685 147.805 101.839 147.695 101.956C147.592 102.073 147.423 102.132 147.189 102.132ZM147.189 97.611C146.954 97.611 146.782 97.5523 146.672 97.435C146.569 97.3177 146.518 97.1637 146.518 96.973V96.83C146.518 96.6393 146.569 96.4853 146.672 96.368C146.782 96.2507 146.954 96.192 147.189 96.192C147.423 96.192 147.592 96.2507 147.695 96.368C147.805 96.4853 147.86 96.6393 147.86 96.83V96.973C147.86 97.1637 147.805 97.3177 147.695 97.435C147.592 97.5523 147.423 97.611 147.189 97.611ZM152.682 102V101.186H154.827V95.004H154.75L152.814 96.808L152.275 96.225L154.31 94.322H155.751V101.186H157.731V102H152.682ZM93.023 122V114.322H96.081C96.7703 114.322 97.2983 114.52 97.665 114.916C98.039 115.305 98.226 115.84 98.226 116.522C98.226 117.204 98.039 117.743 97.665 118.139C97.2983 118.528 96.7703 118.722 96.081 118.722H93.947V122H93.023ZM93.947 117.908H96.081C96.4477 117.908 96.73 117.813 96.928 117.622C97.1333 117.431 97.236 117.16 97.236 116.808V116.236C97.236 115.884 97.1333 115.613 96.928 115.422C96.73 115.231 96.4477 115.136 96.081 115.136H93.947V117.908ZM99.7659 113.86H100.646V117.248H100.69C100.829 116.925 101.024 116.669 101.273 116.478C101.53 116.287 101.871 116.192 102.296 116.192C102.883 116.192 103.345 116.383 103.682 116.764C104.027 117.138 104.199 117.67 104.199 118.359V122H103.319V118.513C103.319 117.494 102.89 116.984 102.032 116.984C101.856 116.984 101.684 117.006 101.515 117.05C101.354 117.094 101.207 117.16 101.075 117.248C100.943 117.336 100.837 117.45 100.756 117.589C100.683 117.721 100.646 117.879 100.646 118.062V122H99.7659V113.86ZM110.303 122C109.973 122 109.735 121.912 109.588 121.736C109.449 121.56 109.361 121.34 109.324 121.076H109.269C109.144 121.428 108.939 121.692 108.653 121.868C108.367 122.044 108.026 122.132 107.63 122.132C107.029 122.132 106.559 121.978 106.222 121.67C105.892 121.362 105.727 120.944 105.727 120.416C105.727 119.881 105.921 119.47 106.31 119.184C106.706 118.898 107.318 118.755 108.147 118.755H109.269V118.194C109.269 117.791 109.159 117.483 108.939 117.27C108.719 117.057 108.382 116.951 107.927 116.951C107.582 116.951 107.293 117.028 107.058 117.182C106.831 117.336 106.64 117.541 106.486 117.798L105.958 117.303C106.112 116.995 106.358 116.735 106.695 116.522C107.032 116.302 107.458 116.192 107.971 116.192C108.66 116.192 109.196 116.361 109.577 116.698C109.958 117.035 110.149 117.505 110.149 118.106V121.23H110.798V122H110.303ZM107.773 121.384C107.993 121.384 108.195 121.358 108.378 121.307C108.561 121.256 108.719 121.182 108.851 121.087C108.983 120.992 109.086 120.882 109.159 120.757C109.232 120.632 109.269 120.497 109.269 120.35V119.415H108.103C107.597 119.415 107.227 119.488 106.992 119.635C106.765 119.782 106.651 119.994 106.651 120.273V120.504C106.651 120.783 106.75 120.999 106.948 121.153C107.153 121.307 107.428 121.384 107.773 121.384ZM113.919 122.132C113.391 122.132 112.947 122.033 112.588 121.835C112.236 121.63 111.931 121.358 111.675 121.021L112.302 120.515C112.522 120.794 112.767 121.01 113.039 121.164C113.31 121.311 113.625 121.384 113.985 121.384C114.359 121.384 114.648 121.303 114.854 121.142C115.066 120.981 115.173 120.753 115.173 120.46C115.173 120.24 115.099 120.053 114.953 119.899C114.813 119.738 114.557 119.628 114.183 119.569L113.732 119.503C113.468 119.466 113.226 119.411 113.006 119.338C112.786 119.257 112.591 119.155 112.423 119.03C112.261 118.898 112.133 118.737 112.038 118.546C111.95 118.355 111.906 118.128 111.906 117.864C111.906 117.585 111.957 117.343 112.06 117.138C112.162 116.925 112.302 116.749 112.478 116.61C112.661 116.471 112.877 116.368 113.127 116.302C113.376 116.229 113.644 116.192 113.93 116.192C114.392 116.192 114.777 116.273 115.085 116.434C115.4 116.595 115.675 116.819 115.91 117.105L115.327 117.633C115.202 117.457 115.019 117.299 114.777 117.16C114.535 117.013 114.23 116.94 113.864 116.94C113.497 116.94 113.218 117.021 113.028 117.182C112.844 117.336 112.753 117.549 112.753 117.82C112.753 118.099 112.844 118.3 113.028 118.425C113.218 118.55 113.49 118.641 113.842 118.7L114.282 118.766C114.912 118.861 115.36 119.045 115.624 119.316C115.888 119.58 116.02 119.928 116.02 120.361C116.02 120.911 115.833 121.344 115.459 121.659C115.085 121.974 114.571 122.132 113.919 122.132ZM119.868 122.132C119.48 122.132 119.128 122.062 118.812 121.923C118.504 121.784 118.237 121.586 118.009 121.329C117.789 121.065 117.617 120.753 117.492 120.394C117.375 120.027 117.316 119.617 117.316 119.162C117.316 118.715 117.375 118.308 117.492 117.941C117.617 117.574 117.789 117.263 118.009 117.006C118.237 116.742 118.504 116.54 118.812 116.401C119.128 116.262 119.48 116.192 119.868 116.192C120.25 116.192 120.591 116.262 120.891 116.401C121.192 116.54 121.449 116.735 121.661 116.984C121.874 117.226 122.035 117.516 122.145 117.853C122.263 118.19 122.321 118.561 122.321 118.964V119.382H118.24V119.646C118.24 119.888 118.277 120.115 118.35 120.328C118.431 120.533 118.541 120.713 118.68 120.867C118.827 121.021 119.003 121.142 119.208 121.23C119.421 121.318 119.659 121.362 119.923 121.362C120.283 121.362 120.594 121.278 120.858 121.109C121.13 120.94 121.339 120.698 121.485 120.383L122.112 120.834C121.929 121.223 121.643 121.538 121.254 121.78C120.866 122.015 120.404 122.132 119.868 122.132ZM119.868 116.929C119.626 116.929 119.406 116.973 119.208 117.061C119.01 117.142 118.838 117.259 118.691 117.413C118.552 117.567 118.442 117.75 118.361 117.963C118.281 118.168 118.24 118.396 118.24 118.645V118.722H121.375V118.601C121.375 118.095 121.236 117.692 120.957 117.391C120.686 117.083 120.323 116.929 119.868 116.929ZM124.602 122.132C124.368 122.132 124.195 122.073 124.085 121.956C123.983 121.839 123.931 121.685 123.931 121.494V121.351C123.931 121.16 123.983 121.006 124.085 120.889C124.195 120.772 124.368 120.713 124.602 120.713C124.837 120.713 125.006 120.772 125.108 120.889C125.218 121.006 125.273 121.16 125.273 121.351V121.494C125.273 121.685 125.218 121.839 125.108 121.956C125.006 122.073 124.837 122.132 124.602 122.132ZM124.602 117.611C124.368 117.611 124.195 117.552 124.085 117.435C123.983 117.318 123.931 117.164 123.931 116.973V116.83C123.931 116.639 123.983 116.485 124.085 116.368C124.195 116.251 124.368 116.192 124.602 116.192C124.837 116.192 125.006 116.251 125.108 116.368C125.218 116.485 125.273 116.639 125.273 116.83V116.973C125.273 117.164 125.218 117.318 125.108 117.435C125.006 117.552 124.837 117.611 124.602 117.611ZM132.428 122.132C131.511 122.132 130.84 121.784 130.415 121.087C129.997 120.39 129.788 119.415 129.788 118.161C129.788 116.907 129.997 115.932 130.415 115.235C130.84 114.538 131.511 114.19 132.428 114.19C133.344 114.19 134.012 114.538 134.43 115.235C134.855 115.932 135.068 116.907 135.068 118.161C135.068 119.415 134.855 120.39 134.43 121.087C134.012 121.784 133.344 122.132 132.428 122.132ZM132.428 121.329C132.728 121.329 132.985 121.267 133.198 121.142C133.41 121.017 133.583 120.841 133.715 120.614C133.847 120.387 133.942 120.119 134.001 119.811C134.067 119.503 134.1 119.162 134.1 118.788V117.534C134.1 117.16 134.067 116.819 134.001 116.511C133.942 116.203 133.847 115.935 133.715 115.708C133.583 115.481 133.41 115.305 133.198 115.18C132.985 115.055 132.728 114.993 132.428 114.993C132.127 114.993 131.87 115.055 131.658 115.18C131.445 115.305 131.273 115.481 131.141 115.708C131.009 115.935 130.91 116.203 130.844 116.511C130.785 116.819 130.756 117.16 130.756 117.534V118.788C130.756 119.162 130.785 119.503 130.844 119.811C130.91 120.119 131.009 120.387 131.141 120.614C131.273 120.841 131.445 121.017 131.658 121.142C131.87 121.267 132.127 121.329 132.428 121.329ZM93.023 142V134.322H96.081C96.7703 134.322 97.2983 134.52 97.665 134.916C98.039 135.305 98.226 135.84 98.226 136.522C98.226 137.204 98.039 137.743 97.665 138.139C97.2983 138.528 96.7703 138.722 96.081 138.722H93.947V142H93.023ZM93.947 137.908H96.081C96.4477 137.908 96.73 137.813 96.928 137.622C97.1333 137.431 97.236 137.16 97.236 136.808V136.236C97.236 135.884 97.1333 135.613 96.928 135.422C96.73 135.231 96.4477 135.136 96.081 135.136H93.947V137.908ZM99.6585 142V136.324H100.538V137.369H100.593C100.696 137.098 100.879 136.856 101.143 136.643C101.407 136.43 101.77 136.324 102.232 136.324H102.573V137.204H102.056C101.58 137.204 101.206 137.296 100.934 137.479C100.67 137.655 100.538 137.879 100.538 138.15V142H99.6585ZM105.949 142.132C105.567 142.132 105.219 142.062 104.904 141.923C104.588 141.784 104.317 141.586 104.09 141.329C103.87 141.065 103.697 140.753 103.573 140.394C103.448 140.027 103.386 139.617 103.386 139.162C103.386 138.715 103.448 138.308 103.573 137.941C103.697 137.574 103.87 137.263 104.09 137.006C104.317 136.742 104.588 136.54 104.904 136.401C105.219 136.262 105.567 136.192 105.949 136.192C106.33 136.192 106.675 136.262 106.983 136.401C107.298 136.54 107.569 136.742 107.797 137.006C108.024 137.263 108.2 137.574 108.325 137.941C108.449 138.308 108.512 138.715 108.512 139.162C108.512 139.617 108.449 140.027 108.325 140.394C108.2 140.753 108.024 141.065 107.797 141.329C107.569 141.586 107.298 141.784 106.983 141.923C106.675 142.062 106.33 142.132 105.949 142.132ZM105.949 141.351C106.425 141.351 106.814 141.204 107.115 140.911C107.415 140.618 107.566 140.17 107.566 139.569V138.755C107.566 138.154 107.415 137.706 107.115 137.413C106.814 137.12 106.425 136.973 105.949 136.973C105.472 136.973 105.083 137.12 104.783 137.413C104.482 137.706 104.332 138.154 104.332 138.755V139.569C104.332 140.17 104.482 140.618 104.783 140.911C105.083 141.204 105.472 141.351 105.949 141.351ZM110.119 133.86H110.999V137.248H111.043C111.19 136.889 111.402 136.625 111.681 136.456C111.967 136.28 112.308 136.192 112.704 136.192C113.056 136.192 113.375 136.262 113.661 136.401C113.947 136.54 114.189 136.738 114.387 136.995C114.592 137.252 114.746 137.563 114.849 137.93C114.959 138.297 115.014 138.707 115.014 139.162C115.014 139.617 114.959 140.027 114.849 140.394C114.746 140.761 114.592 141.072 114.387 141.329C114.189 141.586 113.947 141.784 113.661 141.923C113.375 142.062 113.056 142.132 112.704 142.132C111.934 142.132 111.38 141.78 111.043 141.076H110.999V142H110.119V133.86ZM112.462 141.34C112.961 141.34 113.353 141.186 113.639 140.878C113.925 140.563 114.068 140.152 114.068 139.646V138.678C114.068 138.172 113.925 137.765 113.639 137.457C113.353 137.142 112.961 136.984 112.462 136.984C112.264 136.984 112.073 137.013 111.89 137.072C111.714 137.123 111.56 137.197 111.428 137.292C111.296 137.387 111.19 137.505 111.109 137.644C111.036 137.776 110.999 137.919 110.999 138.073V140.185C110.999 140.368 111.036 140.533 111.109 140.68C111.19 140.819 111.296 140.94 111.428 141.043C111.56 141.138 111.714 141.212 111.89 141.263C112.073 141.314 112.264 141.34 112.462 141.34ZM120.785 142C120.455 142 120.217 141.912 120.07 141.736C119.931 141.56 119.843 141.34 119.806 141.076H119.751C119.626 141.428 119.421 141.692 119.135 141.868C118.849 142.044 118.508 142.132 118.112 142.132C117.511 142.132 117.041 141.978 116.704 141.67C116.374 141.362 116.209 140.944 116.209 140.416C116.209 139.881 116.403 139.47 116.792 139.184C117.188 138.898 117.8 138.755 118.629 138.755H119.751V138.194C119.751 137.791 119.641 137.483 119.421 137.27C119.201 137.057 118.864 136.951 118.409 136.951C118.064 136.951 117.775 137.028 117.54 137.182C117.313 137.336 117.122 137.541 116.968 137.798L116.44 137.303C116.594 136.995 116.84 136.735 117.177 136.522C117.514 136.302 117.94 136.192 118.453 136.192C119.142 136.192 119.678 136.361 120.059 136.698C120.44 137.035 120.631 137.505 120.631 138.106V141.23H121.28V142H120.785ZM118.255 141.384C118.475 141.384 118.677 141.358 118.86 141.307C119.043 141.256 119.201 141.182 119.333 141.087C119.465 140.992 119.568 140.882 119.641 140.757C119.714 140.632 119.751 140.497 119.751 140.35V139.415H118.585C118.079 139.415 117.709 139.488 117.474 139.635C117.247 139.782 117.133 139.994 117.133 140.273V140.504C117.133 140.783 117.232 140.999 117.43 141.153C117.635 141.307 117.91 141.384 118.255 141.384ZM122.696 133.86H123.576V137.248H123.62C123.767 136.889 123.979 136.625 124.258 136.456C124.544 136.28 124.885 136.192 125.281 136.192C125.633 136.192 125.952 136.262 126.238 136.401C126.524 136.54 126.766 136.738 126.964 136.995C127.169 137.252 127.323 137.563 127.426 137.93C127.536 138.297 127.591 138.707 127.591 139.162C127.591 139.617 127.536 140.027 127.426 140.394C127.323 140.761 127.169 141.072 126.964 141.329C126.766 141.586 126.524 141.784 126.238 141.923C125.952 142.062 125.633 142.132 125.281 142.132C124.511 142.132 123.957 141.78 123.62 141.076H123.576V142H122.696V133.86ZM125.039 141.34C125.538 141.34 125.93 141.186 126.216 140.878C126.502 140.563 126.645 140.152 126.645 139.646V138.678C126.645 138.172 126.502 137.765 126.216 137.457C125.93 137.142 125.538 136.984 125.039 136.984C124.841 136.984 124.65 137.013 124.467 137.072C124.291 137.123 124.137 137.197 124.005 137.292C123.873 137.387 123.767 137.505 123.686 137.644C123.613 137.776 123.576 137.919 123.576 138.073V140.185C123.576 140.368 123.613 140.533 123.686 140.68C123.767 140.819 123.873 140.94 124.005 141.043C124.137 141.138 124.291 141.212 124.467 141.263C124.65 141.314 124.841 141.34 125.039 141.34ZM129.677 134.993C129.486 134.993 129.347 134.949 129.259 134.861C129.178 134.766 129.138 134.645 129.138 134.498V134.355C129.138 134.208 129.178 134.091 129.259 134.003C129.347 133.908 129.486 133.86 129.677 133.86C129.867 133.86 130.003 133.908 130.084 134.003C130.172 134.091 130.216 134.208 130.216 134.355V134.498C130.216 134.645 130.172 134.766 130.084 134.861C130.003 134.949 129.867 134.993 129.677 134.993ZM129.237 136.324H130.117V142H129.237V136.324ZM133.082 142C132.774 142 132.539 141.916 132.378 141.747C132.224 141.571 132.147 141.351 132.147 141.087V133.86H133.027V141.23H133.863V142H133.082ZM135.744 134.993C135.553 134.993 135.414 134.949 135.326 134.861C135.245 134.766 135.205 134.645 135.205 134.498V134.355C135.205 134.208 135.245 134.091 135.326 134.003C135.414 133.908 135.553 133.86 135.744 133.86C135.935 133.86 136.07 133.908 136.151 134.003C136.239 134.091 136.283 134.208 136.283 134.355V134.498C136.283 134.645 136.239 134.766 136.151 134.861C136.07 134.949 135.935 134.993 135.744 134.993ZM135.304 136.324H136.184V142H135.304V136.324ZM139.468 142C139.16 142 138.925 141.916 138.764 141.747C138.61 141.571 138.533 141.344 138.533 141.065V137.094H137.598V136.324H138.126C138.317 136.324 138.445 136.287 138.511 136.214C138.584 136.133 138.621 135.998 138.621 135.807V134.751H139.413V136.324H140.656V137.094H139.413V141.23H140.568V142H139.468ZM145.728 136.324H146.597L144.056 143.32C143.99 143.489 143.924 143.628 143.858 143.738C143.792 143.855 143.712 143.947 143.616 144.013C143.521 144.079 143.4 144.127 143.253 144.156C143.114 144.185 142.942 144.2 142.736 144.2H142.285V143.43H143.176L143.605 142.22L141.482 136.324H142.362L143.726 140.185L143.99 141.109H144.045L144.353 140.185L145.728 136.324ZM148.551 142.132C148.316 142.132 148.144 142.073 148.034 141.956C147.931 141.839 147.88 141.685 147.88 141.494V141.351C147.88 141.16 147.931 141.006 148.034 140.889C148.144 140.772 148.316 140.713 148.551 140.713C148.785 140.713 148.954 140.772 149.057 140.889C149.167 141.006 149.222 141.16 149.222 141.351V141.494C149.222 141.685 149.167 141.839 149.057 141.956C148.954 142.073 148.785 142.132 148.551 142.132ZM148.551 137.611C148.316 137.611 148.144 137.552 148.034 137.435C147.931 137.318 147.88 137.164 147.88 136.973V136.83C147.88 136.639 147.931 136.485 148.034 136.368C148.144 136.251 148.316 136.192 148.551 136.192C148.785 136.192 148.954 136.251 149.057 136.368C149.167 136.485 149.222 136.639 149.222 136.83V136.973C149.222 137.164 149.167 137.318 149.057 137.435C148.954 137.552 148.785 137.611 148.551 137.611ZM154.044 142V141.186H156.189V135.004H156.112L154.176 136.808L153.637 136.225L155.672 134.322H157.113V141.186H159.093V142H154.044Z" fill="white"/>
</svg>
