<svg width="577" height="338" viewBox="0 0 577 338" fill="none" xmlns="http://www.w3.org/2000/svg">
<rect width="576" height="337" fill="white"/>
<path d="M28.18 111.656V100.88H29.02V111.656H28.18ZM36.1153 110.144C35.6033 110.144 35.1633 110.048 34.7953 109.856C34.4273 109.656 34.1233 109.372 33.8833 109.004C33.6433 108.636 33.4673 108.184 33.3553 107.648C33.2433 107.112 33.1873 106.5 33.1873 105.812C33.1873 105.132 33.2433 104.524 33.3553 103.988C33.4673 103.444 33.6433 102.988 33.8833 102.62C34.1233 102.252 34.4273 101.972 34.7953 101.78C35.1633 101.58 35.6033 101.48 36.1153 101.48C36.6273 101.48 37.0673 101.58 37.4353 101.78C37.8033 101.972 38.1073 102.252 38.3473 102.62C38.5873 102.988 38.7633 103.444 38.8753 103.988C38.9873 104.524 39.0433 105.132 39.0433 105.812C39.0433 106.5 38.9873 107.112 38.8753 107.648C38.7633 108.184 38.5873 108.636 38.3473 109.004C38.1073 109.372 37.8033 109.656 37.4353 109.856C37.0673 110.048 36.6273 110.144 36.1153 110.144ZM36.1153 109.268C36.4513 109.268 36.7393 109.204 36.9793 109.076C37.2193 108.94 37.4113 108.752 37.5553 108.512C37.7073 108.272 37.8193 107.984 37.8913 107.648C37.9633 107.304 37.9993 106.92 37.9993 106.496V105.128C37.9993 104.712 37.9633 104.332 37.8913 103.988C37.8193 103.644 37.7073 103.352 37.5553 103.112C37.4113 102.872 37.2193 102.688 36.9793 102.56C36.7393 102.424 36.4513 102.356 36.1153 102.356C35.7793 102.356 35.4913 102.424 35.2513 102.56C35.0113 102.688 34.8153 102.872 34.6633 103.112C34.5193 103.352 34.4113 103.644 34.3393 103.988C34.2673 104.332 34.2313 104.712 34.2313 105.128V106.496C34.2313 106.92 34.2673 107.304 34.3393 107.648C34.4113 107.984 34.5193 108.272 34.6633 108.512C34.8153 108.752 35.0113 108.94 35.2513 109.076C35.4913 109.204 35.7793 109.268 36.1153 109.268ZM36.1153 106.52C35.8353 106.52 35.6393 106.464 35.5273 106.352C35.4233 106.24 35.3713 106.104 35.3713 105.944V105.68C35.3713 105.52 35.4233 105.384 35.5273 105.272C35.6393 105.16 35.8353 105.104 36.1153 105.104C36.3953 105.104 36.5873 105.16 36.6913 105.272C36.8033 105.384 36.8593 105.52 36.8593 105.68V105.944C36.8593 106.104 36.8033 106.24 36.6913 106.352C36.5873 106.464 36.3953 106.52 36.1153 106.52ZM41.0506 108.812L45.3106 106.4V106.304L41.0506 103.892V102.872L46.2106 105.86V106.82L41.0506 109.808V108.812Z" fill="black"/>
<path d="M19.468 22.144C18.788 22.144 18.208 22.016 17.728 21.76C17.248 21.496 16.84 21.136 16.504 20.68L17.248 20.056C17.544 20.448 17.872 20.748 18.232 20.956C18.592 21.156 19.016 21.256 19.504 21.256C20.104 21.256 20.56 21.112 20.872 20.824C21.192 20.536 21.352 20.152 21.352 19.672C21.352 19.272 21.232 18.964 20.992 18.748C20.752 18.532 20.356 18.36 19.804 18.232L19.12 18.076C18.352 17.9 17.764 17.636 17.356 17.284C16.956 16.924 16.756 16.42 16.756 15.772C16.756 15.404 16.824 15.076 16.96 14.788C17.096 14.5 17.284 14.26 17.524 14.068C17.772 13.876 18.064 13.732 18.4 13.636C18.744 13.532 19.12 13.48 19.528 13.48C20.16 13.48 20.7 13.596 21.148 13.828C21.604 14.06 21.988 14.4 22.3 14.848L21.544 15.4C21.312 15.08 21.032 14.828 20.704 14.644C20.376 14.46 19.968 14.368 19.48 14.368C18.944 14.368 18.52 14.484 18.208 14.716C17.904 14.94 17.752 15.28 17.752 15.736C17.752 16.136 17.88 16.44 18.136 16.648C18.4 16.848 18.796 17.008 19.324 17.128L20.008 17.284C20.832 17.468 21.428 17.748 21.796 18.124C22.164 18.5 22.348 19 22.348 19.624C22.348 20.008 22.28 20.356 22.144 20.668C22.016 20.98 21.828 21.244 21.58 21.46C21.332 21.676 21.028 21.844 20.668 21.964C20.316 22.084 19.916 22.144 19.468 22.144ZM25.6807 22C25.3447 22 25.0887 21.908 24.9127 21.724C24.7447 21.532 24.6607 21.284 24.6607 20.98V16.648H23.6407V15.808H24.2167C24.4247 15.808 24.5647 15.768 24.6367 15.688C24.7167 15.6 24.7567 15.452 24.7567 15.244V14.092H25.6207V15.808H26.9767V16.648H25.6207V21.16H26.8807V22H25.6807ZM33.3397 22C32.9797 22 32.7197 21.904 32.5597 21.712C32.4077 21.52 32.3117 21.28 32.2717 20.992H32.2117C32.0757 21.376 31.8517 21.664 31.5397 21.856C31.2277 22.048 30.8557 22.144 30.4237 22.144C29.7677 22.144 29.2557 21.976 28.8877 21.64C28.5277 21.304 28.3477 20.848 28.3477 20.272C28.3477 19.688 28.5597 19.24 28.9837 18.928C29.4157 18.616 30.0837 18.46 30.9877 18.46H32.2117V17.848C32.2117 17.408 32.0917 17.072 31.8517 16.84C31.6117 16.608 31.2437 16.492 30.7477 16.492C30.3717 16.492 30.0557 16.576 29.7997 16.744C29.5517 16.912 29.3437 17.136 29.1757 17.416L28.5997 16.876C28.7677 16.54 29.0357 16.256 29.4037 16.024C29.7717 15.784 30.2357 15.664 30.7957 15.664C31.5477 15.664 32.1317 15.848 32.5477 16.216C32.9637 16.584 33.1717 17.096 33.1717 17.752V21.16H33.8797V22H33.3397ZM30.5797 21.328C30.8197 21.328 31.0397 21.3 31.2397 21.244C31.4397 21.188 31.6117 21.108 31.7557 21.004C31.8997 20.9 32.0117 20.78 32.0917 20.644C32.1717 20.508 32.2117 20.36 32.2117 20.2V19.18H30.9397C30.3877 19.18 29.9837 19.26 29.7277 19.42C29.4797 19.58 29.3557 19.812 29.3557 20.116V20.368C29.3557 20.672 29.4637 20.908 29.6797 21.076C29.9037 21.244 30.2037 21.328 30.5797 21.328ZM35.5698 22V15.808H36.5298V16.948H36.5898C36.7018 16.652 36.9018 16.388 37.1898 16.156C37.4778 15.924 37.8738 15.808 38.3778 15.808H38.7498V16.768H38.1858C37.6658 16.768 37.2578 16.868 36.9618 17.068C36.6738 17.26 36.5298 17.504 36.5298 17.8V22H35.5698ZM41.711 22C41.375 22 41.119 21.908 40.943 21.724C40.775 21.532 40.691 21.284 40.691 20.98V16.648H39.671V15.808H40.247C40.455 15.808 40.595 15.768 40.667 15.688C40.747 15.6 40.787 15.452 40.787 15.244V14.092H41.651V15.808H43.007V16.648H41.651V21.16H42.911V22H41.711ZM45.35 14.356C45.142 14.356 44.99 14.308 44.894 14.212C44.806 14.108 44.762 13.976 44.762 13.816V13.66C44.762 13.5 44.806 13.372 44.894 13.276C44.99 13.172 45.142 13.12 45.35 13.12C45.558 13.12 45.706 13.172 45.794 13.276C45.89 13.372 45.938 13.5 45.938 13.66V13.816C45.938 13.976 45.89 14.108 45.794 14.212C45.706 14.308 45.558 14.356 45.35 14.356ZM44.87 15.808H45.83V22H44.87V15.808ZM48.19 22V15.808H49.15V16.816H49.198C49.35 16.464 49.562 16.184 49.834 15.976C50.114 15.768 50.486 15.664 50.95 15.664C51.59 15.664 52.094 15.872 52.462 16.288C52.838 16.696 53.026 17.276 53.026 18.028V22H52.066V18.196C52.066 17.084 51.598 16.528 50.662 16.528C50.47 16.528 50.282 16.552 50.098 16.6C49.922 16.648 49.762 16.72 49.618 16.816C49.474 16.912 49.358 17.036 49.27 17.188C49.19 17.332 49.15 17.504 49.15 17.704V22H48.19ZM60.5503 22.684C60.5503 23.324 60.2983 23.792 59.7943 24.088C59.2983 24.392 58.5503 24.544 57.5503 24.544C56.5823 24.544 55.8863 24.412 55.4623 24.148C55.0383 23.884 54.8263 23.508 54.8263 23.02C54.8263 22.684 54.9143 22.42 55.0903 22.228C55.2663 22.044 55.5063 21.908 55.8103 21.82V21.688C55.4423 21.512 55.2583 21.224 55.2583 20.824C55.2583 20.512 55.3583 20.276 55.5583 20.116C55.7583 19.948 56.0143 19.824 56.3263 19.744V19.696C55.9583 19.52 55.6703 19.268 55.4623 18.94C55.2623 18.612 55.1623 18.232 55.1623 17.8C55.1623 17.488 55.2183 17.2 55.3303 16.936C55.4423 16.672 55.5983 16.448 55.7983 16.264C56.0063 16.072 56.2503 15.924 56.5303 15.82C56.8183 15.716 57.1383 15.664 57.4903 15.664C57.9303 15.664 58.3223 15.744 58.6663 15.904V15.796C58.6663 15.556 58.7223 15.36 58.8343 15.208C58.9463 15.048 59.1303 14.968 59.3863 14.968H60.3103V15.808H59.1343V16.204C59.3583 16.396 59.5303 16.628 59.6503 16.9C59.7783 17.164 59.8423 17.464 59.8423 17.8C59.8423 18.112 59.7863 18.4 59.6743 18.664C59.5623 18.928 59.4023 19.156 59.1943 19.348C58.9943 19.532 58.7503 19.676 58.4623 19.78C58.1743 19.884 57.8543 19.936 57.5023 19.936C57.3023 19.936 57.1023 19.916 56.9023 19.876C56.6943 19.932 56.5063 20.016 56.3383 20.128C56.1703 20.232 56.0863 20.38 56.0863 20.572C56.0863 20.756 56.1743 20.88 56.3503 20.944C56.5263 21.008 56.7543 21.04 57.0343 21.04H58.3543C59.1223 21.04 59.6783 21.188 60.0223 21.484C60.3743 21.772 60.5503 22.172 60.5503 22.684ZM59.6503 22.756C59.6503 22.508 59.5543 22.308 59.3623 22.156C59.1783 22.012 58.8463 21.94 58.3663 21.94H56.3023C55.9183 22.116 55.7263 22.396 55.7263 22.78C55.7263 23.052 55.8263 23.284 56.0263 23.476C56.2343 23.668 56.5823 23.764 57.0703 23.764H57.9583C58.4943 23.764 58.9103 23.68 59.2063 23.512C59.5023 23.344 59.6503 23.092 59.6503 22.756ZM57.5023 19.168C57.9103 19.168 58.2343 19.072 58.4743 18.88C58.7143 18.68 58.8343 18.376 58.8343 17.968V17.632C58.8343 17.224 58.7143 16.924 58.4743 16.732C58.2343 16.532 57.9103 16.432 57.5023 16.432C57.0943 16.432 56.7703 16.532 56.5303 16.732C56.2903 16.924 56.1703 17.224 56.1703 17.632V17.968C56.1703 18.376 56.2903 18.68 56.5303 18.88C56.7703 19.072 57.0943 19.168 57.5023 19.168ZM69.6461 22C69.2861 22 69.0261 21.904 68.8661 21.712C68.7141 21.52 68.6181 21.28 68.5781 20.992H68.5181C68.3821 21.376 68.1581 21.664 67.8461 21.856C67.5341 22.048 67.1621 22.144 66.7301 22.144C66.0741 22.144 65.5621 21.976 65.1941 21.64C64.8341 21.304 64.6541 20.848 64.6541 20.272C64.6541 19.688 64.8661 19.24 65.2901 18.928C65.7221 18.616 66.3901 18.46 67.2941 18.46H68.5181V17.848C68.5181 17.408 68.3981 17.072 68.1581 16.84C67.9181 16.608 67.5501 16.492 67.0541 16.492C66.6781 16.492 66.3621 16.576 66.1061 16.744C65.8581 16.912 65.6501 17.136 65.4821 17.416L64.9061 16.876C65.0741 16.54 65.3421 16.256 65.7101 16.024C66.0781 15.784 66.5421 15.664 67.1021 15.664C67.8541 15.664 68.4381 15.848 68.8541 16.216C69.2701 16.584 69.4781 17.096 69.4781 17.752V21.16H70.1861V22H69.6461ZM66.8861 21.328C67.1261 21.328 67.3461 21.3 67.5461 21.244C67.7461 21.188 67.9181 21.108 68.0621 21.004C68.2061 20.9 68.3181 20.78 68.3981 20.644C68.4781 20.508 68.5181 20.36 68.5181 20.2V19.18H67.2461C66.6941 19.18 66.2901 19.26 66.0341 19.42C65.7861 19.58 65.6621 19.812 65.6621 20.116V20.368C65.6621 20.672 65.7701 20.908 65.9861 21.076C66.2101 21.244 66.5101 21.328 66.8861 21.328ZM71.8763 22V15.808H72.8363V16.816H72.8843C72.9563 16.656 73.0363 16.508 73.1243 16.372C73.2203 16.228 73.3323 16.104 73.4603 16C73.5963 15.896 73.7523 15.816 73.9283 15.76C74.1043 15.696 74.3123 15.664 74.5523 15.664C74.9603 15.664 75.3363 15.764 75.6803 15.964C76.0243 16.156 76.2803 16.476 76.4483 16.924H76.4723C76.5843 16.588 76.7923 16.296 77.0963 16.048C77.4083 15.792 77.8283 15.664 78.3563 15.664C78.9883 15.664 79.4803 15.872 79.8323 16.288C80.1923 16.696 80.3723 17.276 80.3723 18.028V22H79.4123V18.196C79.4123 17.644 79.3043 17.228 79.0883 16.948C78.8723 16.668 78.5283 16.528 78.0563 16.528C77.8643 16.528 77.6803 16.552 77.5043 16.6C77.3363 16.648 77.1843 16.72 77.0483 16.816C76.9123 16.912 76.8043 17.036 76.7243 17.188C76.6443 17.332 76.6043 17.504 76.6043 17.704V22H75.6443V18.196C75.6443 17.644 75.5363 17.228 75.3203 16.948C75.1043 16.668 74.7683 16.528 74.3123 16.528C74.1203 16.528 73.9363 16.552 73.7603 16.6C73.5843 16.648 73.4283 16.72 73.2923 16.816C73.1563 16.912 73.0443 17.036 72.9563 17.188C72.8763 17.332 72.8363 17.504 72.8363 17.704V22H71.8763ZM82.6728 15.808H83.6328V16.816H83.6808C83.8408 16.424 84.0728 16.136 84.3768 15.952C84.6888 15.76 85.0608 15.664 85.4928 15.664C85.8768 15.664 86.2248 15.74 86.5368 15.892C86.8488 16.044 87.1128 16.26 87.3288 16.54C87.5528 16.82 87.7208 17.16 87.8328 17.56C87.9528 17.96 88.0128 18.408 88.0128 18.904C88.0128 19.4 87.9528 19.848 87.8328 20.248C87.7208 20.648 87.5528 20.988 87.3288 21.268C87.1128 21.548 86.8488 21.764 86.5368 21.916C86.2248 22.068 85.8768 22.144 85.4928 22.144C84.6528 22.144 84.0488 21.76 83.6808 20.992H83.6328V24.4H82.6728V15.808ZM85.2288 21.28C85.7728 21.28 86.2008 21.112 86.5128 20.776C86.8248 20.432 86.9808 19.984 86.9808 19.432V18.376C86.9808 17.824 86.8248 17.38 86.5128 17.044C86.2008 16.7 85.7728 16.528 85.2288 16.528C85.0128 16.528 84.8048 16.56 84.6048 16.624C84.4128 16.68 84.2448 16.76 84.1008 16.864C83.9568 16.968 83.8408 17.096 83.7528 17.248C83.6728 17.392 83.6328 17.548 83.6328 17.716V20.02C83.6328 20.22 83.6728 20.4 83.7528 20.56C83.8408 20.712 83.9568 20.844 84.1008 20.956C84.2448 21.06 84.4128 21.14 84.6048 21.196C84.8048 21.252 85.0128 21.28 85.2288 21.28ZM90.9737 22C90.6377 22 90.3817 21.908 90.2057 21.724C90.0377 21.532 89.9537 21.292 89.9537 21.004V13.12H90.9137V21.16H91.8257V22H90.9737ZM94.0233 14.356C93.8153 14.356 93.6633 14.308 93.5673 14.212C93.4793 14.108 93.4353 13.976 93.4353 13.816V13.66C93.4353 13.5 93.4793 13.372 93.5673 13.276C93.6633 13.172 93.8153 13.12 94.0233 13.12C94.2313 13.12 94.3793 13.172 94.4673 13.276C94.5633 13.372 94.6113 13.5 94.6113 13.66V13.816C94.6113 13.976 94.5633 14.108 94.4673 14.212C94.3793 14.308 94.2313 14.356 94.0233 14.356ZM93.5433 15.808H94.5033V22H93.5433V15.808ZM98.2313 22C97.8953 22 97.6393 21.908 97.4633 21.724C97.2953 21.532 97.2113 21.284 97.2113 20.98V16.648H96.1913V15.808H96.7673C96.9753 15.808 97.1153 15.768 97.1873 15.688C97.2673 15.6 97.3073 15.452 97.3073 15.244V14.092H98.1713V15.808H99.5273V16.648H98.1713V21.16H99.4313V22H98.2313ZM105.206 20.992H105.158C105.094 21.136 105.014 21.28 104.918 21.424C104.83 21.56 104.718 21.684 104.582 21.796C104.446 21.9 104.282 21.984 104.09 22.048C103.898 22.112 103.674 22.144 103.418 22.144C102.778 22.144 102.27 21.94 101.894 21.532C101.518 21.116 101.33 20.532 101.33 19.78V15.808H102.29V19.612C102.29 20.724 102.762 21.28 103.706 21.28C103.898 21.28 104.082 21.256 104.258 21.208C104.442 21.16 104.602 21.088 104.738 20.992C104.882 20.896 104.994 20.776 105.074 20.632C105.162 20.48 105.206 20.3 105.206 20.092V15.808H106.166V22H105.206V20.992ZM112.491 20.992H112.443C112.067 21.76 111.463 22.144 110.631 22.144C110.247 22.144 109.899 22.068 109.587 21.916C109.275 21.764 109.007 21.548 108.783 21.268C108.567 20.988 108.399 20.648 108.279 20.248C108.167 19.848 108.111 19.4 108.111 18.904C108.111 18.408 108.167 17.96 108.279 17.56C108.399 17.16 108.567 16.82 108.783 16.54C109.007 16.26 109.275 16.044 109.587 15.892C109.899 15.74 110.247 15.664 110.631 15.664C111.063 15.664 111.431 15.76 111.735 15.952C112.047 16.136 112.283 16.424 112.443 16.816H112.491V13.12H113.451V22H112.491V20.992ZM110.895 21.28C111.111 21.28 111.315 21.252 111.507 21.196C111.707 21.14 111.879 21.06 112.023 20.956C112.167 20.844 112.279 20.712 112.359 20.56C112.447 20.4 112.491 20.22 112.491 20.02V17.716C112.491 17.548 112.447 17.392 112.359 17.248C112.279 17.096 112.167 16.968 112.023 16.864C111.879 16.76 111.707 16.68 111.507 16.624C111.315 16.56 111.111 16.528 110.895 16.528C110.351 16.528 109.923 16.7 109.611 17.044C109.299 17.38 109.143 17.824 109.143 18.376V19.432C109.143 19.984 109.299 20.432 109.611 20.776C109.923 21.112 110.351 21.28 110.895 21.28ZM118.14 22.144C117.716 22.144 117.332 22.068 116.988 21.916C116.652 21.764 116.36 21.548 116.112 21.268C115.872 20.98 115.684 20.64 115.548 20.248C115.42 19.848 115.356 19.4 115.356 18.904C115.356 18.416 115.42 17.972 115.548 17.572C115.684 17.172 115.872 16.832 116.112 16.552C116.36 16.264 116.652 16.044 116.988 15.892C117.332 15.74 117.716 15.664 118.14 15.664C118.556 15.664 118.928 15.74 119.256 15.892C119.584 16.044 119.864 16.256 120.096 16.528C120.328 16.792 120.504 17.108 120.624 17.476C120.752 17.844 120.816 18.248 120.816 18.688V19.144H116.364V19.432C116.364 19.696 116.404 19.944 116.484 20.176C116.572 20.4 116.692 20.596 116.844 20.764C117.004 20.932 117.196 21.064 117.42 21.16C117.652 21.256 117.912 21.304 118.2 21.304C118.592 21.304 118.932 21.212 119.22 21.028C119.516 20.844 119.744 20.58 119.904 20.236L120.588 20.728C120.388 21.152 120.076 21.496 119.652 21.76C119.228 22.016 118.724 22.144 118.14 22.144ZM118.14 16.468C117.876 16.468 117.636 16.516 117.42 16.612C117.204 16.7 117.016 16.828 116.856 16.996C116.704 17.164 116.584 17.364 116.496 17.596C116.408 17.82 116.364 18.068 116.364 18.34V18.424H119.784V18.292C119.784 17.74 119.632 17.3 119.328 16.972C119.032 16.636 118.636 16.468 118.14 16.468ZM124.578 22.144C124.002 22.144 123.518 22.036 123.126 21.82C122.742 21.596 122.41 21.3 122.13 20.932L122.814 20.38C123.054 20.684 123.322 20.92 123.618 21.088C123.914 21.248 124.258 21.328 124.65 21.328C125.058 21.328 125.374 21.24 125.598 21.064C125.83 20.888 125.946 20.64 125.946 20.32C125.946 20.08 125.866 19.876 125.706 19.708C125.554 19.532 125.274 19.412 124.866 19.348L124.374 19.276C124.086 19.236 123.822 19.176 123.582 19.096C123.342 19.008 123.13 18.896 122.946 18.76C122.77 18.616 122.63 18.44 122.526 18.232C122.43 18.024 122.382 17.776 122.382 17.488C122.382 17.184 122.438 16.92 122.55 16.696C122.662 16.464 122.814 16.272 123.006 16.12C123.206 15.968 123.442 15.856 123.714 15.784C123.986 15.704 124.278 15.664 124.59 15.664C125.094 15.664 125.514 15.752 125.85 15.928C126.194 16.104 126.494 16.348 126.75 16.66L126.114 17.236C125.978 17.044 125.778 16.872 125.514 16.72C125.25 16.56 124.918 16.48 124.518 16.48C124.118 16.48 123.814 16.568 123.606 16.744C123.406 16.912 123.306 17.144 123.306 17.44C123.306 17.744 123.406 17.964 123.606 18.1C123.814 18.236 124.11 18.336 124.494 18.4L124.974 18.472C125.662 18.576 126.15 18.776 126.438 19.072C126.726 19.36 126.87 19.74 126.87 20.212C126.87 20.812 126.666 21.284 126.258 21.628C125.85 21.972 125.29 22.144 124.578 22.144Z" fill="black"/>
<line x1="4.37114e-08" y1="0.5" x2="576" y2="0.50005" stroke="#C1C7CD"/>
<line x1="4.37114e-08" y1="337.5" x2="576" y2="337.5" stroke="#C1C7CD"/>
<line x1="192.5" y1="1" x2="192.5" y2="337" stroke="#C1C7CD"/>
<line x1="384.5" y1="1" x2="384.5" y2="337" stroke="#C1C7CD"/>
<line x1="576.5" y1="1" x2="576.5" y2="337" stroke="#C1C7CD"/>
<line x1="0.5" y1="1" x2="0.5" y2="337" stroke="#C1C7CD"/>
<circle cx="36" cy="74" r="20" fill="#A56EFF"/>
<line x1="37" y1="75" x2="56" y2="75" stroke="white" stroke-width="2"/>
<path d="M220.18 111.656V100.88H221.02V111.656H220.18ZM228.115 110.144C227.603 110.144 227.163 110.048 226.795 109.856C226.427 109.656 226.123 109.372 225.883 109.004C225.643 108.636 225.467 108.184 225.355 107.648C225.243 107.112 225.187 106.5 225.187 105.812C225.187 105.132 225.243 104.524 225.355 103.988C225.467 103.444 225.643 102.988 225.883 102.62C226.123 102.252 226.427 101.972 226.795 101.78C227.163 101.58 227.603 101.48 228.115 101.48C228.627 101.48 229.067 101.58 229.435 101.78C229.803 101.972 230.107 102.252 230.347 102.62C230.587 102.988 230.763 103.444 230.875 103.988C230.987 104.524 231.043 105.132 231.043 105.812C231.043 106.5 230.987 107.112 230.875 107.648C230.763 108.184 230.587 108.636 230.347 109.004C230.107 109.372 229.803 109.656 229.435 109.856C229.067 110.048 228.627 110.144 228.115 110.144ZM228.115 109.268C228.451 109.268 228.739 109.204 228.979 109.076C229.219 108.94 229.411 108.752 229.555 108.512C229.707 108.272 229.819 107.984 229.891 107.648C229.963 107.304 229.999 106.92 229.999 106.496V105.128C229.999 104.712 229.963 104.332 229.891 103.988C229.819 103.644 229.707 103.352 229.555 103.112C229.411 102.872 229.219 102.688 228.979 102.56C228.739 102.424 228.451 102.356 228.115 102.356C227.779 102.356 227.491 102.424 227.251 102.56C227.011 102.688 226.815 102.872 226.663 103.112C226.519 103.352 226.411 103.644 226.339 103.988C226.267 104.332 226.231 104.712 226.231 105.128V106.496C226.231 106.92 226.267 107.304 226.339 107.648C226.411 107.984 226.519 108.272 226.663 108.512C226.815 108.752 227.011 108.94 227.251 109.076C227.491 109.204 227.779 109.268 228.115 109.268ZM228.115 106.52C227.835 106.52 227.639 106.464 227.527 106.352C227.423 106.24 227.371 106.104 227.371 105.944V105.68C227.371 105.52 227.423 105.384 227.527 105.272C227.639 105.16 227.835 105.104 228.115 105.104C228.395 105.104 228.587 105.16 228.691 105.272C228.803 105.384 228.859 105.52 228.859 105.68V105.944C228.859 106.104 228.803 106.24 228.691 106.352C228.587 106.464 228.395 106.52 228.115 106.52ZM233.051 108.812L237.311 106.4V106.304L233.051 103.892V102.872L238.211 105.86V106.82L233.051 109.808V108.812Z" fill="black"/>
<path d="M220.18 261.656V250.88H221.02V261.656H220.18ZM225.535 260V259.124H227.935V252.368H227.851L225.739 254.336L225.151 253.7L227.371 251.624H228.943V259.124H231.151V260H225.535ZM233.051 258.812L237.311 256.4V256.304L233.051 253.892V252.872L238.211 255.86V256.82L233.051 259.808V258.812Z" fill="black"/>
<circle cx="228" cy="74" r="20" fill="#DDE1E6"/>
<circle cx="228" cy="74" r="17" fill="#A56EFF"/>
<circle cx="228" cy="224" r="20" fill="#DDE1E6"/>
<circle cx="228" cy="224" r="17" fill="#A56EFF"/>
<path d="M148.036 67L146.536 61.576H145.348V60.808H147.268L147.808 62.8L148.708 66.196H148.768L149.704 62.8L150.868 58.624H151.804L149.392 67H148.036ZM153.511 63.256C153.511 62.68 153.567 62.124 153.679 61.588C153.791 61.052 153.943 60.556 154.135 60.1C154.335 59.636 154.567 59.216 154.831 58.84C155.095 58.464 155.379 58.144 155.683 57.88H156.595C156.259 58.184 155.955 58.528 155.683 58.912C155.419 59.296 155.191 59.704 154.999 60.136C154.815 60.568 154.671 61.008 154.567 61.456C154.463 61.904 154.411 62.336 154.411 62.752V63.784C154.411 64.208 154.463 64.644 154.567 65.092C154.671 65.54 154.819 65.98 155.011 66.412C155.203 66.844 155.431 67.252 155.695 67.636C155.967 68.02 156.267 68.356 156.595 68.644H155.683C155.387 68.396 155.107 68.084 154.843 67.708C154.579 67.332 154.347 66.912 154.147 66.448C153.955 65.984 153.799 65.484 153.679 64.948C153.567 64.404 153.511 63.84 153.511 63.256ZM157.911 67V66.112H160.251V59.368H160.167L158.055 61.336L157.467 60.7L159.687 58.624H161.259V66.112H163.419V67H157.911ZM164.478 68.812L167.61 58.12H168.474L165.342 68.812H164.478ZM175.68 67H170.184V65.968L172.92 63.448C173.312 63.088 173.64 62.708 173.904 62.308C174.168 61.9 174.3 61.492 174.3 61.084V60.94C174.3 60.476 174.172 60.1 173.916 59.812C173.66 59.524 173.272 59.38 172.752 59.38C172.496 59.38 172.272 59.416 172.08 59.488C171.888 59.56 171.72 59.66 171.576 59.788C171.44 59.916 171.324 60.068 171.228 60.244C171.14 60.412 171.068 60.596 171.012 60.796L170.112 60.448C170.192 60.2 170.3 59.96 170.436 59.728C170.58 59.488 170.756 59.276 170.964 59.092C171.18 58.908 171.436 58.76 171.732 58.648C172.036 58.536 172.392 58.48 172.8 58.48C173.208 58.48 173.572 58.54 173.892 58.66C174.212 58.78 174.48 58.948 174.696 59.164C174.912 59.38 175.076 59.636 175.188 59.932C175.308 60.228 175.368 60.556 175.368 60.916C175.368 61.244 175.32 61.548 175.224 61.828C175.136 62.108 175.012 62.376 174.852 62.632C174.692 62.88 174.496 63.124 174.264 63.364C174.04 63.604 173.796 63.844 173.532 64.084L171.276 66.112H175.68V67ZM179.823 63.256C179.823 63.84 179.763 64.404 179.643 64.948C179.531 65.484 179.375 65.984 179.175 66.448C178.983 66.912 178.755 67.332 178.491 67.708C178.227 68.084 177.947 68.396 177.651 68.644H176.739C177.067 68.356 177.363 68.02 177.627 67.636C177.899 67.252 178.131 66.844 178.323 66.412C178.515 65.98 178.663 65.54 178.767 65.092C178.871 64.644 178.923 64.208 178.923 63.784V62.752C178.923 62.336 178.871 61.904 178.767 61.456C178.663 61.008 178.515 60.568 178.323 60.136C178.139 59.704 177.911 59.296 177.639 58.912C177.375 58.528 177.075 58.184 176.739 57.88H177.651C177.955 58.144 178.239 58.464 178.503 58.84C178.767 59.216 178.995 59.636 179.187 60.1C179.387 60.556 179.543 61.052 179.655 61.588C179.767 62.124 179.823 62.68 179.823 63.256Z" fill="black"/>
<path d="M148.036 217L146.536 211.576H145.348V210.808H147.268L147.808 212.8L148.708 216.196H148.768L149.704 212.8L150.868 208.624H151.804L149.392 217H148.036ZM153.511 213.256C153.511 212.68 153.567 212.124 153.679 211.588C153.791 211.052 153.943 210.556 154.135 210.1C154.335 209.636 154.567 209.216 154.831 208.84C155.095 208.464 155.379 208.144 155.683 207.88H156.595C156.259 208.184 155.955 208.528 155.683 208.912C155.419 209.296 155.191 209.704 154.999 210.136C154.815 210.568 154.671 211.008 154.567 211.456C154.463 211.904 154.411 212.336 154.411 212.752V213.784C154.411 214.208 154.463 214.644 154.567 215.092C154.671 215.54 154.819 215.98 155.011 216.412C155.203 216.844 155.431 217.252 155.695 217.636C155.967 218.02 156.267 218.356 156.595 218.644H155.683C155.387 218.396 155.107 218.084 154.843 217.708C154.579 217.332 154.347 216.912 154.147 216.448C153.955 215.984 153.799 215.484 153.679 214.948C153.567 214.404 153.511 213.84 153.511 213.256ZM157.911 217V216.112H160.251V209.368H160.167L158.055 211.336L157.467 210.7L159.687 208.624H161.259V216.112H163.419V217H157.911ZM164.478 218.812L167.61 208.12H168.474L165.342 218.812H164.478ZM175.68 217H170.184V215.968L172.92 213.448C173.312 213.088 173.64 212.708 173.904 212.308C174.168 211.9 174.3 211.492 174.3 211.084V210.94C174.3 210.476 174.172 210.1 173.916 209.812C173.66 209.524 173.272 209.38 172.752 209.38C172.496 209.38 172.272 209.416 172.08 209.488C171.888 209.56 171.72 209.66 171.576 209.788C171.44 209.916 171.324 210.068 171.228 210.244C171.14 210.412 171.068 210.596 171.012 210.796L170.112 210.448C170.192 210.2 170.3 209.96 170.436 209.728C170.58 209.488 170.756 209.276 170.964 209.092C171.18 208.908 171.436 208.76 171.732 208.648C172.036 208.536 172.392 208.48 172.8 208.48C173.208 208.48 173.572 208.54 173.892 208.66C174.212 208.78 174.48 208.948 174.696 209.164C174.912 209.38 175.076 209.636 175.188 209.932C175.308 210.228 175.368 210.556 175.368 210.916C175.368 211.244 175.32 211.548 175.224 211.828C175.136 212.108 175.012 212.376 174.852 212.632C174.692 212.88 174.496 213.124 174.264 213.364C174.04 213.604 173.796 213.844 173.532 214.084L171.276 216.112H175.68V217ZM179.823 213.256C179.823 213.84 179.763 214.404 179.643 214.948C179.531 215.484 179.375 215.984 179.175 216.448C178.983 216.912 178.755 217.332 178.491 217.708C178.227 218.084 177.947 218.396 177.651 218.644H176.739C177.067 218.356 177.363 218.02 177.627 217.636C177.899 217.252 178.131 216.844 178.323 216.412C178.515 215.98 178.663 215.54 178.767 215.092C178.871 214.644 178.923 214.208 178.923 213.784V212.752C178.923 212.336 178.871 211.904 178.767 211.456C178.663 211.008 178.515 210.568 178.323 210.136C178.139 209.704 177.911 209.296 177.639 208.912C177.375 208.528 177.075 208.184 176.739 207.88H177.651C177.955 208.144 178.239 208.464 178.503 208.84C178.767 209.216 178.995 209.636 179.187 210.1C179.387 210.556 179.543 211.052 179.655 211.588C179.767 212.124 179.823 212.68 179.823 213.256Z" fill="black"/>
<path d="M208.72 22V21.16H209.896V14.464H208.72V13.624H212.08V14.464H210.904V21.16H212.08V22H208.72ZM214.145 22V15.808H215.105V16.816H215.153C215.305 16.464 215.517 16.184 215.789 15.976C216.069 15.768 216.441 15.664 216.905 15.664C217.545 15.664 218.049 15.872 218.417 16.288C218.793 16.696 218.981 17.276 218.981 18.028V22H218.021V18.196C218.021 17.084 217.553 16.528 216.617 16.528C216.425 16.528 216.237 16.552 216.053 16.6C215.877 16.648 215.717 16.72 215.573 16.816C215.429 16.912 215.313 17.036 215.225 17.188C215.145 17.332 215.105 17.504 215.105 17.704V22H214.145ZM222.653 22C222.317 22 222.061 21.908 221.885 21.724C221.717 21.532 221.633 21.284 221.633 20.98V16.648H220.613V15.808H221.189C221.397 15.808 221.537 15.768 221.609 15.688C221.689 15.6 221.729 15.452 221.729 15.244V14.092H222.593V15.808H223.949V16.648H222.593V21.16H223.853V22H222.653ZM228.093 22.144C227.669 22.144 227.285 22.068 226.941 21.916C226.605 21.764 226.313 21.548 226.065 21.268C225.825 20.98 225.637 20.64 225.501 20.248C225.373 19.848 225.309 19.4 225.309 18.904C225.309 18.416 225.373 17.972 225.501 17.572C225.637 17.172 225.825 16.832 226.065 16.552C226.313 16.264 226.605 16.044 226.941 15.892C227.285 15.74 227.669 15.664 228.093 15.664C228.509 15.664 228.881 15.74 229.209 15.892C229.537 16.044 229.817 16.256 230.049 16.528C230.281 16.792 230.457 17.108 230.577 17.476C230.705 17.844 230.769 18.248 230.769 18.688V19.144H226.317V19.432C226.317 19.696 226.357 19.944 226.437 20.176C226.525 20.4 226.645 20.596 226.797 20.764C226.957 20.932 227.149 21.064 227.373 21.16C227.605 21.256 227.865 21.304 228.153 21.304C228.545 21.304 228.885 21.212 229.173 21.028C229.469 20.844 229.697 20.58 229.857 20.236L230.541 20.728C230.341 21.152 230.029 21.496 229.605 21.76C229.181 22.016 228.677 22.144 228.093 22.144ZM228.093 16.468C227.829 16.468 227.589 16.516 227.373 16.612C227.157 16.7 226.969 16.828 226.809 16.996C226.657 17.164 226.537 17.364 226.449 17.596C226.361 17.82 226.317 18.068 226.317 18.34V18.424H229.737V18.292C229.737 17.74 229.585 17.3 229.281 16.972C228.985 16.636 228.589 16.468 228.093 16.468ZM232.671 22V15.808H233.631V16.948H233.691C233.803 16.652 234.003 16.388 234.291 16.156C234.579 15.924 234.975 15.808 235.479 15.808H235.851V16.768H235.287C234.767 16.768 234.359 16.868 234.063 17.068C233.775 17.26 233.631 17.504 233.631 17.8V22H232.671ZM237.397 22V15.808H238.357V16.816H238.405C238.477 16.656 238.557 16.508 238.645 16.372C238.741 16.228 238.853 16.104 238.981 16C239.117 15.896 239.273 15.816 239.449 15.76C239.625 15.696 239.833 15.664 240.073 15.664C240.481 15.664 240.857 15.764 241.201 15.964C241.545 16.156 241.801 16.476 241.969 16.924H241.993C242.105 16.588 242.313 16.296 242.617 16.048C242.929 15.792 243.349 15.664 243.877 15.664C244.509 15.664 245.001 15.872 245.353 16.288C245.713 16.696 245.893 17.276 245.893 18.028V22H244.933V18.196C244.933 17.644 244.825 17.228 244.609 16.948C244.393 16.668 244.049 16.528 243.577 16.528C243.385 16.528 243.201 16.552 243.025 16.6C242.857 16.648 242.705 16.72 242.569 16.816C242.433 16.912 242.325 17.036 242.245 17.188C242.165 17.332 242.125 17.504 242.125 17.704V22H241.165V18.196C241.165 17.644 241.057 17.228 240.841 16.948C240.625 16.668 240.289 16.528 239.833 16.528C239.641 16.528 239.457 16.552 239.281 16.6C239.105 16.648 238.949 16.72 238.813 16.816C238.677 16.912 238.565 17.036 238.477 17.188C238.397 17.332 238.357 17.504 238.357 17.704V22H237.397ZM250.522 22.144C250.098 22.144 249.714 22.068 249.37 21.916C249.034 21.764 248.742 21.548 248.494 21.268C248.254 20.98 248.066 20.64 247.93 20.248C247.802 19.848 247.738 19.4 247.738 18.904C247.738 18.416 247.802 17.972 247.93 17.572C248.066 17.172 248.254 16.832 248.494 16.552C248.742 16.264 249.034 16.044 249.37 15.892C249.714 15.74 250.098 15.664 250.522 15.664C250.938 15.664 251.31 15.74 251.638 15.892C251.966 16.044 252.246 16.256 252.478 16.528C252.71 16.792 252.886 17.108 253.006 17.476C253.134 17.844 253.198 18.248 253.198 18.688V19.144H248.746V19.432C248.746 19.696 248.786 19.944 248.866 20.176C248.954 20.4 249.074 20.596 249.226 20.764C249.386 20.932 249.578 21.064 249.802 21.16C250.034 21.256 250.294 21.304 250.582 21.304C250.974 21.304 251.314 21.212 251.602 21.028C251.898 20.844 252.126 20.58 252.286 20.236L252.97 20.728C252.77 21.152 252.458 21.496 252.034 21.76C251.61 22.016 251.106 22.144 250.522 22.144ZM250.522 16.468C250.258 16.468 250.018 16.516 249.802 16.612C249.586 16.7 249.398 16.828 249.238 16.996C249.086 17.164 248.966 17.364 248.878 17.596C248.79 17.82 248.746 18.068 248.746 18.34V18.424H252.166V18.292C252.166 17.74 252.014 17.3 251.71 16.972C251.414 16.636 251.018 16.468 250.522 16.468ZM259.06 20.992H259.012C258.636 21.76 258.032 22.144 257.2 22.144C256.816 22.144 256.468 22.068 256.156 21.916C255.844 21.764 255.576 21.548 255.352 21.268C255.136 20.988 254.968 20.648 254.848 20.248C254.736 19.848 254.68 19.4 254.68 18.904C254.68 18.408 254.736 17.96 254.848 17.56C254.968 17.16 255.136 16.82 255.352 16.54C255.576 16.26 255.844 16.044 256.156 15.892C256.468 15.74 256.816 15.664 257.2 15.664C257.632 15.664 258 15.76 258.304 15.952C258.616 16.136 258.852 16.424 259.012 16.816H259.06V13.12H260.02V22H259.06V20.992ZM257.464 21.28C257.68 21.28 257.884 21.252 258.076 21.196C258.276 21.14 258.448 21.06 258.592 20.956C258.736 20.844 258.848 20.712 258.928 20.56C259.016 20.4 259.06 20.22 259.06 20.02V17.716C259.06 17.548 259.016 17.392 258.928 17.248C258.848 17.096 258.736 16.968 258.592 16.864C258.448 16.76 258.276 16.68 258.076 16.624C257.884 16.56 257.68 16.528 257.464 16.528C256.92 16.528 256.492 16.7 256.18 17.044C255.868 17.38 255.712 17.824 255.712 18.376V19.432C255.712 19.984 255.868 20.432 256.18 20.776C256.492 21.112 256.92 21.28 257.464 21.28ZM262.861 14.356C262.653 14.356 262.501 14.308 262.405 14.212C262.317 14.108 262.273 13.976 262.273 13.816V13.66C262.273 13.5 262.317 13.372 262.405 13.276C262.501 13.172 262.653 13.12 262.861 13.12C263.069 13.12 263.217 13.172 263.305 13.276C263.401 13.372 263.449 13.5 263.449 13.66V13.816C263.449 13.976 263.401 14.108 263.305 14.212C263.217 14.308 263.069 14.356 262.861 14.356ZM262.381 15.808H263.341V22H262.381V15.808ZM270.201 22C269.841 22 269.581 21.904 269.421 21.712C269.269 21.52 269.173 21.28 269.133 20.992H269.073C268.937 21.376 268.713 21.664 268.401 21.856C268.089 22.048 267.717 22.144 267.285 22.144C266.629 22.144 266.117 21.976 265.749 21.64C265.389 21.304 265.209 20.848 265.209 20.272C265.209 19.688 265.421 19.24 265.845 18.928C266.277 18.616 266.945 18.46 267.849 18.46H269.073V17.848C269.073 17.408 268.953 17.072 268.713 16.84C268.473 16.608 268.105 16.492 267.609 16.492C267.233 16.492 266.917 16.576 266.661 16.744C266.413 16.912 266.205 17.136 266.037 17.416L265.461 16.876C265.629 16.54 265.897 16.256 266.265 16.024C266.633 15.784 267.097 15.664 267.657 15.664C268.409 15.664 268.993 15.848 269.409 16.216C269.825 16.584 270.033 17.096 270.033 17.752V21.16H270.741V22H270.201ZM267.441 21.328C267.681 21.328 267.901 21.3 268.101 21.244C268.301 21.188 268.473 21.108 268.617 21.004C268.761 20.9 268.873 20.78 268.953 20.644C269.033 20.508 269.073 20.36 269.073 20.2V19.18H267.801C267.249 19.18 266.845 19.26 266.589 19.42C266.341 19.58 266.217 19.812 266.217 20.116V20.368C266.217 20.672 266.325 20.908 266.541 21.076C266.765 21.244 267.065 21.328 267.441 21.328ZM273.799 22C273.463 22 273.207 21.908 273.031 21.724C272.863 21.532 272.779 21.284 272.779 20.98V16.648H271.759V15.808H272.335C272.543 15.808 272.683 15.768 272.755 15.688C272.835 15.6 272.875 15.452 272.875 15.244V14.092H273.739V15.808H275.095V16.648H273.739V21.16H274.999V22H273.799ZM279.239 22.144C278.815 22.144 278.431 22.068 278.087 21.916C277.751 21.764 277.459 21.548 277.211 21.268C276.971 20.98 276.783 20.64 276.647 20.248C276.519 19.848 276.455 19.4 276.455 18.904C276.455 18.416 276.519 17.972 276.647 17.572C276.783 17.172 276.971 16.832 277.211 16.552C277.459 16.264 277.751 16.044 278.087 15.892C278.431 15.74 278.815 15.664 279.239 15.664C279.655 15.664 280.027 15.74 280.355 15.892C280.683 16.044 280.963 16.256 281.195 16.528C281.427 16.792 281.603 17.108 281.723 17.476C281.851 17.844 281.915 18.248 281.915 18.688V19.144H277.463V19.432C277.463 19.696 277.503 19.944 277.583 20.176C277.671 20.4 277.791 20.596 277.943 20.764C278.103 20.932 278.295 21.064 278.519 21.16C278.751 21.256 279.011 21.304 279.299 21.304C279.691 21.304 280.031 21.212 280.319 21.028C280.615 20.844 280.843 20.58 281.003 20.236L281.687 20.728C281.487 21.152 281.175 21.496 280.751 21.76C280.327 22.016 279.823 22.144 279.239 22.144ZM279.239 16.468C278.975 16.468 278.735 16.516 278.519 16.612C278.303 16.7 278.115 16.828 277.955 16.996C277.803 17.164 277.683 17.364 277.595 17.596C277.507 17.82 277.463 18.068 277.463 18.34V18.424H280.883V18.292C280.883 17.74 280.731 17.3 280.427 16.972C280.131 16.636 279.735 16.468 279.239 16.468ZM291.473 22C291.113 22 290.853 21.904 290.693 21.712C290.541 21.52 290.445 21.28 290.405 20.992H290.345C290.209 21.376 289.985 21.664 289.673 21.856C289.361 22.048 288.989 22.144 288.557 22.144C287.901 22.144 287.389 21.976 287.021 21.64C286.661 21.304 286.481 20.848 286.481 20.272C286.481 19.688 286.693 19.24 287.117 18.928C287.549 18.616 288.217 18.46 289.121 18.46H290.345V17.848C290.345 17.408 290.225 17.072 289.985 16.84C289.745 16.608 289.377 16.492 288.881 16.492C288.505 16.492 288.189 16.576 287.933 16.744C287.685 16.912 287.477 17.136 287.309 17.416L286.733 16.876C286.901 16.54 287.169 16.256 287.537 16.024C287.905 15.784 288.369 15.664 288.929 15.664C289.681 15.664 290.265 15.848 290.681 16.216C291.097 16.584 291.305 17.096 291.305 17.752V21.16H292.013V22H291.473ZM288.713 21.328C288.953 21.328 289.173 21.3 289.373 21.244C289.573 21.188 289.745 21.108 289.889 21.004C290.033 20.9 290.145 20.78 290.225 20.644C290.305 20.508 290.345 20.36 290.345 20.2V19.18H289.073C288.521 19.18 288.117 19.26 287.861 19.42C287.613 19.58 287.489 19.812 287.489 20.116V20.368C287.489 20.672 287.597 20.908 287.813 21.076C288.037 21.244 288.337 21.328 288.713 21.328ZM293.703 22V15.808H294.663V16.816H294.711C294.783 16.656 294.863 16.508 294.951 16.372C295.047 16.228 295.159 16.104 295.287 16C295.423 15.896 295.579 15.816 295.755 15.76C295.931 15.696 296.139 15.664 296.379 15.664C296.787 15.664 297.163 15.764 297.507 15.964C297.851 16.156 298.107 16.476 298.275 16.924H298.299C298.411 16.588 298.619 16.296 298.923 16.048C299.235 15.792 299.655 15.664 300.183 15.664C300.815 15.664 301.307 15.872 301.659 16.288C302.019 16.696 302.199 17.276 302.199 18.028V22H301.239V18.196C301.239 17.644 301.131 17.228 300.915 16.948C300.699 16.668 300.355 16.528 299.883 16.528C299.691 16.528 299.507 16.552 299.331 16.6C299.163 16.648 299.011 16.72 298.875 16.816C298.739 16.912 298.631 17.036 298.551 17.188C298.471 17.332 298.431 17.504 298.431 17.704V22H297.471V18.196C297.471 17.644 297.363 17.228 297.147 16.948C296.931 16.668 296.595 16.528 296.139 16.528C295.947 16.528 295.763 16.552 295.587 16.6C295.411 16.648 295.255 16.72 295.119 16.816C294.983 16.912 294.871 17.036 294.783 17.188C294.703 17.332 294.663 17.504 294.663 17.704V22H293.703ZM304.5 15.808H305.46V16.816H305.508C305.668 16.424 305.9 16.136 306.204 15.952C306.516 15.76 306.888 15.664 307.32 15.664C307.704 15.664 308.052 15.74 308.364 15.892C308.676 16.044 308.94 16.26 309.156 16.54C309.38 16.82 309.548 17.16 309.66 17.56C309.78 17.96 309.84 18.408 309.84 18.904C309.84 19.4 309.78 19.848 309.66 20.248C309.548 20.648 309.38 20.988 309.156 21.268C308.94 21.548 308.676 21.764 308.364 21.916C308.052 22.068 307.704 22.144 307.32 22.144C306.48 22.144 305.876 21.76 305.508 20.992H305.46V24.4H304.5V15.808ZM307.056 21.28C307.6 21.28 308.028 21.112 308.34 20.776C308.652 20.432 308.808 19.984 308.808 19.432V18.376C308.808 17.824 308.652 17.38 308.34 17.044C308.028 16.7 307.6 16.528 307.056 16.528C306.84 16.528 306.632 16.56 306.432 16.624C306.24 16.68 306.072 16.76 305.928 16.864C305.784 16.968 305.668 17.096 305.58 17.248C305.5 17.392 305.46 17.548 305.46 17.716V20.02C305.46 20.22 305.5 20.4 305.58 20.56C305.668 20.712 305.784 20.844 305.928 20.956C306.072 21.06 306.24 21.14 306.432 21.196C306.632 21.252 306.84 21.28 307.056 21.28ZM312.801 22C312.465 22 312.209 21.908 312.033 21.724C311.865 21.532 311.781 21.292 311.781 21.004V13.12H312.741V21.16H313.653V22H312.801ZM315.85 14.356C315.642 14.356 315.49 14.308 315.394 14.212C315.306 14.108 315.262 13.976 315.262 13.816V13.66C315.262 13.5 315.306 13.372 315.394 13.276C315.49 13.172 315.642 13.12 315.85 13.12C316.058 13.12 316.206 13.172 316.294 13.276C316.39 13.372 316.438 13.5 316.438 13.66V13.816C316.438 13.976 316.39 14.108 316.294 14.212C316.206 14.308 316.058 14.356 315.85 14.356ZM315.37 15.808H316.33V22H315.37V15.808ZM320.058 22C319.722 22 319.466 21.908 319.29 21.724C319.122 21.532 319.038 21.284 319.038 20.98V16.648H318.018V15.808H318.594C318.802 15.808 318.942 15.768 319.014 15.688C319.094 15.6 319.134 15.452 319.134 15.244V14.092H319.998V15.808H321.354V16.648H319.998V21.16H321.258V22H320.058ZM327.033 20.992H326.985C326.921 21.136 326.841 21.28 326.745 21.424C326.657 21.56 326.545 21.684 326.409 21.796C326.273 21.9 326.109 21.984 325.917 22.048C325.725 22.112 325.501 22.144 325.245 22.144C324.605 22.144 324.097 21.94 323.721 21.532C323.345 21.116 323.157 20.532 323.157 19.78V15.808H324.117V19.612C324.117 20.724 324.589 21.28 325.533 21.28C325.725 21.28 325.909 21.256 326.085 21.208C326.269 21.16 326.429 21.088 326.565 20.992C326.709 20.896 326.821 20.776 326.901 20.632C326.989 20.48 327.033 20.3 327.033 20.092V15.808H327.993V22H327.033V20.992ZM334.318 20.992H334.27C333.894 21.76 333.29 22.144 332.458 22.144C332.074 22.144 331.726 22.068 331.414 21.916C331.102 21.764 330.834 21.548 330.61 21.268C330.394 20.988 330.226 20.648 330.106 20.248C329.994 19.848 329.938 19.4 329.938 18.904C329.938 18.408 329.994 17.96 330.106 17.56C330.226 17.16 330.394 16.82 330.61 16.54C330.834 16.26 331.102 16.044 331.414 15.892C331.726 15.74 332.074 15.664 332.458 15.664C332.89 15.664 333.258 15.76 333.562 15.952C333.874 16.136 334.11 16.424 334.27 16.816H334.318V13.12H335.278V22H334.318V20.992ZM332.722 21.28C332.938 21.28 333.142 21.252 333.334 21.196C333.534 21.14 333.706 21.06 333.85 20.956C333.994 20.844 334.106 20.712 334.186 20.56C334.274 20.4 334.318 20.22 334.318 20.02V17.716C334.318 17.548 334.274 17.392 334.186 17.248C334.106 17.096 333.994 16.968 333.85 16.864C333.706 16.76 333.534 16.68 333.334 16.624C333.142 16.56 332.938 16.528 332.722 16.528C332.178 16.528 331.75 16.7 331.438 17.044C331.126 17.38 330.97 17.824 330.97 18.376V19.432C330.97 19.984 331.126 20.432 331.438 20.776C331.75 21.112 332.178 21.28 332.722 21.28ZM339.966 22.144C339.542 22.144 339.158 22.068 338.814 21.916C338.478 21.764 338.186 21.548 337.938 21.268C337.698 20.98 337.51 20.64 337.374 20.248C337.246 19.848 337.182 19.4 337.182 18.904C337.182 18.416 337.246 17.972 337.374 17.572C337.51 17.172 337.698 16.832 337.938 16.552C338.186 16.264 338.478 16.044 338.814 15.892C339.158 15.74 339.542 15.664 339.966 15.664C340.382 15.664 340.754 15.74 341.082 15.892C341.41 16.044 341.69 16.256 341.922 16.528C342.154 16.792 342.33 17.108 342.45 17.476C342.578 17.844 342.642 18.248 342.642 18.688V19.144H338.19V19.432C338.19 19.696 338.23 19.944 338.31 20.176C338.398 20.4 338.518 20.596 338.67 20.764C338.83 20.932 339.022 21.064 339.246 21.16C339.478 21.256 339.738 21.304 340.026 21.304C340.418 21.304 340.758 21.212 341.046 21.028C341.342 20.844 341.57 20.58 341.73 20.236L342.414 20.728C342.214 21.152 341.902 21.496 341.478 21.76C341.054 22.016 340.55 22.144 339.966 22.144ZM339.966 16.468C339.702 16.468 339.462 16.516 339.246 16.612C339.03 16.7 338.842 16.828 338.682 16.996C338.53 17.164 338.41 17.364 338.322 17.596C338.234 17.82 338.19 18.068 338.19 18.34V18.424H341.61V18.292C341.61 17.74 341.458 17.3 341.154 16.972C340.858 16.636 340.462 16.468 339.966 16.468ZM346.404 22.144C345.828 22.144 345.344 22.036 344.952 21.82C344.568 21.596 344.236 21.3 343.956 20.932L344.64 20.38C344.88 20.684 345.148 20.92 345.444 21.088C345.74 21.248 346.084 21.328 346.476 21.328C346.884 21.328 347.2 21.24 347.424 21.064C347.656 20.888 347.772 20.64 347.772 20.32C347.772 20.08 347.692 19.876 347.532 19.708C347.38 19.532 347.1 19.412 346.692 19.348L346.2 19.276C345.912 19.236 345.648 19.176 345.408 19.096C345.168 19.008 344.956 18.896 344.772 18.76C344.596 18.616 344.456 18.44 344.352 18.232C344.256 18.024 344.208 17.776 344.208 17.488C344.208 17.184 344.264 16.92 344.376 16.696C344.488 16.464 344.64 16.272 344.832 16.12C345.032 15.968 345.268 15.856 345.54 15.784C345.812 15.704 346.104 15.664 346.416 15.664C346.92 15.664 347.34 15.752 347.676 15.928C348.02 16.104 348.32 16.348 348.576 16.66L347.94 17.236C347.804 17.044 347.604 16.872 347.34 16.72C347.076 16.56 346.744 16.48 346.344 16.48C345.944 16.48 345.64 16.568 345.432 16.744C345.232 16.912 345.132 17.144 345.132 17.44C345.132 17.744 345.232 17.964 345.432 18.1C345.64 18.236 345.936 18.336 346.32 18.4L346.8 18.472C347.488 18.576 347.976 18.776 348.264 19.072C348.552 19.36 348.696 19.74 348.696 20.212C348.696 20.812 348.492 21.284 348.084 21.628C347.676 21.972 347.116 22.144 346.404 22.144Z" fill="black"/>
<path d="M199.354 74.3536C199.549 74.1583 199.549 73.8417 199.354 73.6465L196.172 70.4645C195.976 70.2692 195.66 70.2692 195.464 70.4645C195.269 70.6597 195.269 70.9763 195.464 71.1716L198.293 74L195.464 76.8284C195.269 77.0237 195.269 77.3403 195.464 77.5355C195.66 77.7308 195.976 77.7308 196.172 77.5355L199.354 74.3536ZM79 74.5L199 74.5L199 73.5L79 73.5L79 74.5Z" fill="black"/>
<path d="M199.354 224.354C199.549 224.158 199.549 223.842 199.354 223.646L196.172 220.464C195.976 220.269 195.66 220.269 195.464 220.464C195.269 220.66 195.269 220.976 195.464 221.172L198.293 224L195.464 226.828C195.269 227.024 195.269 227.34 195.464 227.536C195.66 227.731 195.976 227.731 196.172 227.536L199.354 224.354ZM139 224.5L199 224.5L199 223.5L139 223.5L139 224.5Z" fill="black"/>
<path d="M140 224H127.746C124.985 224 122.746 221.761 122.746 219V79C122.746 76.2386 120.508 74 117.746 74H106" stroke="black"/>
<rect x="266" y="210" width="115" height="111" rx="2" fill="#393939"/>
<path d="M263 221.5L266.75 217.603L266.75 225.397L263 221.5Z" fill="#393939"/>
<path d="M287.577 227L287.027 225.174H284.464L283.914 227H282.22L284.75 219.322H286.818L289.315 227H287.577ZM285.762 220.84H285.707L284.86 223.755H286.62L285.762 220.84ZM290.449 227V221.225H292.077V222.204H292.143C292.246 221.896 292.422 221.636 292.671 221.423C292.921 221.203 293.262 221.093 293.694 221.093C294.09 221.093 294.428 221.192 294.706 221.39C294.985 221.588 295.187 221.878 295.311 222.259H295.344C295.396 222.098 295.473 221.947 295.575 221.808C295.685 221.661 295.817 221.537 295.971 221.434C296.125 221.331 296.298 221.251 296.488 221.192C296.679 221.126 296.884 221.093 297.104 221.093C297.662 221.093 298.087 221.291 298.38 221.687C298.681 222.083 298.831 222.648 298.831 223.381V227H297.203V223.513C297.203 222.78 296.939 222.413 296.411 222.413C296.169 222.413 295.949 222.483 295.751 222.622C295.553 222.761 295.454 222.974 295.454 223.26V227H293.826V223.513C293.826 222.78 293.562 222.413 293.034 222.413C292.917 222.413 292.8 222.431 292.682 222.468C292.572 222.497 292.47 222.549 292.374 222.622C292.286 222.695 292.213 222.787 292.154 222.897C292.103 223 292.077 223.121 292.077 223.26V227H290.449ZM300.438 221.225H302.066V222.193H302.121C302.202 221.87 302.385 221.606 302.671 221.401C302.965 221.196 303.298 221.093 303.672 221.093C304.406 221.093 304.959 221.35 305.333 221.863C305.707 222.376 305.894 223.124 305.894 224.107C305.894 225.09 305.707 225.841 305.333 226.362C304.959 226.875 304.406 227.132 303.672 227.132C303.482 227.132 303.302 227.103 303.133 227.044C302.965 226.993 302.811 226.919 302.671 226.824C302.539 226.721 302.426 226.604 302.33 226.472C302.235 226.333 302.165 226.186 302.121 226.032H302.066V229.2H300.438V221.225ZM303.133 225.812C303.441 225.812 303.694 225.706 303.892 225.493C304.098 225.273 304.2 224.98 304.2 224.613V223.612C304.2 223.245 304.098 222.956 303.892 222.743C303.694 222.523 303.441 222.413 303.133 222.413C302.825 222.413 302.569 222.49 302.363 222.644C302.165 222.791 302.066 222.996 302.066 223.26V224.965C302.066 225.229 302.165 225.438 302.363 225.592C302.569 225.739 302.825 225.812 303.133 225.812ZM308.908 227C308.35 227 307.94 226.864 307.676 226.593C307.419 226.322 307.291 225.929 307.291 225.416V218.86H308.919V225.735H309.645V227H308.908ZM311.595 220.609C311.265 220.609 311.023 220.536 310.869 220.389C310.722 220.235 310.649 220.041 310.649 219.806V219.564C310.649 219.329 310.722 219.139 310.869 218.992C311.023 218.838 311.265 218.761 311.595 218.761C311.925 218.761 312.163 218.838 312.31 218.992C312.464 219.139 312.541 219.329 312.541 219.564V219.806C312.541 220.041 312.464 220.235 312.31 220.389C312.163 220.536 311.925 220.609 311.595 220.609ZM310.781 221.225H312.409V227H310.781V221.225ZM316.112 227C315.548 227 315.119 226.857 314.825 226.571C314.539 226.285 314.396 225.867 314.396 225.317V222.49H313.582V221.225H313.989C314.209 221.225 314.36 221.174 314.44 221.071C314.521 220.961 314.561 220.807 314.561 220.609V219.663H316.024V221.225H317.168V222.49H316.024V225.735H317.08V227H316.112ZM321.869 226.032H321.814C321.763 226.179 321.693 226.318 321.605 226.45C321.525 226.582 321.418 226.699 321.286 226.802C321.154 226.905 320.997 226.985 320.813 227.044C320.637 227.103 320.432 227.132 320.197 227.132C319.603 227.132 319.152 226.938 318.844 226.549C318.544 226.153 318.393 225.588 318.393 224.855V221.225H320.021V224.712C320.021 225.064 320.084 225.335 320.208 225.526C320.333 225.717 320.546 225.812 320.846 225.812C320.971 225.812 321.096 225.794 321.22 225.757C321.345 225.72 321.455 225.669 321.55 225.603C321.646 225.53 321.723 225.442 321.781 225.339C321.84 225.236 321.869 225.115 321.869 224.976V221.225H323.497V227H321.869V226.032ZM328.714 226.032H328.659C328.615 226.186 328.545 226.333 328.45 226.472C328.355 226.604 328.237 226.721 328.098 226.824C327.966 226.919 327.812 226.993 327.636 227.044C327.467 227.103 327.291 227.132 327.108 227.132C326.375 227.132 325.821 226.875 325.447 226.362C325.073 225.841 324.886 225.09 324.886 224.107C324.886 223.124 325.073 222.376 325.447 221.863C325.821 221.35 326.375 221.093 327.108 221.093C327.482 221.093 327.812 221.196 328.098 221.401C328.391 221.606 328.578 221.87 328.659 222.193H328.714V218.86H330.342V227H328.714V226.032ZM327.647 225.812C327.955 225.812 328.208 225.739 328.406 225.592C328.611 225.438 328.714 225.229 328.714 224.965V223.26C328.714 222.996 328.611 222.791 328.406 222.644C328.208 222.49 327.955 222.413 327.647 222.413C327.339 222.413 327.082 222.523 326.877 222.743C326.679 222.956 326.58 223.245 326.58 223.612V224.613C326.58 224.98 326.679 225.273 326.877 225.493C327.082 225.706 327.339 225.812 327.647 225.812ZM334.433 227.132C333.993 227.132 333.601 227.062 333.256 226.923C332.912 226.776 332.618 226.575 332.376 226.318C332.142 226.054 331.962 225.735 331.837 225.361C331.72 224.987 331.661 224.569 331.661 224.107C331.661 223.652 331.72 223.242 331.837 222.875C331.955 222.501 332.127 222.182 332.354 221.918C332.589 221.654 332.875 221.452 333.212 221.313C333.55 221.166 333.935 221.093 334.367 221.093C334.844 221.093 335.251 221.174 335.588 221.335C335.933 221.496 336.212 221.713 336.424 221.984C336.644 222.255 336.802 222.571 336.897 222.93C337 223.282 337.051 223.652 337.051 224.041V224.525H333.344V224.613C333.344 224.994 333.447 225.299 333.652 225.526C333.858 225.746 334.18 225.856 334.62 225.856C334.958 225.856 335.233 225.79 335.445 225.658C335.658 225.519 335.856 225.354 336.039 225.163L336.853 226.175C336.597 226.476 336.259 226.71 335.841 226.879C335.431 227.048 334.961 227.132 334.433 227.132ZM334.4 222.292C334.07 222.292 333.81 222.402 333.619 222.622C333.436 222.835 333.344 223.121 333.344 223.48V223.568H335.368V223.469C335.368 223.117 335.288 222.835 335.126 222.622C334.972 222.402 334.73 222.292 334.4 222.292ZM289.007 240.532H288.952L288.303 241.819L286.466 245.163L284.629 241.819L283.98 240.532H283.925V247H283.023V239.322H284.255L286.455 243.458H286.51L288.721 239.322H289.909V247H289.007V240.532ZM296.147 247C295.817 247 295.578 246.912 295.432 246.736C295.292 246.56 295.204 246.34 295.168 246.076H295.113C294.988 246.428 294.783 246.692 294.497 246.868C294.211 247.044 293.87 247.132 293.474 247.132C292.872 247.132 292.403 246.978 292.066 246.67C291.736 246.362 291.571 245.944 291.571 245.416C291.571 244.881 291.765 244.47 292.154 244.184C292.55 243.898 293.162 243.755 293.991 243.755H295.113V243.194C295.113 242.791 295.003 242.483 294.783 242.27C294.563 242.057 294.225 241.951 293.771 241.951C293.426 241.951 293.136 242.028 292.902 242.182C292.674 242.336 292.484 242.541 292.33 242.798L291.802 242.303C291.956 241.995 292.201 241.735 292.539 241.522C292.876 241.302 293.301 241.192 293.815 241.192C294.504 241.192 295.039 241.361 295.421 241.698C295.802 242.035 295.993 242.505 295.993 243.106V246.23H296.642V247H296.147ZM293.617 246.384C293.837 246.384 294.038 246.358 294.222 246.307C294.405 246.256 294.563 246.182 294.695 246.087C294.827 245.992 294.929 245.882 295.003 245.757C295.076 245.632 295.113 245.497 295.113 245.35V244.415H293.947C293.441 244.415 293.07 244.488 292.836 244.635C292.608 244.782 292.495 244.994 292.495 245.273V245.504C292.495 245.783 292.594 245.999 292.792 246.153C292.997 246.307 293.272 246.384 293.617 246.384ZM302.843 247.627C302.843 248.214 302.612 248.643 302.15 248.914C301.695 249.193 301.009 249.332 300.093 249.332C299.205 249.332 298.567 249.211 298.179 248.969C297.79 248.727 297.596 248.382 297.596 247.935C297.596 247.627 297.676 247.385 297.838 247.209C297.999 247.04 298.219 246.916 298.498 246.835V246.714C298.16 246.553 297.992 246.289 297.992 245.922C297.992 245.636 298.083 245.42 298.267 245.273C298.45 245.119 298.685 245.005 298.971 244.932V244.888C298.633 244.727 298.369 244.496 298.179 244.195C297.995 243.894 297.904 243.546 297.904 243.15C297.904 242.864 297.955 242.6 298.058 242.358C298.16 242.116 298.303 241.911 298.487 241.742C298.677 241.566 298.901 241.43 299.158 241.335C299.422 241.24 299.715 241.192 300.038 241.192C300.441 241.192 300.8 241.265 301.116 241.412V241.313C301.116 241.093 301.167 240.913 301.27 240.774C301.372 240.627 301.541 240.554 301.776 240.554H302.623V241.324H301.545V241.687C301.75 241.863 301.908 242.076 302.018 242.325C302.135 242.567 302.194 242.842 302.194 243.15C302.194 243.436 302.142 243.7 302.04 243.942C301.937 244.184 301.79 244.393 301.6 244.569C301.416 244.738 301.193 244.87 300.929 244.965C300.665 245.06 300.371 245.108 300.049 245.108C299.865 245.108 299.682 245.09 299.499 245.053C299.308 245.104 299.136 245.181 298.982 245.284C298.828 245.379 298.751 245.515 298.751 245.691C298.751 245.86 298.831 245.973 298.993 246.032C299.154 246.091 299.363 246.12 299.62 246.12H300.83C301.534 246.12 302.043 246.256 302.359 246.527C302.681 246.791 302.843 247.158 302.843 247.627ZM302.018 247.693C302.018 247.466 301.93 247.282 301.754 247.143C301.585 247.011 301.281 246.945 300.841 246.945H298.949C298.597 247.106 298.421 247.363 298.421 247.715C298.421 247.964 298.512 248.177 298.696 248.353C298.886 248.529 299.205 248.617 299.653 248.617H300.467C300.958 248.617 301.339 248.54 301.611 248.386C301.882 248.232 302.018 248.001 302.018 247.693ZM300.049 244.404C300.423 244.404 300.72 244.316 300.94 244.14C301.16 243.957 301.27 243.678 301.27 243.304V242.996C301.27 242.622 301.16 242.347 300.94 242.171C300.72 241.988 300.423 241.896 300.049 241.896C299.675 241.896 299.378 241.988 299.158 242.171C298.938 242.347 298.828 242.622 298.828 242.996V243.304C298.828 243.678 298.938 243.957 299.158 244.14C299.378 244.316 299.675 244.404 300.049 244.404ZM304.029 247V241.324H304.909V242.248H304.953C305.093 241.925 305.287 241.669 305.536 241.478C305.793 241.287 306.134 241.192 306.559 241.192C307.146 241.192 307.608 241.383 307.945 241.764C308.29 242.138 308.462 242.67 308.462 243.359V247H307.582V243.513C307.582 242.494 307.153 241.984 306.295 241.984C306.119 241.984 305.947 242.006 305.778 242.05C305.617 242.094 305.47 242.16 305.338 242.248C305.206 242.336 305.1 242.45 305.019 242.589C304.946 242.721 304.909 242.879 304.909 243.062V247H304.029ZM310.881 239.993C310.691 239.993 310.551 239.949 310.463 239.861C310.383 239.766 310.342 239.645 310.342 239.498V239.355C310.342 239.208 310.383 239.091 310.463 239.003C310.551 238.908 310.691 238.86 310.881 238.86C311.072 238.86 311.208 238.908 311.288 239.003C311.376 239.091 311.42 239.208 311.42 239.355V239.498C311.42 239.645 311.376 239.766 311.288 239.861C311.208 239.949 311.072 239.993 310.881 239.993ZM310.441 241.324H311.321V247H310.441V241.324ZM314.605 247C314.297 247 314.063 246.916 313.901 246.747C313.747 246.571 313.67 246.344 313.67 246.065V242.094H312.735V241.324H313.263C313.454 241.324 313.582 241.287 313.648 241.214C313.722 241.133 313.758 240.998 313.758 240.807V239.751H314.55V241.324H315.793V242.094H314.55V246.23H315.705V247H314.605ZM320.866 246.076H320.822C320.763 246.208 320.69 246.34 320.602 246.472C320.521 246.597 320.418 246.71 320.294 246.813C320.169 246.908 320.019 246.985 319.843 247.044C319.667 247.103 319.461 247.132 319.227 247.132C318.64 247.132 318.174 246.945 317.83 246.571C317.485 246.19 317.313 245.654 317.313 244.965V241.324H318.193V244.811C318.193 245.83 318.625 246.34 319.491 246.34C319.667 246.34 319.835 246.318 319.997 246.274C320.165 246.23 320.312 246.164 320.437 246.076C320.569 245.988 320.671 245.878 320.745 245.746C320.825 245.607 320.866 245.442 320.866 245.251V241.324H321.746V247H320.866V246.076ZM327.41 246.076H327.366C327.021 246.78 326.467 247.132 325.705 247.132C325.353 247.132 325.034 247.062 324.748 246.923C324.462 246.784 324.216 246.586 324.011 246.329C323.813 246.072 323.659 245.761 323.549 245.394C323.446 245.027 323.395 244.617 323.395 244.162C323.395 243.707 323.446 243.297 323.549 242.93C323.659 242.563 323.813 242.252 324.011 241.995C324.216 241.738 324.462 241.54 324.748 241.401C325.034 241.262 325.353 241.192 325.705 241.192C326.101 241.192 326.438 241.28 326.717 241.456C327.003 241.625 327.219 241.889 327.366 242.248H327.41V238.86H328.29V247H327.41V246.076ZM325.947 246.34C326.145 246.34 326.332 246.314 326.508 246.263C326.691 246.212 326.849 246.138 326.981 246.043C327.113 245.94 327.215 245.819 327.289 245.68C327.369 245.533 327.41 245.368 327.41 245.185V243.073C327.41 242.919 327.369 242.776 327.289 242.644C327.215 242.505 327.113 242.387 326.981 242.292C326.849 242.197 326.691 242.123 326.508 242.072C326.332 242.013 326.145 241.984 325.947 241.984C325.448 241.984 325.056 242.142 324.77 242.457C324.484 242.765 324.341 243.172 324.341 243.678V244.646C324.341 245.152 324.484 245.563 324.77 245.878C325.056 246.186 325.448 246.34 325.947 246.34ZM332.454 247.132C332.066 247.132 331.714 247.062 331.398 246.923C331.09 246.784 330.823 246.586 330.595 246.329C330.375 246.065 330.203 245.753 330.078 245.394C329.961 245.027 329.902 244.617 329.902 244.162C329.902 243.715 329.961 243.308 330.078 242.941C330.203 242.574 330.375 242.263 330.595 242.006C330.823 241.742 331.09 241.54 331.398 241.401C331.714 241.262 332.066 241.192 332.454 241.192C332.836 241.192 333.177 241.262 333.477 241.401C333.778 241.54 334.035 241.735 334.247 241.984C334.46 242.226 334.621 242.516 334.731 242.853C334.849 243.19 334.907 243.561 334.907 243.964V244.382H330.826V244.646C330.826 244.888 330.863 245.115 330.936 245.328C331.017 245.533 331.127 245.713 331.266 245.867C331.413 246.021 331.589 246.142 331.794 246.23C332.007 246.318 332.245 246.362 332.509 246.362C332.869 246.362 333.18 246.278 333.444 246.109C333.716 245.94 333.925 245.698 334.071 245.383L334.698 245.834C334.515 246.223 334.229 246.538 333.84 246.78C333.452 247.015 332.99 247.132 332.454 247.132ZM332.454 241.929C332.212 241.929 331.992 241.973 331.794 242.061C331.596 242.142 331.424 242.259 331.277 242.413C331.138 242.567 331.028 242.75 330.947 242.963C330.867 243.168 330.826 243.396 330.826 243.645V243.722H333.961V243.601C333.961 243.095 333.822 242.692 333.543 242.391C333.272 242.083 332.909 241.929 332.454 241.929ZM337.189 247.132C336.954 247.132 336.782 247.073 336.672 246.956C336.569 246.839 336.518 246.685 336.518 246.494V246.351C336.518 246.16 336.569 246.006 336.672 245.889C336.782 245.772 336.954 245.713 337.189 245.713C337.423 245.713 337.592 245.772 337.695 245.889C337.805 246.006 337.86 246.16 337.86 246.351V246.494C337.86 246.685 337.805 246.839 337.695 246.956C337.592 247.073 337.423 247.132 337.189 247.132ZM337.189 242.611C336.954 242.611 336.782 242.552 336.672 242.435C336.569 242.318 336.518 242.164 336.518 241.973V241.83C336.518 241.639 336.569 241.485 336.672 241.368C336.782 241.251 336.954 241.192 337.189 241.192C337.423 241.192 337.592 241.251 337.695 241.368C337.805 241.485 337.86 241.639 337.86 241.83V241.973C337.86 242.164 337.805 242.318 337.695 242.435C337.592 242.552 337.423 242.611 337.189 242.611ZM284.783 267L283.408 262.028H282.319V261.324H284.079L284.574 263.15L285.399 266.263H285.454L286.312 263.15L287.379 259.322H288.237L286.026 267H284.783ZM289.669 263.568C289.669 263.04 289.72 262.53 289.823 262.039C289.925 261.548 290.065 261.093 290.241 260.675C290.424 260.25 290.637 259.865 290.879 259.52C291.121 259.175 291.381 258.882 291.66 258.64H292.496C292.188 258.919 291.909 259.234 291.66 259.586C291.418 259.938 291.209 260.312 291.033 260.708C290.864 261.104 290.732 261.507 290.637 261.918C290.541 262.329 290.494 262.725 290.494 263.106V264.052C290.494 264.441 290.541 264.84 290.637 265.251C290.732 265.662 290.868 266.065 291.044 266.461C291.22 266.857 291.429 267.231 291.671 267.583C291.92 267.935 292.195 268.243 292.496 268.507H291.66C291.388 268.28 291.132 267.994 290.89 267.649C290.648 267.304 290.435 266.919 290.252 266.494C290.076 266.069 289.933 265.61 289.823 265.119C289.72 264.62 289.669 264.103 289.669 263.568ZM293.568 267V266.186H295.713V260.004H295.636L293.7 261.808L293.161 261.225L295.196 259.322H296.637V266.186H298.617V267H293.568ZM299.455 268.661L302.326 258.86H303.118L300.247 268.661H299.455ZM309.59 267H304.552V266.054L307.06 263.744C307.419 263.414 307.72 263.066 307.962 262.699C308.204 262.325 308.325 261.951 308.325 261.577V261.445C308.325 261.02 308.208 260.675 307.973 260.411C307.738 260.147 307.383 260.015 306.906 260.015C306.671 260.015 306.466 260.048 306.29 260.114C306.114 260.18 305.96 260.272 305.828 260.389C305.703 260.506 305.597 260.646 305.509 260.807C305.428 260.961 305.362 261.13 305.311 261.313L304.486 260.994C304.559 260.767 304.658 260.547 304.783 260.334C304.915 260.114 305.076 259.92 305.267 259.751C305.465 259.582 305.7 259.447 305.971 259.344C306.25 259.241 306.576 259.19 306.95 259.19C307.324 259.19 307.658 259.245 307.951 259.355C308.244 259.465 308.49 259.619 308.688 259.817C308.886 260.015 309.036 260.25 309.139 260.521C309.249 260.792 309.304 261.093 309.304 261.423C309.304 261.724 309.26 262.002 309.172 262.259C309.091 262.516 308.978 262.761 308.831 262.996C308.684 263.223 308.505 263.447 308.292 263.667C308.087 263.887 307.863 264.107 307.621 264.327L305.553 266.186H309.59V267ZM313.255 263.568C313.255 264.103 313.2 264.62 313.09 265.119C312.987 265.61 312.844 266.069 312.661 266.494C312.485 266.919 312.276 267.304 312.034 267.649C311.792 267.994 311.535 268.28 311.264 268.507H310.428C310.728 268.243 311 267.935 311.242 267.583C311.491 267.231 311.704 266.857 311.88 266.461C312.056 266.065 312.191 265.662 312.287 265.251C312.382 264.84 312.43 264.441 312.43 264.052V263.106C312.43 262.725 312.382 262.329 312.287 261.918C312.191 261.507 312.056 261.104 311.88 260.708C311.711 260.312 311.502 259.938 311.253 259.586C311.011 259.234 310.736 258.919 310.428 258.64H311.264C311.542 258.882 311.803 259.175 312.045 259.52C312.287 259.865 312.496 260.25 312.672 260.675C312.855 261.093 312.998 261.548 313.101 262.039C313.203 262.53 313.255 263.04 313.255 263.568ZM283.023 287V279.322H286.081C286.77 279.322 287.298 279.52 287.665 279.916C288.039 280.305 288.226 280.84 288.226 281.522C288.226 282.204 288.039 282.743 287.665 283.139C287.298 283.528 286.77 283.722 286.081 283.722H283.947V287H283.023ZM283.947 282.908H286.081C286.448 282.908 286.73 282.813 286.928 282.622C287.133 282.431 287.236 282.16 287.236 281.808V281.236C287.236 280.884 287.133 280.613 286.928 280.422C286.73 280.231 286.448 280.136 286.081 280.136H283.947V282.908ZM289.766 278.86H290.646V282.248H290.69C290.829 281.925 291.024 281.669 291.273 281.478C291.53 281.287 291.871 281.192 292.296 281.192C292.883 281.192 293.345 281.383 293.682 281.764C294.027 282.138 294.199 282.67 294.199 283.359V287H293.319V283.513C293.319 282.494 292.89 281.984 292.032 281.984C291.856 281.984 291.684 282.006 291.515 282.05C291.354 282.094 291.207 282.16 291.075 282.248C290.943 282.336 290.837 282.45 290.756 282.589C290.683 282.721 290.646 282.879 290.646 283.062V287H289.766V278.86ZM300.303 287C299.973 287 299.735 286.912 299.588 286.736C299.449 286.56 299.361 286.34 299.324 286.076H299.269C299.144 286.428 298.939 286.692 298.653 286.868C298.367 287.044 298.026 287.132 297.63 287.132C297.029 287.132 296.559 286.978 296.222 286.67C295.892 286.362 295.727 285.944 295.727 285.416C295.727 284.881 295.921 284.47 296.31 284.184C296.706 283.898 297.318 283.755 298.147 283.755H299.269V283.194C299.269 282.791 299.159 282.483 298.939 282.27C298.719 282.057 298.382 281.951 297.927 281.951C297.582 281.951 297.293 282.028 297.058 282.182C296.831 282.336 296.64 282.541 296.486 282.798L295.958 282.303C296.112 281.995 296.358 281.735 296.695 281.522C297.032 281.302 297.458 281.192 297.971 281.192C298.66 281.192 299.196 281.361 299.577 281.698C299.958 282.035 300.149 282.505 300.149 283.106V286.23H300.798V287H300.303ZM297.773 286.384C297.993 286.384 298.195 286.358 298.378 286.307C298.561 286.256 298.719 286.182 298.851 286.087C298.983 285.992 299.086 285.882 299.159 285.757C299.232 285.632 299.269 285.497 299.269 285.35V284.415H298.103C297.597 284.415 297.227 284.488 296.992 284.635C296.765 284.782 296.651 284.994 296.651 285.273V285.504C296.651 285.783 296.75 285.999 296.948 286.153C297.153 286.307 297.428 286.384 297.773 286.384ZM303.919 287.132C303.391 287.132 302.947 287.033 302.588 286.835C302.236 286.63 301.931 286.358 301.675 286.021L302.302 285.515C302.522 285.794 302.767 286.01 303.039 286.164C303.31 286.311 303.625 286.384 303.985 286.384C304.359 286.384 304.648 286.303 304.854 286.142C305.066 285.981 305.173 285.753 305.173 285.46C305.173 285.24 305.099 285.053 304.953 284.899C304.813 284.738 304.557 284.628 304.183 284.569L303.732 284.503C303.468 284.466 303.226 284.411 303.006 284.338C302.786 284.257 302.591 284.155 302.423 284.03C302.261 283.898 302.133 283.737 302.038 283.546C301.95 283.355 301.906 283.128 301.906 282.864C301.906 282.585 301.957 282.343 302.06 282.138C302.162 281.925 302.302 281.749 302.478 281.61C302.661 281.471 302.877 281.368 303.127 281.302C303.376 281.229 303.644 281.192 303.93 281.192C304.392 281.192 304.777 281.273 305.085 281.434C305.4 281.595 305.675 281.819 305.91 282.105L305.327 282.633C305.202 282.457 305.019 282.299 304.777 282.16C304.535 282.013 304.23 281.94 303.864 281.94C303.497 281.94 303.218 282.021 303.028 282.182C302.844 282.336 302.753 282.549 302.753 282.82C302.753 283.099 302.844 283.3 303.028 283.425C303.218 283.55 303.49 283.641 303.842 283.7L304.282 283.766C304.912 283.861 305.36 284.045 305.624 284.316C305.888 284.58 306.02 284.928 306.02 285.361C306.02 285.911 305.833 286.344 305.459 286.659C305.085 286.974 304.571 287.132 303.919 287.132ZM309.868 287.132C309.48 287.132 309.128 287.062 308.812 286.923C308.504 286.784 308.237 286.586 308.009 286.329C307.789 286.065 307.617 285.753 307.492 285.394C307.375 285.027 307.316 284.617 307.316 284.162C307.316 283.715 307.375 283.308 307.492 282.941C307.617 282.574 307.789 282.263 308.009 282.006C308.237 281.742 308.504 281.54 308.812 281.401C309.128 281.262 309.48 281.192 309.868 281.192C310.25 281.192 310.591 281.262 310.891 281.401C311.192 281.54 311.449 281.735 311.661 281.984C311.874 282.226 312.035 282.516 312.145 282.853C312.263 283.19 312.321 283.561 312.321 283.964V284.382H308.24V284.646C308.24 284.888 308.277 285.115 308.35 285.328C308.431 285.533 308.541 285.713 308.68 285.867C308.827 286.021 309.003 286.142 309.208 286.23C309.421 286.318 309.659 286.362 309.923 286.362C310.283 286.362 310.594 286.278 310.858 286.109C311.13 285.94 311.339 285.698 311.485 285.383L312.112 285.834C311.929 286.223 311.643 286.538 311.254 286.78C310.866 287.015 310.404 287.132 309.868 287.132ZM309.868 281.929C309.626 281.929 309.406 281.973 309.208 282.061C309.01 282.142 308.838 282.259 308.691 282.413C308.552 282.567 308.442 282.75 308.361 282.963C308.281 283.168 308.24 283.396 308.24 283.645V283.722H311.375V283.601C311.375 283.095 311.236 282.692 310.957 282.391C310.686 282.083 310.323 281.929 309.868 281.929ZM314.602 287.132C314.368 287.132 314.195 287.073 314.085 286.956C313.983 286.839 313.931 286.685 313.931 286.494V286.351C313.931 286.16 313.983 286.006 314.085 285.889C314.195 285.772 314.368 285.713 314.602 285.713C314.837 285.713 315.006 285.772 315.108 285.889C315.218 286.006 315.273 286.16 315.273 286.351V286.494C315.273 286.685 315.218 286.839 315.108 286.956C315.006 287.073 314.837 287.132 314.602 287.132ZM314.602 282.611C314.368 282.611 314.195 282.552 314.085 282.435C313.983 282.318 313.931 282.164 313.931 281.973V281.83C313.931 281.639 313.983 281.485 314.085 281.368C314.195 281.251 314.368 281.192 314.602 281.192C314.837 281.192 315.006 281.251 315.108 281.368C315.218 281.485 315.273 281.639 315.273 281.83V281.973C315.273 282.164 315.218 282.318 315.108 282.435C315.006 282.552 314.837 282.611 314.602 282.611ZM321.097 284.712V282.908C321.698 282.879 322.167 282.732 322.505 282.468C322.849 282.204 323.022 281.841 323.022 281.379V281.225C323.022 280.851 322.904 280.554 322.67 280.334C322.435 280.107 322.12 279.993 321.724 279.993C321.298 279.993 320.957 280.114 320.701 280.356C320.451 280.598 320.283 280.906 320.195 281.28L319.381 280.972C319.447 280.737 319.542 280.514 319.667 280.301C319.799 280.081 319.96 279.89 320.151 279.729C320.349 279.56 320.58 279.428 320.844 279.333C321.108 279.238 321.412 279.19 321.757 279.19C322.439 279.19 322.978 279.377 323.374 279.751C323.77 280.125 323.968 280.631 323.968 281.269C323.968 281.621 323.905 281.929 323.781 282.193C323.663 282.45 323.509 282.67 323.319 282.853C323.128 283.036 322.912 283.183 322.67 283.293C322.428 283.403 322.186 283.48 321.944 283.524V284.712H321.097ZM321.526 287.132C321.291 287.132 321.119 287.073 321.009 286.956C320.906 286.839 320.855 286.685 320.855 286.494V286.351C320.855 286.16 320.906 286.006 321.009 285.889C321.119 285.772 321.291 285.713 321.526 285.713C321.76 285.713 321.929 285.772 322.032 285.889C322.142 286.006 322.197 286.16 322.197 286.351V286.494C322.197 286.685 322.142 286.839 322.032 286.956C321.929 287.073 321.76 287.132 321.526 287.132ZM326.499 284.712V282.908C327.1 282.879 327.57 282.732 327.907 282.468C328.252 282.204 328.424 281.841 328.424 281.379V281.225C328.424 280.851 328.307 280.554 328.072 280.334C327.837 280.107 327.522 279.993 327.126 279.993C326.701 279.993 326.36 280.114 326.103 280.356C325.854 280.598 325.685 280.906 325.597 281.28L324.783 280.972C324.849 280.737 324.944 280.514 325.069 280.301C325.201 280.081 325.362 279.89 325.553 279.729C325.751 279.56 325.982 279.428 326.246 279.333C326.51 279.238 326.814 279.19 327.159 279.19C327.841 279.19 328.38 279.377 328.776 279.751C329.172 280.125 329.37 280.631 329.37 281.269C329.37 281.621 329.308 281.929 329.183 282.193C329.066 282.45 328.912 282.67 328.721 282.853C328.53 283.036 328.314 283.183 328.072 283.293C327.83 283.403 327.588 283.48 327.346 283.524V284.712H326.499ZM326.928 287.132C326.693 287.132 326.521 287.073 326.411 286.956C326.308 286.839 326.257 286.685 326.257 286.494V286.351C326.257 286.16 326.308 286.006 326.411 285.889C326.521 285.772 326.693 285.713 326.928 285.713C327.163 285.713 327.331 285.772 327.434 285.889C327.544 286.006 327.599 286.16 327.599 286.351V286.494C327.599 286.685 327.544 286.839 327.434 286.956C327.331 287.073 327.163 287.132 326.928 287.132ZM331.901 284.712V282.908C332.503 282.879 332.972 282.732 333.309 282.468C333.654 282.204 333.826 281.841 333.826 281.379V281.225C333.826 280.851 333.709 280.554 333.474 280.334C333.24 280.107 332.924 279.993 332.528 279.993C332.103 279.993 331.762 280.114 331.505 280.356C331.256 280.598 331.087 280.906 330.999 281.28L330.185 280.972C330.251 280.737 330.347 280.514 330.471 280.301C330.603 280.081 330.765 279.89 330.955 279.729C331.153 279.56 331.384 279.428 331.648 279.333C331.912 279.238 332.217 279.19 332.561 279.19C333.243 279.19 333.782 279.377 334.178 279.751C334.574 280.125 334.772 280.631 334.772 281.269C334.772 281.621 334.71 281.929 334.585 282.193C334.468 282.45 334.314 282.67 334.123 282.853C333.933 283.036 333.716 283.183 333.474 283.293C333.232 283.403 332.99 283.48 332.748 283.524V284.712H331.901ZM332.33 287.132C332.096 287.132 331.923 287.073 331.813 286.956C331.711 286.839 331.659 286.685 331.659 286.494V286.351C331.659 286.16 331.711 286.006 331.813 285.889C331.923 285.772 332.096 285.713 332.33 285.713C332.565 285.713 332.734 285.772 332.836 285.889C332.946 286.006 333.001 286.16 333.001 286.351V286.494C333.001 286.685 332.946 286.839 332.836 286.956C332.734 287.073 332.565 287.132 332.33 287.132ZM283.023 307V299.322H286.081C286.77 299.322 287.298 299.52 287.665 299.916C288.039 300.305 288.226 300.84 288.226 301.522C288.226 302.204 288.039 302.743 287.665 303.139C287.298 303.528 286.77 303.722 286.081 303.722H283.947V307H283.023ZM283.947 302.908H286.081C286.448 302.908 286.73 302.813 286.928 302.622C287.133 302.431 287.236 302.16 287.236 301.808V301.236C287.236 300.884 287.133 300.613 286.928 300.422C286.73 300.231 286.448 300.136 286.081 300.136H283.947V302.908ZM289.658 307V301.324H290.538V302.369H290.593C290.696 302.098 290.879 301.856 291.143 301.643C291.407 301.43 291.77 301.324 292.232 301.324H292.573V302.204H292.056C291.58 302.204 291.206 302.296 290.934 302.479C290.67 302.655 290.538 302.879 290.538 303.15V307H289.658ZM295.949 307.132C295.567 307.132 295.219 307.062 294.904 306.923C294.588 306.784 294.317 306.586 294.09 306.329C293.87 306.065 293.697 305.753 293.573 305.394C293.448 305.027 293.386 304.617 293.386 304.162C293.386 303.715 293.448 303.308 293.573 302.941C293.697 302.574 293.87 302.263 294.09 302.006C294.317 301.742 294.588 301.54 294.904 301.401C295.219 301.262 295.567 301.192 295.949 301.192C296.33 301.192 296.675 301.262 296.983 301.401C297.298 301.54 297.569 301.742 297.797 302.006C298.024 302.263 298.2 302.574 298.325 302.941C298.449 303.308 298.512 303.715 298.512 304.162C298.512 304.617 298.449 305.027 298.325 305.394C298.2 305.753 298.024 306.065 297.797 306.329C297.569 306.586 297.298 306.784 296.983 306.923C296.675 307.062 296.33 307.132 295.949 307.132ZM295.949 306.351C296.425 306.351 296.814 306.204 297.115 305.911C297.415 305.618 297.566 305.17 297.566 304.569V303.755C297.566 303.154 297.415 302.706 297.115 302.413C296.814 302.12 296.425 301.973 295.949 301.973C295.472 301.973 295.083 302.12 294.783 302.413C294.482 302.706 294.332 303.154 294.332 303.755V304.569C294.332 305.17 294.482 305.618 294.783 305.911C295.083 306.204 295.472 306.351 295.949 306.351ZM300.119 298.86H300.999V302.248H301.043C301.19 301.889 301.402 301.625 301.681 301.456C301.967 301.28 302.308 301.192 302.704 301.192C303.056 301.192 303.375 301.262 303.661 301.401C303.947 301.54 304.189 301.738 304.387 301.995C304.592 302.252 304.746 302.563 304.849 302.93C304.959 303.297 305.014 303.707 305.014 304.162C305.014 304.617 304.959 305.027 304.849 305.394C304.746 305.761 304.592 306.072 304.387 306.329C304.189 306.586 303.947 306.784 303.661 306.923C303.375 307.062 303.056 307.132 302.704 307.132C301.934 307.132 301.38 306.78 301.043 306.076H300.999V307H300.119V298.86ZM302.462 306.34C302.961 306.34 303.353 306.186 303.639 305.878C303.925 305.563 304.068 305.152 304.068 304.646V303.678C304.068 303.172 303.925 302.765 303.639 302.457C303.353 302.142 302.961 301.984 302.462 301.984C302.264 301.984 302.073 302.013 301.89 302.072C301.714 302.123 301.56 302.197 301.428 302.292C301.296 302.387 301.19 302.505 301.109 302.644C301.036 302.776 300.999 302.919 300.999 303.073V305.185C300.999 305.368 301.036 305.533 301.109 305.68C301.19 305.819 301.296 305.94 301.428 306.043C301.56 306.138 301.714 306.212 301.89 306.263C302.073 306.314 302.264 306.34 302.462 306.34ZM310.785 307C310.455 307 310.217 306.912 310.07 306.736C309.931 306.56 309.843 306.34 309.806 306.076H309.751C309.626 306.428 309.421 306.692 309.135 306.868C308.849 307.044 308.508 307.132 308.112 307.132C307.511 307.132 307.041 306.978 306.704 306.67C306.374 306.362 306.209 305.944 306.209 305.416C306.209 304.881 306.403 304.47 306.792 304.184C307.188 303.898 307.8 303.755 308.629 303.755H309.751V303.194C309.751 302.791 309.641 302.483 309.421 302.27C309.201 302.057 308.864 301.951 308.409 301.951C308.064 301.951 307.775 302.028 307.54 302.182C307.313 302.336 307.122 302.541 306.968 302.798L306.44 302.303C306.594 301.995 306.84 301.735 307.177 301.522C307.514 301.302 307.94 301.192 308.453 301.192C309.142 301.192 309.678 301.361 310.059 301.698C310.44 302.035 310.631 302.505 310.631 303.106V306.23H311.28V307H310.785ZM308.255 306.384C308.475 306.384 308.677 306.358 308.86 306.307C309.043 306.256 309.201 306.182 309.333 306.087C309.465 305.992 309.568 305.882 309.641 305.757C309.714 305.632 309.751 305.497 309.751 305.35V304.415H308.585C308.079 304.415 307.709 304.488 307.474 304.635C307.247 304.782 307.133 304.994 307.133 305.273V305.504C307.133 305.783 307.232 305.999 307.43 306.153C307.635 306.307 307.91 306.384 308.255 306.384ZM312.696 298.86H313.576V302.248H313.62C313.767 301.889 313.979 301.625 314.258 301.456C314.544 301.28 314.885 301.192 315.281 301.192C315.633 301.192 315.952 301.262 316.238 301.401C316.524 301.54 316.766 301.738 316.964 301.995C317.169 302.252 317.323 302.563 317.426 302.93C317.536 303.297 317.591 303.707 317.591 304.162C317.591 304.617 317.536 305.027 317.426 305.394C317.323 305.761 317.169 306.072 316.964 306.329C316.766 306.586 316.524 306.784 316.238 306.923C315.952 307.062 315.633 307.132 315.281 307.132C314.511 307.132 313.957 306.78 313.62 306.076H313.576V307H312.696V298.86ZM315.039 306.34C315.538 306.34 315.93 306.186 316.216 305.878C316.502 305.563 316.645 305.152 316.645 304.646V303.678C316.645 303.172 316.502 302.765 316.216 302.457C315.93 302.142 315.538 301.984 315.039 301.984C314.841 301.984 314.65 302.013 314.467 302.072C314.291 302.123 314.137 302.197 314.005 302.292C313.873 302.387 313.767 302.505 313.686 302.644C313.613 302.776 313.576 302.919 313.576 303.073V305.185C313.576 305.368 313.613 305.533 313.686 305.68C313.767 305.819 313.873 305.94 314.005 306.043C314.137 306.138 314.291 306.212 314.467 306.263C314.65 306.314 314.841 306.34 315.039 306.34ZM319.677 299.993C319.486 299.993 319.347 299.949 319.259 299.861C319.178 299.766 319.138 299.645 319.138 299.498V299.355C319.138 299.208 319.178 299.091 319.259 299.003C319.347 298.908 319.486 298.86 319.677 298.86C319.867 298.86 320.003 298.908 320.084 299.003C320.172 299.091 320.216 299.208 320.216 299.355V299.498C320.216 299.645 320.172 299.766 320.084 299.861C320.003 299.949 319.867 299.993 319.677 299.993ZM319.237 301.324H320.117V307H319.237V301.324ZM323.082 307C322.774 307 322.539 306.916 322.378 306.747C322.224 306.571 322.147 306.351 322.147 306.087V298.86H323.027V306.23H323.863V307H323.082ZM325.744 299.993C325.553 299.993 325.414 299.949 325.326 299.861C325.245 299.766 325.205 299.645 325.205 299.498V299.355C325.205 299.208 325.245 299.091 325.326 299.003C325.414 298.908 325.553 298.86 325.744 298.86C325.935 298.86 326.07 298.908 326.151 299.003C326.239 299.091 326.283 299.208 326.283 299.355V299.498C326.283 299.645 326.239 299.766 326.151 299.861C326.07 299.949 325.935 299.993 325.744 299.993ZM325.304 301.324H326.184V307H325.304V301.324ZM329.468 307C329.16 307 328.925 306.916 328.764 306.747C328.61 306.571 328.533 306.344 328.533 306.065V302.094H327.598V301.324H328.126C328.317 301.324 328.445 301.287 328.511 301.214C328.584 301.133 328.621 300.998 328.621 300.807V299.751H329.413V301.324H330.656V302.094H329.413V306.23H330.568V307H329.468ZM335.728 301.324H336.597L334.056 308.32C333.99 308.489 333.924 308.628 333.858 308.738C333.792 308.855 333.712 308.947 333.616 309.013C333.521 309.079 333.4 309.127 333.253 309.156C333.114 309.185 332.942 309.2 332.736 309.2H332.285V308.43H333.176L333.605 307.22L331.482 301.324H332.362L333.726 305.185L333.99 306.109H334.045L334.353 305.185L335.728 301.324ZM338.551 307.132C338.316 307.132 338.144 307.073 338.034 306.956C337.931 306.839 337.88 306.685 337.88 306.494V306.351C337.88 306.16 337.931 306.006 338.034 305.889C338.144 305.772 338.316 305.713 338.551 305.713C338.785 305.713 338.954 305.772 339.057 305.889C339.167 306.006 339.222 306.16 339.222 306.351V306.494C339.222 306.685 339.167 306.839 339.057 306.956C338.954 307.073 338.785 307.132 338.551 307.132ZM338.551 302.611C338.316 302.611 338.144 302.552 338.034 302.435C337.931 302.318 337.88 302.164 337.88 301.973V301.83C337.88 301.639 337.931 301.485 338.034 301.368C338.144 301.251 338.316 301.192 338.551 301.192C338.785 301.192 338.954 301.251 339.057 301.368C339.167 301.485 339.222 301.639 339.222 301.83V301.973C339.222 302.164 339.167 302.318 339.057 302.435C338.954 302.552 338.785 302.611 338.551 302.611ZM346.376 307.132C345.459 307.132 344.788 306.784 344.363 306.087C343.945 305.39 343.736 304.415 343.736 303.161C343.736 301.907 343.945 300.932 344.363 300.235C344.788 299.538 345.459 299.19 346.376 299.19C347.293 299.19 347.96 299.538 348.378 300.235C348.803 300.932 349.016 301.907 349.016 303.161C349.016 304.415 348.803 305.39 348.378 306.087C347.96 306.784 347.293 307.132 346.376 307.132ZM346.376 306.329C346.677 306.329 346.933 306.267 347.146 306.142C347.359 306.017 347.531 305.841 347.663 305.614C347.795 305.387 347.89 305.119 347.949 304.811C348.015 304.503 348.048 304.162 348.048 303.788V302.534C348.048 302.16 348.015 301.819 347.949 301.511C347.89 301.203 347.795 300.935 347.663 300.708C347.531 300.481 347.359 300.305 347.146 300.18C346.933 300.055 346.677 299.993 346.376 299.993C346.075 299.993 345.819 300.055 345.606 300.18C345.393 300.305 345.221 300.481 345.089 300.708C344.957 300.935 344.858 301.203 344.792 301.511C344.733 301.819 344.704 302.16 344.704 302.534V303.788C344.704 304.162 344.733 304.503 344.792 304.811C344.858 305.119 344.957 305.387 345.089 305.614C345.221 305.841 345.393 306.017 345.606 306.142C345.819 306.267 346.075 306.329 346.376 306.329ZM351.328 307.132C351.093 307.132 350.921 307.073 350.811 306.956C350.708 306.839 350.657 306.685 350.657 306.494V306.351C350.657 306.16 350.708 306.006 350.811 305.889C350.921 305.772 351.093 305.713 351.328 305.713C351.562 305.713 351.731 305.772 351.834 305.889C351.944 306.006 351.999 306.16 351.999 306.351V306.494C351.999 306.685 351.944 306.839 351.834 306.956C351.731 307.073 351.562 307.132 351.328 307.132ZM358.467 300.136H355.101L354.881 303.062H354.958C355.141 302.805 355.347 302.6 355.574 302.446C355.809 302.292 356.128 302.215 356.531 302.215C356.861 302.215 357.165 302.27 357.444 302.38C357.723 302.49 357.965 302.648 358.17 302.853C358.375 303.051 358.533 303.297 358.643 303.59C358.76 303.883 358.819 304.217 358.819 304.591C358.819 304.965 358.76 305.31 358.643 305.625C358.526 305.933 358.353 306.201 358.126 306.428C357.906 306.648 357.635 306.82 357.312 306.945C356.997 307.07 356.637 307.132 356.234 307.132C355.911 307.132 355.625 307.095 355.376 307.022C355.134 306.949 354.918 306.85 354.727 306.725C354.536 306.6 354.368 306.461 354.221 306.307C354.082 306.153 353.953 305.992 353.836 305.823L354.529 305.295C354.624 305.449 354.723 305.588 354.826 305.713C354.936 305.838 355.053 305.944 355.178 306.032C355.31 306.12 355.46 306.19 355.629 306.241C355.798 306.285 355.999 306.307 356.234 306.307C356.762 306.307 357.162 306.168 357.433 305.889C357.704 305.61 357.84 305.218 357.84 304.712V304.602C357.84 304.096 357.704 303.704 357.433 303.425C357.162 303.146 356.762 303.007 356.234 303.007C355.882 303.007 355.603 303.073 355.398 303.205C355.2 303.33 355.02 303.48 354.859 303.656L354.078 303.546L354.353 299.322H358.467V300.136Z" fill="white"/>
</svg>
