<svg width="579" height="349" viewBox="0 0 579 349" fill="none" xmlns="http://www.w3.org/2000/svg">
<line x1="4.37114e-08" y1="0.5" x2="576" y2="0.50005" stroke="#C1C7CD"/>
<line x1="4.37114e-08" y1="337.5" x2="576" y2="337.5" stroke="#C1C7CD"/>
<line x1="576.5" y1="1" x2="576.5" y2="337" stroke="#C1C7CD"/>
<line x1="0.5" y1="1" x2="0.5" y2="337" stroke="#C1C7CD"/>
<rect width="576" height="337" fill="white"/>
<path d="M28.18 111.656V100.88H29.02V111.656H28.18ZM36.1153 110.144C35.6033 110.144 35.1633 110.048 34.7953 109.856C34.4273 109.656 34.1233 109.372 33.8833 109.004C33.6433 108.636 33.4673 108.184 33.3553 107.648C33.2433 107.112 33.1873 106.5 33.1873 105.812C33.1873 105.132 33.2433 104.524 33.3553 103.988C33.4673 103.444 33.6433 102.988 33.8833 102.62C34.1233 102.252 34.4273 101.972 34.7953 101.78C35.1633 101.58 35.6033 101.48 36.1153 101.48C36.6273 101.48 37.0673 101.58 37.4353 101.78C37.8033 101.972 38.1073 102.252 38.3473 102.62C38.5873 102.988 38.7633 103.444 38.8753 103.988C38.9873 104.524 39.0433 105.132 39.0433 105.812C39.0433 106.5 38.9873 107.112 38.8753 107.648C38.7633 108.184 38.5873 108.636 38.3473 109.004C38.1073 109.372 37.8033 109.656 37.4353 109.856C37.0673 110.048 36.6273 110.144 36.1153 110.144ZM36.1153 109.268C36.4513 109.268 36.7393 109.204 36.9793 109.076C37.2193 108.94 37.4113 108.752 37.5553 108.512C37.7073 108.272 37.8193 107.984 37.8913 107.648C37.9633 107.304 37.9993 106.92 37.9993 106.496V105.128C37.9993 104.712 37.9633 104.332 37.8913 103.988C37.8193 103.644 37.7073 103.352 37.5553 103.112C37.4113 102.872 37.2193 102.688 36.9793 102.56C36.7393 102.424 36.4513 102.356 36.1153 102.356C35.7793 102.356 35.4913 102.424 35.2513 102.56C35.0113 102.688 34.8153 102.872 34.6633 103.112C34.5193 103.352 34.4113 103.644 34.3393 103.988C34.2673 104.332 34.2313 104.712 34.2313 105.128V106.496C34.2313 106.92 34.2673 107.304 34.3393 107.648C34.4113 107.984 34.5193 108.272 34.6633 108.512C34.8153 108.752 35.0113 108.94 35.2513 109.076C35.4913 109.204 35.7793 109.268 36.1153 109.268ZM36.1153 106.52C35.8353 106.52 35.6393 106.464 35.5273 106.352C35.4233 106.24 35.3713 106.104 35.3713 105.944V105.68C35.3713 105.52 35.4233 105.384 35.5273 105.272C35.6393 105.16 35.8353 105.104 36.1153 105.104C36.3953 105.104 36.5873 105.16 36.6913 105.272C36.8033 105.384 36.8593 105.52 36.8593 105.68V105.944C36.8593 106.104 36.8033 106.24 36.6913 106.352C36.5873 106.464 36.3953 106.52 36.1153 106.52ZM41.0506 108.812L45.3106 106.4V106.304L41.0506 103.892V102.872L46.2106 105.86V106.82L41.0506 109.808V108.812Z" fill="black"/>
<path d="M227.18 111.656V100.88H228.02V111.656H227.18ZM235.115 110.144C234.603 110.144 234.163 110.048 233.795 109.856C233.427 109.656 233.123 109.372 232.883 109.004C232.643 108.636 232.467 108.184 232.355 107.648C232.243 107.112 232.187 106.5 232.187 105.812C232.187 105.132 232.243 104.524 232.355 103.988C232.467 103.444 232.643 102.988 232.883 102.62C233.123 102.252 233.427 101.972 233.795 101.78C234.163 101.58 234.603 101.48 235.115 101.48C235.627 101.48 236.067 101.58 236.435 101.78C236.803 101.972 237.107 102.252 237.347 102.62C237.587 102.988 237.763 103.444 237.875 103.988C237.987 104.524 238.043 105.132 238.043 105.812C238.043 106.5 237.987 107.112 237.875 107.648C237.763 108.184 237.587 108.636 237.347 109.004C237.107 109.372 236.803 109.656 236.435 109.856C236.067 110.048 235.627 110.144 235.115 110.144ZM235.115 109.268C235.451 109.268 235.739 109.204 235.979 109.076C236.219 108.94 236.411 108.752 236.555 108.512C236.707 108.272 236.819 107.984 236.891 107.648C236.963 107.304 236.999 106.92 236.999 106.496V105.128C236.999 104.712 236.963 104.332 236.891 103.988C236.819 103.644 236.707 103.352 236.555 103.112C236.411 102.872 236.219 102.688 235.979 102.56C235.739 102.424 235.451 102.356 235.115 102.356C234.779 102.356 234.491 102.424 234.251 102.56C234.011 102.688 233.815 102.872 233.663 103.112C233.519 103.352 233.411 103.644 233.339 103.988C233.267 104.332 233.231 104.712 233.231 105.128V106.496C233.231 106.92 233.267 107.304 233.339 107.648C233.411 107.984 233.519 108.272 233.663 108.512C233.815 108.752 234.011 108.94 234.251 109.076C234.491 109.204 234.779 109.268 235.115 109.268ZM235.115 106.52C234.835 106.52 234.639 106.464 234.527 106.352C234.423 106.24 234.371 106.104 234.371 105.944V105.68C234.371 105.52 234.423 105.384 234.527 105.272C234.639 105.16 234.835 105.104 235.115 105.104C235.395 105.104 235.587 105.16 235.691 105.272C235.803 105.384 235.859 105.52 235.859 105.68V105.944C235.859 106.104 235.803 106.24 235.691 106.352C235.587 106.464 235.395 106.52 235.115 106.52ZM240.051 108.812L244.311 106.4V106.304L240.051 103.892V102.872L245.211 105.86V106.82L240.051 109.808V108.812Z" fill="black"/>
<path d="M419.18 111.656V100.88H420.02V111.656H419.18ZM427.115 110.144C426.603 110.144 426.163 110.048 425.795 109.856C425.427 109.656 425.123 109.372 424.883 109.004C424.643 108.636 424.467 108.184 424.355 107.648C424.243 107.112 424.187 106.5 424.187 105.812C424.187 105.132 424.243 104.524 424.355 103.988C424.467 103.444 424.643 102.988 424.883 102.62C425.123 102.252 425.427 101.972 425.795 101.78C426.163 101.58 426.603 101.48 427.115 101.48C427.627 101.48 428.067 101.58 428.435 101.78C428.803 101.972 429.107 102.252 429.347 102.62C429.587 102.988 429.763 103.444 429.875 103.988C429.987 104.524 430.043 105.132 430.043 105.812C430.043 106.5 429.987 107.112 429.875 107.648C429.763 108.184 429.587 108.636 429.347 109.004C429.107 109.372 428.803 109.656 428.435 109.856C428.067 110.048 427.627 110.144 427.115 110.144ZM427.115 109.268C427.451 109.268 427.739 109.204 427.979 109.076C428.219 108.94 428.411 108.752 428.555 108.512C428.707 108.272 428.819 107.984 428.891 107.648C428.963 107.304 428.999 106.92 428.999 106.496V105.128C428.999 104.712 428.963 104.332 428.891 103.988C428.819 103.644 428.707 103.352 428.555 103.112C428.411 102.872 428.219 102.688 427.979 102.56C427.739 102.424 427.451 102.356 427.115 102.356C426.779 102.356 426.491 102.424 426.251 102.56C426.011 102.688 425.815 102.872 425.663 103.112C425.519 103.352 425.411 103.644 425.339 103.988C425.267 104.332 425.231 104.712 425.231 105.128V106.496C425.231 106.92 425.267 107.304 425.339 107.648C425.411 107.984 425.519 108.272 425.663 108.512C425.815 108.752 426.011 108.94 426.251 109.076C426.491 109.204 426.779 109.268 427.115 109.268ZM427.115 106.52C426.835 106.52 426.639 106.464 426.527 106.352C426.423 106.24 426.371 106.104 426.371 105.944V105.68C426.371 105.52 426.423 105.384 426.527 105.272C426.639 105.16 426.835 105.104 427.115 105.104C427.395 105.104 427.587 105.16 427.691 105.272C427.803 105.384 427.859 105.52 427.859 105.68V105.944C427.859 106.104 427.803 106.24 427.691 106.352C427.587 106.464 427.395 106.52 427.115 106.52ZM432.051 108.812L436.311 106.4V106.304L432.051 103.892V102.872L437.211 105.86V106.82L432.051 109.808V108.812Z" fill="black"/>
<path d="M419.18 261.656V250.88H420.02V261.656H419.18ZM427.115 260.144C426.603 260.144 426.163 260.048 425.795 259.856C425.427 259.656 425.123 259.372 424.883 259.004C424.643 258.636 424.467 258.184 424.355 257.648C424.243 257.112 424.187 256.5 424.187 255.812C424.187 255.132 424.243 254.524 424.355 253.988C424.467 253.444 424.643 252.988 424.883 252.62C425.123 252.252 425.427 251.972 425.795 251.78C426.163 251.58 426.603 251.48 427.115 251.48C427.627 251.48 428.067 251.58 428.435 251.78C428.803 251.972 429.107 252.252 429.347 252.62C429.587 252.988 429.763 253.444 429.875 253.988C429.987 254.524 430.043 255.132 430.043 255.812C430.043 256.5 429.987 257.112 429.875 257.648C429.763 258.184 429.587 258.636 429.347 259.004C429.107 259.372 428.803 259.656 428.435 259.856C428.067 260.048 427.627 260.144 427.115 260.144ZM427.115 259.268C427.451 259.268 427.739 259.204 427.979 259.076C428.219 258.94 428.411 258.752 428.555 258.512C428.707 258.272 428.819 257.984 428.891 257.648C428.963 257.304 428.999 256.92 428.999 256.496V255.128C428.999 254.712 428.963 254.332 428.891 253.988C428.819 253.644 428.707 253.352 428.555 253.112C428.411 252.872 428.219 252.688 427.979 252.56C427.739 252.424 427.451 252.356 427.115 252.356C426.779 252.356 426.491 252.424 426.251 252.56C426.011 252.688 425.815 252.872 425.663 253.112C425.519 253.352 425.411 253.644 425.339 253.988C425.267 254.332 425.231 254.712 425.231 255.128V256.496C425.231 256.92 425.267 257.304 425.339 257.648C425.411 257.984 425.519 258.272 425.663 258.512C425.815 258.752 426.011 258.94 426.251 259.076C426.491 259.204 426.779 259.268 427.115 259.268ZM427.115 256.52C426.835 256.52 426.639 256.464 426.527 256.352C426.423 256.24 426.371 256.104 426.371 255.944V255.68C426.371 255.52 426.423 255.384 426.527 255.272C426.639 255.16 426.835 255.104 427.115 255.104C427.395 255.104 427.587 255.16 427.691 255.272C427.803 255.384 427.859 255.52 427.859 255.68V255.944C427.859 256.104 427.803 256.24 427.691 256.352C427.587 256.464 427.395 256.52 427.115 256.52ZM432.051 258.812L436.311 256.4V256.304L432.051 253.892V252.872L437.211 255.86V256.82L432.051 259.808V258.812Z" fill="black"/>
<path d="M227.18 261.656V250.88H228.02V261.656H227.18ZM232.535 260V259.124H234.935V252.368H234.851L232.739 254.336L232.151 253.7L234.371 251.624H235.943V259.124H238.151V260H232.535ZM240.051 258.812L244.311 256.4V256.304L240.051 253.892V252.872L245.211 255.86V256.82L240.051 259.808V258.812Z" fill="black"/>
<path d="M419.18 178.656V167.88H420.02V178.656H419.18ZM424.535 177V176.124H426.935V169.368H426.851L424.739 171.336L424.151 170.7L426.371 168.624H427.943V176.124H430.151V177H424.535ZM432.051 175.812L436.311 173.4V173.304L432.051 170.892V169.872L437.211 172.86V173.82L432.051 176.808V175.812Z" fill="black"/>
<path d="M419.18 328.656V317.88H420.02V328.656H419.18ZM424.535 327V326.124H426.935V319.368H426.851L424.739 321.336L424.151 320.7L426.371 318.624H427.943V326.124H430.151V327H424.535ZM432.051 325.812L436.311 323.4V323.304L432.051 320.892V319.872L437.211 322.86V323.82L432.051 326.808V325.812Z" fill="black"/>
<circle cx="235" cy="74" r="20" fill="#DDE1E6"/>
<circle cx="235" cy="74" r="17" fill="#A56EFF"/>
<circle cx="427" cy="74" r="20" fill="#DDE1E6"/>
<circle cx="427" cy="74" r="8" fill="#A56EFF"/>
<circle cx="427" cy="224" r="20" fill="#DDE1E6"/>
<circle cx="427" cy="224" r="8" fill="#A56EFF"/>
<circle cx="235" cy="224" r="20" fill="#DDE1E6"/>
<circle cx="235" cy="224" r="17" fill="#A56EFF"/>
<circle cx="427" cy="141" r="20" fill="#DDE1E6"/>
<circle cx="427" cy="141" r="8" fill="#A56EFF"/>
<circle cx="427" cy="291" r="20" fill="#DDE1E6"/>
<circle cx="427" cy="291" r="8" fill="#A56EFF"/>
<path d="M149.036 67L147.536 61.576H146.348V60.808H148.268L148.808 62.8L149.708 66.196H149.768L150.704 62.8L151.868 58.624H152.804L150.392 67H149.036ZM154.511 63.256C154.511 62.68 154.567 62.124 154.679 61.588C154.791 61.052 154.943 60.556 155.135 60.1C155.335 59.636 155.567 59.216 155.831 58.84C156.095 58.464 156.379 58.144 156.683 57.88H157.595C157.259 58.184 156.955 58.528 156.683 58.912C156.419 59.296 156.191 59.704 155.999 60.136C155.815 60.568 155.671 61.008 155.567 61.456C155.463 61.904 155.411 62.336 155.411 62.752V63.784C155.411 64.208 155.463 64.644 155.567 65.092C155.671 65.54 155.819 65.98 156.011 66.412C156.203 66.844 156.431 67.252 156.695 67.636C156.967 68.02 157.267 68.356 157.595 68.644H156.683C156.387 68.396 156.107 68.084 155.843 67.708C155.579 67.332 155.347 66.912 155.147 66.448C154.955 65.984 154.799 65.484 154.679 64.948C154.567 64.404 154.511 63.84 154.511 63.256ZM158.911 67V66.112H161.251V59.368H161.167L159.055 61.336L158.467 60.7L160.687 58.624H162.259V66.112H164.419V67H158.911ZM165.478 68.812L168.61 58.12H169.474L166.342 68.812H165.478ZM176.68 67H171.184V65.968L173.92 63.448C174.312 63.088 174.64 62.708 174.904 62.308C175.168 61.9 175.3 61.492 175.3 61.084V60.94C175.3 60.476 175.172 60.1 174.916 59.812C174.66 59.524 174.272 59.38 173.752 59.38C173.496 59.38 173.272 59.416 173.08 59.488C172.888 59.56 172.72 59.66 172.576 59.788C172.44 59.916 172.324 60.068 172.228 60.244C172.14 60.412 172.068 60.596 172.012 60.796L171.112 60.448C171.192 60.2 171.3 59.96 171.436 59.728C171.58 59.488 171.756 59.276 171.964 59.092C172.18 58.908 172.436 58.76 172.732 58.648C173.036 58.536 173.392 58.48 173.8 58.48C174.208 58.48 174.572 58.54 174.892 58.66C175.212 58.78 175.48 58.948 175.696 59.164C175.912 59.38 176.076 59.636 176.188 59.932C176.308 60.228 176.368 60.556 176.368 60.916C176.368 61.244 176.32 61.548 176.224 61.828C176.136 62.108 176.012 62.376 175.852 62.632C175.692 62.88 175.496 63.124 175.264 63.364C175.04 63.604 174.796 63.844 174.532 64.084L172.276 66.112H176.68V67ZM180.823 63.256C180.823 63.84 180.763 64.404 180.643 64.948C180.531 65.484 180.375 65.984 180.175 66.448C179.983 66.912 179.755 67.332 179.491 67.708C179.227 68.084 178.947 68.396 178.651 68.644H177.739C178.067 68.356 178.363 68.02 178.627 67.636C178.899 67.252 179.131 66.844 179.323 66.412C179.515 65.98 179.663 65.54 179.767 65.092C179.871 64.644 179.923 64.208 179.923 63.784V62.752C179.923 62.336 179.871 61.904 179.767 61.456C179.663 61.008 179.515 60.568 179.323 60.136C179.139 59.704 178.911 59.296 178.639 58.912C178.375 58.528 178.075 58.184 177.739 57.88H178.651C178.955 58.144 179.239 58.464 179.503 58.84C179.767 59.216 179.995 59.636 180.187 60.1C180.387 60.556 180.543 61.052 180.655 61.588C180.767 62.124 180.823 62.68 180.823 63.256Z" fill="black"/>
<path d="M341.036 67L339.536 61.576H338.348V60.808H340.268L340.808 62.8L341.708 66.196H341.768L342.704 62.8L343.868 58.624H344.804L342.392 67H341.036ZM346.511 63.256C346.511 62.68 346.567 62.124 346.679 61.588C346.791 61.052 346.943 60.556 347.135 60.1C347.335 59.636 347.567 59.216 347.831 58.84C348.095 58.464 348.379 58.144 348.683 57.88H349.595C349.259 58.184 348.955 58.528 348.683 58.912C348.419 59.296 348.191 59.704 347.999 60.136C347.815 60.568 347.671 61.008 347.567 61.456C347.463 61.904 347.411 62.336 347.411 62.752V63.784C347.411 64.208 347.463 64.644 347.567 65.092C347.671 65.54 347.819 65.98 348.011 66.412C348.203 66.844 348.431 67.252 348.695 67.636C348.967 68.02 349.267 68.356 349.595 68.644H348.683C348.387 68.396 348.107 68.084 347.843 67.708C347.579 67.332 347.347 66.912 347.147 66.448C346.955 65.984 346.799 65.484 346.679 64.948C346.567 64.404 346.511 63.84 346.511 63.256ZM350.911 67V66.112H353.251V59.368H353.167L351.055 61.336L350.467 60.7L352.687 58.624H354.259V66.112H356.419V67H350.911ZM357.478 68.812L360.61 58.12H361.474L358.342 68.812H357.478ZM368.68 67H363.184V65.968L365.92 63.448C366.312 63.088 366.64 62.708 366.904 62.308C367.168 61.9 367.3 61.492 367.3 61.084V60.94C367.3 60.476 367.172 60.1 366.916 59.812C366.66 59.524 366.272 59.38 365.752 59.38C365.496 59.38 365.272 59.416 365.08 59.488C364.888 59.56 364.72 59.66 364.576 59.788C364.44 59.916 364.324 60.068 364.228 60.244C364.14 60.412 364.068 60.596 364.012 60.796L363.112 60.448C363.192 60.2 363.3 59.96 363.436 59.728C363.58 59.488 363.756 59.276 363.964 59.092C364.18 58.908 364.436 58.76 364.732 58.648C365.036 58.536 365.392 58.48 365.8 58.48C366.208 58.48 366.572 58.54 366.892 58.66C367.212 58.78 367.48 58.948 367.696 59.164C367.912 59.38 368.076 59.636 368.188 59.932C368.308 60.228 368.368 60.556 368.368 60.916C368.368 61.244 368.32 61.548 368.224 61.828C368.136 62.108 368.012 62.376 367.852 62.632C367.692 62.88 367.496 63.124 367.264 63.364C367.04 63.604 366.796 63.844 366.532 64.084L364.276 66.112H368.68V67ZM372.823 63.256C372.823 63.84 372.763 64.404 372.643 64.948C372.531 65.484 372.375 65.984 372.175 66.448C371.983 66.912 371.755 67.332 371.491 67.708C371.227 68.084 370.947 68.396 370.651 68.644H369.739C370.067 68.356 370.363 68.02 370.627 67.636C370.899 67.252 371.131 66.844 371.323 66.412C371.515 65.98 371.663 65.54 371.767 65.092C371.871 64.644 371.923 64.208 371.923 63.784V62.752C371.923 62.336 371.871 61.904 371.767 61.456C371.663 61.008 371.515 60.568 371.323 60.136C371.139 59.704 370.911 59.296 370.639 58.912C370.375 58.528 370.075 58.184 369.739 57.88H370.651C370.955 58.144 371.239 58.464 371.503 58.84C371.767 59.216 371.995 59.636 372.187 60.1C372.387 60.556 372.543 61.052 372.655 61.588C372.767 62.124 372.823 62.68 372.823 63.256Z" fill="black"/>
<path d="M341.036 217L339.536 211.576H338.348V210.808H340.268L340.808 212.8L341.708 216.196H341.768L342.704 212.8L343.868 208.624H344.804L342.392 217H341.036ZM346.511 213.256C346.511 212.68 346.567 212.124 346.679 211.588C346.791 211.052 346.943 210.556 347.135 210.1C347.335 209.636 347.567 209.216 347.831 208.84C348.095 208.464 348.379 208.144 348.683 207.88H349.595C349.259 208.184 348.955 208.528 348.683 208.912C348.419 209.296 348.191 209.704 347.999 210.136C347.815 210.568 347.671 211.008 347.567 211.456C347.463 211.904 347.411 212.336 347.411 212.752V213.784C347.411 214.208 347.463 214.644 347.567 215.092C347.671 215.54 347.819 215.98 348.011 216.412C348.203 216.844 348.431 217.252 348.695 217.636C348.967 218.02 349.267 218.356 349.595 218.644H348.683C348.387 218.396 348.107 218.084 347.843 217.708C347.579 217.332 347.347 216.912 347.147 216.448C346.955 215.984 346.799 215.484 346.679 214.948C346.567 214.404 346.511 213.84 346.511 213.256ZM350.911 217V216.112H353.251V209.368H353.167L351.055 211.336L350.467 210.7L352.687 208.624H354.259V216.112H356.419V217H350.911ZM357.478 218.812L360.61 208.12H361.474L358.342 218.812H357.478ZM368.68 217H363.184V215.968L365.92 213.448C366.312 213.088 366.64 212.708 366.904 212.308C367.168 211.9 367.3 211.492 367.3 211.084V210.94C367.3 210.476 367.172 210.1 366.916 209.812C366.66 209.524 366.272 209.38 365.752 209.38C365.496 209.38 365.272 209.416 365.08 209.488C364.888 209.56 364.72 209.66 364.576 209.788C364.44 209.916 364.324 210.068 364.228 210.244C364.14 210.412 364.068 210.596 364.012 210.796L363.112 210.448C363.192 210.2 363.3 209.96 363.436 209.728C363.58 209.488 363.756 209.276 363.964 209.092C364.18 208.908 364.436 208.76 364.732 208.648C365.036 208.536 365.392 208.48 365.8 208.48C366.208 208.48 366.572 208.54 366.892 208.66C367.212 208.78 367.48 208.948 367.696 209.164C367.912 209.38 368.076 209.636 368.188 209.932C368.308 210.228 368.368 210.556 368.368 210.916C368.368 211.244 368.32 211.548 368.224 211.828C368.136 212.108 368.012 212.376 367.852 212.632C367.692 212.88 367.496 213.124 367.264 213.364C367.04 213.604 366.796 213.844 366.532 214.084L364.276 216.112H368.68V217ZM372.823 213.256C372.823 213.84 372.763 214.404 372.643 214.948C372.531 215.484 372.375 215.984 372.175 216.448C371.983 216.912 371.755 217.332 371.491 217.708C371.227 218.084 370.947 218.396 370.651 218.644H369.739C370.067 218.356 370.363 218.02 370.627 217.636C370.899 217.252 371.131 216.844 371.323 216.412C371.515 215.98 371.663 215.54 371.767 215.092C371.871 214.644 371.923 214.208 371.923 213.784V212.752C371.923 212.336 371.871 211.904 371.767 211.456C371.663 211.008 371.515 210.568 371.323 210.136C371.139 209.704 370.911 209.296 370.639 208.912C370.375 208.528 370.075 208.184 369.739 207.88H370.651C370.955 208.144 371.239 208.464 371.503 208.84C371.767 209.216 371.995 209.636 372.187 210.1C372.387 210.556 372.543 211.052 372.655 211.588C372.767 212.124 372.823 212.68 372.823 213.256Z" fill="black"/>
<path d="M149.036 217L147.536 211.576H146.348V210.808H148.268L148.808 212.8L149.708 216.196H149.768L150.704 212.8L151.868 208.624H152.804L150.392 217H149.036ZM154.511 213.256C154.511 212.68 154.567 212.124 154.679 211.588C154.791 211.052 154.943 210.556 155.135 210.1C155.335 209.636 155.567 209.216 155.831 208.84C156.095 208.464 156.379 208.144 156.683 207.88H157.595C157.259 208.184 156.955 208.528 156.683 208.912C156.419 209.296 156.191 209.704 155.999 210.136C155.815 210.568 155.671 211.008 155.567 211.456C155.463 211.904 155.411 212.336 155.411 212.752V213.784C155.411 214.208 155.463 214.644 155.567 215.092C155.671 215.54 155.819 215.98 156.011 216.412C156.203 216.844 156.431 217.252 156.695 217.636C156.967 218.02 157.267 218.356 157.595 218.644H156.683C156.387 218.396 156.107 218.084 155.843 217.708C155.579 217.332 155.347 216.912 155.147 216.448C154.955 215.984 154.799 215.484 154.679 214.948C154.567 214.404 154.511 213.84 154.511 213.256ZM158.911 217V216.112H161.251V209.368H161.167L159.055 211.336L158.467 210.7L160.687 208.624H162.259V216.112H164.419V217H158.911ZM165.478 218.812L168.61 208.12H169.474L166.342 218.812H165.478ZM176.68 217H171.184V215.968L173.92 213.448C174.312 213.088 174.64 212.708 174.904 212.308C175.168 211.9 175.3 211.492 175.3 211.084V210.94C175.3 210.476 175.172 210.1 174.916 209.812C174.66 209.524 174.272 209.38 173.752 209.38C173.496 209.38 173.272 209.416 173.08 209.488C172.888 209.56 172.72 209.66 172.576 209.788C172.44 209.916 172.324 210.068 172.228 210.244C172.14 210.412 172.068 210.596 172.012 210.796L171.112 210.448C171.192 210.2 171.3 209.96 171.436 209.728C171.58 209.488 171.756 209.276 171.964 209.092C172.18 208.908 172.436 208.76 172.732 208.648C173.036 208.536 173.392 208.48 173.8 208.48C174.208 208.48 174.572 208.54 174.892 208.66C175.212 208.78 175.48 208.948 175.696 209.164C175.912 209.38 176.076 209.636 176.188 209.932C176.308 210.228 176.368 210.556 176.368 210.916C176.368 211.244 176.32 211.548 176.224 211.828C176.136 212.108 176.012 212.376 175.852 212.632C175.692 212.88 175.496 213.124 175.264 213.364C175.04 213.604 174.796 213.844 174.532 214.084L172.276 216.112H176.68V217ZM180.823 213.256C180.823 213.84 180.763 214.404 180.643 214.948C180.531 215.484 180.375 215.984 180.175 216.448C179.983 216.912 179.755 217.332 179.491 217.708C179.227 218.084 178.947 218.396 178.651 218.644H177.739C178.067 218.356 178.363 218.02 178.627 217.636C178.899 217.252 179.131 216.844 179.323 216.412C179.515 215.98 179.663 215.54 179.767 215.092C179.871 214.644 179.923 214.208 179.923 213.784V212.752C179.923 212.336 179.871 211.904 179.767 211.456C179.663 211.008 179.515 210.568 179.323 210.136C179.139 209.704 178.911 209.296 178.639 208.912C178.375 208.528 178.075 208.184 177.739 207.88H178.651C178.955 208.144 179.239 208.464 179.503 208.84C179.767 209.216 179.995 209.636 180.187 210.1C180.387 210.556 180.543 211.052 180.655 211.588C180.767 212.124 180.823 212.68 180.823 213.256Z" fill="black"/>
<path d="M341.036 134L339.536 128.576H338.348V127.808H340.268L340.808 129.8L341.708 133.196H341.768L342.704 129.8L343.868 125.624H344.804L342.392 134H341.036ZM346.511 130.256C346.511 129.68 346.567 129.124 346.679 128.588C346.791 128.052 346.943 127.556 347.135 127.1C347.335 126.636 347.567 126.216 347.831 125.84C348.095 125.464 348.379 125.144 348.683 124.88H349.595C349.259 125.184 348.955 125.528 348.683 125.912C348.419 126.296 348.191 126.704 347.999 127.136C347.815 127.568 347.671 128.008 347.567 128.456C347.463 128.904 347.411 129.336 347.411 129.752V130.784C347.411 131.208 347.463 131.644 347.567 132.092C347.671 132.54 347.819 132.98 348.011 133.412C348.203 133.844 348.431 134.252 348.695 134.636C348.967 135.02 349.267 135.356 349.595 135.644H348.683C348.387 135.396 348.107 135.084 347.843 134.708C347.579 134.332 347.347 133.912 347.147 133.448C346.955 132.984 346.799 132.484 346.679 131.948C346.567 131.404 346.511 130.84 346.511 130.256ZM350.911 134V133.112H353.251V126.368H353.167L351.055 128.336L350.467 127.7L352.687 125.624H354.259V133.112H356.419V134H350.911ZM357.478 135.812L360.61 125.12H361.474L358.342 135.812H357.478ZM368.68 134H363.184V132.968L365.92 130.448C366.312 130.088 366.64 129.708 366.904 129.308C367.168 128.9 367.3 128.492 367.3 128.084V127.94C367.3 127.476 367.172 127.1 366.916 126.812C366.66 126.524 366.272 126.38 365.752 126.38C365.496 126.38 365.272 126.416 365.08 126.488C364.888 126.56 364.72 126.66 364.576 126.788C364.44 126.916 364.324 127.068 364.228 127.244C364.14 127.412 364.068 127.596 364.012 127.796L363.112 127.448C363.192 127.2 363.3 126.96 363.436 126.728C363.58 126.488 363.756 126.276 363.964 126.092C364.18 125.908 364.436 125.76 364.732 125.648C365.036 125.536 365.392 125.48 365.8 125.48C366.208 125.48 366.572 125.54 366.892 125.66C367.212 125.78 367.48 125.948 367.696 126.164C367.912 126.38 368.076 126.636 368.188 126.932C368.308 127.228 368.368 127.556 368.368 127.916C368.368 128.244 368.32 128.548 368.224 128.828C368.136 129.108 368.012 129.376 367.852 129.632C367.692 129.88 367.496 130.124 367.264 130.364C367.04 130.604 366.796 130.844 366.532 131.084L364.276 133.112H368.68V134ZM372.823 130.256C372.823 130.84 372.763 131.404 372.643 131.948C372.531 132.484 372.375 132.984 372.175 133.448C371.983 133.912 371.755 134.332 371.491 134.708C371.227 135.084 370.947 135.396 370.651 135.644H369.739C370.067 135.356 370.363 135.02 370.627 134.636C370.899 134.252 371.131 133.844 371.323 133.412C371.515 132.98 371.663 132.54 371.767 132.092C371.871 131.644 371.923 131.208 371.923 130.784V129.752C371.923 129.336 371.871 128.904 371.767 128.456C371.663 128.008 371.515 127.568 371.323 127.136C371.139 126.704 370.911 126.296 370.639 125.912C370.375 125.528 370.075 125.184 369.739 124.88H370.651C370.955 125.144 371.239 125.464 371.503 125.84C371.767 126.216 371.995 126.636 372.187 127.1C372.387 127.556 372.543 128.052 372.655 128.588C372.767 129.124 372.823 129.68 372.823 130.256Z" fill="black"/>
<path d="M338.828 280.868V279.836H341.96V280.868H338.828ZM346.149 284L344.649 278.576H343.461V277.808H345.381L345.921 279.8L346.821 283.196H346.881L347.817 279.8L348.981 275.624H349.917L347.505 284H346.149ZM351.624 280.256C351.624 279.68 351.68 279.124 351.792 278.588C351.904 278.052 352.056 277.556 352.248 277.1C352.448 276.636 352.68 276.216 352.944 275.84C353.208 275.464 353.492 275.144 353.796 274.88H354.708C354.372 275.184 354.068 275.528 353.796 275.912C353.532 276.296 353.304 276.704 353.112 277.136C352.928 277.568 352.784 278.008 352.68 278.456C352.576 278.904 352.524 279.336 352.524 279.752V280.784C352.524 281.208 352.576 281.644 352.68 282.092C352.784 282.54 352.932 282.98 353.124 283.412C353.316 283.844 353.544 284.252 353.808 284.636C354.08 285.02 354.38 285.356 354.708 285.644H353.796C353.5 285.396 353.22 285.084 352.956 284.708C352.692 284.332 352.46 283.912 352.26 283.448C352.068 282.984 351.912 282.484 351.792 281.948C351.68 281.404 351.624 280.84 351.624 280.256ZM356.024 284V283.112H358.364V276.368H358.28L356.168 278.336L355.58 277.7L357.8 275.624H359.372V283.112H361.532V284H356.024ZM362.591 285.812L365.723 275.12H366.587L363.455 285.812H362.591ZM373.793 284H368.297V282.968L371.033 280.448C371.425 280.088 371.753 279.708 372.017 279.308C372.281 278.9 372.413 278.492 372.413 278.084V277.94C372.413 277.476 372.285 277.1 372.029 276.812C371.773 276.524 371.385 276.38 370.865 276.38C370.609 276.38 370.385 276.416 370.193 276.488C370.001 276.56 369.833 276.66 369.689 276.788C369.553 276.916 369.437 277.068 369.341 277.244C369.253 277.412 369.181 277.596 369.125 277.796L368.225 277.448C368.305 277.2 368.413 276.96 368.549 276.728C368.693 276.488 368.869 276.276 369.077 276.092C369.293 275.908 369.549 275.76 369.845 275.648C370.149 275.536 370.505 275.48 370.913 275.48C371.321 275.48 371.685 275.54 372.005 275.66C372.325 275.78 372.593 275.948 372.809 276.164C373.025 276.38 373.189 276.636 373.301 276.932C373.421 277.228 373.481 277.556 373.481 277.916C373.481 278.244 373.433 278.548 373.337 278.828C373.249 279.108 373.125 279.376 372.965 279.632C372.805 279.88 372.609 280.124 372.377 280.364C372.153 280.604 371.909 280.844 371.645 281.084L369.389 283.112H373.793V284ZM377.936 280.256C377.936 280.84 377.876 281.404 377.756 281.948C377.644 282.484 377.488 282.984 377.288 283.448C377.096 283.912 376.868 284.332 376.604 284.708C376.34 285.084 376.06 285.396 375.764 285.644H374.852C375.18 285.356 375.476 285.02 375.74 284.636C376.012 284.252 376.244 283.844 376.436 283.412C376.628 282.98 376.776 282.54 376.88 282.092C376.984 281.644 377.036 281.208 377.036 280.784V279.752C377.036 279.336 376.984 278.904 376.88 278.456C376.776 278.008 376.628 277.568 376.436 277.136C376.252 276.704 376.024 276.296 375.752 275.912C375.488 275.528 375.188 275.184 374.852 274.88H375.764C376.068 275.144 376.352 275.464 376.616 275.84C376.88 276.216 377.108 276.636 377.3 277.1C377.5 277.556 377.656 278.052 377.768 278.588C377.88 279.124 377.936 279.68 377.936 280.256Z" fill="black"/>
<path d="M209.72 22V21.16H210.896V14.464H209.72V13.624H213.08V14.464H211.904V21.16H213.08V22H209.72ZM215.145 22V15.808H216.105V16.816H216.153C216.305 16.464 216.517 16.184 216.789 15.976C217.069 15.768 217.441 15.664 217.905 15.664C218.545 15.664 219.049 15.872 219.417 16.288C219.793 16.696 219.981 17.276 219.981 18.028V22H219.021V18.196C219.021 17.084 218.553 16.528 217.617 16.528C217.425 16.528 217.237 16.552 217.053 16.6C216.877 16.648 216.717 16.72 216.573 16.816C216.429 16.912 216.313 17.036 216.225 17.188C216.145 17.332 216.105 17.504 216.105 17.704V22H215.145ZM223.653 22C223.317 22 223.061 21.908 222.885 21.724C222.717 21.532 222.633 21.284 222.633 20.98V16.648H221.613V15.808H222.189C222.397 15.808 222.537 15.768 222.609 15.688C222.689 15.6 222.729 15.452 222.729 15.244V14.092H223.593V15.808H224.949V16.648H223.593V21.16H224.853V22H223.653ZM229.093 22.144C228.669 22.144 228.285 22.068 227.941 21.916C227.605 21.764 227.313 21.548 227.065 21.268C226.825 20.98 226.637 20.64 226.501 20.248C226.373 19.848 226.309 19.4 226.309 18.904C226.309 18.416 226.373 17.972 226.501 17.572C226.637 17.172 226.825 16.832 227.065 16.552C227.313 16.264 227.605 16.044 227.941 15.892C228.285 15.74 228.669 15.664 229.093 15.664C229.509 15.664 229.881 15.74 230.209 15.892C230.537 16.044 230.817 16.256 231.049 16.528C231.281 16.792 231.457 17.108 231.577 17.476C231.705 17.844 231.769 18.248 231.769 18.688V19.144H227.317V19.432C227.317 19.696 227.357 19.944 227.437 20.176C227.525 20.4 227.645 20.596 227.797 20.764C227.957 20.932 228.149 21.064 228.373 21.16C228.605 21.256 228.865 21.304 229.153 21.304C229.545 21.304 229.885 21.212 230.173 21.028C230.469 20.844 230.697 20.58 230.857 20.236L231.541 20.728C231.341 21.152 231.029 21.496 230.605 21.76C230.181 22.016 229.677 22.144 229.093 22.144ZM229.093 16.468C228.829 16.468 228.589 16.516 228.373 16.612C228.157 16.7 227.969 16.828 227.809 16.996C227.657 17.164 227.537 17.364 227.449 17.596C227.361 17.82 227.317 18.068 227.317 18.34V18.424H230.737V18.292C230.737 17.74 230.585 17.3 230.281 16.972C229.985 16.636 229.589 16.468 229.093 16.468ZM233.671 22V15.808H234.631V16.948H234.691C234.803 16.652 235.003 16.388 235.291 16.156C235.579 15.924 235.975 15.808 236.479 15.808H236.851V16.768H236.287C235.767 16.768 235.359 16.868 235.063 17.068C234.775 17.26 234.631 17.504 234.631 17.8V22H233.671ZM238.397 22V15.808H239.357V16.816H239.405C239.477 16.656 239.557 16.508 239.645 16.372C239.741 16.228 239.853 16.104 239.981 16C240.117 15.896 240.273 15.816 240.449 15.76C240.625 15.696 240.833 15.664 241.073 15.664C241.481 15.664 241.857 15.764 242.201 15.964C242.545 16.156 242.801 16.476 242.969 16.924H242.993C243.105 16.588 243.313 16.296 243.617 16.048C243.929 15.792 244.349 15.664 244.877 15.664C245.509 15.664 246.001 15.872 246.353 16.288C246.713 16.696 246.893 17.276 246.893 18.028V22H245.933V18.196C245.933 17.644 245.825 17.228 245.609 16.948C245.393 16.668 245.049 16.528 244.577 16.528C244.385 16.528 244.201 16.552 244.025 16.6C243.857 16.648 243.705 16.72 243.569 16.816C243.433 16.912 243.325 17.036 243.245 17.188C243.165 17.332 243.125 17.504 243.125 17.704V22H242.165V18.196C242.165 17.644 242.057 17.228 241.841 16.948C241.625 16.668 241.289 16.528 240.833 16.528C240.641 16.528 240.457 16.552 240.281 16.6C240.105 16.648 239.949 16.72 239.813 16.816C239.677 16.912 239.565 17.036 239.477 17.188C239.397 17.332 239.357 17.504 239.357 17.704V22H238.397ZM251.522 22.144C251.098 22.144 250.714 22.068 250.37 21.916C250.034 21.764 249.742 21.548 249.494 21.268C249.254 20.98 249.066 20.64 248.93 20.248C248.802 19.848 248.738 19.4 248.738 18.904C248.738 18.416 248.802 17.972 248.93 17.572C249.066 17.172 249.254 16.832 249.494 16.552C249.742 16.264 250.034 16.044 250.37 15.892C250.714 15.74 251.098 15.664 251.522 15.664C251.938 15.664 252.31 15.74 252.638 15.892C252.966 16.044 253.246 16.256 253.478 16.528C253.71 16.792 253.886 17.108 254.006 17.476C254.134 17.844 254.198 18.248 254.198 18.688V19.144H249.746V19.432C249.746 19.696 249.786 19.944 249.866 20.176C249.954 20.4 250.074 20.596 250.226 20.764C250.386 20.932 250.578 21.064 250.802 21.16C251.034 21.256 251.294 21.304 251.582 21.304C251.974 21.304 252.314 21.212 252.602 21.028C252.898 20.844 253.126 20.58 253.286 20.236L253.97 20.728C253.77 21.152 253.458 21.496 253.034 21.76C252.61 22.016 252.106 22.144 251.522 22.144ZM251.522 16.468C251.258 16.468 251.018 16.516 250.802 16.612C250.586 16.7 250.398 16.828 250.238 16.996C250.086 17.164 249.966 17.364 249.878 17.596C249.79 17.82 249.746 18.068 249.746 18.34V18.424H253.166V18.292C253.166 17.74 253.014 17.3 252.71 16.972C252.414 16.636 252.018 16.468 251.522 16.468ZM260.06 20.992H260.012C259.636 21.76 259.032 22.144 258.2 22.144C257.816 22.144 257.468 22.068 257.156 21.916C256.844 21.764 256.576 21.548 256.352 21.268C256.136 20.988 255.968 20.648 255.848 20.248C255.736 19.848 255.68 19.4 255.68 18.904C255.68 18.408 255.736 17.96 255.848 17.56C255.968 17.16 256.136 16.82 256.352 16.54C256.576 16.26 256.844 16.044 257.156 15.892C257.468 15.74 257.816 15.664 258.2 15.664C258.632 15.664 259 15.76 259.304 15.952C259.616 16.136 259.852 16.424 260.012 16.816H260.06V13.12H261.02V22H260.06V20.992ZM258.464 21.28C258.68 21.28 258.884 21.252 259.076 21.196C259.276 21.14 259.448 21.06 259.592 20.956C259.736 20.844 259.848 20.712 259.928 20.56C260.016 20.4 260.06 20.22 260.06 20.02V17.716C260.06 17.548 260.016 17.392 259.928 17.248C259.848 17.096 259.736 16.968 259.592 16.864C259.448 16.76 259.276 16.68 259.076 16.624C258.884 16.56 258.68 16.528 258.464 16.528C257.92 16.528 257.492 16.7 257.18 17.044C256.868 17.38 256.712 17.824 256.712 18.376V19.432C256.712 19.984 256.868 20.432 257.18 20.776C257.492 21.112 257.92 21.28 258.464 21.28ZM263.861 14.356C263.653 14.356 263.501 14.308 263.405 14.212C263.317 14.108 263.273 13.976 263.273 13.816V13.66C263.273 13.5 263.317 13.372 263.405 13.276C263.501 13.172 263.653 13.12 263.861 13.12C264.069 13.12 264.217 13.172 264.305 13.276C264.401 13.372 264.449 13.5 264.449 13.66V13.816C264.449 13.976 264.401 14.108 264.305 14.212C264.217 14.308 264.069 14.356 263.861 14.356ZM263.381 15.808H264.341V22H263.381V15.808ZM271.201 22C270.841 22 270.581 21.904 270.421 21.712C270.269 21.52 270.173 21.28 270.133 20.992H270.073C269.937 21.376 269.713 21.664 269.401 21.856C269.089 22.048 268.717 22.144 268.285 22.144C267.629 22.144 267.117 21.976 266.749 21.64C266.389 21.304 266.209 20.848 266.209 20.272C266.209 19.688 266.421 19.24 266.845 18.928C267.277 18.616 267.945 18.46 268.849 18.46H270.073V17.848C270.073 17.408 269.953 17.072 269.713 16.84C269.473 16.608 269.105 16.492 268.609 16.492C268.233 16.492 267.917 16.576 267.661 16.744C267.413 16.912 267.205 17.136 267.037 17.416L266.461 16.876C266.629 16.54 266.897 16.256 267.265 16.024C267.633 15.784 268.097 15.664 268.657 15.664C269.409 15.664 269.993 15.848 270.409 16.216C270.825 16.584 271.033 17.096 271.033 17.752V21.16H271.741V22H271.201ZM268.441 21.328C268.681 21.328 268.901 21.3 269.101 21.244C269.301 21.188 269.473 21.108 269.617 21.004C269.761 20.9 269.873 20.78 269.953 20.644C270.033 20.508 270.073 20.36 270.073 20.2V19.18H268.801C268.249 19.18 267.845 19.26 267.589 19.42C267.341 19.58 267.217 19.812 267.217 20.116V20.368C267.217 20.672 267.325 20.908 267.541 21.076C267.765 21.244 268.065 21.328 268.441 21.328ZM274.799 22C274.463 22 274.207 21.908 274.031 21.724C273.863 21.532 273.779 21.284 273.779 20.98V16.648H272.759V15.808H273.335C273.543 15.808 273.683 15.768 273.755 15.688C273.835 15.6 273.875 15.452 273.875 15.244V14.092H274.739V15.808H276.095V16.648H274.739V21.16H275.999V22H274.799ZM280.239 22.144C279.815 22.144 279.431 22.068 279.087 21.916C278.751 21.764 278.459 21.548 278.211 21.268C277.971 20.98 277.783 20.64 277.647 20.248C277.519 19.848 277.455 19.4 277.455 18.904C277.455 18.416 277.519 17.972 277.647 17.572C277.783 17.172 277.971 16.832 278.211 16.552C278.459 16.264 278.751 16.044 279.087 15.892C279.431 15.74 279.815 15.664 280.239 15.664C280.655 15.664 281.027 15.74 281.355 15.892C281.683 16.044 281.963 16.256 282.195 16.528C282.427 16.792 282.603 17.108 282.723 17.476C282.851 17.844 282.915 18.248 282.915 18.688V19.144H278.463V19.432C278.463 19.696 278.503 19.944 278.583 20.176C278.671 20.4 278.791 20.596 278.943 20.764C279.103 20.932 279.295 21.064 279.519 21.16C279.751 21.256 280.011 21.304 280.299 21.304C280.691 21.304 281.031 21.212 281.319 21.028C281.615 20.844 281.843 20.58 282.003 20.236L282.687 20.728C282.487 21.152 282.175 21.496 281.751 21.76C281.327 22.016 280.823 22.144 280.239 22.144ZM280.239 16.468C279.975 16.468 279.735 16.516 279.519 16.612C279.303 16.7 279.115 16.828 278.955 16.996C278.803 17.164 278.683 17.364 278.595 17.596C278.507 17.82 278.463 18.068 278.463 18.34V18.424H281.883V18.292C281.883 17.74 281.731 17.3 281.427 16.972C281.131 16.636 280.735 16.468 280.239 16.468ZM292.473 22C292.113 22 291.853 21.904 291.693 21.712C291.541 21.52 291.445 21.28 291.405 20.992H291.345C291.209 21.376 290.985 21.664 290.673 21.856C290.361 22.048 289.989 22.144 289.557 22.144C288.901 22.144 288.389 21.976 288.021 21.64C287.661 21.304 287.481 20.848 287.481 20.272C287.481 19.688 287.693 19.24 288.117 18.928C288.549 18.616 289.217 18.46 290.121 18.46H291.345V17.848C291.345 17.408 291.225 17.072 290.985 16.84C290.745 16.608 290.377 16.492 289.881 16.492C289.505 16.492 289.189 16.576 288.933 16.744C288.685 16.912 288.477 17.136 288.309 17.416L287.733 16.876C287.901 16.54 288.169 16.256 288.537 16.024C288.905 15.784 289.369 15.664 289.929 15.664C290.681 15.664 291.265 15.848 291.681 16.216C292.097 16.584 292.305 17.096 292.305 17.752V21.16H293.013V22H292.473ZM289.713 21.328C289.953 21.328 290.173 21.3 290.373 21.244C290.573 21.188 290.745 21.108 290.889 21.004C291.033 20.9 291.145 20.78 291.225 20.644C291.305 20.508 291.345 20.36 291.345 20.2V19.18H290.073C289.521 19.18 289.117 19.26 288.861 19.42C288.613 19.58 288.489 19.812 288.489 20.116V20.368C288.489 20.672 288.597 20.908 288.813 21.076C289.037 21.244 289.337 21.328 289.713 21.328ZM294.703 22V15.808H295.663V16.816H295.711C295.783 16.656 295.863 16.508 295.951 16.372C296.047 16.228 296.159 16.104 296.287 16C296.423 15.896 296.579 15.816 296.755 15.76C296.931 15.696 297.139 15.664 297.379 15.664C297.787 15.664 298.163 15.764 298.507 15.964C298.851 16.156 299.107 16.476 299.275 16.924H299.299C299.411 16.588 299.619 16.296 299.923 16.048C300.235 15.792 300.655 15.664 301.183 15.664C301.815 15.664 302.307 15.872 302.659 16.288C303.019 16.696 303.199 17.276 303.199 18.028V22H302.239V18.196C302.239 17.644 302.131 17.228 301.915 16.948C301.699 16.668 301.355 16.528 300.883 16.528C300.691 16.528 300.507 16.552 300.331 16.6C300.163 16.648 300.011 16.72 299.875 16.816C299.739 16.912 299.631 17.036 299.551 17.188C299.471 17.332 299.431 17.504 299.431 17.704V22H298.471V18.196C298.471 17.644 298.363 17.228 298.147 16.948C297.931 16.668 297.595 16.528 297.139 16.528C296.947 16.528 296.763 16.552 296.587 16.6C296.411 16.648 296.255 16.72 296.119 16.816C295.983 16.912 295.871 17.036 295.783 17.188C295.703 17.332 295.663 17.504 295.663 17.704V22H294.703ZM305.5 15.808H306.46V16.816H306.508C306.668 16.424 306.9 16.136 307.204 15.952C307.516 15.76 307.888 15.664 308.32 15.664C308.704 15.664 309.052 15.74 309.364 15.892C309.676 16.044 309.94 16.26 310.156 16.54C310.38 16.82 310.548 17.16 310.66 17.56C310.78 17.96 310.84 18.408 310.84 18.904C310.84 19.4 310.78 19.848 310.66 20.248C310.548 20.648 310.38 20.988 310.156 21.268C309.94 21.548 309.676 21.764 309.364 21.916C309.052 22.068 308.704 22.144 308.32 22.144C307.48 22.144 306.876 21.76 306.508 20.992H306.46V24.4H305.5V15.808ZM308.056 21.28C308.6 21.28 309.028 21.112 309.34 20.776C309.652 20.432 309.808 19.984 309.808 19.432V18.376C309.808 17.824 309.652 17.38 309.34 17.044C309.028 16.7 308.6 16.528 308.056 16.528C307.84 16.528 307.632 16.56 307.432 16.624C307.24 16.68 307.072 16.76 306.928 16.864C306.784 16.968 306.668 17.096 306.58 17.248C306.5 17.392 306.46 17.548 306.46 17.716V20.02C306.46 20.22 306.5 20.4 306.58 20.56C306.668 20.712 306.784 20.844 306.928 20.956C307.072 21.06 307.24 21.14 307.432 21.196C307.632 21.252 307.84 21.28 308.056 21.28ZM313.801 22C313.465 22 313.209 21.908 313.033 21.724C312.865 21.532 312.781 21.292 312.781 21.004V13.12H313.741V21.16H314.653V22H313.801ZM316.85 14.356C316.642 14.356 316.49 14.308 316.394 14.212C316.306 14.108 316.262 13.976 316.262 13.816V13.66C316.262 13.5 316.306 13.372 316.394 13.276C316.49 13.172 316.642 13.12 316.85 13.12C317.058 13.12 317.206 13.172 317.294 13.276C317.39 13.372 317.438 13.5 317.438 13.66V13.816C317.438 13.976 317.39 14.108 317.294 14.212C317.206 14.308 317.058 14.356 316.85 14.356ZM316.37 15.808H317.33V22H316.37V15.808ZM321.058 22C320.722 22 320.466 21.908 320.29 21.724C320.122 21.532 320.038 21.284 320.038 20.98V16.648H319.018V15.808H319.594C319.802 15.808 319.942 15.768 320.014 15.688C320.094 15.6 320.134 15.452 320.134 15.244V14.092H320.998V15.808H322.354V16.648H320.998V21.16H322.258V22H321.058ZM328.033 20.992H327.985C327.921 21.136 327.841 21.28 327.745 21.424C327.657 21.56 327.545 21.684 327.409 21.796C327.273 21.9 327.109 21.984 326.917 22.048C326.725 22.112 326.501 22.144 326.245 22.144C325.605 22.144 325.097 21.94 324.721 21.532C324.345 21.116 324.157 20.532 324.157 19.78V15.808H325.117V19.612C325.117 20.724 325.589 21.28 326.533 21.28C326.725 21.28 326.909 21.256 327.085 21.208C327.269 21.16 327.429 21.088 327.565 20.992C327.709 20.896 327.821 20.776 327.901 20.632C327.989 20.48 328.033 20.3 328.033 20.092V15.808H328.993V22H328.033V20.992ZM335.318 20.992H335.27C334.894 21.76 334.29 22.144 333.458 22.144C333.074 22.144 332.726 22.068 332.414 21.916C332.102 21.764 331.834 21.548 331.61 21.268C331.394 20.988 331.226 20.648 331.106 20.248C330.994 19.848 330.938 19.4 330.938 18.904C330.938 18.408 330.994 17.96 331.106 17.56C331.226 17.16 331.394 16.82 331.61 16.54C331.834 16.26 332.102 16.044 332.414 15.892C332.726 15.74 333.074 15.664 333.458 15.664C333.89 15.664 334.258 15.76 334.562 15.952C334.874 16.136 335.11 16.424 335.27 16.816H335.318V13.12H336.278V22H335.318V20.992ZM333.722 21.28C333.938 21.28 334.142 21.252 334.334 21.196C334.534 21.14 334.706 21.06 334.85 20.956C334.994 20.844 335.106 20.712 335.186 20.56C335.274 20.4 335.318 20.22 335.318 20.02V17.716C335.318 17.548 335.274 17.392 335.186 17.248C335.106 17.096 334.994 16.968 334.85 16.864C334.706 16.76 334.534 16.68 334.334 16.624C334.142 16.56 333.938 16.528 333.722 16.528C333.178 16.528 332.75 16.7 332.438 17.044C332.126 17.38 331.97 17.824 331.97 18.376V19.432C331.97 19.984 332.126 20.432 332.438 20.776C332.75 21.112 333.178 21.28 333.722 21.28ZM340.966 22.144C340.542 22.144 340.158 22.068 339.814 21.916C339.478 21.764 339.186 21.548 338.938 21.268C338.698 20.98 338.51 20.64 338.374 20.248C338.246 19.848 338.182 19.4 338.182 18.904C338.182 18.416 338.246 17.972 338.374 17.572C338.51 17.172 338.698 16.832 338.938 16.552C339.186 16.264 339.478 16.044 339.814 15.892C340.158 15.74 340.542 15.664 340.966 15.664C341.382 15.664 341.754 15.74 342.082 15.892C342.41 16.044 342.69 16.256 342.922 16.528C343.154 16.792 343.33 17.108 343.45 17.476C343.578 17.844 343.642 18.248 343.642 18.688V19.144H339.19V19.432C339.19 19.696 339.23 19.944 339.31 20.176C339.398 20.4 339.518 20.596 339.67 20.764C339.83 20.932 340.022 21.064 340.246 21.16C340.478 21.256 340.738 21.304 341.026 21.304C341.418 21.304 341.758 21.212 342.046 21.028C342.342 20.844 342.57 20.58 342.73 20.236L343.414 20.728C343.214 21.152 342.902 21.496 342.478 21.76C342.054 22.016 341.55 22.144 340.966 22.144ZM340.966 16.468C340.702 16.468 340.462 16.516 340.246 16.612C340.03 16.7 339.842 16.828 339.682 16.996C339.53 17.164 339.41 17.364 339.322 17.596C339.234 17.82 339.19 18.068 339.19 18.34V18.424H342.61V18.292C342.61 17.74 342.458 17.3 342.154 16.972C341.858 16.636 341.462 16.468 340.966 16.468ZM347.404 22.144C346.828 22.144 346.344 22.036 345.952 21.82C345.568 21.596 345.236 21.3 344.956 20.932L345.64 20.38C345.88 20.684 346.148 20.92 346.444 21.088C346.74 21.248 347.084 21.328 347.476 21.328C347.884 21.328 348.2 21.24 348.424 21.064C348.656 20.888 348.772 20.64 348.772 20.32C348.772 20.08 348.692 19.876 348.532 19.708C348.38 19.532 348.1 19.412 347.692 19.348L347.2 19.276C346.912 19.236 346.648 19.176 346.408 19.096C346.168 19.008 345.956 18.896 345.772 18.76C345.596 18.616 345.456 18.44 345.352 18.232C345.256 18.024 345.208 17.776 345.208 17.488C345.208 17.184 345.264 16.92 345.376 16.696C345.488 16.464 345.64 16.272 345.832 16.12C346.032 15.968 346.268 15.856 346.54 15.784C346.812 15.704 347.104 15.664 347.416 15.664C347.92 15.664 348.34 15.752 348.676 15.928C349.02 16.104 349.32 16.348 349.576 16.66L348.94 17.236C348.804 17.044 348.604 16.872 348.34 16.72C348.076 16.56 347.744 16.48 347.344 16.48C346.944 16.48 346.64 16.568 346.432 16.744C346.232 16.912 346.132 17.144 346.132 17.44C346.132 17.744 346.232 17.964 346.432 18.1C346.64 18.236 346.936 18.336 347.32 18.4L347.8 18.472C348.488 18.576 348.976 18.776 349.264 19.072C349.552 19.36 349.696 19.74 349.696 20.212C349.696 20.812 349.492 21.284 349.084 21.628C348.676 21.972 348.116 22.144 347.404 22.144Z" fill="black"/>
<path d="M403.116 22V13.624H408.108V14.512H404.124V17.32H407.76V18.208H404.124V22H403.116ZM410.523 14.356C410.315 14.356 410.163 14.308 410.067 14.212C409.979 14.108 409.935 13.976 409.935 13.816V13.66C409.935 13.5 409.979 13.372 410.067 13.276C410.163 13.172 410.315 13.12 410.523 13.12C410.731 13.12 410.879 13.172 410.967 13.276C411.063 13.372 411.111 13.5 411.111 13.66V13.816C411.111 13.976 411.063 14.108 410.967 14.212C410.879 14.308 410.731 14.356 410.523 14.356ZM410.043 15.808H411.003V22H410.043V15.808ZM413.363 22V15.808H414.323V16.816H414.371C414.523 16.464 414.735 16.184 415.007 15.976C415.287 15.768 415.659 15.664 416.123 15.664C416.763 15.664 417.267 15.872 417.635 16.288C418.011 16.696 418.199 17.276 418.199 18.028V22H417.239V18.196C417.239 17.084 416.771 16.528 415.835 16.528C415.643 16.528 415.455 16.552 415.271 16.6C415.095 16.648 414.935 16.72 414.791 16.816C414.647 16.912 414.531 17.036 414.443 17.188C414.363 17.332 414.323 17.504 414.323 17.704V22H413.363ZM425.003 22C424.643 22 424.383 21.904 424.223 21.712C424.071 21.52 423.975 21.28 423.935 20.992H423.875C423.739 21.376 423.515 21.664 423.203 21.856C422.891 22.048 422.519 22.144 422.087 22.144C421.431 22.144 420.919 21.976 420.551 21.64C420.191 21.304 420.011 20.848 420.011 20.272C420.011 19.688 420.223 19.24 420.647 18.928C421.079 18.616 421.747 18.46 422.651 18.46H423.875V17.848C423.875 17.408 423.755 17.072 423.515 16.84C423.275 16.608 422.907 16.492 422.411 16.492C422.035 16.492 421.719 16.576 421.463 16.744C421.215 16.912 421.007 17.136 420.839 17.416L420.263 16.876C420.431 16.54 420.699 16.256 421.067 16.024C421.435 15.784 421.899 15.664 422.459 15.664C423.211 15.664 423.795 15.848 424.211 16.216C424.627 16.584 424.835 17.096 424.835 17.752V21.16H425.543V22H425.003ZM422.243 21.328C422.483 21.328 422.703 21.3 422.903 21.244C423.103 21.188 423.275 21.108 423.419 21.004C423.563 20.9 423.675 20.78 423.755 20.644C423.835 20.508 423.875 20.36 423.875 20.2V19.18H422.603C422.051 19.18 421.647 19.26 421.391 19.42C421.143 19.58 421.019 19.812 421.019 20.116V20.368C421.019 20.672 421.127 20.908 421.343 21.076C421.567 21.244 421.867 21.328 422.243 21.328ZM428.254 22C427.918 22 427.662 21.908 427.486 21.724C427.318 21.532 427.234 21.292 427.234 21.004V13.12H428.194V21.16H429.106V22H428.254ZM438.479 22C438.119 22 437.859 21.904 437.699 21.712C437.547 21.52 437.451 21.28 437.411 20.992H437.351C437.215 21.376 436.991 21.664 436.679 21.856C436.367 22.048 435.995 22.144 435.563 22.144C434.907 22.144 434.395 21.976 434.027 21.64C433.667 21.304 433.487 20.848 433.487 20.272C433.487 19.688 433.699 19.24 434.123 18.928C434.555 18.616 435.223 18.46 436.127 18.46H437.351V17.848C437.351 17.408 437.231 17.072 436.991 16.84C436.751 16.608 436.383 16.492 435.887 16.492C435.511 16.492 435.195 16.576 434.939 16.744C434.691 16.912 434.483 17.136 434.315 17.416L433.739 16.876C433.907 16.54 434.175 16.256 434.543 16.024C434.911 15.784 435.375 15.664 435.935 15.664C436.687 15.664 437.271 15.848 437.687 16.216C438.103 16.584 438.311 17.096 438.311 17.752V21.16H439.019V22H438.479ZM435.719 21.328C435.959 21.328 436.179 21.3 436.379 21.244C436.579 21.188 436.751 21.108 436.895 21.004C437.039 20.9 437.151 20.78 437.231 20.644C437.311 20.508 437.351 20.36 437.351 20.2V19.18H436.079C435.527 19.18 435.123 19.26 434.867 19.42C434.619 19.58 434.495 19.812 434.495 20.116V20.368C434.495 20.672 434.603 20.908 434.819 21.076C435.043 21.244 435.343 21.328 435.719 21.328ZM440.709 22V15.808H441.669V16.816H441.717C441.789 16.656 441.869 16.508 441.957 16.372C442.053 16.228 442.165 16.104 442.293 16C442.429 15.896 442.585 15.816 442.761 15.76C442.937 15.696 443.145 15.664 443.385 15.664C443.793 15.664 444.169 15.764 444.513 15.964C444.857 16.156 445.113 16.476 445.281 16.924H445.305C445.417 16.588 445.625 16.296 445.929 16.048C446.241 15.792 446.661 15.664 447.189 15.664C447.821 15.664 448.313 15.872 448.665 16.288C449.025 16.696 449.205 17.276 449.205 18.028V22H448.245V18.196C448.245 17.644 448.137 17.228 447.921 16.948C447.705 16.668 447.361 16.528 446.889 16.528C446.697 16.528 446.513 16.552 446.337 16.6C446.169 16.648 446.017 16.72 445.881 16.816C445.745 16.912 445.637 17.036 445.557 17.188C445.477 17.332 445.437 17.504 445.437 17.704V22H444.477V18.196C444.477 17.644 444.369 17.228 444.153 16.948C443.937 16.668 443.601 16.528 443.145 16.528C442.953 16.528 442.769 16.552 442.593 16.6C442.417 16.648 442.261 16.72 442.125 16.816C441.989 16.912 441.877 17.036 441.789 17.188C441.709 17.332 441.669 17.504 441.669 17.704V22H440.709ZM451.506 15.808H452.466V16.816H452.514C452.674 16.424 452.906 16.136 453.21 15.952C453.522 15.76 453.894 15.664 454.326 15.664C454.71 15.664 455.058 15.74 455.37 15.892C455.682 16.044 455.946 16.26 456.162 16.54C456.386 16.82 456.554 17.16 456.666 17.56C456.786 17.96 456.846 18.408 456.846 18.904C456.846 19.4 456.786 19.848 456.666 20.248C456.554 20.648 456.386 20.988 456.162 21.268C455.946 21.548 455.682 21.764 455.37 21.916C455.058 22.068 454.71 22.144 454.326 22.144C453.486 22.144 452.882 21.76 452.514 20.992H452.466V24.4H451.506V15.808ZM454.062 21.28C454.606 21.28 455.034 21.112 455.346 20.776C455.658 20.432 455.814 19.984 455.814 19.432V18.376C455.814 17.824 455.658 17.38 455.346 17.044C455.034 16.7 454.606 16.528 454.062 16.528C453.846 16.528 453.638 16.56 453.438 16.624C453.246 16.68 453.078 16.76 452.934 16.864C452.79 16.968 452.674 17.096 452.586 17.248C452.506 17.392 452.466 17.548 452.466 17.716V20.02C452.466 20.22 452.506 20.4 452.586 20.56C452.674 20.712 452.79 20.844 452.934 20.956C453.078 21.06 453.246 21.14 453.438 21.196C453.638 21.252 453.846 21.28 454.062 21.28ZM459.807 22C459.471 22 459.215 21.908 459.039 21.724C458.871 21.532 458.787 21.292 458.787 21.004V13.12H459.747V21.16H460.659V22H459.807ZM462.856 14.356C462.648 14.356 462.496 14.308 462.4 14.212C462.312 14.108 462.268 13.976 462.268 13.816V13.66C462.268 13.5 462.312 13.372 462.4 13.276C462.496 13.172 462.648 13.12 462.856 13.12C463.064 13.12 463.212 13.172 463.3 13.276C463.396 13.372 463.444 13.5 463.444 13.66V13.816C463.444 13.976 463.396 14.108 463.3 14.212C463.212 14.308 463.064 14.356 462.856 14.356ZM462.376 15.808H463.336V22H462.376V15.808ZM467.064 22C466.728 22 466.472 21.908 466.296 21.724C466.128 21.532 466.044 21.284 466.044 20.98V16.648H465.024V15.808H465.6C465.808 15.808 465.948 15.768 466.02 15.688C466.1 15.6 466.14 15.452 466.14 15.244V14.092H467.004V15.808H468.36V16.648H467.004V21.16H468.264V22H467.064ZM474.039 20.992H473.991C473.927 21.136 473.847 21.28 473.751 21.424C473.663 21.56 473.551 21.684 473.415 21.796C473.279 21.9 473.115 21.984 472.923 22.048C472.731 22.112 472.507 22.144 472.251 22.144C471.611 22.144 471.103 21.94 470.727 21.532C470.351 21.116 470.163 20.532 470.163 19.78V15.808H471.123V19.612C471.123 20.724 471.595 21.28 472.539 21.28C472.731 21.28 472.915 21.256 473.091 21.208C473.275 21.16 473.435 21.088 473.571 20.992C473.715 20.896 473.827 20.776 473.907 20.632C473.995 20.48 474.039 20.3 474.039 20.092V15.808H474.999V22H474.039V20.992ZM481.324 20.992H481.276C480.9 21.76 480.296 22.144 479.464 22.144C479.08 22.144 478.732 22.068 478.42 21.916C478.108 21.764 477.84 21.548 477.616 21.268C477.4 20.988 477.232 20.648 477.112 20.248C477 19.848 476.944 19.4 476.944 18.904C476.944 18.408 477 17.96 477.112 17.56C477.232 17.16 477.4 16.82 477.616 16.54C477.84 16.26 478.108 16.044 478.42 15.892C478.732 15.74 479.08 15.664 479.464 15.664C479.896 15.664 480.264 15.76 480.568 15.952C480.88 16.136 481.116 16.424 481.276 16.816H481.324V13.12H482.284V22H481.324V20.992ZM479.728 21.28C479.944 21.28 480.148 21.252 480.34 21.196C480.54 21.14 480.712 21.06 480.856 20.956C481 20.844 481.112 20.712 481.192 20.56C481.28 20.4 481.324 20.22 481.324 20.02V17.716C481.324 17.548 481.28 17.392 481.192 17.248C481.112 17.096 481 16.968 480.856 16.864C480.712 16.76 480.54 16.68 480.34 16.624C480.148 16.56 479.944 16.528 479.728 16.528C479.184 16.528 478.756 16.7 478.444 17.044C478.132 17.38 477.976 17.824 477.976 18.376V19.432C477.976 19.984 478.132 20.432 478.444 20.776C478.756 21.112 479.184 21.28 479.728 21.28ZM486.973 22.144C486.549 22.144 486.165 22.068 485.821 21.916C485.485 21.764 485.193 21.548 484.945 21.268C484.705 20.98 484.517 20.64 484.381 20.248C484.253 19.848 484.189 19.4 484.189 18.904C484.189 18.416 484.253 17.972 484.381 17.572C484.517 17.172 484.705 16.832 484.945 16.552C485.193 16.264 485.485 16.044 485.821 15.892C486.165 15.74 486.549 15.664 486.973 15.664C487.389 15.664 487.761 15.74 488.089 15.892C488.417 16.044 488.697 16.256 488.929 16.528C489.161 16.792 489.337 17.108 489.457 17.476C489.585 17.844 489.649 18.248 489.649 18.688V19.144H485.197V19.432C485.197 19.696 485.237 19.944 485.317 20.176C485.405 20.4 485.525 20.596 485.677 20.764C485.837 20.932 486.029 21.064 486.253 21.16C486.485 21.256 486.745 21.304 487.033 21.304C487.425 21.304 487.765 21.212 488.053 21.028C488.349 20.844 488.577 20.58 488.737 20.236L489.421 20.728C489.221 21.152 488.909 21.496 488.485 21.76C488.061 22.016 487.557 22.144 486.973 22.144ZM486.973 16.468C486.709 16.468 486.469 16.516 486.253 16.612C486.037 16.7 485.849 16.828 485.689 16.996C485.537 17.164 485.417 17.364 485.329 17.596C485.241 17.82 485.197 18.068 485.197 18.34V18.424H488.617V18.292C488.617 17.74 488.465 17.3 488.161 16.972C487.865 16.636 487.469 16.468 486.973 16.468ZM493.41 22.144C492.834 22.144 492.35 22.036 491.958 21.82C491.574 21.596 491.242 21.3 490.962 20.932L491.646 20.38C491.886 20.684 492.154 20.92 492.45 21.088C492.746 21.248 493.09 21.328 493.482 21.328C493.89 21.328 494.206 21.24 494.43 21.064C494.662 20.888 494.778 20.64 494.778 20.32C494.778 20.08 494.698 19.876 494.538 19.708C494.386 19.532 494.106 19.412 493.698 19.348L493.206 19.276C492.918 19.236 492.654 19.176 492.414 19.096C492.174 19.008 491.962 18.896 491.778 18.76C491.602 18.616 491.462 18.44 491.358 18.232C491.262 18.024 491.214 17.776 491.214 17.488C491.214 17.184 491.27 16.92 491.382 16.696C491.494 16.464 491.646 16.272 491.838 16.12C492.038 15.968 492.274 15.856 492.546 15.784C492.818 15.704 493.11 15.664 493.422 15.664C493.926 15.664 494.346 15.752 494.682 15.928C495.026 16.104 495.326 16.348 495.582 16.66L494.946 17.236C494.81 17.044 494.61 16.872 494.346 16.72C494.082 16.56 493.75 16.48 493.35 16.48C492.95 16.48 492.646 16.568 492.438 16.744C492.238 16.912 492.138 17.144 492.138 17.44C492.138 17.744 492.238 17.964 492.438 18.1C492.646 18.236 492.942 18.336 493.326 18.4L493.806 18.472C494.494 18.576 494.982 18.776 495.27 19.072C495.558 19.36 495.702 19.74 495.702 20.212C495.702 20.812 495.498 21.284 495.09 21.628C494.682 21.972 494.122 22.144 493.41 22.144Z" fill="black"/>
<path d="M19.468 22.144C18.788 22.144 18.208 22.016 17.728 21.76C17.248 21.496 16.84 21.136 16.504 20.68L17.248 20.056C17.544 20.448 17.872 20.748 18.232 20.956C18.592 21.156 19.016 21.256 19.504 21.256C20.104 21.256 20.56 21.112 20.872 20.824C21.192 20.536 21.352 20.152 21.352 19.672C21.352 19.272 21.232 18.964 20.992 18.748C20.752 18.532 20.356 18.36 19.804 18.232L19.12 18.076C18.352 17.9 17.764 17.636 17.356 17.284C16.956 16.924 16.756 16.42 16.756 15.772C16.756 15.404 16.824 15.076 16.96 14.788C17.096 14.5 17.284 14.26 17.524 14.068C17.772 13.876 18.064 13.732 18.4 13.636C18.744 13.532 19.12 13.48 19.528 13.48C20.16 13.48 20.7 13.596 21.148 13.828C21.604 14.06 21.988 14.4 22.3 14.848L21.544 15.4C21.312 15.08 21.032 14.828 20.704 14.644C20.376 14.46 19.968 14.368 19.48 14.368C18.944 14.368 18.52 14.484 18.208 14.716C17.904 14.94 17.752 15.28 17.752 15.736C17.752 16.136 17.88 16.44 18.136 16.648C18.4 16.848 18.796 17.008 19.324 17.128L20.008 17.284C20.832 17.468 21.428 17.748 21.796 18.124C22.164 18.5 22.348 19 22.348 19.624C22.348 20.008 22.28 20.356 22.144 20.668C22.016 20.98 21.828 21.244 21.58 21.46C21.332 21.676 21.028 21.844 20.668 21.964C20.316 22.084 19.916 22.144 19.468 22.144ZM25.6807 22C25.3447 22 25.0887 21.908 24.9127 21.724C24.7447 21.532 24.6607 21.284 24.6607 20.98V16.648H23.6407V15.808H24.2167C24.4247 15.808 24.5647 15.768 24.6367 15.688C24.7167 15.6 24.7567 15.452 24.7567 15.244V14.092H25.6207V15.808H26.9767V16.648H25.6207V21.16H26.8807V22H25.6807ZM33.3397 22C32.9797 22 32.7197 21.904 32.5597 21.712C32.4077 21.52 32.3117 21.28 32.2717 20.992H32.2117C32.0757 21.376 31.8517 21.664 31.5397 21.856C31.2277 22.048 30.8557 22.144 30.4237 22.144C29.7677 22.144 29.2557 21.976 28.8877 21.64C28.5277 21.304 28.3477 20.848 28.3477 20.272C28.3477 19.688 28.5597 19.24 28.9837 18.928C29.4157 18.616 30.0837 18.46 30.9877 18.46H32.2117V17.848C32.2117 17.408 32.0917 17.072 31.8517 16.84C31.6117 16.608 31.2437 16.492 30.7477 16.492C30.3717 16.492 30.0557 16.576 29.7997 16.744C29.5517 16.912 29.3437 17.136 29.1757 17.416L28.5997 16.876C28.7677 16.54 29.0357 16.256 29.4037 16.024C29.7717 15.784 30.2357 15.664 30.7957 15.664C31.5477 15.664 32.1317 15.848 32.5477 16.216C32.9637 16.584 33.1717 17.096 33.1717 17.752V21.16H33.8797V22H33.3397ZM30.5797 21.328C30.8197 21.328 31.0397 21.3 31.2397 21.244C31.4397 21.188 31.6117 21.108 31.7557 21.004C31.8997 20.9 32.0117 20.78 32.0917 20.644C32.1717 20.508 32.2117 20.36 32.2117 20.2V19.18H30.9397C30.3877 19.18 29.9837 19.26 29.7277 19.42C29.4797 19.58 29.3557 19.812 29.3557 20.116V20.368C29.3557 20.672 29.4637 20.908 29.6797 21.076C29.9037 21.244 30.2037 21.328 30.5797 21.328ZM35.5698 22V15.808H36.5298V16.948H36.5898C36.7018 16.652 36.9018 16.388 37.1898 16.156C37.4778 15.924 37.8738 15.808 38.3778 15.808H38.7498V16.768H38.1858C37.6658 16.768 37.2578 16.868 36.9618 17.068C36.6738 17.26 36.5298 17.504 36.5298 17.8V22H35.5698ZM41.711 22C41.375 22 41.119 21.908 40.943 21.724C40.775 21.532 40.691 21.284 40.691 20.98V16.648H39.671V15.808H40.247C40.455 15.808 40.595 15.768 40.667 15.688C40.747 15.6 40.787 15.452 40.787 15.244V14.092H41.651V15.808H43.007V16.648H41.651V21.16H42.911V22H41.711ZM45.35 14.356C45.142 14.356 44.99 14.308 44.894 14.212C44.806 14.108 44.762 13.976 44.762 13.816V13.66C44.762 13.5 44.806 13.372 44.894 13.276C44.99 13.172 45.142 13.12 45.35 13.12C45.558 13.12 45.706 13.172 45.794 13.276C45.89 13.372 45.938 13.5 45.938 13.66V13.816C45.938 13.976 45.89 14.108 45.794 14.212C45.706 14.308 45.558 14.356 45.35 14.356ZM44.87 15.808H45.83V22H44.87V15.808ZM48.19 22V15.808H49.15V16.816H49.198C49.35 16.464 49.562 16.184 49.834 15.976C50.114 15.768 50.486 15.664 50.95 15.664C51.59 15.664 52.094 15.872 52.462 16.288C52.838 16.696 53.026 17.276 53.026 18.028V22H52.066V18.196C52.066 17.084 51.598 16.528 50.662 16.528C50.47 16.528 50.282 16.552 50.098 16.6C49.922 16.648 49.762 16.72 49.618 16.816C49.474 16.912 49.358 17.036 49.27 17.188C49.19 17.332 49.15 17.504 49.15 17.704V22H48.19ZM60.5503 22.684C60.5503 23.324 60.2983 23.792 59.7943 24.088C59.2983 24.392 58.5503 24.544 57.5503 24.544C56.5823 24.544 55.8863 24.412 55.4623 24.148C55.0383 23.884 54.8263 23.508 54.8263 23.02C54.8263 22.684 54.9143 22.42 55.0903 22.228C55.2663 22.044 55.5063 21.908 55.8103 21.82V21.688C55.4423 21.512 55.2583 21.224 55.2583 20.824C55.2583 20.512 55.3583 20.276 55.5583 20.116C55.7583 19.948 56.0143 19.824 56.3263 19.744V19.696C55.9583 19.52 55.6703 19.268 55.4623 18.94C55.2623 18.612 55.1623 18.232 55.1623 17.8C55.1623 17.488 55.2183 17.2 55.3303 16.936C55.4423 16.672 55.5983 16.448 55.7983 16.264C56.0063 16.072 56.2503 15.924 56.5303 15.82C56.8183 15.716 57.1383 15.664 57.4903 15.664C57.9303 15.664 58.3223 15.744 58.6663 15.904V15.796C58.6663 15.556 58.7223 15.36 58.8343 15.208C58.9463 15.048 59.1303 14.968 59.3863 14.968H60.3103V15.808H59.1343V16.204C59.3583 16.396 59.5303 16.628 59.6503 16.9C59.7783 17.164 59.8423 17.464 59.8423 17.8C59.8423 18.112 59.7863 18.4 59.6743 18.664C59.5623 18.928 59.4023 19.156 59.1943 19.348C58.9943 19.532 58.7503 19.676 58.4623 19.78C58.1743 19.884 57.8543 19.936 57.5023 19.936C57.3023 19.936 57.1023 19.916 56.9023 19.876C56.6943 19.932 56.5063 20.016 56.3383 20.128C56.1703 20.232 56.0863 20.38 56.0863 20.572C56.0863 20.756 56.1743 20.88 56.3503 20.944C56.5263 21.008 56.7543 21.04 57.0343 21.04H58.3543C59.1223 21.04 59.6783 21.188 60.0223 21.484C60.3743 21.772 60.5503 22.172 60.5503 22.684ZM59.6503 22.756C59.6503 22.508 59.5543 22.308 59.3623 22.156C59.1783 22.012 58.8463 21.94 58.3663 21.94H56.3023C55.9183 22.116 55.7263 22.396 55.7263 22.78C55.7263 23.052 55.8263 23.284 56.0263 23.476C56.2343 23.668 56.5823 23.764 57.0703 23.764H57.9583C58.4943 23.764 58.9103 23.68 59.2063 23.512C59.5023 23.344 59.6503 23.092 59.6503 22.756ZM57.5023 19.168C57.9103 19.168 58.2343 19.072 58.4743 18.88C58.7143 18.68 58.8343 18.376 58.8343 17.968V17.632C58.8343 17.224 58.7143 16.924 58.4743 16.732C58.2343 16.532 57.9103 16.432 57.5023 16.432C57.0943 16.432 56.7703 16.532 56.5303 16.732C56.2903 16.924 56.1703 17.224 56.1703 17.632V17.968C56.1703 18.376 56.2903 18.68 56.5303 18.88C56.7703 19.072 57.0943 19.168 57.5023 19.168ZM69.6461 22C69.2861 22 69.0261 21.904 68.8661 21.712C68.7141 21.52 68.6181 21.28 68.5781 20.992H68.5181C68.3821 21.376 68.1581 21.664 67.8461 21.856C67.5341 22.048 67.1621 22.144 66.7301 22.144C66.0741 22.144 65.5621 21.976 65.1941 21.64C64.8341 21.304 64.6541 20.848 64.6541 20.272C64.6541 19.688 64.8661 19.24 65.2901 18.928C65.7221 18.616 66.3901 18.46 67.2941 18.46H68.5181V17.848C68.5181 17.408 68.3981 17.072 68.1581 16.84C67.9181 16.608 67.5501 16.492 67.0541 16.492C66.6781 16.492 66.3621 16.576 66.1061 16.744C65.8581 16.912 65.6501 17.136 65.4821 17.416L64.9061 16.876C65.0741 16.54 65.3421 16.256 65.7101 16.024C66.0781 15.784 66.5421 15.664 67.1021 15.664C67.8541 15.664 68.4381 15.848 68.8541 16.216C69.2701 16.584 69.4781 17.096 69.4781 17.752V21.16H70.1861V22H69.6461ZM66.8861 21.328C67.1261 21.328 67.3461 21.3 67.5461 21.244C67.7461 21.188 67.9181 21.108 68.0621 21.004C68.2061 20.9 68.3181 20.78 68.3981 20.644C68.4781 20.508 68.5181 20.36 68.5181 20.2V19.18H67.2461C66.6941 19.18 66.2901 19.26 66.0341 19.42C65.7861 19.58 65.6621 19.812 65.6621 20.116V20.368C65.6621 20.672 65.7701 20.908 65.9861 21.076C66.2101 21.244 66.5101 21.328 66.8861 21.328ZM71.8763 22V15.808H72.8363V16.816H72.8843C72.9563 16.656 73.0363 16.508 73.1243 16.372C73.2203 16.228 73.3323 16.104 73.4603 16C73.5963 15.896 73.7523 15.816 73.9283 15.76C74.1043 15.696 74.3123 15.664 74.5523 15.664C74.9603 15.664 75.3363 15.764 75.6803 15.964C76.0243 16.156 76.2803 16.476 76.4483 16.924H76.4723C76.5843 16.588 76.7923 16.296 77.0963 16.048C77.4083 15.792 77.8283 15.664 78.3563 15.664C78.9883 15.664 79.4803 15.872 79.8323 16.288C80.1923 16.696 80.3723 17.276 80.3723 18.028V22H79.4123V18.196C79.4123 17.644 79.3043 17.228 79.0883 16.948C78.8723 16.668 78.5283 16.528 78.0563 16.528C77.8643 16.528 77.6803 16.552 77.5043 16.6C77.3363 16.648 77.1843 16.72 77.0483 16.816C76.9123 16.912 76.8043 17.036 76.7243 17.188C76.6443 17.332 76.6043 17.504 76.6043 17.704V22H75.6443V18.196C75.6443 17.644 75.5363 17.228 75.3203 16.948C75.1043 16.668 74.7683 16.528 74.3123 16.528C74.1203 16.528 73.9363 16.552 73.7603 16.6C73.5843 16.648 73.4283 16.72 73.2923 16.816C73.1563 16.912 73.0443 17.036 72.9563 17.188C72.8763 17.332 72.8363 17.504 72.8363 17.704V22H71.8763ZM82.6728 15.808H83.6328V16.816H83.6808C83.8408 16.424 84.0728 16.136 84.3768 15.952C84.6888 15.76 85.0608 15.664 85.4928 15.664C85.8768 15.664 86.2248 15.74 86.5368 15.892C86.8488 16.044 87.1128 16.26 87.3288 16.54C87.5528 16.82 87.7208 17.16 87.8328 17.56C87.9528 17.96 88.0128 18.408 88.0128 18.904C88.0128 19.4 87.9528 19.848 87.8328 20.248C87.7208 20.648 87.5528 20.988 87.3288 21.268C87.1128 21.548 86.8488 21.764 86.5368 21.916C86.2248 22.068 85.8768 22.144 85.4928 22.144C84.6528 22.144 84.0488 21.76 83.6808 20.992H83.6328V24.4H82.6728V15.808ZM85.2288 21.28C85.7728 21.28 86.2008 21.112 86.5128 20.776C86.8248 20.432 86.9808 19.984 86.9808 19.432V18.376C86.9808 17.824 86.8248 17.38 86.5128 17.044C86.2008 16.7 85.7728 16.528 85.2288 16.528C85.0128 16.528 84.8048 16.56 84.6048 16.624C84.4128 16.68 84.2448 16.76 84.1008 16.864C83.9568 16.968 83.8408 17.096 83.7528 17.248C83.6728 17.392 83.6328 17.548 83.6328 17.716V20.02C83.6328 20.22 83.6728 20.4 83.7528 20.56C83.8408 20.712 83.9568 20.844 84.1008 20.956C84.2448 21.06 84.4128 21.14 84.6048 21.196C84.8048 21.252 85.0128 21.28 85.2288 21.28ZM90.9737 22C90.6377 22 90.3817 21.908 90.2057 21.724C90.0377 21.532 89.9537 21.292 89.9537 21.004V13.12H90.9137V21.16H91.8257V22H90.9737ZM94.0233 14.356C93.8153 14.356 93.6633 14.308 93.5673 14.212C93.4793 14.108 93.4353 13.976 93.4353 13.816V13.66C93.4353 13.5 93.4793 13.372 93.5673 13.276C93.6633 13.172 93.8153 13.12 94.0233 13.12C94.2313 13.12 94.3793 13.172 94.4673 13.276C94.5633 13.372 94.6113 13.5 94.6113 13.66V13.816C94.6113 13.976 94.5633 14.108 94.4673 14.212C94.3793 14.308 94.2313 14.356 94.0233 14.356ZM93.5433 15.808H94.5033V22H93.5433V15.808ZM98.2313 22C97.8953 22 97.6393 21.908 97.4633 21.724C97.2953 21.532 97.2113 21.284 97.2113 20.98V16.648H96.1913V15.808H96.7673C96.9753 15.808 97.1153 15.768 97.1873 15.688C97.2673 15.6 97.3073 15.452 97.3073 15.244V14.092H98.1713V15.808H99.5273V16.648H98.1713V21.16H99.4313V22H98.2313ZM105.206 20.992H105.158C105.094 21.136 105.014 21.28 104.918 21.424C104.83 21.56 104.718 21.684 104.582 21.796C104.446 21.9 104.282 21.984 104.09 22.048C103.898 22.112 103.674 22.144 103.418 22.144C102.778 22.144 102.27 21.94 101.894 21.532C101.518 21.116 101.33 20.532 101.33 19.78V15.808H102.29V19.612C102.29 20.724 102.762 21.28 103.706 21.28C103.898 21.28 104.082 21.256 104.258 21.208C104.442 21.16 104.602 21.088 104.738 20.992C104.882 20.896 104.994 20.776 105.074 20.632C105.162 20.48 105.206 20.3 105.206 20.092V15.808H106.166V22H105.206V20.992ZM112.491 20.992H112.443C112.067 21.76 111.463 22.144 110.631 22.144C110.247 22.144 109.899 22.068 109.587 21.916C109.275 21.764 109.007 21.548 108.783 21.268C108.567 20.988 108.399 20.648 108.279 20.248C108.167 19.848 108.111 19.4 108.111 18.904C108.111 18.408 108.167 17.96 108.279 17.56C108.399 17.16 108.567 16.82 108.783 16.54C109.007 16.26 109.275 16.044 109.587 15.892C109.899 15.74 110.247 15.664 110.631 15.664C111.063 15.664 111.431 15.76 111.735 15.952C112.047 16.136 112.283 16.424 112.443 16.816H112.491V13.12H113.451V22H112.491V20.992ZM110.895 21.28C111.111 21.28 111.315 21.252 111.507 21.196C111.707 21.14 111.879 21.06 112.023 20.956C112.167 20.844 112.279 20.712 112.359 20.56C112.447 20.4 112.491 20.22 112.491 20.02V17.716C112.491 17.548 112.447 17.392 112.359 17.248C112.279 17.096 112.167 16.968 112.023 16.864C111.879 16.76 111.707 16.68 111.507 16.624C111.315 16.56 111.111 16.528 110.895 16.528C110.351 16.528 109.923 16.7 109.611 17.044C109.299 17.38 109.143 17.824 109.143 18.376V19.432C109.143 19.984 109.299 20.432 109.611 20.776C109.923 21.112 110.351 21.28 110.895 21.28ZM118.14 22.144C117.716 22.144 117.332 22.068 116.988 21.916C116.652 21.764 116.36 21.548 116.112 21.268C115.872 20.98 115.684 20.64 115.548 20.248C115.42 19.848 115.356 19.4 115.356 18.904C115.356 18.416 115.42 17.972 115.548 17.572C115.684 17.172 115.872 16.832 116.112 16.552C116.36 16.264 116.652 16.044 116.988 15.892C117.332 15.74 117.716 15.664 118.14 15.664C118.556 15.664 118.928 15.74 119.256 15.892C119.584 16.044 119.864 16.256 120.096 16.528C120.328 16.792 120.504 17.108 120.624 17.476C120.752 17.844 120.816 18.248 120.816 18.688V19.144H116.364V19.432C116.364 19.696 116.404 19.944 116.484 20.176C116.572 20.4 116.692 20.596 116.844 20.764C117.004 20.932 117.196 21.064 117.42 21.16C117.652 21.256 117.912 21.304 118.2 21.304C118.592 21.304 118.932 21.212 119.22 21.028C119.516 20.844 119.744 20.58 119.904 20.236L120.588 20.728C120.388 21.152 120.076 21.496 119.652 21.76C119.228 22.016 118.724 22.144 118.14 22.144ZM118.14 16.468C117.876 16.468 117.636 16.516 117.42 16.612C117.204 16.7 117.016 16.828 116.856 16.996C116.704 17.164 116.584 17.364 116.496 17.596C116.408 17.82 116.364 18.068 116.364 18.34V18.424H119.784V18.292C119.784 17.74 119.632 17.3 119.328 16.972C119.032 16.636 118.636 16.468 118.14 16.468ZM124.578 22.144C124.002 22.144 123.518 22.036 123.126 21.82C122.742 21.596 122.41 21.3 122.13 20.932L122.814 20.38C123.054 20.684 123.322 20.92 123.618 21.088C123.914 21.248 124.258 21.328 124.65 21.328C125.058 21.328 125.374 21.24 125.598 21.064C125.83 20.888 125.946 20.64 125.946 20.32C125.946 20.08 125.866 19.876 125.706 19.708C125.554 19.532 125.274 19.412 124.866 19.348L124.374 19.276C124.086 19.236 123.822 19.176 123.582 19.096C123.342 19.008 123.13 18.896 122.946 18.76C122.77 18.616 122.63 18.44 122.526 18.232C122.43 18.024 122.382 17.776 122.382 17.488C122.382 17.184 122.438 16.92 122.55 16.696C122.662 16.464 122.814 16.272 123.006 16.12C123.206 15.968 123.442 15.856 123.714 15.784C123.986 15.704 124.278 15.664 124.59 15.664C125.094 15.664 125.514 15.752 125.85 15.928C126.194 16.104 126.494 16.348 126.75 16.66L126.114 17.236C125.978 17.044 125.778 16.872 125.514 16.72C125.25 16.56 124.918 16.48 124.518 16.48C124.118 16.48 123.814 16.568 123.606 16.744C123.406 16.912 123.306 17.144 123.306 17.44C123.306 17.744 123.406 17.964 123.606 18.1C123.814 18.236 124.11 18.336 124.494 18.4L124.974 18.472C125.662 18.576 126.15 18.776 126.438 19.072C126.726 19.36 126.87 19.74 126.87 20.212C126.87 20.812 126.666 21.284 126.258 21.628C125.85 21.972 125.29 22.144 124.578 22.144Z" fill="black"/>
<line x1="192.5" y1="1" x2="192.5" y2="337" stroke="#C1C7CD"/>
<line x1="384.5" y1="1" x2="384.5" y2="337" stroke="#C1C7CD"/>
<circle cx="36" cy="74" r="20" fill="#A56EFF"/>
<path d="M200.354 74.3536C200.549 74.1583 200.549 73.8417 200.354 73.6465L197.172 70.4645C196.976 70.2692 196.66 70.2692 196.464 70.4645C196.269 70.6597 196.269 70.9763 196.464 71.1716L199.293 74L196.464 76.8284C196.269 77.0237 196.269 77.3403 196.464 77.5355C196.66 77.7308 196.976 77.7308 197.172 77.5355L200.354 74.3536ZM80 74.5L200 74.5L200 73.5L80 73.5L80 74.5Z" fill="black"/>
<path d="M392.354 74.3536C392.549 74.1583 392.549 73.8417 392.354 73.6465L389.172 70.4645C388.976 70.2692 388.66 70.2692 388.464 70.4645C388.269 70.6597 388.269 70.9763 388.464 71.1716L391.293 74L388.464 76.8284C388.269 77.0237 388.269 77.3403 388.464 77.5355C388.66 77.7308 388.976 77.7308 389.172 77.5355L392.354 74.3536ZM272 74.5L392 74.5L392 73.5L272 73.5L272 74.5Z" fill="black"/>
<path d="M392.354 224.354C392.549 224.158 392.549 223.842 392.354 223.646L389.172 220.464C388.976 220.269 388.66 220.269 388.464 220.464C388.269 220.66 388.269 220.976 388.464 221.172L391.293 224L388.464 226.828C388.269 227.024 388.269 227.34 388.464 227.536C388.66 227.731 388.976 227.731 389.172 227.536L392.354 224.354ZM272 224.5L392 224.5L392 223.5L272 223.5L272 224.5Z" fill="black"/>
<path d="M200.354 224.354C200.549 224.158 200.549 223.842 200.354 223.646L197.172 220.464C196.976 220.269 196.66 220.269 196.464 220.464C196.269 220.66 196.269 220.976 196.464 221.172L199.293 224L196.464 226.828C196.269 227.024 196.269 227.34 196.464 227.536C196.66 227.731 196.976 227.731 197.172 227.536L200.354 224.354ZM140 224.5L200 224.5L200 223.5L140 223.5L140 224.5Z" fill="black"/>
<path d="M392.354 141.354C392.549 141.158 392.549 140.842 392.354 140.646L389.172 137.464C388.976 137.269 388.66 137.269 388.464 137.464C388.269 137.66 388.269 137.976 388.464 138.172L391.293 141L388.464 143.828C388.269 144.024 388.269 144.34 388.464 144.536C388.66 144.731 388.976 144.731 389.172 144.536L392.354 141.354ZM332 141.5L392 141.5L392 140.5L332 140.5L332 141.5Z" fill="black"/>
<path d="M392.354 291.354C392.549 291.158 392.549 290.842 392.354 290.646L389.172 287.464C388.976 287.269 388.66 287.269 388.464 287.464C388.269 287.66 388.269 287.976 388.464 288.172L391.293 291L388.464 293.828C388.269 294.024 388.269 294.34 388.464 294.536C388.66 294.731 388.976 294.731 389.172 294.536L392.354 291.354ZM332 291.5L392 291.5L392 290.5L332 290.5L332 291.5Z" fill="black"/>
<line x1="37" y1="74" x2="56" y2="74" stroke="white" stroke-width="2"/>
<line x1="235" y1="74" x2="252" y2="74" stroke="white" stroke-width="2"/>
<line x1="427" y1="74" x2="435" y2="74" stroke="white" stroke-width="2"/>
<line x1="427" y1="141" x2="435" y2="141" stroke="white" stroke-width="2"/>
<line x1="427" y1="224" x2="435" y2="224" stroke="white" stroke-width="2"/>
<line x1="419" y1="291" x2="427" y2="291" stroke="white" stroke-width="2"/>
<line x1="234" y1="225" x2="252" y2="225" stroke="white" stroke-width="2"/>
<path d="M141 224H128.746C125.985 224 123.746 221.761 123.746 219V79C123.746 76.2386 121.508 74 118.746 74H107" stroke="black"/>
<path d="M333 141H320.746C317.985 141 315.746 138.761 315.746 136V79C315.746 76.2386 313.508 74 310.746 74H299" stroke="black"/>
<path d="M333 291H320.746C317.985 291 315.746 288.761 315.746 286V229C315.746 226.239 313.508 224 310.746 224H299" stroke="black"/>
<rect x="462" y="278" width="117" height="71" rx="2" fill="#393939"/>
<path d="M459 289.5L462.75 285.603L462.75 293.397L459 289.5Z" fill="#393939"/>
<path d="M483.577 295L483.027 293.174H480.464L479.914 295H478.22L480.75 287.322H482.818L485.315 295H483.577ZM481.762 288.84H481.707L480.86 291.755H482.62L481.762 288.84ZM486.449 295V289.225H488.077V290.204H488.143C488.246 289.896 488.422 289.636 488.671 289.423C488.921 289.203 489.262 289.093 489.694 289.093C490.09 289.093 490.428 289.192 490.706 289.39C490.985 289.588 491.187 289.878 491.311 290.259H491.344C491.396 290.098 491.473 289.947 491.575 289.808C491.685 289.661 491.817 289.537 491.971 289.434C492.125 289.331 492.298 289.251 492.488 289.192C492.679 289.126 492.884 289.093 493.104 289.093C493.662 289.093 494.087 289.291 494.38 289.687C494.681 290.083 494.831 290.648 494.831 291.381V295H493.203V291.513C493.203 290.78 492.939 290.413 492.411 290.413C492.169 290.413 491.949 290.483 491.751 290.622C491.553 290.761 491.454 290.974 491.454 291.26V295H489.826V291.513C489.826 290.78 489.562 290.413 489.034 290.413C488.917 290.413 488.8 290.431 488.682 290.468C488.572 290.497 488.47 290.549 488.374 290.622C488.286 290.695 488.213 290.787 488.154 290.897C488.103 291 488.077 291.121 488.077 291.26V295H486.449ZM496.438 289.225H498.066V290.193H498.121C498.202 289.87 498.385 289.606 498.671 289.401C498.965 289.196 499.298 289.093 499.672 289.093C500.406 289.093 500.959 289.35 501.333 289.863C501.707 290.376 501.894 291.124 501.894 292.107C501.894 293.09 501.707 293.841 501.333 294.362C500.959 294.875 500.406 295.132 499.672 295.132C499.482 295.132 499.302 295.103 499.133 295.044C498.965 294.993 498.811 294.919 498.671 294.824C498.539 294.721 498.426 294.604 498.33 294.472C498.235 294.333 498.165 294.186 498.121 294.032H498.066V297.2H496.438V289.225ZM499.133 293.812C499.441 293.812 499.694 293.706 499.892 293.493C500.098 293.273 500.2 292.98 500.2 292.613V291.612C500.2 291.245 500.098 290.956 499.892 290.743C499.694 290.523 499.441 290.413 499.133 290.413C498.825 290.413 498.569 290.49 498.363 290.644C498.165 290.791 498.066 290.996 498.066 291.26V292.965C498.066 293.229 498.165 293.438 498.363 293.592C498.569 293.739 498.825 293.812 499.133 293.812ZM504.908 295C504.35 295 503.94 294.864 503.676 294.593C503.419 294.322 503.291 293.929 503.291 293.416V286.86H504.919V293.735H505.645V295H504.908ZM507.595 288.609C507.265 288.609 507.023 288.536 506.869 288.389C506.722 288.235 506.649 288.041 506.649 287.806V287.564C506.649 287.329 506.722 287.139 506.869 286.992C507.023 286.838 507.265 286.761 507.595 286.761C507.925 286.761 508.163 286.838 508.31 286.992C508.464 287.139 508.541 287.329 508.541 287.564V287.806C508.541 288.041 508.464 288.235 508.31 288.389C508.163 288.536 507.925 288.609 507.595 288.609ZM506.781 289.225H508.409V295H506.781V289.225ZM512.112 295C511.548 295 511.119 294.857 510.825 294.571C510.539 294.285 510.396 293.867 510.396 293.317V290.49H509.582V289.225H509.989C510.209 289.225 510.36 289.174 510.44 289.071C510.521 288.961 510.561 288.807 510.561 288.609V287.663H512.024V289.225H513.168V290.49H512.024V293.735H513.08V295H512.112ZM517.869 294.032H517.814C517.763 294.179 517.693 294.318 517.605 294.45C517.525 294.582 517.418 294.699 517.286 294.802C517.154 294.905 516.997 294.985 516.813 295.044C516.637 295.103 516.432 295.132 516.197 295.132C515.603 295.132 515.152 294.938 514.844 294.549C514.544 294.153 514.393 293.588 514.393 292.855V289.225H516.021V292.712C516.021 293.064 516.084 293.335 516.208 293.526C516.333 293.717 516.546 293.812 516.846 293.812C516.971 293.812 517.096 293.794 517.22 293.757C517.345 293.72 517.455 293.669 517.55 293.603C517.646 293.53 517.723 293.442 517.781 293.339C517.84 293.236 517.869 293.115 517.869 292.976V289.225H519.497V295H517.869V294.032ZM524.714 294.032H524.659C524.615 294.186 524.545 294.333 524.45 294.472C524.355 294.604 524.237 294.721 524.098 294.824C523.966 294.919 523.812 294.993 523.636 295.044C523.467 295.103 523.291 295.132 523.108 295.132C522.375 295.132 521.821 294.875 521.447 294.362C521.073 293.841 520.886 293.09 520.886 292.107C520.886 291.124 521.073 290.376 521.447 289.863C521.821 289.35 522.375 289.093 523.108 289.093C523.482 289.093 523.812 289.196 524.098 289.401C524.391 289.606 524.578 289.87 524.659 290.193H524.714V286.86H526.342V295H524.714V294.032ZM523.647 293.812C523.955 293.812 524.208 293.739 524.406 293.592C524.611 293.438 524.714 293.229 524.714 292.965V291.26C524.714 290.996 524.611 290.791 524.406 290.644C524.208 290.49 523.955 290.413 523.647 290.413C523.339 290.413 523.082 290.523 522.877 290.743C522.679 290.956 522.58 291.245 522.58 291.612V292.613C522.58 292.98 522.679 293.273 522.877 293.493C523.082 293.706 523.339 293.812 523.647 293.812ZM530.433 295.132C529.993 295.132 529.601 295.062 529.256 294.923C528.912 294.776 528.618 294.575 528.376 294.318C528.142 294.054 527.962 293.735 527.837 293.361C527.72 292.987 527.661 292.569 527.661 292.107C527.661 291.652 527.72 291.242 527.837 290.875C527.955 290.501 528.127 290.182 528.354 289.918C528.589 289.654 528.875 289.452 529.212 289.313C529.55 289.166 529.935 289.093 530.367 289.093C530.844 289.093 531.251 289.174 531.588 289.335C531.933 289.496 532.212 289.713 532.424 289.984C532.644 290.255 532.802 290.571 532.897 290.93C533 291.282 533.051 291.652 533.051 292.041V292.525H529.344V292.613C529.344 292.994 529.447 293.299 529.652 293.526C529.858 293.746 530.18 293.856 530.62 293.856C530.958 293.856 531.233 293.79 531.445 293.658C531.658 293.519 531.856 293.354 532.039 293.163L532.853 294.175C532.597 294.476 532.259 294.71 531.841 294.879C531.431 295.048 530.961 295.132 530.433 295.132ZM530.4 290.292C530.07 290.292 529.81 290.402 529.619 290.622C529.436 290.835 529.344 291.121 529.344 291.48V291.568H531.368V291.469C531.368 291.117 531.288 290.835 531.126 290.622C530.972 290.402 530.73 290.292 530.4 290.292ZM485.007 308.532H484.952L484.303 309.819L482.466 313.163L480.629 309.819L479.98 308.532H479.925V315H479.023V307.322H480.255L482.455 311.458H482.51L484.721 307.322H485.909V315H485.007V308.532ZM492.147 315C491.817 315 491.578 314.912 491.432 314.736C491.292 314.56 491.204 314.34 491.168 314.076H491.113C490.988 314.428 490.783 314.692 490.497 314.868C490.211 315.044 489.87 315.132 489.474 315.132C488.872 315.132 488.403 314.978 488.066 314.67C487.736 314.362 487.571 313.944 487.571 313.416C487.571 312.881 487.765 312.47 488.154 312.184C488.55 311.898 489.162 311.755 489.991 311.755H491.113V311.194C491.113 310.791 491.003 310.483 490.783 310.27C490.563 310.057 490.225 309.951 489.771 309.951C489.426 309.951 489.136 310.028 488.902 310.182C488.674 310.336 488.484 310.541 488.33 310.798L487.802 310.303C487.956 309.995 488.201 309.735 488.539 309.522C488.876 309.302 489.301 309.192 489.815 309.192C490.504 309.192 491.039 309.361 491.421 309.698C491.802 310.035 491.993 310.505 491.993 311.106V314.23H492.642V315H492.147ZM489.617 314.384C489.837 314.384 490.038 314.358 490.222 314.307C490.405 314.256 490.563 314.182 490.695 314.087C490.827 313.992 490.929 313.882 491.003 313.757C491.076 313.632 491.113 313.497 491.113 313.35V312.415H489.947C489.441 312.415 489.07 312.488 488.836 312.635C488.608 312.782 488.495 312.994 488.495 313.273V313.504C488.495 313.783 488.594 313.999 488.792 314.153C488.997 314.307 489.272 314.384 489.617 314.384ZM498.843 315.627C498.843 316.214 498.612 316.643 498.15 316.914C497.695 317.193 497.009 317.332 496.093 317.332C495.205 317.332 494.567 317.211 494.179 316.969C493.79 316.727 493.596 316.382 493.596 315.935C493.596 315.627 493.676 315.385 493.838 315.209C493.999 315.04 494.219 314.916 494.498 314.835V314.714C494.16 314.553 493.992 314.289 493.992 313.922C493.992 313.636 494.083 313.42 494.267 313.273C494.45 313.119 494.685 313.005 494.971 312.932V312.888C494.633 312.727 494.369 312.496 494.179 312.195C493.995 311.894 493.904 311.546 493.904 311.15C493.904 310.864 493.955 310.6 494.058 310.358C494.16 310.116 494.303 309.911 494.487 309.742C494.677 309.566 494.901 309.43 495.158 309.335C495.422 309.24 495.715 309.192 496.038 309.192C496.441 309.192 496.8 309.265 497.116 309.412V309.313C497.116 309.093 497.167 308.913 497.27 308.774C497.372 308.627 497.541 308.554 497.776 308.554H498.623V309.324H497.545V309.687C497.75 309.863 497.908 310.076 498.018 310.325C498.135 310.567 498.194 310.842 498.194 311.15C498.194 311.436 498.142 311.7 498.04 311.942C497.937 312.184 497.79 312.393 497.6 312.569C497.416 312.738 497.193 312.87 496.929 312.965C496.665 313.06 496.371 313.108 496.049 313.108C495.865 313.108 495.682 313.09 495.499 313.053C495.308 313.104 495.136 313.181 494.982 313.284C494.828 313.379 494.751 313.515 494.751 313.691C494.751 313.86 494.831 313.973 494.993 314.032C495.154 314.091 495.363 314.12 495.62 314.12H496.83C497.534 314.12 498.043 314.256 498.359 314.527C498.681 314.791 498.843 315.158 498.843 315.627ZM498.018 315.693C498.018 315.466 497.93 315.282 497.754 315.143C497.585 315.011 497.281 314.945 496.841 314.945H494.949C494.597 315.106 494.421 315.363 494.421 315.715C494.421 315.964 494.512 316.177 494.696 316.353C494.886 316.529 495.205 316.617 495.653 316.617H496.467C496.958 316.617 497.339 316.54 497.611 316.386C497.882 316.232 498.018 316.001 498.018 315.693ZM496.049 312.404C496.423 312.404 496.72 312.316 496.94 312.14C497.16 311.957 497.27 311.678 497.27 311.304V310.996C497.27 310.622 497.16 310.347 496.94 310.171C496.72 309.988 496.423 309.896 496.049 309.896C495.675 309.896 495.378 309.988 495.158 310.171C494.938 310.347 494.828 310.622 494.828 310.996V311.304C494.828 311.678 494.938 311.957 495.158 312.14C495.378 312.316 495.675 312.404 496.049 312.404ZM500.029 315V309.324H500.909V310.248H500.953C501.093 309.925 501.287 309.669 501.536 309.478C501.793 309.287 502.134 309.192 502.559 309.192C503.146 309.192 503.608 309.383 503.945 309.764C504.29 310.138 504.462 310.67 504.462 311.359V315H503.582V311.513C503.582 310.494 503.153 309.984 502.295 309.984C502.119 309.984 501.947 310.006 501.778 310.05C501.617 310.094 501.47 310.16 501.338 310.248C501.206 310.336 501.1 310.45 501.019 310.589C500.946 310.721 500.909 310.879 500.909 311.062V315H500.029ZM506.881 307.993C506.691 307.993 506.551 307.949 506.463 307.861C506.383 307.766 506.342 307.645 506.342 307.498V307.355C506.342 307.208 506.383 307.091 506.463 307.003C506.551 306.908 506.691 306.86 506.881 306.86C507.072 306.86 507.208 306.908 507.288 307.003C507.376 307.091 507.42 307.208 507.42 307.355V307.498C507.42 307.645 507.376 307.766 507.288 307.861C507.208 307.949 507.072 307.993 506.881 307.993ZM506.441 309.324H507.321V315H506.441V309.324ZM510.605 315C510.297 315 510.063 314.916 509.901 314.747C509.747 314.571 509.67 314.344 509.67 314.065V310.094H508.735V309.324H509.263C509.454 309.324 509.582 309.287 509.648 309.214C509.722 309.133 509.758 308.998 509.758 308.807V307.751H510.55V309.324H511.793V310.094H510.55V314.23H511.705V315H510.605ZM516.866 314.076H516.822C516.763 314.208 516.69 314.34 516.602 314.472C516.521 314.597 516.418 314.71 516.294 314.813C516.169 314.908 516.019 314.985 515.843 315.044C515.667 315.103 515.461 315.132 515.227 315.132C514.64 315.132 514.174 314.945 513.83 314.571C513.485 314.19 513.313 313.654 513.313 312.965V309.324H514.193V312.811C514.193 313.83 514.625 314.34 515.491 314.34C515.667 314.34 515.835 314.318 515.997 314.274C516.165 314.23 516.312 314.164 516.437 314.076C516.569 313.988 516.671 313.878 516.745 313.746C516.825 313.607 516.866 313.442 516.866 313.251V309.324H517.746V315H516.866V314.076ZM523.41 314.076H523.366C523.021 314.78 522.467 315.132 521.705 315.132C521.353 315.132 521.034 315.062 520.748 314.923C520.462 314.784 520.216 314.586 520.011 314.329C519.813 314.072 519.659 313.761 519.549 313.394C519.446 313.027 519.395 312.617 519.395 312.162C519.395 311.707 519.446 311.297 519.549 310.93C519.659 310.563 519.813 310.252 520.011 309.995C520.216 309.738 520.462 309.54 520.748 309.401C521.034 309.262 521.353 309.192 521.705 309.192C522.101 309.192 522.438 309.28 522.717 309.456C523.003 309.625 523.219 309.889 523.366 310.248H523.41V306.86H524.29V315H523.41V314.076ZM521.947 314.34C522.145 314.34 522.332 314.314 522.508 314.263C522.691 314.212 522.849 314.138 522.981 314.043C523.113 313.94 523.215 313.819 523.289 313.68C523.369 313.533 523.41 313.368 523.41 313.185V311.073C523.41 310.919 523.369 310.776 523.289 310.644C523.215 310.505 523.113 310.387 522.981 310.292C522.849 310.197 522.691 310.123 522.508 310.072C522.332 310.013 522.145 309.984 521.947 309.984C521.448 309.984 521.056 310.142 520.77 310.457C520.484 310.765 520.341 311.172 520.341 311.678V312.646C520.341 313.152 520.484 313.563 520.77 313.878C521.056 314.186 521.448 314.34 521.947 314.34ZM528.454 315.132C528.066 315.132 527.714 315.062 527.398 314.923C527.09 314.784 526.823 314.586 526.595 314.329C526.375 314.065 526.203 313.753 526.078 313.394C525.961 313.027 525.902 312.617 525.902 312.162C525.902 311.715 525.961 311.308 526.078 310.941C526.203 310.574 526.375 310.263 526.595 310.006C526.823 309.742 527.09 309.54 527.398 309.401C527.714 309.262 528.066 309.192 528.454 309.192C528.836 309.192 529.177 309.262 529.477 309.401C529.778 309.54 530.035 309.735 530.247 309.984C530.46 310.226 530.621 310.516 530.731 310.853C530.849 311.19 530.907 311.561 530.907 311.964V312.382H526.826V312.646C526.826 312.888 526.863 313.115 526.936 313.328C527.017 313.533 527.127 313.713 527.266 313.867C527.413 314.021 527.589 314.142 527.794 314.23C528.007 314.318 528.245 314.362 528.509 314.362C528.869 314.362 529.18 314.278 529.444 314.109C529.716 313.94 529.925 313.698 530.071 313.383L530.698 313.834C530.515 314.223 530.229 314.538 529.84 314.78C529.452 315.015 528.99 315.132 528.454 315.132ZM528.454 309.929C528.212 309.929 527.992 309.973 527.794 310.061C527.596 310.142 527.424 310.259 527.277 310.413C527.138 310.567 527.028 310.75 526.947 310.963C526.867 311.168 526.826 311.396 526.826 311.645V311.722H529.961V311.601C529.961 311.095 529.822 310.692 529.543 310.391C529.272 310.083 528.909 309.929 528.454 309.929ZM533.189 315.132C532.954 315.132 532.782 315.073 532.672 314.956C532.569 314.839 532.518 314.685 532.518 314.494V314.351C532.518 314.16 532.569 314.006 532.672 313.889C532.782 313.772 532.954 313.713 533.189 313.713C533.423 313.713 533.592 313.772 533.695 313.889C533.805 314.006 533.86 314.16 533.86 314.351V314.494C533.86 314.685 533.805 314.839 533.695 314.956C533.592 315.073 533.423 315.132 533.189 315.132ZM533.189 310.611C532.954 310.611 532.782 310.552 532.672 310.435C532.569 310.318 532.518 310.164 532.518 309.973V309.83C532.518 309.639 532.569 309.485 532.672 309.368C532.782 309.251 532.954 309.192 533.189 309.192C533.423 309.192 533.592 309.251 533.695 309.368C533.805 309.485 533.86 309.639 533.86 309.83V309.973C533.86 310.164 533.805 310.318 533.695 310.435C533.592 310.552 533.423 310.611 533.189 310.611ZM538.682 315V314.186H540.827V308.004H540.75L538.814 309.808L538.275 309.225L540.31 307.322H541.751V314.186H543.731V315H538.682ZM544.569 316.661L547.44 306.86H548.232L545.361 316.661H544.569ZM554.704 315H549.666V314.054L552.174 311.744C552.533 311.414 552.834 311.066 553.076 310.699C553.318 310.325 553.439 309.951 553.439 309.577V309.445C553.439 309.02 553.321 308.675 553.087 308.411C552.852 308.147 552.496 308.015 552.02 308.015C551.785 308.015 551.58 308.048 551.404 308.114C551.228 308.18 551.074 308.272 550.942 308.389C550.817 308.506 550.711 308.646 550.623 308.807C550.542 308.961 550.476 309.13 550.425 309.313L549.6 308.994C549.673 308.767 549.772 308.547 549.897 308.334C550.029 308.114 550.19 307.92 550.381 307.751C550.579 307.582 550.813 307.447 551.085 307.344C551.363 307.241 551.69 307.19 552.064 307.19C552.438 307.19 552.771 307.245 553.065 307.355C553.358 307.465 553.604 307.619 553.802 307.817C554 308.015 554.15 308.25 554.253 308.521C554.363 308.792 554.418 309.093 554.418 309.423C554.418 309.724 554.374 310.002 554.286 310.259C554.205 310.516 554.091 310.761 553.945 310.996C553.798 311.223 553.618 311.447 553.406 311.667C553.2 311.887 552.977 312.107 552.735 312.327L550.667 314.186H554.704V315ZM479.023 335V327.322H482.081C482.77 327.322 483.298 327.52 483.665 327.916C484.039 328.305 484.226 328.84 484.226 329.522C484.226 330.204 484.039 330.743 483.665 331.139C483.298 331.528 482.77 331.722 482.081 331.722H479.947V335H479.023ZM479.947 330.908H482.081C482.448 330.908 482.73 330.813 482.928 330.622C483.133 330.431 483.236 330.16 483.236 329.808V329.236C483.236 328.884 483.133 328.613 482.928 328.422C482.73 328.231 482.448 328.136 482.081 328.136H479.947V330.908ZM485.766 326.86H486.646V330.248H486.69C486.829 329.925 487.024 329.669 487.273 329.478C487.53 329.287 487.871 329.192 488.296 329.192C488.883 329.192 489.345 329.383 489.682 329.764C490.027 330.138 490.199 330.67 490.199 331.359V335H489.319V331.513C489.319 330.494 488.89 329.984 488.032 329.984C487.856 329.984 487.684 330.006 487.515 330.05C487.354 330.094 487.207 330.16 487.075 330.248C486.943 330.336 486.837 330.45 486.756 330.589C486.683 330.721 486.646 330.879 486.646 331.062V335H485.766V326.86ZM496.303 335C495.973 335 495.735 334.912 495.588 334.736C495.449 334.56 495.361 334.34 495.324 334.076H495.269C495.144 334.428 494.939 334.692 494.653 334.868C494.367 335.044 494.026 335.132 493.63 335.132C493.029 335.132 492.559 334.978 492.222 334.67C491.892 334.362 491.727 333.944 491.727 333.416C491.727 332.881 491.921 332.47 492.31 332.184C492.706 331.898 493.318 331.755 494.147 331.755H495.269V331.194C495.269 330.791 495.159 330.483 494.939 330.27C494.719 330.057 494.382 329.951 493.927 329.951C493.582 329.951 493.293 330.028 493.058 330.182C492.831 330.336 492.64 330.541 492.486 330.798L491.958 330.303C492.112 329.995 492.358 329.735 492.695 329.522C493.032 329.302 493.458 329.192 493.971 329.192C494.66 329.192 495.196 329.361 495.577 329.698C495.958 330.035 496.149 330.505 496.149 331.106V334.23H496.798V335H496.303ZM493.773 334.384C493.993 334.384 494.195 334.358 494.378 334.307C494.561 334.256 494.719 334.182 494.851 334.087C494.983 333.992 495.086 333.882 495.159 333.757C495.232 333.632 495.269 333.497 495.269 333.35V332.415H494.103C493.597 332.415 493.227 332.488 492.992 332.635C492.765 332.782 492.651 332.994 492.651 333.273V333.504C492.651 333.783 492.75 333.999 492.948 334.153C493.153 334.307 493.428 334.384 493.773 334.384ZM499.919 335.132C499.391 335.132 498.947 335.033 498.588 334.835C498.236 334.63 497.931 334.358 497.675 334.021L498.302 333.515C498.522 333.794 498.767 334.01 499.039 334.164C499.31 334.311 499.625 334.384 499.985 334.384C500.359 334.384 500.648 334.303 500.854 334.142C501.066 333.981 501.173 333.753 501.173 333.46C501.173 333.24 501.099 333.053 500.953 332.899C500.813 332.738 500.557 332.628 500.183 332.569L499.732 332.503C499.468 332.466 499.226 332.411 499.006 332.338C498.786 332.257 498.591 332.155 498.423 332.03C498.261 331.898 498.133 331.737 498.038 331.546C497.95 331.355 497.906 331.128 497.906 330.864C497.906 330.585 497.957 330.343 498.06 330.138C498.162 329.925 498.302 329.749 498.478 329.61C498.661 329.471 498.877 329.368 499.127 329.302C499.376 329.229 499.644 329.192 499.93 329.192C500.392 329.192 500.777 329.273 501.085 329.434C501.4 329.595 501.675 329.819 501.91 330.105L501.327 330.633C501.202 330.457 501.019 330.299 500.777 330.16C500.535 330.013 500.23 329.94 499.864 329.94C499.497 329.94 499.218 330.021 499.028 330.182C498.844 330.336 498.753 330.549 498.753 330.82C498.753 331.099 498.844 331.3 499.028 331.425C499.218 331.55 499.49 331.641 499.842 331.7L500.282 331.766C500.912 331.861 501.36 332.045 501.624 332.316C501.888 332.58 502.02 332.928 502.02 333.361C502.02 333.911 501.833 334.344 501.459 334.659C501.085 334.974 500.571 335.132 499.919 335.132ZM505.868 335.132C505.48 335.132 505.128 335.062 504.812 334.923C504.504 334.784 504.237 334.586 504.009 334.329C503.789 334.065 503.617 333.753 503.492 333.394C503.375 333.027 503.316 332.617 503.316 332.162C503.316 331.715 503.375 331.308 503.492 330.941C503.617 330.574 503.789 330.263 504.009 330.006C504.237 329.742 504.504 329.54 504.812 329.401C505.128 329.262 505.48 329.192 505.868 329.192C506.25 329.192 506.591 329.262 506.891 329.401C507.192 329.54 507.449 329.735 507.661 329.984C507.874 330.226 508.035 330.516 508.145 330.853C508.263 331.19 508.321 331.561 508.321 331.964V332.382H504.24V332.646C504.24 332.888 504.277 333.115 504.35 333.328C504.431 333.533 504.541 333.713 504.68 333.867C504.827 334.021 505.003 334.142 505.208 334.23C505.421 334.318 505.659 334.362 505.923 334.362C506.283 334.362 506.594 334.278 506.858 334.109C507.13 333.94 507.339 333.698 507.485 333.383L508.112 333.834C507.929 334.223 507.643 334.538 507.254 334.78C506.866 335.015 506.404 335.132 505.868 335.132ZM505.868 329.929C505.626 329.929 505.406 329.973 505.208 330.061C505.01 330.142 504.838 330.259 504.691 330.413C504.552 330.567 504.442 330.75 504.361 330.963C504.281 331.168 504.24 331.396 504.24 331.645V331.722H507.375V331.601C507.375 331.095 507.236 330.692 506.957 330.391C506.686 330.083 506.323 329.929 505.868 329.929ZM510.602 335.132C510.368 335.132 510.195 335.073 510.085 334.956C509.983 334.839 509.931 334.685 509.931 334.494V334.351C509.931 334.16 509.983 334.006 510.085 333.889C510.195 333.772 510.368 333.713 510.602 333.713C510.837 333.713 511.006 333.772 511.108 333.889C511.218 334.006 511.273 334.16 511.273 334.351V334.494C511.273 334.685 511.218 334.839 511.108 334.956C511.006 335.073 510.837 335.132 510.602 335.132ZM510.602 330.611C510.368 330.611 510.195 330.552 510.085 330.435C509.983 330.318 509.931 330.164 509.931 329.973V329.83C509.931 329.639 509.983 329.485 510.085 329.368C510.195 329.251 510.368 329.192 510.602 329.192C510.837 329.192 511.006 329.251 511.108 329.368C511.218 329.485 511.273 329.639 511.273 329.83V329.973C511.273 330.164 511.218 330.318 511.108 330.435C511.006 330.552 510.837 330.611 510.602 330.611ZM516.063 329.324H516.943V330.248H516.987C517.133 329.889 517.346 329.625 517.625 329.456C517.911 329.28 518.252 329.192 518.648 329.192C519 329.192 519.319 329.262 519.605 329.401C519.891 329.54 520.133 329.738 520.331 329.995C520.536 330.252 520.69 330.563 520.793 330.93C520.903 331.297 520.958 331.707 520.958 332.162C520.958 332.617 520.903 333.027 520.793 333.394C520.69 333.761 520.536 334.072 520.331 334.329C520.133 334.586 519.891 334.784 519.605 334.923C519.319 335.062 519 335.132 518.648 335.132C517.878 335.132 517.324 334.78 516.987 334.076H516.943V337.2H516.063V329.324ZM518.406 334.34C518.904 334.34 519.297 334.186 519.583 333.878C519.869 333.563 520.012 333.152 520.012 332.646V331.678C520.012 331.172 519.869 330.765 519.583 330.457C519.297 330.142 518.904 329.984 518.406 329.984C518.208 329.984 518.017 330.013 517.834 330.072C517.658 330.123 517.504 330.197 517.372 330.292C517.24 330.387 517.133 330.505 517.053 330.644C516.979 330.776 516.943 330.919 516.943 331.073V333.185C516.943 333.368 516.979 333.533 517.053 333.68C517.133 333.819 517.24 333.94 517.372 334.043C517.504 334.138 517.658 334.212 517.834 334.263C518.017 334.314 518.208 334.34 518.406 334.34ZM523.044 327.993C522.853 327.993 522.714 327.949 522.626 327.861C522.545 327.766 522.505 327.645 522.505 327.498V327.355C522.505 327.208 522.545 327.091 522.626 327.003C522.714 326.908 522.853 326.86 523.044 326.86C523.234 326.86 523.37 326.908 523.451 327.003C523.539 327.091 523.583 327.208 523.583 327.355V327.498C523.583 327.645 523.539 327.766 523.451 327.861C523.37 327.949 523.234 327.993 523.044 327.993ZM522.604 329.324H523.484V335H522.604V329.324Z" fill="white"/>
</svg>
