<svg width="179" height="170" viewBox="0 0 179 170" fill="none" xmlns="http://www.w3.org/2000/svg">
<path d="M0.984 16V7.624H6.372V9.028H2.568V11.056H5.88V12.46H2.568V16H0.984ZM8.58178 8.824C8.26178 8.824 8.02978 8.752 7.88578 8.608C7.74978 8.464 7.68178 8.28 7.68178 8.056V7.816C7.68178 7.592 7.74978 7.408 7.88578 7.264C8.02978 7.12 8.26178 7.048 8.58178 7.048C8.89378 7.048 9.12178 7.12 9.26578 7.264C9.40978 7.408 9.48178 7.592 9.48178 7.816V8.056C9.48178 8.28 9.40978 8.464 9.26578 8.608C9.12178 8.752 8.89378 8.824 8.58178 8.824ZM7.81378 9.736H9.34978V16H7.81378V9.736ZM11.1302 16V9.736H12.6662V10.78H12.7262C12.8542 10.444 13.0542 10.164 13.3262 9.94C13.6062 9.708 13.9902 9.592 14.4782 9.592C15.1262 9.592 15.6222 9.804 15.9662 10.228C16.3102 10.652 16.4822 11.256 16.4822 12.04V16H14.9462V12.196C14.9462 11.748 14.8662 11.412 14.7062 11.188C14.5462 10.964 14.2822 10.852 13.9142 10.852C13.7542 10.852 13.5982 10.876 13.4462 10.924C13.3022 10.964 13.1702 11.028 13.0502 11.116C12.9382 11.196 12.8462 11.3 12.7742 11.428C12.7022 11.548 12.6662 11.692 12.6662 11.86V16H11.1302ZM22.7929 16C22.4569 16 22.1889 15.904 21.9889 15.712C21.7969 15.512 21.6769 15.248 21.6289 14.92H21.5569C21.4529 15.328 21.2409 15.636 20.9209 15.844C20.6009 16.044 20.2049 16.144 19.7329 16.144C19.0929 16.144 18.6009 15.976 18.2569 15.64C17.9129 15.304 17.7409 14.856 17.7409 14.296C17.7409 13.648 17.9729 13.168 18.4369 12.856C18.9009 12.536 19.5609 12.376 20.4169 12.376H21.4849V11.92C21.4849 11.568 21.3929 11.296 21.2089 11.104C21.0249 10.912 20.7289 10.816 20.3209 10.816C19.9609 10.816 19.6689 10.896 19.4449 11.056C19.2289 11.208 19.0449 11.392 18.8929 11.608L17.9809 10.792C18.2129 10.432 18.5209 10.144 18.9049 9.928C19.2889 9.704 19.7969 9.592 20.4289 9.592C21.2769 9.592 21.9209 9.784 22.3609 10.168C22.8009 10.552 23.0209 11.104 23.0209 11.824V14.776H23.6449V16H22.7929ZM20.2489 15.028C20.5929 15.028 20.8849 14.952 21.1249 14.8C21.3649 14.648 21.4849 14.424 21.4849 14.128V13.3H20.5009C19.7009 13.3 19.3009 13.556 19.3009 14.068V14.272C19.3009 14.528 19.3809 14.72 19.5409 14.848C19.7089 14.968 19.9449 15.028 20.2489 15.028ZM26.424 16C25.896 16 25.508 15.868 25.26 15.604C25.012 15.34 24.888 14.968 24.888 14.488V7.12H26.424V14.776H27.252V16H26.424ZM35.8593 16C35.5233 16 35.2553 15.904 35.0553 15.712C34.8633 15.512 34.7433 15.248 34.6953 14.92H34.6233C34.5193 15.328 34.3073 15.636 33.9873 15.844C33.6673 16.044 33.2713 16.144 32.7993 16.144C32.1593 16.144 31.6673 15.976 31.3233 15.64C30.9793 15.304 30.8073 14.856 30.8073 14.296C30.8073 13.648 31.0393 13.168 31.5033 12.856C31.9673 12.536 32.6273 12.376 33.4833 12.376H34.5513V11.92C34.5513 11.568 34.4593 11.296 34.2753 11.104C34.0913 10.912 33.7953 10.816 33.3873 10.816C33.0273 10.816 32.7353 10.896 32.5113 11.056C32.2953 11.208 32.1113 11.392 31.9593 11.608L31.0473 10.792C31.2793 10.432 31.5873 10.144 31.9713 9.928C32.3553 9.704 32.8633 9.592 33.4953 9.592C34.3433 9.592 34.9873 9.784 35.4273 10.168C35.8673 10.552 36.0873 11.104 36.0873 11.824V14.776H36.7113V16H35.8593ZM33.3153 15.028C33.6593 15.028 33.9513 14.952 34.1913 14.8C34.4313 14.648 34.5513 14.424 34.5513 14.128V13.3H33.5673C32.7673 13.3 32.3673 13.556 32.3673 14.068V14.272C32.3673 14.528 32.4473 14.72 32.6073 14.848C32.7753 14.968 33.0113 15.028 33.3153 15.028ZM37.9544 16V9.736H39.4904V10.78H39.5504C39.6704 10.452 39.8624 10.172 40.1264 9.94C40.3904 9.708 40.7584 9.592 41.2304 9.592C41.6624 9.592 42.0344 9.696 42.3464 9.904C42.6584 10.112 42.8904 10.428 43.0424 10.852H43.0664C43.1784 10.5 43.3984 10.204 43.7264 9.964C44.0624 9.716 44.4824 9.592 44.9864 9.592C45.6024 9.592 46.0744 9.804 46.4024 10.228C46.7384 10.652 46.9064 11.256 46.9064 12.04V16H45.3704V12.196C45.3704 11.3 45.0344 10.852 44.3624 10.852C44.2104 10.852 44.0624 10.876 43.9184 10.924C43.7824 10.964 43.6584 11.028 43.5464 11.116C43.4424 11.196 43.3584 11.3 43.2944 11.428C43.2304 11.548 43.1984 11.692 43.1984 11.86V16H41.6624V12.196C41.6624 11.3 41.3264 10.852 40.6544 10.852C40.5104 10.852 40.3664 10.876 40.2224 10.924C40.0864 10.964 39.9624 11.028 39.8504 11.116C39.7464 11.196 39.6584 11.3 39.5864 11.428C39.5224 11.548 39.4904 11.692 39.4904 11.86V16H37.9544ZM48.6068 9.736H50.1428V10.768H50.1908C50.3028 10.408 50.5148 10.124 50.8268 9.916C51.1388 9.7 51.5028 9.592 51.9188 9.592C52.7188 9.592 53.3268 9.876 53.7428 10.444C54.1668 11.004 54.3788 11.808 54.3788 12.856C54.3788 13.912 54.1668 14.724 53.7428 15.292C53.3268 15.86 52.7188 16.144 51.9188 16.144C51.5028 16.144 51.1388 16.036 50.8268 15.82C50.5228 15.604 50.3108 15.316 50.1908 14.956H50.1428V18.4H48.6068V9.736ZM51.4268 14.872C51.8268 14.872 52.1508 14.74 52.3988 14.476C52.6468 14.212 52.7708 13.856 52.7708 13.408V12.328C52.7708 11.88 52.6468 11.524 52.3988 11.26C52.1508 10.988 51.8268 10.852 51.4268 10.852C51.0588 10.852 50.7508 10.944 50.5028 11.128C50.2628 11.312 50.1428 11.556 50.1428 11.86V13.852C50.1428 14.18 50.2628 14.432 50.5028 14.608C50.7508 14.784 51.0588 14.872 51.4268 14.872ZM57.3381 16C56.8101 16 56.4221 15.868 56.1741 15.604C55.9261 15.34 55.8021 14.968 55.8021 14.488V7.12H57.3381V14.776H58.1661V16H57.3381ZM60.0974 8.824C59.7774 8.824 59.5454 8.752 59.4014 8.608C59.2654 8.464 59.1974 8.28 59.1974 8.056V7.816C59.1974 7.592 59.2654 7.408 59.4014 7.264C59.5454 7.12 59.7774 7.048 60.0974 7.048C60.4094 7.048 60.6374 7.12 60.7814 7.264C60.9254 7.408 60.9974 7.592 60.9974 7.816V8.056C60.9974 8.28 60.9254 8.464 60.7814 8.608C60.6374 8.752 60.4094 8.824 60.0974 8.824ZM59.3294 9.736H60.8654V16H59.3294V9.736ZM64.6018 16C64.0738 16 63.6698 15.864 63.3898 15.592C63.1178 15.312 62.9818 14.916 62.9818 14.404V10.96H62.0578V9.736H62.5378C62.7698 9.736 62.9258 9.684 63.0058 9.58C63.0938 9.468 63.1378 9.304 63.1378 9.088V8.02H64.5178V9.736H65.8018V10.96H64.5178V14.776H65.7058V16H64.6018ZM70.8781 14.956H70.8181C70.7621 15.116 70.6861 15.268 70.5901 15.412C70.5021 15.548 70.3861 15.672 70.2421 15.784C70.1061 15.896 69.9381 15.984 69.7381 16.048C69.5461 16.112 69.3221 16.144 69.0661 16.144C68.4181 16.144 67.9221 15.932 67.5781 15.508C67.2341 15.084 67.0621 14.48 67.0621 13.696V9.736H68.5981V13.54C68.5981 13.972 68.6821 14.304 68.8501 14.536C69.0181 14.76 69.2861 14.872 69.6541 14.872C69.8061 14.872 69.9541 14.852 70.0981 14.812C70.2501 14.772 70.3821 14.712 70.4941 14.632C70.6061 14.544 70.6981 14.44 70.7701 14.32C70.8421 14.192 70.8781 14.044 70.8781 13.876V9.736H72.4141V16H70.8781V14.956ZM78.0768 14.956H78.0168C77.9048 15.316 77.6928 15.604 77.3808 15.82C77.0688 16.036 76.7048 16.144 76.2888 16.144C75.4968 16.144 74.8888 15.86 74.4648 15.292C74.0488 14.724 73.8408 13.912 73.8408 12.856C73.8408 11.808 74.0488 11.004 74.4648 10.444C74.8888 9.876 75.4968 9.592 76.2888 9.592C76.7048 9.592 77.0688 9.7 77.3808 9.916C77.6928 10.124 77.9048 10.408 78.0168 10.768H78.0768V7.12H79.6128V16H78.0768V14.956ZM76.7808 14.872C77.1488 14.872 77.4568 14.784 77.7048 14.608C77.9528 14.432 78.0768 14.18 78.0768 13.852V11.86C78.0768 11.556 77.9528 11.312 77.7048 11.128C77.4568 10.944 77.1488 10.852 76.7808 10.852C76.3808 10.852 76.0568 10.988 75.8088 11.26C75.5688 11.524 75.4488 11.88 75.4488 12.328V13.408C75.4488 13.856 75.5688 14.212 75.8088 14.476C76.0568 14.74 76.3808 14.872 76.7808 14.872ZM83.9161 16.144C83.4521 16.144 83.0361 16.068 82.6681 15.916C82.3081 15.756 82.0001 15.536 81.7441 15.256C81.4961 14.968 81.3041 14.624 81.1681 14.224C81.0321 13.816 80.9641 13.36 80.9641 12.856C80.9641 12.36 81.0281 11.912 81.1561 11.512C81.2921 11.112 81.4841 10.772 81.7321 10.492C81.9801 10.204 82.2841 9.984 82.6441 9.832C83.0041 9.672 83.4121 9.592 83.8681 9.592C84.3561 9.592 84.7801 9.676 85.1401 9.844C85.5001 10.012 85.7961 10.24 86.0281 10.528C86.2601 10.816 86.4321 11.152 86.5441 11.536C86.6641 11.912 86.7241 12.316 86.7241 12.748V13.252H82.5601V13.408C82.5601 13.864 82.6881 14.232 82.9441 14.512C83.2001 14.784 83.5801 14.92 84.0841 14.92C84.4681 14.92 84.7801 14.84 85.0201 14.68C85.2681 14.52 85.4881 14.316 85.6801 14.068L86.5081 14.992C86.2521 15.352 85.9001 15.636 85.4521 15.844C85.0121 16.044 84.5001 16.144 83.9161 16.144ZM83.8921 10.744C83.4841 10.744 83.1601 10.88 82.9201 11.152C82.6801 11.424 82.5601 11.776 82.5601 12.208V12.304H85.1281V12.196C85.1281 11.764 85.0201 11.416 84.8041 11.152C84.5961 10.88 84.2921 10.744 83.8921 10.744ZM93.3954 16.144C92.9474 16.144 92.5434 16.068 92.1834 15.916C91.8314 15.764 91.5274 15.544 91.2714 15.256C91.0234 14.968 90.8314 14.624 90.6954 14.224C90.5594 13.816 90.4914 13.36 90.4914 12.856C90.4914 12.352 90.5594 11.9 90.6954 11.5C90.8314 11.1 91.0234 10.76 91.2714 10.48C91.5274 10.192 91.8314 9.972 92.1834 9.82C92.5434 9.668 92.9474 9.592 93.3954 9.592C93.8434 9.592 94.2474 9.668 94.6074 9.82C94.9674 9.972 95.2714 10.192 95.5194 10.48C95.7754 10.76 95.9714 11.1 96.1074 11.5C96.2434 11.9 96.3114 12.352 96.3114 12.856C96.3114 13.36 96.2434 13.816 96.1074 14.224C95.9714 14.624 95.7754 14.968 95.5194 15.256C95.2714 15.544 94.9674 15.764 94.6074 15.916C94.2474 16.068 93.8434 16.144 93.3954 16.144ZM93.3954 14.908C93.8034 14.908 94.1234 14.784 94.3554 14.536C94.5874 14.288 94.7034 13.924 94.7034 13.444V12.28C94.7034 11.808 94.5874 11.448 94.3554 11.2C94.1234 10.952 93.8034 10.828 93.3954 10.828C92.9954 10.828 92.6794 10.952 92.4474 11.2C92.2154 11.448 92.0994 11.808 92.0994 12.28V13.444C92.0994 13.924 92.2154 14.288 92.4474 14.536C92.6794 14.784 92.9954 14.908 93.3954 14.908ZM97.9148 10.948H96.9908V9.736H97.9148V8.836C97.9148 8.284 98.0588 7.86 98.3468 7.564C98.6428 7.268 99.0748 7.12 99.6428 7.12H100.735V8.344H99.4508V9.736H100.735V10.948H99.4508V16H97.9148V10.948ZM105.354 17.656V6.88H106.65V17.656H105.354ZM111.858 16.144C111.322 16.144 110.858 16.048 110.466 15.856C110.074 15.656 109.75 15.372 109.494 15.004C109.238 14.636 109.046 14.184 108.918 13.648C108.798 13.112 108.738 12.5 108.738 11.812C108.738 11.132 108.798 10.524 108.918 9.988C109.046 9.444 109.238 8.988 109.494 8.62C109.75 8.252 110.074 7.972 110.466 7.78C110.858 7.58 111.322 7.48 111.858 7.48C112.922 7.48 113.706 7.86 114.21 8.62C114.722 9.38 114.978 10.444 114.978 11.812C114.978 13.18 114.722 14.244 114.21 15.004C113.706 15.764 112.922 16.144 111.858 16.144ZM111.858 14.812C112.394 14.812 112.766 14.612 112.974 14.212C113.19 13.804 113.298 13.256 113.298 12.568V11.056C113.298 10.368 113.19 9.824 112.974 9.424C112.766 9.016 112.394 8.812 111.858 8.812C111.322 8.812 110.946 9.016 110.73 9.424C110.522 9.824 110.418 10.368 110.418 11.056V12.568C110.418 13.256 110.522 13.804 110.73 14.212C110.946 14.612 111.322 14.812 111.858 14.812ZM116.641 14.488L119.881 12.508V12.424L116.641 10.444V8.884L121.465 11.956V12.964L116.641 16.06V14.488Z" fill="black"/>
<path d="M0.984 114V105.624H6.372V107.028H2.568V109.056H5.88V110.46H2.568V114H0.984ZM8.58178 106.824C8.26178 106.824 8.02978 106.752 7.88578 106.608C7.74978 106.464 7.68178 106.28 7.68178 106.056V105.816C7.68178 105.592 7.74978 105.408 7.88578 105.264C8.02978 105.12 8.26178 105.048 8.58178 105.048C8.89378 105.048 9.12178 105.12 9.26578 105.264C9.40978 105.408 9.48178 105.592 9.48178 105.816V106.056C9.48178 106.28 9.40978 106.464 9.26578 106.608C9.12178 106.752 8.89378 106.824 8.58178 106.824ZM7.81378 107.736H9.34978V114H7.81378V107.736ZM11.1302 114V107.736H12.6662V108.78H12.7262C12.8542 108.444 13.0542 108.164 13.3262 107.94C13.6062 107.708 13.9902 107.592 14.4782 107.592C15.1262 107.592 15.6222 107.804 15.9662 108.228C16.3102 108.652 16.4822 109.256 16.4822 110.04V114H14.9462V110.196C14.9462 109.748 14.8662 109.412 14.7062 109.188C14.5462 108.964 14.2822 108.852 13.9142 108.852C13.7542 108.852 13.5982 108.876 13.4462 108.924C13.3022 108.964 13.1702 109.028 13.0502 109.116C12.9382 109.196 12.8462 109.3 12.7742 109.428C12.7022 109.548 12.6662 109.692 12.6662 109.86V114H11.1302ZM22.7929 114C22.4569 114 22.1889 113.904 21.9889 113.712C21.7969 113.512 21.6769 113.248 21.6289 112.92H21.5569C21.4529 113.328 21.2409 113.636 20.9209 113.844C20.6009 114.044 20.2049 114.144 19.7329 114.144C19.0929 114.144 18.6009 113.976 18.2569 113.64C17.9129 113.304 17.7409 112.856 17.7409 112.296C17.7409 111.648 17.9729 111.168 18.4369 110.856C18.9009 110.536 19.5609 110.376 20.4169 110.376H21.4849V109.92C21.4849 109.568 21.3929 109.296 21.2089 109.104C21.0249 108.912 20.7289 108.816 20.3209 108.816C19.9609 108.816 19.6689 108.896 19.4449 109.056C19.2289 109.208 19.0449 109.392 18.8929 109.608L17.9809 108.792C18.2129 108.432 18.5209 108.144 18.9049 107.928C19.2889 107.704 19.7969 107.592 20.4289 107.592C21.2769 107.592 21.9209 107.784 22.3609 108.168C22.8009 108.552 23.0209 109.104 23.0209 109.824V112.776H23.6449V114H22.7929ZM20.2489 113.028C20.5929 113.028 20.8849 112.952 21.1249 112.8C21.3649 112.648 21.4849 112.424 21.4849 112.128V111.3H20.5009C19.7009 111.3 19.3009 111.556 19.3009 112.068V112.272C19.3009 112.528 19.3809 112.72 19.5409 112.848C19.7089 112.968 19.9449 113.028 20.2489 113.028ZM26.424 114C25.896 114 25.508 113.868 25.26 113.604C25.012 113.34 24.888 112.968 24.888 112.488V105.12H26.424V112.776H27.252V114H26.424ZM35.8593 114C35.5233 114 35.2553 113.904 35.0553 113.712C34.8633 113.512 34.7433 113.248 34.6953 112.92H34.6233C34.5193 113.328 34.3073 113.636 33.9873 113.844C33.6673 114.044 33.2713 114.144 32.7993 114.144C32.1593 114.144 31.6673 113.976 31.3233 113.64C30.9793 113.304 30.8073 112.856 30.8073 112.296C30.8073 111.648 31.0393 111.168 31.5033 110.856C31.9673 110.536 32.6273 110.376 33.4833 110.376H34.5513V109.92C34.5513 109.568 34.4593 109.296 34.2753 109.104C34.0913 108.912 33.7953 108.816 33.3873 108.816C33.0273 108.816 32.7353 108.896 32.5113 109.056C32.2953 109.208 32.1113 109.392 31.9593 109.608L31.0473 108.792C31.2793 108.432 31.5873 108.144 31.9713 107.928C32.3553 107.704 32.8633 107.592 33.4953 107.592C34.3433 107.592 34.9873 107.784 35.4273 108.168C35.8673 108.552 36.0873 109.104 36.0873 109.824V112.776H36.7113V114H35.8593ZM33.3153 113.028C33.6593 113.028 33.9513 112.952 34.1913 112.8C34.4313 112.648 34.5513 112.424 34.5513 112.128V111.3H33.5673C32.7673 111.3 32.3673 111.556 32.3673 112.068V112.272C32.3673 112.528 32.4473 112.72 32.6073 112.848C32.7753 112.968 33.0113 113.028 33.3153 113.028ZM37.9544 114V107.736H39.4904V108.78H39.5504C39.6704 108.452 39.8624 108.172 40.1264 107.94C40.3904 107.708 40.7584 107.592 41.2304 107.592C41.6624 107.592 42.0344 107.696 42.3464 107.904C42.6584 108.112 42.8904 108.428 43.0424 108.852H43.0664C43.1784 108.5 43.3984 108.204 43.7264 107.964C44.0624 107.716 44.4824 107.592 44.9864 107.592C45.6024 107.592 46.0744 107.804 46.4024 108.228C46.7384 108.652 46.9064 109.256 46.9064 110.04V114H45.3704V110.196C45.3704 109.3 45.0344 108.852 44.3624 108.852C44.2104 108.852 44.0624 108.876 43.9184 108.924C43.7824 108.964 43.6584 109.028 43.5464 109.116C43.4424 109.196 43.3584 109.3 43.2944 109.428C43.2304 109.548 43.1984 109.692 43.1984 109.86V114H41.6624V110.196C41.6624 109.3 41.3264 108.852 40.6544 108.852C40.5104 108.852 40.3664 108.876 40.2224 108.924C40.0864 108.964 39.9624 109.028 39.8504 109.116C39.7464 109.196 39.6584 109.3 39.5864 109.428C39.5224 109.548 39.4904 109.692 39.4904 109.86V114H37.9544ZM48.6068 107.736H50.1428V108.768H50.1908C50.3028 108.408 50.5148 108.124 50.8268 107.916C51.1388 107.7 51.5028 107.592 51.9188 107.592C52.7188 107.592 53.3268 107.876 53.7428 108.444C54.1668 109.004 54.3788 109.808 54.3788 110.856C54.3788 111.912 54.1668 112.724 53.7428 113.292C53.3268 113.86 52.7188 114.144 51.9188 114.144C51.5028 114.144 51.1388 114.036 50.8268 113.82C50.5228 113.604 50.3108 113.316 50.1908 112.956H50.1428V116.4H48.6068V107.736ZM51.4268 112.872C51.8268 112.872 52.1508 112.74 52.3988 112.476C52.6468 112.212 52.7708 111.856 52.7708 111.408V110.328C52.7708 109.88 52.6468 109.524 52.3988 109.26C52.1508 108.988 51.8268 108.852 51.4268 108.852C51.0588 108.852 50.7508 108.944 50.5028 109.128C50.2628 109.312 50.1428 109.556 50.1428 109.86V111.852C50.1428 112.18 50.2628 112.432 50.5028 112.608C50.7508 112.784 51.0588 112.872 51.4268 112.872ZM57.3381 114C56.8101 114 56.4221 113.868 56.1741 113.604C55.9261 113.34 55.8021 112.968 55.8021 112.488V105.12H57.3381V112.776H58.1661V114H57.3381ZM60.0974 106.824C59.7774 106.824 59.5454 106.752 59.4014 106.608C59.2654 106.464 59.1974 106.28 59.1974 106.056V105.816C59.1974 105.592 59.2654 105.408 59.4014 105.264C59.5454 105.12 59.7774 105.048 60.0974 105.048C60.4094 105.048 60.6374 105.12 60.7814 105.264C60.9254 105.408 60.9974 105.592 60.9974 105.816V106.056C60.9974 106.28 60.9254 106.464 60.7814 106.608C60.6374 106.752 60.4094 106.824 60.0974 106.824ZM59.3294 107.736H60.8654V114H59.3294V107.736ZM64.6018 114C64.0738 114 63.6698 113.864 63.3898 113.592C63.1178 113.312 62.9818 112.916 62.9818 112.404V108.96H62.0578V107.736H62.5378C62.7698 107.736 62.9258 107.684 63.0058 107.58C63.0938 107.468 63.1378 107.304 63.1378 107.088V106.02H64.5178V107.736H65.8018V108.96H64.5178V112.776H65.7058V114H64.6018ZM70.8781 112.956H70.8181C70.7621 113.116 70.6861 113.268 70.5901 113.412C70.5021 113.548 70.3861 113.672 70.2421 113.784C70.1061 113.896 69.9381 113.984 69.7381 114.048C69.5461 114.112 69.3221 114.144 69.0661 114.144C68.4181 114.144 67.9221 113.932 67.5781 113.508C67.2341 113.084 67.0621 112.48 67.0621 111.696V107.736H68.5981V111.54C68.5981 111.972 68.6821 112.304 68.8501 112.536C69.0181 112.76 69.2861 112.872 69.6541 112.872C69.8061 112.872 69.9541 112.852 70.0981 112.812C70.2501 112.772 70.3821 112.712 70.4941 112.632C70.6061 112.544 70.6981 112.44 70.7701 112.32C70.8421 112.192 70.8781 112.044 70.8781 111.876V107.736H72.4141V114H70.8781V112.956ZM78.0768 112.956H78.0168C77.9048 113.316 77.6928 113.604 77.3808 113.82C77.0688 114.036 76.7048 114.144 76.2888 114.144C75.4968 114.144 74.8888 113.86 74.4648 113.292C74.0488 112.724 73.8408 111.912 73.8408 110.856C73.8408 109.808 74.0488 109.004 74.4648 108.444C74.8888 107.876 75.4968 107.592 76.2888 107.592C76.7048 107.592 77.0688 107.7 77.3808 107.916C77.6928 108.124 77.9048 108.408 78.0168 108.768H78.0768V105.12H79.6128V114H78.0768V112.956ZM76.7808 112.872C77.1488 112.872 77.4568 112.784 77.7048 112.608C77.9528 112.432 78.0768 112.18 78.0768 111.852V109.86C78.0768 109.556 77.9528 109.312 77.7048 109.128C77.4568 108.944 77.1488 108.852 76.7808 108.852C76.3808 108.852 76.0568 108.988 75.8088 109.26C75.5688 109.524 75.4488 109.88 75.4488 110.328V111.408C75.4488 111.856 75.5688 112.212 75.8088 112.476C76.0568 112.74 76.3808 112.872 76.7808 112.872ZM83.9161 114.144C83.4521 114.144 83.0361 114.068 82.6681 113.916C82.3081 113.756 82.0001 113.536 81.7441 113.256C81.4961 112.968 81.3041 112.624 81.1681 112.224C81.0321 111.816 80.9641 111.36 80.9641 110.856C80.9641 110.36 81.0281 109.912 81.1561 109.512C81.2921 109.112 81.4841 108.772 81.7321 108.492C81.9801 108.204 82.2841 107.984 82.6441 107.832C83.0041 107.672 83.4121 107.592 83.8681 107.592C84.3561 107.592 84.7801 107.676 85.1401 107.844C85.5001 108.012 85.7961 108.24 86.0281 108.528C86.2601 108.816 86.4321 109.152 86.5441 109.536C86.6641 109.912 86.7241 110.316 86.7241 110.748V111.252H82.5601V111.408C82.5601 111.864 82.6881 112.232 82.9441 112.512C83.2001 112.784 83.5801 112.92 84.0841 112.92C84.4681 112.92 84.7801 112.84 85.0201 112.68C85.2681 112.52 85.4881 112.316 85.6801 112.068L86.5081 112.992C86.2521 113.352 85.9001 113.636 85.4521 113.844C85.0121 114.044 84.5001 114.144 83.9161 114.144ZM83.8921 108.744C83.4841 108.744 83.1601 108.88 82.9201 109.152C82.6801 109.424 82.5601 109.776 82.5601 110.208V110.304H85.1281V110.196C85.1281 109.764 85.0201 109.416 84.8041 109.152C84.5961 108.88 84.2921 108.744 83.8921 108.744ZM93.3954 114.144C92.9474 114.144 92.5434 114.068 92.1834 113.916C91.8314 113.764 91.5274 113.544 91.2714 113.256C91.0234 112.968 90.8314 112.624 90.6954 112.224C90.5594 111.816 90.4914 111.36 90.4914 110.856C90.4914 110.352 90.5594 109.9 90.6954 109.5C90.8314 109.1 91.0234 108.76 91.2714 108.48C91.5274 108.192 91.8314 107.972 92.1834 107.82C92.5434 107.668 92.9474 107.592 93.3954 107.592C93.8434 107.592 94.2474 107.668 94.6074 107.82C94.9674 107.972 95.2714 108.192 95.5194 108.48C95.7754 108.76 95.9714 109.1 96.1074 109.5C96.2434 109.9 96.3114 110.352 96.3114 110.856C96.3114 111.36 96.2434 111.816 96.1074 112.224C95.9714 112.624 95.7754 112.968 95.5194 113.256C95.2714 113.544 94.9674 113.764 94.6074 113.916C94.2474 114.068 93.8434 114.144 93.3954 114.144ZM93.3954 112.908C93.8034 112.908 94.1234 112.784 94.3554 112.536C94.5874 112.288 94.7034 111.924 94.7034 111.444V110.28C94.7034 109.808 94.5874 109.448 94.3554 109.2C94.1234 108.952 93.8034 108.828 93.3954 108.828C92.9954 108.828 92.6794 108.952 92.4474 109.2C92.2154 109.448 92.0994 109.808 92.0994 110.28V111.444C92.0994 111.924 92.2154 112.288 92.4474 112.536C92.6794 112.784 92.9954 112.908 93.3954 112.908ZM97.9148 108.948H96.9908V107.736H97.9148V106.836C97.9148 106.284 98.0588 105.86 98.3468 105.564C98.6428 105.268 99.0748 105.12 99.6428 105.12H100.735V106.344H99.4508V107.736H100.735V108.948H99.4508V114H97.9148V108.948ZM105.354 115.656V104.88H106.65V115.656H105.354ZM109.35 114V112.716H111.654V106.764H111.546L109.722 108.924L108.738 108.096L110.814 105.624H113.202V112.716H115.122V114H109.35ZM116.641 112.488L119.881 110.508V110.424L116.641 108.444V106.884L121.465 109.956V110.964L116.641 114.06V112.488Z" fill="black"/>
<circle cx="20" cy="48" r="20" fill="#DDE1E6"/>
<circle cx="20" cy="48" r="8" fill="#A56EFF"/>
<line x1="20" y1="48" x2="28" y2="48" stroke="white" stroke-width="2"/>
<circle cx="85" cy="48" r="20" fill="#DDE1E6"/>
<circle cx="85" cy="48" r="8" fill="#A56EFF"/>
<line x1="85" y1="48" x2="93" y2="48" stroke="white" stroke-width="2"/>
<circle cx="159" cy="48" r="20" fill="#A56EFF"/>
<line x1="160" y1="48" x2="179" y2="48" stroke="white" stroke-width="2"/>
<path d="M51.392 51.866V48.428H48.206V46.574H51.392V43.118H53.408V46.574H56.594V48.428H53.408V51.866H51.392Z" fill="black"/>
<path d="M118.206 47.43V45.576H126.594V47.43H118.206ZM118.206 51.444V49.572H126.594V51.444H118.206Z" fill="black"/>
<circle cx="20" cy="150" r="20" fill="#DDE1E6"/>
<circle cx="20" cy="150" r="8" fill="#A56EFF"/>
<line x1="20" y1="150" x2="28" y2="150" stroke="white" stroke-width="2"/>
<circle cx="85" cy="150" r="20" fill="#DDE1E6"/>
<circle cx="85" cy="150" r="8" fill="#A56EFF"/>
<line x1="77" y1="150" x2="85" y2="150" stroke="white" stroke-width="2"/>
<circle cx="159" cy="150" r="20" fill="#DDE1E6"/>
<path d="M51.392 153.866V150.428H48.206V148.574H51.392V145.118H53.408V148.574H56.594V150.428H53.408V153.866H51.392Z" fill="black"/>
<path d="M118.206 149.43V147.576H126.594V149.43H118.206ZM118.206 153.444V151.572H126.594V153.444H118.206Z" fill="black"/>
</svg>
