<svg width="690" height="339" viewBox="0 0 690 339" fill="none" xmlns="http://www.w3.org/2000/svg">
<line x1="689.5" y1="2" x2="689.5" y2="338" stroke="#C1C7CD"/>
<line x1="359.5" y1="1" x2="359.5" y2="337" stroke="#C1C7CD"/>
<line x1="331.5" y1="3" x2="331.5" y2="339" stroke="#C1C7CD"/>
<line x1="1.5" y1="2" x2="1.5" y2="338" stroke="#C1C7CD"/>
<rect x="1" y="2" width="330" height="337" fill="white"/>
<path d="M29.18 112.656V101.88H30.02V112.656H29.18ZM37.1153 111.144C36.6033 111.144 36.1633 111.048 35.7953 110.856C35.4273 110.656 35.1233 110.372 34.8833 110.004C34.6433 109.636 34.4673 109.184 34.3553 108.648C34.2433 108.112 34.1873 107.5 34.1873 106.812C34.1873 106.132 34.2433 105.524 34.3553 104.988C34.4673 104.444 34.6433 103.988 34.8833 103.62C35.1233 103.252 35.4273 102.972 35.7953 102.78C36.1633 102.58 36.6033 102.48 37.1153 102.48C37.6273 102.48 38.0673 102.58 38.4353 102.78C38.8033 102.972 39.1073 103.252 39.3473 103.62C39.5873 103.988 39.7633 104.444 39.8753 104.988C39.9873 105.524 40.0433 106.132 40.0433 106.812C40.0433 107.5 39.9873 108.112 39.8753 108.648C39.7633 109.184 39.5873 109.636 39.3473 110.004C39.1073 110.372 38.8033 110.656 38.4353 110.856C38.0673 111.048 37.6273 111.144 37.1153 111.144ZM37.1153 110.268C37.4513 110.268 37.7393 110.204 37.9793 110.076C38.2193 109.94 38.4113 109.752 38.5553 109.512C38.7073 109.272 38.8193 108.984 38.8913 108.648C38.9633 108.304 38.9993 107.92 38.9993 107.496V106.128C38.9993 105.712 38.9633 105.332 38.8913 104.988C38.8193 104.644 38.7073 104.352 38.5553 104.112C38.4113 103.872 38.2193 103.688 37.9793 103.56C37.7393 103.424 37.4513 103.356 37.1153 103.356C36.7793 103.356 36.4913 103.424 36.2513 103.56C36.0113 103.688 35.8153 103.872 35.6633 104.112C35.5193 104.352 35.4113 104.644 35.3393 104.988C35.2673 105.332 35.2313 105.712 35.2313 106.128V107.496C35.2313 107.92 35.2673 108.304 35.3393 108.648C35.4113 108.984 35.5193 109.272 35.6633 109.512C35.8153 109.752 36.0113 109.94 36.2513 110.076C36.4913 110.204 36.7793 110.268 37.1153 110.268ZM37.1153 107.52C36.8353 107.52 36.6393 107.464 36.5273 107.352C36.4233 107.24 36.3713 107.104 36.3713 106.944V106.68C36.3713 106.52 36.4233 106.384 36.5273 106.272C36.6393 106.16 36.8353 106.104 37.1153 106.104C37.3953 106.104 37.5873 106.16 37.6913 106.272C37.8033 106.384 37.8593 106.52 37.8593 106.68V106.944C37.8593 107.104 37.8033 107.24 37.6913 107.352C37.5873 107.464 37.3953 107.52 37.1153 107.52ZM42.0506 109.812L46.3106 107.4V107.304L42.0506 104.892V103.872L47.2106 106.86V107.82L42.0506 110.808V109.812Z" fill="black"/>
<path d="M217.18 112.656V101.88H218.02V112.656H217.18ZM225.115 111.144C224.603 111.144 224.163 111.048 223.795 110.856C223.427 110.656 223.123 110.372 222.883 110.004C222.643 109.636 222.467 109.184 222.355 108.648C222.243 108.112 222.187 107.5 222.187 106.812C222.187 106.132 222.243 105.524 222.355 104.988C222.467 104.444 222.643 103.988 222.883 103.62C223.123 103.252 223.427 102.972 223.795 102.78C224.163 102.58 224.603 102.48 225.115 102.48C225.627 102.48 226.067 102.58 226.435 102.78C226.803 102.972 227.107 103.252 227.347 103.62C227.587 103.988 227.763 104.444 227.875 104.988C227.987 105.524 228.043 106.132 228.043 106.812C228.043 107.5 227.987 108.112 227.875 108.648C227.763 109.184 227.587 109.636 227.347 110.004C227.107 110.372 226.803 110.656 226.435 110.856C226.067 111.048 225.627 111.144 225.115 111.144ZM225.115 110.268C225.451 110.268 225.739 110.204 225.979 110.076C226.219 109.94 226.411 109.752 226.555 109.512C226.707 109.272 226.819 108.984 226.891 108.648C226.963 108.304 226.999 107.92 226.999 107.496V106.128C226.999 105.712 226.963 105.332 226.891 104.988C226.819 104.644 226.707 104.352 226.555 104.112C226.411 103.872 226.219 103.688 225.979 103.56C225.739 103.424 225.451 103.356 225.115 103.356C224.779 103.356 224.491 103.424 224.251 103.56C224.011 103.688 223.815 103.872 223.663 104.112C223.519 104.352 223.411 104.644 223.339 104.988C223.267 105.332 223.231 105.712 223.231 106.128V107.496C223.231 107.92 223.267 108.304 223.339 108.648C223.411 108.984 223.519 109.272 223.663 109.512C223.815 109.752 224.011 109.94 224.251 110.076C224.491 110.204 224.779 110.268 225.115 110.268ZM225.115 107.52C224.835 107.52 224.639 107.464 224.527 107.352C224.423 107.24 224.371 107.104 224.371 106.944V106.68C224.371 106.52 224.423 106.384 224.527 106.272C224.639 106.16 224.835 106.104 225.115 106.104C225.395 106.104 225.587 106.16 225.691 106.272C225.803 106.384 225.859 106.52 225.859 106.68V106.944C225.859 107.104 225.803 107.24 225.691 107.352C225.587 107.464 225.395 107.52 225.115 107.52ZM230.051 109.812L234.311 107.4V107.304L230.051 104.892V103.872L235.211 106.86V107.82L230.051 110.808V109.812Z" fill="black"/>
<path d="M217.18 262.656V251.88H218.02V262.656H217.18ZM222.535 261V260.124H224.935V253.368H224.851L222.739 255.336L222.151 254.7L224.371 252.624H225.943V260.124H228.151V261H222.535ZM230.051 259.812L234.311 257.4V257.304L230.051 254.892V253.872L235.211 256.86V257.82L230.051 260.808V259.812Z" fill="black"/>
<circle cx="225" cy="75" r="20" fill="#DDE1E6"/>
<circle cx="225" cy="75" r="17" fill="#A56EFF"/>
<circle cx="225" cy="225" r="20" fill="#DDE1E6"/>
<circle cx="225" cy="225" r="17" fill="#A56EFF"/>
<path d="M122.036 68L120.536 62.576H119.348V61.808H121.268L121.808 63.8L122.708 67.196H122.768L123.704 63.8L124.868 59.624H125.804L123.392 68H122.036ZM127.511 64.256C127.511 63.68 127.567 63.124 127.679 62.588C127.791 62.052 127.943 61.556 128.135 61.1C128.335 60.636 128.567 60.216 128.831 59.84C129.095 59.464 129.379 59.144 129.683 58.88H130.595C130.259 59.184 129.955 59.528 129.683 59.912C129.419 60.296 129.191 60.704 128.999 61.136C128.815 61.568 128.671 62.008 128.567 62.456C128.463 62.904 128.411 63.336 128.411 63.752V64.784C128.411 65.208 128.463 65.644 128.567 66.092C128.671 66.54 128.819 66.98 129.011 67.412C129.203 67.844 129.431 68.252 129.695 68.636C129.967 69.02 130.267 69.356 130.595 69.644H129.683C129.387 69.396 129.107 69.084 128.843 68.708C128.579 68.332 128.347 67.912 128.147 67.448C127.955 66.984 127.799 66.484 127.679 65.948C127.567 65.404 127.511 64.84 127.511 64.256ZM131.911 68V67.112H134.251V60.368H134.167L132.055 62.336L131.467 61.7L133.687 59.624H135.259V67.112H137.419V68H131.911ZM138.478 69.812L141.61 59.12H142.474L139.342 69.812H138.478ZM149.68 68H144.184V66.968L146.92 64.448C147.312 64.088 147.64 63.708 147.904 63.308C148.168 62.9 148.3 62.492 148.3 62.084V61.94C148.3 61.476 148.172 61.1 147.916 60.812C147.66 60.524 147.272 60.38 146.752 60.38C146.496 60.38 146.272 60.416 146.08 60.488C145.888 60.56 145.72 60.66 145.576 60.788C145.44 60.916 145.324 61.068 145.228 61.244C145.14 61.412 145.068 61.596 145.012 61.796L144.112 61.448C144.192 61.2 144.3 60.96 144.436 60.728C144.58 60.488 144.756 60.276 144.964 60.092C145.18 59.908 145.436 59.76 145.732 59.648C146.036 59.536 146.392 59.48 146.8 59.48C147.208 59.48 147.572 59.54 147.892 59.66C148.212 59.78 148.48 59.948 148.696 60.164C148.912 60.38 149.076 60.636 149.188 60.932C149.308 61.228 149.368 61.556 149.368 61.916C149.368 62.244 149.32 62.548 149.224 62.828C149.136 63.108 149.012 63.376 148.852 63.632C148.692 63.88 148.496 64.124 148.264 64.364C148.04 64.604 147.796 64.844 147.532 65.084L145.276 67.112H149.68V68ZM153.823 64.256C153.823 64.84 153.763 65.404 153.643 65.948C153.531 66.484 153.375 66.984 153.175 67.448C152.983 67.912 152.755 68.332 152.491 68.708C152.227 69.084 151.947 69.396 151.651 69.644H150.739C151.067 69.356 151.363 69.02 151.627 68.636C151.899 68.252 152.131 67.844 152.323 67.412C152.515 66.98 152.663 66.54 152.767 66.092C152.871 65.644 152.923 65.208 152.923 64.784V63.752C152.923 63.336 152.871 62.904 152.767 62.456C152.663 62.008 152.515 61.568 152.323 61.136C152.139 60.704 151.911 60.296 151.639 59.912C151.375 59.528 151.075 59.184 150.739 58.88H151.651C151.955 59.144 152.239 59.464 152.503 59.84C152.767 60.216 152.995 60.636 153.187 61.1C153.387 61.556 153.543 62.052 153.655 62.588C153.767 63.124 153.823 63.68 153.823 64.256Z" fill="black"/>
<path d="M126.036 218L124.536 212.576H123.348V211.808H125.268L125.808 213.8L126.708 217.196H126.768L127.704 213.8L128.868 209.624H129.804L127.392 218H126.036ZM131.511 214.256C131.511 213.68 131.567 213.124 131.679 212.588C131.791 212.052 131.943 211.556 132.135 211.1C132.335 210.636 132.567 210.216 132.831 209.84C133.095 209.464 133.379 209.144 133.683 208.88H134.595C134.259 209.184 133.955 209.528 133.683 209.912C133.419 210.296 133.191 210.704 132.999 211.136C132.815 211.568 132.671 212.008 132.567 212.456C132.463 212.904 132.411 213.336 132.411 213.752V214.784C132.411 215.208 132.463 215.644 132.567 216.092C132.671 216.54 132.819 216.98 133.011 217.412C133.203 217.844 133.431 218.252 133.695 218.636C133.967 219.02 134.267 219.356 134.595 219.644H133.683C133.387 219.396 133.107 219.084 132.843 218.708C132.579 218.332 132.347 217.912 132.147 217.448C131.955 216.984 131.799 216.484 131.679 215.948C131.567 215.404 131.511 214.84 131.511 214.256ZM135.911 218V217.112H138.251V210.368H138.167L136.055 212.336L135.467 211.7L137.687 209.624H139.259V217.112H141.419V218H135.911ZM142.478 219.812L145.61 209.12H146.474L143.342 219.812H142.478ZM153.68 218H148.184V216.968L150.92 214.448C151.312 214.088 151.64 213.708 151.904 213.308C152.168 212.9 152.3 212.492 152.3 212.084V211.94C152.3 211.476 152.172 211.1 151.916 210.812C151.66 210.524 151.272 210.38 150.752 210.38C150.496 210.38 150.272 210.416 150.08 210.488C149.888 210.56 149.72 210.66 149.576 210.788C149.44 210.916 149.324 211.068 149.228 211.244C149.14 211.412 149.068 211.596 149.012 211.796L148.112 211.448C148.192 211.2 148.3 210.96 148.436 210.728C148.58 210.488 148.756 210.276 148.964 210.092C149.18 209.908 149.436 209.76 149.732 209.648C150.036 209.536 150.392 209.48 150.8 209.48C151.208 209.48 151.572 209.54 151.892 209.66C152.212 209.78 152.48 209.948 152.696 210.164C152.912 210.38 153.076 210.636 153.188 210.932C153.308 211.228 153.368 211.556 153.368 211.916C153.368 212.244 153.32 212.548 153.224 212.828C153.136 213.108 153.012 213.376 152.852 213.632C152.692 213.88 152.496 214.124 152.264 214.364C152.04 214.604 151.796 214.844 151.532 215.084L149.276 217.112H153.68V218ZM157.823 214.256C157.823 214.84 157.763 215.404 157.643 215.948C157.531 216.484 157.375 216.984 157.175 217.448C156.983 217.912 156.755 218.332 156.491 218.708C156.227 219.084 155.947 219.396 155.651 219.644H154.739C155.067 219.356 155.363 219.02 155.627 218.636C155.899 218.252 156.131 217.844 156.323 217.412C156.515 216.98 156.663 216.54 156.767 216.092C156.871 215.644 156.923 215.208 156.923 214.784V213.752C156.923 213.336 156.871 212.904 156.767 212.456C156.663 212.008 156.515 211.568 156.323 211.136C156.139 210.704 155.911 210.296 155.639 209.912C155.375 209.528 155.075 209.184 154.739 208.88H155.651C155.955 209.144 156.239 209.464 156.503 209.84C156.767 210.216 156.995 210.636 157.187 211.1C157.387 211.556 157.543 212.052 157.655 212.588C157.767 213.124 157.823 213.68 157.823 214.256Z" fill="black"/>
<path d="M208.36 23L207.52 20.528H204.136L203.296 23H202.276L205.204 14.624H206.488L209.416 23H208.36ZM205.852 15.56H205.792L204.376 19.64H207.268L205.852 15.56ZM211.363 17.648H210.355V16.808H211.363V15.56C211.363 15.128 211.475 14.78 211.699 14.516C211.923 14.252 212.263 14.12 212.719 14.12H213.655V14.96H212.323V16.808H213.655V17.648H212.323V23H211.363V17.648ZM216.606 23C216.27 23 216.014 22.908 215.838 22.724C215.67 22.532 215.586 22.284 215.586 21.98V17.648H214.566V16.808H215.142C215.35 16.808 215.49 16.768 215.562 16.688C215.642 16.6 215.682 16.452 215.682 16.244V15.092H216.546V16.808H217.902V17.648H216.546V22.16H217.806V23H216.606ZM222.046 23.144C221.622 23.144 221.238 23.068 220.894 22.916C220.558 22.764 220.266 22.548 220.018 22.268C219.778 21.98 219.59 21.64 219.454 21.248C219.326 20.848 219.262 20.4 219.262 19.904C219.262 19.416 219.326 18.972 219.454 18.572C219.59 18.172 219.778 17.832 220.018 17.552C220.266 17.264 220.558 17.044 220.894 16.892C221.238 16.74 221.622 16.664 222.046 16.664C222.462 16.664 222.834 16.74 223.162 16.892C223.49 17.044 223.77 17.256 224.002 17.528C224.234 17.792 224.41 18.108 224.53 18.476C224.658 18.844 224.722 19.248 224.722 19.688V20.144H220.27V20.432C220.27 20.696 220.31 20.944 220.39 21.176C220.478 21.4 220.598 21.596 220.75 21.764C220.91 21.932 221.102 22.064 221.326 22.16C221.558 22.256 221.818 22.304 222.106 22.304C222.498 22.304 222.838 22.212 223.126 22.028C223.422 21.844 223.65 21.58 223.81 21.236L224.494 21.728C224.294 22.152 223.982 22.496 223.558 22.76C223.134 23.016 222.63 23.144 222.046 23.144ZM222.046 17.468C221.782 17.468 221.542 17.516 221.326 17.612C221.11 17.7 220.922 17.828 220.762 17.996C220.61 18.164 220.49 18.364 220.402 18.596C220.314 18.82 220.27 19.068 220.27 19.34V19.424H223.69V19.292C223.69 18.74 223.538 18.3 223.234 17.972C222.938 17.636 222.542 17.468 222.046 17.468ZM226.624 23V16.808H227.584V17.948H227.644C227.756 17.652 227.956 17.388 228.244 17.156C228.532 16.924 228.928 16.808 229.432 16.808H229.804V17.768H229.24C228.72 17.768 228.312 17.868 228.016 18.068C227.728 18.26 227.584 18.504 227.584 18.8V23H226.624ZM239.846 19.208H235.61V23H234.602V14.624H235.61V18.32H239.846V14.624H240.854V23H239.846V19.208ZM243.119 19.868V18.836H246.251V19.868H243.119ZM253.644 23.684C253.644 24.324 253.392 24.792 252.888 25.088C252.392 25.392 251.644 25.544 250.644 25.544C249.676 25.544 248.98 25.412 248.556 25.148C248.132 24.884 247.92 24.508 247.92 24.02C247.92 23.684 248.008 23.42 248.184 23.228C248.36 23.044 248.6 22.908 248.904 22.82V22.688C248.536 22.512 248.352 22.224 248.352 21.824C248.352 21.512 248.452 21.276 248.652 21.116C248.852 20.948 249.108 20.824 249.42 20.744V20.696C249.052 20.52 248.764 20.268 248.556 19.94C248.356 19.612 248.256 19.232 248.256 18.8C248.256 18.488 248.312 18.2 248.424 17.936C248.536 17.672 248.692 17.448 248.892 17.264C249.1 17.072 249.344 16.924 249.624 16.82C249.912 16.716 250.232 16.664 250.584 16.664C251.024 16.664 251.416 16.744 251.76 16.904V16.796C251.76 16.556 251.816 16.36 251.928 16.208C252.04 16.048 252.224 15.968 252.48 15.968H253.404V16.808H252.228V17.204C252.452 17.396 252.624 17.628 252.744 17.9C252.872 18.164 252.936 18.464 252.936 18.8C252.936 19.112 252.88 19.4 252.768 19.664C252.656 19.928 252.496 20.156 252.288 20.348C252.088 20.532 251.844 20.676 251.556 20.78C251.268 20.884 250.948 20.936 250.596 20.936C250.396 20.936 250.196 20.916 249.996 20.876C249.788 20.932 249.6 21.016 249.432 21.128C249.264 21.232 249.18 21.38 249.18 21.572C249.18 21.756 249.268 21.88 249.444 21.944C249.62 22.008 249.848 22.04 250.128 22.04H251.448C252.216 22.04 252.772 22.188 253.116 22.484C253.468 22.772 253.644 23.172 253.644 23.684ZM252.744 23.756C252.744 23.508 252.648 23.308 252.456 23.156C252.272 23.012 251.94 22.94 251.46 22.94H249.396C249.012 23.116 248.82 23.396 248.82 23.78C248.82 24.052 248.92 24.284 249.12 24.476C249.328 24.668 249.676 24.764 250.164 24.764H251.052C251.588 24.764 252.004 24.68 252.3 24.512C252.596 24.344 252.744 24.092 252.744 23.756ZM250.596 20.168C251.004 20.168 251.328 20.072 251.568 19.88C251.808 19.68 251.928 19.376 251.928 18.968V18.632C251.928 18.224 251.808 17.924 251.568 17.732C251.328 17.532 251.004 17.432 250.596 17.432C250.188 17.432 249.864 17.532 249.624 17.732C249.384 17.924 249.264 18.224 249.264 18.632V18.968C249.264 19.376 249.384 19.68 249.624 19.88C249.864 20.072 250.188 20.168 250.596 20.168ZM259.548 23C259.188 23 258.928 22.904 258.768 22.712C258.616 22.52 258.52 22.28 258.48 21.992H258.42C258.284 22.376 258.06 22.664 257.748 22.856C257.436 23.048 257.064 23.144 256.632 23.144C255.976 23.144 255.464 22.976 255.096 22.64C254.736 22.304 254.556 21.848 254.556 21.272C254.556 20.688 254.768 20.24 255.192 19.928C255.624 19.616 256.292 19.46 257.196 19.46H258.42V18.848C258.42 18.408 258.3 18.072 258.06 17.84C257.82 17.608 257.452 17.492 256.956 17.492C256.58 17.492 256.264 17.576 256.008 17.744C255.76 17.912 255.552 18.136 255.384 18.416L254.808 17.876C254.976 17.54 255.244 17.256 255.612 17.024C255.98 16.784 256.444 16.664 257.004 16.664C257.756 16.664 258.34 16.848 258.756 17.216C259.172 17.584 259.38 18.096 259.38 18.752V22.16H260.088V23H259.548ZM256.788 22.328C257.028 22.328 257.248 22.3 257.448 22.244C257.648 22.188 257.82 22.108 257.964 22.004C258.108 21.9 258.22 21.78 258.3 21.644C258.38 21.508 258.42 21.36 258.42 21.2V20.18H257.148C256.596 20.18 256.192 20.26 255.936 20.42C255.688 20.58 255.564 20.812 255.564 21.116V21.368C255.564 21.672 255.672 21.908 255.888 22.076C256.112 22.244 256.412 22.328 256.788 22.328ZM263.147 23C262.811 23 262.555 22.908 262.379 22.724C262.211 22.532 262.127 22.284 262.127 21.98V17.648H261.107V16.808H261.683C261.891 16.808 262.031 16.768 262.103 16.688C262.183 16.6 262.223 16.452 262.223 16.244V15.092H263.087V16.808H264.443V17.648H263.087V22.16H264.347V23H263.147ZM268.587 23.144C268.163 23.144 267.779 23.068 267.435 22.916C267.099 22.764 266.807 22.548 266.559 22.268C266.319 21.98 266.131 21.64 265.995 21.248C265.867 20.848 265.803 20.4 265.803 19.904C265.803 19.416 265.867 18.972 265.995 18.572C266.131 18.172 266.319 17.832 266.559 17.552C266.807 17.264 267.099 17.044 267.435 16.892C267.779 16.74 268.163 16.664 268.587 16.664C269.003 16.664 269.375 16.74 269.703 16.892C270.031 17.044 270.311 17.256 270.543 17.528C270.775 17.792 270.951 18.108 271.071 18.476C271.199 18.844 271.263 19.248 271.263 19.688V20.144H266.811V20.432C266.811 20.696 266.851 20.944 266.931 21.176C267.019 21.4 267.139 21.596 267.291 21.764C267.451 21.932 267.643 22.064 267.867 22.16C268.099 22.256 268.359 22.304 268.647 22.304C269.039 22.304 269.379 22.212 269.667 22.028C269.963 21.844 270.191 21.58 270.351 21.236L271.035 21.728C270.835 22.152 270.523 22.496 270.099 22.76C269.675 23.016 269.171 23.144 268.587 23.144ZM268.587 17.468C268.323 17.468 268.083 17.516 267.867 17.612C267.651 17.7 267.463 17.828 267.303 17.996C267.151 18.164 267.031 18.364 266.943 18.596C266.855 18.82 266.811 19.068 266.811 19.34V19.424H270.231V19.292C270.231 18.74 270.079 18.3 269.775 17.972C269.479 17.636 269.083 17.468 268.587 17.468Z" fill="black"/>
<path d="M20.468 23.144C19.788 23.144 19.208 23.016 18.728 22.76C18.248 22.496 17.84 22.136 17.504 21.68L18.248 21.056C18.544 21.448 18.872 21.748 19.232 21.956C19.592 22.156 20.016 22.256 20.504 22.256C21.104 22.256 21.56 22.112 21.872 21.824C22.192 21.536 22.352 21.152 22.352 20.672C22.352 20.272 22.232 19.964 21.992 19.748C21.752 19.532 21.356 19.36 20.804 19.232L20.12 19.076C19.352 18.9 18.764 18.636 18.356 18.284C17.956 17.924 17.756 17.42 17.756 16.772C17.756 16.404 17.824 16.076 17.96 15.788C18.096 15.5 18.284 15.26 18.524 15.068C18.772 14.876 19.064 14.732 19.4 14.636C19.744 14.532 20.12 14.48 20.528 14.48C21.16 14.48 21.7 14.596 22.148 14.828C22.604 15.06 22.988 15.4 23.3 15.848L22.544 16.4C22.312 16.08 22.032 15.828 21.704 15.644C21.376 15.46 20.968 15.368 20.48 15.368C19.944 15.368 19.52 15.484 19.208 15.716C18.904 15.94 18.752 16.28 18.752 16.736C18.752 17.136 18.88 17.44 19.136 17.648C19.4 17.848 19.796 18.008 20.324 18.128L21.008 18.284C21.832 18.468 22.428 18.748 22.796 19.124C23.164 19.5 23.348 20 23.348 20.624C23.348 21.008 23.28 21.356 23.144 21.668C23.016 21.98 22.828 22.244 22.58 22.46C22.332 22.676 22.028 22.844 21.668 22.964C21.316 23.084 20.916 23.144 20.468 23.144ZM26.6807 23C26.3447 23 26.0887 22.908 25.9127 22.724C25.7447 22.532 25.6607 22.284 25.6607 21.98V17.648H24.6407V16.808H25.2167C25.4247 16.808 25.5647 16.768 25.6367 16.688C25.7167 16.6 25.7567 16.452 25.7567 16.244V15.092H26.6207V16.808H27.9767V17.648H26.6207V22.16H27.8807V23H26.6807ZM34.3397 23C33.9797 23 33.7197 22.904 33.5597 22.712C33.4077 22.52 33.3117 22.28 33.2717 21.992H33.2117C33.0757 22.376 32.8517 22.664 32.5397 22.856C32.2277 23.048 31.8557 23.144 31.4237 23.144C30.7677 23.144 30.2557 22.976 29.8877 22.64C29.5277 22.304 29.3477 21.848 29.3477 21.272C29.3477 20.688 29.5597 20.24 29.9837 19.928C30.4157 19.616 31.0837 19.46 31.9877 19.46H33.2117V18.848C33.2117 18.408 33.0917 18.072 32.8517 17.84C32.6117 17.608 32.2437 17.492 31.7477 17.492C31.3717 17.492 31.0557 17.576 30.7997 17.744C30.5517 17.912 30.3437 18.136 30.1757 18.416L29.5997 17.876C29.7677 17.54 30.0357 17.256 30.4037 17.024C30.7717 16.784 31.2357 16.664 31.7957 16.664C32.5477 16.664 33.1317 16.848 33.5477 17.216C33.9637 17.584 34.1717 18.096 34.1717 18.752V22.16H34.8797V23H34.3397ZM31.5797 22.328C31.8197 22.328 32.0397 22.3 32.2397 22.244C32.4397 22.188 32.6117 22.108 32.7557 22.004C32.8997 21.9 33.0117 21.78 33.0917 21.644C33.1717 21.508 33.2117 21.36 33.2117 21.2V20.18H31.9397C31.3877 20.18 30.9837 20.26 30.7277 20.42C30.4797 20.58 30.3557 20.812 30.3557 21.116V21.368C30.3557 21.672 30.4637 21.908 30.6797 22.076C30.9037 22.244 31.2037 22.328 31.5797 22.328ZM36.5698 23V16.808H37.5298V17.948H37.5898C37.7018 17.652 37.9018 17.388 38.1898 17.156C38.4778 16.924 38.8738 16.808 39.3778 16.808H39.7498V17.768H39.1858C38.6658 17.768 38.2578 17.868 37.9618 18.068C37.6738 18.26 37.5298 18.504 37.5298 18.8V23H36.5698ZM42.711 23C42.375 23 42.119 22.908 41.943 22.724C41.775 22.532 41.691 22.284 41.691 21.98V17.648H40.671V16.808H41.247C41.455 16.808 41.595 16.768 41.667 16.688C41.747 16.6 41.787 16.452 41.787 16.244V15.092H42.651V16.808H44.007V17.648H42.651V22.16H43.911V23H42.711ZM46.35 15.356C46.142 15.356 45.99 15.308 45.894 15.212C45.806 15.108 45.762 14.976 45.762 14.816V14.66C45.762 14.5 45.806 14.372 45.894 14.276C45.99 14.172 46.142 14.12 46.35 14.12C46.558 14.12 46.706 14.172 46.794 14.276C46.89 14.372 46.938 14.5 46.938 14.66V14.816C46.938 14.976 46.89 15.108 46.794 15.212C46.706 15.308 46.558 15.356 46.35 15.356ZM45.87 16.808H46.83V23H45.87V16.808ZM49.19 23V16.808H50.15V17.816H50.198C50.35 17.464 50.562 17.184 50.834 16.976C51.114 16.768 51.486 16.664 51.95 16.664C52.59 16.664 53.094 16.872 53.462 17.288C53.838 17.696 54.026 18.276 54.026 19.028V23H53.066V19.196C53.066 18.084 52.598 17.528 51.662 17.528C51.47 17.528 51.282 17.552 51.098 17.6C50.922 17.648 50.762 17.72 50.618 17.816C50.474 17.912 50.358 18.036 50.27 18.188C50.19 18.332 50.15 18.504 50.15 18.704V23H49.19ZM61.5503 23.684C61.5503 24.324 61.2983 24.792 60.7943 25.088C60.2983 25.392 59.5503 25.544 58.5503 25.544C57.5823 25.544 56.8863 25.412 56.4623 25.148C56.0383 24.884 55.8263 24.508 55.8263 24.02C55.8263 23.684 55.9143 23.42 56.0903 23.228C56.2663 23.044 56.5063 22.908 56.8103 22.82V22.688C56.4423 22.512 56.2583 22.224 56.2583 21.824C56.2583 21.512 56.3583 21.276 56.5583 21.116C56.7583 20.948 57.0143 20.824 57.3263 20.744V20.696C56.9583 20.52 56.6703 20.268 56.4623 19.94C56.2623 19.612 56.1623 19.232 56.1623 18.8C56.1623 18.488 56.2183 18.2 56.3303 17.936C56.4423 17.672 56.5983 17.448 56.7983 17.264C57.0063 17.072 57.2503 16.924 57.5303 16.82C57.8183 16.716 58.1383 16.664 58.4903 16.664C58.9303 16.664 59.3223 16.744 59.6663 16.904V16.796C59.6663 16.556 59.7223 16.36 59.8343 16.208C59.9463 16.048 60.1303 15.968 60.3863 15.968H61.3103V16.808H60.1343V17.204C60.3583 17.396 60.5303 17.628 60.6503 17.9C60.7783 18.164 60.8423 18.464 60.8423 18.8C60.8423 19.112 60.7863 19.4 60.6743 19.664C60.5623 19.928 60.4023 20.156 60.1943 20.348C59.9943 20.532 59.7503 20.676 59.4623 20.78C59.1743 20.884 58.8543 20.936 58.5023 20.936C58.3023 20.936 58.1023 20.916 57.9023 20.876C57.6943 20.932 57.5063 21.016 57.3383 21.128C57.1703 21.232 57.0863 21.38 57.0863 21.572C57.0863 21.756 57.1743 21.88 57.3503 21.944C57.5263 22.008 57.7543 22.04 58.0343 22.04H59.3543C60.1223 22.04 60.6783 22.188 61.0223 22.484C61.3743 22.772 61.5503 23.172 61.5503 23.684ZM60.6503 23.756C60.6503 23.508 60.5543 23.308 60.3623 23.156C60.1783 23.012 59.8463 22.94 59.3663 22.94H57.3023C56.9183 23.116 56.7263 23.396 56.7263 23.78C56.7263 24.052 56.8263 24.284 57.0263 24.476C57.2343 24.668 57.5823 24.764 58.0703 24.764H58.9583C59.4943 24.764 59.9103 24.68 60.2063 24.512C60.5023 24.344 60.6503 24.092 60.6503 23.756ZM58.5023 20.168C58.9103 20.168 59.2343 20.072 59.4743 19.88C59.7143 19.68 59.8343 19.376 59.8343 18.968V18.632C59.8343 18.224 59.7143 17.924 59.4743 17.732C59.2343 17.532 58.9103 17.432 58.5023 17.432C58.0943 17.432 57.7703 17.532 57.5303 17.732C57.2903 17.924 57.1703 18.224 57.1703 18.632V18.968C57.1703 19.376 57.2903 19.68 57.5303 19.88C57.7703 20.072 58.0943 20.168 58.5023 20.168ZM70.6461 23C70.2861 23 70.0261 22.904 69.8661 22.712C69.7141 22.52 69.6181 22.28 69.5781 21.992H69.5181C69.3821 22.376 69.1581 22.664 68.8461 22.856C68.5341 23.048 68.1621 23.144 67.7301 23.144C67.0741 23.144 66.5621 22.976 66.1941 22.64C65.8341 22.304 65.6541 21.848 65.6541 21.272C65.6541 20.688 65.8661 20.24 66.2901 19.928C66.7221 19.616 67.3901 19.46 68.2941 19.46H69.5181V18.848C69.5181 18.408 69.3981 18.072 69.1581 17.84C68.9181 17.608 68.5501 17.492 68.0541 17.492C67.6781 17.492 67.3621 17.576 67.1061 17.744C66.8581 17.912 66.6501 18.136 66.4821 18.416L65.9061 17.876C66.0741 17.54 66.3421 17.256 66.7101 17.024C67.0781 16.784 67.5421 16.664 68.1021 16.664C68.8541 16.664 69.4381 16.848 69.8541 17.216C70.2701 17.584 70.4781 18.096 70.4781 18.752V22.16H71.1861V23H70.6461ZM67.8861 22.328C68.1261 22.328 68.3461 22.3 68.5461 22.244C68.7461 22.188 68.9181 22.108 69.0621 22.004C69.2061 21.9 69.3181 21.78 69.3981 21.644C69.4781 21.508 69.5181 21.36 69.5181 21.2V20.18H68.2461C67.6941 20.18 67.2901 20.26 67.0341 20.42C66.7861 20.58 66.6621 20.812 66.6621 21.116V21.368C66.6621 21.672 66.7701 21.908 66.9861 22.076C67.2101 22.244 67.5101 22.328 67.8861 22.328ZM72.8763 23V16.808H73.8363V17.816H73.8843C73.9563 17.656 74.0363 17.508 74.1243 17.372C74.2203 17.228 74.3323 17.104 74.4603 17C74.5963 16.896 74.7523 16.816 74.9283 16.76C75.1043 16.696 75.3123 16.664 75.5523 16.664C75.9603 16.664 76.3363 16.764 76.6803 16.964C77.0243 17.156 77.2803 17.476 77.4483 17.924H77.4723C77.5843 17.588 77.7923 17.296 78.0963 17.048C78.4083 16.792 78.8283 16.664 79.3563 16.664C79.9883 16.664 80.4803 16.872 80.8323 17.288C81.1923 17.696 81.3723 18.276 81.3723 19.028V23H80.4123V19.196C80.4123 18.644 80.3043 18.228 80.0883 17.948C79.8723 17.668 79.5283 17.528 79.0563 17.528C78.8643 17.528 78.6803 17.552 78.5043 17.6C78.3363 17.648 78.1843 17.72 78.0483 17.816C77.9123 17.912 77.8043 18.036 77.7243 18.188C77.6443 18.332 77.6043 18.504 77.6043 18.704V23H76.6443V19.196C76.6443 18.644 76.5363 18.228 76.3203 17.948C76.1043 17.668 75.7683 17.528 75.3123 17.528C75.1203 17.528 74.9363 17.552 74.7603 17.6C74.5843 17.648 74.4283 17.72 74.2923 17.816C74.1563 17.912 74.0443 18.036 73.9563 18.188C73.8763 18.332 73.8363 18.504 73.8363 18.704V23H72.8763ZM83.6728 16.808H84.6328V17.816H84.6808C84.8408 17.424 85.0728 17.136 85.3768 16.952C85.6888 16.76 86.0608 16.664 86.4928 16.664C86.8768 16.664 87.2248 16.74 87.5368 16.892C87.8488 17.044 88.1128 17.26 88.3288 17.54C88.5528 17.82 88.7208 18.16 88.8328 18.56C88.9528 18.96 89.0128 19.408 89.0128 19.904C89.0128 20.4 88.9528 20.848 88.8328 21.248C88.7208 21.648 88.5528 21.988 88.3288 22.268C88.1128 22.548 87.8488 22.764 87.5368 22.916C87.2248 23.068 86.8768 23.144 86.4928 23.144C85.6528 23.144 85.0488 22.76 84.6808 21.992H84.6328V25.4H83.6728V16.808ZM86.2288 22.28C86.7728 22.28 87.2008 22.112 87.5128 21.776C87.8248 21.432 87.9808 20.984 87.9808 20.432V19.376C87.9808 18.824 87.8248 18.38 87.5128 18.044C87.2008 17.7 86.7728 17.528 86.2288 17.528C86.0128 17.528 85.8048 17.56 85.6048 17.624C85.4128 17.68 85.2448 17.76 85.1008 17.864C84.9568 17.968 84.8408 18.096 84.7528 18.248C84.6728 18.392 84.6328 18.548 84.6328 18.716V21.02C84.6328 21.22 84.6728 21.4 84.7528 21.56C84.8408 21.712 84.9568 21.844 85.1008 21.956C85.2448 22.06 85.4128 22.14 85.6048 22.196C85.8048 22.252 86.0128 22.28 86.2288 22.28ZM91.9737 23C91.6377 23 91.3817 22.908 91.2057 22.724C91.0377 22.532 90.9537 22.292 90.9537 22.004V14.12H91.9137V22.16H92.8257V23H91.9737ZM95.0233 15.356C94.8153 15.356 94.6633 15.308 94.5673 15.212C94.4793 15.108 94.4353 14.976 94.4353 14.816V14.66C94.4353 14.5 94.4793 14.372 94.5673 14.276C94.6633 14.172 94.8153 14.12 95.0233 14.12C95.2313 14.12 95.3793 14.172 95.4673 14.276C95.5633 14.372 95.6113 14.5 95.6113 14.66V14.816C95.6113 14.976 95.5633 15.108 95.4673 15.212C95.3793 15.308 95.2313 15.356 95.0233 15.356ZM94.5433 16.808H95.5033V23H94.5433V16.808ZM99.2313 23C98.8953 23 98.6393 22.908 98.4633 22.724C98.2953 22.532 98.2113 22.284 98.2113 21.98V17.648H97.1913V16.808H97.7673C97.9753 16.808 98.1153 16.768 98.1873 16.688C98.2673 16.6 98.3073 16.452 98.3073 16.244V15.092H99.1713V16.808H100.527V17.648H99.1713V22.16H100.431V23H99.2313ZM106.206 21.992H106.158C106.094 22.136 106.014 22.28 105.918 22.424C105.83 22.56 105.718 22.684 105.582 22.796C105.446 22.9 105.282 22.984 105.09 23.048C104.898 23.112 104.674 23.144 104.418 23.144C103.778 23.144 103.27 22.94 102.894 22.532C102.518 22.116 102.33 21.532 102.33 20.78V16.808H103.29V20.612C103.29 21.724 103.762 22.28 104.706 22.28C104.898 22.28 105.082 22.256 105.258 22.208C105.442 22.16 105.602 22.088 105.738 21.992C105.882 21.896 105.994 21.776 106.074 21.632C106.162 21.48 106.206 21.3 106.206 21.092V16.808H107.166V23H106.206V21.992ZM113.491 21.992H113.443C113.067 22.76 112.463 23.144 111.631 23.144C111.247 23.144 110.899 23.068 110.587 22.916C110.275 22.764 110.007 22.548 109.783 22.268C109.567 21.988 109.399 21.648 109.279 21.248C109.167 20.848 109.111 20.4 109.111 19.904C109.111 19.408 109.167 18.96 109.279 18.56C109.399 18.16 109.567 17.82 109.783 17.54C110.007 17.26 110.275 17.044 110.587 16.892C110.899 16.74 111.247 16.664 111.631 16.664C112.063 16.664 112.431 16.76 112.735 16.952C113.047 17.136 113.283 17.424 113.443 17.816H113.491V14.12H114.451V23H113.491V21.992ZM111.895 22.28C112.111 22.28 112.315 22.252 112.507 22.196C112.707 22.14 112.879 22.06 113.023 21.956C113.167 21.844 113.279 21.712 113.359 21.56C113.447 21.4 113.491 21.22 113.491 21.02V18.716C113.491 18.548 113.447 18.392 113.359 18.248C113.279 18.096 113.167 17.968 113.023 17.864C112.879 17.76 112.707 17.68 112.507 17.624C112.315 17.56 112.111 17.528 111.895 17.528C111.351 17.528 110.923 17.7 110.611 18.044C110.299 18.38 110.143 18.824 110.143 19.376V20.432C110.143 20.984 110.299 21.432 110.611 21.776C110.923 22.112 111.351 22.28 111.895 22.28ZM119.14 23.144C118.716 23.144 118.332 23.068 117.988 22.916C117.652 22.764 117.36 22.548 117.112 22.268C116.872 21.98 116.684 21.64 116.548 21.248C116.42 20.848 116.356 20.4 116.356 19.904C116.356 19.416 116.42 18.972 116.548 18.572C116.684 18.172 116.872 17.832 117.112 17.552C117.36 17.264 117.652 17.044 117.988 16.892C118.332 16.74 118.716 16.664 119.14 16.664C119.556 16.664 119.928 16.74 120.256 16.892C120.584 17.044 120.864 17.256 121.096 17.528C121.328 17.792 121.504 18.108 121.624 18.476C121.752 18.844 121.816 19.248 121.816 19.688V20.144H117.364V20.432C117.364 20.696 117.404 20.944 117.484 21.176C117.572 21.4 117.692 21.596 117.844 21.764C118.004 21.932 118.196 22.064 118.42 22.16C118.652 22.256 118.912 22.304 119.2 22.304C119.592 22.304 119.932 22.212 120.22 22.028C120.516 21.844 120.744 21.58 120.904 21.236L121.588 21.728C121.388 22.152 121.076 22.496 120.652 22.76C120.228 23.016 119.724 23.144 119.14 23.144ZM119.14 17.468C118.876 17.468 118.636 17.516 118.42 17.612C118.204 17.7 118.016 17.828 117.856 17.996C117.704 18.164 117.584 18.364 117.496 18.596C117.408 18.82 117.364 19.068 117.364 19.34V19.424H120.784V19.292C120.784 18.74 120.632 18.3 120.328 17.972C120.032 17.636 119.636 17.468 119.14 17.468Z" fill="black"/>
<path d="M173.5 3L173.5 339" stroke="#C1C7CD"/>
<circle cx="37" cy="75" r="20" fill="#A56EFF"/>
<path d="M183.354 75.3536C183.549 75.1583 183.549 74.8417 183.354 74.6465L180.172 71.4645C179.976 71.2692 179.66 71.2692 179.464 71.4645C179.269 71.6597 179.269 71.9763 179.464 72.1716L182.293 75L179.464 77.8284C179.269 78.0237 179.269 78.3403 179.464 78.5355C179.66 78.7308 179.976 78.7308 180.172 78.5355L183.354 75.3536ZM74 75.5L183 75.5L183 74.5L74 74.5L74 75.5Z" fill="black"/>
<path d="M183.354 225.354C183.549 225.158 183.549 224.842 183.354 224.646L180.172 221.464C179.976 221.269 179.66 221.269 179.464 221.464C179.269 221.66 179.269 221.976 179.464 222.172L182.293 225L179.464 227.828C179.269 228.024 179.269 228.34 179.464 228.536C179.66 228.731 179.976 228.731 180.172 228.536L183.354 225.354ZM123 225.5L183 225.5L183 224.5L123 224.5L123 225.5Z" fill="black"/>
<line x1="38" y1="75" x2="57" y2="75" stroke="white" stroke-width="2"/>
<line x1="225" y1="75" x2="242" y2="75" stroke="white" stroke-width="2"/>
<line x1="224" y1="226" x2="242" y2="226" stroke="white" stroke-width="2"/>
<path d="M123 225H110.746C107.985 225 105.746 222.761 105.746 220V80C105.746 77.2386 103.508 75 100.746 75H89" stroke="black"/>
<line x1="1.0014" y1="1.5" x2="331.002" y2="2.42179" stroke="#C1C7CD"/>
<line x1="0.998681" y1="338.5" x2="330.999" y2="337.629" stroke="#C1C7CD"/>
<rect x="359" y="1" width="330" height="337" fill="white"/>
<path d="M387.18 111.656V100.88H388.02V111.656H387.18ZM392.535 110V109.124H394.935V102.368H394.851L392.739 104.336L392.151 103.7L394.371 101.624H395.943V109.124H398.151V110H392.535ZM400.051 108.812L404.311 106.4V106.304L400.051 103.892V102.872L405.211 105.86V106.82L400.051 109.808V108.812Z" fill="black"/>
<path d="M575.18 111.656V100.88H576.02V111.656H575.18ZM583.115 110.144C582.603 110.144 582.163 110.048 581.795 109.856C581.427 109.656 581.123 109.372 580.883 109.004C580.643 108.636 580.467 108.184 580.355 107.648C580.243 107.112 580.187 106.5 580.187 105.812C580.187 105.132 580.243 104.524 580.355 103.988C580.467 103.444 580.643 102.988 580.883 102.62C581.123 102.252 581.427 101.972 581.795 101.78C582.163 101.58 582.603 101.48 583.115 101.48C583.627 101.48 584.067 101.58 584.435 101.78C584.803 101.972 585.107 102.252 585.347 102.62C585.587 102.988 585.763 103.444 585.875 103.988C585.987 104.524 586.043 105.132 586.043 105.812C586.043 106.5 585.987 107.112 585.875 107.648C585.763 108.184 585.587 108.636 585.347 109.004C585.107 109.372 584.803 109.656 584.435 109.856C584.067 110.048 583.627 110.144 583.115 110.144ZM583.115 109.268C583.451 109.268 583.739 109.204 583.979 109.076C584.219 108.94 584.411 108.752 584.555 108.512C584.707 108.272 584.819 107.984 584.891 107.648C584.963 107.304 584.999 106.92 584.999 106.496V105.128C584.999 104.712 584.963 104.332 584.891 103.988C584.819 103.644 584.707 103.352 584.555 103.112C584.411 102.872 584.219 102.688 583.979 102.56C583.739 102.424 583.451 102.356 583.115 102.356C582.779 102.356 582.491 102.424 582.251 102.56C582.011 102.688 581.815 102.872 581.663 103.112C581.519 103.352 581.411 103.644 581.339 103.988C581.267 104.332 581.231 104.712 581.231 105.128V106.496C581.231 106.92 581.267 107.304 581.339 107.648C581.411 107.984 581.519 108.272 581.663 108.512C581.815 108.752 582.011 108.94 582.251 109.076C582.491 109.204 582.779 109.268 583.115 109.268ZM583.115 106.52C582.835 106.52 582.639 106.464 582.527 106.352C582.423 106.24 582.371 106.104 582.371 105.944V105.68C582.371 105.52 582.423 105.384 582.527 105.272C582.639 105.16 582.835 105.104 583.115 105.104C583.395 105.104 583.587 105.16 583.691 105.272C583.803 105.384 583.859 105.52 583.859 105.68V105.944C583.859 106.104 583.803 106.24 583.691 106.352C583.587 106.464 583.395 106.52 583.115 106.52ZM588.051 108.812L592.311 106.4V106.304L588.051 103.892V102.872L593.211 105.86V106.82L588.051 109.808V108.812Z" fill="black"/>
<path d="M575.18 261.656V250.88H576.02V261.656H575.18ZM580.535 260V259.124H582.935V252.368H582.851L580.739 254.336L580.151 253.7L582.371 251.624H583.943V259.124H586.151V260H580.535ZM588.051 258.812L592.311 256.4V256.304L588.051 253.892V252.872L593.211 255.86V256.82L588.051 259.808V258.812Z" fill="black"/>
<circle cx="583" cy="74" r="20" fill="#DDE1E6"/>
<circle cx="583" cy="74" r="17" fill="#A56EFF"/>
<circle cx="583" cy="224" r="20" fill="#DDE1E6"/>
<circle cx="583" cy="224" r="17" fill="#A56EFF"/>
<path d="M480.036 67L478.536 61.576H477.348V60.808H479.268L479.808 62.8L480.708 66.196H480.768L481.704 62.8L482.868 58.624H483.804L481.392 67H480.036ZM485.511 63.256C485.511 62.68 485.567 62.124 485.679 61.588C485.791 61.052 485.943 60.556 486.135 60.1C486.335 59.636 486.567 59.216 486.831 58.84C487.095 58.464 487.379 58.144 487.683 57.88H488.595C488.259 58.184 487.955 58.528 487.683 58.912C487.419 59.296 487.191 59.704 486.999 60.136C486.815 60.568 486.671 61.008 486.567 61.456C486.463 61.904 486.411 62.336 486.411 62.752V63.784C486.411 64.208 486.463 64.644 486.567 65.092C486.671 65.54 486.819 65.98 487.011 66.412C487.203 66.844 487.431 67.252 487.695 67.636C487.967 68.02 488.267 68.356 488.595 68.644H487.683C487.387 68.396 487.107 68.084 486.843 67.708C486.579 67.332 486.347 66.912 486.147 66.448C485.955 65.984 485.799 65.484 485.679 64.948C485.567 64.404 485.511 63.84 485.511 63.256ZM489.911 67V66.112H492.251V59.368H492.167L490.055 61.336L489.467 60.7L491.687 58.624H493.259V66.112H495.419V67H489.911ZM496.478 68.812L499.61 58.12H500.474L497.342 68.812H496.478ZM507.68 67H502.184V65.968L504.92 63.448C505.312 63.088 505.64 62.708 505.904 62.308C506.168 61.9 506.3 61.492 506.3 61.084V60.94C506.3 60.476 506.172 60.1 505.916 59.812C505.66 59.524 505.272 59.38 504.752 59.38C504.496 59.38 504.272 59.416 504.08 59.488C503.888 59.56 503.72 59.66 503.576 59.788C503.44 59.916 503.324 60.068 503.228 60.244C503.14 60.412 503.068 60.596 503.012 60.796L502.112 60.448C502.192 60.2 502.3 59.96 502.436 59.728C502.58 59.488 502.756 59.276 502.964 59.092C503.18 58.908 503.436 58.76 503.732 58.648C504.036 58.536 504.392 58.48 504.8 58.48C505.208 58.48 505.572 58.54 505.892 58.66C506.212 58.78 506.48 58.948 506.696 59.164C506.912 59.38 507.076 59.636 507.188 59.932C507.308 60.228 507.368 60.556 507.368 60.916C507.368 61.244 507.32 61.548 507.224 61.828C507.136 62.108 507.012 62.376 506.852 62.632C506.692 62.88 506.496 63.124 506.264 63.364C506.04 63.604 505.796 63.844 505.532 64.084L503.276 66.112H507.68V67ZM511.823 63.256C511.823 63.84 511.763 64.404 511.643 64.948C511.531 65.484 511.375 65.984 511.175 66.448C510.983 66.912 510.755 67.332 510.491 67.708C510.227 68.084 509.947 68.396 509.651 68.644H508.739C509.067 68.356 509.363 68.02 509.627 67.636C509.899 67.252 510.131 66.844 510.323 66.412C510.515 65.98 510.663 65.54 510.767 65.092C510.871 64.644 510.923 64.208 510.923 63.784V62.752C510.923 62.336 510.871 61.904 510.767 61.456C510.663 61.008 510.515 60.568 510.323 60.136C510.139 59.704 509.911 59.296 509.639 58.912C509.375 58.528 509.075 58.184 508.739 57.88H509.651C509.955 58.144 510.239 58.464 510.503 58.84C510.767 59.216 510.995 59.636 511.187 60.1C511.387 60.556 511.543 61.052 511.655 61.588C511.767 62.124 511.823 62.68 511.823 63.256Z" fill="black"/>
<path d="M474.828 213.868V212.836H477.96V213.868H474.828ZM482.149 217L480.649 211.576H479.461V210.808H481.381L481.921 212.8L482.821 216.196H482.881L483.817 212.8L484.981 208.624H485.917L483.505 217H482.149ZM487.624 213.256C487.624 212.68 487.68 212.124 487.792 211.588C487.904 211.052 488.056 210.556 488.248 210.1C488.448 209.636 488.68 209.216 488.944 208.84C489.208 208.464 489.492 208.144 489.796 207.88H490.708C490.372 208.184 490.068 208.528 489.796 208.912C489.532 209.296 489.304 209.704 489.112 210.136C488.928 210.568 488.784 211.008 488.68 211.456C488.576 211.904 488.524 212.336 488.524 212.752V213.784C488.524 214.208 488.576 214.644 488.68 215.092C488.784 215.54 488.932 215.98 489.124 216.412C489.316 216.844 489.544 217.252 489.808 217.636C490.08 218.02 490.38 218.356 490.708 218.644H489.796C489.5 218.396 489.22 218.084 488.956 217.708C488.692 217.332 488.46 216.912 488.26 216.448C488.068 215.984 487.912 215.484 487.792 214.948C487.68 214.404 487.624 213.84 487.624 213.256ZM492.024 217V216.112H494.364V209.368H494.28L492.168 211.336L491.58 210.7L493.8 208.624H495.372V216.112H497.532V217H492.024ZM498.591 218.812L501.723 208.12H502.587L499.455 218.812H498.591ZM509.793 217H504.297V215.968L507.033 213.448C507.425 213.088 507.753 212.708 508.017 212.308C508.281 211.9 508.413 211.492 508.413 211.084V210.94C508.413 210.476 508.285 210.1 508.029 209.812C507.773 209.524 507.385 209.38 506.865 209.38C506.609 209.38 506.385 209.416 506.193 209.488C506.001 209.56 505.833 209.66 505.689 209.788C505.553 209.916 505.437 210.068 505.341 210.244C505.253 210.412 505.181 210.596 505.125 210.796L504.225 210.448C504.305 210.2 504.413 209.96 504.549 209.728C504.693 209.488 504.869 209.276 505.077 209.092C505.293 208.908 505.549 208.76 505.845 208.648C506.149 208.536 506.505 208.48 506.913 208.48C507.321 208.48 507.685 208.54 508.005 208.66C508.325 208.78 508.593 208.948 508.809 209.164C509.025 209.38 509.189 209.636 509.301 209.932C509.421 210.228 509.481 210.556 509.481 210.916C509.481 211.244 509.433 211.548 509.337 211.828C509.249 212.108 509.125 212.376 508.965 212.632C508.805 212.88 508.609 213.124 508.377 213.364C508.153 213.604 507.909 213.844 507.645 214.084L505.389 216.112H509.793V217ZM513.936 213.256C513.936 213.84 513.876 214.404 513.756 214.948C513.644 215.484 513.488 215.984 513.288 216.448C513.096 216.912 512.868 217.332 512.604 217.708C512.34 218.084 512.06 218.396 511.764 218.644H510.852C511.18 218.356 511.476 218.02 511.74 217.636C512.012 217.252 512.244 216.844 512.436 216.412C512.628 215.98 512.776 215.54 512.88 215.092C512.984 214.644 513.036 214.208 513.036 213.784V212.752C513.036 212.336 512.984 211.904 512.88 211.456C512.776 211.008 512.628 210.568 512.436 210.136C512.252 209.704 512.024 209.296 511.752 208.912C511.488 208.528 511.188 208.184 510.852 207.88H511.764C512.068 208.144 512.352 208.464 512.616 208.84C512.88 209.216 513.108 209.636 513.3 210.1C513.5 210.556 513.656 211.052 513.768 211.588C513.88 212.124 513.936 212.68 513.936 213.256Z" fill="black"/>
<path d="M566.36 22L565.52 19.528H562.136L561.296 22H560.276L563.204 13.624H564.488L567.416 22H566.36ZM563.852 14.56H563.792L562.376 18.64H565.268L563.852 14.56ZM569.363 16.648H568.355V15.808H569.363V14.56C569.363 14.128 569.475 13.78 569.699 13.516C569.923 13.252 570.263 13.12 570.719 13.12H571.655V13.96H570.323V15.808H571.655V16.648H570.323V22H569.363V16.648ZM574.606 22C574.27 22 574.014 21.908 573.838 21.724C573.67 21.532 573.586 21.284 573.586 20.98V16.648H572.566V15.808H573.142C573.35 15.808 573.49 15.768 573.562 15.688C573.642 15.6 573.682 15.452 573.682 15.244V14.092H574.546V15.808H575.902V16.648H574.546V21.16H575.806V22H574.606ZM580.046 22.144C579.622 22.144 579.238 22.068 578.894 21.916C578.558 21.764 578.266 21.548 578.018 21.268C577.778 20.98 577.59 20.64 577.454 20.248C577.326 19.848 577.262 19.4 577.262 18.904C577.262 18.416 577.326 17.972 577.454 17.572C577.59 17.172 577.778 16.832 578.018 16.552C578.266 16.264 578.558 16.044 578.894 15.892C579.238 15.74 579.622 15.664 580.046 15.664C580.462 15.664 580.834 15.74 581.162 15.892C581.49 16.044 581.77 16.256 582.002 16.528C582.234 16.792 582.41 17.108 582.53 17.476C582.658 17.844 582.722 18.248 582.722 18.688V19.144H578.27V19.432C578.27 19.696 578.31 19.944 578.39 20.176C578.478 20.4 578.598 20.596 578.75 20.764C578.91 20.932 579.102 21.064 579.326 21.16C579.558 21.256 579.818 21.304 580.106 21.304C580.498 21.304 580.838 21.212 581.126 21.028C581.422 20.844 581.65 20.58 581.81 20.236L582.494 20.728C582.294 21.152 581.982 21.496 581.558 21.76C581.134 22.016 580.63 22.144 580.046 22.144ZM580.046 16.468C579.782 16.468 579.542 16.516 579.326 16.612C579.11 16.7 578.922 16.828 578.762 16.996C578.61 17.164 578.49 17.364 578.402 17.596C578.314 17.82 578.27 18.068 578.27 18.34V18.424H581.69V18.292C581.69 17.74 581.538 17.3 581.234 16.972C580.938 16.636 580.542 16.468 580.046 16.468ZM584.624 22V15.808H585.584V16.948H585.644C585.756 16.652 585.956 16.388 586.244 16.156C586.532 15.924 586.928 15.808 587.432 15.808H587.804V16.768H587.24C586.72 16.768 586.312 16.868 586.016 17.068C585.728 17.26 585.584 17.504 585.584 17.8V22H584.624ZM597.846 18.208H593.61V22H592.602V13.624H593.61V17.32H597.846V13.624H598.854V22H597.846V18.208ZM601.119 18.868V17.836H604.251V18.868H601.119ZM611.644 22.684C611.644 23.324 611.392 23.792 610.888 24.088C610.392 24.392 609.644 24.544 608.644 24.544C607.676 24.544 606.98 24.412 606.556 24.148C606.132 23.884 605.92 23.508 605.92 23.02C605.92 22.684 606.008 22.42 606.184 22.228C606.36 22.044 606.6 21.908 606.904 21.82V21.688C606.536 21.512 606.352 21.224 606.352 20.824C606.352 20.512 606.452 20.276 606.652 20.116C606.852 19.948 607.108 19.824 607.42 19.744V19.696C607.052 19.52 606.764 19.268 606.556 18.94C606.356 18.612 606.256 18.232 606.256 17.8C606.256 17.488 606.312 17.2 606.424 16.936C606.536 16.672 606.692 16.448 606.892 16.264C607.1 16.072 607.344 15.924 607.624 15.82C607.912 15.716 608.232 15.664 608.584 15.664C609.024 15.664 609.416 15.744 609.76 15.904V15.796C609.76 15.556 609.816 15.36 609.928 15.208C610.04 15.048 610.224 14.968 610.48 14.968H611.404V15.808H610.228V16.204C610.452 16.396 610.624 16.628 610.744 16.9C610.872 17.164 610.936 17.464 610.936 17.8C610.936 18.112 610.88 18.4 610.768 18.664C610.656 18.928 610.496 19.156 610.288 19.348C610.088 19.532 609.844 19.676 609.556 19.78C609.268 19.884 608.948 19.936 608.596 19.936C608.396 19.936 608.196 19.916 607.996 19.876C607.788 19.932 607.6 20.016 607.432 20.128C607.264 20.232 607.18 20.38 607.18 20.572C607.18 20.756 607.268 20.88 607.444 20.944C607.62 21.008 607.848 21.04 608.128 21.04H609.448C610.216 21.04 610.772 21.188 611.116 21.484C611.468 21.772 611.644 22.172 611.644 22.684ZM610.744 22.756C610.744 22.508 610.648 22.308 610.456 22.156C610.272 22.012 609.94 21.94 609.46 21.94H607.396C607.012 22.116 606.82 22.396 606.82 22.78C606.82 23.052 606.92 23.284 607.12 23.476C607.328 23.668 607.676 23.764 608.164 23.764H609.052C609.588 23.764 610.004 23.68 610.3 23.512C610.596 23.344 610.744 23.092 610.744 22.756ZM608.596 19.168C609.004 19.168 609.328 19.072 609.568 18.88C609.808 18.68 609.928 18.376 609.928 17.968V17.632C609.928 17.224 609.808 16.924 609.568 16.732C609.328 16.532 609.004 16.432 608.596 16.432C608.188 16.432 607.864 16.532 607.624 16.732C607.384 16.924 607.264 17.224 607.264 17.632V17.968C607.264 18.376 607.384 18.68 607.624 18.88C607.864 19.072 608.188 19.168 608.596 19.168ZM617.548 22C617.188 22 616.928 21.904 616.768 21.712C616.616 21.52 616.52 21.28 616.48 20.992H616.42C616.284 21.376 616.06 21.664 615.748 21.856C615.436 22.048 615.064 22.144 614.632 22.144C613.976 22.144 613.464 21.976 613.096 21.64C612.736 21.304 612.556 20.848 612.556 20.272C612.556 19.688 612.768 19.24 613.192 18.928C613.624 18.616 614.292 18.46 615.196 18.46H616.42V17.848C616.42 17.408 616.3 17.072 616.06 16.84C615.82 16.608 615.452 16.492 614.956 16.492C614.58 16.492 614.264 16.576 614.008 16.744C613.76 16.912 613.552 17.136 613.384 17.416L612.808 16.876C612.976 16.54 613.244 16.256 613.612 16.024C613.98 15.784 614.444 15.664 615.004 15.664C615.756 15.664 616.34 15.848 616.756 16.216C617.172 16.584 617.38 17.096 617.38 17.752V21.16H618.088V22H617.548ZM614.788 21.328C615.028 21.328 615.248 21.3 615.448 21.244C615.648 21.188 615.82 21.108 615.964 21.004C616.108 20.9 616.22 20.78 616.3 20.644C616.38 20.508 616.42 20.36 616.42 20.2V19.18H615.148C614.596 19.18 614.192 19.26 613.936 19.42C613.688 19.58 613.564 19.812 613.564 20.116V20.368C613.564 20.672 613.672 20.908 613.888 21.076C614.112 21.244 614.412 21.328 614.788 21.328ZM621.147 22C620.811 22 620.555 21.908 620.379 21.724C620.211 21.532 620.127 21.284 620.127 20.98V16.648H619.107V15.808H619.683C619.891 15.808 620.031 15.768 620.103 15.688C620.183 15.6 620.223 15.452 620.223 15.244V14.092H621.087V15.808H622.443V16.648H621.087V21.16H622.347V22H621.147ZM626.587 22.144C626.163 22.144 625.779 22.068 625.435 21.916C625.099 21.764 624.807 21.548 624.559 21.268C624.319 20.98 624.131 20.64 623.995 20.248C623.867 19.848 623.803 19.4 623.803 18.904C623.803 18.416 623.867 17.972 623.995 17.572C624.131 17.172 624.319 16.832 624.559 16.552C624.807 16.264 625.099 16.044 625.435 15.892C625.779 15.74 626.163 15.664 626.587 15.664C627.003 15.664 627.375 15.74 627.703 15.892C628.031 16.044 628.311 16.256 628.543 16.528C628.775 16.792 628.951 17.108 629.071 17.476C629.199 17.844 629.263 18.248 629.263 18.688V19.144H624.811V19.432C624.811 19.696 624.851 19.944 624.931 20.176C625.019 20.4 625.139 20.596 625.291 20.764C625.451 20.932 625.643 21.064 625.867 21.16C626.099 21.256 626.359 21.304 626.647 21.304C627.039 21.304 627.379 21.212 627.667 21.028C627.963 20.844 628.191 20.58 628.351 20.236L629.035 20.728C628.835 21.152 628.523 21.496 628.099 21.76C627.675 22.016 627.171 22.144 626.587 22.144ZM626.587 16.468C626.323 16.468 626.083 16.516 625.867 16.612C625.651 16.7 625.463 16.828 625.303 16.996C625.151 17.164 625.031 17.364 624.943 17.596C624.855 17.82 624.811 18.068 624.811 18.34V18.424H628.231V18.292C628.231 17.74 628.079 17.3 627.775 16.972C627.479 16.636 627.083 16.468 626.587 16.468Z" fill="black"/>
<path d="M378.468 22.144C377.788 22.144 377.208 22.016 376.728 21.76C376.248 21.496 375.84 21.136 375.504 20.68L376.248 20.056C376.544 20.448 376.872 20.748 377.232 20.956C377.592 21.156 378.016 21.256 378.504 21.256C379.104 21.256 379.56 21.112 379.872 20.824C380.192 20.536 380.352 20.152 380.352 19.672C380.352 19.272 380.232 18.964 379.992 18.748C379.752 18.532 379.356 18.36 378.804 18.232L378.12 18.076C377.352 17.9 376.764 17.636 376.356 17.284C375.956 16.924 375.756 16.42 375.756 15.772C375.756 15.404 375.824 15.076 375.96 14.788C376.096 14.5 376.284 14.26 376.524 14.068C376.772 13.876 377.064 13.732 377.4 13.636C377.744 13.532 378.12 13.48 378.528 13.48C379.16 13.48 379.7 13.596 380.148 13.828C380.604 14.06 380.988 14.4 381.3 14.848L380.544 15.4C380.312 15.08 380.032 14.828 379.704 14.644C379.376 14.46 378.968 14.368 378.48 14.368C377.944 14.368 377.52 14.484 377.208 14.716C376.904 14.94 376.752 15.28 376.752 15.736C376.752 16.136 376.88 16.44 377.136 16.648C377.4 16.848 377.796 17.008 378.324 17.128L379.008 17.284C379.832 17.468 380.428 17.748 380.796 18.124C381.164 18.5 381.348 19 381.348 19.624C381.348 20.008 381.28 20.356 381.144 20.668C381.016 20.98 380.828 21.244 380.58 21.46C380.332 21.676 380.028 21.844 379.668 21.964C379.316 22.084 378.916 22.144 378.468 22.144ZM384.681 22C384.345 22 384.089 21.908 383.913 21.724C383.745 21.532 383.661 21.284 383.661 20.98V16.648H382.641V15.808H383.217C383.425 15.808 383.565 15.768 383.637 15.688C383.717 15.6 383.757 15.452 383.757 15.244V14.092H384.621V15.808H385.977V16.648H384.621V21.16H385.881V22H384.681ZM392.34 22C391.98 22 391.72 21.904 391.56 21.712C391.408 21.52 391.312 21.28 391.272 20.992H391.212C391.076 21.376 390.852 21.664 390.54 21.856C390.228 22.048 389.856 22.144 389.424 22.144C388.768 22.144 388.256 21.976 387.888 21.64C387.528 21.304 387.348 20.848 387.348 20.272C387.348 19.688 387.56 19.24 387.984 18.928C388.416 18.616 389.084 18.46 389.988 18.46H391.212V17.848C391.212 17.408 391.092 17.072 390.852 16.84C390.612 16.608 390.244 16.492 389.748 16.492C389.372 16.492 389.056 16.576 388.8 16.744C388.552 16.912 388.344 17.136 388.176 17.416L387.6 16.876C387.768 16.54 388.036 16.256 388.404 16.024C388.772 15.784 389.236 15.664 389.796 15.664C390.548 15.664 391.132 15.848 391.548 16.216C391.964 16.584 392.172 17.096 392.172 17.752V21.16H392.88V22H392.34ZM389.58 21.328C389.82 21.328 390.04 21.3 390.24 21.244C390.44 21.188 390.612 21.108 390.756 21.004C390.9 20.9 391.012 20.78 391.092 20.644C391.172 20.508 391.212 20.36 391.212 20.2V19.18H389.94C389.388 19.18 388.984 19.26 388.728 19.42C388.48 19.58 388.356 19.812 388.356 20.116V20.368C388.356 20.672 388.464 20.908 388.68 21.076C388.904 21.244 389.204 21.328 389.58 21.328ZM394.57 22V15.808H395.53V16.948H395.59C395.702 16.652 395.902 16.388 396.19 16.156C396.478 15.924 396.874 15.808 397.378 15.808H397.75V16.768H397.186C396.666 16.768 396.258 16.868 395.962 17.068C395.674 17.26 395.53 17.504 395.53 17.8V22H394.57ZM400.711 22C400.375 22 400.119 21.908 399.943 21.724C399.775 21.532 399.691 21.284 399.691 20.98V16.648H398.671V15.808H399.247C399.455 15.808 399.595 15.768 399.667 15.688C399.747 15.6 399.787 15.452 399.787 15.244V14.092H400.651V15.808H402.007V16.648H400.651V21.16H401.911V22H400.711ZM404.35 14.356C404.142 14.356 403.99 14.308 403.894 14.212C403.806 14.108 403.762 13.976 403.762 13.816V13.66C403.762 13.5 403.806 13.372 403.894 13.276C403.99 13.172 404.142 13.12 404.35 13.12C404.558 13.12 404.706 13.172 404.794 13.276C404.89 13.372 404.938 13.5 404.938 13.66V13.816C404.938 13.976 404.89 14.108 404.794 14.212C404.706 14.308 404.558 14.356 404.35 14.356ZM403.87 15.808H404.83V22H403.87V15.808ZM407.19 22V15.808H408.15V16.816H408.198C408.35 16.464 408.562 16.184 408.834 15.976C409.114 15.768 409.486 15.664 409.95 15.664C410.59 15.664 411.094 15.872 411.462 16.288C411.838 16.696 412.026 17.276 412.026 18.028V22H411.066V18.196C411.066 17.084 410.598 16.528 409.662 16.528C409.47 16.528 409.282 16.552 409.098 16.6C408.922 16.648 408.762 16.72 408.618 16.816C408.474 16.912 408.358 17.036 408.27 17.188C408.19 17.332 408.15 17.504 408.15 17.704V22H407.19ZM419.55 22.684C419.55 23.324 419.298 23.792 418.794 24.088C418.298 24.392 417.55 24.544 416.55 24.544C415.582 24.544 414.886 24.412 414.462 24.148C414.038 23.884 413.826 23.508 413.826 23.02C413.826 22.684 413.914 22.42 414.09 22.228C414.266 22.044 414.506 21.908 414.81 21.82V21.688C414.442 21.512 414.258 21.224 414.258 20.824C414.258 20.512 414.358 20.276 414.558 20.116C414.758 19.948 415.014 19.824 415.326 19.744V19.696C414.958 19.52 414.67 19.268 414.462 18.94C414.262 18.612 414.162 18.232 414.162 17.8C414.162 17.488 414.218 17.2 414.33 16.936C414.442 16.672 414.598 16.448 414.798 16.264C415.006 16.072 415.25 15.924 415.53 15.82C415.818 15.716 416.138 15.664 416.49 15.664C416.93 15.664 417.322 15.744 417.666 15.904V15.796C417.666 15.556 417.722 15.36 417.834 15.208C417.946 15.048 418.13 14.968 418.386 14.968H419.31V15.808H418.134V16.204C418.358 16.396 418.53 16.628 418.65 16.9C418.778 17.164 418.842 17.464 418.842 17.8C418.842 18.112 418.786 18.4 418.674 18.664C418.562 18.928 418.402 19.156 418.194 19.348C417.994 19.532 417.75 19.676 417.462 19.78C417.174 19.884 416.854 19.936 416.502 19.936C416.302 19.936 416.102 19.916 415.902 19.876C415.694 19.932 415.506 20.016 415.338 20.128C415.17 20.232 415.086 20.38 415.086 20.572C415.086 20.756 415.174 20.88 415.35 20.944C415.526 21.008 415.754 21.04 416.034 21.04H417.354C418.122 21.04 418.678 21.188 419.022 21.484C419.374 21.772 419.55 22.172 419.55 22.684ZM418.65 22.756C418.65 22.508 418.554 22.308 418.362 22.156C418.178 22.012 417.846 21.94 417.366 21.94H415.302C414.918 22.116 414.726 22.396 414.726 22.78C414.726 23.052 414.826 23.284 415.026 23.476C415.234 23.668 415.582 23.764 416.07 23.764H416.958C417.494 23.764 417.91 23.68 418.206 23.512C418.502 23.344 418.65 23.092 418.65 22.756ZM416.502 19.168C416.91 19.168 417.234 19.072 417.474 18.88C417.714 18.68 417.834 18.376 417.834 17.968V17.632C417.834 17.224 417.714 16.924 417.474 16.732C417.234 16.532 416.91 16.432 416.502 16.432C416.094 16.432 415.77 16.532 415.53 16.732C415.29 16.924 415.17 17.224 415.17 17.632V17.968C415.17 18.376 415.29 18.68 415.53 18.88C415.77 19.072 416.094 19.168 416.502 19.168ZM428.646 22C428.286 22 428.026 21.904 427.866 21.712C427.714 21.52 427.618 21.28 427.578 20.992H427.518C427.382 21.376 427.158 21.664 426.846 21.856C426.534 22.048 426.162 22.144 425.73 22.144C425.074 22.144 424.562 21.976 424.194 21.64C423.834 21.304 423.654 20.848 423.654 20.272C423.654 19.688 423.866 19.24 424.29 18.928C424.722 18.616 425.39 18.46 426.294 18.46H427.518V17.848C427.518 17.408 427.398 17.072 427.158 16.84C426.918 16.608 426.55 16.492 426.054 16.492C425.678 16.492 425.362 16.576 425.106 16.744C424.858 16.912 424.65 17.136 424.482 17.416L423.906 16.876C424.074 16.54 424.342 16.256 424.71 16.024C425.078 15.784 425.542 15.664 426.102 15.664C426.854 15.664 427.438 15.848 427.854 16.216C428.27 16.584 428.478 17.096 428.478 17.752V21.16H429.186V22H428.646ZM425.886 21.328C426.126 21.328 426.346 21.3 426.546 21.244C426.746 21.188 426.918 21.108 427.062 21.004C427.206 20.9 427.318 20.78 427.398 20.644C427.478 20.508 427.518 20.36 427.518 20.2V19.18H426.246C425.694 19.18 425.29 19.26 425.034 19.42C424.786 19.58 424.662 19.812 424.662 20.116V20.368C424.662 20.672 424.77 20.908 424.986 21.076C425.21 21.244 425.51 21.328 425.886 21.328ZM430.876 22V15.808H431.836V16.816H431.884C431.956 16.656 432.036 16.508 432.124 16.372C432.22 16.228 432.332 16.104 432.46 16C432.596 15.896 432.752 15.816 432.928 15.76C433.104 15.696 433.312 15.664 433.552 15.664C433.96 15.664 434.336 15.764 434.68 15.964C435.024 16.156 435.28 16.476 435.448 16.924H435.472C435.584 16.588 435.792 16.296 436.096 16.048C436.408 15.792 436.828 15.664 437.356 15.664C437.988 15.664 438.48 15.872 438.832 16.288C439.192 16.696 439.372 17.276 439.372 18.028V22H438.412V18.196C438.412 17.644 438.304 17.228 438.088 16.948C437.872 16.668 437.528 16.528 437.056 16.528C436.864 16.528 436.68 16.552 436.504 16.6C436.336 16.648 436.184 16.72 436.048 16.816C435.912 16.912 435.804 17.036 435.724 17.188C435.644 17.332 435.604 17.504 435.604 17.704V22H434.644V18.196C434.644 17.644 434.536 17.228 434.32 16.948C434.104 16.668 433.768 16.528 433.312 16.528C433.12 16.528 432.936 16.552 432.76 16.6C432.584 16.648 432.428 16.72 432.292 16.816C432.156 16.912 432.044 17.036 431.956 17.188C431.876 17.332 431.836 17.504 431.836 17.704V22H430.876ZM441.673 15.808H442.633V16.816H442.681C442.841 16.424 443.073 16.136 443.377 15.952C443.689 15.76 444.061 15.664 444.493 15.664C444.877 15.664 445.225 15.74 445.537 15.892C445.849 16.044 446.113 16.26 446.329 16.54C446.553 16.82 446.721 17.16 446.833 17.56C446.953 17.96 447.013 18.408 447.013 18.904C447.013 19.4 446.953 19.848 446.833 20.248C446.721 20.648 446.553 20.988 446.329 21.268C446.113 21.548 445.849 21.764 445.537 21.916C445.225 22.068 444.877 22.144 444.493 22.144C443.653 22.144 443.049 21.76 442.681 20.992H442.633V24.4H441.673V15.808ZM444.229 21.28C444.773 21.28 445.201 21.112 445.513 20.776C445.825 20.432 445.981 19.984 445.981 19.432V18.376C445.981 17.824 445.825 17.38 445.513 17.044C445.201 16.7 444.773 16.528 444.229 16.528C444.013 16.528 443.805 16.56 443.605 16.624C443.413 16.68 443.245 16.76 443.101 16.864C442.957 16.968 442.841 17.096 442.753 17.248C442.673 17.392 442.633 17.548 442.633 17.716V20.02C442.633 20.22 442.673 20.4 442.753 20.56C442.841 20.712 442.957 20.844 443.101 20.956C443.245 21.06 443.413 21.14 443.605 21.196C443.805 21.252 444.013 21.28 444.229 21.28ZM449.974 22C449.638 22 449.382 21.908 449.206 21.724C449.038 21.532 448.954 21.292 448.954 21.004V13.12H449.914V21.16H450.826V22H449.974ZM453.023 14.356C452.815 14.356 452.663 14.308 452.567 14.212C452.479 14.108 452.435 13.976 452.435 13.816V13.66C452.435 13.5 452.479 13.372 452.567 13.276C452.663 13.172 452.815 13.12 453.023 13.12C453.231 13.12 453.379 13.172 453.467 13.276C453.563 13.372 453.611 13.5 453.611 13.66V13.816C453.611 13.976 453.563 14.108 453.467 14.212C453.379 14.308 453.231 14.356 453.023 14.356ZM452.543 15.808H453.503V22H452.543V15.808ZM457.231 22C456.895 22 456.639 21.908 456.463 21.724C456.295 21.532 456.211 21.284 456.211 20.98V16.648H455.191V15.808H455.767C455.975 15.808 456.115 15.768 456.187 15.688C456.267 15.6 456.307 15.452 456.307 15.244V14.092H457.171V15.808H458.527V16.648H457.171V21.16H458.431V22H457.231ZM464.206 20.992H464.158C464.094 21.136 464.014 21.28 463.918 21.424C463.83 21.56 463.718 21.684 463.582 21.796C463.446 21.9 463.282 21.984 463.09 22.048C462.898 22.112 462.674 22.144 462.418 22.144C461.778 22.144 461.27 21.94 460.894 21.532C460.518 21.116 460.33 20.532 460.33 19.78V15.808H461.29V19.612C461.29 20.724 461.762 21.28 462.706 21.28C462.898 21.28 463.082 21.256 463.258 21.208C463.442 21.16 463.602 21.088 463.738 20.992C463.882 20.896 463.994 20.776 464.074 20.632C464.162 20.48 464.206 20.3 464.206 20.092V15.808H465.166V22H464.206V20.992ZM471.491 20.992H471.443C471.067 21.76 470.463 22.144 469.631 22.144C469.247 22.144 468.899 22.068 468.587 21.916C468.275 21.764 468.007 21.548 467.783 21.268C467.567 20.988 467.399 20.648 467.279 20.248C467.167 19.848 467.111 19.4 467.111 18.904C467.111 18.408 467.167 17.96 467.279 17.56C467.399 17.16 467.567 16.82 467.783 16.54C468.007 16.26 468.275 16.044 468.587 15.892C468.899 15.74 469.247 15.664 469.631 15.664C470.063 15.664 470.431 15.76 470.735 15.952C471.047 16.136 471.283 16.424 471.443 16.816H471.491V13.12H472.451V22H471.491V20.992ZM469.895 21.28C470.111 21.28 470.315 21.252 470.507 21.196C470.707 21.14 470.879 21.06 471.023 20.956C471.167 20.844 471.279 20.712 471.359 20.56C471.447 20.4 471.491 20.22 471.491 20.02V17.716C471.491 17.548 471.447 17.392 471.359 17.248C471.279 17.096 471.167 16.968 471.023 16.864C470.879 16.76 470.707 16.68 470.507 16.624C470.315 16.56 470.111 16.528 469.895 16.528C469.351 16.528 468.923 16.7 468.611 17.044C468.299 17.38 468.143 17.824 468.143 18.376V19.432C468.143 19.984 468.299 20.432 468.611 20.776C468.923 21.112 469.351 21.28 469.895 21.28ZM477.14 22.144C476.716 22.144 476.332 22.068 475.988 21.916C475.652 21.764 475.36 21.548 475.112 21.268C474.872 20.98 474.684 20.64 474.548 20.248C474.42 19.848 474.356 19.4 474.356 18.904C474.356 18.416 474.42 17.972 474.548 17.572C474.684 17.172 474.872 16.832 475.112 16.552C475.36 16.264 475.652 16.044 475.988 15.892C476.332 15.74 476.716 15.664 477.14 15.664C477.556 15.664 477.928 15.74 478.256 15.892C478.584 16.044 478.864 16.256 479.096 16.528C479.328 16.792 479.504 17.108 479.624 17.476C479.752 17.844 479.816 18.248 479.816 18.688V19.144H475.364V19.432C475.364 19.696 475.404 19.944 475.484 20.176C475.572 20.4 475.692 20.596 475.844 20.764C476.004 20.932 476.196 21.064 476.42 21.16C476.652 21.256 476.912 21.304 477.2 21.304C477.592 21.304 477.932 21.212 478.22 21.028C478.516 20.844 478.744 20.58 478.904 20.236L479.588 20.728C479.388 21.152 479.076 21.496 478.652 21.76C478.228 22.016 477.724 22.144 477.14 22.144ZM477.14 16.468C476.876 16.468 476.636 16.516 476.42 16.612C476.204 16.7 476.016 16.828 475.856 16.996C475.704 17.164 475.584 17.364 475.496 17.596C475.408 17.82 475.364 18.068 475.364 18.34V18.424H478.784V18.292C478.784 17.74 478.632 17.3 478.328 16.972C478.032 16.636 477.636 16.468 477.14 16.468Z" fill="black"/>
<path d="M531.5 2V338" stroke="#C1C7CD"/>
<circle cx="395" cy="74" r="20" fill="#A56EFF"/>
<path d="M541.354 74.3536C541.549 74.1583 541.549 73.8417 541.354 73.6465L538.172 70.4645C537.976 70.2692 537.66 70.2692 537.464 70.4645C537.269 70.6597 537.269 70.9763 537.464 71.1716L540.293 74L537.464 76.8284C537.269 77.0237 537.269 77.3403 537.464 77.5355C537.66 77.7308 537.976 77.7308 538.172 77.5355L541.354 74.3536ZM432 74.5L541 74.5L541 73.5L432 73.5L432 74.5Z" fill="black"/>
<path d="M541.354 224.354C541.549 224.158 541.549 223.842 541.354 223.646L538.172 220.464C537.976 220.269 537.66 220.269 537.464 220.464C537.269 220.66 537.269 220.976 537.464 221.172L540.293 224L537.464 226.828C537.269 227.024 537.269 227.34 537.464 227.536C537.66 227.731 537.976 227.731 538.172 227.536L541.354 224.354ZM481 224.5L541 224.5L541 223.5L481 223.5L481 224.5Z" fill="black"/>
<line x1="396" y1="74" x2="415" y2="74" stroke="white" stroke-width="2"/>
<line x1="583" y1="74" x2="600" y2="74" stroke="white" stroke-width="2"/>
<line x1="566" y1="226" x2="584" y2="226" stroke="white" stroke-width="2"/>
<path d="M481 224H468.746C465.985 224 463.746 221.761 463.746 219V79C463.746 76.2386 461.508 74 458.746 74H447" stroke="black"/>
<line x1="359.001" y1="0.500002" x2="689.002" y2="1.42179" stroke="#C1C7CD"/>
<line x1="358.999" y1="337.5" x2="688.999" y2="336.629" stroke="#C1C7CD"/>
</svg>
