<?xml version="1.0" encoding="utf-8" standalone="no"?>
<!DOCTYPE svg PUBLIC "-//W3C//DTD SVG 1.1//EN"
  "http://www.w3.org/Graphics/SVG/1.1/DTD/svg11.dtd">
<!-- Created with matplotlib (https://matplotlib.org/) -->
<svg height="305.2864pt" version="1.1" viewBox="0 0 359.8276 305.2864" width="359.8276pt" xmlns="http://www.w3.org/2000/svg" xmlns:xlink="http://www.w3.org/1999/xlink">
 <defs>
  <style type="text/css">
*{stroke-linecap:butt;stroke-linejoin:round;}
  </style>
 </defs>
 <g id="figure_1">
  <g id="patch_1">
   <path d="M 0 305.2864 
L 359.8276 305.2864 
L 359.8276 0 
L 0 0 
z
" style="fill:#ffffff;"/>
  </g>
  <g id="axes_1">
   <g id="line2d_1">
    <path clip-path="url(#p74b70d5997)" d="M 98.102 43.5608 
L 348.0825 43.5608 
" style="fill:none;stroke:#000000;stroke-linecap:square;stroke-width:2;"/>
   </g>
   <g id="line2d_2">
    <path clip-path="url(#p74b70d5997)" d="M 98.102 89.0118 
L 348.0825 89.0118 
" style="fill:none;stroke:#000000;stroke-linecap:square;stroke-width:2;"/>
   </g>
   <g id="line2d_3">
    <path clip-path="url(#p74b70d5997)" d="M 98.102 134.4628 
L 348.0825 134.4628 
" style="fill:none;stroke:#000000;stroke-linecap:square;stroke-width:2;"/>
   </g>
   <g id="line2d_4">
    <path clip-path="url(#p74b70d5997)" d="M 98.102 179.9138 
L 348.0825 179.9138 
" style="fill:none;stroke:#000000;stroke-linecap:square;stroke-width:2;"/>
   </g>
   <g id="line2d_5">
    <path clip-path="url(#p74b70d5997)" d="M 98.102 225.3648 
L 348.0825 225.3648 
" style="fill:none;stroke:#000000;stroke-linecap:square;stroke-width:2;"/>
   </g>
   <g id="line2d_6">
    <path clip-path="url(#p74b70d5997)" d="M 98.102 269.338642 
L 348.0825 269.338642 
" style="fill:none;stroke:#778899;stroke-linecap:square;stroke-width:2;"/>
   </g>
   <g id="line2d_7">
    <path clip-path="url(#p74b70d5997)" d="M 98.102 272.292957 
L 348.0825 272.292957 
" style="fill:none;stroke:#778899;stroke-linecap:square;stroke-width:2;"/>
   </g>
   <g id="line2d_8">
    <path clip-path="url(#p74b70d5997)" d="M 166.2785 225.3648 
L 166.2785 43.5608 
" style="fill:none;stroke:#6fa4ff;stroke-linecap:square;stroke-width:2;"/>
   </g>
   <g id="line2d_9">
    <path clip-path="url(#p74b70d5997)" d="M 211.7295 225.3648 
L 211.7295 179.9138 
" style="fill:none;stroke:#6fa4ff;stroke-linecap:square;stroke-width:2;"/>
   </g>
   <g id="line2d_10">
    <path clip-path="url(#p74b70d5997)" d="M 257.1805 179.9138 
L 257.1805 89.0118 
" style="fill:none;stroke:#6fa4ff;stroke-linecap:square;stroke-width:2;"/>
   </g>
   <g id="line2d_11">
    <path clip-path="url(#p74b70d5997)" d="M 302.6315 134.4628 
L 302.6315 89.0118 
" style="fill:none;stroke:#6fa4ff;stroke-linecap:square;stroke-width:2;"/>
   </g>
   <g id="line2d_12">
    <path clip-path="url(#p74b70d5997)" d="M 125.3726 275.3609 
L 129.9177 266.2707 
" style="fill:none;stroke:#778899;stroke-linecap:square;stroke-width:1.5;"/>
   </g>
   <g id="patch_2">
    <path clip-path="url(#p74b70d5997)" d="M 106.055925 58.332375 
L 135.599075 58.332375 
L 135.599075 28.789225 
L 106.055925 28.789225 
z
" style="fill:#6fa4ff;"/>
   </g>
   <g id="patch_3">
    <path clip-path="url(#p74b70d5997)" d="M 166.2785 47.992272 
C 167.45374 47.992272 168.581004 47.525345 169.412024 46.694324 
C 170.243045 45.863304 170.709973 44.73604 170.709973 43.5608 
C 170.709973 42.38556 170.243045 41.258296 169.412024 40.427276 
C 168.581004 39.596255 167.45374 39.129327 166.2785 39.129327 
C 165.10326 39.129327 163.975996 39.596255 163.144976 40.427276 
C 162.313955 41.258296 161.847027 42.38556 161.847027 43.5608 
C 161.847027 44.73604 162.313955 45.863304 163.144976 46.694324 
C 163.975996 47.525345 165.10326 47.992272 166.2785 47.992272 
z
" style="fill:#6fa4ff;stroke:#6fa4ff;stroke-linejoin:miter;stroke-width:1.5;"/>
   </g>
   <g id="patch_4">
    <path clip-path="url(#p74b70d5997)" d="M 166.2785 235.704902 
C 169.020727 235.704902 171.651009 234.615404 173.590057 232.676357 
C 175.529104 230.737309 176.618603 228.107027 176.618603 225.3648 
C 176.618603 222.622573 175.529104 219.992291 173.590057 218.053243 
C 171.651009 216.114196 169.020727 215.024697 166.2785 215.024697 
C 163.536273 215.024697 160.905991 216.114196 158.966943 218.053243 
C 157.027896 219.992291 155.938398 222.622573 155.938398 225.3648 
C 155.938398 228.107027 157.027896 230.737309 158.966943 232.676357 
C 160.905991 234.615404 163.536273 235.704902 166.2785 235.704902 
z
" style="fill:#6fa4ff;stroke:#6fa4ff;stroke-linejoin:miter;stroke-width:2;"/>
   </g>
   <g id="patch_5">
    <path clip-path="url(#p74b70d5997)" d="M 211.7295 229.796272 
C 212.90474 229.796272 214.032004 229.329345 214.863024 228.498324 
C 215.694045 227.667304 216.160973 226.54004 216.160973 225.3648 
C 216.160973 224.18956 215.694045 223.062296 214.863024 222.231276 
C 214.032004 221.400255 212.90474 220.933327 211.7295 220.933327 
C 210.55426 220.933327 209.426996 221.400255 208.595976 222.231276 
C 207.764955 223.062296 207.298027 224.18956 207.298027 225.3648 
C 207.298027 226.54004 207.764955 227.667304 208.595976 228.498324 
C 209.426996 229.329345 210.55426 229.796272 211.7295 229.796272 
z
" style="fill:#6fa4ff;stroke:#6fa4ff;stroke-linejoin:miter;stroke-width:1.5;"/>
   </g>
   <g id="patch_6">
    <path clip-path="url(#p74b70d5997)" d="M 211.7295 190.253902 
C 214.471727 190.253902 217.102009 189.164404 219.041057 187.225357 
C 220.980104 185.286309 222.069603 182.656027 222.069603 179.9138 
C 222.069603 177.171573 220.980104 174.541291 219.041057 172.602243 
C 217.102009 170.663196 214.471727 169.573697 211.7295 169.573697 
C 208.987273 169.573697 206.356991 170.663196 204.417943 172.602243 
C 202.478896 174.541291 201.389398 177.171573 201.389398 179.9138 
C 201.389398 182.656027 202.478896 185.286309 204.417943 187.225357 
C 206.356991 189.164404 208.987273 190.253902 211.7295 190.253902 
z
" style="fill:#6fa4ff;stroke:#6fa4ff;stroke-linejoin:miter;stroke-width:2;"/>
   </g>
   <g id="patch_7">
    <path clip-path="url(#p74b70d5997)" d="M 257.1805 184.345272 
C 258.35574 184.345272 259.483004 183.878345 260.314024 183.047324 
C 261.145045 182.216304 261.611972 181.08904 261.611972 179.9138 
C 261.611972 178.73856 261.145045 177.611296 260.314024 176.780276 
C 259.483004 175.949255 258.35574 175.482327 257.1805 175.482327 
C 256.00526 175.482327 254.877996 175.949255 254.046976 176.780276 
C 253.215955 177.611296 252.749027 178.73856 252.749027 179.9138 
C 252.749027 181.08904 253.215955 182.216304 254.046976 183.047324 
C 254.877996 183.878345 256.00526 184.345272 257.1805 184.345272 
z
" style="fill:#6fa4ff;stroke:#6fa4ff;stroke-linejoin:miter;stroke-width:1.5;"/>
   </g>
   <g id="patch_8">
    <path clip-path="url(#p74b70d5997)" d="M 257.1805 99.351902 
C 259.922727 99.351902 262.553009 98.262404 264.492057 96.323357 
C 266.431104 94.384309 267.520602 91.754027 267.520602 89.0118 
C 267.520602 86.269573 266.431104 83.639291 264.492057 81.700243 
C 262.553009 79.761196 259.922727 78.671697 257.1805 78.671697 
C 254.438273 78.671697 251.807991 79.761196 249.868943 81.700243 
C 247.929896 83.639291 246.840397 86.269573 246.840397 89.0118 
C 246.840397 91.754027 247.929896 94.384309 249.868943 96.323357 
C 251.807991 98.262404 254.438273 99.351902 257.1805 99.351902 
z
" style="fill:#6fa4ff;stroke:#6fa4ff;stroke-linejoin:miter;stroke-width:2;"/>
   </g>
   <g id="patch_9">
    <path clip-path="url(#p74b70d5997)" d="M 302.6315 93.443272 
C 303.80674 93.443272 304.934004 92.976345 305.765024 92.145324 
C 306.596045 91.314304 307.062973 90.18704 307.062973 89.0118 
C 307.062973 87.83656 306.596045 86.709296 305.765024 85.878276 
C 304.934004 85.047255 303.80674 84.580327 302.6315 84.580327 
C 301.45626 84.580327 300.328996 85.047255 299.497976 85.878276 
C 298.666955 86.709296 298.200028 87.83656 298.200028 89.0118 
C 298.200028 90.18704 298.666955 91.314304 299.497976 92.145324 
C 300.328996 92.976345 301.45626 93.443272 302.6315 93.443272 
z
" style="fill:#6fa4ff;stroke:#6fa4ff;stroke-linejoin:miter;stroke-width:1.5;"/>
   </g>
   <g id="patch_10">
    <path clip-path="url(#p74b70d5997)" d="M 302.6315 144.802902 
C 305.373727 144.802902 308.004009 143.713404 309.943057 141.774357 
C 311.882104 139.835309 312.971603 137.205027 312.971603 134.4628 
C 312.971603 131.720573 311.882104 129.090291 309.943057 127.151243 
C 308.004009 125.212196 305.373727 124.122697 302.6315 124.122697 
C 299.889273 124.122697 297.258991 125.212196 295.319943 127.151243 
C 293.380896 129.090291 292.291398 131.720573 292.291398 134.4628 
C 292.291398 137.205027 293.380896 139.835309 295.319943 141.774357 
C 297.258991 143.713404 299.889273 144.802902 302.6315 144.802902 
z
" style="fill:#6fa4ff;stroke:#6fa4ff;stroke-linejoin:miter;stroke-width:2;"/>
   </g>
   <g id="line2d_13">
    <path clip-path="url(#p74b70d5997)" d="M 166.2785 231.27343 
L 166.2785 219.45617 
" style="fill:none;stroke:#ffffff;stroke-linecap:square;stroke-width:2;"/>
   </g>
   <g id="line2d_14">
    <path clip-path="url(#p74b70d5997)" d="M 160.36987 225.3648 
L 172.18713 225.3648 
" style="fill:none;stroke:#ffffff;stroke-linecap:square;stroke-width:2;"/>
   </g>
   <g id="line2d_15">
    <path clip-path="url(#p74b70d5997)" d="M 211.7295 185.82243 
L 211.7295 174.00517 
" style="fill:none;stroke:#ffffff;stroke-linecap:square;stroke-width:2;"/>
   </g>
   <g id="line2d_16">
    <path clip-path="url(#p74b70d5997)" d="M 205.82087 179.9138 
L 217.63813 179.9138 
" style="fill:none;stroke:#ffffff;stroke-linecap:square;stroke-width:2;"/>
   </g>
   <g id="line2d_17">
    <path clip-path="url(#p74b70d5997)" d="M 257.1805 94.92043 
L 257.1805 83.10317 
" style="fill:none;stroke:#ffffff;stroke-linecap:square;stroke-width:2;"/>
   </g>
   <g id="line2d_18">
    <path clip-path="url(#p74b70d5997)" d="M 251.27187 89.0118 
L 263.08913 89.0118 
" style="fill:none;stroke:#ffffff;stroke-linecap:square;stroke-width:2;"/>
   </g>
   <g id="line2d_19">
    <path clip-path="url(#p74b70d5997)" d="M 302.6315 140.37143 
L 302.6315 128.55417 
" style="fill:none;stroke:#ffffff;stroke-linecap:square;stroke-width:2;"/>
   </g>
   <g id="line2d_20">
    <path clip-path="url(#p74b70d5997)" d="M 296.72287 134.4628 
L 308.54013 134.4628 
" style="fill:none;stroke:#ffffff;stroke-linecap:square;stroke-width:2;"/>
   </g>
   <g id="text_1">
    <g clip-path="url(#p74b70d5997)">
     <!-- $H$ -->
     <defs>
      <path d="M 16.890625 72.90625 
L 26.8125 72.90625 
L 21 43.015625 
L 56.78125 43.015625 
L 62.59375 72.90625 
L 72.515625 72.90625 
L 58.296875 0 
L 48.390625 0 
L 55.171875 34.71875 
L 19.390625 34.71875 
L 12.59375 0 
L 2.6875 0 
z
" id="DejaVuSans-Oblique-72"/>
     </defs>
     <g transform="translate(115.8875 47.147987)scale(0.13 -0.13)">
      <use transform="translate(0 0.09375)" xlink:href="#DejaVuSans-Oblique-72"/>
     </g>
    </g>
   </g>
   <g id="text_2">
    <g clip-path="url(#p74b70d5997)">
     <!-- $q_{0}$ -->
     <defs>
      <path d="M 41.703125 8.203125 
Q 38.09375 3.46875 33.171875 1.015625 
Q 28.265625 -1.421875 22.3125 -1.421875 
Q 14.015625 -1.421875 9.296875 4.171875 
Q 4.59375 9.765625 4.59375 19.578125 
Q 4.59375 27.484375 7.5 34.859375 
Q 10.40625 42.234375 15.828125 48.09375 
Q 19.34375 51.90625 23.90625 53.953125 
Q 28.46875 56 33.5 56 
Q 39.546875 56 43.453125 53.609375 
Q 47.359375 51.21875 49.125 46.390625 
L 50.6875 54.59375 
L 59.71875 54.59375 
L 45.125 -20.609375 
L 36.078125 -20.609375 
z
M 13.921875 20.90625 
Q 13.921875 13.671875 16.9375 9.890625 
Q 19.96875 6.109375 25.6875 6.109375 
Q 34.1875 6.109375 40.1875 14.234375 
Q 46.1875 22.359375 46.1875 33.984375 
Q 46.1875 41.015625 43.078125 44.75 
Q 39.984375 48.484375 34.1875 48.484375 
Q 29.9375 48.484375 26.3125 46.5 
Q 22.703125 44.53125 20.015625 40.71875 
Q 17.1875 36.71875 15.546875 31.34375 
Q 13.921875 25.984375 13.921875 20.90625 
z
" id="DejaVuSans-Oblique-113"/>
      <path d="M 31.78125 66.40625 
Q 24.171875 66.40625 20.328125 58.90625 
Q 16.5 51.421875 16.5 36.375 
Q 16.5 21.390625 20.328125 13.890625 
Q 24.171875 6.390625 31.78125 6.390625 
Q 39.453125 6.390625 43.28125 13.890625 
Q 47.125 21.390625 47.125 36.375 
Q 47.125 51.421875 43.28125 58.90625 
Q 39.453125 66.40625 31.78125 66.40625 
z
M 31.78125 74.21875 
Q 44.046875 74.21875 50.515625 64.515625 
Q 56.984375 54.828125 56.984375 36.375 
Q 56.984375 17.96875 50.515625 8.265625 
Q 44.046875 -1.421875 31.78125 -1.421875 
Q 19.53125 -1.421875 13.0625 8.265625 
Q 6.59375 17.96875 6.59375 36.375 
Q 6.59375 54.828125 13.0625 64.515625 
Q 19.53125 74.21875 31.78125 74.21875 
z
" id="DejaVuSans-48"/>
     </defs>
     <g transform="translate(57.339 48.011777)scale(0.1625 -0.1625)">
      <use xlink:href="#DejaVuSans-Oblique-113"/>
      <use transform="translate(63.476562 -16.40625)scale(0.7)" xlink:href="#DejaVuSans-48"/>
     </g>
    </g>
   </g>
   <g id="text_3">
    <g clip-path="url(#p74b70d5997)">
     <!-- $q_{1}$ -->
     <defs>
      <path d="M 12.40625 8.296875 
L 28.515625 8.296875 
L 28.515625 63.921875 
L 10.984375 60.40625 
L 10.984375 69.390625 
L 28.421875 72.90625 
L 38.28125 72.90625 
L 38.28125 8.296875 
L 54.390625 8.296875 
L 54.390625 0 
L 12.40625 0 
z
" id="DejaVuSans-49"/>
     </defs>
     <g transform="translate(57.339 93.462777)scale(0.1625 -0.1625)">
      <use xlink:href="#DejaVuSans-Oblique-113"/>
      <use transform="translate(63.476562 -16.40625)scale(0.7)" xlink:href="#DejaVuSans-49"/>
     </g>
    </g>
   </g>
   <g id="text_4">
    <g clip-path="url(#p74b70d5997)">
     <!-- $q_{2}$ -->
     <defs>
      <path d="M 19.1875 8.296875 
L 53.609375 8.296875 
L 53.609375 0 
L 7.328125 0 
L 7.328125 8.296875 
Q 12.9375 14.109375 22.625 23.890625 
Q 32.328125 33.6875 34.8125 36.53125 
Q 39.546875 41.84375 41.421875 45.53125 
Q 43.3125 49.21875 43.3125 52.78125 
Q 43.3125 58.59375 39.234375 62.25 
Q 35.15625 65.921875 28.609375 65.921875 
Q 23.96875 65.921875 18.8125 64.3125 
Q 13.671875 62.703125 7.8125 59.421875 
L 7.8125 69.390625 
Q 13.765625 71.78125 18.9375 73 
Q 24.125 74.21875 28.421875 74.21875 
Q 39.75 74.21875 46.484375 68.546875 
Q 53.21875 62.890625 53.21875 53.421875 
Q 53.21875 48.921875 51.53125 44.890625 
Q 49.859375 40.875 45.40625 35.40625 
Q 44.1875 33.984375 37.640625 27.21875 
Q 31.109375 20.453125 19.1875 8.296875 
z
" id="DejaVuSans-50"/>
     </defs>
     <g transform="translate(57.339 138.913777)scale(0.1625 -0.1625)">
      <use xlink:href="#DejaVuSans-Oblique-113"/>
      <use transform="translate(63.476562 -16.40625)scale(0.7)" xlink:href="#DejaVuSans-50"/>
     </g>
    </g>
   </g>
   <g id="text_5">
    <g clip-path="url(#p74b70d5997)">
     <!-- $q_{3}$ -->
     <defs>
      <path d="M 40.578125 39.3125 
Q 47.65625 37.796875 51.625 33 
Q 55.609375 28.21875 55.609375 21.1875 
Q 55.609375 10.40625 48.1875 4.484375 
Q 40.765625 -1.421875 27.09375 -1.421875 
Q 22.515625 -1.421875 17.65625 -0.515625 
Q 12.796875 0.390625 7.625 2.203125 
L 7.625 11.71875 
Q 11.71875 9.328125 16.59375 8.109375 
Q 21.484375 6.890625 26.8125 6.890625 
Q 36.078125 6.890625 40.9375 10.546875 
Q 45.796875 14.203125 45.796875 21.1875 
Q 45.796875 27.640625 41.28125 31.265625 
Q 36.765625 34.90625 28.71875 34.90625 
L 20.21875 34.90625 
L 20.21875 43.015625 
L 29.109375 43.015625 
Q 36.375 43.015625 40.234375 45.921875 
Q 44.09375 48.828125 44.09375 54.296875 
Q 44.09375 59.90625 40.109375 62.90625 
Q 36.140625 65.921875 28.71875 65.921875 
Q 24.65625 65.921875 20.015625 65.03125 
Q 15.375 64.15625 9.8125 62.3125 
L 9.8125 71.09375 
Q 15.4375 72.65625 20.34375 73.4375 
Q 25.25 74.21875 29.59375 74.21875 
Q 40.828125 74.21875 47.359375 69.109375 
Q 53.90625 64.015625 53.90625 55.328125 
Q 53.90625 49.265625 50.4375 45.09375 
Q 46.96875 40.921875 40.578125 39.3125 
z
" id="DejaVuSans-51"/>
     </defs>
     <g transform="translate(57.339 184.364777)scale(0.1625 -0.1625)">
      <use xlink:href="#DejaVuSans-Oblique-113"/>
      <use transform="translate(63.476562 -16.40625)scale(0.7)" xlink:href="#DejaVuSans-51"/>
     </g>
    </g>
   </g>
   <g id="text_6">
    <g clip-path="url(#p74b70d5997)">
     <!-- $q_{4}$ -->
     <defs>
      <path d="M 37.796875 64.3125 
L 12.890625 25.390625 
L 37.796875 25.390625 
z
M 35.203125 72.90625 
L 47.609375 72.90625 
L 47.609375 25.390625 
L 58.015625 25.390625 
L 58.015625 17.1875 
L 47.609375 17.1875 
L 47.609375 0 
L 37.796875 0 
L 37.796875 17.1875 
L 4.890625 17.1875 
L 4.890625 26.703125 
z
" id="DejaVuSans-52"/>
     </defs>
     <g transform="translate(57.339 229.815777)scale(0.1625 -0.1625)">
      <use xlink:href="#DejaVuSans-Oblique-113"/>
      <use transform="translate(63.476562 -16.40625)scale(0.7)" xlink:href="#DejaVuSans-52"/>
     </g>
    </g>
   </g>
   <g id="text_7">
    <g clip-path="url(#p74b70d5997)">
     <!-- 5 -->
     <defs>
      <path d="M 10.796875 72.90625 
L 49.515625 72.90625 
L 49.515625 64.59375 
L 19.828125 64.59375 
L 19.828125 46.734375 
Q 21.96875 47.46875 24.109375 47.828125 
Q 26.265625 48.1875 28.421875 48.1875 
Q 40.625 48.1875 47.75 41.5 
Q 54.890625 34.8125 54.890625 23.390625 
Q 54.890625 11.625 47.5625 5.09375 
Q 40.234375 -1.421875 26.90625 -1.421875 
Q 22.3125 -1.421875 17.546875 -0.640625 
Q 12.796875 0.140625 7.71875 1.703125 
L 7.71875 11.625 
Q 12.109375 9.234375 16.796875 8.0625 
Q 21.484375 6.890625 26.703125 6.890625 
Q 35.15625 6.890625 40.078125 11.328125 
Q 45.015625 15.765625 45.015625 23.390625 
Q 45.015625 31 40.078125 35.4375 
Q 35.15625 39.890625 26.703125 39.890625 
Q 22.75 39.890625 18.8125 39.015625 
Q 14.890625 38.140625 10.796875 36.28125 
z
" id="DejaVuSans-53"/>
     </defs>
     <g transform="translate(120.8275 264.107825)scale(0.104 -0.104)">
      <use xlink:href="#DejaVuSans-53"/>
     </g>
    </g>
   </g>
   <g id="text_8">
    <g clip-path="url(#p74b70d5997)">
     <!-- $c$ -->
     <defs>
      <path d="M 53.609375 52.59375 
L 51.8125 43.703125 
Q 48.578125 46.046875 44.9375 47.21875 
Q 41.3125 48.390625 37.40625 48.390625 
Q 33.109375 48.390625 29.21875 46.875 
Q 25.34375 45.359375 22.703125 42.578125 
Q 18.5 38.328125 16.203125 32.609375 
Q 13.921875 26.90625 13.921875 20.796875 
Q 13.921875 13.421875 17.609375 9.8125 
Q 21.296875 6.203125 28.8125 6.203125 
Q 32.515625 6.203125 36.6875 7.328125 
Q 40.875 8.453125 45.40625 10.6875 
L 43.703125 1.8125 
Q 39.796875 0.203125 35.671875 -0.609375 
Q 31.546875 -1.421875 27.203125 -1.421875 
Q 16.3125 -1.421875 10.453125 4.015625 
Q 4.59375 9.46875 4.59375 19.578125 
Q 4.59375 28.078125 7.640625 35.234375 
Q 10.6875 42.390625 16.703125 48.09375 
Q 20.796875 52 26.3125 54 
Q 31.84375 56 38.375 56 
Q 42.1875 56 45.9375 55.140625 
Q 49.703125 54.296875 53.609375 52.59375 
z
" id="DejaVuSans-Oblique-99"/>
     </defs>
     <g transform="translate(64.6515 276.196581)scale(0.195 -0.195)">
      <use xlink:href="#DejaVuSans-Oblique-99"/>
     </g>
    </g>
   </g>
  </g>
 </g>
 <defs>
  <clipPath id="p74b70d5997">
   <rect height="290.8864" width="345.4276" x="7.2" y="7.2"/>
  </clipPath>
 </defs>
</svg>
