<?xml version="1.0" encoding="utf-8" standalone="no"?>
<!DOCTYPE svg PUBLIC "-//W3C//DTD SVG 1.1//EN"
  "http://www.w3.org/Graphics/SVG/1.1/DTD/svg11.dtd">
<!-- Created with matplotlib (https://matplotlib.org/) -->
<svg height="286.2pt" version="1.1" viewBox="0 0 293.4 286.2" width="293.4pt" xmlns="http://www.w3.org/2000/svg" xmlns:xlink="http://www.w3.org/1999/xlink">
 <defs>
  <style type="text/css">
*{stroke-linecap:butt;stroke-linejoin:round;}
  </style>
 </defs>
 <g id="figure_1">
  <g id="patch_1">
   <path d="M 0 286.2 
L 293.4 286.2 
L 293.4 0 
L 0 0 
z
" style="fill:none;"/>
  </g>
  <g id="axes_1">
   <g id="line2d_1">
    <path clip-path="url(#p3dfaa7247e)" d="M 76.95 143.1 
L 111.825 109.125 
" style="fill:none;stroke:#648fff;stroke-linecap:square;stroke-width:4;"/>
   </g>
   <g id="line2d_2">
    <path clip-path="url(#p3dfaa7247e)" d="M 146.7 75.15 
L 111.825 109.125 
" style="fill:none;stroke:#648fff;stroke-linecap:square;stroke-width:4;"/>
   </g>
   <g id="line2d_3">
    <path clip-path="url(#p3dfaa7247e)" d="M 146.7 75.15 
L 146.7 109.125 
" style="fill:none;stroke:#648fff;stroke-linecap:square;stroke-width:4;"/>
   </g>
   <g id="line2d_4">
    <path clip-path="url(#p3dfaa7247e)" d="M 146.7 75.15 
L 181.575 109.125 
" style="fill:none;stroke:#648fff;stroke-linecap:square;stroke-width:4;"/>
   </g>
   <g id="line2d_5">
    <path clip-path="url(#p3dfaa7247e)" d="M 146.7 143.1 
L 146.7 109.125 
" style="fill:none;stroke:#648fff;stroke-linecap:square;stroke-width:4;"/>
   </g>
   <g id="line2d_6">
    <path clip-path="url(#p3dfaa7247e)" d="M 216.45 143.1 
L 181.575 109.125 
" style="fill:none;stroke:#648fff;stroke-linecap:square;stroke-width:4;"/>
   </g>
   <g id="line2d_7">
    <path clip-path="url(#p3dfaa7247e)" d="M 216.45 143.1 
L 181.575 177.075 
" style="fill:none;stroke:#648fff;stroke-linecap:square;stroke-width:4;"/>
   </g>
   <g id="line2d_8">
    <path clip-path="url(#p3dfaa7247e)" d="M 146.7 211.05 
L 181.575 177.075 
" style="fill:none;stroke:#648fff;stroke-linecap:square;stroke-width:4;"/>
   </g>
   <g id="patch_2">
    <path clip-path="url(#p3dfaa7247e)" d="M 110.43 110.484 
L 103.031895 124.898372 
L 99.357503 121.318803 
L 110.10591 110.847774 
L 110.05659 110.799726 
L 99.308183 121.270755 
L 95.633791 117.691186 
z
" style="fill:#648fff;"/>
   </g>
   <g id="patch_3">
    <path clip-path="url(#p3dfaa7247e)" d="M 113.22 107.766 
L 120.618105 93.351628 
L 124.292497 96.931197 
L 113.54409 107.402226 
L 113.59341 107.450274 
L 124.341817 96.979245 
L 128.016209 100.558814 
z
" style="fill:#648fff;"/>
   </g>
   <g id="patch_4">
    <path clip-path="url(#p3dfaa7247e)" d="M 146.7 107.766 
L 141.46875 92.47725 
L 146.665125 92.47725 
L 146.665125 107.42625 
L 146.734875 107.42625 
L 146.734875 92.47725 
L 151.93125 92.47725 
z
" style="fill:#648fff;"/>
   </g>
   <g id="patch_5">
    <path clip-path="url(#p3dfaa7247e)" d="M 180.18 107.766 
L 165.383791 100.558814 
L 169.058183 96.979245 
L 179.80659 107.450274 
L 179.85591 107.402226 
L 169.107503 96.931197 
L 172.781895 93.351628 
z
" style="fill:#648fff;"/>
   </g>
   <g id="patch_6">
    <path clip-path="url(#p3dfaa7247e)" d="M 146.7 110.484 
L 151.93125 125.77275 
L 146.734875 125.77275 
L 146.734875 110.82375 
L 146.665125 110.82375 
L 146.665125 125.77275 
L 141.46875 125.77275 
z
" style="fill:#648fff;"/>
   </g>
   <g id="patch_7">
    <path clip-path="url(#p3dfaa7247e)" d="M 182.97 110.484 
L 197.766209 117.691186 
L 194.091817 121.270755 
L 183.34341 110.799726 
L 183.29409 110.847774 
L 194.042497 121.318803 
L 190.368105 124.898372 
z
" style="fill:#648fff;"/>
   </g>
   <g id="patch_8">
    <path clip-path="url(#p3dfaa7247e)" d="M 182.97 175.716 
L 190.368105 161.301628 
L 194.042497 164.881197 
L 183.29409 175.352226 
L 183.34341 175.400274 
L 194.091817 164.929245 
L 197.766209 168.508814 
z
" style="fill:#648fff;"/>
   </g>
   <g id="patch_9">
    <path clip-path="url(#p3dfaa7247e)" d="M 180.18 178.434 
L 172.781895 192.848372 
L 169.107503 189.268803 
L 179.85591 178.797774 
L 179.80659 178.749726 
L 169.058183 189.220755 
L 165.383791 185.641186 
z
" style="fill:#648fff;"/>
   </g>
   <g id="patch_10">
    <path clip-path="url(#p3dfaa7247e)" d="M 76.95 131.1 
C 73.767563 131.1 70.715042 132.364396 68.464719 134.614719 
C 66.214396 136.865042 64.95 139.917563 64.95 143.1 
C 64.95 146.282437 66.214396 149.334958 68.464719 151.585281 
C 70.715042 153.835604 73.767563 155.1 76.95 155.1 
C 80.132437 155.1 83.184958 153.835604 85.435281 151.585281 
C 87.685604 149.334958 88.95 146.282437 88.95 143.1 
C 88.95 139.917563 87.685604 136.865042 85.435281 134.614719 
C 83.184958 132.364396 80.132437 131.1 76.95 131.1 
z
" style="fill:#648fff;stroke:#648fff;stroke-linejoin:miter;"/>
   </g>
   <g id="patch_11">
    <path clip-path="url(#p3dfaa7247e)" d="M 146.7 63.15 
C 143.517563 63.15 140.465042 64.414396 138.214719 66.664719 
C 135.964396 68.915042 134.7 71.967563 134.7 75.15 
C 134.7 78.332437 135.964396 81.384958 138.214719 83.635281 
C 140.465042 85.885604 143.517563 87.15 146.7 87.15 
C 149.882437 87.15 152.934958 85.885604 155.185281 83.635281 
C 157.435604 81.384958 158.7 78.332437 158.7 75.15 
C 158.7 71.967563 157.435604 68.915042 155.185281 66.664719 
C 152.934958 64.414396 149.882437 63.15 146.7 63.15 
z
" style="fill:#648fff;stroke:#648fff;stroke-linejoin:miter;"/>
   </g>
   <g id="patch_12">
    <path clip-path="url(#p3dfaa7247e)" d="M 146.7 131.1 
C 143.517563 131.1 140.465042 132.364396 138.214719 134.614719 
C 135.964396 136.865042 134.7 139.917563 134.7 143.1 
C 134.7 146.282437 135.964396 149.334958 138.214719 151.585281 
C 140.465042 153.835604 143.517563 155.1 146.7 155.1 
C 149.882437 155.1 152.934958 153.835604 155.185281 151.585281 
C 157.435604 149.334958 158.7 146.282437 158.7 143.1 
C 158.7 139.917563 157.435604 136.865042 155.185281 134.614719 
C 152.934958 132.364396 149.882437 131.1 146.7 131.1 
z
" style="fill:#648fff;stroke:#648fff;stroke-linejoin:miter;"/>
   </g>
   <g id="patch_13">
    <path clip-path="url(#p3dfaa7247e)" d="M 216.45 131.1 
C 213.267563 131.1 210.215042 132.364396 207.964719 134.614719 
C 205.714396 136.865042 204.45 139.917563 204.45 143.1 
C 204.45 146.282437 205.714396 149.334958 207.964719 151.585281 
C 210.215042 153.835604 213.267563 155.1 216.45 155.1 
C 219.632437 155.1 222.684958 153.835604 224.935281 151.585281 
C 227.185604 149.334958 228.45 146.282437 228.45 143.1 
C 228.45 139.917563 227.185604 136.865042 224.935281 134.614719 
C 222.684958 132.364396 219.632437 131.1 216.45 131.1 
z
" style="fill:#648fff;stroke:#648fff;stroke-linejoin:miter;"/>
   </g>
   <g id="patch_14">
    <path clip-path="url(#p3dfaa7247e)" d="M 146.7 199.05 
C 143.517563 199.05 140.465042 200.314396 138.214719 202.564719 
C 135.964396 204.815042 134.7 207.867563 134.7 211.05 
C 134.7 214.232437 135.964396 217.284958 138.214719 219.535281 
C 140.465042 221.785604 143.517563 223.05 146.7 223.05 
C 149.882437 223.05 152.934958 221.785604 155.185281 219.535281 
C 157.435604 217.284958 158.7 214.232437 158.7 211.05 
C 158.7 207.867563 157.435604 204.815042 155.185281 202.564719 
C 152.934958 200.314396 149.882437 199.05 146.7 199.05 
z
" style="fill:#648fff;stroke:#648fff;stroke-linejoin:miter;"/>
   </g>
   <g id="text_1">
    <!-- 0 -->
    <defs>
     <path d="M 46 36.53125 
Q 46 50.203125 43.4375 55.78125 
Q 40.875 61.375 34.8125 61.375 
Q 28.765625 61.375 26.171875 55.78125 
Q 23.578125 50.203125 23.578125 36.53125 
Q 23.578125 22.703125 26.171875 17.03125 
Q 28.765625 11.375 34.8125 11.375 
Q 40.828125 11.375 43.40625 17.03125 
Q 46 22.703125 46 36.53125 
z
M 64.796875 36.375 
Q 64.796875 18.265625 56.984375 8.421875 
Q 49.171875 -1.421875 34.8125 -1.421875 
Q 20.40625 -1.421875 12.59375 8.421875 
Q 4.78125 18.265625 4.78125 36.375 
Q 4.78125 54.546875 12.59375 64.375 
Q 20.40625 74.21875 34.8125 74.21875 
Q 49.171875 74.21875 56.984375 64.375 
Q 64.796875 54.546875 64.796875 36.375 
z
" id="DejaVuSans-Bold-48"/>
    </defs>
    <g style="fill:#ffffff;" transform="translate(72.775312 146.41125)scale(0.12 -0.12)">
     <use xlink:href="#DejaVuSans-Bold-48"/>
    </g>
   </g>
   <g id="text_2">
    <!-- 1 -->
    <defs>
     <path d="M 11.71875 12.984375 
L 28.328125 12.984375 
L 28.328125 60.109375 
L 11.28125 56.59375 
L 11.28125 69.390625 
L 28.21875 72.90625 
L 46.09375 72.90625 
L 46.09375 12.984375 
L 62.703125 12.984375 
L 62.703125 0 
L 11.71875 0 
z
" id="DejaVuSans-Bold-49"/>
    </defs>
    <g style="fill:#ffffff;" transform="translate(142.525312 78.46125)scale(0.12 -0.12)">
     <use xlink:href="#DejaVuSans-Bold-49"/>
    </g>
   </g>
   <g id="text_3">
    <!-- 2 -->
    <defs>
     <path d="M 28.8125 13.8125 
L 60.890625 13.8125 
L 60.890625 0 
L 7.90625 0 
L 7.90625 13.8125 
L 34.515625 37.3125 
Q 38.09375 40.53125 39.796875 43.609375 
Q 41.5 46.6875 41.5 50 
Q 41.5 55.125 38.0625 58.25 
Q 34.625 61.375 28.90625 61.375 
Q 24.515625 61.375 19.28125 59.5 
Q 14.0625 57.625 8.109375 53.90625 
L 8.109375 69.921875 
Q 14.453125 72.015625 20.65625 73.109375 
Q 26.859375 74.21875 32.8125 74.21875 
Q 45.90625 74.21875 53.15625 68.453125 
Q 60.40625 62.703125 60.40625 52.390625 
Q 60.40625 46.4375 57.328125 41.28125 
Q 54.25 36.140625 44.390625 27.484375 
z
" id="DejaVuSans-Bold-50"/>
    </defs>
    <g style="fill:#ffffff;" transform="translate(142.525312 146.41125)scale(0.12 -0.12)">
     <use xlink:href="#DejaVuSans-Bold-50"/>
    </g>
   </g>
   <g id="text_4">
    <!-- 3 -->
    <defs>
     <path d="M 46.578125 39.3125 
Q 53.953125 37.40625 57.78125 32.6875 
Q 61.625 27.984375 61.625 20.703125 
Q 61.625 9.859375 53.3125 4.21875 
Q 45.015625 -1.421875 29.109375 -1.421875 
Q 23.484375 -1.421875 17.84375 -0.515625 
Q 12.203125 0.390625 6.6875 2.203125 
L 6.6875 16.703125 
Q 11.96875 14.0625 17.15625 12.71875 
Q 22.359375 11.375 27.390625 11.375 
Q 34.859375 11.375 38.84375 13.953125 
Q 42.828125 16.546875 42.828125 21.390625 
Q 42.828125 26.375 38.75 28.9375 
Q 34.671875 31.5 26.703125 31.5 
L 19.1875 31.5 
L 19.1875 43.609375 
L 27.09375 43.609375 
Q 34.1875 43.609375 37.640625 45.828125 
Q 41.109375 48.046875 41.109375 52.59375 
Q 41.109375 56.78125 37.734375 59.078125 
Q 34.375 61.375 28.21875 61.375 
Q 23.6875 61.375 19.046875 60.34375 
Q 14.40625 59.328125 9.8125 57.328125 
L 9.8125 71.09375 
Q 15.375 72.65625 20.84375 73.4375 
Q 26.3125 74.21875 31.59375 74.21875 
Q 45.796875 74.21875 52.84375 69.546875 
Q 59.90625 64.890625 59.90625 55.515625 
Q 59.90625 49.125 56.53125 45.046875 
Q 53.171875 40.96875 46.578125 39.3125 
z
" id="DejaVuSans-Bold-51"/>
    </defs>
    <g style="fill:#ffffff;" transform="translate(212.275312 146.41125)scale(0.12 -0.12)">
     <use xlink:href="#DejaVuSans-Bold-51"/>
    </g>
   </g>
   <g id="text_5">
    <!-- 4 -->
    <defs>
     <path d="M 36.8125 57.421875 
L 16.21875 26.90625 
L 36.8125 26.90625 
z
M 33.6875 72.90625 
L 54.59375 72.90625 
L 54.59375 26.90625 
L 64.984375 26.90625 
L 64.984375 13.28125 
L 54.59375 13.28125 
L 54.59375 0 
L 36.8125 0 
L 36.8125 13.28125 
L 4.5 13.28125 
L 4.5 29.390625 
z
" id="DejaVuSans-Bold-52"/>
    </defs>
    <g style="fill:#ffffff;" transform="translate(142.525312 214.36125)scale(0.12 -0.12)">
     <use xlink:href="#DejaVuSans-Bold-52"/>
    </g>
   </g>
  </g>
 </g>
 <defs>
  <clipPath id="p3dfaa7247e">
   <rect height="271.8" width="279" x="7.2" y="7.2"/>
  </clipPath>
 </defs>
</svg>
