<?xml version="1.0" encoding="utf-8" standalone="no"?>
<!DOCTYPE svg PUBLIC "-//W3C//DTD SVG 1.1//EN"
  "http://www.w3.org/Graphics/SVG/1.1/DTD/svg11.dtd">
<!-- Created with matplotlib (https://matplotlib.org/) -->
<svg height="168.9334pt" version="1.1" viewBox="0 0 723.4356 168.9334" width="723.4356pt" xmlns="http://www.w3.org/2000/svg" xmlns:xlink="http://www.w3.org/1999/xlink">
 <defs>
  <style type="text/css">
*{stroke-linecap:butt;stroke-linejoin:round;}
  </style>
 </defs>
 <g id="figure_1">
  <g id="patch_1">
   <path d="M -0 168.9334 
L 723.4356 168.9334 
L 723.4356 0 
L -0 0 
z
" style="fill:#ffffff;"/>
  </g>
  <g id="axes_1">
   <g id="line2d_1">
    <path clip-path="url(#p3a86e58d7e)" d="M 98.102 43.5608 
L 711.6905 43.5608 
" style="fill:none;stroke:#000000;stroke-linecap:square;stroke-width:2;"/>
   </g>
   <g id="line2d_2">
    <path clip-path="url(#p3a86e58d7e)" d="M 98.102 89.0118 
L 711.6905 89.0118 
" style="fill:none;stroke:#000000;stroke-linecap:square;stroke-width:2;"/>
   </g>
   <g id="line2d_3">
    <path clip-path="url(#p3a86e58d7e)" d="M 98.102 134.4628 
L 711.6905 134.4628 
" style="fill:none;stroke:#000000;stroke-linecap:square;stroke-width:2;"/>
   </g>
   <g id="line2d_4">
    <path clip-path="url(#p3a86e58d7e)" d="M 211.7295 134.4628 
L 211.7295 89.0118 
" style="fill:none;stroke:#6fa4ff;stroke-linecap:square;stroke-width:2;"/>
   </g>
   <g id="line2d_5">
    <path clip-path="url(#p3a86e58d7e)" d="M 302.6315 134.4628 
L 302.6315 43.5608 
" style="fill:none;stroke:#6fa4ff;stroke-linecap:square;stroke-width:2;"/>
   </g>
   <g id="line2d_6">
    <path clip-path="url(#p3a86e58d7e)" d="M 393.5335 134.4628 
L 393.5335 89.0118 
" style="fill:none;stroke:#6fa4ff;stroke-linecap:square;stroke-width:2;"/>
   </g>
   <g id="line2d_7">
    <path clip-path="url(#p3a86e58d7e)" d="M 484.4355 134.4628 
L 484.4355 43.5608 
" style="fill:none;stroke:#6fa4ff;stroke-linecap:square;stroke-width:2;"/>
   </g>
   <g id="line2d_8">
    <path clip-path="url(#p3a86e58d7e)" d="M 529.8865 89.0118 
L 529.8865 43.5608 
" style="fill:none;stroke:#6fa4ff;stroke-linecap:square;stroke-width:2;"/>
   </g>
   <g id="line2d_9">
    <path clip-path="url(#p3a86e58d7e)" d="M 666.2395 89.0118 
L 666.2395 43.5608 
" style="fill:none;stroke:#6fa4ff;stroke-linecap:square;stroke-width:2;"/>
   </g>
   <g id="patch_2">
    <path clip-path="url(#p3a86e58d7e)" d="M 128.781425 149.234375 
L 158.324575 149.234375 
L 158.324575 119.691225 
L 128.781425 119.691225 
z
" style="fill:#fa74a6;"/>
   </g>
   <g id="patch_3">
    <path clip-path="url(#p3a86e58d7e)" d="M 211.7295 93.443273 
C 212.90474 93.443273 214.032004 92.976345 214.863024 92.145324 
C 215.694045 91.314304 216.160973 90.18704 216.160973 89.0118 
C 216.160973 87.83656 215.694045 86.709296 214.863024 85.878276 
C 214.032004 85.047255 212.90474 84.580328 211.7295 84.580328 
C 210.55426 84.580328 209.426996 85.047255 208.595976 85.878276 
C 207.764955 86.709296 207.298028 87.83656 207.298028 89.0118 
C 207.298028 90.18704 207.764955 91.314304 208.595976 92.145324 
C 209.426996 92.976345 210.55426 93.443273 211.7295 93.443273 
z
" style="fill:#6fa4ff;stroke:#6fa4ff;stroke-linejoin:miter;stroke-width:1.5;"/>
   </g>
   <g id="patch_4">
    <path clip-path="url(#p3a86e58d7e)" d="M 211.7295 144.802903 
C 214.471727 144.802903 217.102009 143.713404 219.041057 141.774357 
C 220.980104 139.835309 222.069603 137.205027 222.069603 134.4628 
C 222.069603 131.720573 220.980104 129.090291 219.041057 127.151243 
C 217.102009 125.212196 214.471727 124.122698 211.7295 124.122698 
C 208.987273 124.122698 206.356991 125.212196 204.417943 127.151243 
C 202.478896 129.090291 201.389398 131.720573 201.389398 134.4628 
C 201.389398 137.205027 202.478896 139.835309 204.417943 141.774357 
C 206.356991 143.713404 208.987273 144.802903 211.7295 144.802903 
z
" style="fill:#6fa4ff;stroke:#6fa4ff;stroke-linejoin:miter;stroke-width:2;"/>
   </g>
   <g id="patch_5">
    <path clip-path="url(#p3a86e58d7e)" d="M 242.408925 149.234375 
L 271.952075 149.234375 
L 271.952075 119.691225 
L 242.408925 119.691225 
z
" style="fill:#fa74a6;"/>
   </g>
   <g id="patch_6">
    <path clip-path="url(#p3a86e58d7e)" d="M 302.6315 47.992273 
C 303.80674 47.992273 304.934004 47.525345 305.765024 46.694324 
C 306.596045 45.863304 307.062973 44.73604 307.062973 43.5608 
C 307.062973 42.38556 306.596045 41.258296 305.765024 40.427276 
C 304.934004 39.596255 303.80674 39.129328 302.6315 39.129328 
C 301.45626 39.129328 300.328996 39.596255 299.497976 40.427276 
C 298.666955 41.258296 298.200028 42.38556 298.200028 43.5608 
C 298.200028 44.73604 298.666955 45.863304 299.497976 46.694324 
C 300.328996 47.525345 301.45626 47.992273 302.6315 47.992273 
z
" style="fill:#6fa4ff;stroke:#6fa4ff;stroke-linejoin:miter;stroke-width:1.5;"/>
   </g>
   <g id="patch_7">
    <path clip-path="url(#p3a86e58d7e)" d="M 302.6315 144.802903 
C 305.373727 144.802903 308.004009 143.713404 309.943057 141.774357 
C 311.882104 139.835309 312.971603 137.205027 312.971603 134.4628 
C 312.971603 131.720573 311.882104 129.090291 309.943057 127.151243 
C 308.004009 125.212196 305.373727 124.122698 302.6315 124.122698 
C 299.889273 124.122698 297.258991 125.212196 295.319943 127.151243 
C 293.380896 129.090291 292.291398 131.720573 292.291398 134.4628 
C 292.291398 137.205027 293.380896 139.835309 295.319943 141.774357 
C 297.258991 143.713404 299.889273 144.802903 302.6315 144.802903 
z
" style="fill:#6fa4ff;stroke:#6fa4ff;stroke-linejoin:miter;stroke-width:2;"/>
   </g>
   <g id="patch_8">
    <path clip-path="url(#p3a86e58d7e)" d="M 333.310925 149.234375 
L 362.854075 149.234375 
L 362.854075 119.691225 
L 333.310925 119.691225 
z
" style="fill:#fa74a6;"/>
   </g>
   <g id="patch_9">
    <path clip-path="url(#p3a86e58d7e)" d="M 393.5335 93.443273 
C 394.70874 93.443273 395.836004 92.976345 396.667024 92.145324 
C 397.498045 91.314304 397.964973 90.18704 397.964973 89.0118 
C 397.964973 87.83656 397.498045 86.709296 396.667024 85.878276 
C 395.836004 85.047255 394.70874 84.580328 393.5335 84.580328 
C 392.35826 84.580328 391.230996 85.047255 390.399976 85.878276 
C 389.568955 86.709296 389.102028 87.83656 389.102028 89.0118 
C 389.102028 90.18704 389.568955 91.314304 390.399976 92.145324 
C 391.230996 92.976345 392.35826 93.443273 393.5335 93.443273 
z
" style="fill:#6fa4ff;stroke:#6fa4ff;stroke-linejoin:miter;stroke-width:1.5;"/>
   </g>
   <g id="patch_10">
    <path clip-path="url(#p3a86e58d7e)" d="M 393.5335 144.802903 
C 396.275727 144.802903 398.906009 143.713404 400.845057 141.774357 
C 402.784104 139.835309 403.873603 137.205027 403.873603 134.4628 
C 403.873603 131.720573 402.784104 129.090291 400.845057 127.151243 
C 398.906009 125.212196 396.275727 124.122698 393.5335 124.122698 
C 390.791273 124.122698 388.160991 125.212196 386.221943 127.151243 
C 384.282896 129.090291 383.193398 131.720573 383.193398 134.4628 
C 383.193398 137.205027 384.282896 139.835309 386.221943 141.774357 
C 388.160991 143.713404 390.791273 144.802903 393.5335 144.802903 
z
" style="fill:#6fa4ff;stroke:#6fa4ff;stroke-linejoin:miter;stroke-width:2;"/>
   </g>
   <g id="patch_11">
    <path clip-path="url(#p3a86e58d7e)" d="M 424.212925 103.783375 
L 453.756075 103.783375 
L 453.756075 74.240225 
L 424.212925 74.240225 
z
" style="fill:#fa74a6;"/>
   </g>
   <g id="patch_12">
    <path clip-path="url(#p3a86e58d7e)" d="M 424.212925 149.234375 
L 453.756075 149.234375 
L 453.756075 119.691225 
L 424.212925 119.691225 
z
" style="fill:#fa74a6;"/>
   </g>
   <g id="patch_13">
    <path clip-path="url(#p3a86e58d7e)" d="M 484.4355 47.992273 
C 485.61074 47.992273 486.738004 47.525345 487.569024 46.694324 
C 488.400045 45.863304 488.866973 44.73604 488.866973 43.5608 
C 488.866973 42.38556 488.400045 41.258296 487.569024 40.427276 
C 486.738004 39.596255 485.61074 39.129328 484.4355 39.129328 
C 483.26026 39.129328 482.132996 39.596255 481.301976 40.427276 
C 480.470955 41.258296 480.004028 42.38556 480.004028 43.5608 
C 480.004028 44.73604 480.470955 45.863304 481.301976 46.694324 
C 482.132996 47.525345 483.26026 47.992273 484.4355 47.992273 
z
" style="fill:#6fa4ff;stroke:#6fa4ff;stroke-linejoin:miter;stroke-width:1.5;"/>
   </g>
   <g id="patch_14">
    <path clip-path="url(#p3a86e58d7e)" d="M 484.4355 144.802903 
C 487.177727 144.802903 489.808009 143.713404 491.747057 141.774357 
C 493.686104 139.835309 494.775603 137.205027 494.775603 134.4628 
C 494.775603 131.720573 493.686104 129.090291 491.747057 127.151243 
C 489.808009 125.212196 487.177727 124.122698 484.4355 124.122698 
C 481.693273 124.122698 479.062991 125.212196 477.123943 127.151243 
C 475.184896 129.090291 474.095398 131.720573 474.095398 134.4628 
C 474.095398 137.205027 475.184896 139.835309 477.123943 141.774357 
C 479.062991 143.713404 481.693273 144.802903 484.4355 144.802903 
z
" style="fill:#6fa4ff;stroke:#6fa4ff;stroke-linejoin:miter;stroke-width:2;"/>
   </g>
   <g id="patch_15">
    <path clip-path="url(#p3a86e58d7e)" d="M 529.8865 47.992273 
C 531.06174 47.992273 532.189004 47.525345 533.020024 46.694324 
C 533.851045 45.863304 534.317973 44.73604 534.317973 43.5608 
C 534.317973 42.38556 533.851045 41.258296 533.020024 40.427276 
C 532.189004 39.596255 531.06174 39.129328 529.8865 39.129328 
C 528.71126 39.129328 527.583996 39.596255 526.752976 40.427276 
C 525.921955 41.258296 525.455028 42.38556 525.455028 43.5608 
C 525.455028 44.73604 525.921955 45.863304 526.752976 46.694324 
C 527.583996 47.525345 528.71126 47.992273 529.8865 47.992273 
z
" style="fill:#6fa4ff;stroke:#6fa4ff;stroke-linejoin:miter;stroke-width:1.5;"/>
   </g>
   <g id="patch_16">
    <path clip-path="url(#p3a86e58d7e)" d="M 529.8865 99.351903 
C 532.628727 99.351903 535.259009 98.262404 537.198057 96.323357 
C 539.137104 94.384309 540.226603 91.754027 540.226603 89.0118 
C 540.226603 86.269573 539.137104 83.639291 537.198057 81.700243 
C 535.259009 79.761196 532.628727 78.671698 529.8865 78.671698 
C 527.144273 78.671698 524.513991 79.761196 522.574943 81.700243 
C 520.635896 83.639291 519.546398 86.269573 519.546398 89.0118 
C 519.546398 91.754027 520.635896 94.384309 522.574943 96.323357 
C 524.513991 98.262404 527.144273 99.351903 529.8865 99.351903 
z
" style="fill:#6fa4ff;stroke:#6fa4ff;stroke-linejoin:miter;stroke-width:2;"/>
   </g>
   <g id="patch_17">
    <path clip-path="url(#p3a86e58d7e)" d="M 515.114925 149.234375 
L 544.658075 149.234375 
L 544.658075 119.691225 
L 515.114925 119.691225 
z
" style="fill:#fa74a6;"/>
   </g>
   <g id="patch_18">
    <path clip-path="url(#p3a86e58d7e)" d="M 583.291425 58.332375 
L 612.834575 58.332375 
L 612.834575 28.789225 
L 583.291425 28.789225 
z
" style="fill:#fa74a6;"/>
   </g>
   <g id="patch_19">
    <path clip-path="url(#p3a86e58d7e)" d="M 583.291425 103.783375 
L 612.834575 103.783375 
L 612.834575 74.240225 
L 583.291425 74.240225 
z
" style="fill:#fa74a6;"/>
   </g>
   <g id="patch_20">
    <path clip-path="url(#p3a86e58d7e)" d="M 583.291425 149.234375 
L 612.834575 149.234375 
L 612.834575 119.691225 
L 583.291425 119.691225 
z
" style="fill:#fa74a6;"/>
   </g>
   <g id="patch_21">
    <path clip-path="url(#p3a86e58d7e)" d="M 666.2395 47.992273 
C 667.41474 47.992273 668.542004 47.525345 669.373024 46.694324 
C 670.204045 45.863304 670.670973 44.73604 670.670973 43.5608 
C 670.670973 42.38556 670.204045 41.258296 669.373024 40.427276 
C 668.542004 39.596255 667.41474 39.129328 666.2395 39.129328 
C 665.06426 39.129328 663.936996 39.596255 663.105976 40.427276 
C 662.274955 41.258296 661.808028 42.38556 661.808028 43.5608 
C 661.808028 44.73604 662.274955 45.863304 663.105976 46.694324 
C 663.936996 47.525345 665.06426 47.992273 666.2395 47.992273 
z
" style="fill:#6fa4ff;stroke:#6fa4ff;stroke-linejoin:miter;stroke-width:1.5;"/>
   </g>
   <g id="patch_22">
    <path clip-path="url(#p3a86e58d7e)" d="M 666.2395 99.351903 
C 668.981727 99.351903 671.612009 98.262404 673.551057 96.323357 
C 675.490104 94.384309 676.579603 91.754027 676.579603 89.0118 
C 676.579603 86.269573 675.490104 83.639291 673.551057 81.700243 
C 671.612009 79.761196 668.981727 78.671698 666.2395 78.671698 
C 663.497273 78.671698 660.866991 79.761196 658.927943 81.700243 
C 656.988896 83.639291 655.899398 86.269573 655.899398 89.0118 
C 655.899398 91.754027 656.988896 94.384309 658.927943 96.323357 
C 660.866991 98.262404 663.497273 99.351903 666.2395 99.351903 
z
" style="fill:#6fa4ff;stroke:#6fa4ff;stroke-linejoin:miter;stroke-width:2;"/>
   </g>
   <g id="line2d_10">
    <path clip-path="url(#p3a86e58d7e)" d="M 211.7295 140.37143 
L 211.7295 128.55417 
" style="fill:none;stroke:#ffffff;stroke-linecap:square;stroke-width:2;"/>
   </g>
   <g id="line2d_11">
    <path clip-path="url(#p3a86e58d7e)" d="M 205.82087 134.4628 
L 217.63813 134.4628 
" style="fill:none;stroke:#ffffff;stroke-linecap:square;stroke-width:2;"/>
   </g>
   <g id="line2d_12">
    <path clip-path="url(#p3a86e58d7e)" d="M 302.6315 140.37143 
L 302.6315 128.55417 
" style="fill:none;stroke:#ffffff;stroke-linecap:square;stroke-width:2;"/>
   </g>
   <g id="line2d_13">
    <path clip-path="url(#p3a86e58d7e)" d="M 296.72287 134.4628 
L 308.54013 134.4628 
" style="fill:none;stroke:#ffffff;stroke-linecap:square;stroke-width:2;"/>
   </g>
   <g id="line2d_14">
    <path clip-path="url(#p3a86e58d7e)" d="M 393.5335 140.37143 
L 393.5335 128.55417 
" style="fill:none;stroke:#ffffff;stroke-linecap:square;stroke-width:2;"/>
   </g>
   <g id="line2d_15">
    <path clip-path="url(#p3a86e58d7e)" d="M 387.62487 134.4628 
L 399.44213 134.4628 
" style="fill:none;stroke:#ffffff;stroke-linecap:square;stroke-width:2;"/>
   </g>
   <g id="line2d_16">
    <path clip-path="url(#p3a86e58d7e)" d="M 484.4355 140.37143 
L 484.4355 128.55417 
" style="fill:none;stroke:#ffffff;stroke-linecap:square;stroke-width:2;"/>
   </g>
   <g id="line2d_17">
    <path clip-path="url(#p3a86e58d7e)" d="M 478.52687 134.4628 
L 490.34413 134.4628 
" style="fill:none;stroke:#ffffff;stroke-linecap:square;stroke-width:2;"/>
   </g>
   <g id="line2d_18">
    <path clip-path="url(#p3a86e58d7e)" d="M 529.8865 94.92043 
L 529.8865 83.10317 
" style="fill:none;stroke:#ffffff;stroke-linecap:square;stroke-width:2;"/>
   </g>
   <g id="line2d_19">
    <path clip-path="url(#p3a86e58d7e)" d="M 523.97787 89.0118 
L 535.79513 89.0118 
" style="fill:none;stroke:#ffffff;stroke-linecap:square;stroke-width:2;"/>
   </g>
   <g id="line2d_20">
    <path clip-path="url(#p3a86e58d7e)" d="M 666.2395 94.92043 
L 666.2395 83.10317 
" style="fill:none;stroke:#ffffff;stroke-linecap:square;stroke-width:2;"/>
   </g>
   <g id="line2d_21">
    <path clip-path="url(#p3a86e58d7e)" d="M 660.33087 89.0118 
L 672.14813 89.0118 
" style="fill:none;stroke:#ffffff;stroke-linecap:square;stroke-width:2;"/>
   </g>
   <g id="text_1">
    <g clip-path="url(#p3a86e58d7e)">
     <!-- $U_2$ -->
     <defs>
      <path d="M 15.484375 72.90625 
L 25.390625 72.90625 
L 16.796875 28.609375 
Q 16.265625 25.640625 16.046875 23.703125 
Q 15.828125 21.78125 15.828125 20.3125 
Q 15.828125 13.578125 19.578125 10.078125 
Q 23.34375 6.59375 30.609375 6.59375 
Q 40.046875 6.59375 45.28125 11.765625 
Q 50.53125 16.9375 52.78125 28.609375 
L 61.375 72.90625 
L 71.296875 72.90625 
L 62.5 27.390625 
Q 59.625 12.640625 51.5625 5.609375 
Q 43.5 -1.421875 29.5 -1.421875 
Q 18.5625 -1.421875 12.1875 4.078125 
Q 5.8125 9.578125 5.8125 19 
Q 5.8125 20.703125 6.046875 22.828125 
Q 6.296875 24.953125 6.78125 27.390625 
z
" id="DejaVuSans-Oblique-85"/>
      <path d="M 19.1875 8.296875 
L 53.609375 8.296875 
L 53.609375 0 
L 7.328125 0 
L 7.328125 8.296875 
Q 12.9375 14.109375 22.625 23.890625 
Q 32.328125 33.6875 34.8125 36.53125 
Q 39.546875 41.84375 41.421875 45.53125 
Q 43.3125 49.21875 43.3125 52.78125 
Q 43.3125 58.59375 39.234375 62.25 
Q 35.15625 65.921875 28.609375 65.921875 
Q 23.96875 65.921875 18.8125 64.3125 
Q 13.671875 62.703125 7.8125 59.421875 
L 7.8125 69.390625 
Q 13.765625 71.78125 18.9375 73 
Q 24.125 74.21875 28.421875 74.21875 
Q 39.75 74.21875 46.484375 68.546875 
Q 53.21875 62.890625 53.21875 53.421875 
Q 53.21875 48.921875 51.53125 44.890625 
Q 49.859375 40.875 45.40625 35.40625 
Q 44.1875 33.984375 37.640625 27.21875 
Q 31.109375 20.453125 19.1875 8.296875 
z
" id="DejaVuSans-50"/>
     </defs>
     <g transform="translate(135.688 133.618515)scale(0.13 -0.13)">
      <use transform="translate(0 0.09375)" xlink:href="#DejaVuSans-Oblique-85"/>
      <use transform="translate(73.193359 -16.3125)scale(0.7)" xlink:href="#DejaVuSans-50"/>
     </g>
    </g>
   </g>
   <g id="text_2">
    <g clip-path="url(#p3a86e58d7e)">
     <!-- 0, $\pi$ -->
     <defs>
      <path d="M 31.78125 66.40625 
Q 24.171875 66.40625 20.328125 58.90625 
Q 16.5 51.421875 16.5 36.375 
Q 16.5 21.390625 20.328125 13.890625 
Q 24.171875 6.390625 31.78125 6.390625 
Q 39.453125 6.390625 43.28125 13.890625 
Q 47.125 21.390625 47.125 36.375 
Q 47.125 51.421875 43.28125 58.90625 
Q 39.453125 66.40625 31.78125 66.40625 
z
M 31.78125 74.21875 
Q 44.046875 74.21875 50.515625 64.515625 
Q 56.984375 54.828125 56.984375 36.375 
Q 56.984375 17.96875 50.515625 8.265625 
Q 44.046875 -1.421875 31.78125 -1.421875 
Q 19.53125 -1.421875 13.0625 8.265625 
Q 6.59375 17.96875 6.59375 36.375 
Q 6.59375 54.828125 13.0625 64.515625 
Q 19.53125 74.21875 31.78125 74.21875 
z
" id="DejaVuSans-48"/>
      <path d="M 11.71875 12.40625 
L 22.015625 12.40625 
L 22.015625 4 
L 14.015625 -11.625 
L 7.71875 -11.625 
L 11.71875 4 
z
" id="DejaVuSans-44"/>
      <path id="DejaVuSans-32"/>
      <path d="M 9.125 54.6875 
L 61.53125 54.6875 
L 59.765625 45.703125 
L 52.875 45.703125 
L 46.34375 12.109375 
Q 45.65625 8.59375 46.578125 7.03125 
Q 47.46875 5.515625 50.140625 5.515625 
Q 50.875 5.515625 51.953125 5.671875 
Q 53.078125 5.765625 53.421875 5.8125 
L 52.15625 -0.6875 
Q 50.34375 -1.3125 48.484375 -1.609375 
Q 46.578125 -1.90625 44.78125 -1.90625 
Q 38.921875 -1.90625 37.3125 1.265625 
Q 35.6875 4.5 37.359375 13.09375 
L 43.703125 45.703125 
L 23.53125 45.703125 
L 14.65625 0 
L 5.46875 0 
L 14.359375 45.703125 
L 7.375 45.703125 
z
" id="DejaVuSans-Oblique-960"/>
     </defs>
     <g transform="translate(136.033 145.533245)scale(0.08 -0.08)">
      <use transform="translate(0 0.78125)" xlink:href="#DejaVuSans-48"/>
      <use transform="translate(63.623047 0.78125)" xlink:href="#DejaVuSans-44"/>
      <use transform="translate(95.410156 0.78125)" xlink:href="#DejaVuSans-32"/>
      <use transform="translate(127.197266 0.78125)" xlink:href="#DejaVuSans-Oblique-960"/>
     </g>
    </g>
   </g>
   <g id="text_3">
    <g clip-path="url(#p3a86e58d7e)">
     <!-- $U_1$ -->
     <defs>
      <path d="M 12.40625 8.296875 
L 28.515625 8.296875 
L 28.515625 63.921875 
L 10.984375 60.40625 
L 10.984375 69.390625 
L 28.421875 72.90625 
L 38.28125 72.90625 
L 38.28125 8.296875 
L 54.390625 8.296875 
L 54.390625 0 
L 12.40625 0 
z
" id="DejaVuSans-49"/>
     </defs>
     <g transform="translate(249.3155 133.618515)scale(0.13 -0.13)">
      <use transform="translate(0 0.09375)" xlink:href="#DejaVuSans-Oblique-85"/>
      <use transform="translate(73.193359 -16.3125)scale(0.7)" xlink:href="#DejaVuSans-49"/>
     </g>
    </g>
   </g>
   <g id="text_4">
    <g clip-path="url(#p3a86e58d7e)">
     <!-- $-$$\pi$/4 -->
     <defs>
      <path d="M 10.59375 35.5 
L 73.1875 35.5 
L 73.1875 27.203125 
L 10.59375 27.203125 
z
" id="DejaVuSans-8722"/>
      <path d="M 25.390625 72.90625 
L 33.6875 72.90625 
L 8.296875 -9.28125 
L 0 -9.28125 
z
" id="DejaVuSans-47"/>
      <path d="M 37.796875 64.3125 
L 12.890625 25.390625 
L 37.796875 25.390625 
z
M 35.203125 72.90625 
L 47.609375 72.90625 
L 47.609375 25.390625 
L 58.015625 25.390625 
L 58.015625 17.1875 
L 47.609375 17.1875 
L 47.609375 0 
L 37.796875 0 
L 37.796875 17.1875 
L 4.890625 17.1875 
L 4.890625 26.703125 
z
" id="DejaVuSans-52"/>
     </defs>
     <g transform="translate(247.5005 145.533245)scale(0.08 -0.08)">
      <use transform="translate(0 0.09375)" xlink:href="#DejaVuSans-8722"/>
      <use transform="translate(83.789062 0.09375)" xlink:href="#DejaVuSans-Oblique-960"/>
      <use transform="translate(143.994141 0.09375)" xlink:href="#DejaVuSans-47"/>
      <use transform="translate(177.685547 0.09375)" xlink:href="#DejaVuSans-52"/>
     </g>
    </g>
   </g>
   <g id="text_5">
    <g clip-path="url(#p3a86e58d7e)">
     <!-- $U_1$ -->
     <g transform="translate(340.2175 133.618515)scale(0.13 -0.13)">
      <use transform="translate(0 0.09375)" xlink:href="#DejaVuSans-Oblique-85"/>
      <use transform="translate(73.193359 -16.3125)scale(0.7)" xlink:href="#DejaVuSans-49"/>
     </g>
    </g>
   </g>
   <g id="text_6">
    <g clip-path="url(#p3a86e58d7e)">
     <!-- $\pi$/4 -->
     <g transform="translate(341.7625 145.533245)scale(0.08 -0.08)">
      <use transform="translate(0 0.09375)" xlink:href="#DejaVuSans-Oblique-960"/>
      <use transform="translate(60.205078 0.09375)" xlink:href="#DejaVuSans-47"/>
      <use transform="translate(93.896484 0.09375)" xlink:href="#DejaVuSans-52"/>
     </g>
    </g>
   </g>
   <g id="text_7">
    <g clip-path="url(#p3a86e58d7e)">
     <!-- $U_1$ -->
     <g transform="translate(431.1195 88.167515)scale(0.13 -0.13)">
      <use transform="translate(0 0.09375)" xlink:href="#DejaVuSans-Oblique-85"/>
      <use transform="translate(73.193359 -16.3125)scale(0.7)" xlink:href="#DejaVuSans-49"/>
     </g>
    </g>
   </g>
   <g id="text_8">
    <g clip-path="url(#p3a86e58d7e)">
     <!-- $\pi$/4 -->
     <g transform="translate(432.6645 100.082245)scale(0.08 -0.08)">
      <use transform="translate(0 0.09375)" xlink:href="#DejaVuSans-Oblique-960"/>
      <use transform="translate(60.205078 0.09375)" xlink:href="#DejaVuSans-47"/>
      <use transform="translate(93.896484 0.09375)" xlink:href="#DejaVuSans-52"/>
     </g>
    </g>
   </g>
   <g id="text_9">
    <g clip-path="url(#p3a86e58d7e)">
     <!-- $U_1$ -->
     <g transform="translate(431.1195 133.618515)scale(0.13 -0.13)">
      <use transform="translate(0 0.09375)" xlink:href="#DejaVuSans-Oblique-85"/>
      <use transform="translate(73.193359 -16.3125)scale(0.7)" xlink:href="#DejaVuSans-49"/>
     </g>
    </g>
   </g>
   <g id="text_10">
    <g clip-path="url(#p3a86e58d7e)">
     <!-- $-$$\pi$/4 -->
     <g transform="translate(429.3045 145.533245)scale(0.08 -0.08)">
      <use transform="translate(0 0.09375)" xlink:href="#DejaVuSans-8722"/>
      <use transform="translate(83.789062 0.09375)" xlink:href="#DejaVuSans-Oblique-960"/>
      <use transform="translate(143.994141 0.09375)" xlink:href="#DejaVuSans-47"/>
      <use transform="translate(177.685547 0.09375)" xlink:href="#DejaVuSans-52"/>
     </g>
    </g>
   </g>
   <g id="text_11">
    <g clip-path="url(#p3a86e58d7e)">
     <!-- $U_1$ -->
     <g transform="translate(522.0215 133.618515)scale(0.13 -0.13)">
      <use transform="translate(0 0.09375)" xlink:href="#DejaVuSans-Oblique-85"/>
      <use transform="translate(73.193359 -16.3125)scale(0.7)" xlink:href="#DejaVuSans-49"/>
     </g>
    </g>
   </g>
   <g id="text_12">
    <g clip-path="url(#p3a86e58d7e)">
     <!-- $\pi$/4 -->
     <g transform="translate(523.5665 145.533245)scale(0.08 -0.08)">
      <use transform="translate(0 0.09375)" xlink:href="#DejaVuSans-Oblique-960"/>
      <use transform="translate(60.205078 0.09375)" xlink:href="#DejaVuSans-47"/>
      <use transform="translate(93.896484 0.09375)" xlink:href="#DejaVuSans-52"/>
     </g>
    </g>
   </g>
   <g id="text_13">
    <g clip-path="url(#p3a86e58d7e)">
     <!-- $U_1$ -->
     <g transform="translate(590.198 42.716515)scale(0.13 -0.13)">
      <use transform="translate(0 0.09375)" xlink:href="#DejaVuSans-Oblique-85"/>
      <use transform="translate(73.193359 -16.3125)scale(0.7)" xlink:href="#DejaVuSans-49"/>
     </g>
    </g>
   </g>
   <g id="text_14">
    <g clip-path="url(#p3a86e58d7e)">
     <!-- $\pi$/4 -->
     <g transform="translate(591.743 54.631245)scale(0.08 -0.08)">
      <use transform="translate(0 0.09375)" xlink:href="#DejaVuSans-Oblique-960"/>
      <use transform="translate(60.205078 0.09375)" xlink:href="#DejaVuSans-47"/>
      <use transform="translate(93.896484 0.09375)" xlink:href="#DejaVuSans-52"/>
     </g>
    </g>
   </g>
   <g id="text_15">
    <g clip-path="url(#p3a86e58d7e)">
     <!-- $U_1$ -->
     <g transform="translate(590.198 88.167515)scale(0.13 -0.13)">
      <use transform="translate(0 0.09375)" xlink:href="#DejaVuSans-Oblique-85"/>
      <use transform="translate(73.193359 -16.3125)scale(0.7)" xlink:href="#DejaVuSans-49"/>
     </g>
    </g>
   </g>
   <g id="text_16">
    <g clip-path="url(#p3a86e58d7e)">
     <!-- $-$$\pi$/4 -->
     <g transform="translate(588.383 100.082245)scale(0.08 -0.08)">
      <use transform="translate(0 0.09375)" xlink:href="#DejaVuSans-8722"/>
      <use transform="translate(83.789062 0.09375)" xlink:href="#DejaVuSans-Oblique-960"/>
      <use transform="translate(143.994141 0.09375)" xlink:href="#DejaVuSans-47"/>
      <use transform="translate(177.685547 0.09375)" xlink:href="#DejaVuSans-52"/>
     </g>
    </g>
   </g>
   <g id="text_17">
    <g clip-path="url(#p3a86e58d7e)">
     <!-- $U_2$ -->
     <g transform="translate(590.198 133.618515)scale(0.13 -0.13)">
      <use transform="translate(0 0.09375)" xlink:href="#DejaVuSans-Oblique-85"/>
      <use transform="translate(73.193359 -16.3125)scale(0.7)" xlink:href="#DejaVuSans-50"/>
     </g>
    </g>
   </g>
   <g id="text_18">
    <g clip-path="url(#p3a86e58d7e)">
     <!-- 0, $\pi$ -->
     <g transform="translate(590.543 145.533245)scale(0.08 -0.08)">
      <use transform="translate(0 0.78125)" xlink:href="#DejaVuSans-48"/>
      <use transform="translate(63.623047 0.78125)" xlink:href="#DejaVuSans-44"/>
      <use transform="translate(95.410156 0.78125)" xlink:href="#DejaVuSans-32"/>
      <use transform="translate(127.197266 0.78125)" xlink:href="#DejaVuSans-Oblique-960"/>
     </g>
    </g>
   </g>
   <g id="text_19">
    <g clip-path="url(#p3a86e58d7e)">
     <!-- $q_{0}$ -->
     <defs>
      <path d="M 41.703125 8.203125 
Q 38.09375 3.46875 33.171875 1.015625 
Q 28.265625 -1.421875 22.3125 -1.421875 
Q 14.015625 -1.421875 9.296875 4.171875 
Q 4.59375 9.765625 4.59375 19.578125 
Q 4.59375 27.484375 7.5 34.859375 
Q 10.40625 42.234375 15.828125 48.09375 
Q 19.34375 51.90625 23.90625 53.953125 
Q 28.46875 56 33.5 56 
Q 39.546875 56 43.453125 53.609375 
Q 47.359375 51.21875 49.125 46.390625 
L 50.6875 54.59375 
L 59.71875 54.59375 
L 45.125 -20.609375 
L 36.078125 -20.609375 
z
M 13.921875 20.90625 
Q 13.921875 13.671875 16.9375 9.890625 
Q 19.96875 6.109375 25.6875 6.109375 
Q 34.1875 6.109375 40.1875 14.234375 
Q 46.1875 22.359375 46.1875 33.984375 
Q 46.1875 41.015625 43.078125 44.75 
Q 39.984375 48.484375 34.1875 48.484375 
Q 29.9375 48.484375 26.3125 46.5 
Q 22.703125 44.53125 20.015625 40.71875 
Q 17.1875 36.71875 15.546875 31.34375 
Q 13.921875 25.984375 13.921875 20.90625 
z
" id="DejaVuSans-Oblique-113"/>
     </defs>
     <g transform="translate(57.339 48.011777)scale(0.1625 -0.1625)">
      <use xlink:href="#DejaVuSans-Oblique-113"/>
      <use transform="translate(63.476562 -16.40625)scale(0.7)" xlink:href="#DejaVuSans-48"/>
     </g>
    </g>
   </g>
   <g id="text_20">
    <g clip-path="url(#p3a86e58d7e)">
     <!-- $q_{1}$ -->
     <g transform="translate(57.339 93.462777)scale(0.1625 -0.1625)">
      <use xlink:href="#DejaVuSans-Oblique-113"/>
      <use transform="translate(63.476562 -16.40625)scale(0.7)" xlink:href="#DejaVuSans-49"/>
     </g>
    </g>
   </g>
   <g id="text_21">
    <g clip-path="url(#p3a86e58d7e)">
     <!-- $q_{2}$ -->
     <g transform="translate(57.339 138.913777)scale(0.1625 -0.1625)">
      <use xlink:href="#DejaVuSans-Oblique-113"/>
      <use transform="translate(63.476562 -16.40625)scale(0.7)" xlink:href="#DejaVuSans-50"/>
     </g>
    </g>
   </g>
  </g>
 </g>
 <defs>
  <clipPath id="p3a86e58d7e">
   <rect height="154.5334" width="709.0356" x="7.2" y="7.2"/>
  </clipPath>
 </defs>
</svg>
