<?xml version="1.0" encoding="utf-8" standalone="no"?>
<!DOCTYPE svg PUBLIC "-//W3C//DTD SVG 1.1//EN"
  "http://www.w3.org/Graphics/SVG/1.1/DTD/svg11.dtd">
<!-- Created with matplotlib (https://matplotlib.org/) -->
<svg height="144.48pt" version="1.1" viewBox="0 0 501.832016 144.48" width="501.832016pt" xmlns="http://www.w3.org/2000/svg" xmlns:xlink="http://www.w3.org/1999/xlink">
 <metadata>
  <rdf:RDF xmlns:cc="http://creativecommons.org/ns#" xmlns:dc="http://purl.org/dc/elements/1.1/" xmlns:rdf="http://www.w3.org/1999/02/22-rdf-syntax-ns#">
   <cc:Work>
    <dc:type rdf:resource="http://purl.org/dc/dcmitype/StillImage"/>
    <dc:date>2020-08-28T11:48:04.310027</dc:date>
    <dc:format>image/svg+xml</dc:format>
    <dc:creator>
     <cc:Agent>
      <dc:title>Matplotlib v3.3.0, https://matplotlib.org/</dc:title>
     </cc:Agent>
    </dc:creator>
   </cc:Work>
  </rdf:RDF>
 </metadata>
 <defs>
  <style type="text/css">*{stroke-linecap:butt;stroke-linejoin:round;}</style>
 </defs>
 <g id="figure_1">
  <g id="patch_1">
   <path d="M 0 144.48 
L 501.832016 144.48 
L 501.832016 0 
L 0 0 
z
" style="fill:#ffffff;"/>
  </g>
  <g id="axes_1">
   <g id="line2d_1">
    <path clip-path="url(#peecf4e8439)" d="M 133.018594 53.6984 
L 442.085394 53.6984 
" style="fill:none;stroke:#000000;stroke-linecap:square;stroke-width:2;"/>
   </g>
   <g id="line2d_2">
    <path clip-path="url(#peecf4e8439)" d="M 133.018594 99.1494 
L 442.085394 99.1494 
" style="fill:none;stroke:#000000;stroke-linecap:square;stroke-width:2;"/>
   </g>
   <g id="line2d_3">
    <path clip-path="url(#peecf4e8439)" d="M 214.830394 99.1494 
L 214.830394 53.6984 
" style="fill:none;stroke:#6fa4ff;stroke-linecap:square;stroke-width:2;"/>
   </g>
   <g id="line2d_4">
    <path clip-path="url(#peecf4e8439)" d="M 351.183394 99.1494 
L 351.183394 53.6984 
" style="fill:none;stroke:#6fa4ff;stroke-linecap:square;stroke-width:2;"/>
   </g>
   <g id="patch_2">
    <path clip-path="url(#peecf4e8439)" d="M 154.607819 68.469975 
L 184.150969 68.469975 
L 184.150969 38.926825 
L 154.607819 38.926825 
z
" style="fill:#6fa4ff;stroke:#6fa4ff;stroke-linejoin:miter;stroke-width:1.5;"/>
   </g>
   <g id="patch_3">
    <path clip-path="url(#peecf4e8439)" d="M 154.607819 113.920975 
L 184.150969 113.920975 
L 184.150969 84.377825 
L 154.607819 84.377825 
z
" style="fill:#6fa4ff;stroke:#6fa4ff;stroke-linejoin:miter;stroke-width:1.5;"/>
   </g>
   <g id="patch_4">
    <path clip-path="url(#peecf4e8439)" d="M 214.830394 58.129873 
C 216.005634 58.129873 217.132898 57.662945 217.963918 56.831924 
C 218.794939 56.000904 219.261867 54.87364 219.261867 53.6984 
C 219.261867 52.52316 218.794939 51.395896 217.963918 50.564876 
C 217.132898 49.733855 216.005634 49.266928 214.830394 49.266928 
C 213.655154 49.266928 212.52789 49.733855 211.69687 50.564876 
C 210.86585 51.395896 210.398922 52.52316 210.398922 53.6984 
C 210.398922 54.87364 210.86585 56.000904 211.69687 56.831924 
C 212.52789 57.662945 213.655154 58.129873 214.830394 58.129873 
z
" style="fill:#6fa4ff;stroke:#6fa4ff;stroke-linejoin:miter;stroke-width:1.5;"/>
   </g>
   <g id="patch_5">
    <path clip-path="url(#peecf4e8439)" d="M 214.830394 103.580873 
C 216.005634 103.580873 217.132898 103.113945 217.963918 102.282924 
C 218.794939 101.451904 219.261867 100.32464 219.261867 99.1494 
C 219.261867 97.97416 218.794939 96.846896 217.963918 96.015876 
C 217.132898 95.184855 216.005634 94.717928 214.830394 94.717928 
C 213.655154 94.717928 212.52789 95.184855 211.69687 96.015876 
C 210.86585 96.846896 210.398922 97.97416 210.398922 99.1494 
C 210.398922 100.32464 210.86585 101.451904 211.69687 102.282924 
C 212.52789 103.113945 213.655154 103.580873 214.830394 103.580873 
z
" style="fill:#6fa4ff;stroke:#6fa4ff;stroke-linejoin:miter;stroke-width:1.5;"/>
   </g>
   <g id="patch_6">
    <path clip-path="url(#peecf4e8439)" d="M 245.509819 68.469975 
L 275.052969 68.469975 
L 275.052969 38.926825 
L 245.509819 38.926825 
z
" style="fill:#6fa4ff;stroke:#6fa4ff;stroke-linejoin:miter;stroke-width:1.5;"/>
   </g>
   <g id="patch_7">
    <path clip-path="url(#peecf4e8439)" d="M 245.509819 113.920975 
L 275.052969 113.920975 
L 275.052969 84.377825 
L 245.509819 84.377825 
z
" style="fill:#6fa4ff;stroke:#6fa4ff;stroke-linejoin:miter;stroke-width:1.5;"/>
   </g>
   <g id="patch_8">
    <path clip-path="url(#peecf4e8439)" d="M 290.960819 68.469975 
L 320.503969 68.469975 
L 320.503969 38.926825 
L 290.960819 38.926825 
z
" style="fill:#05bab6;stroke:#05bab6;stroke-linejoin:miter;stroke-width:1.5;"/>
   </g>
   <g id="patch_9">
    <path clip-path="url(#peecf4e8439)" d="M 290.960819 113.920975 
L 320.503969 113.920975 
L 320.503969 84.377825 
L 290.960819 84.377825 
z
" style="fill:#05bab6;stroke:#05bab6;stroke-linejoin:miter;stroke-width:1.5;"/>
   </g>
   <g id="patch_10">
    <path clip-path="url(#peecf4e8439)" d="M 351.183394 58.129873 
C 352.358634 58.129873 353.485898 57.662945 354.316918 56.831924 
C 355.147939 56.000904 355.614867 54.87364 355.614867 53.6984 
C 355.614867 52.52316 355.147939 51.395896 354.316918 50.564876 
C 353.485898 49.733855 352.358634 49.266928 351.183394 49.266928 
C 350.008154 49.266928 348.88089 49.733855 348.04987 50.564876 
C 347.21885 51.395896 346.751922 52.52316 346.751922 53.6984 
C 346.751922 54.87364 347.21885 56.000904 348.04987 56.831924 
C 348.88089 57.662945 350.008154 58.129873 351.183394 58.129873 
z
" style="fill:#6fa4ff;stroke:#6fa4ff;stroke-linejoin:miter;stroke-width:1.5;"/>
   </g>
   <g id="patch_11">
    <path clip-path="url(#peecf4e8439)" d="M 351.183394 103.580873 
C 352.358634 103.580873 353.485898 103.113945 354.316918 102.282924 
C 355.147939 101.451904 355.614867 100.32464 355.614867 99.1494 
C 355.614867 97.97416 355.147939 96.846896 354.316918 96.015876 
C 353.485898 95.184855 352.358634 94.717928 351.183394 94.717928 
C 350.008154 94.717928 348.88089 95.184855 348.04987 96.015876 
C 347.21885 96.846896 346.751922 97.97416 346.751922 99.1494 
C 346.751922 100.32464 347.21885 101.451904 348.04987 102.282924 
C 348.88089 103.113945 350.008154 103.580873 351.183394 103.580873 
z
" style="fill:#6fa4ff;stroke:#6fa4ff;stroke-linejoin:miter;stroke-width:1.5;"/>
   </g>
   <g id="patch_12">
    <path clip-path="url(#peecf4e8439)" d="M 381.862819 68.469975 
L 411.405969 68.469975 
L 411.405969 38.926825 
L 381.862819 38.926825 
z
" style="fill:#6fa4ff;stroke:#6fa4ff;stroke-linejoin:miter;stroke-width:1.5;"/>
   </g>
   <g id="patch_13">
    <path clip-path="url(#peecf4e8439)" d="M 381.862819 113.920975 
L 411.405969 113.920975 
L 411.405969 84.377825 
L 381.862819 84.377825 
z
" style="fill:#6fa4ff;stroke:#6fa4ff;stroke-linejoin:miter;stroke-width:1.5;"/>
   </g>
   <g id="text_1">
    <g clip-path="url(#peecf4e8439)">
     <!-- H -->
     <g transform="translate(164.491191 57.285588)scale(0.13 -0.13)">
      <defs>
       <path d="M 9.8125 72.90625 
L 19.671875 72.90625 
L 19.671875 43.015625 
L 55.515625 43.015625 
L 55.515625 72.90625 
L 65.375 72.90625 
L 65.375 0 
L 55.515625 0 
L 55.515625 34.71875 
L 19.671875 34.71875 
L 19.671875 0 
L 9.8125 0 
z
" id="DejaVuSans-72"/>
      </defs>
      <use xlink:href="#DejaVuSans-72"/>
     </g>
    </g>
   </g>
   <g id="text_2">
    <g clip-path="url(#peecf4e8439)">
     <!-- H -->
     <g transform="translate(164.491191 102.736588)scale(0.13 -0.13)">
      <use xlink:href="#DejaVuSans-72"/>
     </g>
    </g>
   </g>
   <g id="text_3">
    <g clip-path="url(#peecf4e8439)">
     <!-- H -->
     <g transform="translate(255.393191 57.285588)scale(0.13 -0.13)">
      <use xlink:href="#DejaVuSans-72"/>
     </g>
    </g>
   </g>
   <g id="text_4">
    <g clip-path="url(#peecf4e8439)">
     <!-- H -->
     <g transform="translate(255.393191 102.736588)scale(0.13 -0.13)">
      <use xlink:href="#DejaVuSans-72"/>
     </g>
    </g>
   </g>
   <g id="text_5">
    <g clip-path="url(#peecf4e8439)">
     <!-- Z -->
     <g transform="translate(301.279894 57.285588)scale(0.13 -0.13)">
      <defs>
       <path d="M 5.609375 72.90625 
L 62.890625 72.90625 
L 62.890625 65.375 
L 16.796875 8.296875 
L 64.015625 8.296875 
L 64.015625 0 
L 4.5 0 
L 4.5 7.515625 
L 50.59375 64.59375 
L 5.609375 64.59375 
z
" id="DejaVuSans-90"/>
      </defs>
      <use xlink:href="#DejaVuSans-90"/>
     </g>
    </g>
   </g>
   <g id="text_6">
    <g clip-path="url(#peecf4e8439)">
     <!-- Z -->
     <g transform="translate(301.279894 102.736588)scale(0.13 -0.13)">
      <use xlink:href="#DejaVuSans-90"/>
     </g>
    </g>
   </g>
   <g id="text_7">
    <g clip-path="url(#peecf4e8439)">
     <!-- H -->
     <g transform="translate(391.746191 57.285588)scale(0.13 -0.13)">
      <use xlink:href="#DejaVuSans-72"/>
     </g>
    </g>
   </g>
   <g id="text_8">
    <g clip-path="url(#peecf4e8439)">
     <!-- H -->
     <g transform="translate(391.746191 102.736588)scale(0.13 -0.13)">
      <use xlink:href="#DejaVuSans-72"/>
     </g>
    </g>
   </g>
   <g id="text_9">
    <g clip-path="url(#peecf4e8439)">
     <!-- ${q}_{0}$ -->
     <g transform="translate(96.800694 58.149377)scale(0.1625 -0.1625)">
      <defs>
       <path d="M 41.703125 8.203125 
Q 38.09375 3.46875 33.171875 1.015625 
Q 28.265625 -1.421875 22.3125 -1.421875 
Q 14.015625 -1.421875 9.296875 4.171875 
Q 4.59375 9.765625 4.59375 19.578125 
Q 4.59375 27.484375 7.5 34.859375 
Q 10.40625 42.234375 15.828125 48.09375 
Q 19.34375 51.90625 23.90625 53.953125 
Q 28.46875 56 33.5 56 
Q 39.546875 56 43.453125 53.609375 
Q 47.359375 51.21875 49.125 46.390625 
L 50.6875 54.59375 
L 59.71875 54.59375 
L 45.125 -20.609375 
L 36.078125 -20.609375 
z
M 13.921875 20.90625 
Q 13.921875 13.671875 16.9375 9.890625 
Q 19.96875 6.109375 25.6875 6.109375 
Q 34.1875 6.109375 40.1875 14.234375 
Q 46.1875 22.359375 46.1875 33.984375 
Q 46.1875 41.015625 43.078125 44.75 
Q 39.984375 48.484375 34.1875 48.484375 
Q 29.9375 48.484375 26.3125 46.5 
Q 22.703125 44.53125 20.015625 40.71875 
Q 17.1875 36.71875 15.546875 31.34375 
Q 13.921875 25.984375 13.921875 20.90625 
z
" id="DejaVuSans-Oblique-113"/>
       <path d="M 31.78125 66.40625 
Q 24.171875 66.40625 20.328125 58.90625 
Q 16.5 51.421875 16.5 36.375 
Q 16.5 21.390625 20.328125 13.890625 
Q 24.171875 6.390625 31.78125 6.390625 
Q 39.453125 6.390625 43.28125 13.890625 
Q 47.125 21.390625 47.125 36.375 
Q 47.125 51.421875 43.28125 58.90625 
Q 39.453125 66.40625 31.78125 66.40625 
z
M 31.78125 74.21875 
Q 44.046875 74.21875 50.515625 64.515625 
Q 56.984375 54.828125 56.984375 36.375 
Q 56.984375 17.96875 50.515625 8.265625 
Q 44.046875 -1.421875 31.78125 -1.421875 
Q 19.53125 -1.421875 13.0625 8.265625 
Q 6.59375 17.96875 6.59375 36.375 
Q 6.59375 54.828125 13.0625 64.515625 
Q 19.53125 74.21875 31.78125 74.21875 
z
" id="DejaVuSans-48"/>
      </defs>
      <use xlink:href="#DejaVuSans-Oblique-113"/>
      <use transform="translate(63.476562 -16.40625)scale(0.7)" xlink:href="#DejaVuSans-48"/>
     </g>
    </g>
   </g>
   <g id="text_10">
    <g clip-path="url(#peecf4e8439)">
     <!-- ${q}_{1}$ -->
     <g transform="translate(96.800694 103.600377)scale(0.1625 -0.1625)">
      <defs>
       <path d="M 12.40625 8.296875 
L 28.515625 8.296875 
L 28.515625 63.921875 
L 10.984375 60.40625 
L 10.984375 69.390625 
L 28.421875 72.90625 
L 38.28125 72.90625 
L 38.28125 8.296875 
L 54.390625 8.296875 
L 54.390625 0 
L 12.40625 0 
z
" id="DejaVuSans-49"/>
      </defs>
      <use xlink:href="#DejaVuSans-Oblique-113"/>
      <use transform="translate(63.476562 -16.40625)scale(0.7)" xlink:href="#DejaVuSans-49"/>
     </g>
    </g>
   </g>
  </g>
 </g>
 <defs>
  <clipPath id="peecf4e8439">
   <rect height="109.0824" width="378.883172" x="67.747322" y="17.3376"/>
  </clipPath>
 </defs>
</svg>
