<svg width="384" height="369" viewBox="0 0 384 369" fill="none" xmlns="http://www.w3.org/2000/svg">
<rect y="1" width="384" height="368" fill="white"/>
<rect x="95.5" y="116.5" width="4" height="38" fill="#BE95FF" stroke="#491D8B"/>
<rect x="287.5" y="116.5" width="4" height="38" fill="#BE95FF" stroke="#491D8B"/>
<path d="M29.36 206V204.832H32.56V195.824H32.448L29.632 198.448L28.848 197.6L31.808 194.832H33.904V204.832H36.848V206H29.36Z" fill="#121619"/>
<path d="M221.36 206V204.832H224.56V195.824H224.448L221.632 198.448L220.848 197.6L223.808 194.832H225.904V204.832H228.848V206H221.36Z" fill="#121619"/>
<path opacity="0.2" d="M158.8 194.192C158.117 194.192 157.531 194.064 157.04 193.808C156.549 193.541 156.144 193.163 155.824 192.672C155.504 192.181 155.269 191.579 155.12 190.864C154.971 190.149 154.896 189.333 154.896 188.416C154.896 187.509 154.971 186.699 155.12 185.984C155.269 185.259 155.504 184.651 155.824 184.16C156.144 183.669 156.549 183.296 157.04 183.04C157.531 182.773 158.117 182.64 158.8 182.64C159.483 182.64 160.069 182.773 160.56 183.04C161.051 183.296 161.456 183.669 161.776 184.16C162.096 184.651 162.331 185.259 162.48 185.984C162.629 186.699 162.704 187.509 162.704 188.416C162.704 189.333 162.629 190.149 162.48 190.864C162.331 191.579 162.096 192.181 161.776 192.672C161.456 193.163 161.051 193.541 160.56 193.808C160.069 194.064 159.483 194.192 158.8 194.192ZM158.8 193.024C159.248 193.024 159.632 192.939 159.952 192.768C160.272 192.587 160.528 192.336 160.72 192.016C160.923 191.696 161.072 191.312 161.168 190.864C161.264 190.405 161.312 189.893 161.312 189.328V187.504C161.312 186.949 161.264 186.443 161.168 185.984C161.072 185.525 160.923 185.136 160.72 184.816C160.528 184.496 160.272 184.251 159.952 184.08C159.632 183.899 159.248 183.808 158.8 183.808C158.352 183.808 157.968 183.899 157.648 184.08C157.328 184.251 157.067 184.496 156.864 184.816C156.672 185.136 156.528 185.525 156.432 185.984C156.336 186.443 156.288 186.949 156.288 187.504V189.328C156.288 189.893 156.336 190.405 156.432 190.864C156.528 191.312 156.672 191.696 156.864 192.016C157.067 192.336 157.328 192.587 157.648 192.768C157.968 192.939 158.352 193.024 158.8 193.024ZM158.8 189.36C158.427 189.36 158.165 189.285 158.016 189.136C157.877 188.987 157.808 188.805 157.808 188.592V188.24C157.808 188.027 157.877 187.845 158.016 187.696C158.165 187.547 158.427 187.472 158.8 187.472C159.173 187.472 159.429 187.547 159.568 187.696C159.717 187.845 159.792 188.027 159.792 188.24V188.592C159.792 188.805 159.717 188.987 159.568 189.136C159.429 189.285 159.173 189.36 158.8 189.36Z" fill="#121619"/>
<path d="M350.8 194.192C350.117 194.192 349.531 194.064 349.04 193.808C348.549 193.541 348.144 193.163 347.824 192.672C347.504 192.181 347.269 191.579 347.12 190.864C346.971 190.149 346.896 189.333 346.896 188.416C346.896 187.509 346.971 186.699 347.12 185.984C347.269 185.259 347.504 184.651 347.824 184.16C348.144 183.669 348.549 183.296 349.04 183.04C349.531 182.773 350.117 182.64 350.8 182.64C351.483 182.64 352.069 182.773 352.56 183.04C353.051 183.296 353.456 183.669 353.776 184.16C354.096 184.651 354.331 185.259 354.48 185.984C354.629 186.699 354.704 187.509 354.704 188.416C354.704 189.333 354.629 190.149 354.48 190.864C354.331 191.579 354.096 192.181 353.776 192.672C353.456 193.163 353.051 193.541 352.56 193.808C352.069 194.064 351.483 194.192 350.8 194.192ZM350.8 193.024C351.248 193.024 351.632 192.939 351.952 192.768C352.272 192.587 352.528 192.336 352.72 192.016C352.923 191.696 353.072 191.312 353.168 190.864C353.264 190.405 353.312 189.893 353.312 189.328V187.504C353.312 186.949 353.264 186.443 353.168 185.984C353.072 185.525 352.923 185.136 352.72 184.816C352.528 184.496 352.272 184.251 351.952 184.08C351.632 183.899 351.248 183.808 350.8 183.808C350.352 183.808 349.968 183.899 349.648 184.08C349.328 184.251 349.067 184.496 348.864 184.816C348.672 185.136 348.528 185.525 348.432 185.984C348.336 186.443 348.288 186.949 348.288 187.504V189.328C348.288 189.893 348.336 190.405 348.432 190.864C348.528 191.312 348.672 191.696 348.864 192.016C349.067 192.336 349.328 192.587 349.648 192.768C349.968 192.939 350.352 193.024 350.8 193.024ZM350.8 189.36C350.427 189.36 350.165 189.285 350.016 189.136C349.877 188.987 349.808 188.805 349.808 188.592V188.24C349.808 188.027 349.877 187.845 350.016 187.696C350.165 187.547 350.427 187.472 350.8 187.472C351.173 187.472 351.429 187.547 351.568 187.696C351.717 187.845 351.792 188.027 351.792 188.24V188.592C351.792 188.805 351.717 188.987 351.568 189.136C351.429 189.285 351.173 189.36 350.8 189.36Z" fill="#121619"/>
<path d="M155.36 215V213.832H158.56V204.824H158.448L155.632 207.448L154.848 206.6L157.808 203.832H159.904V213.832H162.848V215H155.36Z" fill="#121619"/>
<path opacity="0.2" d="M347.36 215V213.832H350.56V204.824H350.448L347.632 207.448L346.848 206.6L349.808 203.832H351.904V213.832H354.848V215H347.36Z" fill="#121619"/>
<rect opacity="0.4" y="313" width="384" height="56" fill="#F2F4F8"/>
<path d="M22.28 336L20.24 327.624H21.308L22.208 331.656L22.904 334.788H22.928L23.708 331.656L24.764 327.624H25.916L26.936 331.656L27.716 334.776H27.752L28.472 331.656L29.42 327.624H30.452L28.304 336H27.188L26.096 331.824L25.328 328.752H25.304L24.512 331.824L23.396 336H22.28ZM31.8675 327.12H32.8275V330.816H32.8755C33.0275 330.464 33.2395 330.184 33.5115 329.976C33.7915 329.768 34.1635 329.664 34.6275 329.664C35.2675 329.664 35.7715 329.872 36.1395 330.288C36.5155 330.696 36.7035 331.276 36.7035 332.028V336H35.7435V332.196C35.7435 331.084 35.2755 330.528 34.3395 330.528C34.1475 330.528 33.9595 330.552 33.7755 330.6C33.5995 330.648 33.4395 330.72 33.2955 330.816C33.1515 330.912 33.0355 331.036 32.9475 331.188C32.8675 331.332 32.8275 331.504 32.8275 331.704V336H31.8675V327.12ZM41.1758 336.144C40.7518 336.144 40.3678 336.068 40.0238 335.916C39.6878 335.764 39.3958 335.548 39.1478 335.268C38.9078 334.98 38.7198 334.64 38.5838 334.248C38.4558 333.848 38.3918 333.4 38.3918 332.904C38.3918 332.416 38.4558 331.972 38.5838 331.572C38.7198 331.172 38.9078 330.832 39.1478 330.552C39.3958 330.264 39.6878 330.044 40.0238 329.892C40.3678 329.74 40.7518 329.664 41.1758 329.664C41.5918 329.664 41.9638 329.74 42.2918 329.892C42.6198 330.044 42.8998 330.256 43.1318 330.528C43.3638 330.792 43.5398 331.108 43.6598 331.476C43.7878 331.844 43.8518 332.248 43.8518 332.688V333.144H39.3998V333.432C39.3998 333.696 39.4398 333.944 39.5198 334.176C39.6078 334.4 39.7278 334.596 39.8798 334.764C40.0398 334.932 40.2318 335.064 40.4558 335.16C40.6878 335.256 40.9478 335.304 41.2358 335.304C41.6278 335.304 41.9678 335.212 42.2558 335.028C42.5518 334.844 42.7798 334.58 42.9398 334.236L43.6238 334.728C43.4238 335.152 43.1118 335.496 42.6878 335.76C42.2638 336.016 41.7598 336.144 41.1758 336.144ZM41.1758 330.468C40.9118 330.468 40.6718 330.516 40.4558 330.612C40.2398 330.7 40.0518 330.828 39.8918 330.996C39.7398 331.164 39.6198 331.364 39.5318 331.596C39.4438 331.82 39.3998 332.068 39.3998 332.34V332.424H42.8198V332.292C42.8198 331.74 42.6678 331.3 42.3638 330.972C42.0678 330.636 41.6718 330.468 41.1758 330.468ZM45.5937 336V329.808H46.5537V330.816H46.6017C46.7537 330.464 46.9657 330.184 47.2377 329.976C47.5177 329.768 47.8897 329.664 48.3537 329.664C48.9937 329.664 49.4977 329.872 49.8657 330.288C50.2417 330.696 50.4297 331.276 50.4297 332.028V336H49.4697V332.196C49.4697 331.084 49.0017 330.528 48.0657 330.528C47.8737 330.528 47.6857 330.552 47.5017 330.6C47.3257 330.648 47.1657 330.72 47.0217 330.816C46.8777 330.912 46.7617 331.036 46.6737 331.188C46.5937 331.332 46.5537 331.504 46.5537 331.704V336H45.5937ZM56.938 336C56.602 336 56.346 335.908 56.17 335.724C56.002 335.532 55.918 335.284 55.918 334.98V330.648H54.898V329.808H55.474C55.682 329.808 55.822 329.768 55.894 329.688C55.974 329.6 56.014 329.452 56.014 329.244V328.092H56.878V329.808H58.234V330.648H56.878V335.16H58.138V336H56.938ZM59.937 327.12H60.897V330.816H60.945C61.097 330.464 61.309 330.184 61.581 329.976C61.861 329.768 62.233 329.664 62.697 329.664C63.337 329.664 63.841 329.872 64.209 330.288C64.585 330.696 64.773 331.276 64.773 332.028V336H63.813V332.196C63.813 331.084 63.345 330.528 62.409 330.528C62.217 330.528 62.029 330.552 61.845 330.6C61.669 330.648 61.509 330.72 61.365 330.816C61.221 330.912 61.105 331.036 61.017 331.188C60.937 331.332 60.897 331.504 60.897 331.704V336H59.937V327.12ZM69.2453 336.144C68.8213 336.144 68.4373 336.068 68.0933 335.916C67.7573 335.764 67.4653 335.548 67.2173 335.268C66.9773 334.98 66.7893 334.64 66.6533 334.248C66.5253 333.848 66.4613 333.4 66.4613 332.904C66.4613 332.416 66.5253 331.972 66.6533 331.572C66.7893 331.172 66.9773 330.832 67.2173 330.552C67.4653 330.264 67.7573 330.044 68.0933 329.892C68.4373 329.74 68.8213 329.664 69.2453 329.664C69.6613 329.664 70.0333 329.74 70.3613 329.892C70.6893 330.044 70.9693 330.256 71.2013 330.528C71.4333 330.792 71.6093 331.108 71.7293 331.476C71.8573 331.844 71.9213 332.248 71.9213 332.688V333.144H67.4693V333.432C67.4693 333.696 67.5093 333.944 67.5893 334.176C67.6773 334.4 67.7973 334.596 67.9493 334.764C68.1093 334.932 68.3013 335.064 68.5253 335.16C68.7573 335.256 69.0173 335.304 69.3053 335.304C69.6973 335.304 70.0373 335.212 70.3253 335.028C70.6213 334.844 70.8493 334.58 71.0093 334.236L71.6933 334.728C71.4933 335.152 71.1813 335.496 70.7573 335.76C70.3333 336.016 69.8293 336.144 69.2453 336.144ZM69.2453 330.468C68.9813 330.468 68.7413 330.516 68.5253 330.612C68.3093 330.7 68.1213 330.828 67.9613 330.996C67.8093 331.164 67.6893 331.364 67.6013 331.596C67.5133 331.82 67.4693 332.068 67.4693 332.34V332.424H70.8893V332.292C70.8893 331.74 70.7373 331.3 70.4333 330.972C70.1373 330.636 69.7413 330.468 69.2453 330.468ZM78.9632 336.144C78.5312 336.144 78.1432 336.068 77.7992 335.916C77.4552 335.764 77.1632 335.548 76.9232 335.268C76.6912 334.988 76.5112 334.648 76.3832 334.248C76.2632 333.848 76.2032 333.4 76.2032 332.904C76.2032 332.408 76.2632 331.96 76.3832 331.56C76.5112 331.16 76.6912 330.82 76.9232 330.54C77.1632 330.26 77.4552 330.044 77.7992 329.892C78.1432 329.74 78.5312 329.664 78.9632 329.664C79.5792 329.664 80.0712 329.8 80.4392 330.072C80.8152 330.336 81.0952 330.684 81.2792 331.116L80.4752 331.524C80.3632 331.204 80.1792 330.956 79.9232 330.78C79.6672 330.604 79.3472 330.516 78.9632 330.516C78.6752 330.516 78.4232 330.564 78.2072 330.66C77.9912 330.748 77.8112 330.876 77.6672 331.044C77.5232 331.204 77.4152 331.4 77.3432 331.632C77.2712 331.856 77.2352 332.104 77.2352 332.376V333.432C77.2352 333.976 77.3792 334.424 77.6672 334.776C77.9632 335.12 78.3952 335.292 78.9632 335.292C79.7392 335.292 80.2992 334.932 80.6432 334.212L81.3392 334.68C81.1392 335.128 80.8392 335.484 80.4392 335.748C80.0472 336.012 79.5552 336.144 78.9632 336.144ZM85.1241 336.144C84.7081 336.144 84.3281 336.068 83.9841 335.916C83.6401 335.764 83.3441 335.548 83.0961 335.268C82.8561 334.98 82.6681 334.64 82.5321 334.248C82.3961 333.848 82.3281 333.4 82.3281 332.904C82.3281 332.416 82.3961 331.972 82.5321 331.572C82.6681 331.172 82.8561 330.832 83.0961 330.552C83.3441 330.264 83.6401 330.044 83.9841 329.892C84.3281 329.74 84.7081 329.664 85.1241 329.664C85.5401 329.664 85.9161 329.74 86.2521 329.892C86.5961 330.044 86.8921 330.264 87.1401 330.552C87.3881 330.832 87.5801 331.172 87.7161 331.572C87.8521 331.972 87.9201 332.416 87.9201 332.904C87.9201 333.4 87.8521 333.848 87.7161 334.248C87.5801 334.64 87.3881 334.98 87.1401 335.268C86.8921 335.548 86.5961 335.764 86.2521 335.916C85.9161 336.068 85.5401 336.144 85.1241 336.144ZM85.1241 335.292C85.6441 335.292 86.0681 335.132 86.3961 334.812C86.7241 334.492 86.8881 334.004 86.8881 333.348V332.46C86.8881 331.804 86.7241 331.316 86.3961 330.996C86.0681 330.676 85.6441 330.516 85.1241 330.516C84.6041 330.516 84.1801 330.676 83.8521 330.996C83.5241 331.316 83.3601 331.804 83.3601 332.46V333.348C83.3601 334.004 83.5241 334.492 83.8521 334.812C84.1801 335.132 84.6041 335.292 85.1241 335.292ZM89.6589 336V329.808H90.6189V330.816H90.6669C90.8189 330.464 91.0309 330.184 91.3029 329.976C91.5829 329.768 91.9549 329.664 92.4189 329.664C93.0589 329.664 93.5629 329.872 93.9309 330.288C94.3069 330.696 94.4949 331.276 94.4949 332.028V336H93.5349V332.196C93.5349 331.084 93.0669 330.528 92.1309 330.528C91.9389 330.528 91.7509 330.552 91.5669 330.6C91.3909 330.648 91.2309 330.72 91.0869 330.816C90.9429 330.912 90.8269 331.036 90.7389 331.188C90.6589 331.332 90.6189 331.504 90.6189 331.704V336H89.6589ZM98.0072 336C97.6712 336 97.4152 335.908 97.2392 335.724C97.0712 335.532 96.9872 335.284 96.9872 334.98V330.648H95.9672V329.808H96.5432C96.7512 329.808 96.8912 329.768 96.9632 329.688C97.0432 329.6 97.0832 329.452 97.0832 329.244V328.092H97.9472V329.808H99.3032V330.648H97.9472V335.16H99.2072V336H98.0072ZM101.006 336V329.808H101.966V330.948H102.026C102.138 330.652 102.338 330.388 102.626 330.156C102.914 329.924 103.31 329.808 103.814 329.808H104.186V330.768H103.622C103.102 330.768 102.694 330.868 102.398 331.068C102.11 331.26 101.966 331.504 101.966 331.8V336H101.006ZM107.854 336.144C107.438 336.144 107.058 336.068 106.714 335.916C106.37 335.764 106.074 335.548 105.826 335.268C105.586 334.98 105.398 334.64 105.262 334.248C105.126 333.848 105.058 333.4 105.058 332.904C105.058 332.416 105.126 331.972 105.262 331.572C105.398 331.172 105.586 330.832 105.826 330.552C106.074 330.264 106.37 330.044 106.714 329.892C107.058 329.74 107.438 329.664 107.854 329.664C108.27 329.664 108.646 329.74 108.982 329.892C109.326 330.044 109.622 330.264 109.87 330.552C110.118 330.832 110.31 331.172 110.446 331.572C110.582 331.972 110.65 332.416 110.65 332.904C110.65 333.4 110.582 333.848 110.446 334.248C110.31 334.64 110.118 334.98 109.87 335.268C109.622 335.548 109.326 335.764 108.982 335.916C108.646 336.068 108.27 336.144 107.854 336.144ZM107.854 335.292C108.374 335.292 108.798 335.132 109.126 334.812C109.454 334.492 109.618 334.004 109.618 333.348V332.46C109.618 331.804 109.454 331.316 109.126 330.996C108.798 330.676 108.374 330.516 107.854 330.516C107.334 330.516 106.91 330.676 106.582 330.996C106.254 331.316 106.09 331.804 106.09 332.46V333.348C106.09 334.004 106.254 334.492 106.582 334.812C106.91 335.132 107.334 335.292 107.854 335.292ZM113.409 336C113.073 336 112.817 335.908 112.641 335.724C112.473 335.532 112.389 335.292 112.389 335.004V327.12H113.349V335.16H114.261V336H113.409ZM119.294 328.356C119.086 328.356 118.934 328.308 118.838 328.212C118.75 328.108 118.706 327.976 118.706 327.816V327.66C118.706 327.5 118.75 327.372 118.838 327.276C118.934 327.172 119.086 327.12 119.294 327.12C119.502 327.12 119.65 327.172 119.738 327.276C119.834 327.372 119.882 327.5 119.882 327.66V327.816C119.882 327.976 119.834 328.108 119.738 328.212C119.65 328.308 119.502 328.356 119.294 328.356ZM118.814 329.808H119.774V336H118.814V329.808ZM123.834 336.144C123.258 336.144 122.774 336.036 122.382 335.82C121.998 335.596 121.666 335.3 121.386 334.932L122.07 334.38C122.31 334.684 122.578 334.92 122.874 335.088C123.17 335.248 123.514 335.328 123.906 335.328C124.314 335.328 124.63 335.24 124.854 335.064C125.086 334.888 125.202 334.64 125.202 334.32C125.202 334.08 125.122 333.876 124.962 333.708C124.81 333.532 124.53 333.412 124.122 333.348L123.63 333.276C123.342 333.236 123.078 333.176 122.838 333.096C122.598 333.008 122.386 332.896 122.202 332.76C122.026 332.616 121.886 332.44 121.782 332.232C121.686 332.024 121.638 331.776 121.638 331.488C121.638 331.184 121.694 330.92 121.806 330.696C121.918 330.464 122.07 330.272 122.262 330.12C122.462 329.968 122.698 329.856 122.97 329.784C123.242 329.704 123.534 329.664 123.846 329.664C124.35 329.664 124.77 329.752 125.106 329.928C125.45 330.104 125.75 330.348 126.006 330.66L125.37 331.236C125.234 331.044 125.034 330.872 124.77 330.72C124.506 330.56 124.174 330.48 123.774 330.48C123.374 330.48 123.07 330.568 122.862 330.744C122.662 330.912 122.562 331.144 122.562 331.44C122.562 331.744 122.662 331.964 122.862 332.1C123.07 332.236 123.366 332.336 123.75 332.4L124.23 332.472C124.918 332.576 125.406 332.776 125.694 333.072C125.982 333.36 126.126 333.74 126.126 334.212C126.126 334.812 125.922 335.284 125.514 335.628C125.106 335.972 124.546 336.144 123.834 336.144ZM133.558 336.144C132.558 336.144 131.826 335.764 131.362 335.004C130.906 334.244 130.678 333.18 130.678 331.812C130.678 330.444 130.906 329.38 131.362 328.62C131.826 327.86 132.558 327.48 133.558 327.48C134.558 327.48 135.286 327.86 135.742 328.62C136.206 329.38 136.438 330.444 136.438 331.812C136.438 333.18 136.206 334.244 135.742 335.004C135.286 335.764 134.558 336.144 133.558 336.144ZM133.558 335.268C133.886 335.268 134.166 335.2 134.398 335.064C134.63 334.928 134.818 334.736 134.962 334.488C135.106 334.24 135.21 333.948 135.274 333.612C135.346 333.276 135.382 332.904 135.382 332.496V331.128C135.382 330.72 135.346 330.348 135.274 330.012C135.21 329.676 135.106 329.384 134.962 329.136C134.818 328.888 134.63 328.696 134.398 328.56C134.166 328.424 133.886 328.356 133.558 328.356C133.23 328.356 132.95 328.424 132.718 328.56C132.486 328.696 132.298 328.888 132.154 329.136C132.01 329.384 131.902 329.676 131.83 330.012C131.766 330.348 131.734 330.72 131.734 331.128V332.496C131.734 332.904 131.766 333.276 131.83 333.612C131.902 333.948 132.01 334.24 132.154 334.488C132.298 334.736 132.486 334.928 132.718 335.064C132.95 335.2 133.23 335.268 133.558 335.268ZM138.945 334.596C139.201 334.596 139.385 334.664 139.497 334.8C139.617 334.928 139.677 335.096 139.677 335.304V335.472C139.677 335.8 139.581 336.16 139.389 336.552C139.197 336.952 138.929 337.3 138.585 337.596H137.781C138.021 337.34 138.213 337.096 138.357 336.864C138.509 336.64 138.617 336.388 138.681 336.108C138.521 336.068 138.401 335.992 138.321 335.88C138.249 335.768 138.213 335.632 138.213 335.472V335.304C138.213 335.096 138.269 334.928 138.381 334.8C138.501 334.664 138.689 334.596 138.945 334.596ZM22.388 356C22.052 356 21.796 355.908 21.62 355.724C21.452 355.532 21.368 355.284 21.368 354.98V350.648H20.348V349.808H20.924C21.132 349.808 21.272 349.768 21.344 349.688C21.424 349.6 21.464 349.452 21.464 349.244V348.092H22.328V349.808H23.684V350.648H22.328V355.16H23.588V356H22.388ZM25.387 347.12H26.347V350.816H26.395C26.547 350.464 26.759 350.184 27.031 349.976C27.311 349.768 27.683 349.664 28.147 349.664C28.787 349.664 29.291 349.872 29.659 350.288C30.035 350.696 30.223 351.276 30.223 352.028V356H29.263V352.196C29.263 351.084 28.795 350.528 27.859 350.528C27.667 350.528 27.479 350.552 27.295 350.6C27.119 350.648 26.959 350.72 26.815 350.816C26.671 350.912 26.555 351.036 26.467 351.188C26.387 351.332 26.347 351.504 26.347 351.704V356H25.387V347.12ZM34.6953 356.144C34.2713 356.144 33.8873 356.068 33.5433 355.916C33.2073 355.764 32.9153 355.548 32.6673 355.268C32.4273 354.98 32.2393 354.64 32.1033 354.248C31.9753 353.848 31.9113 353.4 31.9113 352.904C31.9113 352.416 31.9753 351.972 32.1033 351.572C32.2393 351.172 32.4273 350.832 32.6673 350.552C32.9153 350.264 33.2073 350.044 33.5433 349.892C33.8873 349.74 34.2713 349.664 34.6953 349.664C35.1113 349.664 35.4833 349.74 35.8113 349.892C36.1393 350.044 36.4193 350.256 36.6513 350.528C36.8833 350.792 37.0593 351.108 37.1793 351.476C37.3073 351.844 37.3713 352.248 37.3713 352.688V353.144H32.9193V353.432C32.9193 353.696 32.9593 353.944 33.0393 354.176C33.1273 354.4 33.2473 354.596 33.3993 354.764C33.5593 354.932 33.7513 355.064 33.9753 355.16C34.2073 355.256 34.4673 355.304 34.7553 355.304C35.1473 355.304 35.4873 355.212 35.7753 355.028C36.0713 354.844 36.2993 354.58 36.4593 354.236L37.1433 354.728C36.9433 355.152 36.6313 355.496 36.2073 355.76C35.7833 356.016 35.2793 356.144 34.6953 356.144ZM34.6953 350.468C34.4313 350.468 34.1913 350.516 33.9753 350.612C33.7593 350.7 33.5713 350.828 33.4113 350.996C33.2593 351.164 33.1393 351.364 33.0513 351.596C32.9633 351.82 32.9193 352.068 32.9193 352.34V352.424H36.3393V352.292C36.3393 351.74 36.1873 351.3 35.8833 350.972C35.5873 350.636 35.1913 350.468 34.6953 350.468ZM44.4492 356.144C44.0332 356.144 43.6532 356.068 43.3092 355.916C42.9652 355.764 42.6692 355.548 42.4212 355.268C42.1812 354.98 41.9932 354.64 41.8572 354.248C41.7212 353.848 41.6532 353.4 41.6532 352.904C41.6532 352.416 41.7212 351.972 41.8572 351.572C41.9932 351.172 42.1812 350.832 42.4212 350.552C42.6692 350.264 42.9652 350.044 43.3092 349.892C43.6532 349.74 44.0332 349.664 44.4492 349.664C44.8652 349.664 45.2412 349.74 45.5772 349.892C45.9212 350.044 46.2172 350.264 46.4652 350.552C46.7132 350.832 46.9052 351.172 47.0412 351.572C47.1772 351.972 47.2452 352.416 47.2452 352.904C47.2452 353.4 47.1772 353.848 47.0412 354.248C46.9052 354.64 46.7132 354.98 46.4652 355.268C46.2172 355.548 45.9212 355.764 45.5772 355.916C45.2412 356.068 44.8652 356.144 44.4492 356.144ZM44.4492 355.292C44.9692 355.292 45.3932 355.132 45.7212 354.812C46.0492 354.492 46.2132 354.004 46.2132 353.348V352.46C46.2132 351.804 46.0492 351.316 45.7212 350.996C45.3932 350.676 44.9692 350.516 44.4492 350.516C43.9292 350.516 43.5052 350.676 43.1772 350.996C42.8492 351.316 42.6852 351.804 42.6852 352.46V353.348C42.6852 354.004 42.8492 354.492 43.1772 354.812C43.5052 355.132 43.9292 355.292 44.4492 355.292ZM50.3521 356C50.0161 356 49.7601 355.908 49.5841 355.724C49.4161 355.532 49.3321 355.284 49.3321 354.98V350.648H48.3121V349.808H48.8881C49.0961 349.808 49.2361 349.768 49.3081 349.688C49.3881 349.6 49.4281 349.452 49.4281 349.244V348.092H50.2921V349.808H51.6481V350.648H50.2921V355.16H51.5521V356H50.3521ZM53.3511 347.12H54.3111V350.816H54.3591C54.5111 350.464 54.7231 350.184 54.9951 349.976C55.2751 349.768 55.6471 349.664 56.1111 349.664C56.7511 349.664 57.2551 349.872 57.6231 350.288C57.9991 350.696 58.1871 351.276 58.1871 352.028V356H57.2271V352.196C57.2271 351.084 56.7591 350.528 55.8231 350.528C55.6311 350.528 55.4431 350.552 55.2591 350.6C55.0831 350.648 54.9231 350.72 54.7791 350.816C54.6351 350.912 54.5191 351.036 54.4311 351.188C54.3511 351.332 54.3111 351.504 54.3111 351.704V356H53.3511V347.12ZM62.6594 356.144C62.2354 356.144 61.8514 356.068 61.5074 355.916C61.1714 355.764 60.8794 355.548 60.6314 355.268C60.3914 354.98 60.2034 354.64 60.0674 354.248C59.9394 353.848 59.8754 353.4 59.8754 352.904C59.8754 352.416 59.9394 351.972 60.0674 351.572C60.2034 351.172 60.3914 350.832 60.6314 350.552C60.8794 350.264 61.1714 350.044 61.5074 349.892C61.8514 349.74 62.2354 349.664 62.6594 349.664C63.0754 349.664 63.4474 349.74 63.7754 349.892C64.1034 350.044 64.3834 350.256 64.6154 350.528C64.8474 350.792 65.0234 351.108 65.1434 351.476C65.2714 351.844 65.3354 352.248 65.3354 352.688V353.144H60.8834V353.432C60.8834 353.696 60.9234 353.944 61.0034 354.176C61.0914 354.4 61.2114 354.596 61.3634 354.764C61.5234 354.932 61.7154 355.064 61.9394 355.16C62.1714 355.256 62.4314 355.304 62.7194 355.304C63.1114 355.304 63.4514 355.212 63.7394 355.028C64.0354 354.844 64.2634 354.58 64.4234 354.236L65.1074 354.728C64.9074 355.152 64.5954 355.496 64.1714 355.76C63.7474 356.016 63.2434 356.144 62.6594 356.144ZM62.6594 350.468C62.3954 350.468 62.1554 350.516 61.9394 350.612C61.7234 350.7 61.5354 350.828 61.3754 350.996C61.2234 351.164 61.1034 351.364 61.0154 351.596C60.9274 351.82 60.8834 352.068 60.8834 352.34V352.424H64.3034V352.292C64.3034 351.74 64.1514 351.3 63.8474 350.972C63.5514 350.636 63.1554 350.468 62.6594 350.468ZM67.0773 356V349.808H68.0373V350.948H68.0973C68.2093 350.652 68.4093 350.388 68.6973 350.156C68.9853 349.924 69.3813 349.808 69.8853 349.808H70.2573V350.768H69.6933C69.1733 350.768 68.7653 350.868 68.4693 351.068C68.1813 351.26 68.0373 351.504 68.0373 351.8V356H67.0773ZM78.5995 354.992H78.5515C78.1755 355.76 77.5715 356.144 76.7395 356.144C76.3555 356.144 76.0075 356.068 75.6955 355.916C75.3835 355.764 75.1155 355.548 74.8915 355.268C74.6755 354.988 74.5075 354.648 74.3875 354.248C74.2755 353.848 74.2195 353.4 74.2195 352.904C74.2195 352.408 74.2755 351.96 74.3875 351.56C74.5075 351.16 74.6755 350.82 74.8915 350.54C75.1155 350.26 75.3835 350.044 75.6955 349.892C76.0075 349.74 76.3555 349.664 76.7395 349.664C77.1715 349.664 77.5395 349.76 77.8435 349.952C78.1555 350.136 78.3915 350.424 78.5515 350.816H78.5995V349.808H79.5595V358.4H78.5995V354.992ZM77.0035 355.28C77.2195 355.28 77.4235 355.252 77.6155 355.196C77.8155 355.14 77.9875 355.06 78.1315 354.956C78.2755 354.844 78.3875 354.712 78.4675 354.56C78.5555 354.4 78.5995 354.22 78.5995 354.02V351.716C78.5995 351.548 78.5555 351.392 78.4675 351.248C78.3875 351.096 78.2755 350.968 78.1315 350.864C77.9875 350.76 77.8155 350.68 77.6155 350.624C77.4235 350.56 77.2195 350.528 77.0035 350.528C76.4595 350.528 76.0315 350.7 75.7195 351.044C75.4075 351.38 75.2515 351.824 75.2515 352.376V353.432C75.2515 353.984 75.4075 354.432 75.7195 354.776C76.0315 355.112 76.4595 355.28 77.0035 355.28ZM85.5765 354.992H85.5285C85.4645 355.136 85.3845 355.28 85.2885 355.424C85.2005 355.56 85.0885 355.684 84.9525 355.796C84.8165 355.9 84.6525 355.984 84.4605 356.048C84.2685 356.112 84.0445 356.144 83.7885 356.144C83.1485 356.144 82.6405 355.94 82.2645 355.532C81.8885 355.116 81.7005 354.532 81.7005 353.78V349.808H82.6605V353.612C82.6605 354.724 83.1325 355.28 84.0765 355.28C84.2685 355.28 84.4525 355.256 84.6285 355.208C84.8125 355.16 84.9725 355.088 85.1085 354.992C85.2525 354.896 85.3645 354.776 85.4445 354.632C85.5325 354.48 85.5765 354.3 85.5765 354.092V349.808H86.5365V356H85.5765V354.992ZM88.7408 347.12H89.7008V350.816H89.7488C89.9088 350.424 90.1408 350.136 90.4448 349.952C90.7568 349.76 91.1288 349.664 91.5608 349.664C91.9448 349.664 92.2928 349.74 92.6048 349.892C92.9168 350.044 93.1808 350.26 93.3968 350.54C93.6208 350.82 93.7888 351.16 93.9008 351.56C94.0208 351.96 94.0808 352.408 94.0808 352.904C94.0808 353.4 94.0208 353.848 93.9008 354.248C93.7888 354.648 93.6208 354.988 93.3968 355.268C93.1808 355.548 92.9168 355.764 92.6048 355.916C92.2928 356.068 91.9448 356.144 91.5608 356.144C90.7208 356.144 90.1168 355.76 89.7488 354.992H89.7008V356H88.7408V347.12ZM91.2968 355.28C91.8408 355.28 92.2688 355.112 92.5808 354.776C92.8928 354.432 93.0488 353.984 93.0488 353.432V352.376C93.0488 351.824 92.8928 351.38 92.5808 351.044C92.2688 350.7 91.8408 350.528 91.2968 350.528C91.0808 350.528 90.8728 350.56 90.6728 350.624C90.4808 350.68 90.3128 350.76 90.1688 350.864C90.0248 350.968 89.9088 351.096 89.8208 351.248C89.7408 351.392 89.7008 351.548 89.7008 351.716V354.02C89.7008 354.22 89.7408 354.4 89.8208 354.56C89.9088 354.712 90.0248 354.844 90.1688 354.956C90.3128 355.06 90.4808 355.14 90.6728 355.196C90.8728 355.252 91.0808 355.28 91.2968 355.28ZM96.3417 348.356C96.1337 348.356 95.9817 348.308 95.8857 348.212C95.7977 348.108 95.7537 347.976 95.7537 347.816V347.66C95.7537 347.5 95.7977 347.372 95.8857 347.276C95.9817 347.172 96.1337 347.12 96.3417 347.12C96.5497 347.12 96.6977 347.172 96.7857 347.276C96.8817 347.372 96.9297 347.5 96.9297 347.66V347.816C96.9297 347.976 96.8817 348.108 96.7857 348.212C96.6977 348.308 96.5497 348.356 96.3417 348.356ZM95.8617 349.808H96.8217V356H95.8617V349.808ZM100.39 356C100.054 356 99.7977 355.908 99.6217 355.724C99.4537 355.532 99.3697 355.284 99.3697 354.98V350.648H98.3497V349.808H98.9257C99.1337 349.808 99.2737 349.768 99.3457 349.688C99.4257 349.6 99.4657 349.452 99.4657 349.244V348.092H100.33V349.808H101.686V350.648H100.33V355.16H101.59V356H100.39ZM106.865 348.356C106.657 348.356 106.505 348.308 106.409 348.212C106.321 348.108 106.277 347.976 106.277 347.816V347.66C106.277 347.5 106.321 347.372 106.409 347.276C106.505 347.172 106.657 347.12 106.865 347.12C107.073 347.12 107.221 347.172 107.309 347.276C107.405 347.372 107.453 347.5 107.453 347.66V347.816C107.453 347.976 107.405 348.108 107.309 348.212C107.221 348.308 107.073 348.356 106.865 348.356ZM106.385 349.808H107.345V356H106.385V349.808ZM111.405 356.144C110.829 356.144 110.345 356.036 109.953 355.82C109.569 355.596 109.237 355.3 108.957 354.932L109.641 354.38C109.881 354.684 110.149 354.92 110.445 355.088C110.741 355.248 111.085 355.328 111.477 355.328C111.885 355.328 112.201 355.24 112.425 355.064C112.657 354.888 112.773 354.64 112.773 354.32C112.773 354.08 112.693 353.876 112.533 353.708C112.381 353.532 112.101 353.412 111.693 353.348L111.201 353.276C110.913 353.236 110.649 353.176 110.409 353.096C110.169 353.008 109.957 352.896 109.773 352.76C109.597 352.616 109.457 352.44 109.353 352.232C109.257 352.024 109.209 351.776 109.209 351.488C109.209 351.184 109.265 350.92 109.377 350.696C109.489 350.464 109.641 350.272 109.833 350.12C110.033 349.968 110.269 349.856 110.541 349.784C110.813 349.704 111.105 349.664 111.417 349.664C111.921 349.664 112.341 349.752 112.677 349.928C113.021 350.104 113.321 350.348 113.577 350.66L112.941 351.236C112.805 351.044 112.605 350.872 112.341 350.72C112.077 350.56 111.745 350.48 111.345 350.48C110.945 350.48 110.641 350.568 110.433 350.744C110.233 350.912 110.133 351.144 110.133 351.44C110.133 351.744 110.233 351.964 110.433 352.1C110.641 352.236 110.937 352.336 111.321 352.4L111.801 352.472C112.489 352.576 112.977 352.776 113.265 353.072C113.553 353.36 113.697 353.74 113.697 354.212C113.697 354.812 113.493 355.284 113.085 355.628C112.677 355.972 112.117 356.144 111.405 356.144ZM122.364 354.992H122.316C122.252 355.136 122.172 355.28 122.076 355.424C121.988 355.56 121.876 355.684 121.74 355.796C121.604 355.9 121.44 355.984 121.248 356.048C121.056 356.112 120.832 356.144 120.576 356.144C119.936 356.144 119.428 355.94 119.052 355.532C118.676 355.116 118.488 354.532 118.488 353.78V349.808H119.448V353.612C119.448 354.724 119.92 355.28 120.864 355.28C121.056 355.28 121.24 355.256 121.416 355.208C121.6 355.16 121.76 355.088 121.896 354.992C122.04 354.896 122.152 354.776 122.232 354.632C122.32 354.48 122.364 354.3 122.364 354.092V349.808H123.324V356H122.364V354.992ZM125.529 356V349.808H126.489V350.816H126.537C126.689 350.464 126.901 350.184 127.173 349.976C127.453 349.768 127.825 349.664 128.289 349.664C128.929 349.664 129.433 349.872 129.801 350.288C130.177 350.696 130.365 351.276 130.365 352.028V356H129.405V352.196C129.405 351.084 128.937 350.528 128.001 350.528C127.809 350.528 127.621 350.552 127.437 350.6C127.261 350.648 127.101 350.72 126.957 350.816C126.813 350.912 126.697 351.036 126.609 351.188C126.529 351.332 126.489 351.504 126.489 351.704V356H125.529ZM134.813 356.144C134.381 356.144 133.993 356.068 133.649 355.916C133.305 355.764 133.013 355.548 132.773 355.268C132.541 354.988 132.361 354.648 132.233 354.248C132.113 353.848 132.053 353.4 132.053 352.904C132.053 352.408 132.113 351.96 132.233 351.56C132.361 351.16 132.541 350.82 132.773 350.54C133.013 350.26 133.305 350.044 133.649 349.892C133.993 349.74 134.381 349.664 134.813 349.664C135.429 349.664 135.921 349.8 136.289 350.072C136.665 350.336 136.945 350.684 137.129 351.116L136.325 351.524C136.213 351.204 136.029 350.956 135.773 350.78C135.517 350.604 135.197 350.516 134.813 350.516C134.525 350.516 134.273 350.564 134.057 350.66C133.841 350.748 133.661 350.876 133.517 351.044C133.373 351.204 133.265 351.4 133.193 351.632C133.121 351.856 133.085 352.104 133.085 352.376V353.432C133.085 353.976 133.229 354.424 133.517 354.776C133.813 355.12 134.245 355.292 134.813 355.292C135.589 355.292 136.149 354.932 136.493 354.212L137.189 354.68C136.989 355.128 136.689 355.484 136.289 355.748C135.897 356.012 135.405 356.144 134.813 356.144ZM138.704 347.12H139.664V350.816H139.712C139.864 350.464 140.076 350.184 140.348 349.976C140.628 349.768 141 349.664 141.464 349.664C142.104 349.664 142.608 349.872 142.976 350.288C143.352 350.696 143.54 351.276 143.54 352.028V356H142.58V352.196C142.58 351.084 142.112 350.528 141.176 350.528C140.984 350.528 140.796 350.552 140.612 350.6C140.436 350.648 140.276 350.72 140.132 350.816C139.988 350.912 139.872 351.036 139.784 351.188C139.704 351.332 139.664 351.504 139.664 351.704V356H138.704V347.12ZM150.184 356C149.824 356 149.564 355.904 149.404 355.712C149.252 355.52 149.156 355.28 149.116 354.992H149.056C148.92 355.376 148.696 355.664 148.384 355.856C148.072 356.048 147.7 356.144 147.268 356.144C146.612 356.144 146.1 355.976 145.732 355.64C145.372 355.304 145.192 354.848 145.192 354.272C145.192 353.688 145.404 353.24 145.828 352.928C146.26 352.616 146.928 352.46 147.832 352.46H149.056V351.848C149.056 351.408 148.936 351.072 148.696 350.84C148.456 350.608 148.088 350.492 147.592 350.492C147.216 350.492 146.9 350.576 146.644 350.744C146.396 350.912 146.188 351.136 146.02 351.416L145.444 350.876C145.612 350.54 145.88 350.256 146.248 350.024C146.616 349.784 147.08 349.664 147.64 349.664C148.392 349.664 148.976 349.848 149.392 350.216C149.808 350.584 150.016 351.096 150.016 351.752V355.16H150.724V356H150.184ZM147.424 355.328C147.664 355.328 147.884 355.3 148.084 355.244C148.284 355.188 148.456 355.108 148.6 355.004C148.744 354.9 148.856 354.78 148.936 354.644C149.016 354.508 149.056 354.36 149.056 354.2V353.18H147.784C147.232 353.18 146.828 353.26 146.572 353.42C146.324 353.58 146.2 353.812 146.2 354.116V354.368C146.2 354.672 146.308 354.908 146.524 355.076C146.748 355.244 147.048 355.328 147.424 355.328ZM152.255 356V349.808H153.215V350.816H153.263C153.415 350.464 153.627 350.184 153.899 349.976C154.179 349.768 154.551 349.664 155.015 349.664C155.655 349.664 156.159 349.872 156.527 350.288C156.903 350.696 157.091 351.276 157.091 352.028V356H156.131V352.196C156.131 351.084 155.663 350.528 154.727 350.528C154.535 350.528 154.347 350.552 154.163 350.6C153.987 350.648 153.827 350.72 153.683 350.816C153.539 350.912 153.423 351.036 153.335 351.188C153.255 351.332 153.215 351.504 153.215 351.704V356H152.255ZM164.455 356.684C164.455 357.324 164.203 357.792 163.699 358.088C163.203 358.392 162.455 358.544 161.455 358.544C160.487 358.544 159.791 358.412 159.367 358.148C158.943 357.884 158.731 357.508 158.731 357.02C158.731 356.684 158.819 356.42 158.995 356.228C159.171 356.044 159.411 355.908 159.715 355.82V355.688C159.347 355.512 159.163 355.224 159.163 354.824C159.163 354.512 159.263 354.276 159.463 354.116C159.663 353.948 159.919 353.824 160.231 353.744V353.696C159.863 353.52 159.575 353.268 159.367 352.94C159.167 352.612 159.067 352.232 159.067 351.8C159.067 351.488 159.123 351.2 159.235 350.936C159.347 350.672 159.503 350.448 159.703 350.264C159.911 350.072 160.155 349.924 160.435 349.82C160.723 349.716 161.043 349.664 161.395 349.664C161.835 349.664 162.227 349.744 162.571 349.904V349.796C162.571 349.556 162.627 349.36 162.739 349.208C162.851 349.048 163.035 348.968 163.291 348.968H164.215V349.808H163.039V350.204C163.263 350.396 163.435 350.628 163.555 350.9C163.683 351.164 163.747 351.464 163.747 351.8C163.747 352.112 163.691 352.4 163.579 352.664C163.467 352.928 163.307 353.156 163.099 353.348C162.899 353.532 162.655 353.676 162.367 353.78C162.079 353.884 161.759 353.936 161.407 353.936C161.207 353.936 161.007 353.916 160.807 353.876C160.599 353.932 160.411 354.016 160.243 354.128C160.075 354.232 159.991 354.38 159.991 354.572C159.991 354.756 160.079 354.88 160.255 354.944C160.431 355.008 160.659 355.04 160.939 355.04H162.259C163.027 355.04 163.583 355.188 163.927 355.484C164.279 355.772 164.455 356.172 164.455 356.684ZM163.555 356.756C163.555 356.508 163.459 356.308 163.267 356.156C163.083 356.012 162.751 355.94 162.271 355.94H160.207C159.823 356.116 159.631 356.396 159.631 356.78C159.631 357.052 159.731 357.284 159.931 357.476C160.139 357.668 160.487 357.764 160.975 357.764H161.863C162.399 357.764 162.815 357.68 163.111 357.512C163.407 357.344 163.555 357.092 163.555 356.756ZM161.407 353.168C161.815 353.168 162.139 353.072 162.379 352.88C162.619 352.68 162.739 352.376 162.739 351.968V351.632C162.739 351.224 162.619 350.924 162.379 350.732C162.139 350.532 161.815 350.432 161.407 350.432C160.999 350.432 160.675 350.532 160.435 350.732C160.195 350.924 160.075 351.224 160.075 351.632V351.968C160.075 352.376 160.195 352.68 160.435 352.88C160.675 353.072 160.999 353.168 161.407 353.168ZM167.992 356.144C167.568 356.144 167.184 356.068 166.84 355.916C166.504 355.764 166.212 355.548 165.964 355.268C165.724 354.98 165.536 354.64 165.4 354.248C165.272 353.848 165.208 353.4 165.208 352.904C165.208 352.416 165.272 351.972 165.4 351.572C165.536 351.172 165.724 350.832 165.964 350.552C166.212 350.264 166.504 350.044 166.84 349.892C167.184 349.74 167.568 349.664 167.992 349.664C168.408 349.664 168.78 349.74 169.108 349.892C169.436 350.044 169.716 350.256 169.948 350.528C170.18 350.792 170.356 351.108 170.476 351.476C170.604 351.844 170.668 352.248 170.668 352.688V353.144H166.216V353.432C166.216 353.696 166.256 353.944 166.336 354.176C166.424 354.4 166.544 354.596 166.696 354.764C166.856 354.932 167.048 355.064 167.272 355.16C167.504 355.256 167.764 355.304 168.052 355.304C168.444 355.304 168.784 355.212 169.072 355.028C169.368 354.844 169.596 354.58 169.756 354.236L170.44 354.728C170.24 355.152 169.928 355.496 169.504 355.76C169.08 356.016 168.576 356.144 167.992 356.144ZM167.992 350.468C167.728 350.468 167.488 350.516 167.272 350.612C167.056 350.7 166.868 350.828 166.708 350.996C166.556 351.164 166.436 351.364 166.348 351.596C166.26 351.82 166.216 352.068 166.216 352.34V352.424H169.636V352.292C169.636 351.74 169.484 351.3 169.18 350.972C168.884 350.636 168.488 350.468 167.992 350.468ZM176.37 354.992H176.322C175.946 355.76 175.342 356.144 174.51 356.144C174.126 356.144 173.778 356.068 173.466 355.916C173.154 355.764 172.886 355.548 172.662 355.268C172.446 354.988 172.278 354.648 172.158 354.248C172.046 353.848 171.99 353.4 171.99 352.904C171.99 352.408 172.046 351.96 172.158 351.56C172.278 351.16 172.446 350.82 172.662 350.54C172.886 350.26 173.154 350.044 173.466 349.892C173.778 349.74 174.126 349.664 174.51 349.664C174.942 349.664 175.31 349.76 175.614 349.952C175.926 350.136 176.162 350.424 176.322 350.816H176.37V347.12H177.33V356H176.37V354.992ZM174.774 355.28C174.99 355.28 175.194 355.252 175.386 355.196C175.586 355.14 175.758 355.06 175.902 354.956C176.046 354.844 176.158 354.712 176.238 354.56C176.326 354.4 176.37 354.22 176.37 354.02V351.716C176.37 351.548 176.326 351.392 176.238 351.248C176.158 351.096 176.046 350.968 175.902 350.864C175.758 350.76 175.586 350.68 175.386 350.624C175.194 350.56 174.99 350.528 174.774 350.528C174.23 350.528 173.802 350.7 173.49 351.044C173.178 351.38 173.022 351.824 173.022 352.376V353.432C173.022 353.984 173.178 354.432 173.49 354.776C173.802 355.112 174.23 355.28 174.774 355.28Z" fill="#121619"/>
<path d="M210.28 336L208.24 327.624H209.308L210.208 331.656L210.904 334.788H210.928L211.708 331.656L212.764 327.624H213.916L214.936 331.656L215.716 334.776H215.752L216.472 331.656L217.42 327.624H218.452L216.304 336H215.188L214.096 331.824L213.328 328.752H213.304L212.512 331.824L211.396 336H210.28ZM219.867 327.12H220.827V330.816H220.876C221.027 330.464 221.239 330.184 221.512 329.976C221.791 329.768 222.163 329.664 222.628 329.664C223.268 329.664 223.771 329.872 224.14 330.288C224.516 330.696 224.704 331.276 224.704 332.028V336H223.744V332.196C223.744 331.084 223.276 330.528 222.339 330.528C222.148 330.528 221.96 330.552 221.776 330.6C221.6 330.648 221.44 330.72 221.295 330.816C221.151 330.912 221.035 331.036 220.947 331.188C220.867 331.332 220.827 331.504 220.827 331.704V336H219.867V327.12ZM229.176 336.144C228.752 336.144 228.368 336.068 228.024 335.916C227.688 335.764 227.396 335.548 227.148 335.268C226.908 334.98 226.72 334.64 226.584 334.248C226.456 333.848 226.392 333.4 226.392 332.904C226.392 332.416 226.456 331.972 226.584 331.572C226.72 331.172 226.908 330.832 227.148 330.552C227.396 330.264 227.688 330.044 228.024 329.892C228.368 329.74 228.752 329.664 229.176 329.664C229.592 329.664 229.964 329.74 230.292 329.892C230.62 330.044 230.9 330.256 231.132 330.528C231.364 330.792 231.54 331.108 231.66 331.476C231.788 331.844 231.852 332.248 231.852 332.688V333.144H227.4V333.432C227.4 333.696 227.44 333.944 227.52 334.176C227.608 334.4 227.728 334.596 227.88 334.764C228.04 334.932 228.232 335.064 228.456 335.16C228.688 335.256 228.948 335.304 229.236 335.304C229.628 335.304 229.968 335.212 230.256 335.028C230.552 334.844 230.78 334.58 230.94 334.236L231.624 334.728C231.424 335.152 231.112 335.496 230.688 335.76C230.264 336.016 229.76 336.144 229.176 336.144ZM229.176 330.468C228.912 330.468 228.672 330.516 228.456 330.612C228.24 330.7 228.052 330.828 227.892 330.996C227.74 331.164 227.62 331.364 227.532 331.596C227.444 331.82 227.4 332.068 227.4 332.34V332.424H230.82V332.292C230.82 331.74 230.668 331.3 230.364 330.972C230.068 330.636 229.672 330.468 229.176 330.468ZM233.594 336V329.808H234.554V330.816H234.602C234.754 330.464 234.966 330.184 235.238 329.976C235.518 329.768 235.89 329.664 236.354 329.664C236.994 329.664 237.498 329.872 237.866 330.288C238.242 330.696 238.43 331.276 238.43 332.028V336H237.47V332.196C237.47 331.084 237.002 330.528 236.066 330.528C235.874 330.528 235.686 330.552 235.502 330.6C235.326 330.648 235.166 330.72 235.022 330.816C234.878 330.912 234.762 331.036 234.674 331.188C234.594 331.332 234.554 331.504 234.554 331.704V336H233.594ZM244.938 336C244.602 336 244.346 335.908 244.17 335.724C244.002 335.532 243.918 335.284 243.918 334.98V330.648H242.898V329.808H243.474C243.682 329.808 243.822 329.768 243.894 329.688C243.974 329.6 244.014 329.452 244.014 329.244V328.092H244.878V329.808H246.234V330.648H244.878V335.16H246.138V336H244.938ZM247.937 327.12H248.897V330.816H248.945C249.097 330.464 249.309 330.184 249.581 329.976C249.861 329.768 250.233 329.664 250.697 329.664C251.337 329.664 251.841 329.872 252.209 330.288C252.585 330.696 252.773 331.276 252.773 332.028V336H251.813V332.196C251.813 331.084 251.345 330.528 250.409 330.528C250.217 330.528 250.029 330.552 249.845 330.6C249.669 330.648 249.509 330.72 249.365 330.816C249.221 330.912 249.105 331.036 249.017 331.188C248.937 331.332 248.897 331.504 248.897 331.704V336H247.937V327.12ZM257.245 336.144C256.821 336.144 256.437 336.068 256.093 335.916C255.757 335.764 255.465 335.548 255.217 335.268C254.977 334.98 254.789 334.64 254.653 334.248C254.525 333.848 254.461 333.4 254.461 332.904C254.461 332.416 254.525 331.972 254.653 331.572C254.789 331.172 254.977 330.832 255.217 330.552C255.465 330.264 255.757 330.044 256.093 329.892C256.437 329.74 256.821 329.664 257.245 329.664C257.661 329.664 258.033 329.74 258.361 329.892C258.689 330.044 258.969 330.256 259.201 330.528C259.433 330.792 259.609 331.108 259.729 331.476C259.857 331.844 259.921 332.248 259.921 332.688V333.144H255.469V333.432C255.469 333.696 255.509 333.944 255.589 334.176C255.677 334.4 255.797 334.596 255.949 334.764C256.109 334.932 256.301 335.064 256.525 335.16C256.757 335.256 257.017 335.304 257.305 335.304C257.697 335.304 258.037 335.212 258.325 335.028C258.621 334.844 258.849 334.58 259.009 334.236L259.693 334.728C259.493 335.152 259.181 335.496 258.757 335.76C258.333 336.016 257.829 336.144 257.245 336.144ZM257.245 330.468C256.981 330.468 256.741 330.516 256.525 330.612C256.309 330.7 256.121 330.828 255.961 330.996C255.809 331.164 255.689 331.364 255.601 331.596C255.513 331.82 255.469 332.068 255.469 332.34V332.424H258.889V332.292C258.889 331.74 258.737 331.3 258.433 330.972C258.137 330.636 257.741 330.468 257.245 330.468ZM266.963 336.144C266.531 336.144 266.143 336.068 265.799 335.916C265.455 335.764 265.163 335.548 264.923 335.268C264.691 334.988 264.511 334.648 264.383 334.248C264.263 333.848 264.203 333.4 264.203 332.904C264.203 332.408 264.263 331.96 264.383 331.56C264.511 331.16 264.691 330.82 264.923 330.54C265.163 330.26 265.455 330.044 265.799 329.892C266.143 329.74 266.531 329.664 266.963 329.664C267.579 329.664 268.071 329.8 268.439 330.072C268.815 330.336 269.095 330.684 269.279 331.116L268.475 331.524C268.363 331.204 268.179 330.956 267.923 330.78C267.667 330.604 267.347 330.516 266.963 330.516C266.675 330.516 266.423 330.564 266.207 330.66C265.991 330.748 265.811 330.876 265.667 331.044C265.523 331.204 265.415 331.4 265.343 331.632C265.271 331.856 265.235 332.104 265.235 332.376V333.432C265.235 333.976 265.379 334.424 265.667 334.776C265.963 335.12 266.395 335.292 266.963 335.292C267.739 335.292 268.299 334.932 268.643 334.212L269.339 334.68C269.139 335.128 268.839 335.484 268.439 335.748C268.047 336.012 267.555 336.144 266.963 336.144ZM273.124 336.144C272.708 336.144 272.328 336.068 271.984 335.916C271.64 335.764 271.344 335.548 271.096 335.268C270.856 334.98 270.668 334.64 270.532 334.248C270.396 333.848 270.328 333.4 270.328 332.904C270.328 332.416 270.396 331.972 270.532 331.572C270.668 331.172 270.856 330.832 271.096 330.552C271.344 330.264 271.64 330.044 271.984 329.892C272.328 329.74 272.708 329.664 273.124 329.664C273.54 329.664 273.916 329.74 274.252 329.892C274.596 330.044 274.892 330.264 275.14 330.552C275.388 330.832 275.58 331.172 275.716 331.572C275.852 331.972 275.92 332.416 275.92 332.904C275.92 333.4 275.852 333.848 275.716 334.248C275.58 334.64 275.388 334.98 275.14 335.268C274.892 335.548 274.596 335.764 274.252 335.916C273.916 336.068 273.54 336.144 273.124 336.144ZM273.124 335.292C273.644 335.292 274.068 335.132 274.396 334.812C274.724 334.492 274.888 334.004 274.888 333.348V332.46C274.888 331.804 274.724 331.316 274.396 330.996C274.068 330.676 273.644 330.516 273.124 330.516C272.604 330.516 272.18 330.676 271.852 330.996C271.524 331.316 271.36 331.804 271.36 332.46V333.348C271.36 334.004 271.524 334.492 271.852 334.812C272.18 335.132 272.604 335.292 273.124 335.292ZM277.659 336V329.808H278.619V330.816H278.667C278.819 330.464 279.031 330.184 279.303 329.976C279.583 329.768 279.955 329.664 280.419 329.664C281.059 329.664 281.563 329.872 281.931 330.288C282.307 330.696 282.495 331.276 282.495 332.028V336H281.535V332.196C281.535 331.084 281.067 330.528 280.131 330.528C279.939 330.528 279.751 330.552 279.567 330.6C279.391 330.648 279.231 330.72 279.087 330.816C278.943 330.912 278.827 331.036 278.739 331.188C278.659 331.332 278.619 331.504 278.619 331.704V336H277.659ZM286.007 336C285.671 336 285.415 335.908 285.239 335.724C285.071 335.532 284.987 335.284 284.987 334.98V330.648H283.967V329.808H284.543C284.751 329.808 284.891 329.768 284.963 329.688C285.043 329.6 285.083 329.452 285.083 329.244V328.092H285.947V329.808H287.303V330.648H285.947V335.16H287.207V336H286.007ZM289.006 336V329.808H289.966V330.948H290.026C290.138 330.652 290.338 330.388 290.626 330.156C290.914 329.924 291.31 329.808 291.814 329.808H292.186V330.768H291.622C291.102 330.768 290.694 330.868 290.398 331.068C290.11 331.26 289.966 331.504 289.966 331.8V336H289.006ZM295.854 336.144C295.438 336.144 295.058 336.068 294.714 335.916C294.37 335.764 294.074 335.548 293.826 335.268C293.586 334.98 293.398 334.64 293.262 334.248C293.126 333.848 293.058 333.4 293.058 332.904C293.058 332.416 293.126 331.972 293.262 331.572C293.398 331.172 293.586 330.832 293.826 330.552C294.074 330.264 294.37 330.044 294.714 329.892C295.058 329.74 295.438 329.664 295.854 329.664C296.27 329.664 296.646 329.74 296.982 329.892C297.326 330.044 297.622 330.264 297.87 330.552C298.118 330.832 298.31 331.172 298.446 331.572C298.582 331.972 298.65 332.416 298.65 332.904C298.65 333.4 298.582 333.848 298.446 334.248C298.31 334.64 298.118 334.98 297.87 335.268C297.622 335.548 297.326 335.764 296.982 335.916C296.646 336.068 296.27 336.144 295.854 336.144ZM295.854 335.292C296.374 335.292 296.798 335.132 297.126 334.812C297.454 334.492 297.618 334.004 297.618 333.348V332.46C297.618 331.804 297.454 331.316 297.126 330.996C296.798 330.676 296.374 330.516 295.854 330.516C295.334 330.516 294.91 330.676 294.582 330.996C294.254 331.316 294.09 331.804 294.09 332.46V333.348C294.09 334.004 294.254 334.492 294.582 334.812C294.91 335.132 295.334 335.292 295.854 335.292ZM301.409 336C301.073 336 300.817 335.908 300.641 335.724C300.473 335.532 300.389 335.292 300.389 335.004V327.12H301.349V335.16H302.261V336H301.409ZM307.294 328.356C307.086 328.356 306.934 328.308 306.838 328.212C306.75 328.108 306.706 327.976 306.706 327.816V327.66C306.706 327.5 306.75 327.372 306.838 327.276C306.934 327.172 307.086 327.12 307.294 327.12C307.502 327.12 307.65 327.172 307.738 327.276C307.834 327.372 307.882 327.5 307.882 327.66V327.816C307.882 327.976 307.834 328.108 307.738 328.212C307.65 328.308 307.502 328.356 307.294 328.356ZM306.814 329.808H307.774V336H306.814V329.808ZM311.834 336.144C311.258 336.144 310.774 336.036 310.382 335.82C309.998 335.596 309.666 335.3 309.386 334.932L310.07 334.38C310.31 334.684 310.578 334.92 310.874 335.088C311.17 335.248 311.514 335.328 311.906 335.328C312.314 335.328 312.63 335.24 312.854 335.064C313.086 334.888 313.202 334.64 313.202 334.32C313.202 334.08 313.122 333.876 312.962 333.708C312.81 333.532 312.53 333.412 312.122 333.348L311.63 333.276C311.342 333.236 311.078 333.176 310.838 333.096C310.598 333.008 310.386 332.896 310.202 332.76C310.026 332.616 309.886 332.44 309.782 332.232C309.686 332.024 309.638 331.776 309.638 331.488C309.638 331.184 309.694 330.92 309.806 330.696C309.918 330.464 310.07 330.272 310.262 330.12C310.462 329.968 310.698 329.856 310.97 329.784C311.242 329.704 311.534 329.664 311.846 329.664C312.35 329.664 312.77 329.752 313.106 329.928C313.45 330.104 313.75 330.348 314.006 330.66L313.37 331.236C313.234 331.044 313.034 330.872 312.77 330.72C312.506 330.56 312.174 330.48 311.774 330.48C311.374 330.48 311.07 330.568 310.862 330.744C310.662 330.912 310.562 331.144 310.562 331.44C310.562 331.744 310.662 331.964 310.862 332.1C311.07 332.236 311.366 332.336 311.75 332.4L312.23 332.472C312.918 332.576 313.406 332.776 313.694 333.072C313.982 333.36 314.126 333.74 314.126 334.212C314.126 334.812 313.922 335.284 313.514 335.628C313.106 335.972 312.546 336.144 311.834 336.144ZM319.014 336V335.112H321.354V328.368H321.27L319.158 330.336L318.57 329.7L320.79 327.624H322.362V335.112H324.522V336H319.014ZM326.945 334.596C327.201 334.596 327.385 334.664 327.497 334.8C327.617 334.928 327.677 335.096 327.677 335.304V335.472C327.677 335.8 327.581 336.16 327.389 336.552C327.197 336.952 326.929 337.3 326.585 337.596H325.781C326.021 337.34 326.213 337.096 326.357 336.864C326.509 336.64 326.617 336.388 326.681 336.108C326.521 336.068 326.401 335.992 326.321 335.88C326.249 335.768 326.213 335.632 326.213 335.472V335.304C326.213 335.096 326.269 334.928 326.381 334.8C326.501 334.664 326.689 334.596 326.945 334.596ZM210.388 356C210.052 356 209.796 355.908 209.62 355.724C209.452 355.532 209.368 355.284 209.368 354.98V350.648H208.348V349.808H208.924C209.132 349.808 209.272 349.768 209.344 349.688C209.424 349.6 209.464 349.452 209.464 349.244V348.092H210.328V349.808H211.684V350.648H210.328V355.16H211.588V356H210.388ZM213.387 347.12H214.347V350.816H214.395C214.547 350.464 214.759 350.184 215.031 349.976C215.311 349.768 215.683 349.664 216.147 349.664C216.787 349.664 217.291 349.872 217.659 350.288C218.035 350.696 218.223 351.276 218.223 352.028V356H217.263V352.196C217.263 351.084 216.795 350.528 215.859 350.528C215.667 350.528 215.479 350.552 215.295 350.6C215.119 350.648 214.959 350.72 214.815 350.816C214.671 350.912 214.555 351.036 214.467 351.188C214.387 351.332 214.347 351.504 214.347 351.704V356H213.387V347.12ZM222.695 356.144C222.271 356.144 221.887 356.068 221.543 355.916C221.207 355.764 220.915 355.548 220.667 355.268C220.427 354.98 220.239 354.64 220.103 354.248C219.975 353.848 219.911 353.4 219.911 352.904C219.911 352.416 219.975 351.972 220.103 351.572C220.239 351.172 220.427 350.832 220.667 350.552C220.915 350.264 221.207 350.044 221.543 349.892C221.887 349.74 222.271 349.664 222.695 349.664C223.111 349.664 223.483 349.74 223.811 349.892C224.139 350.044 224.419 350.256 224.651 350.528C224.883 350.792 225.059 351.108 225.179 351.476C225.307 351.844 225.371 352.248 225.371 352.688V353.144H220.919V353.432C220.919 353.696 220.959 353.944 221.039 354.176C221.127 354.4 221.247 354.596 221.399 354.764C221.559 354.932 221.751 355.064 221.975 355.16C222.207 355.256 222.467 355.304 222.755 355.304C223.147 355.304 223.487 355.212 223.775 355.028C224.071 354.844 224.299 354.58 224.459 354.236L225.143 354.728C224.943 355.152 224.631 355.496 224.207 355.76C223.783 356.016 223.279 356.144 222.695 356.144ZM222.695 350.468C222.431 350.468 222.191 350.516 221.975 350.612C221.759 350.7 221.571 350.828 221.411 350.996C221.259 351.164 221.139 351.364 221.051 351.596C220.963 351.82 220.919 352.068 220.919 352.34V352.424H224.339V352.292C224.339 351.74 224.187 351.3 223.883 350.972C223.587 350.636 223.191 350.468 222.695 350.468ZM232.449 356.144C232.033 356.144 231.653 356.068 231.309 355.916C230.965 355.764 230.669 355.548 230.421 355.268C230.181 354.98 229.993 354.64 229.857 354.248C229.721 353.848 229.653 353.4 229.653 352.904C229.653 352.416 229.721 351.972 229.857 351.572C229.993 351.172 230.181 350.832 230.421 350.552C230.669 350.264 230.965 350.044 231.309 349.892C231.653 349.74 232.033 349.664 232.449 349.664C232.865 349.664 233.241 349.74 233.577 349.892C233.921 350.044 234.217 350.264 234.465 350.552C234.713 350.832 234.905 351.172 235.041 351.572C235.177 351.972 235.245 352.416 235.245 352.904C235.245 353.4 235.177 353.848 235.041 354.248C234.905 354.64 234.713 354.98 234.465 355.268C234.217 355.548 233.921 355.764 233.577 355.916C233.241 356.068 232.865 356.144 232.449 356.144ZM232.449 355.292C232.969 355.292 233.393 355.132 233.721 354.812C234.049 354.492 234.213 354.004 234.213 353.348V352.46C234.213 351.804 234.049 351.316 233.721 350.996C233.393 350.676 232.969 350.516 232.449 350.516C231.929 350.516 231.505 350.676 231.177 350.996C230.849 351.316 230.685 351.804 230.685 352.46V353.348C230.685 354.004 230.849 354.492 231.177 354.812C231.505 355.132 231.929 355.292 232.449 355.292ZM238.352 356C238.016 356 237.76 355.908 237.584 355.724C237.416 355.532 237.332 355.284 237.332 354.98V350.648H236.312V349.808H236.888C237.096 349.808 237.236 349.768 237.308 349.688C237.388 349.6 237.428 349.452 237.428 349.244V348.092H238.292V349.808H239.648V350.648H238.292V355.16H239.552V356H238.352ZM241.351 347.12H242.311V350.816H242.359C242.511 350.464 242.723 350.184 242.995 349.976C243.275 349.768 243.647 349.664 244.111 349.664C244.751 349.664 245.255 349.872 245.623 350.288C245.999 350.696 246.187 351.276 246.187 352.028V356H245.227V352.196C245.227 351.084 244.759 350.528 243.823 350.528C243.631 350.528 243.443 350.552 243.259 350.6C243.083 350.648 242.923 350.72 242.779 350.816C242.635 350.912 242.519 351.036 242.431 351.188C242.351 351.332 242.311 351.504 242.311 351.704V356H241.351V347.12ZM250.659 356.144C250.235 356.144 249.851 356.068 249.507 355.916C249.171 355.764 248.879 355.548 248.631 355.268C248.391 354.98 248.203 354.64 248.067 354.248C247.939 353.848 247.875 353.4 247.875 352.904C247.875 352.416 247.939 351.972 248.067 351.572C248.203 351.172 248.391 350.832 248.631 350.552C248.879 350.264 249.171 350.044 249.507 349.892C249.851 349.74 250.235 349.664 250.659 349.664C251.075 349.664 251.447 349.74 251.775 349.892C252.103 350.044 252.383 350.256 252.615 350.528C252.847 350.792 253.023 351.108 253.143 351.476C253.271 351.844 253.335 352.248 253.335 352.688V353.144H248.883V353.432C248.883 353.696 248.923 353.944 249.003 354.176C249.091 354.4 249.211 354.596 249.363 354.764C249.523 354.932 249.715 355.064 249.939 355.16C250.171 355.256 250.431 355.304 250.719 355.304C251.111 355.304 251.451 355.212 251.739 355.028C252.035 354.844 252.263 354.58 252.423 354.236L253.107 354.728C252.907 355.152 252.595 355.496 252.171 355.76C251.747 356.016 251.243 356.144 250.659 356.144ZM250.659 350.468C250.395 350.468 250.155 350.516 249.939 350.612C249.723 350.7 249.535 350.828 249.375 350.996C249.223 351.164 249.103 351.364 249.015 351.596C248.927 351.82 248.883 352.068 248.883 352.34V352.424H252.303V352.292C252.303 351.74 252.151 351.3 251.847 350.972C251.551 350.636 251.155 350.468 250.659 350.468ZM255.077 356V349.808H256.037V350.948H256.097C256.209 350.652 256.409 350.388 256.697 350.156C256.985 349.924 257.381 349.808 257.885 349.808H258.257V350.768H257.693C257.173 350.768 256.765 350.868 256.469 351.068C256.181 351.26 256.037 351.504 256.037 351.8V356H255.077ZM266.6 354.992H266.552C266.176 355.76 265.572 356.144 264.74 356.144C264.356 356.144 264.008 356.068 263.696 355.916C263.384 355.764 263.116 355.548 262.892 355.268C262.676 354.988 262.508 354.648 262.388 354.248C262.276 353.848 262.22 353.4 262.22 352.904C262.22 352.408 262.276 351.96 262.388 351.56C262.508 351.16 262.676 350.82 262.892 350.54C263.116 350.26 263.384 350.044 263.696 349.892C264.008 349.74 264.356 349.664 264.74 349.664C265.172 349.664 265.54 349.76 265.844 349.952C266.156 350.136 266.392 350.424 266.552 350.816H266.6V349.808H267.56V358.4H266.6V354.992ZM265.004 355.28C265.22 355.28 265.424 355.252 265.616 355.196C265.816 355.14 265.988 355.06 266.132 354.956C266.276 354.844 266.388 354.712 266.468 354.56C266.556 354.4 266.6 354.22 266.6 354.02V351.716C266.6 351.548 266.556 351.392 266.468 351.248C266.388 351.096 266.276 350.968 266.132 350.864C265.988 350.76 265.816 350.68 265.616 350.624C265.424 350.56 265.22 350.528 265.004 350.528C264.46 350.528 264.032 350.7 263.72 351.044C263.408 351.38 263.252 351.824 263.252 352.376V353.432C263.252 353.984 263.408 354.432 263.72 354.776C264.032 355.112 264.46 355.28 265.004 355.28ZM273.576 354.992H273.528C273.464 355.136 273.384 355.28 273.288 355.424C273.2 355.56 273.088 355.684 272.952 355.796C272.816 355.9 272.652 355.984 272.46 356.048C272.268 356.112 272.044 356.144 271.788 356.144C271.148 356.144 270.64 355.94 270.264 355.532C269.888 355.116 269.7 354.532 269.7 353.78V349.808H270.66V353.612C270.66 354.724 271.132 355.28 272.076 355.28C272.268 355.28 272.452 355.256 272.628 355.208C272.812 355.16 272.972 355.088 273.108 354.992C273.252 354.896 273.364 354.776 273.444 354.632C273.532 354.48 273.576 354.3 273.576 354.092V349.808H274.536V356H273.576V354.992ZM276.741 347.12H277.701V350.816H277.749C277.909 350.424 278.141 350.136 278.445 349.952C278.757 349.76 279.129 349.664 279.561 349.664C279.945 349.664 280.293 349.74 280.605 349.892C280.917 350.044 281.181 350.26 281.397 350.54C281.621 350.82 281.789 351.16 281.901 351.56C282.021 351.96 282.081 352.408 282.081 352.904C282.081 353.4 282.021 353.848 281.901 354.248C281.789 354.648 281.621 354.988 281.397 355.268C281.181 355.548 280.917 355.764 280.605 355.916C280.293 356.068 279.945 356.144 279.561 356.144C278.721 356.144 278.117 355.76 277.749 354.992H277.701V356H276.741V347.12ZM279.297 355.28C279.841 355.28 280.269 355.112 280.581 354.776C280.893 354.432 281.049 353.984 281.049 353.432V352.376C281.049 351.824 280.893 351.38 280.581 351.044C280.269 350.7 279.841 350.528 279.297 350.528C279.081 350.528 278.873 350.56 278.673 350.624C278.481 350.68 278.313 350.76 278.169 350.864C278.025 350.968 277.909 351.096 277.821 351.248C277.741 351.392 277.701 351.548 277.701 351.716V354.02C277.701 354.22 277.741 354.4 277.821 354.56C277.909 354.712 278.025 354.844 278.169 354.956C278.313 355.06 278.481 355.14 278.673 355.196C278.873 355.252 279.081 355.28 279.297 355.28ZM284.342 348.356C284.134 348.356 283.982 348.308 283.886 348.212C283.798 348.108 283.754 347.976 283.754 347.816V347.66C283.754 347.5 283.798 347.372 283.886 347.276C283.982 347.172 284.134 347.12 284.342 347.12C284.55 347.12 284.698 347.172 284.786 347.276C284.882 347.372 284.93 347.5 284.93 347.66V347.816C284.93 347.976 284.882 348.108 284.786 348.212C284.698 348.308 284.55 348.356 284.342 348.356ZM283.862 349.808H284.822V356H283.862V349.808ZM288.39 356C288.054 356 287.798 355.908 287.622 355.724C287.454 355.532 287.37 355.284 287.37 354.98V350.648H286.35V349.808H286.926C287.134 349.808 287.274 349.768 287.346 349.688C287.426 349.6 287.466 349.452 287.466 349.244V348.092H288.33V349.808H289.686V350.648H288.33V355.16H289.59V356H288.39ZM294.865 348.356C294.657 348.356 294.505 348.308 294.409 348.212C294.321 348.108 294.277 347.976 294.277 347.816V347.66C294.277 347.5 294.321 347.372 294.409 347.276C294.505 347.172 294.657 347.12 294.865 347.12C295.073 347.12 295.221 347.172 295.309 347.276C295.405 347.372 295.453 347.5 295.453 347.66V347.816C295.453 347.976 295.405 348.108 295.309 348.212C295.221 348.308 295.073 348.356 294.865 348.356ZM294.385 349.808H295.345V356H294.385V349.808ZM299.405 356.144C298.829 356.144 298.345 356.036 297.953 355.82C297.569 355.596 297.237 355.3 296.957 354.932L297.641 354.38C297.881 354.684 298.149 354.92 298.445 355.088C298.741 355.248 299.085 355.328 299.477 355.328C299.885 355.328 300.201 355.24 300.425 355.064C300.657 354.888 300.773 354.64 300.773 354.32C300.773 354.08 300.693 353.876 300.533 353.708C300.381 353.532 300.101 353.412 299.693 353.348L299.201 353.276C298.913 353.236 298.649 353.176 298.409 353.096C298.169 353.008 297.957 352.896 297.773 352.76C297.597 352.616 297.457 352.44 297.353 352.232C297.257 352.024 297.209 351.776 297.209 351.488C297.209 351.184 297.265 350.92 297.377 350.696C297.489 350.464 297.641 350.272 297.833 350.12C298.033 349.968 298.269 349.856 298.541 349.784C298.813 349.704 299.105 349.664 299.417 349.664C299.921 349.664 300.341 349.752 300.677 349.928C301.021 350.104 301.321 350.348 301.577 350.66L300.941 351.236C300.805 351.044 300.605 350.872 300.341 350.72C300.077 350.56 299.745 350.48 299.345 350.48C298.945 350.48 298.641 350.568 298.433 350.744C298.233 350.912 298.133 351.144 298.133 351.44C298.133 351.744 298.233 351.964 298.433 352.1C298.641 352.236 298.937 352.336 299.321 352.4L299.801 352.472C300.489 352.576 300.977 352.776 301.265 353.072C301.553 353.36 301.697 353.74 301.697 354.212C301.697 354.812 301.493 355.284 301.085 355.628C300.677 355.972 300.117 356.144 299.405 356.144ZM306.884 350.648H305.876V349.808H306.884V348.56C306.884 348.128 306.996 347.78 307.22 347.516C307.444 347.252 307.784 347.12 308.24 347.12H309.176V347.96H307.844V349.808H309.176V350.648H307.844V356H306.884V350.648ZM311.619 356C311.283 356 311.027 355.908 310.851 355.724C310.683 355.532 310.599 355.292 310.599 355.004V347.12H311.559V355.16H312.471V356H311.619ZM314.508 348.356C314.3 348.356 314.148 348.308 314.052 348.212C313.964 348.108 313.92 347.976 313.92 347.816V347.66C313.92 347.5 313.964 347.372 314.052 347.276C314.148 347.172 314.3 347.12 314.508 347.12C314.716 347.12 314.864 347.172 314.952 347.276C315.048 347.372 315.096 347.5 315.096 347.66V347.816C315.096 347.976 315.048 348.108 314.952 348.212C314.864 348.308 314.716 348.356 314.508 348.356ZM314.028 349.808H314.988V356H314.028V349.808ZM317.188 349.808H318.148V350.816H318.196C318.356 350.424 318.588 350.136 318.892 349.952C319.204 349.76 319.576 349.664 320.008 349.664C320.392 349.664 320.74 349.74 321.052 349.892C321.364 350.044 321.628 350.26 321.844 350.54C322.068 350.82 322.236 351.16 322.348 351.56C322.468 351.96 322.528 352.408 322.528 352.904C322.528 353.4 322.468 353.848 322.348 354.248C322.236 354.648 322.068 354.988 321.844 355.268C321.628 355.548 321.364 355.764 321.052 355.916C320.74 356.068 320.392 356.144 320.008 356.144C319.168 356.144 318.564 355.76 318.196 354.992H318.148V358.4H317.188V349.808ZM319.744 355.28C320.288 355.28 320.716 355.112 321.028 354.776C321.34 354.432 321.496 353.984 321.496 353.432V352.376C321.496 351.824 321.34 351.38 321.028 351.044C320.716 350.7 320.288 350.528 319.744 350.528C319.528 350.528 319.32 350.56 319.12 350.624C318.928 350.68 318.76 350.76 318.616 350.864C318.472 350.968 318.356 351.096 318.268 351.248C318.188 351.392 318.148 351.548 318.148 351.716V354.02C318.148 354.22 318.188 354.4 318.268 354.56C318.356 354.712 318.472 354.844 318.616 354.956C318.76 355.06 318.928 355.14 319.12 355.196C319.32 355.252 319.528 355.28 319.744 355.28ZM324.309 349.808H325.269V350.816H325.317C325.477 350.424 325.709 350.136 326.013 349.952C326.325 349.76 326.697 349.664 327.129 349.664C327.513 349.664 327.861 349.74 328.173 349.892C328.485 350.044 328.749 350.26 328.965 350.54C329.189 350.82 329.357 351.16 329.469 351.56C329.589 351.96 329.649 352.408 329.649 352.904C329.649 353.4 329.589 353.848 329.469 354.248C329.357 354.648 329.189 354.988 328.965 355.268C328.749 355.548 328.485 355.764 328.173 355.916C327.861 356.068 327.513 356.144 327.129 356.144C326.289 356.144 325.685 355.76 325.317 354.992H325.269V358.4H324.309V349.808ZM326.865 355.28C327.409 355.28 327.837 355.112 328.149 354.776C328.461 354.432 328.617 353.984 328.617 353.432V352.376C328.617 351.824 328.461 351.38 328.149 351.044C327.837 350.7 327.409 350.528 326.865 350.528C326.649 350.528 326.441 350.56 326.241 350.624C326.049 350.68 325.881 350.76 325.737 350.864C325.593 350.968 325.477 351.096 325.389 351.248C325.309 351.392 325.269 351.548 325.269 351.716V354.02C325.269 354.22 325.309 354.4 325.389 354.56C325.477 354.712 325.593 354.844 325.737 354.956C325.881 355.06 326.049 355.14 326.241 355.196C326.441 355.252 326.649 355.28 326.865 355.28ZM333.758 356.144C333.334 356.144 332.95 356.068 332.606 355.916C332.27 355.764 331.978 355.548 331.73 355.268C331.49 354.98 331.302 354.64 331.166 354.248C331.038 353.848 330.974 353.4 330.974 352.904C330.974 352.416 331.038 351.972 331.166 351.572C331.302 351.172 331.49 350.832 331.73 350.552C331.978 350.264 332.27 350.044 332.606 349.892C332.95 349.74 333.334 349.664 333.758 349.664C334.174 349.664 334.546 349.74 334.874 349.892C335.202 350.044 335.482 350.256 335.714 350.528C335.946 350.792 336.122 351.108 336.242 351.476C336.37 351.844 336.434 352.248 336.434 352.688V353.144H331.982V353.432C331.982 353.696 332.022 353.944 332.102 354.176C332.19 354.4 332.31 354.596 332.462 354.764C332.622 354.932 332.814 355.064 333.038 355.16C333.27 355.256 333.53 355.304 333.818 355.304C334.21 355.304 334.55 355.212 334.838 355.028C335.134 354.844 335.362 354.58 335.522 354.236L336.206 354.728C336.006 355.152 335.694 355.496 335.27 355.76C334.846 356.016 334.342 356.144 333.758 356.144ZM333.758 350.468C333.494 350.468 333.254 350.516 333.038 350.612C332.822 350.7 332.634 350.828 332.474 350.996C332.322 351.164 332.202 351.364 332.114 351.596C332.026 351.82 331.982 352.068 331.982 352.34V352.424H335.402V352.292C335.402 351.74 335.25 351.3 334.946 350.972C334.65 350.636 334.254 350.468 333.758 350.468ZM342.136 354.992H342.088C341.712 355.76 341.108 356.144 340.276 356.144C339.892 356.144 339.544 356.068 339.232 355.916C338.92 355.764 338.652 355.548 338.428 355.268C338.212 354.988 338.044 354.648 337.924 354.248C337.812 353.848 337.756 353.4 337.756 352.904C337.756 352.408 337.812 351.96 337.924 351.56C338.044 351.16 338.212 350.82 338.428 350.54C338.652 350.26 338.92 350.044 339.232 349.892C339.544 349.74 339.892 349.664 340.276 349.664C340.708 349.664 341.076 349.76 341.38 349.952C341.692 350.136 341.928 350.424 342.088 350.816H342.136V347.12H343.096V356H342.136V354.992ZM340.54 355.28C340.756 355.28 340.96 355.252 341.152 355.196C341.352 355.14 341.524 355.06 341.668 354.956C341.812 354.844 341.924 354.712 342.004 354.56C342.092 354.4 342.136 354.22 342.136 354.02V351.716C342.136 351.548 342.092 351.392 342.004 351.248C341.924 351.096 341.812 350.968 341.668 350.864C341.524 350.76 341.352 350.68 341.152 350.624C340.96 350.56 340.756 350.528 340.54 350.528C339.996 350.528 339.568 350.7 339.256 351.044C338.944 351.38 338.788 351.824 338.788 352.376V353.432C338.788 353.984 338.944 354.432 339.256 354.776C339.568 355.112 339.996 355.28 340.54 355.28Z" fill="#121619"/>
<path d="M213.942 22.168C213.298 22.168 212.715 22.0653 212.192 21.86C211.679 21.6453 211.235 21.328 210.862 20.908C210.498 20.488 210.218 19.97 210.022 19.354C209.826 18.7287 209.728 18.0053 209.728 17.184C209.728 16.3627 209.826 15.6347 210.022 15C210.218 14.356 210.498 13.8193 210.862 13.39C211.235 12.9513 211.679 12.62 212.192 12.396C212.715 12.172 213.298 12.06 213.942 12.06C214.819 12.06 215.547 12.2467 216.126 12.62C216.705 12.9933 217.167 13.558 217.512 14.314L215.93 15.154C215.79 14.7153 215.561 14.3653 215.244 14.104C214.927 13.8333 214.493 13.698 213.942 13.698C213.251 13.698 212.701 13.9313 212.29 14.398C211.889 14.8647 211.688 15.518 211.688 16.358V17.898C211.688 18.7473 211.889 19.4007 212.29 19.858C212.701 20.306 213.251 20.53 213.942 20.53C214.493 20.53 214.941 20.3807 215.286 20.082C215.641 19.7833 215.897 19.4147 216.056 18.976L217.554 19.858C217.199 20.586 216.728 21.1553 216.14 21.566C215.552 21.9673 214.819 22.168 213.942 22.168ZM222.076 22.168C221.554 22.168 221.082 22.0793 220.662 21.902C220.252 21.7247 219.897 21.468 219.598 21.132C219.309 20.796 219.085 20.3947 218.926 19.928C218.768 19.452 218.688 18.92 218.688 18.332C218.688 17.744 218.768 17.2167 218.926 16.75C219.085 16.2833 219.309 15.8867 219.598 15.56C219.897 15.224 220.252 14.9673 220.662 14.79C221.082 14.6127 221.554 14.524 222.076 14.524C222.599 14.524 223.07 14.6127 223.49 14.79C223.91 14.9673 224.265 15.224 224.554 15.56C224.853 15.8867 225.082 16.2833 225.24 16.75C225.399 17.2167 225.478 17.744 225.478 18.332C225.478 18.92 225.399 19.452 225.24 19.928C225.082 20.3947 224.853 20.796 224.554 21.132C224.265 21.468 223.91 21.7247 223.49 21.902C223.07 22.0793 222.599 22.168 222.076 22.168ZM222.076 20.726C222.552 20.726 222.926 20.5813 223.196 20.292C223.467 20.0027 223.602 19.578 223.602 19.018V17.66C223.602 17.1093 223.467 16.6893 223.196 16.4C222.926 16.1107 222.552 15.966 222.076 15.966C221.61 15.966 221.241 16.1107 220.97 16.4C220.7 16.6893 220.564 17.1093 220.564 17.66V19.018C220.564 19.578 220.7 20.0027 220.97 20.292C221.241 20.5813 221.61 20.726 222.076 20.726ZM227.227 22V14.692H229.019V15.91H229.089C229.238 15.518 229.472 15.1913 229.789 14.93C230.116 14.6593 230.564 14.524 231.133 14.524C231.889 14.524 232.468 14.7713 232.869 15.266C233.27 15.7607 233.471 16.4653 233.471 17.38V22H231.679V17.562C231.679 17.0393 231.586 16.6473 231.399 16.386C231.212 16.1247 230.904 15.994 230.475 15.994C230.288 15.994 230.106 16.022 229.929 16.078C229.761 16.1247 229.607 16.1993 229.467 16.302C229.336 16.3953 229.229 16.5167 229.145 16.666C229.061 16.806 229.019 16.974 229.019 17.17V22H227.227ZM237.9 22C237.284 22 236.812 21.8413 236.486 21.524C236.168 21.1973 236.01 20.7353 236.01 20.138V16.12H234.932V14.692H235.492C235.762 14.692 235.944 14.6313 236.038 14.51C236.14 14.3793 236.192 14.188 236.192 13.936V12.69H237.802V14.692H239.3V16.12H237.802V20.572H239.188V22H237.9ZM241.014 22V14.692H242.806V16.204H242.876C242.923 16.008 242.993 15.8213 243.086 15.644C243.189 15.4573 243.319 15.294 243.478 15.154C243.637 15.014 243.823 14.902 244.038 14.818C244.262 14.734 244.519 14.692 244.808 14.692H245.2V16.386H244.64C244.033 16.386 243.576 16.4747 243.268 16.652C242.96 16.8293 242.806 17.1187 242.806 17.52V22H241.014ZM249.5 22.168C248.977 22.168 248.506 22.0793 248.086 21.902C247.675 21.7247 247.32 21.468 247.022 21.132C246.732 20.796 246.508 20.3947 246.35 19.928C246.191 19.452 246.112 18.92 246.112 18.332C246.112 17.744 246.191 17.2167 246.35 16.75C246.508 16.2833 246.732 15.8867 247.022 15.56C247.32 15.224 247.675 14.9673 248.086 14.79C248.506 14.6127 248.977 14.524 249.5 14.524C250.022 14.524 250.494 14.6127 250.914 14.79C251.334 14.9673 251.688 15.224 251.978 15.56C252.276 15.8867 252.505 16.2833 252.664 16.75C252.822 17.2167 252.902 17.744 252.902 18.332C252.902 18.92 252.822 19.452 252.664 19.928C252.505 20.3947 252.276 20.796 251.978 21.132C251.688 21.468 251.334 21.7247 250.914 21.902C250.494 22.0793 250.022 22.168 249.5 22.168ZM249.5 20.726C249.976 20.726 250.349 20.5813 250.62 20.292C250.89 20.0027 251.026 19.578 251.026 19.018V17.66C251.026 17.1093 250.89 16.6893 250.62 16.4C250.349 16.1107 249.976 15.966 249.5 15.966C249.033 15.966 248.664 16.1107 248.394 16.4C248.123 16.6893 247.988 17.1093 247.988 17.66V19.018C247.988 19.578 248.123 20.0027 248.394 20.292C248.664 20.5813 249.033 20.726 249.5 20.726ZM256.442 22C255.826 22 255.374 21.846 255.084 21.538C254.795 21.23 254.65 20.796 254.65 20.236V11.64H256.442V20.572H257.408V22H256.442ZM263.29 13.628C262.917 13.628 262.646 13.544 262.478 13.376C262.319 13.208 262.24 12.9933 262.24 12.732V12.452C262.24 12.1907 262.319 11.976 262.478 11.808C262.646 11.64 262.917 11.556 263.29 11.556C263.654 11.556 263.92 11.64 264.088 11.808C264.256 11.976 264.34 12.1907 264.34 12.452V12.732C264.34 12.9933 264.256 13.208 264.088 13.376C263.92 13.544 263.654 13.628 263.29 13.628ZM262.394 14.692H264.186V22H262.394V14.692ZM268.817 22.168C268.117 22.168 267.529 22.0513 267.053 21.818C266.577 21.5753 266.157 21.244 265.793 20.824L266.885 19.76C267.156 20.068 267.45 20.3107 267.767 20.488C268.094 20.6653 268.467 20.754 268.887 20.754C269.317 20.754 269.625 20.6793 269.811 20.53C270.007 20.3807 270.105 20.1753 270.105 19.914C270.105 19.6993 270.035 19.5313 269.895 19.41C269.765 19.2793 269.536 19.1907 269.209 19.144L268.481 19.046C267.688 18.9433 267.081 18.7193 266.661 18.374C266.251 18.0193 266.045 17.506 266.045 16.834C266.045 16.4793 266.111 16.162 266.241 15.882C266.372 15.5927 266.559 15.35 266.801 15.154C267.044 14.9487 267.333 14.7947 267.669 14.692C268.015 14.58 268.397 14.524 268.817 14.524C269.172 14.524 269.485 14.552 269.755 14.608C270.035 14.6547 270.287 14.7293 270.511 14.832C270.735 14.9253 270.941 15.0467 271.127 15.196C271.314 15.336 271.496 15.4947 271.673 15.672L270.623 16.722C270.409 16.498 270.152 16.3113 269.853 16.162C269.555 16.0127 269.228 15.938 268.873 15.938C268.481 15.938 268.197 16.008 268.019 16.148C267.851 16.288 267.767 16.47 267.767 16.694C267.767 16.9367 267.837 17.1233 267.977 17.254C268.127 17.3753 268.374 17.464 268.719 17.52L269.461 17.618C271.039 17.842 271.827 18.5607 271.827 19.774C271.827 20.1287 271.753 20.4553 271.603 20.754C271.463 21.0433 271.263 21.2953 271.001 21.51C270.74 21.7153 270.423 21.8787 270.049 22C269.685 22.112 269.275 22.168 268.817 22.168ZM277.276 22V20.502H279.964V13.558H279.838L277.71 16.078L276.562 15.112L278.984 12.228H281.77V20.502H284.01V22H277.276Z" fill="#121619"/>
<path d="M20.942 22.168C20.298 22.168 19.7147 22.0653 19.192 21.86C18.6787 21.6453 18.2353 21.328 17.862 20.908C17.498 20.488 17.218 19.97 17.022 19.354C16.826 18.7287 16.728 18.0053 16.728 17.184C16.728 16.3627 16.826 15.6347 17.022 15C17.218 14.356 17.498 13.8193 17.862 13.39C18.2353 12.9513 18.6787 12.62 19.192 12.396C19.7147 12.172 20.298 12.06 20.942 12.06C21.8193 12.06 22.5473 12.2467 23.126 12.62C23.7047 12.9933 24.1667 13.558 24.512 14.314L22.93 15.154C22.79 14.7153 22.5613 14.3653 22.244 14.104C21.9267 13.8333 21.4927 13.698 20.942 13.698C20.2513 13.698 19.7007 13.9313 19.29 14.398C18.8887 14.8647 18.688 15.518 18.688 16.358V17.898C18.688 18.7473 18.8887 19.4007 19.29 19.858C19.7007 20.306 20.2513 20.53 20.942 20.53C21.4927 20.53 21.9407 20.3807 22.286 20.082C22.6407 19.7833 22.8973 19.4147 23.056 18.976L24.554 19.858C24.1993 20.586 23.728 21.1553 23.14 21.566C22.552 21.9673 21.8193 22.168 20.942 22.168ZM29.0764 22.168C28.5538 22.168 28.0824 22.0793 27.6624 21.902C27.2518 21.7247 26.8971 21.468 26.5984 21.132C26.3091 20.796 26.0851 20.3947 25.9264 19.928C25.7678 19.452 25.6884 18.92 25.6884 18.332C25.6884 17.744 25.7678 17.2167 25.9264 16.75C26.0851 16.2833 26.3091 15.8867 26.5984 15.56C26.8971 15.224 27.2518 14.9673 27.6624 14.79C28.0824 14.6127 28.5538 14.524 29.0764 14.524C29.5991 14.524 30.0704 14.6127 30.4904 14.79C30.9104 14.9673 31.2651 15.224 31.5544 15.56C31.8531 15.8867 32.0818 16.2833 32.2404 16.75C32.3991 17.2167 32.4784 17.744 32.4784 18.332C32.4784 18.92 32.3991 19.452 32.2404 19.928C32.0818 20.3947 31.8531 20.796 31.5544 21.132C31.2651 21.468 30.9104 21.7247 30.4904 21.902C30.0704 22.0793 29.5991 22.168 29.0764 22.168ZM29.0764 20.726C29.5524 20.726 29.9258 20.5813 30.1964 20.292C30.4671 20.0027 30.6024 19.578 30.6024 19.018V17.66C30.6024 17.1093 30.4671 16.6893 30.1964 16.4C29.9258 16.1107 29.5524 15.966 29.0764 15.966C28.6098 15.966 28.2411 16.1107 27.9704 16.4C27.6998 16.6893 27.5644 17.1093 27.5644 17.66V19.018C27.5644 19.578 27.6998 20.0027 27.9704 20.292C28.2411 20.5813 28.6098 20.726 29.0764 20.726ZM34.2271 22V14.692H36.0191V15.91H36.0891C36.2384 15.518 36.4718 15.1913 36.7891 14.93C37.1158 14.6593 37.5638 14.524 38.1331 14.524C38.8891 14.524 39.4678 14.7713 39.8691 15.266C40.2704 15.7607 40.4711 16.4653 40.4711 17.38V22H38.6791V17.562C38.6791 17.0393 38.5858 16.6473 38.3991 16.386C38.2124 16.1247 37.9044 15.994 37.4751 15.994C37.2884 15.994 37.1064 16.022 36.9291 16.078C36.7611 16.1247 36.6071 16.1993 36.4671 16.302C36.3364 16.3953 36.2291 16.5167 36.1451 16.666C36.0611 16.806 36.0191 16.974 36.0191 17.17V22H34.2271ZM44.8996 22C44.2836 22 43.8122 21.8413 43.4856 21.524C43.1682 21.1973 43.0096 20.7353 43.0096 20.138V16.12H41.9316V14.692H42.4916C42.7622 14.692 42.9442 14.6313 43.0376 14.51C43.1402 14.3793 43.1916 14.188 43.1916 13.936V12.69H44.8016V14.692H46.2996V16.12H44.8016V20.572H46.1876V22H44.8996ZM48.0139 22V14.692H49.8059V16.204H49.8759C49.9226 16.008 49.9926 15.8213 50.0859 15.644C50.1886 15.4573 50.3192 15.294 50.4779 15.154C50.6366 15.014 50.8232 14.902 51.0379 14.818C51.2619 14.734 51.5186 14.692 51.8079 14.692H52.1999V16.386H51.6399C51.0332 16.386 50.5759 16.4747 50.2679 16.652C49.9599 16.8293 49.8059 17.1187 49.8059 17.52V22H48.0139ZM56.4996 22.168C55.977 22.168 55.5056 22.0793 55.0856 21.902C54.675 21.7247 54.3203 21.468 54.0216 21.132C53.7323 20.796 53.5083 20.3947 53.3496 19.928C53.191 19.452 53.1116 18.92 53.1116 18.332C53.1116 17.744 53.191 17.2167 53.3496 16.75C53.5083 16.2833 53.7323 15.8867 54.0216 15.56C54.3203 15.224 54.675 14.9673 55.0856 14.79C55.5056 14.6127 55.977 14.524 56.4996 14.524C57.0223 14.524 57.4936 14.6127 57.9136 14.79C58.3336 14.9673 58.6883 15.224 58.9776 15.56C59.2763 15.8867 59.505 16.2833 59.6636 16.75C59.8223 17.2167 59.9016 17.744 59.9016 18.332C59.9016 18.92 59.8223 19.452 59.6636 19.928C59.505 20.3947 59.2763 20.796 58.9776 21.132C58.6883 21.468 58.3336 21.7247 57.9136 21.902C57.4936 22.0793 57.0223 22.168 56.4996 22.168ZM56.4996 20.726C56.9756 20.726 57.349 20.5813 57.6196 20.292C57.8903 20.0027 58.0256 19.578 58.0256 19.018V17.66C58.0256 17.1093 57.8903 16.6893 57.6196 16.4C57.349 16.1107 56.9756 15.966 56.4996 15.966C56.033 15.966 55.6643 16.1107 55.3936 16.4C55.123 16.6893 54.9876 17.1093 54.9876 17.66V19.018C54.9876 19.578 55.123 20.0027 55.3936 20.292C55.6643 20.5813 56.033 20.726 56.4996 20.726ZM63.4423 22C62.8263 22 62.3736 21.846 62.0843 21.538C61.795 21.23 61.6503 20.796 61.6503 20.236V11.64H63.4423V20.572H64.4083V22H63.4423ZM70.2901 13.628C69.9168 13.628 69.6461 13.544 69.4781 13.376C69.3195 13.208 69.2401 12.9933 69.2401 12.732V12.452C69.2401 12.1907 69.3195 11.976 69.4781 11.808C69.6461 11.64 69.9168 11.556 70.2901 11.556C70.6541 11.556 70.9201 11.64 71.0881 11.808C71.2561 11.976 71.3401 12.1907 71.3401 12.452V12.732C71.3401 12.9933 71.2561 13.208 71.0881 13.376C70.9201 13.544 70.6541 13.628 70.2901 13.628ZM69.3941 14.692H71.1861V22H69.3941V14.692ZM75.8173 22.168C75.1173 22.168 74.5293 22.0513 74.0533 21.818C73.5773 21.5753 73.1573 21.244 72.7933 20.824L73.8853 19.76C74.1559 20.068 74.4499 20.3107 74.7673 20.488C75.0939 20.6653 75.4673 20.754 75.8873 20.754C76.3166 20.754 76.6246 20.6793 76.8113 20.53C77.0073 20.3807 77.1053 20.1753 77.1053 19.914C77.1053 19.6993 77.0353 19.5313 76.8953 19.41C76.7646 19.2793 76.5359 19.1907 76.2093 19.144L75.4813 19.046C74.6879 18.9433 74.0813 18.7193 73.6613 18.374C73.2506 18.0193 73.0453 17.506 73.0453 16.834C73.0453 16.4793 73.1106 16.162 73.2413 15.882C73.3719 15.5927 73.5586 15.35 73.8013 15.154C74.0439 14.9487 74.3333 14.7947 74.6693 14.692C75.0146 14.58 75.3973 14.524 75.8173 14.524C76.1719 14.524 76.4846 14.552 76.7553 14.608C77.0353 14.6547 77.2873 14.7293 77.5113 14.832C77.7353 14.9253 77.9406 15.0467 78.1273 15.196C78.3139 15.336 78.4959 15.4947 78.6733 15.672L77.6233 16.722C77.4086 16.498 77.1519 16.3113 76.8533 16.162C76.5546 16.0127 76.2279 15.938 75.8733 15.938C75.4813 15.938 75.1966 16.008 75.0193 16.148C74.8513 16.288 74.7673 16.47 74.7673 16.694C74.7673 16.9367 74.8373 17.1233 74.9773 17.254C75.1266 17.3753 75.3739 17.464 75.7193 17.52L76.4613 17.618C78.0386 17.842 78.8273 18.5607 78.8273 19.774C78.8273 20.1287 78.7526 20.4553 78.6033 20.754C78.4633 21.0433 78.2626 21.2953 78.0013 21.51C77.7399 21.7153 77.4226 21.8787 77.0493 22C76.6853 22.112 76.2746 22.168 75.8173 22.168ZM87.2022 22.168C86.5769 22.168 86.0355 22.056 85.5782 21.832C85.1209 21.5987 84.7429 21.2673 84.4442 20.838C84.1455 20.4087 83.9215 19.8813 83.7722 19.256C83.6322 18.6307 83.5622 17.9167 83.5622 17.114C83.5622 16.3207 83.6322 15.6113 83.7722 14.986C83.9215 14.3513 84.1455 13.8193 84.4442 13.39C84.7429 12.9607 85.1209 12.634 85.5782 12.41C86.0355 12.1767 86.5769 12.06 87.2022 12.06C88.4435 12.06 89.3582 12.5033 89.9462 13.39C90.5435 14.2767 90.8422 15.518 90.8422 17.114C90.8422 18.71 90.5435 19.9513 89.9462 20.838C89.3582 21.7247 88.4435 22.168 87.2022 22.168ZM87.2022 20.614C87.8275 20.614 88.2615 20.3807 88.5042 19.914C88.7562 19.438 88.8822 18.7987 88.8822 17.996V16.232C88.8822 15.4293 88.7562 14.7947 88.5042 14.328C88.2615 13.852 87.8275 13.614 87.2022 13.614C86.5769 13.614 86.1382 13.852 85.8862 14.328C85.6435 14.7947 85.5222 15.4293 85.5222 16.232V17.996C85.5222 18.7987 85.6435 19.438 85.8862 19.914C86.1382 20.3807 86.5769 20.614 87.2022 20.614Z" fill="#121619"/>
<line x1="192.5" x2="192.5" y2="369" stroke="#DDE1E6"/>
<rect x="0.5" y="0.5" width="383" height="368" stroke="#DDE1E6"/>
<circle cx="97.5" cy="200.5" r="49" fill="#BE95FF" stroke="#491D8B"/>
<circle cx="289.5" cy="200.5" r="49" fill="#BE95FF" stroke="#491D8B"/>
<circle cx="97.5" cy="200.5" r="45" fill="white" stroke="#491D8B"/>
<circle cx="289.5" cy="200.5" r="45" fill="white" stroke="#491D8B"/>
<circle cx="97.5" cy="100.5" r="20" fill="#BE95FF" stroke="#491D8B"/>
<circle cx="289.5" cy="100.5" r="20" fill="#BE95FF" stroke="#491D8B"/>
<rect x="96" y="117" width="3" height="37" fill="#BE95FF"/>
<rect x="288" y="117" width="3" height="37" fill="#BE95FF"/>
<path opacity="0.2" d="M29.36 115V113.832H32.56V104.824H32.448L29.632 107.448L28.848 106.6L31.808 103.832H33.904V113.832H36.848V115H29.36Z" fill="#121619"/>
<path d="M221.36 115V113.832H224.56V104.824H224.448L221.632 107.448L220.848 106.6L223.808 103.832H225.904V113.832H228.848V115H221.36Z" fill="#121619"/>
<path opacity="0.2" d="M155.36 115V113.832H158.56V104.824H158.448L155.632 107.448L154.848 106.6L157.808 103.832H159.904V113.832H162.848V115H155.36Z" fill="#121619"/>
<path d="M347.36 115V113.832H350.56V104.824H350.448L347.632 107.448L346.848 106.6L349.808 103.832H351.904V113.832H354.848V115H347.36Z" fill="#121619"/>
<path d="M338 108L342 106.5L338 105L338 108Z" fill="#121619"/>
<line x1="338" y1="106.5" x2="234" y2="106.5" stroke="#121619"/>
<path d="M32.8 95.192C32.1173 95.192 31.5307 95.064 31.04 94.808C30.5493 94.5413 30.144 94.1627 29.824 93.672C29.504 93.1813 29.2693 92.5787 29.12 91.864C28.9707 91.1493 28.896 90.3333 28.896 89.416C28.896 88.5093 28.9707 87.6987 29.12 86.984C29.2693 86.2587 29.504 85.6507 29.824 85.16C30.144 84.6693 30.5493 84.296 31.04 84.04C31.5307 83.7733 32.1173 83.64 32.8 83.64C33.4827 83.64 34.0693 83.7733 34.56 84.04C35.0507 84.296 35.456 84.6693 35.776 85.16C36.096 85.6507 36.3307 86.2587 36.48 86.984C36.6293 87.6987 36.704 88.5093 36.704 89.416C36.704 90.3333 36.6293 91.1493 36.48 91.864C36.3307 92.5787 36.096 93.1813 35.776 93.672C35.456 94.1627 35.0507 94.5413 34.56 94.808C34.0693 95.064 33.4827 95.192 32.8 95.192ZM32.8 94.024C33.248 94.024 33.632 93.9387 33.952 93.768C34.272 93.5867 34.528 93.336 34.72 93.016C34.9227 92.696 35.072 92.312 35.168 91.864C35.264 91.4053 35.312 90.8933 35.312 90.328V88.504C35.312 87.9493 35.264 87.4427 35.168 86.984C35.072 86.5253 34.9227 86.136 34.72 85.816C34.528 85.496 34.272 85.2507 33.952 85.08C33.632 84.8987 33.248 84.808 32.8 84.808C32.352 84.808 31.968 84.8987 31.648 85.08C31.328 85.2507 31.0667 85.496 30.864 85.816C30.672 86.136 30.528 86.5253 30.432 86.984C30.336 87.4427 30.288 87.9493 30.288 88.504V90.328C30.288 90.8933 30.336 91.4053 30.432 91.864C30.528 92.312 30.672 92.696 30.864 93.016C31.0667 93.336 31.328 93.5867 31.648 93.768C31.968 93.9387 32.352 94.024 32.8 94.024ZM32.8 90.36C32.4267 90.36 32.1653 90.2853 32.016 90.136C31.8773 89.9867 31.808 89.8053 31.808 89.592V89.24C31.808 89.0267 31.8773 88.8453 32.016 88.696C32.1653 88.5467 32.4267 88.472 32.8 88.472C33.1733 88.472 33.4293 88.5467 33.568 88.696C33.7173 88.8453 33.792 89.0267 33.792 89.24V89.592C33.792 89.8053 33.7173 89.9867 33.568 90.136C33.4293 90.2853 33.1733 90.36 32.8 90.36Z" fill="#121619"/>
<path opacity="0.2" d="M224.8 95.192C224.117 95.192 223.531 95.064 223.04 94.808C222.549 94.5413 222.144 94.1627 221.824 93.672C221.504 93.1813 221.269 92.5787 221.12 91.864C220.971 91.1493 220.896 90.3333 220.896 89.416C220.896 88.5093 220.971 87.6987 221.12 86.984C221.269 86.2587 221.504 85.6507 221.824 85.16C222.144 84.6693 222.549 84.296 223.04 84.04C223.531 83.7733 224.117 83.64 224.8 83.64C225.483 83.64 226.069 83.7733 226.56 84.04C227.051 84.296 227.456 84.6693 227.776 85.16C228.096 85.6507 228.331 86.2587 228.48 86.984C228.629 87.6987 228.704 88.5093 228.704 89.416C228.704 90.3333 228.629 91.1493 228.48 91.864C228.331 92.5787 228.096 93.1813 227.776 93.672C227.456 94.1627 227.051 94.5413 226.56 94.808C226.069 95.064 225.483 95.192 224.8 95.192ZM224.8 94.024C225.248 94.024 225.632 93.9387 225.952 93.768C226.272 93.5867 226.528 93.336 226.72 93.016C226.923 92.696 227.072 92.312 227.168 91.864C227.264 91.4053 227.312 90.8933 227.312 90.328V88.504C227.312 87.9493 227.264 87.4427 227.168 86.984C227.072 86.5253 226.923 86.136 226.72 85.816C226.528 85.496 226.272 85.2507 225.952 85.08C225.632 84.8987 225.248 84.808 224.8 84.808C224.352 84.808 223.968 84.8987 223.648 85.08C223.328 85.2507 223.067 85.496 222.864 85.816C222.672 86.136 222.528 86.5253 222.432 86.984C222.336 87.4427 222.288 87.9493 222.288 88.504V90.328C222.288 90.8933 222.336 91.4053 222.432 91.864C222.528 92.312 222.672 92.696 222.864 93.016C223.067 93.336 223.328 93.5867 223.648 93.768C223.968 93.9387 224.352 94.024 224.8 94.024ZM224.8 90.36C224.427 90.36 224.165 90.2853 224.016 90.136C223.877 89.9867 223.808 89.8053 223.808 89.592V89.24C223.808 89.0267 223.877 88.8453 224.016 88.696C224.165 88.5467 224.427 88.472 224.8 88.472C225.173 88.472 225.429 88.5467 225.568 88.696C225.717 88.8453 225.792 89.0267 225.792 89.24V89.592C225.792 89.8053 225.717 89.9867 225.568 90.136C225.429 90.2853 225.173 90.36 224.8 90.36Z" fill="#121619"/>
<path d="M158.8 95.192C158.117 95.192 157.531 95.064 157.04 94.808C156.549 94.5413 156.144 94.1627 155.824 93.672C155.504 93.1813 155.269 92.5787 155.12 91.864C154.971 91.1493 154.896 90.3333 154.896 89.416C154.896 88.5093 154.971 87.6987 155.12 86.984C155.269 86.2587 155.504 85.6507 155.824 85.16C156.144 84.6693 156.549 84.296 157.04 84.04C157.531 83.7733 158.117 83.64 158.8 83.64C159.483 83.64 160.069 83.7733 160.56 84.04C161.051 84.296 161.456 84.6693 161.776 85.16C162.096 85.6507 162.331 86.2587 162.48 86.984C162.629 87.6987 162.704 88.5093 162.704 89.416C162.704 90.3333 162.629 91.1493 162.48 91.864C162.331 92.5787 162.096 93.1813 161.776 93.672C161.456 94.1627 161.051 94.5413 160.56 94.808C160.069 95.064 159.483 95.192 158.8 95.192ZM158.8 94.024C159.248 94.024 159.632 93.9387 159.952 93.768C160.272 93.5867 160.528 93.336 160.72 93.016C160.923 92.696 161.072 92.312 161.168 91.864C161.264 91.4053 161.312 90.8933 161.312 90.328V88.504C161.312 87.9493 161.264 87.4427 161.168 86.984C161.072 86.5253 160.923 86.136 160.72 85.816C160.528 85.496 160.272 85.2507 159.952 85.08C159.632 84.8987 159.248 84.808 158.8 84.808C158.352 84.808 157.968 84.8987 157.648 85.08C157.328 85.2507 157.067 85.496 156.864 85.816C156.672 86.136 156.528 86.5253 156.432 86.984C156.336 87.4427 156.288 87.9493 156.288 88.504V90.328C156.288 90.8933 156.336 91.4053 156.432 91.864C156.528 92.312 156.672 92.696 156.864 93.016C157.067 93.336 157.328 93.5867 157.648 93.768C157.968 93.9387 158.352 94.024 158.8 94.024ZM158.8 90.36C158.427 90.36 158.165 90.2853 158.016 90.136C157.877 89.9867 157.808 89.8053 157.808 89.592V89.24C157.808 89.0267 157.877 88.8453 158.016 88.696C158.165 88.5467 158.427 88.472 158.8 88.472C159.173 88.472 159.429 88.5467 159.568 88.696C159.717 88.8453 159.792 89.0267 159.792 89.24V89.592C159.792 89.8053 159.717 89.9867 159.568 90.136C159.429 90.2853 159.173 90.36 158.8 90.36Z" fill="#121619"/>
<path opacity="0.2" d="M350.8 95.192C350.117 95.192 349.531 95.064 349.04 94.808C348.549 94.5413 348.144 94.1627 347.824 93.672C347.504 93.1813 347.269 92.5787 347.12 91.864C346.971 91.1493 346.896 90.3333 346.896 89.416C346.896 88.5093 346.971 87.6987 347.12 86.984C347.269 86.2587 347.504 85.6507 347.824 85.16C348.144 84.6693 348.549 84.296 349.04 84.04C349.531 83.7733 350.117 83.64 350.8 83.64C351.483 83.64 352.069 83.7733 352.56 84.04C353.051 84.296 353.456 84.6693 353.776 85.16C354.096 85.6507 354.331 86.2587 354.48 86.984C354.629 87.6987 354.704 88.5093 354.704 89.416C354.704 90.3333 354.629 91.1493 354.48 91.864C354.331 92.5787 354.096 93.1813 353.776 93.672C353.456 94.1627 353.051 94.5413 352.56 94.808C352.069 95.064 351.483 95.192 350.8 95.192ZM350.8 94.024C351.248 94.024 351.632 93.9387 351.952 93.768C352.272 93.5867 352.528 93.336 352.72 93.016C352.923 92.696 353.072 92.312 353.168 91.864C353.264 91.4053 353.312 90.8933 353.312 90.328V88.504C353.312 87.9493 353.264 87.4427 353.168 86.984C353.072 86.5253 352.923 86.136 352.72 85.816C352.528 85.496 352.272 85.2507 351.952 85.08C351.632 84.8987 351.248 84.808 350.8 84.808C350.352 84.808 349.968 84.8987 349.648 85.08C349.328 85.2507 349.067 85.496 348.864 85.816C348.672 86.136 348.528 86.5253 348.432 86.984C348.336 87.4427 348.288 87.9493 348.288 88.504V90.328C348.288 90.8933 348.336 91.4053 348.432 91.864C348.528 92.312 348.672 92.696 348.864 93.016C349.067 93.336 349.328 93.5867 349.648 93.768C349.968 93.9387 350.352 94.024 350.8 94.024ZM350.8 90.36C350.427 90.36 350.165 90.2853 350.016 90.136C349.877 89.9867 349.808 89.8053 349.808 89.592V89.24C349.808 89.0267 349.877 88.8453 350.016 88.696C350.165 88.5467 350.427 88.472 350.8 88.472C351.173 88.472 351.429 88.5467 351.568 88.696C351.717 88.8453 351.792 89.0267 351.792 89.24V89.592C351.792 89.8053 351.717 89.9867 351.568 90.136C351.429 90.2853 351.173 90.36 350.8 90.36Z" fill="#121619"/>
<path d="M146 93L150 91.5L146 90L146 93Z" fill="#121619"/>
<line x1="146" y1="91.5" x2="42" y2="91.5" stroke="#121619"/>
<g opacity="0.2">
<path d="M338 93L342 91.5L338 90L338 93Z" fill="#121619"/>
<line x1="338" y1="91.5" x2="234" y2="91.5" stroke="#121619"/>
</g>
<path d="M149 213L153 211.5L149 210L149 213Z" fill="#121619"/>
<line x1="149" y1="211.5" x2="133" y2="211.5" stroke="#121619"/>
<path d="M341 192L345 190.5L341 189L341 192Z" fill="#121619"/>
<line x1="341" y1="190.5" x2="325" y2="190.5" stroke="#121619"/>
<g opacity="0.2">
<path d="M149 192L153 190.5L149 189L149 192Z" fill="#121619"/>
<line x1="149" y1="190.5" x2="133" y2="190.5" stroke="#121619"/>
</g>
<g opacity="0.2">
<path d="M341 213L345 211.5L341 210L341 213Z" fill="#121619"/>
<line x1="341" y1="211.5" x2="325" y2="211.5" stroke="#121619"/>
</g>
<path opacity="0.2" d="M133 190.5H109.623C107.966 190.5 106.623 191.843 106.623 193.5V197.5C106.623 199.157 105.28 200.5 103.623 200.5H42" stroke="#121619"/>
<path d="M133 211.5H109.623C107.966 211.5 106.623 210.157 106.623 208.5V203.5C106.623 201.843 105.28 200.5 103.623 200.5H42" stroke="#121619"/>
<path d="M325 190.5H301.623C299.966 190.5 298.623 191.843 298.623 193.5V197.5C298.623 199.157 297.28 200.5 295.623 200.5H234" stroke="#121619"/>
<path opacity="0.2" d="M325 211.5H301.623C299.966 211.5 298.623 210.157 298.623 208.5V203.5C298.623 201.843 297.28 200.5 295.623 200.5H234" stroke="#121619"/>
<g opacity="0.2">
<path d="M146 108L150 106.5L146 105L146 108Z" fill="#121619"/>
<line x1="146" y1="106.5" x2="42" y2="106.5" stroke="#121619"/>
<circle cx="97.5" cy="107.5" r="3" fill="white" stroke="#121619"/>
</g>
<circle cx="289.5" cy="107.5" r="3" fill="white" stroke="#121619"/>
<line x1="289.5" y1="110.5" x2="289.5" y2="203.5" stroke="#121619" stroke-linecap="round" stroke-dasharray="1 2"/>
<rect x="287" y="132" width="5" height="13" fill="#BE95FF"/>
<path d="M271.996 142.184H274.084V137.624H271.876V136.808H274.084V135.536C274.084 135.12 274.192 134.78 274.408 134.516C274.632 134.252 274.98 134.12 275.452 134.12H277.528V134.936H275.044V136.808H277.528V137.624H275.044V142.184H277.252V143H271.996V142.184ZM279.475 142.184H281.635V134.936H279.475V134.12H282.595V142.184H284.755V143H279.475V142.184ZM290.015 135.44C289.735 135.44 289.539 135.384 289.427 135.272C289.315 135.152 289.259 135.004 289.259 134.828V134.636C289.259 134.46 289.315 134.316 289.427 134.204C289.539 134.084 289.735 134.024 290.015 134.024C290.295 134.024 290.491 134.084 290.603 134.204C290.715 134.316 290.771 134.46 290.771 134.636V134.828C290.771 135.004 290.715 135.152 290.603 135.272C290.491 135.384 290.295 135.44 290.015 135.44ZM287.303 142.184H289.535V137.624H287.303V136.808H290.495V142.184H292.583V143H287.303V142.184ZM294.686 136.808H295.646V137.816H295.694C296.094 137.048 296.73 136.664 297.602 136.664C298.362 136.664 298.954 136.948 299.378 137.516C299.81 138.084 300.026 138.88 300.026 139.904C300.026 140.928 299.81 141.724 299.378 142.292C298.954 142.86 298.362 143.144 297.602 143.144C296.73 143.144 296.094 142.76 295.694 141.992H295.646V145.4H294.686V136.808ZM297.23 142.292C297.79 142.292 298.222 142.124 298.526 141.788C298.838 141.444 298.994 140.992 298.994 140.432V139.376C298.994 138.816 298.838 138.368 298.526 138.032C298.222 137.688 297.79 137.516 297.23 137.516C297.014 137.516 296.81 137.544 296.618 137.6C296.426 137.656 296.258 137.74 296.114 137.852C295.97 137.956 295.854 138.088 295.766 138.248C295.686 138.4 295.646 138.58 295.646 138.788V141.02C295.646 141.228 295.686 141.412 295.766 141.572C295.854 141.724 295.97 141.856 296.114 141.968C296.258 142.072 296.426 142.152 296.618 142.208C296.81 142.264 297.014 142.292 297.23 142.292ZM304.469 140.204L304.133 137.06V134.624H305.189V137.06L304.853 140.204H304.469ZM304.661 143.108C304.333 143.108 304.101 143.04 303.965 142.904C303.837 142.768 303.773 142.596 303.773 142.388V142.172C303.773 141.964 303.837 141.792 303.965 141.656C304.101 141.52 304.333 141.452 304.661 141.452C304.989 141.452 305.217 141.52 305.345 141.656C305.481 141.792 305.549 141.964 305.549 142.172V142.388C305.549 142.596 305.481 142.768 305.345 142.904C305.217 143.04 304.989 143.108 304.661 143.108Z" fill="#121619"/>
<g opacity="0.2">
<line x1="97.5" y1="112.5" x2="97.5" y2="203.5" stroke="#121619" stroke-linecap="round" stroke-dasharray="1 2"/>
<circle cx="97.5" cy="200.5" r="3" fill="white" stroke="#121619"/>
</g>
<circle cx="289.5" cy="200.5" r="3" fill="white" stroke="#121619"/>
</svg>
