<svg width="384" height="133" viewBox="0 0 384 133" fill="none" xmlns="http://www.w3.org/2000/svg">
<rect x="0.5" y="0.5" width="383" height="132" fill="white" stroke="#DDE1E6"/>
<rect opacity="0.4" x="256" y="1" width="128" height="131" fill="#F2F4F8"/>
<rect opacity="0.4" y="1" width="128" height="131" fill="#F2F4F8"/>
<path d="M316.897 77.0069C314.412 77.0069 312.515 76.0586 311.207 74.1621C309.921 72.2656 309.278 69.2791 309.278 65.2026C309.278 61.1262 309.921 58.1397 311.207 56.2431C312.515 54.3466 314.412 53.3983 316.897 53.3983C319.382 53.3983 321.267 54.3466 322.554 56.2431C323.862 58.1397 324.516 61.1262 324.516 65.2026C324.516 69.2791 323.862 72.2656 322.554 74.1621C321.267 76.0586 319.382 77.0069 316.897 77.0069ZM316.897 75.9278C319.011 75.9278 320.592 75.1322 321.638 73.5408C322.684 71.9277 323.208 69.5625 323.208 66.4452V63.9601C323.208 60.8428 322.684 58.4884 321.638 56.8971C320.592 55.284 319.011 54.4774 316.897 54.4774C314.782 54.4774 313.202 55.284 312.155 56.8971C311.109 58.4884 310.586 60.8428 310.586 63.9601V66.4452C310.586 69.5625 311.109 71.9277 312.155 73.5408C313.202 75.1322 314.782 75.9278 316.897 75.9278ZM316.897 66.2817C316.482 66.2817 316.188 66.1945 316.014 66.0201C315.861 65.8457 315.785 65.6386 315.785 65.3988V65.0064C315.785 64.7666 315.861 64.5595 316.014 64.3851C316.188 64.2107 316.482 64.1235 316.897 64.1235C317.311 64.1235 317.594 64.2107 317.747 64.3851C317.921 64.5595 318.008 64.7666 318.008 65.0064V65.3988C318.008 65.6386 317.921 65.8457 317.747 66.0201C317.594 66.1945 317.311 66.2817 316.897 66.2817Z" fill="#121619"/>
<rect x="303.272" y="51.5452" width="1.08996" height="29.429" fill="#121619"/>
<rect x="327.251" y="51.5745" width="1.08996" height="17.7737" transform="rotate(-31.8027 327.251 51.5745)" fill="#121619"/>
<rect width="1.08996" height="17.7737" transform="matrix(0.849868 0.526996 0.526996 -0.849868 327.251 80.8198)" fill="#121619"/>
<path d="M60.0687 74.5866V67.1312H52.8423V66.1176H60.0687V58.6622H61.1805V66.1176H68.4069V67.1312H61.1805V74.5866H60.0687Z" fill="#121619"/>
<rect x="47" y="51.5449" width="1.08996" height="29.429" fill="#121619"/>
<rect x="70.9792" y="51.5745" width="1.08996" height="17.7737" transform="rotate(-31.8027 70.9792 51.5745)" fill="#121619"/>
<rect width="1.08996" height="17.7737" transform="matrix(0.849868 0.526996 0.526996 -0.849868 70.9792 80.8198)" fill="#121619"/>
<path d="M179.069 74.5869V67.1316H171.842V66.1179H179.069V58.6626H180.18V66.1179H187.407V67.1316H180.18V74.5869H179.069Z" fill="#121619"/>
<path d="M199.231 77.0067C196.746 77.0067 194.85 76.0584 193.542 74.1619C192.255 72.2653 191.612 69.2788 191.612 65.2024C191.612 61.1259 192.255 58.1394 193.542 56.2429C194.85 54.3463 196.746 53.3981 199.231 53.3981C201.716 53.3981 203.602 54.3463 204.888 56.2429C206.196 58.1394 206.85 61.1259 206.85 65.2024C206.85 69.2788 206.196 72.2653 204.888 74.1619C203.602 76.0584 201.716 77.0067 199.231 77.0067ZM199.231 75.9276C201.346 75.9276 202.926 75.1319 203.973 73.5406C205.019 71.9274 205.542 69.5622 205.542 66.4449V63.9598C205.542 60.8425 205.019 58.4882 203.973 56.8969C202.926 55.2837 201.346 54.4771 199.231 54.4771C197.117 54.4771 195.536 55.2837 194.49 56.8969C193.443 58.4882 192.92 60.8425 192.92 63.9598V66.4449C192.92 69.5622 193.443 71.9274 194.49 73.5406C195.536 75.1319 197.117 75.9276 199.231 75.9276ZM199.231 66.2814C198.817 66.2814 198.523 66.1942 198.348 66.0198C198.196 65.8454 198.119 65.6384 198.119 65.3986V65.0062C198.119 64.7664 198.196 64.5593 198.348 64.3849C198.523 64.2105 198.817 64.1233 199.231 64.1233C199.645 64.1233 199.929 64.2105 200.081 64.3849C200.256 64.5593 200.343 64.7664 200.343 65.0062V65.3986C200.343 65.6384 200.256 65.8454 200.081 66.0198C199.929 66.1942 199.645 66.2814 199.231 66.2814Z" fill="#121619"/>
<rect x="166" y="51.5449" width="1.08996" height="29.429" fill="#121619"/>
<rect x="208.509" y="51.5745" width="1.08996" height="17.7737" transform="rotate(-31.8027 208.509 51.5745)" fill="#121619"/>
<rect width="1.08996" height="17.7737" transform="matrix(0.849868 0.526996 0.526996 -0.849868 208.509 80.8198)" fill="#121619"/>
<line x1="128.5" x2="128.5" y2="133" stroke="#DDE1E6"/>
<line x1="256.5" x2="256.5" y2="133" stroke="#DDE1E6"/>
<path d="M147.5 68.5L151.5 67L147.5 65.5L147.5 68.5Z" fill="#121619"/>
<line x1="147.5" y1="67" x2="104.5" y2="67" stroke="#121619"/>
<path d="M236.5 64.5L232.5 66L236.5 67.5L236.5 64.5Z" fill="#121619"/>
<line x1="236.5" y1="66" x2="279.5" y2="66" stroke="#121619"/>
</svg>
