<svg width="623" height="104" viewBox="0 0 623 104" fill="none" xmlns="http://www.w3.org/2000/svg">
<rect y="24" width="54" height="52" fill="#343A3F"/>
<rect x="69" y="24" width="54" height="52" fill="#DDE1E6"/>
<rect x="138" y="24" width="54" height="52" fill="#DDE1E6"/>
<rect x="208" y="24" width="54" height="52" fill="#343A3F"/>
<rect x="277" y="24" width="54" height="52" fill="#DDE1E6"/>
<rect x="346" y="24" width="54" height="52" fill="#343A3F"/>
<path d="M26.6 67.504C19.992 67.504 16.688 62.45 16.688 52.342C16.688 42.234 19.992 37.18 26.6 37.18C33.208 37.18 36.512 42.234 36.512 52.342C36.512 62.45 33.208 67.504 26.6 67.504ZM26.6 65.32C29.064 65.32 30.884 64.34 32.06 62.38C33.264 60.42 33.866 57.732 33.866 54.316V50.368C33.866 46.952 33.264 44.264 32.06 42.304C30.884 40.344 29.064 39.364 26.6 39.364C24.108 39.364 22.274 40.344 21.098 42.304C19.922 44.264 19.334 46.952 19.334 50.368V54.316C19.334 57.732 19.922 60.42 21.098 62.38C22.274 64.34 24.108 65.32 26.6 65.32Z" fill="white"/>
<path d="M87.78 67V64.774H96.348V39.532H96.138L88.074 46.714L86.646 45.118L95.004 37.684H98.868V64.774H106.932V67H87.78Z" fill="#121619"/>
<path d="M156.78 65V62.774H165.348V37.532H165.138L157.074 44.714L155.646 43.118L164.004 35.684H167.868V62.774H175.932V65H156.78Z" fill="#121619"/>
<path d="M235.6 65.504C228.992 65.504 225.688 60.45 225.688 50.342C225.688 40.234 228.992 35.18 235.6 35.18C242.208 35.18 245.512 40.234 245.512 50.342C245.512 60.45 242.208 65.504 235.6 65.504ZM235.6 63.32C238.064 63.32 239.884 62.34 241.06 60.38C242.264 58.42 242.866 55.732 242.866 52.316V48.368C242.866 44.952 242.264 42.264 241.06 40.304C239.884 38.344 238.064 37.364 235.6 37.364C233.108 37.364 231.274 38.344 230.098 40.304C228.922 42.264 228.334 44.952 228.334 48.368V52.316C228.334 55.732 228.922 58.42 230.098 60.38C231.274 62.34 233.108 63.32 235.6 63.32Z" fill="white"/>
<path d="M296.78 65V62.774H305.348V37.532H305.138L297.074 44.714L295.646 43.118L304.004 35.684H307.868V62.774H315.932V65H296.78Z" fill="#121619"/>
<path d="M374.6 65.504C367.992 65.504 364.688 60.45 364.688 50.342C364.688 40.234 367.992 35.18 374.6 35.18C381.208 35.18 384.512 40.234 384.512 50.342C384.512 60.45 381.208 65.504 374.6 65.504ZM374.6 63.32C377.064 63.32 378.884 62.34 380.06 60.38C381.264 58.42 381.866 55.732 381.866 52.316V48.368C381.866 44.952 381.264 42.264 380.06 40.304C378.884 38.344 377.064 37.364 374.6 37.364C372.108 37.364 370.274 38.344 369.098 40.304C367.922 42.264 367.334 44.952 367.334 48.368V52.316C367.334 55.732 367.922 58.42 369.098 60.38C370.274 62.34 372.108 63.32 374.6 63.32Z" fill="white"/>
<path d="M446.73 49.166V47.108H466.47V49.166H446.73ZM446.73 57.188V55.13H466.47V57.188H446.73ZM531.063 65H512.247V62.438L522.495 52.61C523.867 51.266 524.987 49.894 525.855 48.494C526.723 47.066 527.157 45.61 527.157 44.126V43.328C527.157 41.592 526.653 40.178 525.645 39.086C524.637 37.994 523.125 37.448 521.109 37.448C519.149 37.448 517.651 37.938 516.615 38.918C515.579 39.898 514.823 41.172 514.347 42.74L512.079 41.9C512.359 41.004 512.737 40.15 513.213 39.338C513.689 38.526 514.291 37.812 515.019 37.196C515.775 36.58 516.657 36.09 517.665 35.726C518.673 35.362 519.849 35.18 521.193 35.18C522.565 35.18 523.783 35.39 524.847 35.81C525.939 36.202 526.849 36.762 527.577 37.49C528.333 38.218 528.893 39.1 529.257 40.136C529.649 41.144 529.845 42.278 529.845 43.538C529.845 44.602 529.705 45.61 529.425 46.562C529.145 47.486 528.753 48.382 528.249 49.25C527.745 50.09 527.129 50.93 526.401 51.77C525.673 52.582 524.875 53.394 524.007 54.206L514.977 62.774H531.063V65ZM546.712 65.504C545.144 65.504 543.772 65.252 542.596 64.748C541.42 64.216 540.426 63.488 539.614 62.564C538.83 61.612 538.228 60.478 537.808 59.162C537.416 57.818 537.22 56.348 537.22 54.752C537.22 52.484 537.528 50.384 538.144 48.452C538.788 46.492 539.614 44.714 540.622 43.118C541.63 41.522 542.778 40.108 544.066 38.876C545.382 37.616 546.712 36.552 548.056 35.684H551.374C549.75 36.804 548.308 37.924 547.048 39.044C545.788 40.164 544.682 41.354 543.73 42.614C542.778 43.846 541.98 45.176 541.336 46.604C540.72 48.032 540.23 49.6 539.866 51.308L540.034 51.35C540.762 50.034 541.714 48.998 542.89 48.242C544.094 47.458 545.578 47.066 547.342 47.066C548.63 47.066 549.806 47.276 550.87 47.696C551.962 48.116 552.886 48.718 553.642 49.502C554.426 50.258 555.028 51.196 555.448 52.316C555.868 53.408 556.078 54.64 556.078 56.012C556.078 57.44 555.854 58.742 555.406 59.918C554.958 61.066 554.328 62.06 553.516 62.9C552.704 63.712 551.724 64.356 550.576 64.832C549.428 65.28 548.14 65.504 546.712 65.504ZM546.67 63.32C548.798 63.32 550.464 62.718 551.668 61.514C552.872 60.282 553.474 58.644 553.474 56.6V55.886C553.474 53.842 552.872 52.218 551.668 51.014C550.492 49.81 548.826 49.208 546.67 49.208C544.486 49.208 542.792 49.81 541.588 51.014C540.412 52.218 539.824 53.842 539.824 55.886V56.558C539.824 58.63 540.426 60.282 541.63 61.514C542.834 62.718 544.514 63.32 546.67 63.32Z" fill="black"/>
<path d="M1.056 4.624H3.9C4.62 4.624 5.184 4.82 5.592 5.212C6 5.604 6.204 6.128 6.204 6.784C6.204 7.288 6.08 7.684 5.832 7.972C5.592 8.26 5.28 8.464 4.896 8.584V8.62C5.368 8.732 5.756 8.944 6.06 9.256C6.364 9.56 6.516 10.004 6.516 10.588C6.516 10.924 6.46 11.24 6.348 11.536C6.236 11.832 6.076 12.088 5.868 12.304C5.668 12.52 5.428 12.692 5.148 12.82C4.876 12.94 4.58 13 4.26 13H1.056V4.624ZM3.96 12.124C4.424 12.124 4.788 12.02 5.052 11.812C5.316 11.604 5.448 11.284 5.448 10.852V10.36C5.448 9.936 5.316 9.62 5.052 9.412C4.788 9.196 4.424 9.088 3.96 9.088H2.064V12.124H3.96ZM3.792 8.26C4.216 8.26 4.548 8.168 4.788 7.984C5.028 7.792 5.148 7.504 5.148 7.12V6.652C5.148 6.268 5.028 5.98 4.788 5.788C4.548 5.596 4.216 5.5 3.792 5.5H2.064V8.26H3.792ZM11.4993 5.44C11.2193 5.44 11.0233 5.384 10.9113 5.272C10.7993 5.152 10.7433 5.004 10.7433 4.828V4.636C10.7433 4.46 10.7993 4.316 10.9113 4.204C11.0233 4.084 11.2193 4.024 11.4993 4.024C11.7793 4.024 11.9753 4.084 12.0873 4.204C12.1993 4.316 12.2553 4.46 12.2553 4.636V4.828C12.2553 5.004 12.1993 5.152 12.0873 5.272C11.9753 5.384 11.7793 5.44 11.4993 5.44ZM8.78731 12.184H11.0193V7.624H8.78731V6.808H11.9793V12.184H14.0673V13H8.78731V12.184ZM16.2066 13V6.808H17.1666V7.816H17.2146C17.2786 7.664 17.3586 7.52 17.4546 7.384C17.5506 7.24 17.6666 7.116 17.8026 7.012C17.9466 6.908 18.1146 6.824 18.3066 6.76C18.4986 6.696 18.7226 6.664 18.9786 6.664C19.6266 6.664 20.1466 6.872 20.5386 7.288C20.9306 7.696 21.1266 8.276 21.1266 9.028V13H20.1666V9.196C20.1666 8.628 20.0426 8.208 19.7946 7.936C19.5466 7.656 19.1826 7.516 18.7026 7.516C18.5106 7.516 18.3226 7.54 18.1386 7.588C17.9546 7.636 17.7906 7.708 17.6466 7.804C17.5026 7.9 17.3866 8.024 17.2986 8.176C17.2106 8.328 17.1666 8.504 17.1666 8.704V13H16.2066ZM28.4859 13C28.1099 13 27.8419 12.904 27.6819 12.712C27.5219 12.52 27.4219 12.28 27.3819 11.992H27.3219C27.1859 12.352 26.9659 12.636 26.6619 12.844C26.3659 13.044 25.9659 13.144 25.4619 13.144C24.8139 13.144 24.2979 12.976 23.9139 12.64C23.5299 12.304 23.3379 11.844 23.3379 11.26C23.3379 10.684 23.5459 10.24 23.9619 9.928C24.3859 9.616 25.0659 9.46 26.0019 9.46H27.3219V8.848C27.3219 8.392 27.1939 8.052 26.9379 7.828C26.6819 7.596 26.3179 7.48 25.8459 7.48C25.4299 7.48 25.0899 7.564 24.8259 7.732C24.5619 7.892 24.3499 8.112 24.1899 8.392L23.5419 7.912C23.6219 7.752 23.7299 7.596 23.8659 7.444C24.0019 7.292 24.1699 7.16 24.3699 7.048C24.5699 6.928 24.7979 6.836 25.0539 6.772C25.3099 6.7 25.5939 6.664 25.9059 6.664C26.6339 6.664 27.2099 6.848 27.6339 7.216C28.0659 7.584 28.2819 8.096 28.2819 8.752V12.16H29.1459V13H28.4859ZM25.6299 12.34C25.8779 12.34 26.1019 12.312 26.3019 12.256C26.5099 12.192 26.6899 12.112 26.8419 12.016C26.9939 11.912 27.1099 11.792 27.1899 11.656C27.2779 11.512 27.3219 11.36 27.3219 11.2V10.18H26.0019C25.4259 10.18 25.0059 10.26 24.7419 10.42C24.4779 10.58 24.3459 10.812 24.3459 11.116V11.368C24.3459 11.688 24.4579 11.932 24.6819 12.1C24.9139 12.26 25.2299 12.34 25.6299 12.34ZM30.9853 12.184H32.7973V7.624H30.9853V6.808H33.7573V8.368H33.8173C33.9453 7.88 34.1853 7.5 34.5373 7.228C34.8973 6.948 35.3533 6.808 35.9053 6.808H36.7693V7.768H35.6053C35.0533 7.768 34.6053 7.928 34.2613 8.248C33.9253 8.568 33.7573 8.988 33.7573 9.508V12.184H36.1573V13H30.9853V12.184ZM43.1806 6.808H44.1406L41.0686 14.356C40.9966 14.532 40.9166 14.684 40.8286 14.812C40.7406 14.948 40.6366 15.056 40.5166 15.136C40.3966 15.224 40.2526 15.288 40.0846 15.328C39.9166 15.376 39.7166 15.4 39.4846 15.4H38.5726V14.584H40.0126L40.7086 12.88L38.2126 6.808H39.1966L40.2406 9.4L41.1646 11.752H41.2126L42.1366 9.4L43.1806 6.808Z" fill="black"/>
<path opacity="0.2" d="M370.02 101V100.124H372.42V93.368H372.336L370.224 95.336L369.636 94.7L371.856 92.624H373.428V100.124H375.636V101H370.02Z" fill="black"/>
<path d="M306.444 101H300.852V99.968L303.648 97.448C304.056 97.08 304.392 96.704 304.656 96.32C304.92 95.928 305.052 95.516 305.052 95.084V94.94C305.052 94.436 304.92 94.048 304.656 93.776C304.392 93.496 304 93.356 303.48 93.356C302.968 93.356 302.572 93.488 302.292 93.752C302.02 94.008 301.816 94.352 301.68 94.784L300.78 94.448C300.86 94.2 300.968 93.96 301.104 93.728C301.248 93.488 301.428 93.276 301.644 93.092C301.86 92.908 302.12 92.76 302.424 92.648C302.736 92.536 303.096 92.48 303.504 92.48C303.92 92.48 304.288 92.54 304.608 92.66C304.936 92.78 305.208 92.948 305.424 93.164C305.648 93.38 305.816 93.636 305.928 93.932C306.048 94.228 306.108 94.552 306.108 94.904C306.108 95.224 306.06 95.524 305.964 95.804C305.876 96.084 305.748 96.352 305.58 96.608C305.42 96.864 305.224 97.116 304.992 97.364C304.768 97.604 304.516 97.844 304.236 98.084L301.896 100.124H306.444V101Z" fill="black"/>
<path opacity="0.2" d="M235.536 101V99.356H231.408V98.468L235.032 92.624H236.496V98.528H237.744V99.356H236.496V101H235.536ZM232.308 98.528H235.536V93.404H235.488L232.308 98.528Z" fill="black"/>
<path d="M163.6 101.144C163.112 101.144 162.684 101.084 162.316 100.964C161.948 100.836 161.64 100.664 161.392 100.448C161.152 100.232 160.968 99.976 160.84 99.68C160.72 99.384 160.66 99.064 160.66 98.72C160.66 98.144 160.816 97.688 161.128 97.352C161.44 97.016 161.852 96.78 162.364 96.644V96.548C161.916 96.396 161.56 96.152 161.296 95.816C161.04 95.472 160.912 95.06 160.912 94.58C160.912 93.94 161.148 93.432 161.62 93.056C162.092 92.672 162.752 92.48 163.6 92.48C164.448 92.48 165.108 92.672 165.58 93.056C166.052 93.432 166.288 93.94 166.288 94.58C166.288 95.06 166.156 95.472 165.892 95.816C165.636 96.152 165.284 96.396 164.836 96.548V96.644C165.348 96.78 165.76 97.016 166.072 97.352C166.384 97.688 166.54 98.144 166.54 98.72C166.54 99.064 166.476 99.384 166.348 99.68C166.228 99.976 166.044 100.232 165.796 100.448C165.548 100.664 165.24 100.836 164.872 100.964C164.512 101.084 164.088 101.144 163.6 101.144ZM163.6 100.292C164.192 100.292 164.656 100.16 164.992 99.896C165.328 99.632 165.496 99.26 165.496 98.78V98.516C165.496 98.036 165.328 97.664 164.992 97.4C164.664 97.136 164.2 97.004 163.6 97.004C163 97.004 162.532 97.136 162.196 97.4C161.868 97.664 161.704 98.036 161.704 98.516V98.78C161.704 99.26 161.872 99.632 162.208 99.896C162.544 100.16 163.008 100.292 163.6 100.292ZM163.6 96.188C164.144 96.188 164.556 96.072 164.836 95.84C165.124 95.608 165.268 95.276 165.268 94.844V94.676C165.268 94.244 165.12 93.912 164.824 93.68C164.536 93.448 164.128 93.332 163.6 93.332C163.072 93.332 162.66 93.448 162.364 93.68C162.076 93.912 161.932 94.244 161.932 94.676V94.844C161.932 95.276 162.072 95.608 162.352 95.84C162.64 96.072 163.056 96.188 163.6 96.188Z" fill="black"/>
<path d="M89.02 101V100.124H91.42V93.368H91.336L89.224 95.336L88.636 94.7L90.856 92.624H92.428V100.124H94.636V101H89.02ZM99.1273 101.144C98.6873 101.144 98.2913 101.072 97.9393 100.928C97.5873 100.776 97.2873 100.564 97.0393 100.292C96.7993 100.012 96.6113 99.672 96.4753 99.272C96.3473 98.872 96.2833 98.424 96.2833 97.928C96.2833 97.304 96.3753 96.72 96.5593 96.176C96.7513 95.624 96.9913 95.124 97.2793 94.676C97.5753 94.22 97.9033 93.82 98.2633 93.476C98.6233 93.124 98.9753 92.84 99.3193 92.624H100.615C100.159 92.952 99.7513 93.272 99.3913 93.584C99.0393 93.896 98.7273 94.224 98.4553 94.568C98.1833 94.904 97.9553 95.268 97.7713 95.66C97.5873 96.044 97.4353 96.48 97.3153 96.968L97.3753 96.992C97.5753 96.648 97.8393 96.364 98.1673 96.14C98.4953 95.908 98.9193 95.792 99.4393 95.792C99.8073 95.792 100.143 95.852 100.447 95.972C100.751 96.092 101.015 96.264 101.239 96.488C101.463 96.712 101.635 96.984 101.755 97.304C101.883 97.624 101.947 97.98 101.947 98.372C101.947 98.78 101.879 99.156 101.743 99.5C101.607 99.836 101.415 100.128 101.167 100.376C100.927 100.616 100.631 100.804 100.279 100.94C99.9353 101.076 99.5513 101.144 99.1273 101.144ZM99.1153 100.292C99.6913 100.292 100.135 100.136 100.447 99.824C100.767 99.512 100.927 99.072 100.927 98.504V98.408C100.927 97.84 100.767 97.4 100.447 97.088C100.135 96.776 99.6913 96.62 99.1153 96.62C98.5393 96.62 98.0913 96.776 97.7713 97.088C97.4593 97.4 97.3033 97.84 97.3033 98.408V98.504C97.3033 99.072 97.4593 99.512 97.7713 99.824C98.0913 100.136 98.5393 100.292 99.1153 100.292Z" fill="black"/>
<path d="M61.144 100.256V97.748H58.744V96.932H61.144V94.424H62.056V96.932H64.456V97.748H62.056V100.256H61.144Z" fill="black"/>
<path d="M129.144 100.256V97.748H126.744V96.932H129.144V94.424H130.056V96.932H132.456V97.748H130.056V100.256H129.144Z" fill="black"/>
<path d="M199.144 100.256V97.748H196.744V96.932H199.144V94.424H200.056V96.932H202.456V97.748H200.056V100.256H199.144Z" fill="black"/>
<path d="M268.144 100.256V97.748H265.744V96.932H268.144V94.424H269.056V96.932H271.456V97.748H269.056V100.256H268.144Z" fill="black"/>
<path d="M338.144 100.256V97.748H335.744V96.932H338.144V94.424H339.056V96.932H341.456V97.748H339.056V100.256H338.144Z" fill="black"/>
<path opacity="0.2" d="M21.24 96.176C21.824 96.176 22.26 96.048 22.548 95.792C22.844 95.528 22.992 95.192 22.992 94.784V94.7C22.992 94.252 22.848 93.916 22.56 93.692C22.28 93.468 21.912 93.356 21.456 93.356C21.008 93.356 20.644 93.456 20.364 93.656C20.092 93.848 19.868 94.104 19.692 94.424L18.936 93.848C19.04 93.68 19.168 93.516 19.32 93.356C19.472 93.188 19.648 93.04 19.848 92.912C20.056 92.784 20.292 92.68 20.556 92.6C20.828 92.52 21.136 92.48 21.48 92.48C21.84 92.48 22.176 92.528 22.488 92.624C22.8 92.712 23.072 92.848 23.304 93.032C23.536 93.208 23.716 93.428 23.844 93.692C23.98 93.956 24.048 94.256 24.048 94.592C24.048 94.864 24.004 95.108 23.916 95.324C23.836 95.54 23.72 95.728 23.568 95.888C23.424 96.048 23.252 96.184 23.052 96.296C22.852 96.408 22.64 96.492 22.416 96.548V96.596C22.648 96.644 22.872 96.724 23.088 96.836C23.304 96.94 23.496 97.08 23.664 97.256C23.832 97.424 23.964 97.632 24.06 97.88C24.164 98.12 24.216 98.396 24.216 98.708C24.216 99.068 24.144 99.4 24 99.704C23.864 100 23.668 100.256 23.412 100.472C23.164 100.68 22.86 100.844 22.5 100.964C22.148 101.084 21.756 101.144 21.324 101.144C20.956 101.144 20.628 101.104 20.34 101.024C20.06 100.944 19.808 100.836 19.584 100.7C19.368 100.564 19.176 100.412 19.008 100.244C18.848 100.076 18.704 99.9 18.576 99.716L19.332 99.14C19.444 99.308 19.56 99.46 19.68 99.596C19.8 99.732 19.936 99.852 20.088 99.956C20.248 100.052 20.428 100.128 20.628 100.184C20.828 100.24 21.06 100.268 21.324 100.268C21.916 100.268 22.368 100.132 22.68 99.86C23 99.588 23.16 99.2 23.16 98.696V98.6C23.16 98.104 23.004 97.72 22.692 97.448C22.388 97.176 21.928 97.04 21.312 97.04H20.316V96.176H21.24ZM31.9593 101H26.3673V99.968L29.1633 97.448C29.5713 97.08 29.9073 96.704 30.1713 96.32C30.4353 95.928 30.5673 95.516 30.5673 95.084V94.94C30.5673 94.436 30.4353 94.048 30.1713 93.776C29.9073 93.496 29.5153 93.356 28.9953 93.356C28.4833 93.356 28.0873 93.488 27.8073 93.752C27.5353 94.008 27.3313 94.352 27.1953 94.784L26.2953 94.448C26.3753 94.2 26.4833 93.96 26.6193 93.728C26.7633 93.488 26.9433 93.276 27.1593 93.092C27.3753 92.908 27.6353 92.76 27.9393 92.648C28.2513 92.536 28.6113 92.48 29.0193 92.48C29.4353 92.48 29.8033 92.54 30.1233 92.66C30.4513 92.78 30.7233 92.948 30.9393 93.164C31.1633 93.38 31.3313 93.636 31.4433 93.932C31.5633 94.228 31.6233 94.552 31.6233 94.904C31.6233 95.224 31.5753 95.524 31.4793 95.804C31.3913 96.084 31.2633 96.352 31.0953 96.608C30.9353 96.864 30.7393 97.116 30.5073 97.364C30.2833 97.604 30.0313 97.844 29.7513 98.084L27.4113 100.124H31.9593V101Z" fill="black"/>
<path d="M508.14 4.624H510.48C511.504 4.624 512.268 4.976 512.772 5.68C513.276 6.384 513.528 7.428 513.528 8.812C513.528 10.196 513.276 11.24 512.772 11.944C512.268 12.648 511.504 13 510.48 13H508.14V4.624ZM510.432 12.124C511.104 12.124 511.608 11.892 511.944 11.428C512.288 10.964 512.46 10.308 512.46 9.46V8.164C512.46 7.316 512.288 6.66 511.944 6.196C511.608 5.732 511.104 5.5 510.432 5.5H509.148V12.124H510.432ZM518.223 13.144C517.775 13.144 517.371 13.068 517.011 12.916C516.659 12.764 516.355 12.548 516.099 12.268C515.851 11.98 515.659 11.64 515.523 11.248C515.387 10.848 515.319 10.404 515.319 9.916C515.319 9.42 515.387 8.972 515.523 8.572C515.667 8.172 515.863 7.832 516.111 7.552C516.359 7.264 516.655 7.044 516.999 6.892C517.351 6.74 517.739 6.664 518.163 6.664C518.579 6.664 518.955 6.74 519.291 6.892C519.635 7.044 519.927 7.256 520.167 7.528C520.407 7.792 520.591 8.108 520.719 8.476C520.847 8.844 520.911 9.248 520.911 9.688V10.144H516.327V10.432C516.327 10.704 516.371 10.956 516.459 11.188C516.547 11.42 516.671 11.62 516.831 11.788C516.999 11.956 517.199 12.088 517.431 12.184C517.671 12.272 517.935 12.316 518.223 12.316C518.639 12.316 518.999 12.22 519.303 12.028C519.607 11.836 519.839 11.572 519.999 11.236L520.707 11.716C520.523 12.132 520.215 12.476 519.783 12.748C519.359 13.012 518.839 13.144 518.223 13.144ZM518.163 7.456C517.899 7.456 517.655 7.504 517.431 7.6C517.207 7.696 517.011 7.828 516.843 7.996C516.683 8.164 516.555 8.364 516.459 8.596C516.371 8.82 516.327 9.068 516.327 9.34V9.424H519.879V9.292C519.879 9.02 519.835 8.772 519.747 8.548C519.667 8.324 519.551 8.132 519.399 7.972C519.255 7.804 519.075 7.676 518.859 7.588C518.651 7.5 518.419 7.456 518.163 7.456ZM525.847 13.144C525.399 13.144 524.999 13.068 524.647 12.916C524.303 12.756 524.011 12.536 523.771 12.256C523.531 11.976 523.347 11.636 523.219 11.236C523.099 10.836 523.039 10.392 523.039 9.904C523.039 9.416 523.103 8.972 523.231 8.572C523.359 8.172 523.543 7.832 523.783 7.552C524.023 7.264 524.315 7.044 524.659 6.892C525.003 6.74 525.395 6.664 525.835 6.664C526.435 6.664 526.923 6.796 527.299 7.06C527.675 7.324 527.951 7.668 528.127 8.092L527.359 8.5C527.247 8.18 527.059 7.932 526.795 7.756C526.539 7.58 526.219 7.492 525.835 7.492C525.555 7.492 525.303 7.54 525.079 7.636C524.863 7.724 524.679 7.852 524.527 8.02C524.375 8.188 524.259 8.388 524.179 8.62C524.107 8.852 524.071 9.104 524.071 9.376V10.432C524.071 10.704 524.107 10.956 524.179 11.188C524.259 11.42 524.375 11.62 524.527 11.788C524.679 11.956 524.867 12.088 525.091 12.184C525.315 12.272 525.571 12.316 525.859 12.316C526.275 12.316 526.619 12.22 526.891 12.028C527.163 11.836 527.379 11.572 527.539 11.236L528.223 11.704C528.039 12.12 527.751 12.464 527.359 12.736C526.975 13.008 526.471 13.144 525.847 13.144ZM533.53 5.44C533.25 5.44 533.054 5.384 532.942 5.272C532.83 5.152 532.774 5.004 532.774 4.828V4.636C532.774 4.46 532.83 4.316 532.942 4.204C533.054 4.084 533.25 4.024 533.53 4.024C533.81 4.024 534.006 4.084 534.118 4.204C534.23 4.316 534.286 4.46 534.286 4.636V4.828C534.286 5.004 534.23 5.152 534.118 5.272C534.006 5.384 533.81 5.44 533.53 5.44ZM530.818 12.184H533.05V7.624H530.818V6.808H534.01V12.184H536.098V13H530.818V12.184ZM537.709 13V6.808H538.597V7.528H538.645C538.741 7.288 538.877 7.084 539.053 6.916C539.229 6.748 539.489 6.664 539.833 6.664C540.193 6.664 540.461 6.756 540.637 6.94C540.813 7.116 540.921 7.348 540.961 7.636H540.997C541.109 7.356 541.269 7.124 541.477 6.94C541.685 6.756 541.973 6.664 542.341 6.664C542.845 6.664 543.181 6.84 543.349 7.192C543.525 7.544 543.613 8.048 543.613 8.704V13H542.725V8.86C542.725 8.332 542.669 7.968 542.557 7.768C542.453 7.56 542.257 7.456 541.969 7.456C541.713 7.456 541.505 7.54 541.345 7.708C541.185 7.868 541.105 8.116 541.105 8.452V13H540.217V8.86C540.217 8.332 540.161 7.968 540.049 7.768C539.945 7.56 539.753 7.456 539.473 7.456C539.217 7.456 539.005 7.54 538.837 7.708C538.677 7.868 538.597 8.116 538.597 8.452V13H537.709ZM550.517 13C550.141 13 549.873 12.904 549.713 12.712C549.553 12.52 549.453 12.28 549.413 11.992H549.353C549.217 12.352 548.997 12.636 548.693 12.844C548.397 13.044 547.997 13.144 547.493 13.144C546.845 13.144 546.329 12.976 545.945 12.64C545.561 12.304 545.369 11.844 545.369 11.26C545.369 10.684 545.577 10.24 545.993 9.928C546.417 9.616 547.097 9.46 548.033 9.46H549.353V8.848C549.353 8.392 549.225 8.052 548.969 7.828C548.713 7.596 548.349 7.48 547.877 7.48C547.461 7.48 547.121 7.564 546.857 7.732C546.593 7.892 546.381 8.112 546.221 8.392L545.573 7.912C545.653 7.752 545.761 7.596 545.897 7.444C546.033 7.292 546.201 7.16 546.401 7.048C546.601 6.928 546.829 6.836 547.085 6.772C547.341 6.7 547.625 6.664 547.937 6.664C548.665 6.664 549.241 6.848 549.665 7.216C550.097 7.584 550.313 8.096 550.313 8.752V12.16H551.177V13H550.517ZM547.661 12.34C547.909 12.34 548.133 12.312 548.333 12.256C548.541 12.192 548.721 12.112 548.873 12.016C549.025 11.912 549.141 11.792 549.221 11.656C549.309 11.512 549.353 11.36 549.353 11.2V10.18H548.033C547.457 10.18 547.037 10.26 546.773 10.42C546.509 10.58 546.377 10.812 546.377 11.116V11.368C546.377 11.688 546.489 11.932 546.713 12.1C546.945 12.26 547.261 12.34 547.661 12.34ZM553.052 12.184H555.212V4.936H553.052V4.12H556.172V12.184H558.332V13H553.052V12.184Z" fill="black"/>
</svg>
