<svg width="97" height="127" viewBox="0 0 97 127" fill="none" xmlns="http://www.w3.org/2000/svg">
<path d="M6.2 18.288C4.2 18.288 2.736 17.528 1.808 16.008C0.896 14.488 0.44 12.36 0.44 9.624C0.44 6.888 0.896 4.76 1.808 3.24C2.736 1.72 4.2 0.959999 6.2 0.959999C8.2 0.959999 9.656 1.72 10.568 3.24C11.496 4.76 11.96 6.888 11.96 9.624C11.96 12.36 11.496 14.488 10.568 16.008C9.656 17.528 8.2 18.288 6.2 18.288ZM6.2 16.536C6.856 16.536 7.416 16.4 7.88 16.128C8.344 15.856 8.72 15.472 9.008 14.976C9.296 14.48 9.504 13.896 9.632 13.224C9.776 12.552 9.848 11.808 9.848 10.992V8.256C9.848 7.44 9.776 6.696 9.632 6.024C9.504 5.352 9.296 4.768 9.008 4.272C8.72 3.776 8.344 3.392 7.88 3.12C7.416 2.848 6.856 2.712 6.2 2.712C5.544 2.712 4.984 2.848 4.52 3.12C4.056 3.392 3.68 3.776 3.392 4.272C3.104 4.768 2.888 5.352 2.744 6.024C2.616 6.696 2.552 7.44 2.552 8.256V10.992C2.552 11.808 2.616 12.552 2.744 13.224C2.888 13.896 3.104 14.48 3.392 14.976C3.68 15.472 4.056 15.856 4.52 16.128C4.984 16.4 5.544 16.536 6.2 16.536ZM19.8386 16.512V11.496H15.1586V9.864H19.8386V4.848H21.6626V9.864H26.3426V11.496H21.6626V16.512H19.8386ZM35.3012 18.288C33.3012 18.288 31.8372 17.528 30.9092 16.008C29.9972 14.488 29.5412 12.36 29.5412 9.624C29.5412 6.888 29.9972 4.76 30.9092 3.24C31.8372 1.72 33.3012 0.959999 35.3012 0.959999C37.3012 0.959999 38.7573 1.72 39.6693 3.24C40.5973 4.76 41.0613 6.888 41.0613 9.624C41.0613 12.36 40.5973 14.488 39.6693 16.008C38.7573 17.528 37.3012 18.288 35.3012 18.288ZM35.3012 16.536C35.9573 16.536 36.5173 16.4 36.9812 16.128C37.4453 15.856 37.8213 15.472 38.1093 14.976C38.3973 14.48 38.6053 13.896 38.7333 13.224C38.8773 12.552 38.9493 11.808 38.9493 10.992V8.256C38.9493 7.44 38.8773 6.696 38.7333 6.024C38.6053 5.352 38.3973 4.768 38.1093 4.272C37.8213 3.776 37.4453 3.392 36.9812 3.12C36.5173 2.848 35.9573 2.712 35.3012 2.712C34.6452 2.712 34.0852 2.848 33.6212 3.12C33.1572 3.392 32.7812 3.776 32.4933 4.272C32.2052 4.768 31.9892 5.352 31.8452 6.024C31.7172 6.696 31.6532 7.44 31.6532 8.256V10.992C31.6532 11.808 31.7172 12.552 31.8452 13.224C31.9892 13.896 32.2052 14.48 32.4933 14.976C32.7812 15.472 33.1572 15.856 33.6212 16.128C34.0852 16.4 34.6452 16.536 35.3012 16.536ZM50.0917 9.072V7.44H61.2758V9.072H50.0917ZM50.0917 13.872V12.24H61.2758V13.872H50.0917ZM76.0662 18.288C74.0662 18.288 72.6022 17.528 71.6742 16.008C70.7622 14.488 70.3062 12.36 70.3062 9.624C70.3062 6.888 70.7622 4.76 71.6742 3.24C72.6022 1.72 74.0662 0.959999 76.0662 0.959999C78.0662 0.959999 79.5222 1.72 80.4342 3.24C81.3622 4.76 81.8262 6.888 81.8262 9.624C81.8262 12.36 81.3622 14.488 80.4342 16.008C79.5222 17.528 78.0662 18.288 76.0662 18.288ZM76.0662 16.536C76.7222 16.536 77.2822 16.4 77.7462 16.128C78.2102 15.856 78.5862 15.472 78.8742 14.976C79.1622 14.48 79.3702 13.896 79.4982 13.224C79.6422 12.552 79.7142 11.808 79.7142 10.992V8.256C79.7142 7.44 79.6422 6.696 79.4982 6.024C79.3702 5.352 79.1622 4.768 78.8742 4.272C78.5862 3.776 78.2102 3.392 77.7462 3.12C77.2822 2.848 76.7222 2.712 76.0662 2.712C75.4102 2.712 74.8502 2.848 74.3862 3.12C73.9222 3.392 73.5462 3.776 73.2582 4.272C72.9702 4.768 72.7542 5.352 72.6102 6.024C72.4822 6.696 72.4182 7.44 72.4182 8.256V10.992C72.4182 11.808 72.4822 12.552 72.6102 13.224C72.7542 13.896 72.9702 14.48 73.2582 14.976C73.5462 15.472 73.9222 15.856 74.3862 16.128C74.8502 16.4 75.4102 16.536 76.0662 16.536ZM90.6169 18.288C88.6169 18.288 87.1529 17.528 86.2249 16.008C85.3129 14.488 84.8569 12.36 84.8569 9.624C84.8569 6.888 85.3129 4.76 86.2249 3.24C87.1529 1.72 88.6169 0.959999 90.6169 0.959999C92.6169 0.959999 94.0729 1.72 94.9849 3.24C95.9129 4.76 96.3769 6.888 96.3769 9.624C96.3769 12.36 95.9129 14.488 94.9849 16.008C94.0729 17.528 92.6169 18.288 90.6169 18.288ZM90.6169 16.536C91.2729 16.536 91.8329 16.4 92.2969 16.128C92.7609 15.856 93.1369 15.472 93.4249 14.976C93.7129 14.48 93.9209 13.896 94.0489 13.224C94.1929 12.552 94.2649 11.808 94.2649 10.992V8.256C94.2649 7.44 94.1929 6.696 94.0489 6.024C93.9209 5.352 93.7129 4.768 93.4249 4.272C93.1369 3.776 92.7609 3.392 92.2969 3.12C91.8329 2.848 91.2729 2.712 90.6169 2.712C89.9609 2.712 89.4009 2.848 88.9369 3.12C88.4729 3.392 88.0969 3.776 87.8089 4.272C87.5209 4.768 87.3049 5.352 87.1609 6.024C87.0329 6.696 86.9689 7.44 86.9689 8.256V10.992C86.9689 11.808 87.0329 12.552 87.1609 13.224C87.3049 13.896 87.5209 14.48 87.8089 14.976C88.0969 15.472 88.4729 15.856 88.9369 16.128C89.4009 16.4 89.9609 16.536 90.6169 16.536ZM6.2 54.288C4.2 54.288 2.736 53.528 1.808 52.008C0.896 50.488 0.44 48.36 0.44 45.624C0.44 42.888 0.896 40.76 1.808 39.24C2.736 37.72 4.2 36.96 6.2 36.96C8.2 36.96 9.656 37.72 10.568 39.24C11.496 40.76 11.96 42.888 11.96 45.624C11.96 48.36 11.496 50.488 10.568 52.008C9.656 53.528 8.2 54.288 6.2 54.288ZM6.2 52.536C6.856 52.536 7.416 52.4 7.88 52.128C8.344 51.856 8.72 51.472 9.008 50.976C9.296 50.48 9.504 49.896 9.632 49.224C9.776 48.552 9.848 47.808 9.848 46.992V44.256C9.848 43.44 9.776 42.696 9.632 42.024C9.504 41.352 9.296 40.768 9.008 40.272C8.72 39.776 8.344 39.392 7.88 39.12C7.416 38.848 6.856 38.712 6.2 38.712C5.544 38.712 4.984 38.848 4.52 39.12C4.056 39.392 3.68 39.776 3.392 40.272C3.104 40.768 2.888 41.352 2.744 42.024C2.616 42.696 2.552 43.44 2.552 44.256V46.992C2.552 47.808 2.616 48.552 2.744 49.224C2.888 49.896 3.104 50.48 3.392 50.976C3.68 51.472 4.056 51.856 4.52 52.128C4.984 52.4 5.544 52.536 6.2 52.536ZM19.8386 52.512V47.496H15.1586V45.864H19.8386V40.848H21.6626V45.864H26.3426V47.496H21.6626V52.512H19.8386ZM30.2132 54V52.224H34.8933V38.736H34.7253L30.5012 42.672L29.3252 41.4L33.7653 37.248H36.9093V52.224H41.2293V54H30.2132ZM50.0917 45.072V43.44H61.2758V45.072H50.0917ZM50.0917 49.872V48.24H61.2758V49.872H50.0917ZM76.0662 54.288C74.0662 54.288 72.6022 53.528 71.6742 52.008C70.7622 50.488 70.3062 48.36 70.3062 45.624C70.3062 42.888 70.7622 40.76 71.6742 39.24C72.6022 37.72 74.0662 36.96 76.0662 36.96C78.0662 36.96 79.5222 37.72 80.4342 39.24C81.3622 40.76 81.8262 42.888 81.8262 45.624C81.8262 48.36 81.3622 50.488 80.4342 52.008C79.5222 53.528 78.0662 54.288 76.0662 54.288ZM76.0662 52.536C76.7222 52.536 77.2822 52.4 77.7462 52.128C78.2102 51.856 78.5862 51.472 78.8742 50.976C79.1622 50.48 79.3702 49.896 79.4982 49.224C79.6422 48.552 79.7142 47.808 79.7142 46.992V44.256C79.7142 43.44 79.6422 42.696 79.4982 42.024C79.3702 41.352 79.1622 40.768 78.8742 40.272C78.5862 39.776 78.2102 39.392 77.7462 39.12C77.2822 38.848 76.7222 38.712 76.0662 38.712C75.4102 38.712 74.8502 38.848 74.3862 39.12C73.9222 39.392 73.5462 39.776 73.2582 40.272C72.9702 40.768 72.7542 41.352 72.6102 42.024C72.4822 42.696 72.4182 43.44 72.4182 44.256V46.992C72.4182 47.808 72.4822 48.552 72.6102 49.224C72.7542 49.896 72.9702 50.48 73.2582 50.976C73.5462 51.472 73.9222 51.856 74.3862 52.128C74.8502 52.4 75.4102 52.536 76.0662 52.536ZM85.5289 54V52.224H90.2089V38.736H90.0409L85.8169 42.672L84.6409 41.4L89.0809 37.248H92.2249V52.224H96.5449V54H85.5289ZM1.112 90V88.224H5.792V74.736H5.624L1.4 78.672L0.224 77.4L4.664 73.248H7.808V88.224H12.128V90H1.112ZM19.8386 88.512V83.496H15.1586V81.864H19.8386V76.848H21.6626V81.864H26.3426V83.496H21.6626V88.512H19.8386ZM35.3012 90.288C33.3012 90.288 31.8372 89.528 30.9092 88.008C29.9972 86.488 29.5412 84.36 29.5412 81.624C29.5412 78.888 29.9972 76.76 30.9092 75.24C31.8372 73.72 33.3012 72.96 35.3012 72.96C37.3012 72.96 38.7573 73.72 39.6693 75.24C40.5973 76.76 41.0613 78.888 41.0613 81.624C41.0613 84.36 40.5973 86.488 39.6693 88.008C38.7573 89.528 37.3012 90.288 35.3012 90.288ZM35.3012 88.536C35.9573 88.536 36.5173 88.4 36.9812 88.128C37.4453 87.856 37.8213 87.472 38.1093 86.976C38.3973 86.48 38.6053 85.896 38.7333 85.224C38.8773 84.552 38.9493 83.808 38.9493 82.992V80.256C38.9493 79.44 38.8773 78.696 38.7333 78.024C38.6053 77.352 38.3973 76.768 38.1093 76.272C37.8213 75.776 37.4453 75.392 36.9812 75.12C36.5173 74.848 35.9573 74.712 35.3012 74.712C34.6452 74.712 34.0852 74.848 33.6212 75.12C33.1572 75.392 32.7812 75.776 32.4933 76.272C32.2052 76.768 31.9892 77.352 31.8452 78.024C31.7172 78.696 31.6532 79.44 31.6532 80.256V82.992C31.6532 83.808 31.7172 84.552 31.8452 85.224C31.9892 85.896 32.2052 86.48 32.4933 86.976C32.7812 87.472 33.1572 87.856 33.6212 88.128C34.0852 88.4 34.6452 88.536 35.3012 88.536ZM50.0917 81.072V79.44H61.2758V81.072H50.0917ZM50.0917 85.872V84.24H61.2758V85.872H50.0917ZM76.0662 90.288C74.0662 90.288 72.6022 89.528 71.6742 88.008C70.7622 86.488 70.3062 84.36 70.3062 81.624C70.3062 78.888 70.7622 76.76 71.6742 75.24C72.6022 73.72 74.0662 72.96 76.0662 72.96C78.0662 72.96 79.5222 73.72 80.4342 75.24C81.3622 76.76 81.8262 78.888 81.8262 81.624C81.8262 84.36 81.3622 86.488 80.4342 88.008C79.5222 89.528 78.0662 90.288 76.0662 90.288ZM76.0662 88.536C76.7222 88.536 77.2822 88.4 77.7462 88.128C78.2102 87.856 78.5862 87.472 78.8742 86.976C79.1622 86.48 79.3702 85.896 79.4982 85.224C79.6422 84.552 79.7142 83.808 79.7142 82.992V80.256C79.7142 79.44 79.6422 78.696 79.4982 78.024C79.3702 77.352 79.1622 76.768 78.8742 76.272C78.5862 75.776 78.2102 75.392 77.7462 75.12C77.2822 74.848 76.7222 74.712 76.0662 74.712C75.4102 74.712 74.8502 74.848 74.3862 75.12C73.9222 75.392 73.5462 75.776 73.2582 76.272C72.9702 76.768 72.7542 77.352 72.6102 78.024C72.4822 78.696 72.4182 79.44 72.4182 80.256V82.992C72.4182 83.808 72.4822 84.552 72.6102 85.224C72.7542 85.896 72.9702 86.48 73.2582 86.976C73.5462 87.472 73.9222 87.856 74.3862 88.128C74.8502 88.4 75.4102 88.536 76.0662 88.536ZM85.5289 90V88.224H90.2089V74.736H90.0409L85.8169 78.672L84.6409 77.4L89.0809 73.248H92.2249V88.224H96.5449V90H85.5289ZM1.112 126V124.224H5.792V110.736H5.624L1.4 114.672L0.224 113.4L4.664 109.248H7.808V124.224H12.128V126H1.112ZM19.8386 124.512V119.496H15.1586V117.864H19.8386V112.848H21.6626V117.864H26.3426V119.496H21.6626V124.512H19.8386ZM30.2132 126V124.224H34.8933V110.736H34.7253L30.5012 114.672L29.3252 113.4L33.7653 109.248H36.9093V124.224H41.2293V126H30.2132ZM50.0917 117.072V115.44H61.2758V117.072H50.0917ZM50.0917 121.872V120.24H61.2758V121.872H50.0917ZM70.9782 126V124.224H75.6582V110.736H75.4902L71.2662 114.672L70.0902 113.4L74.5302 109.248H77.6742V124.224H81.9943V126H70.9782ZM90.6169 126.288C88.6169 126.288 87.1529 125.528 86.2249 124.008C85.3129 122.488 84.8569 120.36 84.8569 117.624C84.8569 114.888 85.3129 112.76 86.2249 111.24C87.1529 109.72 88.6169 108.96 90.6169 108.96C92.6169 108.96 94.0729 109.72 94.9849 111.24C95.9129 112.76 96.3769 114.888 96.3769 117.624C96.3769 120.36 95.9129 122.488 94.9849 124.008C94.0729 125.528 92.6169 126.288 90.6169 126.288ZM90.6169 124.536C91.2729 124.536 91.8329 124.4 92.2969 124.128C92.7609 123.856 93.1369 123.472 93.4249 122.976C93.7129 122.48 93.9209 121.896 94.0489 121.224C94.1929 120.552 94.2649 119.808 94.2649 118.992V116.256C94.2649 115.44 94.1929 114.696 94.0489 114.024C93.9209 113.352 93.7129 112.768 93.4249 112.272C93.1369 111.776 92.7609 111.392 92.2969 111.12C91.8329 110.848 91.2729 110.712 90.6169 110.712C89.9609 110.712 89.4009 110.848 88.9369 111.12C88.4729 111.392 88.0969 111.776 87.8089 112.272C87.5209 112.768 87.3049 113.352 87.1609 114.024C87.0329 114.696 86.9689 115.44 86.9689 116.256V118.992C86.9689 119.808 87.0329 120.552 87.1609 121.224C87.3049 121.896 87.5209 122.48 87.8089 122.976C88.0969 123.472 88.4729 123.856 88.9369 124.128C89.4009 124.4 89.9609 124.536 90.6169 124.536Z" fill="black"/>
</svg>
