<?xml version="1.0" encoding="utf-8" standalone="no"?>
<!DOCTYPE svg PUBLIC "-//W3C//DTD SVG 1.1//EN"
  "http://www.w3.org/Graphics/SVG/1.1/DTD/svg11.dtd">
<!-- Created with matplotlib (https://matplotlib.org/) -->
<svg height="168.9334pt" version="1.1" viewBox="0 0 504.36178 168.9334" width="504.36178pt" xmlns="http://www.w3.org/2000/svg" xmlns:xlink="http://www.w3.org/1999/xlink">
 <defs>
  <style type="text/css">
*{stroke-linecap:butt;stroke-linejoin:round;}
  </style>
 </defs>
 <g id="figure_1">
  <g id="patch_1">
   <path d="M -0 168.9334 
L 504.36178 168.9334 
L 504.36178 0 
L -0 0 
z
" style="fill:#ffffff;"/>
  </g>
  <g id="axes_1">
   <g id="patch_2">
    <path clip-path="url(#p4261b92b36)" d="M 395.80605 124.122697 
L 407.62331 124.122697 
L 401.71468 134.4628 
z
" style="fill:#778899;"/>
   </g>
   <g id="patch_3">
    <path clip-path="url(#p4261b92b36)" d="M 441.25705 124.122697 
L 453.07431 124.122697 
L 447.16568 134.4628 
z
" style="fill:#778899;"/>
   </g>
   <g id="line2d_1">
    <path clip-path="url(#p4261b92b36)" d="M 106.28318 43.5608 
L 492.61668 43.5608 
" style="fill:none;stroke:#000000;stroke-linecap:square;stroke-width:2;"/>
   </g>
   <g id="line2d_2">
    <path clip-path="url(#p4261b92b36)" d="M 106.28318 89.0118 
L 492.61668 89.0118 
" style="fill:none;stroke:#000000;stroke-linecap:square;stroke-width:2;"/>
   </g>
   <g id="line2d_3">
    <path clip-path="url(#p4261b92b36)" d="M 106.28318 132.985642 
L 492.61668 132.985642 
" style="fill:none;stroke:#778899;stroke-linecap:square;stroke-width:2;"/>
   </g>
   <g id="line2d_4">
    <path clip-path="url(#p4261b92b36)" d="M 106.28318 135.939957 
L 492.61668 135.939957 
" style="fill:none;stroke:#778899;stroke-linecap:square;stroke-width:2;"/>
   </g>
   <g id="patch_4">
    <path clip-path="url(#p4261b92b36)" d="M 165.596735 111.7373 
L 183.322625 111.7373 
L 183.322625 20.8353 
L 165.596735 20.8353 
z
" style="fill:#bdbdbd;opacity:0.6;"/>
   </g>
   <g id="patch_5">
    <path clip-path="url(#p4261b92b36)" d="M 256.498735 111.7373 
L 274.224625 111.7373 
L 274.224625 20.8353 
L 256.498735 20.8353 
z
" style="fill:#bdbdbd;opacity:0.6;"/>
   </g>
   <g id="patch_6">
    <path clip-path="url(#p4261b92b36)" d="M 347.400735 111.7373 
L 365.126625 111.7373 
L 365.126625 20.8353 
L 347.400735 20.8353 
z
" style="fill:#bdbdbd;opacity:0.6;"/>
   </g>
   <g id="line2d_5">
    <path clip-path="url(#p4261b92b36)" d="M 403.191837 43.5608 
L 403.191837 124.122697 
" style="fill:none;stroke:#778899;stroke-linecap:square;stroke-width:2;"/>
   </g>
   <g id="line2d_6">
    <path clip-path="url(#p4261b92b36)" d="M 400.237522 43.5608 
L 400.237522 124.122697 
" style="fill:none;stroke:#778899;stroke-linecap:square;stroke-width:2;"/>
   </g>
   <g id="line2d_7">
    <path clip-path="url(#p4261b92b36)" d="M 448.642837 89.0118 
L 448.642837 124.122697 
" style="fill:none;stroke:#778899;stroke-linecap:square;stroke-width:2;"/>
   </g>
   <g id="line2d_8">
    <path clip-path="url(#p4261b92b36)" d="M 445.688522 89.0118 
L 445.688522 124.122697 
" style="fill:none;stroke:#778899;stroke-linecap:square;stroke-width:2;"/>
   </g>
   <g id="line2d_9">
    <path clip-path="url(#p4261b92b36)" d="M 133.55378 139.0079 
L 138.09888 129.9177 
" style="fill:none;stroke:#778899;stroke-linecap:square;stroke-width:1.5;"/>
   </g>
   <g id="patch_7">
    <path clip-path="url(#p4261b92b36)" d="M 114.237105 58.332375 
L 143.780255 58.332375 
L 143.780255 28.789225 
L 114.237105 28.789225 
z
" style="fill:#6fa4ff;"/>
   </g>
   <g id="patch_8">
    <path clip-path="url(#p4261b92b36)" d="M 114.237105 103.783375 
L 143.780255 103.783375 
L 143.780255 74.240225 
L 114.237105 74.240225 
z
" style="fill:#6fa4ff;"/>
   </g>
   <g id="patch_9">
    <path clip-path="url(#p4261b92b36)" d="M 205.139105 58.332375 
L 234.682255 58.332375 
L 234.682255 28.789225 
L 205.139105 28.789225 
z
" style="fill:#05bab6;"/>
   </g>
   <g id="patch_10">
    <path clip-path="url(#p4261b92b36)" d="M 205.139105 103.783375 
L 234.682255 103.783375 
L 234.682255 74.240225 
L 205.139105 74.240225 
z
" style="fill:#05bab6;"/>
   </g>
   <g id="patch_11">
    <path clip-path="url(#p4261b92b36)" d="M 296.041105 58.332375 
L 325.584255 58.332375 
L 325.584255 28.789225 
L 296.041105 28.789225 
z
" style="fill:#6fa4ff;"/>
   </g>
   <g id="patch_12">
    <path clip-path="url(#p4261b92b36)" d="M 296.041105 103.783375 
L 325.584255 103.783375 
L 325.584255 74.240225 
L 296.041105 74.240225 
z
" style="fill:#6fa4ff;"/>
   </g>
   <g id="patch_13">
    <path clip-path="url(#p4261b92b36)" d="M 386.943105 58.332375 
L 416.486255 58.332375 
L 416.486255 28.789225 
L 386.943105 28.789225 
z
"/>
   </g>
   <g id="patch_14">
    <path clip-path="url(#p4261b92b36)" d="M 412.054782 47.992273 
C 412.054782 45.250959 410.964638 42.619118 409.026237 40.680716 
C 407.087835 38.742314 404.455994 37.65217 401.71468 37.65217 
C 398.973366 37.65217 396.341525 38.742314 394.403123 40.680716 
C 392.464722 42.619118 391.374577 45.250959 391.374577 47.992273 
" style="fill:none;stroke:#ffffff;stroke-linejoin:miter;stroke-width:2;"/>
   </g>
   <g id="patch_15">
    <path clip-path="url(#p4261b92b36)" d="M 432.394105 103.783375 
L 461.937255 103.783375 
L 461.937255 74.240225 
L 432.394105 74.240225 
z
"/>
   </g>
   <g id="patch_16">
    <path clip-path="url(#p4261b92b36)" d="M 457.505782 93.443273 
C 457.505782 90.701959 456.415638 88.070118 454.477237 86.131716 
C 452.538835 84.193314 449.906994 83.10317 447.16568 83.10317 
C 444.424366 83.10317 441.792525 84.193314 439.854123 86.131716 
C 437.915722 88.070118 436.825577 90.701959 436.825577 93.443273 
" style="fill:none;stroke:#ffffff;stroke-linejoin:miter;stroke-width:2;"/>
   </g>
   <g id="line2d_10">
    <path clip-path="url(#p4261b92b36)" d="M 401.71468 47.992273 
L 412.054782 37.65217 
" style="fill:none;stroke:#ffffff;stroke-linecap:square;stroke-width:2;"/>
   </g>
   <g id="line2d_11">
    <path clip-path="url(#p4261b92b36)" d="M 447.16568 93.443273 
L 457.505782 83.10317 
" style="fill:none;stroke:#ffffff;stroke-linecap:square;stroke-width:2;"/>
   </g>
   <g id="line2d_12">
    <path clip-path="url(#p4261b92b36)" d="M 174.45968 20.8353 
L 174.45968 66.2863 
" style="fill:none;stroke:#000000;stroke-dasharray:3.7,1.6;stroke-dashoffset:0;"/>
   </g>
   <g id="line2d_13">
    <path clip-path="url(#p4261b92b36)" d="M 174.45968 66.2863 
L 174.45968 111.7373 
" style="fill:none;stroke:#000000;stroke-dasharray:3.7,1.6;stroke-dashoffset:0;"/>
   </g>
   <g id="line2d_14">
    <path clip-path="url(#p4261b92b36)" d="M 265.36168 20.8353 
L 265.36168 66.2863 
" style="fill:none;stroke:#000000;stroke-dasharray:3.7,1.6;stroke-dashoffset:0;"/>
   </g>
   <g id="line2d_15">
    <path clip-path="url(#p4261b92b36)" d="M 265.36168 66.2863 
L 265.36168 111.7373 
" style="fill:none;stroke:#000000;stroke-dasharray:3.7,1.6;stroke-dashoffset:0;"/>
   </g>
   <g id="line2d_16">
    <path clip-path="url(#p4261b92b36)" d="M 356.26368 20.8353 
L 356.26368 66.2863 
" style="fill:none;stroke:#000000;stroke-dasharray:3.7,1.6;stroke-dashoffset:0;"/>
   </g>
   <g id="line2d_17">
    <path clip-path="url(#p4261b92b36)" d="M 356.26368 66.2863 
L 356.26368 111.7373 
" style="fill:none;stroke:#000000;stroke-dasharray:3.7,1.6;stroke-dashoffset:0;"/>
   </g>
   <g id="text_1">
    <g clip-path="url(#p4261b92b36)">
     <!-- $H$ -->
     <defs>
      <path d="M 16.890625 72.90625 
L 26.8125 72.90625 
L 21 43.015625 
L 56.78125 43.015625 
L 62.59375 72.90625 
L 72.515625 72.90625 
L 58.296875 0 
L 48.390625 0 
L 55.171875 34.71875 
L 19.390625 34.71875 
L 12.59375 0 
L 2.6875 0 
z
" id="DejaVuSans-Oblique-72"/>
     </defs>
     <g transform="translate(124.06868 47.147988)scale(0.13 -0.13)">
      <use transform="translate(0 0.09375)" xlink:href="#DejaVuSans-Oblique-72"/>
     </g>
    </g>
   </g>
   <g id="text_2">
    <g clip-path="url(#p4261b92b36)">
     <!-- $H$ -->
     <g transform="translate(124.06868 92.598988)scale(0.13 -0.13)">
      <use transform="translate(0 0.09375)" xlink:href="#DejaVuSans-Oblique-72"/>
     </g>
    </g>
   </g>
   <g id="text_3">
    <g clip-path="url(#p4261b92b36)">
     <!-- $Z$ -->
     <defs>
      <path d="M 13.09375 72.90625 
L 70.3125 72.90625 
L 68.890625 65.375 
L 12.40625 8.296875 
L 58.890625 8.296875 
L 57.328125 0 
L -2.203125 0 
L -0.78125 7.515625 
L 55.71875 64.59375 
L 11.53125 64.59375 
z
" id="DejaVuSans-Oblique-90"/>
     </defs>
     <g transform="translate(215.42568 47.147988)scale(0.13 -0.13)">
      <use transform="translate(0 0.09375)" xlink:href="#DejaVuSans-Oblique-90"/>
     </g>
    </g>
   </g>
   <g id="text_4">
    <g clip-path="url(#p4261b92b36)">
     <!-- $Z$ -->
     <g transform="translate(215.42568 92.598988)scale(0.13 -0.13)">
      <use transform="translate(0 0.09375)" xlink:href="#DejaVuSans-Oblique-90"/>
     </g>
    </g>
   </g>
   <g id="text_5">
    <g clip-path="url(#p4261b92b36)">
     <!-- $H$ -->
     <g transform="translate(305.87268 47.147988)scale(0.13 -0.13)">
      <use transform="translate(0 0.09375)" xlink:href="#DejaVuSans-Oblique-72"/>
     </g>
    </g>
   </g>
   <g id="text_6">
    <g clip-path="url(#p4261b92b36)">
     <!-- $H$ -->
     <g transform="translate(305.87268 92.598988)scale(0.13 -0.13)">
      <use transform="translate(0 0.09375)" xlink:href="#DejaVuSans-Oblique-72"/>
     </g>
    </g>
   </g>
   <g id="text_7">
    <g clip-path="url(#p4261b92b36)">
     <!-- 0 -->
     <defs>
      <path d="M 31.78125 66.40625 
Q 24.171875 66.40625 20.328125 58.90625 
Q 16.5 51.421875 16.5 36.375 
Q 16.5 21.390625 20.328125 13.890625 
Q 24.171875 6.390625 31.78125 6.390625 
Q 39.453125 6.390625 43.28125 13.890625 
Q 47.125 21.390625 47.125 36.375 
Q 47.125 51.421875 43.28125 58.90625 
Q 39.453125 66.40625 31.78125 66.40625 
z
M 31.78125 74.21875 
Q 44.046875 74.21875 50.515625 64.515625 
Q 56.984375 54.828125 56.984375 36.375 
Q 56.984375 17.96875 50.515625 8.265625 
Q 44.046875 -1.421875 31.78125 -1.421875 
Q 19.53125 -1.421875 13.0625 8.265625 
Q 6.59375 17.96875 6.59375 36.375 
Q 6.59375 54.828125 13.0625 64.515625 
Q 19.53125 74.21875 31.78125 74.21875 
z
" id="DejaVuSans-48"/>
     </defs>
     <g transform="translate(413.07743 127.754825)scale(0.104 -0.104)">
      <use xlink:href="#DejaVuSans-48"/>
     </g>
    </g>
   </g>
   <g id="text_8">
    <g clip-path="url(#p4261b92b36)">
     <!-- 1 -->
     <defs>
      <path d="M 12.40625 8.296875 
L 28.515625 8.296875 
L 28.515625 63.921875 
L 10.984375 60.40625 
L 10.984375 69.390625 
L 28.421875 72.90625 
L 38.28125 72.90625 
L 38.28125 8.296875 
L 54.390625 8.296875 
L 54.390625 0 
L 12.40625 0 
z
" id="DejaVuSans-49"/>
     </defs>
     <g transform="translate(458.52843 127.754825)scale(0.104 -0.104)">
      <use xlink:href="#DejaVuSans-49"/>
     </g>
    </g>
   </g>
   <g id="text_9">
    <g clip-path="url(#p4261b92b36)">
     <!-- $q0_{0}$ -->
     <defs>
      <path d="M 41.703125 8.203125 
Q 38.09375 3.46875 33.171875 1.015625 
Q 28.265625 -1.421875 22.3125 -1.421875 
Q 14.015625 -1.421875 9.296875 4.171875 
Q 4.59375 9.765625 4.59375 19.578125 
Q 4.59375 27.484375 7.5 34.859375 
Q 10.40625 42.234375 15.828125 48.09375 
Q 19.34375 51.90625 23.90625 53.953125 
Q 28.46875 56 33.5 56 
Q 39.546875 56 43.453125 53.609375 
Q 47.359375 51.21875 49.125 46.390625 
L 50.6875 54.59375 
L 59.71875 54.59375 
L 45.125 -20.609375 
L 36.078125 -20.609375 
z
M 13.921875 20.90625 
Q 13.921875 13.671875 16.9375 9.890625 
Q 19.96875 6.109375 25.6875 6.109375 
Q 34.1875 6.109375 40.1875 14.234375 
Q 46.1875 22.359375 46.1875 33.984375 
Q 46.1875 41.015625 43.078125 44.75 
Q 39.984375 48.484375 34.1875 48.484375 
Q 29.9375 48.484375 26.3125 46.5 
Q 22.703125 44.53125 20.015625 40.71875 
Q 17.1875 36.71875 15.546875 31.34375 
Q 13.921875 25.984375 13.921875 20.90625 
z
" id="DejaVuSans-Oblique-113"/>
     </defs>
     <g transform="translate(54.95768 48.011777)scale(0.1625 -0.1625)">
      <use transform="translate(0 0.78125)" xlink:href="#DejaVuSans-Oblique-113"/>
      <use transform="translate(63.476562 0.78125)" xlink:href="#DejaVuSans-48"/>
      <use transform="translate(128.056641 -15.625)scale(0.7)" xlink:href="#DejaVuSans-48"/>
     </g>
    </g>
   </g>
   <g id="text_10">
    <g clip-path="url(#p4261b92b36)">
     <!-- $q0_{1}$ -->
     <g transform="translate(54.95768 93.462777)scale(0.1625 -0.1625)">
      <use transform="translate(0 0.78125)" xlink:href="#DejaVuSans-Oblique-113"/>
      <use transform="translate(63.476562 0.78125)" xlink:href="#DejaVuSans-48"/>
      <use transform="translate(128.056641 -15.625)scale(0.7)" xlink:href="#DejaVuSans-49"/>
     </g>
    </g>
   </g>
   <g id="text_11">
    <g clip-path="url(#p4261b92b36)">
     <!-- 2 -->
     <defs>
      <path d="M 19.1875 8.296875 
L 53.609375 8.296875 
L 53.609375 0 
L 7.328125 0 
L 7.328125 8.296875 
Q 12.9375 14.109375 22.625 23.890625 
Q 32.328125 33.6875 34.8125 36.53125 
Q 39.546875 41.84375 41.421875 45.53125 
Q 43.3125 49.21875 43.3125 52.78125 
Q 43.3125 58.59375 39.234375 62.25 
Q 35.15625 65.921875 28.609375 65.921875 
Q 23.96875 65.921875 18.8125 64.3125 
Q 13.671875 62.703125 7.8125 59.421875 
L 7.8125 69.390625 
Q 13.765625 71.78125 18.9375 73 
Q 24.125 74.21875 28.421875 74.21875 
Q 39.75 74.21875 46.484375 68.546875 
Q 53.21875 62.890625 53.21875 53.421875 
Q 53.21875 48.921875 51.53125 44.890625 
Q 49.859375 40.875 45.40625 35.40625 
Q 44.1875 33.984375 37.640625 27.21875 
Q 31.109375 20.453125 19.1875 8.296875 
z
" id="DejaVuSans-50"/>
     </defs>
     <g transform="translate(129.00868 127.754825)scale(0.104 -0.104)">
      <use xlink:href="#DejaVuSans-50"/>
     </g>
    </g>
   </g>
   <g id="text_12">
    <g clip-path="url(#p4261b92b36)">
     <!-- $c0$ -->
     <defs>
      <path d="M 53.609375 52.59375 
L 51.8125 43.703125 
Q 48.578125 46.046875 44.9375 47.21875 
Q 41.3125 48.390625 37.40625 48.390625 
Q 33.109375 48.390625 29.21875 46.875 
Q 25.34375 45.359375 22.703125 42.578125 
Q 18.5 38.328125 16.203125 32.609375 
Q 13.921875 26.90625 13.921875 20.796875 
Q 13.921875 13.421875 17.609375 9.8125 
Q 21.296875 6.203125 28.8125 6.203125 
Q 32.515625 6.203125 36.6875 7.328125 
Q 40.875 8.453125 45.40625 10.6875 
L 43.703125 1.8125 
Q 39.796875 0.203125 35.671875 -0.609375 
Q 31.546875 -1.421875 27.203125 -1.421875 
Q 16.3125 -1.421875 10.453125 4.015625 
Q 4.59375 9.46875 4.59375 19.578125 
Q 4.59375 28.078125 7.640625 35.234375 
Q 10.6875 42.390625 16.703125 48.09375 
Q 20.796875 52 26.3125 54 
Q 31.84375 56 38.375 56 
Q 42.1875 56 45.9375 55.140625 
Q 49.703125 54.296875 53.609375 52.59375 
z
" id="DejaVuSans-Oblique-99"/>
     </defs>
     <g transform="translate(60.35268 139.843581)scale(0.195 -0.195)">
      <use transform="translate(0 0.78125)" xlink:href="#DejaVuSans-Oblique-99"/>
      <use transform="translate(54.980469 0.78125)" xlink:href="#DejaVuSans-48"/>
     </g>
    </g>
   </g>
  </g>
 </g>
 <defs>
  <clipPath id="p4261b92b36">
   <rect height="154.5334" width="489.96178" x="7.2" y="7.2"/>
  </clipPath>
 </defs>
</svg>
