<?xml version="1.0" encoding="UTF-8" standalone="no"?>
<svg
   xmlns:dc="http://purl.org/dc/elements/1.1/"
   xmlns:cc="http://creativecommons.org/ns#"
   xmlns:rdf="http://www.w3.org/1999/02/22-rdf-syntax-ns#"
   xmlns:svg="http://www.w3.org/2000/svg"
   xmlns="http://www.w3.org/2000/svg"
   xmlns:xlink="http://www.w3.org/1999/xlink"
   xmlns:sodipodi="http://sodipodi.sourceforge.net/DTD/sodipodi-0.dtd"
   xmlns:inkscape="http://www.inkscape.org/namespaces/inkscape"
   inkscape:version="1.0beta2 (2b71d25, 2019-12-03)"
   sodipodi:docname="defer_measurement.svg"
   id="svg631"
   width="320.264pt"
   viewBox="0 0 320.264 204.68"
   version="1.1"
   height="204.68pt">
  <metadata
     id="metadata635">
    <rdf:RDF>
      <cc:Work
         rdf:about="">
        <dc:format>image/svg+xml</dc:format>
        <dc:type
           rdf:resource="http://purl.org/dc/dcmitype/StillImage" />
      </cc:Work>
    </rdf:RDF>
  </metadata>
  <sodipodi:namedview
     inkscape:current-layer="svg631"
     inkscape:window-maximized="0"
     inkscape:window-y="0"
     inkscape:window-x="0"
     inkscape:cy="337.6009"
     inkscape:cx="384.96973"
     inkscape:zoom="1.1814287"
     showgrid="false"
     id="namedview633"
     inkscape:window-height="1120"
     inkscape:window-width="1792"
     inkscape:pageshadow="2"
     inkscape:pageopacity="0"
     guidetolerance="10"
     gridtolerance="10"
     objecttolerance="10"
     borderopacity="1"
     inkscape:document-rotation="0"
     bordercolor="#666666"
     pagecolor="#ffffff" />
  <defs
     id="defs498">
    <marker
       inkscape:isstock="true"
       style="overflow:visible;"
       id="Arrow2Lend"
       refX="0.0"
       refY="0.0"
       orient="auto"
       inkscape:stockid="Arrow2Lend">
      <path
         transform="scale(1.1) rotate(180) translate(1,0)"
         d="M 8.7185878,4.0337352 L -2.2072895,0.016013256 L 8.7185884,-4.0017078 C 6.9730900,-1.6296469 6.9831476,1.6157441 8.7185878,4.0337352 z "
         style="fill-rule:evenodd;stroke-width:0.625;stroke-linejoin:round;stroke:#000000;stroke-opacity:1;fill:#000000;fill-opacity:1"
         id="path2093" />
    </marker>
    <inkscape:path-effect
       end_linecap_type="zerowidth"
       scale_width="1"
       miter_limit="4"
       linejoin_type="extrp_arc"
       start_linecap_type="zerowidth"
       interpolator_beta="0.2"
       interpolator_type="CubicBezierJohan"
       sort_points="true"
       offset_points="0,0.375"
       lpeversion="1"
       is_visible="true"
       id="path-effect2679"
       effect="powerstroke" />
    <inkscape:path-effect
       end_linecap_type="zerowidth"
       scale_width="1"
       miter_limit="4"
       linejoin_type="extrp_arc"
       start_linecap_type="zerowidth"
       interpolator_beta="0.2"
       interpolator_type="CubicBezierJohan"
       sort_points="true"
       offset_points="0,0.375"
       lpeversion="1"
       is_visible="true"
       id="path-effect2675"
       effect="powerstroke" />
    <marker
       inkscape:isstock="true"
       style="overflow:visible;"
       id="marker2605"
       refX="0.0"
       refY="0.0"
       orient="auto"
       inkscape:stockid="Arrow1Mend">
      <path
         transform="scale(0.4) rotate(180) translate(10,0)"
         style="fill-rule:evenodd;stroke:#000000;stroke-width:1pt;stroke-opacity:1;fill:#000000;fill-opacity:1"
         d="M 0.0,0.0 L 5.0,-5.0 L -12.5,0.0 L 5.0,5.0 L 0.0,0.0 z "
         id="path2603" />
    </marker>
    <marker
       inkscape:isstock="true"
       style="overflow:visible;"
       id="Arrow2Mend"
       refX="0.0"
       refY="0.0"
       orient="auto"
       inkscape:stockid="Arrow2Mend">
      <path
         transform="scale(0.6) rotate(180) translate(0,0)"
         d="M 8.7185878,4.0337352 L -2.2072895,0.016013256 L 8.7185884,-4.0017078 C 6.9730900,-1.6296469 6.9831476,1.6157441 8.7185878,4.0337352 z "
         style="fill-rule:evenodd;stroke-width:0.625;stroke-linejoin:round;stroke:#000000;stroke-opacity:1;fill:#000000;fill-opacity:1"
         id="path2099" />
    </marker>
    <marker
       inkscape:isstock="true"
       style="overflow:visible"
       id="marker2503"
       refX="0.0"
       refY="0.0"
       orient="auto"
       inkscape:stockid="Arrow1Mstart">
      <path
         transform="scale(0.4) translate(10,0)"
         style="fill-rule:evenodd;stroke:#000000;stroke-width:1pt;stroke-opacity:1;fill:#000000;fill-opacity:1"
         d="M 0.0,0.0 L 5.0,-5.0 L -12.5,0.0 L 5.0,5.0 L 0.0,0.0 z "
         id="path2501" />
    </marker>
    <marker
       inkscape:isstock="true"
       style="overflow:visible"
       id="Arrow1Mstart"
       refX="0.0"
       refY="0.0"
       orient="auto"
       inkscape:stockid="Arrow1Mstart">
      <path
         transform="scale(0.4) translate(10,0)"
         style="fill-rule:evenodd;stroke:#000000;stroke-width:1pt;stroke-opacity:1;fill:#000000;fill-opacity:1"
         d="M 0.0,0.0 L 5.0,-5.0 L -12.5,0.0 L 5.0,5.0 L 0.0,0.0 z "
         id="path2078" />
    </marker>
    <marker
       inkscape:isstock="true"
       style="overflow:visible"
       id="Arrow1Lstart"
       refX="0.0"
       refY="0.0"
       orient="auto"
       inkscape:stockid="Arrow1Lstart">
      <path
         transform="scale(0.8) translate(12.5,0)"
         style="fill-rule:evenodd;stroke:#000000;stroke-width:1pt;stroke-opacity:1;fill:#000000;fill-opacity:1"
         d="M 0.0,0.0 L 5.0,-5.0 L -12.5,0.0 L 5.0,5.0 L 0.0,0.0 z "
         id="path2072" />
    </marker>
    <marker
       inkscape:isstock="true"
       style="overflow:visible;"
       id="Arrow1Mend"
       refX="0.0"
       refY="0.0"
       orient="auto"
       inkscape:stockid="Arrow1Mend">
      <path
         transform="scale(0.4) rotate(180) translate(10,0)"
         style="fill-rule:evenodd;stroke:#000000;stroke-width:1pt;stroke-opacity:1;fill:#000000;fill-opacity:1"
         d="M 0.0,0.0 L 5.0,-5.0 L -12.5,0.0 L 5.0,5.0 L 0.0,0.0 z "
         id="path2081" />
    </marker>
    <inkscape:path-effect
       end_linecap_type="zerowidth"
       scale_width="1"
       miter_limit="4"
       linejoin_type="extrp_arc"
       start_linecap_type="zerowidth"
       interpolator_beta="0.2"
       interpolator_type="CubicBezierJohan"
       sort_points="true"
       offset_points="0,0.375"
       lpeversion="1"
       is_visible="true"
       id="path-effect2403"
       effect="powerstroke" />
    <inkscape:path-effect
       end_linecap_type="zerowidth"
       scale_width="1"
       miter_limit="4"
       linejoin_type="extrp_arc"
       start_linecap_type="zerowidth"
       interpolator_beta="0.2"
       interpolator_type="CubicBezierJohan"
       sort_points="true"
       offset_points="0,0.375"
       lpeversion="1"
       is_visible="true"
       id="path-effect2389"
       effect="powerstroke" />
    <inkscape:path-effect
       end_linecap_type="zerowidth"
       scale_width="1"
       miter_limit="4"
       linejoin_type="extrp_arc"
       start_linecap_type="zerowidth"
       interpolator_beta="0.2"
       interpolator_type="CubicBezierJohan"
       sort_points="true"
       offset_points="0,0.375"
       lpeversion="1"
       is_visible="true"
       id="path-effect2385"
       effect="powerstroke" />
    <marker
       inkscape:isstock="true"
       style="overflow:visible"
       id="Arrow1Sstart"
       refX="0.0"
       refY="0.0"
       orient="auto"
       inkscape:stockid="Arrow1Sstart">
      <path
         transform="scale(0.2) translate(6,0)"
         style="fill-rule:evenodd;stroke:#000000;stroke-width:1pt;stroke-opacity:1;fill:#000000;fill-opacity:1"
         d="M 0.0,0.0 L 5.0,-5.0 L -12.5,0.0 L 5.0,5.0 L 0.0,0.0 z "
         id="path2084" />
    </marker>
    <marker
       inkscape:isstock="true"
       style="overflow:visible;"
       id="Arrow1Send"
       refX="0.0"
       refY="0.0"
       orient="auto"
       inkscape:stockid="Arrow1Send">
      <path
         transform="scale(0.2) rotate(180) translate(6,0)"
         style="fill-rule:evenodd;stroke:none;stroke-width:1pt;stroke-opacity:1;fill:#000000;fill-opacity:1"
         d="M 0.0,0.0 L 5.0,-5.0 L -12.5,0.0 L 5.0,5.0 L 0.0,0.0 z "
         id="path2087" />
    </marker>
    <inkscape:path-effect
       end_linecap_type="zerowidth"
       scale_width="1"
       miter_limit="4"
       linejoin_type="extrp_arc"
       start_linecap_type="zerowidth"
       interpolator_beta="0.2"
       interpolator_type="CubicBezierJohan"
       sort_points="true"
       offset_points="0,0.375"
       lpeversion="1"
       is_visible="true"
       id="path-effect2070"
       effect="powerstroke" />
    <inkscape:path-effect
       end_linecap_type="zerowidth"
       scale_width="1"
       miter_limit="4"
       linejoin_type="extrp_arc"
       start_linecap_type="zerowidth"
       interpolator_beta="0.2"
       interpolator_type="CubicBezierJohan"
       sort_points="true"
       offset_points="0,0.375"
       lpeversion="1"
       is_visible="true"
       id="path-effect2066"
       effect="powerstroke" />
    <inkscape:path-effect
       end_linecap_type="zerowidth"
       scale_width="1"
       miter_limit="4"
       linejoin_type="extrp_arc"
       start_linecap_type="zerowidth"
       interpolator_beta="0.2"
       interpolator_type="CubicBezierJohan"
       sort_points="true"
       offset_points="0,0.375"
       lpeversion="1"
       is_visible="true"
       id="path-effect1187"
       effect="powerstroke" />
    <inkscape:path-effect
       end_linecap_type="zerowidth"
       scale_width="1"
       miter_limit="4"
       linejoin_type="extrp_arc"
       start_linecap_type="zerowidth"
       interpolator_beta="0.2"
       interpolator_type="CubicBezierJohan"
       sort_points="true"
       offset_points="0,0.375"
       lpeversion="1"
       is_visible="true"
       id="path-effect1183"
       effect="powerstroke" />
    <inkscape:path-effect
       end_linecap_type="zerowidth"
       scale_width="1"
       miter_limit="4"
       linejoin_type="extrp_arc"
       start_linecap_type="zerowidth"
       interpolator_beta="0.2"
       interpolator_type="CubicBezierJohan"
       sort_points="true"
       offset_points="0,0.375"
       lpeversion="1"
       is_visible="true"
       id="path-effect1179"
       effect="powerstroke" />
    <inkscape:path-effect
       end_linecap_type="zerowidth"
       scale_width="1"
       miter_limit="4"
       linejoin_type="extrp_arc"
       start_linecap_type="zerowidth"
       interpolator_beta="0.2"
       interpolator_type="CubicBezierJohan"
       sort_points="true"
       offset_points="0,0.375"
       lpeversion="1"
       is_visible="true"
       id="path-effect1175"
       effect="powerstroke" />
    <style
       id="style496"
       type="text/css">
*{stroke-linecap:butt;stroke-linejoin:round;}
  </style>
    <clipPath
       id="pfc583bf404">
      <rect
         height="154.5334"
         width="196.34831"
         x="35.108639"
         y="24.5616"
         id="rect485" />
    </clipPath>
    <clipPath
       id="clipPath1047">
      <rect
         height="154.5334"
         width="196.34831"
         x="35.108639"
         y="24.5616"
         id="rect1045" />
    </clipPath>
    <clipPath
       id="clipPath1051">
      <rect
         height="154.5334"
         width="196.34831"
         x="35.108639"
         y="24.5616"
         id="rect1049" />
    </clipPath>
    <clipPath
       id="clipPath1055">
      <rect
         height="154.5334"
         width="196.34831"
         x="35.108639"
         y="24.5616"
         id="rect1053" />
    </clipPath>
    <clipPath
       id="clipPath1059">
      <rect
         height="154.5334"
         width="196.34831"
         x="35.108639"
         y="24.5616"
         id="rect1057" />
    </clipPath>
    <clipPath
       id="clipPath1063">
      <rect
         height="154.5334"
         width="196.34831"
         x="35.108639"
         y="24.5616"
         id="rect1061" />
    </clipPath>
    <clipPath
       id="clipPath1067">
      <rect
         height="154.5334"
         width="196.34831"
         x="35.108639"
         y="24.5616"
         id="rect1065" />
    </clipPath>
    <clipPath
       id="clipPath1071">
      <rect
         height="154.5334"
         width="196.34831"
         x="35.108639"
         y="24.5616"
         id="rect1069" />
    </clipPath>
    <path
       d="M 13.09375,72.90625 H 70.3125 L 68.890625,65.375 12.40625,8.296875 H 58.890625 L 57.328125,0 h -59.53125 l 1.421875,7.515625 56.5,57.078125 h -44.1875 z"
       id="DejaVuSans-Oblique-90-1"
       inkscape:connector-curvature="0" />
  </defs>
  <path
     inkscape:connector-curvature="0"
     id="path500"
     style="fill:#ffffff"
     d="M 0,204.68 H 320.264 V 0 H 0 Z" />
  <g
     transform="translate(-145.2325,-1.505)"
     id="patch_2">
    <path
       inkscape:connector-curvature="0"
       id="path503"
       style="fill:#778899"
       d="m 183.67923,141.4843 h 11.81726 l -5.90863,10.3401 z"
       clip-path="url(#pb245b75ef5)" />
  </g>
  <g
     transform="translate(-145.2325,-1.505)"
     id="line2d_1">
    <path
       inkscape:connector-curvature="0"
       id="path506"
       style="fill:none;stroke:#000000;stroke-width:2;stroke-linecap:square"
       d="m 166.86236,60.9224 h 113.6275"
       clip-path="url(#pb245b75ef5)" />
  </g>
  <g
     transform="translate(-145.2325,-1.505)"
     id="line2d_2">
    <path
       inkscape:connector-curvature="0"
       id="path509"
       style="fill:none;stroke:#000000;stroke-width:2;stroke-linecap:square"
       d="m 166.86236,106.3734 h 113.6275"
       clip-path="url(#pb245b75ef5)" />
  </g>
  <g
     transform="translate(-145.2325,-1.505)"
     id="line2d_3">
    <path
       inkscape:connector-curvature="0"
       id="path512"
       style="fill:none;stroke:#778899;stroke-width:2;stroke-linecap:square"
       d="m 166.86236,150.34724 h 113.6275"
       clip-path="url(#pb245b75ef5)" />
  </g>
  <g
     transform="translate(-145.2325,-1.505)"
     id="line2d_4">
    <path
       inkscape:connector-curvature="0"
       id="path515"
       style="fill:none;stroke:#778899;stroke-width:2;stroke-linecap:square"
       d="m 166.86236,153.30156 h 113.6275"
       clip-path="url(#pb245b75ef5)" />
  </g>
  <g
     transform="translate(-145.2325,-1.505)"
     id="line2d_5">
    <path
       inkscape:connector-curvature="0"
       id="path518"
       style="fill:none;stroke:#778899;stroke-width:2;stroke-linecap:square"
       d="m 191.06502,60.9224 v 80.5619"
       clip-path="url(#pb245b75ef5)" />
  </g>
  <g
     transform="translate(-145.2325,-1.505)"
     id="line2d_6">
    <path
       inkscape:connector-curvature="0"
       id="path521"
       style="fill:none;stroke:#778899;stroke-width:2;stroke-linecap:square"
       d="m 188.1107,60.9224 v 80.5619"
       clip-path="url(#pb245b75ef5)" />
  </g>
  <g
     transform="translate(-145.2325,-1.505)"
     id="line2d_7">
    <path
       inkscape:connector-curvature="0"
       id="path524"
       style="fill:none;stroke:#778899;stroke-width:2;stroke-linecap:square"
       d="m 236.51602,106.3734 v 45.451"
       clip-path="url(#pb245b75ef5)" />
  </g>
  <g
     transform="translate(-145.2325,-1.505)"
     id="line2d_8">
    <path
       inkscape:connector-curvature="0"
       id="path527"
       style="fill:none;stroke:#778899;stroke-width:2;stroke-linecap:square"
       d="m 233.5617,106.3734 v 45.451"
       clip-path="url(#pb245b75ef5)" />
  </g>
  <g
     transform="translate(-145.2325,-1.505)"
     id="patch_3">
    <path
       inkscape:connector-curvature="0"
       id="path530"
       d="m 174.81628,75.693975 h 29.54315 v -29.54315 h -29.54315 z"
       clip-path="url(#pb245b75ef5)" />
  </g>
  <g
     transform="translate(-145.2325,-1.505)"
     id="patch_4">
    <path
       inkscape:connector-curvature="0"
       id="path533"
       style="fill:none;stroke:#ffffff;stroke-width:2;stroke-linejoin:miter"
       d="m 199.92796,65.353873 c 0,-2.741314 -1.09014,-5.373155 -3.02854,-7.311557 -1.93841,-1.938402 -4.57025,-3.028546 -7.31156,-3.028546 -2.74131,0 -5.37316,1.090144 -7.31156,3.028546 -1.9384,1.938402 -3.02854,4.570243 -3.02854,7.311557"
       clip-path="url(#pb245b75ef5)" />
  </g>
  <g
     transform="translate(-145.2325,-1.505)"
     id="patch_5">
    <path
       inkscape:connector-curvature="0"
       id="path536"
       style="stroke:#000000;stroke-width:1.5;stroke-linejoin:miter"
       d="m 235.03886,156.25587 c 1.17524,0 2.3025,-0.46693 3.13352,-1.29795 0.83102,-0.83102 1.29795,-1.95828 1.29795,-3.13352 0,-1.17524 -0.46693,-2.3025 -1.29795,-3.13352 -0.83102,-0.83103 -1.95828,-1.29795 -3.13352,-1.29795 -1.17524,0 -2.3025,0.46692 -3.13352,1.29795 -0.83102,0.83102 -1.29795,1.95828 -1.29795,3.13352 0,1.17524 0.46693,2.3025 1.29795,3.13352 0.83102,0.83102 1.95828,1.29795 3.13352,1.29795 z"
       clip-path="url(#pb245b75ef5)" />
  </g>
  <g
     transform="translate(-145.2325,-1.505)"
     id="patch_6">
    <path
       inkscape:connector-curvature="0"
       id="path539"
       style="fill:#05bab6"
       d="m 220.26728,121.14498 h 29.54315 V 91.601825 h -29.54315 z"
       clip-path="url(#pb245b75ef5)" />
  </g>
  <g
     transform="translate(-145.2325,-1.505)"
     id="line2d_9">
    <path
       inkscape:connector-curvature="0"
       id="path542"
       style="fill:none;stroke:#ffffff;stroke-width:2;stroke-linecap:square"
       d="M 189.58786,65.353873 199.92796,55.01377"
       clip-path="url(#pb245b75ef5)" />
  </g>
  <g
     transform="translate(-145.2325,-1.505)"
     id="text_1">
    <g
       id="g552"
       clip-path="url(#pb245b75ef5)">
      <!-- 0 -->
      <defs
         id="defs546">
        <path
           inkscape:connector-curvature="0"
           id="DejaVuSans-48"
           d="m 31.78125,66.40625 q -7.609375,0 -11.453125,-7.5 Q 16.5,51.421875 16.5,36.375 q 0,-14.984375 3.828125,-22.484375 3.84375,-7.5 11.453125,-7.5 7.671875,0 11.5,7.5 3.84375,7.5 3.84375,22.484375 0,15.046875 -3.84375,22.53125 -3.828125,7.5 -11.5,7.5 z m 0,7.8125 q 12.265625,0 18.734375,-9.703125 6.46875,-9.6875 6.46875,-28.140625 0,-18.40625 -6.46875,-28.109375 -6.46875,-9.6875 -18.734375,-9.6875 -12.25,0 -18.71875,9.6875 Q 6.59375,17.96875 6.59375,36.375 q 0,18.453125 6.46875,28.140625 6.46875,9.703125 18.71875,9.703125 z" />
      </defs>
      <g
         id="g550"
         transform="matrix(0.104,0,0,-0.104,200.95061,145.11642)">
        <use
           height="100%"
           width="100%"
           y="0"
           x="0"
           id="use548"
           xlink:href="#DejaVuSans-48" />
      </g>
    </g>
  </g>
  <g
     transform="translate(-145.2325,-1.505)"
     id="text_2">
    <g
       id="g567"
       clip-path="url(#pb245b75ef5)">
      <!-- 0x1 -->
      <defs
         id="defs557">
        <path
           inkscape:connector-curvature="0"
           id="DejaVuSans-120"
           d="M 54.890625,54.6875 35.109375,28.078125 55.90625,0 H 45.3125 L 29.390625,21.484375 13.484375,0 H 2.875 L 24.125,28.609375 4.6875,54.6875 h 10.59375 l 14.5,-19.484375 14.5,19.484375 z" />
        <path
           inkscape:connector-curvature="0"
           id="DejaVuSans-49"
           d="m 12.40625,8.296875 h 16.109375 v 55.625 L 10.984375,60.40625 v 8.984375 l 17.4375,3.515625 H 38.28125 V 8.296875 H 54.390625 V 0 H 12.40625 Z" />
      </defs>
      <g
         id="g565"
         transform="matrix(0.08,0,0,-0.08,227.58136,166.76609)">
        <use
           height="100%"
           width="100%"
           y="0"
           x="0"
           id="use559"
           xlink:href="#DejaVuSans-48" />
        <use
           height="100%"
           width="100%"
           y="0"
           id="use561"
           xlink:href="#DejaVuSans-120"
           x="63.623047" />
        <use
           height="100%"
           width="100%"
           y="0"
           id="use563"
           xlink:href="#DejaVuSans-49"
           x="122.80273" />
      </g>
    </g>
  </g>
  <g
     transform="translate(-145.2325,-1.505)"
     id="text_3">
    <g
       id="g577"
       clip-path="url(#pb245b75ef5)">
      <!-- $Z$ -->
      <defs
         id="defs571">
        <path
           inkscape:connector-curvature="0"
           id="DejaVuSans-Oblique-90"
           d="M 13.09375,72.90625 H 70.3125 L 68.890625,65.375 12.40625,8.296875 H 58.890625 L 57.328125,0 h -59.53125 l 1.421875,7.515625 56.5,57.078125 h -44.1875 z" />
      </defs>
      <g
         id="g575"
         transform="matrix(0.13,0,0,-0.13,230.55386,109.96059)">
        <use
           height="100%"
           width="100%"
           y="0"
           x="0"
           id="use573"
           xlink:href="#DejaVuSans-Oblique-90"
           transform="translate(0,0.09375)" />
      </g>
    </g>
  </g>
  <defs
     id="defs629">
    <clipPath
       id="pb245b75ef5">
      <rect
         id="rect626"
         y="24.5616"
         x="43.23564"
         width="241.79932"
         height="154.5334" />
    </clipPath>
  </defs>
  <g
     transform="matrix(0.77569892,0,0,1,91.280327,-1.1925017)"
     style="stroke-linecap:butt;stroke-linejoin:round"
     id="line2d_1-5">
    <path
       clip-path="url(#pfc583bf404)"
       d="m 158.73536,60.9224 h 68.1765"
       style="fill:none;stroke:#000000;stroke-width:2;stroke-linecap:square"
       id="path406"
       inkscape:connector-curvature="0" />
  </g>
  <g
     transform="matrix(0.77261453,0,0,1,91.99423,-1.1925017)"
     style="stroke-linecap:butt;stroke-linejoin:round"
     id="line2d_2-7">
    <path
       clip-path="url(#pfc583bf404)"
       d="m 158.73536,106.3734 h 68.1765"
       style="fill:none;stroke:#000000;stroke-width:2;stroke-linecap:square"
       id="path409"
       inkscape:connector-curvature="0" />
  </g>
  <g
     transform="translate(55.900116,-1.1925017)"
     style="stroke-linecap:butt;stroke-linejoin:round"
     id="line2d_5-9">
    <path
       clip-path="url(#pfc583bf404)"
       d="M 181.46086,106.3734 V 60.9224"
       style="fill:none;stroke:#bb8bff;stroke-width:2;stroke-linecap:square"
       id="path418"
       inkscape:connector-curvature="0" />
  </g>
  <g
     transform="translate(55.900116,-1.1925017)"
     style="stroke-linecap:butt;stroke-linejoin:round"
     id="patch_2-9">
    <path
       clip-path="url(#pfc583bf404)"
       d="m 181.46086,65.353873 c 1.17524,0 2.3025,-0.466928 3.13352,-1.297949 0.83102,-0.83102 1.29795,-1.958284 1.29795,-3.133524 0,-1.17524 -0.46693,-2.302504 -1.29795,-3.133524 -0.83102,-0.831021 -1.95828,-1.297948 -3.13352,-1.297948 -1.17524,0 -2.3025,0.466927 -3.13352,1.297948 -0.83103,0.83102 -1.29795,1.958284 -1.29795,3.133524 0,1.17524 0.46692,2.302504 1.29795,3.133524 0.83102,0.831021 1.95828,1.297949 3.13352,1.297949 z"
       style="fill:#bb8bff;stroke:#bb8bff;stroke-width:1.5;stroke-linejoin:miter"
       id="path421"
       inkscape:connector-curvature="0" />
  </g>
  <g
     transform="translate(55.900116,-1.1925017)"
     style="stroke-linecap:butt;stroke-linejoin:round"
     id="patch_3-4">
    <path
       clip-path="url(#pfc583bf404)"
       d="m 166.68928,121.14498 h 29.54315 V 91.601825 h -29.54315 z"
       style="fill:#bb8bff"
       id="path424"
       inkscape:connector-curvature="0" />
  </g>
  <g
     transform="translate(55.900116,-1.1925017)"
     style="stroke-linecap:butt;stroke-linejoin:round"
     id="text_1-7">
    <g
       clip-path="url(#pfc583bf404)"
       id="g434">
      <!-- $Z$ -->
      <defs
         id="defs428">
        <path
           d="M 13.09375,72.90625 H 70.3125 L 68.890625,65.375 12.40625,8.296875 H 58.890625 L 57.328125,0 h -59.53125 l 1.421875,7.515625 56.5,57.078125 h -44.1875 z"
           id="path1164"
           inkscape:connector-curvature="0" />
      </defs>
      <g
         transform="matrix(0.13,0,0,-0.13,176.97586,109.96059)"
         id="g432">
        <use
           transform="translate(0,0.09375)"
           xlink:href="#DejaVuSans-Oblique-90-1"
           id="use430"
           x="0"
           y="0"
           width="100%"
           height="100%" />
      </g>
    </g>
  </g>
  <path
     inkscape:original-d="m 182.9661,111.50646 5.11224,-6.30169 -5.57148,-6.55738 5.57148,6.55738 z"
     inkscape:path-effect="#path-effect1179"
     inkscape:connector-curvature="0"
     id="path1177"
     d="m 183.25732,111.74271 c 0.94569,-1.16572 2.94103,-3.6253 5.11224,-6.30169 a 0.375,0.375 44.349039 0 0 -0.005,-0.47906 c -1.89759,-2.23338 -3.91846,-4.61184 -5.57148,-6.55738 l -0.57156,0.48562 c 1.59462,1.87679 3.53154,4.15645 5.36989,6.32011 -2.09459,2.58193 -3.99895,4.92937 -4.91609,6.0599 z m 0,0 c 0.94569,-1.16572 2.94103,-3.6253 5.11224,-6.30169 a 0.375,0.375 44.348389 0 0 -0.005,-0.47906 c -1.89759,-2.23338 -3.91846,-4.61184 -5.57148,-6.55738 l -0.57156,0.48562 c 1.59462,1.87679 3.53154,4.15645 5.36989,6.32011 -2.09459,2.58193 -3.99895,4.92937 -4.91609,6.0599 z"
     style="fill:#000000;fill-rule:nonzero;stroke:none;stroke-width:0.75000000000000000px;stroke-linecap:butt;stroke-linejoin:miter;stroke-opacity:1" />
  <path
     inkscape:connector-curvature="0"
     id="path2681"
     d="m 152.90543,104.97537 h 44.35101"
     style="fill:none;stroke:#000000;stroke-width:3;stroke-linecap:butt;stroke-linejoin:miter;stroke-miterlimit:4;stroke-dasharray:none;stroke-opacity:1;marker-end:url(#marker2605)" />
</svg>
