<?xml version="1.0" encoding="utf-8" standalone="no"?>
<!DOCTYPE svg PUBLIC "-//W3C//DTD SVG 1.1//EN"
  "http://www.w3.org/Graphics/SVG/1.1/DTD/svg11.dtd">
<!-- Created with matplotlib (https://matplotlib.org/) -->
<svg height="214.3844pt" version="1.1" viewBox="0 0 587.0826 214.3844" width="587.0826pt" xmlns="http://www.w3.org/2000/svg" xmlns:xlink="http://www.w3.org/1999/xlink">
 <defs>
  <style type="text/css">
*{stroke-linecap:butt;stroke-linejoin:round;}
  </style>
 </defs>
 <g id="figure_1">
  <g id="patch_1">
   <path d="M 0 214.3844 
L 587.0826 214.3844 
L 587.0826 0 
L 0 0 
z
" style="fill:#ffffff;"/>
  </g>
  <g id="axes_1">
   <g id="patch_2">
    <path clip-path="url(#p4e17f70038)" d="M 478.52687 169.573697 
L 490.34413 169.573697 
L 484.4355 179.9138 
z
" style="fill:#778899;"/>
   </g>
   <g id="patch_3">
    <path clip-path="url(#p4e17f70038)" d="M 523.97787 169.573697 
L 535.79513 169.573697 
L 529.8865 179.9138 
z
" style="fill:#778899;"/>
   </g>
   <g id="line2d_1">
    <path clip-path="url(#p4e17f70038)" d="M 98.102 43.5608 
L 575.3375 43.5608 
" style="fill:none;stroke:#000000;stroke-linecap:square;stroke-width:2;"/>
   </g>
   <g id="line2d_2">
    <path clip-path="url(#p4e17f70038)" d="M 98.102 89.0118 
L 575.3375 89.0118 
" style="fill:none;stroke:#000000;stroke-linecap:square;stroke-width:2;"/>
   </g>
   <g id="line2d_3">
    <path clip-path="url(#p4e17f70038)" d="M 98.102 134.4628 
L 575.3375 134.4628 
" style="fill:none;stroke:#000000;stroke-linecap:square;stroke-width:2;"/>
   </g>
   <g id="line2d_4">
    <path clip-path="url(#p4e17f70038)" d="M 98.102 178.436642 
L 575.3375 178.436642 
" style="fill:none;stroke:#778899;stroke-linecap:square;stroke-width:2;"/>
   </g>
   <g id="line2d_5">
    <path clip-path="url(#p4e17f70038)" d="M 98.102 181.390957 
L 575.3375 181.390957 
" style="fill:none;stroke:#778899;stroke-linecap:square;stroke-width:2;"/>
   </g>
   <g id="patch_4">
    <path clip-path="url(#p4e17f70038)" d="M 157.415555 157.1883 
L 175.141445 157.1883 
L 175.141445 20.8353 
L 157.415555 20.8353 
z
" style="fill:#bdbdbd;opacity:0.6;"/>
   </g>
   <g id="patch_5">
    <path clip-path="url(#p4e17f70038)" d="M 248.317555 157.1883 
L 266.043445 157.1883 
L 266.043445 20.8353 
L 248.317555 20.8353 
z
" style="fill:#bdbdbd;opacity:0.6;"/>
   </g>
   <g id="patch_6">
    <path clip-path="url(#p4e17f70038)" d="M 384.670555 157.1883 
L 402.396445 157.1883 
L 402.396445 20.8353 
L 384.670555 20.8353 
z
" style="fill:#bdbdbd;opacity:0.6;"/>
   </g>
   <g id="line2d_6">
    <path clip-path="url(#p4e17f70038)" d="M 302.6315 134.4628 
L 302.6315 43.5608 
" style="fill:none;stroke:#6fa4ff;stroke-linecap:square;stroke-width:2;"/>
   </g>
   <g id="line2d_7">
    <path clip-path="url(#p4e17f70038)" d="M 348.0825 134.4628 
L 348.0825 89.0118 
" style="fill:none;stroke:#6fa4ff;stroke-linecap:square;stroke-width:2;"/>
   </g>
   <g id="line2d_8">
    <path clip-path="url(#p4e17f70038)" d="M 485.912657 43.5608 
L 485.912657 169.573697 
" style="fill:none;stroke:#778899;stroke-linecap:square;stroke-width:2;"/>
   </g>
   <g id="line2d_9">
    <path clip-path="url(#p4e17f70038)" d="M 482.958342 43.5608 
L 482.958342 169.573697 
" style="fill:none;stroke:#778899;stroke-linecap:square;stroke-width:2;"/>
   </g>
   <g id="line2d_10">
    <path clip-path="url(#p4e17f70038)" d="M 531.363657 89.0118 
L 531.363657 169.573697 
" style="fill:none;stroke:#778899;stroke-linecap:square;stroke-width:2;"/>
   </g>
   <g id="line2d_11">
    <path clip-path="url(#p4e17f70038)" d="M 528.409342 89.0118 
L 528.409342 169.573697 
" style="fill:none;stroke:#778899;stroke-linecap:square;stroke-width:2;"/>
   </g>
   <g id="line2d_12">
    <path clip-path="url(#p4e17f70038)" d="M 125.3726 184.4589 
L 129.9177 175.3687 
" style="fill:none;stroke:#778899;stroke-linecap:square;stroke-width:1.5;"/>
   </g>
   <g id="patch_7">
    <path clip-path="url(#p4e17f70038)" d="M 106.055925 149.234375 
L 135.599075 149.234375 
L 135.599075 119.691225 
L 106.055925 119.691225 
z
" style="fill:#05bab6;"/>
   </g>
   <g id="patch_8">
    <path clip-path="url(#p4e17f70038)" d="M 196.957925 58.332375 
L 226.501075 58.332375 
L 226.501075 28.789225 
L 196.957925 28.789225 
z
" style="fill:#6fa4ff;"/>
   </g>
   <g id="patch_9">
    <path clip-path="url(#p4e17f70038)" d="M 196.957925 103.783375 
L 226.501075 103.783375 
L 226.501075 74.240225 
L 196.957925 74.240225 
z
" style="fill:#6fa4ff;"/>
   </g>
   <g id="patch_10">
    <path clip-path="url(#p4e17f70038)" d="M 196.957925 149.234375 
L 226.501075 149.234375 
L 226.501075 119.691225 
L 196.957925 119.691225 
z
" style="fill:#6fa4ff;"/>
   </g>
   <g id="patch_11">
    <path clip-path="url(#p4e17f70038)" d="M 302.6315 47.992273 
C 303.80674 47.992273 304.934004 47.525345 305.765024 46.694324 
C 306.596045 45.863304 307.062972 44.73604 307.062972 43.5608 
C 307.062972 42.38556 306.596045 41.258296 305.765024 40.427276 
C 304.934004 39.596255 303.80674 39.129328 302.6315 39.129328 
C 301.45626 39.129328 300.328996 39.596255 299.497976 40.427276 
C 298.666955 41.258296 298.200027 42.38556 298.200027 43.5608 
C 298.200027 44.73604 298.666955 45.863304 299.497976 46.694324 
C 300.328996 47.525345 301.45626 47.992273 302.6315 47.992273 
z
" style="fill:#6fa4ff;stroke:#6fa4ff;stroke-linejoin:miter;stroke-width:1.5;"/>
   </g>
   <g id="patch_12">
    <path clip-path="url(#p4e17f70038)" d="M 302.6315 144.802903 
C 305.373727 144.802903 308.004009 143.713404 309.943057 141.774357 
C 311.882104 139.835309 312.971602 137.205027 312.971602 134.4628 
C 312.971602 131.720573 311.882104 129.090291 309.943057 127.151243 
C 308.004009 125.212196 305.373727 124.122698 302.6315 124.122698 
C 299.889273 124.122698 297.258991 125.212196 295.319943 127.151243 
C 293.380896 129.090291 292.291397 131.720573 292.291397 134.4628 
C 292.291397 137.205027 293.380896 139.835309 295.319943 141.774357 
C 297.258991 143.713404 299.889273 144.802903 302.6315 144.802903 
z
" style="fill:#6fa4ff;stroke:#6fa4ff;stroke-linejoin:miter;stroke-width:2;"/>
   </g>
   <g id="patch_13">
    <path clip-path="url(#p4e17f70038)" d="M 348.0825 93.443273 
C 349.25774 93.443273 350.385004 92.976345 351.216024 92.145324 
C 352.047045 91.314304 352.513972 90.18704 352.513972 89.0118 
C 352.513972 87.83656 352.047045 86.709296 351.216024 85.878276 
C 350.385004 85.047255 349.25774 84.580328 348.0825 84.580328 
C 346.90726 84.580328 345.779996 85.047255 344.948976 85.878276 
C 344.117955 86.709296 343.651027 87.83656 343.651027 89.0118 
C 343.651027 90.18704 344.117955 91.314304 344.948976 92.145324 
C 345.779996 92.976345 346.90726 93.443273 348.0825 93.443273 
z
" style="fill:#6fa4ff;stroke:#6fa4ff;stroke-linejoin:miter;stroke-width:1.5;"/>
   </g>
   <g id="patch_14">
    <path clip-path="url(#p4e17f70038)" d="M 348.0825 144.802903 
C 350.824727 144.802903 353.455009 143.713404 355.394057 141.774357 
C 357.333104 139.835309 358.422602 137.205027 358.422602 134.4628 
C 358.422602 131.720573 357.333104 129.090291 355.394057 127.151243 
C 353.455009 125.212196 350.824727 124.122698 348.0825 124.122698 
C 345.340273 124.122698 342.709991 125.212196 340.770943 127.151243 
C 338.831896 129.090291 337.742397 131.720573 337.742397 134.4628 
C 337.742397 137.205027 338.831896 139.835309 340.770943 141.774357 
C 342.709991 143.713404 345.340273 144.802903 348.0825 144.802903 
z
" style="fill:#6fa4ff;stroke:#6fa4ff;stroke-linejoin:miter;stroke-width:2;"/>
   </g>
   <g id="patch_15">
    <path clip-path="url(#p4e17f70038)" d="M 424.212925 58.332375 
L 453.756075 58.332375 
L 453.756075 28.789225 
L 424.212925 28.789225 
z
" style="fill:#6fa4ff;"/>
   </g>
   <g id="patch_16">
    <path clip-path="url(#p4e17f70038)" d="M 424.212925 103.783375 
L 453.756075 103.783375 
L 453.756075 74.240225 
L 424.212925 74.240225 
z
" style="fill:#6fa4ff;"/>
   </g>
   <g id="patch_17">
    <path clip-path="url(#p4e17f70038)" d="M 469.663925 58.332375 
L 499.207075 58.332375 
L 499.207075 28.789225 
L 469.663925 28.789225 
z
"/>
   </g>
   <g id="patch_18">
    <path clip-path="url(#p4e17f70038)" d="M 494.775602 47.992273 
C 494.775602 45.250959 493.685458 42.619118 491.747057 40.680716 
C 489.808655 38.742314 487.176814 37.65217 484.4355 37.65217 
C 481.694186 37.65217 479.062345 38.742314 477.123943 40.680716 
C 475.185542 42.619118 474.095397 45.250959 474.095397 47.992273 
" style="fill:none;stroke:#ffffff;stroke-linejoin:miter;stroke-width:2;"/>
   </g>
   <g id="patch_19">
    <path clip-path="url(#p4e17f70038)" d="M 515.114925 103.783375 
L 544.658075 103.783375 
L 544.658075 74.240225 
L 515.114925 74.240225 
z
"/>
   </g>
   <g id="patch_20">
    <path clip-path="url(#p4e17f70038)" d="M 540.226602 93.443273 
C 540.226602 90.701959 539.136458 88.070118 537.198057 86.131716 
C 535.259655 84.193314 532.627814 83.10317 529.8865 83.10317 
C 527.145186 83.10317 524.513345 84.193314 522.574943 86.131716 
C 520.636542 88.070118 519.546397 90.701959 519.546397 93.443273 
" style="fill:none;stroke:#ffffff;stroke-linejoin:miter;stroke-width:2;"/>
   </g>
   <g id="line2d_13">
    <path clip-path="url(#p4e17f70038)" d="M 484.4355 47.992273 
L 494.775602 37.65217 
" style="fill:none;stroke:#ffffff;stroke-linecap:square;stroke-width:2;"/>
   </g>
   <g id="line2d_14">
    <path clip-path="url(#p4e17f70038)" d="M 529.8865 93.443273 
L 540.226602 83.10317 
" style="fill:none;stroke:#ffffff;stroke-linecap:square;stroke-width:2;"/>
   </g>
   <g id="line2d_15">
    <path clip-path="url(#p4e17f70038)" d="M 166.2785 20.8353 
L 166.2785 66.2863 
" style="fill:none;stroke:#000000;stroke-dasharray:3.7,1.6;stroke-dashoffset:0;"/>
   </g>
   <g id="line2d_16">
    <path clip-path="url(#p4e17f70038)" d="M 166.2785 66.2863 
L 166.2785 111.7373 
" style="fill:none;stroke:#000000;stroke-dasharray:3.7,1.6;stroke-dashoffset:0;"/>
   </g>
   <g id="line2d_17">
    <path clip-path="url(#p4e17f70038)" d="M 166.2785 111.7373 
L 166.2785 157.1883 
" style="fill:none;stroke:#000000;stroke-dasharray:3.7,1.6;stroke-dashoffset:0;"/>
   </g>
   <g id="line2d_18">
    <path clip-path="url(#p4e17f70038)" d="M 257.1805 20.8353 
L 257.1805 66.2863 
" style="fill:none;stroke:#000000;stroke-dasharray:3.7,1.6;stroke-dashoffset:0;"/>
   </g>
   <g id="line2d_19">
    <path clip-path="url(#p4e17f70038)" d="M 257.1805 66.2863 
L 257.1805 111.7373 
" style="fill:none;stroke:#000000;stroke-dasharray:3.7,1.6;stroke-dashoffset:0;"/>
   </g>
   <g id="line2d_20">
    <path clip-path="url(#p4e17f70038)" d="M 257.1805 111.7373 
L 257.1805 157.1883 
" style="fill:none;stroke:#000000;stroke-dasharray:3.7,1.6;stroke-dashoffset:0;"/>
   </g>
   <g id="line2d_21">
    <path clip-path="url(#p4e17f70038)" d="M 302.6315 140.37143 
L 302.6315 128.55417 
" style="fill:none;stroke:#ffffff;stroke-linecap:square;stroke-width:2;"/>
   </g>
   <g id="line2d_22">
    <path clip-path="url(#p4e17f70038)" d="M 296.72287 134.4628 
L 308.54013 134.4628 
" style="fill:none;stroke:#ffffff;stroke-linecap:square;stroke-width:2;"/>
   </g>
   <g id="line2d_23">
    <path clip-path="url(#p4e17f70038)" d="M 348.0825 140.37143 
L 348.0825 128.55417 
" style="fill:none;stroke:#ffffff;stroke-linecap:square;stroke-width:2;"/>
   </g>
   <g id="line2d_24">
    <path clip-path="url(#p4e17f70038)" d="M 342.17387 134.4628 
L 353.99113 134.4628 
" style="fill:none;stroke:#ffffff;stroke-linecap:square;stroke-width:2;"/>
   </g>
   <g id="line2d_25">
    <path clip-path="url(#p4e17f70038)" d="M 393.5335 20.8353 
L 393.5335 66.2863 
" style="fill:none;stroke:#000000;stroke-dasharray:3.7,1.6;stroke-dashoffset:0;"/>
   </g>
   <g id="line2d_26">
    <path clip-path="url(#p4e17f70038)" d="M 393.5335 66.2863 
L 393.5335 111.7373 
" style="fill:none;stroke:#000000;stroke-dasharray:3.7,1.6;stroke-dashoffset:0;"/>
   </g>
   <g id="line2d_27">
    <path clip-path="url(#p4e17f70038)" d="M 393.5335 111.7373 
L 393.5335 157.1883 
" style="fill:none;stroke:#000000;stroke-dasharray:3.7,1.6;stroke-dashoffset:0;"/>
   </g>
   <g id="text_1">
    <g clip-path="url(#p4e17f70038)">
     <!-- $X$ -->
     <defs>
      <path d="M 13.71875 72.90625 
L 23.6875 72.90625 
L 36.1875 46.578125 
L 58.796875 72.90625 
L 70.3125 72.90625 
L 40.28125 38.09375 
L 58.40625 0 
L 48.484375 0 
L 33.796875 30.71875 
L 7.171875 0 
L -4.296875 0 
L 29.78125 39.203125 
z
" id="DejaVuSans-Oblique-88"/>
     </defs>
     <g transform="translate(116.3425 138.049987)scale(0.13 -0.13)">
      <use transform="translate(0 0.09375)" xlink:href="#DejaVuSans-Oblique-88"/>
     </g>
    </g>
   </g>
   <g id="text_2">
    <g clip-path="url(#p4e17f70038)">
     <!-- $H$ -->
     <defs>
      <path d="M 16.890625 72.90625 
L 26.8125 72.90625 
L 21 43.015625 
L 56.78125 43.015625 
L 62.59375 72.90625 
L 72.515625 72.90625 
L 58.296875 0 
L 48.390625 0 
L 55.171875 34.71875 
L 19.390625 34.71875 
L 12.59375 0 
L 2.6875 0 
z
" id="DejaVuSans-Oblique-72"/>
     </defs>
     <g transform="translate(206.7895 47.147988)scale(0.13 -0.13)">
      <use transform="translate(0 0.09375)" xlink:href="#DejaVuSans-Oblique-72"/>
     </g>
    </g>
   </g>
   <g id="text_3">
    <g clip-path="url(#p4e17f70038)">
     <!-- $H$ -->
     <g transform="translate(206.7895 92.598988)scale(0.13 -0.13)">
      <use transform="translate(0 0.09375)" xlink:href="#DejaVuSans-Oblique-72"/>
     </g>
    </g>
   </g>
   <g id="text_4">
    <g clip-path="url(#p4e17f70038)">
     <!-- $H$ -->
     <g transform="translate(206.7895 138.049987)scale(0.13 -0.13)">
      <use transform="translate(0 0.09375)" xlink:href="#DejaVuSans-Oblique-72"/>
     </g>
    </g>
   </g>
   <g id="text_5">
    <g clip-path="url(#p4e17f70038)">
     <!-- $H$ -->
     <g transform="translate(434.0445 47.147988)scale(0.13 -0.13)">
      <use transform="translate(0 0.09375)" xlink:href="#DejaVuSans-Oblique-72"/>
     </g>
    </g>
   </g>
   <g id="text_6">
    <g clip-path="url(#p4e17f70038)">
     <!-- $H$ -->
     <g transform="translate(434.0445 92.598988)scale(0.13 -0.13)">
      <use transform="translate(0 0.09375)" xlink:href="#DejaVuSans-Oblique-72"/>
     </g>
    </g>
   </g>
   <g id="text_7">
    <g clip-path="url(#p4e17f70038)">
     <!-- 0 -->
     <defs>
      <path d="M 31.78125 66.40625 
Q 24.171875 66.40625 20.328125 58.90625 
Q 16.5 51.421875 16.5 36.375 
Q 16.5 21.390625 20.328125 13.890625 
Q 24.171875 6.390625 31.78125 6.390625 
Q 39.453125 6.390625 43.28125 13.890625 
Q 47.125 21.390625 47.125 36.375 
Q 47.125 51.421875 43.28125 58.90625 
Q 39.453125 66.40625 31.78125 66.40625 
z
M 31.78125 74.21875 
Q 44.046875 74.21875 50.515625 64.515625 
Q 56.984375 54.828125 56.984375 36.375 
Q 56.984375 17.96875 50.515625 8.265625 
Q 44.046875 -1.421875 31.78125 -1.421875 
Q 19.53125 -1.421875 13.0625 8.265625 
Q 6.59375 17.96875 6.59375 36.375 
Q 6.59375 54.828125 13.0625 64.515625 
Q 19.53125 74.21875 31.78125 74.21875 
z
" id="DejaVuSans-48"/>
     </defs>
     <g transform="translate(495.79825 173.205825)scale(0.104 -0.104)">
      <use xlink:href="#DejaVuSans-48"/>
     </g>
    </g>
   </g>
   <g id="text_8">
    <g clip-path="url(#p4e17f70038)">
     <!-- 1 -->
     <defs>
      <path d="M 12.40625 8.296875 
L 28.515625 8.296875 
L 28.515625 63.921875 
L 10.984375 60.40625 
L 10.984375 69.390625 
L 28.421875 72.90625 
L 38.28125 72.90625 
L 38.28125 8.296875 
L 54.390625 8.296875 
L 54.390625 0 
L 12.40625 0 
z
" id="DejaVuSans-49"/>
     </defs>
     <g transform="translate(541.24925 173.205825)scale(0.104 -0.104)">
      <use xlink:href="#DejaVuSans-49"/>
     </g>
    </g>
   </g>
   <g id="text_9">
    <g clip-path="url(#p4e17f70038)">
     <!-- $q_{0}$ -->
     <defs>
      <path d="M 41.703125 8.203125 
Q 38.09375 3.46875 33.171875 1.015625 
Q 28.265625 -1.421875 22.3125 -1.421875 
Q 14.015625 -1.421875 9.296875 4.171875 
Q 4.59375 9.765625 4.59375 19.578125 
Q 4.59375 27.484375 7.5 34.859375 
Q 10.40625 42.234375 15.828125 48.09375 
Q 19.34375 51.90625 23.90625 53.953125 
Q 28.46875 56 33.5 56 
Q 39.546875 56 43.453125 53.609375 
Q 47.359375 51.21875 49.125 46.390625 
L 50.6875 54.59375 
L 59.71875 54.59375 
L 45.125 -20.609375 
L 36.078125 -20.609375 
z
M 13.921875 20.90625 
Q 13.921875 13.671875 16.9375 9.890625 
Q 19.96875 6.109375 25.6875 6.109375 
Q 34.1875 6.109375 40.1875 14.234375 
Q 46.1875 22.359375 46.1875 33.984375 
Q 46.1875 41.015625 43.078125 44.75 
Q 39.984375 48.484375 34.1875 48.484375 
Q 29.9375 48.484375 26.3125 46.5 
Q 22.703125 44.53125 20.015625 40.71875 
Q 17.1875 36.71875 15.546875 31.34375 
Q 13.921875 25.984375 13.921875 20.90625 
z
" id="DejaVuSans-Oblique-113"/>
     </defs>
     <g transform="translate(57.339 48.011777)scale(0.1625 -0.1625)">
      <use xlink:href="#DejaVuSans-Oblique-113"/>
      <use transform="translate(63.476562 -16.40625)scale(0.7)" xlink:href="#DejaVuSans-48"/>
     </g>
    </g>
   </g>
   <g id="text_10">
    <g clip-path="url(#p4e17f70038)">
     <!-- $q_{1}$ -->
     <g transform="translate(57.339 93.462777)scale(0.1625 -0.1625)">
      <use xlink:href="#DejaVuSans-Oblique-113"/>
      <use transform="translate(63.476562 -16.40625)scale(0.7)" xlink:href="#DejaVuSans-49"/>
     </g>
    </g>
   </g>
   <g id="text_11">
    <g clip-path="url(#p4e17f70038)">
     <!-- $q_{2}$ -->
     <defs>
      <path d="M 19.1875 8.296875 
L 53.609375 8.296875 
L 53.609375 0 
L 7.328125 0 
L 7.328125 8.296875 
Q 12.9375 14.109375 22.625 23.890625 
Q 32.328125 33.6875 34.8125 36.53125 
Q 39.546875 41.84375 41.421875 45.53125 
Q 43.3125 49.21875 43.3125 52.78125 
Q 43.3125 58.59375 39.234375 62.25 
Q 35.15625 65.921875 28.609375 65.921875 
Q 23.96875 65.921875 18.8125 64.3125 
Q 13.671875 62.703125 7.8125 59.421875 
L 7.8125 69.390625 
Q 13.765625 71.78125 18.9375 73 
Q 24.125 74.21875 28.421875 74.21875 
Q 39.75 74.21875 46.484375 68.546875 
Q 53.21875 62.890625 53.21875 53.421875 
Q 53.21875 48.921875 51.53125 44.890625 
Q 49.859375 40.875 45.40625 35.40625 
Q 44.1875 33.984375 37.640625 27.21875 
Q 31.109375 20.453125 19.1875 8.296875 
z
" id="DejaVuSans-50"/>
     </defs>
     <g transform="translate(57.339 138.913777)scale(0.1625 -0.1625)">
      <use xlink:href="#DejaVuSans-Oblique-113"/>
      <use transform="translate(63.476562 -16.40625)scale(0.7)" xlink:href="#DejaVuSans-50"/>
     </g>
    </g>
   </g>
   <g id="text_12">
    <g clip-path="url(#p4e17f70038)">
     <!-- 2 -->
     <g transform="translate(120.8275 173.205825)scale(0.104 -0.104)">
      <use xlink:href="#DejaVuSans-50"/>
     </g>
    </g>
   </g>
   <g id="text_13">
    <g clip-path="url(#p4e17f70038)">
     <!-- $c$ -->
     <defs>
      <path d="M 53.609375 52.59375 
L 51.8125 43.703125 
Q 48.578125 46.046875 44.9375 47.21875 
Q 41.3125 48.390625 37.40625 48.390625 
Q 33.109375 48.390625 29.21875 46.875 
Q 25.34375 45.359375 22.703125 42.578125 
Q 18.5 38.328125 16.203125 32.609375 
Q 13.921875 26.90625 13.921875 20.796875 
Q 13.921875 13.421875 17.609375 9.8125 
Q 21.296875 6.203125 28.8125 6.203125 
Q 32.515625 6.203125 36.6875 7.328125 
Q 40.875 8.453125 45.40625 10.6875 
L 43.703125 1.8125 
Q 39.796875 0.203125 35.671875 -0.609375 
Q 31.546875 -1.421875 27.203125 -1.421875 
Q 16.3125 -1.421875 10.453125 4.015625 
Q 4.59375 9.46875 4.59375 19.578125 
Q 4.59375 28.078125 7.640625 35.234375 
Q 10.6875 42.390625 16.703125 48.09375 
Q 20.796875 52 26.3125 54 
Q 31.84375 56 38.375 56 
Q 42.1875 56 45.9375 55.140625 
Q 49.703125 54.296875 53.609375 52.59375 
z
" id="DejaVuSans-Oblique-99"/>
     </defs>
     <g transform="translate(64.6515 185.294581)scale(0.195 -0.195)">
      <use xlink:href="#DejaVuSans-Oblique-99"/>
     </g>
    </g>
   </g>
  </g>
 </g>
 <defs>
  <clipPath id="p4e17f70038">
   <rect height="199.9844" width="572.6826" x="7.2" y="7.2"/>
  </clipPath>
 </defs>
</svg>
