<?xml version="1.0" encoding="utf-8" standalone="no"?>
<!DOCTYPE svg PUBLIC "-//W3C//DTD SVG 1.1//EN"
  "http://www.w3.org/Graphics/SVG/1.1/DTD/svg11.dtd">
<!-- Created with matplotlib (https://matplotlib.org/) -->
<svg height="214.3844pt" version="1.1" viewBox="0 0 603.44496 214.3844" width="603.44496pt" xmlns="http://www.w3.org/2000/svg" xmlns:xlink="http://www.w3.org/1999/xlink">
 <defs>
  <style type="text/css">
*{stroke-linecap:butt;stroke-linejoin:round;}
  </style>
 </defs>
 <g id="figure_1">
  <g id="patch_1">
   <path d="M 0 214.3844 
L 603.44496 214.3844 
L 603.44496 0 
L 0 0 
z
" style="fill:#ffffff;"/>
  </g>
  <g id="axes_1">
   <g id="patch_2">
    <path clip-path="url(#pb58a546dfa)" d="M 494.88923 169.573697 
L 506.70649 169.573697 
L 500.79786 179.9138 
z
" style="fill:#778899;"/>
   </g>
   <g id="patch_3">
    <path clip-path="url(#pb58a546dfa)" d="M 540.34023 169.573697 
L 552.15749 169.573697 
L 546.24886 179.9138 
z
" style="fill:#778899;"/>
   </g>
   <g id="line2d_1">
    <path clip-path="url(#pb58a546dfa)" d="M 114.46436 43.5608 
L 591.69986 43.5608 
" style="fill:none;stroke:#000000;stroke-linecap:square;stroke-width:2;"/>
   </g>
   <g id="line2d_2">
    <path clip-path="url(#pb58a546dfa)" d="M 114.46436 89.0118 
L 591.69986 89.0118 
" style="fill:none;stroke:#000000;stroke-linecap:square;stroke-width:2;"/>
   </g>
   <g id="line2d_3">
    <path clip-path="url(#pb58a546dfa)" d="M 114.46436 134.4628 
L 591.69986 134.4628 
" style="fill:none;stroke:#000000;stroke-linecap:square;stroke-width:2;"/>
   </g>
   <g id="line2d_4">
    <path clip-path="url(#pb58a546dfa)" d="M 114.46436 178.436642 
L 591.69986 178.436642 
" style="fill:none;stroke:#778899;stroke-linecap:square;stroke-width:2;"/>
   </g>
   <g id="line2d_5">
    <path clip-path="url(#pb58a546dfa)" d="M 114.46436 181.390957 
L 591.69986 181.390957 
" style="fill:none;stroke:#778899;stroke-linecap:square;stroke-width:2;"/>
   </g>
   <g id="patch_4">
    <path clip-path="url(#pb58a546dfa)" d="M 173.777915 157.1883 
L 191.503805 157.1883 
L 191.503805 20.8353 
L 173.777915 20.8353 
z
" style="fill:#bdbdbd;opacity:0.6;"/>
   </g>
   <g id="patch_5">
    <path clip-path="url(#pb58a546dfa)" d="M 264.679915 157.1883 
L 282.405805 157.1883 
L 282.405805 20.8353 
L 264.679915 20.8353 
z
" style="fill:#bdbdbd;opacity:0.6;"/>
   </g>
   <g id="patch_6">
    <path clip-path="url(#pb58a546dfa)" d="M 401.032915 157.1883 
L 418.758805 157.1883 
L 418.758805 20.8353 
L 401.032915 20.8353 
z
" style="fill:#bdbdbd;opacity:0.6;"/>
   </g>
   <g id="line2d_6">
    <path clip-path="url(#pb58a546dfa)" d="M 318.99386 134.4628 
L 318.99386 43.5608 
" style="fill:none;stroke:#6fa4ff;stroke-linecap:square;stroke-width:2;"/>
   </g>
   <g id="line2d_7">
    <path clip-path="url(#pb58a546dfa)" d="M 364.44486 134.4628 
L 364.44486 89.0118 
" style="fill:none;stroke:#6fa4ff;stroke-linecap:square;stroke-width:2;"/>
   </g>
   <g id="line2d_8">
    <path clip-path="url(#pb58a546dfa)" d="M 502.275017 43.5608 
L 502.275017 169.573697 
" style="fill:none;stroke:#778899;stroke-linecap:square;stroke-width:2;"/>
   </g>
   <g id="line2d_9">
    <path clip-path="url(#pb58a546dfa)" d="M 499.320702 43.5608 
L 499.320702 169.573697 
" style="fill:none;stroke:#778899;stroke-linecap:square;stroke-width:2;"/>
   </g>
   <g id="line2d_10">
    <path clip-path="url(#pb58a546dfa)" d="M 547.726017 89.0118 
L 547.726017 169.573697 
" style="fill:none;stroke:#778899;stroke-linecap:square;stroke-width:2;"/>
   </g>
   <g id="line2d_11">
    <path clip-path="url(#pb58a546dfa)" d="M 544.771702 89.0118 
L 544.771702 169.573697 
" style="fill:none;stroke:#778899;stroke-linecap:square;stroke-width:2;"/>
   </g>
   <g id="line2d_12">
    <path clip-path="url(#pb58a546dfa)" d="M 141.73496 184.4589 
L 146.28006 175.3687 
" style="fill:none;stroke:#778899;stroke-linecap:square;stroke-width:1.5;"/>
   </g>
   <g id="patch_7">
    <path clip-path="url(#pb58a546dfa)" d="M 122.418285 149.234375 
L 151.961435 149.234375 
L 151.961435 119.691225 
L 122.418285 119.691225 
z
" style="fill:#05bab6;"/>
   </g>
   <g id="patch_8">
    <path clip-path="url(#pb58a546dfa)" d="M 213.320285 58.332375 
L 242.863435 58.332375 
L 242.863435 28.789225 
L 213.320285 28.789225 
z
" style="fill:#6fa4ff;"/>
   </g>
   <g id="patch_9">
    <path clip-path="url(#pb58a546dfa)" d="M 213.320285 103.783375 
L 242.863435 103.783375 
L 242.863435 74.240225 
L 213.320285 74.240225 
z
" style="fill:#6fa4ff;"/>
   </g>
   <g id="patch_10">
    <path clip-path="url(#pb58a546dfa)" d="M 213.320285 149.234375 
L 242.863435 149.234375 
L 242.863435 119.691225 
L 213.320285 119.691225 
z
" style="fill:#6fa4ff;"/>
   </g>
   <g id="patch_11">
    <path clip-path="url(#pb58a546dfa)" d="M 318.99386 47.992273 
C 320.1691 47.992273 321.296364 47.525345 322.127384 46.694324 
C 322.958405 45.863304 323.425332 44.73604 323.425332 43.5608 
C 323.425332 42.38556 322.958405 41.258296 322.127384 40.427276 
C 321.296364 39.596255 320.1691 39.129328 318.99386 39.129328 
C 317.81862 39.129328 316.691356 39.596255 315.860336 40.427276 
C 315.029315 41.258296 314.562387 42.38556 314.562387 43.5608 
C 314.562387 44.73604 315.029315 45.863304 315.860336 46.694324 
C 316.691356 47.525345 317.81862 47.992273 318.99386 47.992273 
z
" style="fill:#6fa4ff;stroke:#6fa4ff;stroke-linejoin:miter;stroke-width:1.5;"/>
   </g>
   <g id="patch_12">
    <path clip-path="url(#pb58a546dfa)" d="M 318.99386 144.802903 
C 321.736087 144.802903 324.366369 143.713404 326.305417 141.774357 
C 328.244464 139.835309 329.333962 137.205027 329.333962 134.4628 
C 329.333962 131.720573 328.244464 129.090291 326.305417 127.151243 
C 324.366369 125.212196 321.736087 124.122698 318.99386 124.122698 
C 316.251633 124.122698 313.621351 125.212196 311.682303 127.151243 
C 309.743256 129.090291 308.653757 131.720573 308.653757 134.4628 
C 308.653757 137.205027 309.743256 139.835309 311.682303 141.774357 
C 313.621351 143.713404 316.251633 144.802903 318.99386 144.802903 
z
" style="fill:#6fa4ff;stroke:#6fa4ff;stroke-linejoin:miter;stroke-width:2;"/>
   </g>
   <g id="patch_13">
    <path clip-path="url(#pb58a546dfa)" d="M 364.44486 93.443273 
C 365.6201 93.443273 366.747364 92.976345 367.578384 92.145324 
C 368.409405 91.314304 368.876332 90.18704 368.876332 89.0118 
C 368.876332 87.83656 368.409405 86.709296 367.578384 85.878276 
C 366.747364 85.047255 365.6201 84.580328 364.44486 84.580328 
C 363.26962 84.580328 362.142356 85.047255 361.311336 85.878276 
C 360.480315 86.709296 360.013387 87.83656 360.013387 89.0118 
C 360.013387 90.18704 360.480315 91.314304 361.311336 92.145324 
C 362.142356 92.976345 363.26962 93.443273 364.44486 93.443273 
z
" style="fill:#6fa4ff;stroke:#6fa4ff;stroke-linejoin:miter;stroke-width:1.5;"/>
   </g>
   <g id="patch_14">
    <path clip-path="url(#pb58a546dfa)" d="M 364.44486 144.802903 
C 367.187087 144.802903 369.817369 143.713404 371.756417 141.774357 
C 373.695464 139.835309 374.784962 137.205027 374.784962 134.4628 
C 374.784962 131.720573 373.695464 129.090291 371.756417 127.151243 
C 369.817369 125.212196 367.187087 124.122698 364.44486 124.122698 
C 361.702633 124.122698 359.072351 125.212196 357.133303 127.151243 
C 355.194256 129.090291 354.104757 131.720573 354.104757 134.4628 
C 354.104757 137.205027 355.194256 139.835309 357.133303 141.774357 
C 359.072351 143.713404 361.702633 144.802903 364.44486 144.802903 
z
" style="fill:#6fa4ff;stroke:#6fa4ff;stroke-linejoin:miter;stroke-width:2;"/>
   </g>
   <g id="patch_15">
    <path clip-path="url(#pb58a546dfa)" d="M 440.575285 58.332375 
L 470.118435 58.332375 
L 470.118435 28.789225 
L 440.575285 28.789225 
z
" style="fill:#6fa4ff;"/>
   </g>
   <g id="patch_16">
    <path clip-path="url(#pb58a546dfa)" d="M 440.575285 103.783375 
L 470.118435 103.783375 
L 470.118435 74.240225 
L 440.575285 74.240225 
z
" style="fill:#6fa4ff;"/>
   </g>
   <g id="patch_17">
    <path clip-path="url(#pb58a546dfa)" d="M 486.026285 58.332375 
L 515.569435 58.332375 
L 515.569435 28.789225 
L 486.026285 28.789225 
z
"/>
   </g>
   <g id="patch_18">
    <path clip-path="url(#pb58a546dfa)" d="M 511.137962 47.992273 
C 511.137962 45.250959 510.047818 42.619118 508.109417 40.680716 
C 506.171015 38.742314 503.539174 37.65217 500.79786 37.65217 
C 498.056546 37.65217 495.424705 38.742314 493.486303 40.680716 
C 491.547902 42.619118 490.457757 45.250959 490.457757 47.992273 
" style="fill:none;stroke:#ffffff;stroke-linejoin:miter;stroke-width:2;"/>
   </g>
   <g id="patch_19">
    <path clip-path="url(#pb58a546dfa)" d="M 531.477285 103.783375 
L 561.020435 103.783375 
L 561.020435 74.240225 
L 531.477285 74.240225 
z
"/>
   </g>
   <g id="patch_20">
    <path clip-path="url(#pb58a546dfa)" d="M 556.588962 93.443273 
C 556.588962 90.701959 555.498818 88.070118 553.560417 86.131716 
C 551.622015 84.193314 548.990174 83.10317 546.24886 83.10317 
C 543.507546 83.10317 540.875705 84.193314 538.937303 86.131716 
C 536.998902 88.070118 535.908757 90.701959 535.908757 93.443273 
" style="fill:none;stroke:#ffffff;stroke-linejoin:miter;stroke-width:2;"/>
   </g>
   <g id="line2d_13">
    <path clip-path="url(#pb58a546dfa)" d="M 500.79786 47.992273 
L 511.137962 37.65217 
" style="fill:none;stroke:#ffffff;stroke-linecap:square;stroke-width:2;"/>
   </g>
   <g id="line2d_14">
    <path clip-path="url(#pb58a546dfa)" d="M 546.24886 93.443273 
L 556.588962 83.10317 
" style="fill:none;stroke:#ffffff;stroke-linecap:square;stroke-width:2;"/>
   </g>
   <g id="line2d_15">
    <path clip-path="url(#pb58a546dfa)" d="M 182.64086 20.8353 
L 182.64086 66.2863 
" style="fill:none;stroke:#000000;stroke-dasharray:3.7,1.6;stroke-dashoffset:0;"/>
   </g>
   <g id="line2d_16">
    <path clip-path="url(#pb58a546dfa)" d="M 182.64086 66.2863 
L 182.64086 111.7373 
" style="fill:none;stroke:#000000;stroke-dasharray:3.7,1.6;stroke-dashoffset:0;"/>
   </g>
   <g id="line2d_17">
    <path clip-path="url(#pb58a546dfa)" d="M 182.64086 111.7373 
L 182.64086 157.1883 
" style="fill:none;stroke:#000000;stroke-dasharray:3.7,1.6;stroke-dashoffset:0;"/>
   </g>
   <g id="line2d_18">
    <path clip-path="url(#pb58a546dfa)" d="M 273.54286 20.8353 
L 273.54286 66.2863 
" style="fill:none;stroke:#000000;stroke-dasharray:3.7,1.6;stroke-dashoffset:0;"/>
   </g>
   <g id="line2d_19">
    <path clip-path="url(#pb58a546dfa)" d="M 273.54286 66.2863 
L 273.54286 111.7373 
" style="fill:none;stroke:#000000;stroke-dasharray:3.7,1.6;stroke-dashoffset:0;"/>
   </g>
   <g id="line2d_20">
    <path clip-path="url(#pb58a546dfa)" d="M 273.54286 111.7373 
L 273.54286 157.1883 
" style="fill:none;stroke:#000000;stroke-dasharray:3.7,1.6;stroke-dashoffset:0;"/>
   </g>
   <g id="line2d_21">
    <path clip-path="url(#pb58a546dfa)" d="M 318.99386 140.37143 
L 318.99386 128.55417 
" style="fill:none;stroke:#ffffff;stroke-linecap:square;stroke-width:2;"/>
   </g>
   <g id="line2d_22">
    <path clip-path="url(#pb58a546dfa)" d="M 313.08523 134.4628 
L 324.90249 134.4628 
" style="fill:none;stroke:#ffffff;stroke-linecap:square;stroke-width:2;"/>
   </g>
   <g id="line2d_23">
    <path clip-path="url(#pb58a546dfa)" d="M 364.44486 140.37143 
L 364.44486 128.55417 
" style="fill:none;stroke:#ffffff;stroke-linecap:square;stroke-width:2;"/>
   </g>
   <g id="line2d_24">
    <path clip-path="url(#pb58a546dfa)" d="M 358.53623 134.4628 
L 370.35349 134.4628 
" style="fill:none;stroke:#ffffff;stroke-linecap:square;stroke-width:2;"/>
   </g>
   <g id="line2d_25">
    <path clip-path="url(#pb58a546dfa)" d="M 409.89586 20.8353 
L 409.89586 66.2863 
" style="fill:none;stroke:#000000;stroke-dasharray:3.7,1.6;stroke-dashoffset:0;"/>
   </g>
   <g id="line2d_26">
    <path clip-path="url(#pb58a546dfa)" d="M 409.89586 66.2863 
L 409.89586 111.7373 
" style="fill:none;stroke:#000000;stroke-dasharray:3.7,1.6;stroke-dashoffset:0;"/>
   </g>
   <g id="line2d_27">
    <path clip-path="url(#pb58a546dfa)" d="M 409.89586 111.7373 
L 409.89586 157.1883 
" style="fill:none;stroke:#000000;stroke-dasharray:3.7,1.6;stroke-dashoffset:0;"/>
   </g>
   <g id="text_1">
    <g clip-path="url(#pb58a546dfa)">
     <!-- $X$ -->
     <defs>
      <path d="M 13.71875 72.90625 
L 23.6875 72.90625 
L 36.1875 46.578125 
L 58.796875 72.90625 
L 70.3125 72.90625 
L 40.28125 38.09375 
L 58.40625 0 
L 48.484375 0 
L 33.796875 30.71875 
L 7.171875 0 
L -4.296875 0 
L 29.78125 39.203125 
z
" id="DejaVuSans-Oblique-88"/>
     </defs>
     <g transform="translate(132.70486 138.049987)scale(0.13 -0.13)">
      <use transform="translate(0 0.09375)" xlink:href="#DejaVuSans-Oblique-88"/>
     </g>
    </g>
   </g>
   <g id="text_2">
    <g clip-path="url(#pb58a546dfa)">
     <!-- $H$ -->
     <defs>
      <path d="M 16.890625 72.90625 
L 26.8125 72.90625 
L 21 43.015625 
L 56.78125 43.015625 
L 62.59375 72.90625 
L 72.515625 72.90625 
L 58.296875 0 
L 48.390625 0 
L 55.171875 34.71875 
L 19.390625 34.71875 
L 12.59375 0 
L 2.6875 0 
z
" id="DejaVuSans-Oblique-72"/>
     </defs>
     <g transform="translate(223.15186 47.147988)scale(0.13 -0.13)">
      <use transform="translate(0 0.09375)" xlink:href="#DejaVuSans-Oblique-72"/>
     </g>
    </g>
   </g>
   <g id="text_3">
    <g clip-path="url(#pb58a546dfa)">
     <!-- $H$ -->
     <g transform="translate(223.15186 92.598988)scale(0.13 -0.13)">
      <use transform="translate(0 0.09375)" xlink:href="#DejaVuSans-Oblique-72"/>
     </g>
    </g>
   </g>
   <g id="text_4">
    <g clip-path="url(#pb58a546dfa)">
     <!-- $H$ -->
     <g transform="translate(223.15186 138.049987)scale(0.13 -0.13)">
      <use transform="translate(0 0.09375)" xlink:href="#DejaVuSans-Oblique-72"/>
     </g>
    </g>
   </g>
   <g id="text_5">
    <g clip-path="url(#pb58a546dfa)">
     <!-- $H$ -->
     <g transform="translate(450.40686 47.147988)scale(0.13 -0.13)">
      <use transform="translate(0 0.09375)" xlink:href="#DejaVuSans-Oblique-72"/>
     </g>
    </g>
   </g>
   <g id="text_6">
    <g clip-path="url(#pb58a546dfa)">
     <!-- $H$ -->
     <g transform="translate(450.40686 92.598988)scale(0.13 -0.13)">
      <use transform="translate(0 0.09375)" xlink:href="#DejaVuSans-Oblique-72"/>
     </g>
    </g>
   </g>
   <g id="text_7">
    <g clip-path="url(#pb58a546dfa)">
     <!-- 0 -->
     <defs>
      <path d="M 31.78125 66.40625 
Q 24.171875 66.40625 20.328125 58.90625 
Q 16.5 51.421875 16.5 36.375 
Q 16.5 21.390625 20.328125 13.890625 
Q 24.171875 6.390625 31.78125 6.390625 
Q 39.453125 6.390625 43.28125 13.890625 
Q 47.125 21.390625 47.125 36.375 
Q 47.125 51.421875 43.28125 58.90625 
Q 39.453125 66.40625 31.78125 66.40625 
z
M 31.78125 74.21875 
Q 44.046875 74.21875 50.515625 64.515625 
Q 56.984375 54.828125 56.984375 36.375 
Q 56.984375 17.96875 50.515625 8.265625 
Q 44.046875 -1.421875 31.78125 -1.421875 
Q 19.53125 -1.421875 13.0625 8.265625 
Q 6.59375 17.96875 6.59375 36.375 
Q 6.59375 54.828125 13.0625 64.515625 
Q 19.53125 74.21875 31.78125 74.21875 
z
" id="DejaVuSans-48"/>
     </defs>
     <g transform="translate(512.16061 173.205825)scale(0.104 -0.104)">
      <use xlink:href="#DejaVuSans-48"/>
     </g>
    </g>
   </g>
   <g id="text_8">
    <g clip-path="url(#pb58a546dfa)">
     <!-- 1 -->
     <defs>
      <path d="M 12.40625 8.296875 
L 28.515625 8.296875 
L 28.515625 63.921875 
L 10.984375 60.40625 
L 10.984375 69.390625 
L 28.421875 72.90625 
L 38.28125 72.90625 
L 38.28125 8.296875 
L 54.390625 8.296875 
L 54.390625 0 
L 12.40625 0 
z
" id="DejaVuSans-49"/>
     </defs>
     <g transform="translate(557.61161 173.205825)scale(0.104 -0.104)">
      <use xlink:href="#DejaVuSans-49"/>
     </g>
    </g>
   </g>
   <g id="text_9">
    <g clip-path="url(#pb58a546dfa)">
     <!-- ${q}_{0}$ -->
     <defs>
      <path d="M 41.703125 8.203125 
Q 38.09375 3.46875 33.171875 1.015625 
Q 28.265625 -1.421875 22.3125 -1.421875 
Q 14.015625 -1.421875 9.296875 4.171875 
Q 4.59375 9.765625 4.59375 19.578125 
Q 4.59375 27.484375 7.5 34.859375 
Q 10.40625 42.234375 15.828125 48.09375 
Q 19.34375 51.90625 23.90625 53.953125 
Q 28.46875 56 33.5 56 
Q 39.546875 56 43.453125 53.609375 
Q 47.359375 51.21875 49.125 46.390625 
L 50.6875 54.59375 
L 59.71875 54.59375 
L 45.125 -20.609375 
L 36.078125 -20.609375 
z
M 13.921875 20.90625 
Q 13.921875 13.671875 16.9375 9.890625 
Q 19.96875 6.109375 25.6875 6.109375 
Q 34.1875 6.109375 40.1875 14.234375 
Q 46.1875 22.359375 46.1875 33.984375 
Q 46.1875 41.015625 43.078125 44.75 
Q 39.984375 48.484375 34.1875 48.484375 
Q 29.9375 48.484375 26.3125 46.5 
Q 22.703125 44.53125 20.015625 40.71875 
Q 17.1875 36.71875 15.546875 31.34375 
Q 13.921875 25.984375 13.921875 20.90625 
z
" id="DejaVuSans-Oblique-113"/>
     </defs>
     <g transform="translate(73.70136 48.011777)scale(0.1625 -0.1625)">
      <use xlink:href="#DejaVuSans-Oblique-113"/>
      <use transform="translate(63.476562 -16.40625)scale(0.7)" xlink:href="#DejaVuSans-48"/>
     </g>
    </g>
   </g>
   <g id="text_10">
    <g clip-path="url(#pb58a546dfa)">
     <!-- ${q}_{1}$ -->
     <g transform="translate(73.70136 93.462777)scale(0.1625 -0.1625)">
      <use xlink:href="#DejaVuSans-Oblique-113"/>
      <use transform="translate(63.476562 -16.40625)scale(0.7)" xlink:href="#DejaVuSans-49"/>
     </g>
    </g>
   </g>
   <g id="text_11">
    <g clip-path="url(#pb58a546dfa)">
     <!-- ${q}_{2}$ -->
     <defs>
      <path d="M 19.1875 8.296875 
L 53.609375 8.296875 
L 53.609375 0 
L 7.328125 0 
L 7.328125 8.296875 
Q 12.9375 14.109375 22.625 23.890625 
Q 32.328125 33.6875 34.8125 36.53125 
Q 39.546875 41.84375 41.421875 45.53125 
Q 43.3125 49.21875 43.3125 52.78125 
Q 43.3125 58.59375 39.234375 62.25 
Q 35.15625 65.921875 28.609375 65.921875 
Q 23.96875 65.921875 18.8125 64.3125 
Q 13.671875 62.703125 7.8125 59.421875 
L 7.8125 69.390625 
Q 13.765625 71.78125 18.9375 73 
Q 24.125 74.21875 28.421875 74.21875 
Q 39.75 74.21875 46.484375 68.546875 
Q 53.21875 62.890625 53.21875 53.421875 
Q 53.21875 48.921875 51.53125 44.890625 
Q 49.859375 40.875 45.40625 35.40625 
Q 44.1875 33.984375 37.640625 27.21875 
Q 31.109375 20.453125 19.1875 8.296875 
z
" id="DejaVuSans-50"/>
     </defs>
     <g transform="translate(73.70136 138.913777)scale(0.1625 -0.1625)">
      <use xlink:href="#DejaVuSans-Oblique-113"/>
      <use transform="translate(63.476562 -16.40625)scale(0.7)" xlink:href="#DejaVuSans-50"/>
     </g>
    </g>
   </g>
   <g id="text_12">
    <g clip-path="url(#pb58a546dfa)">
     <!-- 2 -->
     <g transform="translate(137.18986 173.205825)scale(0.104 -0.104)">
      <use xlink:href="#DejaVuSans-50"/>
     </g>
    </g>
   </g>
   <g id="text_13">
    <g clip-path="url(#pb58a546dfa)">
     <!-- $c$ -->
     <defs>
      <path d="M 53.609375 52.59375 
L 51.8125 43.703125 
Q 48.578125 46.046875 44.9375 47.21875 
Q 41.3125 48.390625 37.40625 48.390625 
Q 33.109375 48.390625 29.21875 46.875 
Q 25.34375 45.359375 22.703125 42.578125 
Q 18.5 38.328125 16.203125 32.609375 
Q 13.921875 26.90625 13.921875 20.796875 
Q 13.921875 13.421875 17.609375 9.8125 
Q 21.296875 6.203125 28.8125 6.203125 
Q 32.515625 6.203125 36.6875 7.328125 
Q 40.875 8.453125 45.40625 10.6875 
L 43.703125 1.8125 
Q 39.796875 0.203125 35.671875 -0.609375 
Q 31.546875 -1.421875 27.203125 -1.421875 
Q 16.3125 -1.421875 10.453125 4.015625 
Q 4.59375 9.46875 4.59375 19.578125 
Q 4.59375 28.078125 7.640625 35.234375 
Q 10.6875 42.390625 16.703125 48.09375 
Q 20.796875 52 26.3125 54 
Q 31.84375 56 38.375 56 
Q 42.1875 56 45.9375 55.140625 
Q 49.703125 54.296875 53.609375 52.59375 
z
" id="DejaVuSans-Oblique-99"/>
     </defs>
     <g transform="translate(81.01386 185.294581)scale(0.195 -0.195)">
      <use xlink:href="#DejaVuSans-Oblique-99"/>
     </g>
    </g>
   </g>
  </g>
 </g>
 <defs>
  <clipPath id="pb58a546dfa">
   <rect height="199.9844" width="589.04496" x="7.2" y="7.2"/>
  </clipPath>
 </defs>
</svg>
