<?xml version="1.0" encoding="utf-8" standalone="no"?>
<!DOCTYPE svg PUBLIC "-//W3C//DTD SVG 1.1//EN"
  "http://www.w3.org/Graphics/SVG/1.1/DTD/svg11.dtd">
<!-- Created with matplotlib (https://matplotlib.org/) -->
<svg height="168.9334pt" version="1.1" viewBox="0 0 314.3766 168.9334" width="314.3766pt" xmlns="http://www.w3.org/2000/svg" xmlns:xlink="http://www.w3.org/1999/xlink">
 <defs>
  <style type="text/css">
*{stroke-linecap:butt;stroke-linejoin:round;}
  </style>
 </defs>
 <g id="figure_1">
  <g id="patch_1">
   <path d="M 0 168.9334 
L 314.3766 168.9334 
L 314.3766 0 
L 0 0 
z
" style="fill:#ffffff;"/>
  </g>
  <g id="axes_1">
   <g id="line2d_1">
    <path clip-path="url(#p20ccdd6480)" d="M 98.102 43.5608 
L 302.6315 43.5608 
" style="fill:none;stroke:#000000;stroke-linecap:square;stroke-width:2;"/>
   </g>
   <g id="line2d_2">
    <path clip-path="url(#p20ccdd6480)" d="M 98.102 89.0118 
L 302.6315 89.0118 
" style="fill:none;stroke:#000000;stroke-linecap:square;stroke-width:2;"/>
   </g>
   <g id="line2d_3">
    <path clip-path="url(#p20ccdd6480)" d="M 98.102 134.4628 
L 302.6315 134.4628 
" style="fill:none;stroke:#000000;stroke-linecap:square;stroke-width:2;"/>
   </g>
   <g id="line2d_4">
    <path clip-path="url(#p20ccdd6480)" d="M 120.8275 89.0118 
L 120.8275 43.5608 
" style="fill:none;stroke:#6fa4ff;stroke-linecap:square;stroke-width:2;"/>
   </g>
   <g id="line2d_5">
    <path clip-path="url(#p20ccdd6480)" d="M 166.2785 134.4628 
L 166.2785 89.0118 
" style="fill:none;stroke:#6fa4ff;stroke-linecap:square;stroke-width:2;"/>
   </g>
   <g id="line2d_6">
    <path clip-path="url(#p20ccdd6480)" d="M 211.7295 89.0118 
L 211.7295 43.5608 
" style="fill:none;stroke:#6fa4ff;stroke-linecap:square;stroke-width:2;"/>
   </g>
   <g id="line2d_7">
    <path clip-path="url(#p20ccdd6480)" d="M 257.1805 134.4628 
L 257.1805 89.0118 
" style="fill:none;stroke:#6fa4ff;stroke-linecap:square;stroke-width:2;"/>
   </g>
   <g id="patch_2">
    <path clip-path="url(#p20ccdd6480)" d="M 120.8275 47.992273 
C 122.00274 47.992273 123.130004 47.525345 123.961024 46.694324 
C 124.792045 45.863304 125.258972 44.73604 125.258972 43.5608 
C 125.258972 42.38556 124.792045 41.258296 123.961024 40.427276 
C 123.130004 39.596255 122.00274 39.129328 120.8275 39.129328 
C 119.65226 39.129328 118.524996 39.596255 117.693976 40.427276 
C 116.862955 41.258296 116.396027 42.38556 116.396027 43.5608 
C 116.396027 44.73604 116.862955 45.863304 117.693976 46.694324 
C 118.524996 47.525345 119.65226 47.992273 120.8275 47.992273 
z
" style="fill:#6fa4ff;stroke:#6fa4ff;stroke-linejoin:miter;stroke-width:1.5;"/>
   </g>
   <g id="patch_3">
    <path clip-path="url(#p20ccdd6480)" d="M 120.8275 99.351903 
C 123.569727 99.351903 126.200009 98.262404 128.139057 96.323357 
C 130.078104 94.384309 131.167602 91.754027 131.167602 89.0118 
C 131.167602 86.269573 130.078104 83.639291 128.139057 81.700243 
C 126.200009 79.761196 123.569727 78.671698 120.8275 78.671698 
C 118.085273 78.671698 115.454991 79.761196 113.515943 81.700243 
C 111.576896 83.639291 110.487397 86.269573 110.487397 89.0118 
C 110.487397 91.754027 111.576896 94.384309 113.515943 96.323357 
C 115.454991 98.262404 118.085273 99.351903 120.8275 99.351903 
z
" style="fill:#6fa4ff;stroke:#6fa4ff;stroke-linejoin:miter;stroke-width:2;"/>
   </g>
   <g id="patch_4">
    <path clip-path="url(#p20ccdd6480)" d="M 166.2785 93.443273 
C 167.45374 93.443273 168.581004 92.976345 169.412024 92.145324 
C 170.243045 91.314304 170.709972 90.18704 170.709972 89.0118 
C 170.709972 87.83656 170.243045 86.709296 169.412024 85.878276 
C 168.581004 85.047255 167.45374 84.580328 166.2785 84.580328 
C 165.10326 84.580328 163.975996 85.047255 163.144976 85.878276 
C 162.313955 86.709296 161.847027 87.83656 161.847027 89.0118 
C 161.847027 90.18704 162.313955 91.314304 163.144976 92.145324 
C 163.975996 92.976345 165.10326 93.443273 166.2785 93.443273 
z
" style="fill:#6fa4ff;stroke:#6fa4ff;stroke-linejoin:miter;stroke-width:1.5;"/>
   </g>
   <g id="patch_5">
    <path clip-path="url(#p20ccdd6480)" d="M 166.2785 144.802902 
C 169.020727 144.802902 171.651009 143.713404 173.590057 141.774357 
C 175.529104 139.835309 176.618602 137.205027 176.618602 134.4628 
C 176.618602 131.720573 175.529104 129.090291 173.590057 127.151243 
C 171.651009 125.212196 169.020727 124.122697 166.2785 124.122697 
C 163.536273 124.122697 160.905991 125.212196 158.966943 127.151243 
C 157.027896 129.090291 155.938397 131.720573 155.938397 134.4628 
C 155.938397 137.205027 157.027896 139.835309 158.966943 141.774357 
C 160.905991 143.713404 163.536273 144.802902 166.2785 144.802902 
z
" style="fill:#6fa4ff;stroke:#6fa4ff;stroke-linejoin:miter;stroke-width:2;"/>
   </g>
   <g id="patch_6">
    <path clip-path="url(#p20ccdd6480)" d="M 211.7295 47.992273 
C 212.90474 47.992273 214.032004 47.525345 214.863024 46.694324 
C 215.694045 45.863304 216.160972 44.73604 216.160972 43.5608 
C 216.160972 42.38556 215.694045 41.258296 214.863024 40.427276 
C 214.032004 39.596255 212.90474 39.129328 211.7295 39.129328 
C 210.55426 39.129328 209.426996 39.596255 208.595976 40.427276 
C 207.764955 41.258296 207.298027 42.38556 207.298027 43.5608 
C 207.298027 44.73604 207.764955 45.863304 208.595976 46.694324 
C 209.426996 47.525345 210.55426 47.992273 211.7295 47.992273 
z
" style="fill:#6fa4ff;stroke:#6fa4ff;stroke-linejoin:miter;stroke-width:1.5;"/>
   </g>
   <g id="patch_7">
    <path clip-path="url(#p20ccdd6480)" d="M 211.7295 99.351903 
C 214.471727 99.351903 217.102009 98.262404 219.041057 96.323357 
C 220.980104 94.384309 222.069602 91.754027 222.069602 89.0118 
C 222.069602 86.269573 220.980104 83.639291 219.041057 81.700243 
C 217.102009 79.761196 214.471727 78.671698 211.7295 78.671698 
C 208.987273 78.671698 206.356991 79.761196 204.417943 81.700243 
C 202.478896 83.639291 201.389397 86.269573 201.389397 89.0118 
C 201.389397 91.754027 202.478896 94.384309 204.417943 96.323357 
C 206.356991 98.262404 208.987273 99.351903 211.7295 99.351903 
z
" style="fill:#6fa4ff;stroke:#6fa4ff;stroke-linejoin:miter;stroke-width:2;"/>
   </g>
   <g id="patch_8">
    <path clip-path="url(#p20ccdd6480)" d="M 257.1805 93.443273 
C 258.35574 93.443273 259.483004 92.976345 260.314024 92.145324 
C 261.145045 91.314304 261.611972 90.18704 261.611972 89.0118 
C 261.611972 87.83656 261.145045 86.709296 260.314024 85.878276 
C 259.483004 85.047255 258.35574 84.580328 257.1805 84.580328 
C 256.00526 84.580328 254.877996 85.047255 254.046976 85.878276 
C 253.215955 86.709296 252.749027 87.83656 252.749027 89.0118 
C 252.749027 90.18704 253.215955 91.314304 254.046976 92.145324 
C 254.877996 92.976345 256.00526 93.443273 257.1805 93.443273 
z
" style="fill:#6fa4ff;stroke:#6fa4ff;stroke-linejoin:miter;stroke-width:1.5;"/>
   </g>
   <g id="patch_9">
    <path clip-path="url(#p20ccdd6480)" d="M 257.1805 144.802902 
C 259.922727 144.802902 262.553009 143.713404 264.492057 141.774357 
C 266.431104 139.835309 267.520602 137.205027 267.520602 134.4628 
C 267.520602 131.720573 266.431104 129.090291 264.492057 127.151243 
C 262.553009 125.212196 259.922727 124.122697 257.1805 124.122697 
C 254.438273 124.122697 251.807991 125.212196 249.868943 127.151243 
C 247.929896 129.090291 246.840397 131.720573 246.840397 134.4628 
C 246.840397 137.205027 247.929896 139.835309 249.868943 141.774357 
C 251.807991 143.713404 254.438273 144.802902 257.1805 144.802902 
z
" style="fill:#6fa4ff;stroke:#6fa4ff;stroke-linejoin:miter;stroke-width:2;"/>
   </g>
   <g id="line2d_8">
    <path clip-path="url(#p20ccdd6480)" d="M 120.8275 94.92043 
L 120.8275 83.10317 
" style="fill:none;stroke:#ffffff;stroke-linecap:square;stroke-width:2;"/>
   </g>
   <g id="line2d_9">
    <path clip-path="url(#p20ccdd6480)" d="M 114.91887 89.0118 
L 126.73613 89.0118 
" style="fill:none;stroke:#ffffff;stroke-linecap:square;stroke-width:2;"/>
   </g>
   <g id="line2d_10">
    <path clip-path="url(#p20ccdd6480)" d="M 166.2785 140.37143 
L 166.2785 128.55417 
" style="fill:none;stroke:#ffffff;stroke-linecap:square;stroke-width:2;"/>
   </g>
   <g id="line2d_11">
    <path clip-path="url(#p20ccdd6480)" d="M 160.36987 134.4628 
L 172.18713 134.4628 
" style="fill:none;stroke:#ffffff;stroke-linecap:square;stroke-width:2;"/>
   </g>
   <g id="line2d_12">
    <path clip-path="url(#p20ccdd6480)" d="M 211.7295 94.92043 
L 211.7295 83.10317 
" style="fill:none;stroke:#ffffff;stroke-linecap:square;stroke-width:2;"/>
   </g>
   <g id="line2d_13">
    <path clip-path="url(#p20ccdd6480)" d="M 205.82087 89.0118 
L 217.63813 89.0118 
" style="fill:none;stroke:#ffffff;stroke-linecap:square;stroke-width:2;"/>
   </g>
   <g id="line2d_14">
    <path clip-path="url(#p20ccdd6480)" d="M 257.1805 140.37143 
L 257.1805 128.55417 
" style="fill:none;stroke:#ffffff;stroke-linecap:square;stroke-width:2;"/>
   </g>
   <g id="line2d_15">
    <path clip-path="url(#p20ccdd6480)" d="M 251.27187 134.4628 
L 263.08913 134.4628 
" style="fill:none;stroke:#ffffff;stroke-linecap:square;stroke-width:2;"/>
   </g>
   <g id="text_1">
    <g clip-path="url(#p20ccdd6480)">
     <!-- $q_{0}$ -->
     <defs>
      <path d="M 41.703125 8.203125 
Q 38.09375 3.46875 33.171875 1.015625 
Q 28.265625 -1.421875 22.3125 -1.421875 
Q 14.015625 -1.421875 9.296875 4.171875 
Q 4.59375 9.765625 4.59375 19.578125 
Q 4.59375 27.484375 7.5 34.859375 
Q 10.40625 42.234375 15.828125 48.09375 
Q 19.34375 51.90625 23.90625 53.953125 
Q 28.46875 56 33.5 56 
Q 39.546875 56 43.453125 53.609375 
Q 47.359375 51.21875 49.125 46.390625 
L 50.6875 54.59375 
L 59.71875 54.59375 
L 45.125 -20.609375 
L 36.078125 -20.609375 
z
M 13.921875 20.90625 
Q 13.921875 13.671875 16.9375 9.890625 
Q 19.96875 6.109375 25.6875 6.109375 
Q 34.1875 6.109375 40.1875 14.234375 
Q 46.1875 22.359375 46.1875 33.984375 
Q 46.1875 41.015625 43.078125 44.75 
Q 39.984375 48.484375 34.1875 48.484375 
Q 29.9375 48.484375 26.3125 46.5 
Q 22.703125 44.53125 20.015625 40.71875 
Q 17.1875 36.71875 15.546875 31.34375 
Q 13.921875 25.984375 13.921875 20.90625 
z
" id="DejaVuSans-Oblique-113"/>
      <path d="M 31.78125 66.40625 
Q 24.171875 66.40625 20.328125 58.90625 
Q 16.5 51.421875 16.5 36.375 
Q 16.5 21.390625 20.328125 13.890625 
Q 24.171875 6.390625 31.78125 6.390625 
Q 39.453125 6.390625 43.28125 13.890625 
Q 47.125 21.390625 47.125 36.375 
Q 47.125 51.421875 43.28125 58.90625 
Q 39.453125 66.40625 31.78125 66.40625 
z
M 31.78125 74.21875 
Q 44.046875 74.21875 50.515625 64.515625 
Q 56.984375 54.828125 56.984375 36.375 
Q 56.984375 17.96875 50.515625 8.265625 
Q 44.046875 -1.421875 31.78125 -1.421875 
Q 19.53125 -1.421875 13.0625 8.265625 
Q 6.59375 17.96875 6.59375 36.375 
Q 6.59375 54.828125 13.0625 64.515625 
Q 19.53125 74.21875 31.78125 74.21875 
z
" id="DejaVuSans-48"/>
     </defs>
     <g transform="translate(57.339 48.011777)scale(0.1625 -0.1625)">
      <use xlink:href="#DejaVuSans-Oblique-113"/>
      <use transform="translate(63.476562 -16.40625)scale(0.7)" xlink:href="#DejaVuSans-48"/>
     </g>
    </g>
   </g>
   <g id="text_2">
    <g clip-path="url(#p20ccdd6480)">
     <!-- $q_{1}$ -->
     <defs>
      <path d="M 12.40625 8.296875 
L 28.515625 8.296875 
L 28.515625 63.921875 
L 10.984375 60.40625 
L 10.984375 69.390625 
L 28.421875 72.90625 
L 38.28125 72.90625 
L 38.28125 8.296875 
L 54.390625 8.296875 
L 54.390625 0 
L 12.40625 0 
z
" id="DejaVuSans-49"/>
     </defs>
     <g transform="translate(57.339 93.462777)scale(0.1625 -0.1625)">
      <use xlink:href="#DejaVuSans-Oblique-113"/>
      <use transform="translate(63.476562 -16.40625)scale(0.7)" xlink:href="#DejaVuSans-49"/>
     </g>
    </g>
   </g>
   <g id="text_3">
    <g clip-path="url(#p20ccdd6480)">
     <!-- $q_{2}$ -->
     <defs>
      <path d="M 19.1875 8.296875 
L 53.609375 8.296875 
L 53.609375 0 
L 7.328125 0 
L 7.328125 8.296875 
Q 12.9375 14.109375 22.625 23.890625 
Q 32.328125 33.6875 34.8125 36.53125 
Q 39.546875 41.84375 41.421875 45.53125 
Q 43.3125 49.21875 43.3125 52.78125 
Q 43.3125 58.59375 39.234375 62.25 
Q 35.15625 65.921875 28.609375 65.921875 
Q 23.96875 65.921875 18.8125 64.3125 
Q 13.671875 62.703125 7.8125 59.421875 
L 7.8125 69.390625 
Q 13.765625 71.78125 18.9375 73 
Q 24.125 74.21875 28.421875 74.21875 
Q 39.75 74.21875 46.484375 68.546875 
Q 53.21875 62.890625 53.21875 53.421875 
Q 53.21875 48.921875 51.53125 44.890625 
Q 49.859375 40.875 45.40625 35.40625 
Q 44.1875 33.984375 37.640625 27.21875 
Q 31.109375 20.453125 19.1875 8.296875 
z
" id="DejaVuSans-50"/>
     </defs>
     <g transform="translate(57.339 138.913777)scale(0.1625 -0.1625)">
      <use xlink:href="#DejaVuSans-Oblique-113"/>
      <use transform="translate(63.476562 -16.40625)scale(0.7)" xlink:href="#DejaVuSans-50"/>
     </g>
    </g>
   </g>
  </g>
 </g>
 <defs>
  <clipPath id="p20ccdd6480">
   <rect height="154.5334" width="299.9766" x="7.2" y="7.2"/>
  </clipPath>
 </defs>
</svg>
