<svg width="392" height="191" viewBox="0 0 392 191" fill="none" xmlns="http://www.w3.org/2000/svg">
<rect x="1" y="44" width="71" height="23" fill="#F2F4F8"/>
<rect x="294" y="44" width="71" height="23" fill="#6929C4"/>
<rect x="74" y="44" width="218" height="23" fill="#F2F4F8"/>
<path d="M66.7071 137.707C67.0976 137.317 67.0976 136.683 66.7071 136.293L60.3431 129.929C59.9526 129.538 59.3195 129.538 58.9289 129.929C58.5384 130.319 58.5384 130.953 58.9289 131.343L64.5858 137L58.9289 142.657C58.5384 143.047 58.5384 143.681 58.9289 144.071C59.3195 144.462 59.9526 144.462 60.3431 144.071L66.7071 137.707ZM43 138L66 138L66 136L43 136L43 138Z" fill="#343A3F"/>
<path d="M322.707 137.707C323.098 137.317 323.098 136.683 322.707 136.293L316.343 129.929C315.953 129.538 315.319 129.538 314.929 129.929C314.538 130.319 314.538 130.953 314.929 131.343L320.586 137L314.929 142.657C314.538 143.047 314.538 143.681 314.929 144.071C315.319 144.462 315.953 144.462 316.343 144.071L322.707 137.707ZM299 138L322 138L322 136L299 136L299 138Z" fill="#343A3F"/>
<rect x="74" y="85" width="218" height="105" fill="#DDE1E6" stroke="#C1C7CD" stroke-linecap="round" stroke-dasharray="2 2"/>
<path d="M91.7735 109C91.4602 109 91.2368 108.92 91.1035 108.76C90.9702 108.6 90.8868 108.4 90.8535 108.16H90.8035C90.6902 108.46 90.5068 108.697 90.2535 108.87C90.0068 109.037 89.6735 109.12 89.2535 109.12C88.7135 109.12 88.2835 108.98 87.9635 108.7C87.6435 108.42 87.4835 108.037 87.4835 107.55C87.4835 107.07 87.6568 106.7 88.0035 106.44C88.3568 106.18 88.9235 106.05 89.7035 106.05H90.8035V105.54C90.8035 105.16 90.6968 104.877 90.4835 104.69C90.2702 104.497 89.9668 104.4 89.5735 104.4C89.2268 104.4 88.9435 104.47 88.7235 104.61C88.5035 104.743 88.3268 104.927 88.1935 105.16L87.6535 104.76C87.7202 104.627 87.8102 104.497 87.9235 104.37C88.0368 104.243 88.1768 104.133 88.3435 104.04C88.5102 103.94 88.7002 103.863 88.9135 103.81C89.1268 103.75 89.3635 103.72 89.6235 103.72C90.2302 103.72 90.7102 103.873 91.0635 104.18C91.4235 104.487 91.6035 104.913 91.6035 105.46V108.3H92.3235V109H91.7735ZM89.3935 108.45C89.6002 108.45 89.7868 108.427 89.9535 108.38C90.1268 108.327 90.2768 108.26 90.4035 108.18C90.5302 108.093 90.6268 107.993 90.6935 107.88C90.7668 107.76 90.8035 107.633 90.8035 107.5V106.65H89.7035C89.2235 106.65 88.8735 106.717 88.6535 106.85C88.4335 106.983 88.3235 107.177 88.3235 107.43V107.64C88.3235 107.907 88.4168 108.11 88.6035 108.25C88.7968 108.383 89.0602 108.45 89.3935 108.45ZM97.3896 108.16H97.3496C97.0162 108.8 96.4862 109.12 95.7596 109.12C95.1262 109.12 94.6296 108.883 94.2696 108.41C93.9162 107.937 93.7396 107.273 93.7396 106.42C93.7396 105.567 93.9162 104.903 94.2696 104.43C94.6296 103.957 95.1262 103.72 95.7596 103.72C96.4862 103.72 97.0162 104.04 97.3496 104.68H97.3896V101.6H98.1896V109H97.3896V108.16ZM96.0696 108.41C96.2496 108.41 96.4196 108.387 96.5796 108.34C96.7396 108.293 96.8796 108.227 96.9996 108.14C97.1196 108.047 97.2129 107.937 97.2796 107.81C97.3529 107.677 97.3896 107.523 97.3896 107.35V105.49C97.3896 105.317 97.3529 105.167 97.2796 105.04C97.2129 104.907 97.1196 104.797 96.9996 104.71C96.8796 104.617 96.7396 104.547 96.5796 104.5C96.4196 104.453 96.2496 104.43 96.0696 104.43C95.6029 104.43 95.2396 104.573 94.9796 104.86C94.7262 105.14 94.5996 105.513 94.5996 105.98V106.86C94.5996 107.327 94.7262 107.703 94.9796 107.99C95.2396 108.27 95.6029 108.41 96.0696 108.41ZM103.706 108.16H103.666C103.332 108.8 102.802 109.12 102.076 109.12C101.442 109.12 100.946 108.883 100.586 108.41C100.232 107.937 100.056 107.273 100.056 106.42C100.056 105.567 100.232 104.903 100.586 104.43C100.946 103.957 101.442 103.72 102.076 103.72C102.802 103.72 103.332 104.04 103.666 104.68H103.706V101.6H104.506V109H103.706V108.16ZM102.386 108.41C102.566 108.41 102.736 108.387 102.896 108.34C103.056 108.293 103.196 108.227 103.316 108.14C103.436 108.047 103.529 107.937 103.596 107.81C103.669 107.677 103.706 107.523 103.706 107.35V105.49C103.706 105.317 103.669 105.167 103.596 105.04C103.529 104.907 103.436 104.797 103.316 104.71C103.196 104.617 103.056 104.547 102.896 104.5C102.736 104.453 102.566 104.43 102.386 104.43C101.919 104.43 101.556 104.573 101.296 104.86C101.042 105.14 100.916 105.513 100.916 105.98V106.86C100.916 107.327 101.042 107.703 101.296 107.99C101.556 108.27 101.919 108.41 102.386 108.41ZM109.092 102.7C108.858 102.7 108.695 102.653 108.602 102.56C108.508 102.46 108.462 102.337 108.462 102.19V102.03C108.462 101.883 108.508 101.763 108.602 101.67C108.695 101.57 108.858 101.52 109.092 101.52C109.325 101.52 109.488 101.57 109.582 101.67C109.675 101.763 109.722 101.883 109.722 102.03V102.19C109.722 102.337 109.675 102.46 109.582 102.56C109.488 102.653 109.325 102.7 109.092 102.7ZM106.832 108.32H108.692V104.52H106.832V103.84H109.492V108.32H111.232V109H106.832V108.32ZM113.068 109V103.84H113.868V104.68H113.908C113.961 104.553 114.028 104.433 114.108 104.32C114.188 104.2 114.285 104.097 114.398 104.01C114.518 103.923 114.658 103.853 114.818 103.8C114.978 103.747 115.165 103.72 115.378 103.72C115.918 103.72 116.351 103.893 116.678 104.24C117.005 104.58 117.168 105.063 117.168 105.69V109H116.368V105.83C116.368 105.357 116.265 105.007 116.058 104.78C115.851 104.547 115.548 104.43 115.148 104.43C114.988 104.43 114.831 104.45 114.678 104.49C114.525 104.53 114.388 104.59 114.268 104.67C114.148 104.75 114.051 104.853 113.978 104.98C113.905 105.107 113.868 105.253 113.868 105.42V109H113.068ZM124.014 109.59C124.014 110.11 123.797 110.493 123.364 110.74C122.931 110.993 122.281 111.12 121.414 111.12C120.581 111.12 119.981 111.01 119.614 110.79C119.254 110.57 119.074 110.253 119.074 109.84C119.074 109.56 119.147 109.343 119.294 109.19C119.441 109.037 119.647 108.923 119.914 108.85V108.73C119.767 108.657 119.654 108.563 119.574 108.45C119.494 108.337 119.454 108.193 119.454 108.02C119.454 107.753 119.541 107.553 119.714 107.42C119.894 107.287 120.117 107.187 120.384 107.12V107.08C120.064 106.94 119.814 106.733 119.634 106.46C119.461 106.187 119.374 105.867 119.374 105.5C119.374 105.24 119.421 105 119.514 104.78C119.607 104.56 119.741 104.373 119.914 104.22C120.094 104.06 120.307 103.937 120.554 103.85C120.801 103.763 121.074 103.72 121.374 103.72C121.761 103.72 122.101 103.79 122.394 103.93V103.84C122.394 103.64 122.441 103.473 122.534 103.34C122.627 103.207 122.787 103.14 123.014 103.14H123.964V103.84H122.804V104.19C122.991 104.35 123.134 104.54 123.234 104.76C123.334 104.98 123.384 105.227 123.384 105.5C123.384 105.76 123.334 106 123.234 106.22C123.141 106.44 123.007 106.63 122.834 106.79C122.661 106.943 122.447 107.063 122.194 107.15C121.947 107.237 121.674 107.28 121.374 107.28C121.287 107.28 121.204 107.277 121.124 107.27C121.044 107.263 120.964 107.253 120.884 107.24C120.804 107.253 120.721 107.277 120.634 107.31C120.547 107.337 120.467 107.377 120.394 107.43C120.321 107.477 120.261 107.533 120.214 107.6C120.167 107.667 120.144 107.743 120.144 107.83C120.144 107.983 120.221 108.087 120.374 108.14C120.527 108.187 120.727 108.21 120.974 108.21H122.114C122.781 108.21 123.264 108.337 123.564 108.59C123.864 108.837 124.014 109.17 124.014 109.59ZM123.264 109.63C123.264 109.423 123.181 109.257 123.014 109.13C122.847 109.01 122.557 108.95 122.144 108.95H120.354C120.007 109.09 119.834 109.323 119.834 109.65C119.834 109.877 119.924 110.07 120.104 110.23C120.284 110.397 120.584 110.48 121.004 110.48H121.784C122.251 110.48 122.614 110.407 122.874 110.26C123.134 110.12 123.264 109.91 123.264 109.63ZM121.374 106.66C121.774 106.66 122.067 106.567 122.254 106.38C122.447 106.193 122.544 105.947 122.544 105.64V105.35C122.544 105.043 122.447 104.8 122.254 104.62C122.067 104.433 121.774 104.34 121.374 104.34C120.974 104.34 120.681 104.433 120.494 104.62C120.307 104.8 120.214 105.043 120.214 105.35V105.64C120.214 105.947 120.307 106.193 120.494 106.38C120.681 106.567 120.974 106.66 121.374 106.66ZM135.986 109C135.673 109 135.449 108.92 135.316 108.76C135.183 108.6 135.099 108.4 135.066 108.16H135.016C134.903 108.46 134.719 108.697 134.466 108.87C134.219 109.037 133.886 109.12 133.466 109.12C132.926 109.12 132.496 108.98 132.176 108.7C131.856 108.42 131.696 108.037 131.696 107.55C131.696 107.07 131.869 106.7 132.216 106.44C132.569 106.18 133.136 106.05 133.916 106.05H135.016V105.54C135.016 105.16 134.909 104.877 134.696 104.69C134.483 104.497 134.179 104.4 133.786 104.4C133.439 104.4 133.156 104.47 132.936 104.61C132.716 104.743 132.539 104.927 132.406 105.16L131.866 104.76C131.933 104.627 132.023 104.497 132.136 104.37C132.249 104.243 132.389 104.133 132.556 104.04C132.723 103.94 132.913 103.863 133.126 103.81C133.339 103.75 133.576 103.72 133.836 103.72C134.443 103.72 134.923 103.873 135.276 104.18C135.636 104.487 135.816 104.913 135.816 105.46V108.3H136.536V109H135.986ZM133.606 108.45C133.813 108.45 133.999 108.427 134.166 108.38C134.339 108.327 134.489 108.26 134.616 108.18C134.743 108.093 134.839 107.993 134.906 107.88C134.979 107.76 135.016 107.633 135.016 107.5V106.65H133.916C133.436 106.65 133.086 106.717 132.866 106.85C132.646 106.983 132.536 107.177 132.536 107.43V107.64C132.536 107.907 132.629 108.11 132.816 108.25C133.009 108.383 133.273 108.45 133.606 108.45ZM138.152 108.32H139.952V102.28H138.152V101.6H140.752V108.32H142.552V109H138.152V108.32ZM149.278 109.59C149.278 110.11 149.062 110.493 148.628 110.74C148.195 110.993 147.545 111.12 146.678 111.12C145.845 111.12 145.245 111.01 144.878 110.79C144.518 110.57 144.338 110.253 144.338 109.84C144.338 109.56 144.412 109.343 144.558 109.19C144.705 109.037 144.912 108.923 145.178 108.85V108.73C145.032 108.657 144.918 108.563 144.838 108.45C144.758 108.337 144.718 108.193 144.718 108.02C144.718 107.753 144.805 107.553 144.978 107.42C145.158 107.287 145.382 107.187 145.648 107.12V107.08C145.328 106.94 145.078 106.733 144.898 106.46C144.725 106.187 144.638 105.867 144.638 105.5C144.638 105.24 144.685 105 144.778 104.78C144.872 104.56 145.005 104.373 145.178 104.22C145.358 104.06 145.572 103.937 145.818 103.85C146.065 103.763 146.338 103.72 146.638 103.72C147.025 103.72 147.365 103.79 147.658 103.93V103.84C147.658 103.64 147.705 103.473 147.798 103.34C147.892 103.207 148.052 103.14 148.278 103.14H149.228V103.84H148.068V104.19C148.255 104.35 148.398 104.54 148.498 104.76C148.598 104.98 148.648 105.227 148.648 105.5C148.648 105.76 148.598 106 148.498 106.22C148.405 106.44 148.272 106.63 148.098 106.79C147.925 106.943 147.712 107.063 147.458 107.15C147.212 107.237 146.938 107.28 146.638 107.28C146.552 107.28 146.468 107.277 146.388 107.27C146.308 107.263 146.228 107.253 146.148 107.24C146.068 107.253 145.985 107.277 145.898 107.31C145.812 107.337 145.732 107.377 145.658 107.43C145.585 107.477 145.525 107.533 145.478 107.6C145.432 107.667 145.408 107.743 145.408 107.83C145.408 107.983 145.485 108.087 145.638 108.14C145.792 108.187 145.992 108.21 146.238 108.21H147.378C148.045 108.21 148.528 108.337 148.828 108.59C149.128 108.837 149.278 109.17 149.278 109.59ZM148.528 109.63C148.528 109.423 148.445 109.257 148.278 109.13C148.112 109.01 147.822 108.95 147.408 108.95H145.618C145.272 109.09 145.098 109.323 145.098 109.65C145.098 109.877 145.188 110.07 145.368 110.23C145.548 110.397 145.848 110.48 146.268 110.48H147.048C147.515 110.48 147.878 110.407 148.138 110.26C148.398 110.12 148.528 109.91 148.528 109.63ZM146.638 106.66C147.038 106.66 147.332 106.567 147.518 106.38C147.712 106.193 147.808 105.947 147.808 105.64V105.35C147.808 105.043 147.712 104.8 147.518 104.62C147.332 104.433 147.038 104.34 146.638 104.34C146.238 104.34 145.945 104.433 145.758 104.62C145.572 104.8 145.478 105.043 145.478 105.35V105.64C145.478 105.947 145.572 106.193 145.758 106.38C145.945 106.567 146.238 106.66 146.638 106.66ZM152.984 109.12C152.624 109.12 152.298 109.057 152.004 108.93C151.718 108.803 151.471 108.623 151.264 108.39C151.064 108.15 150.911 107.867 150.804 107.54C150.698 107.207 150.644 106.833 150.644 106.42C150.644 106.013 150.698 105.643 150.804 105.31C150.911 104.977 151.064 104.693 151.264 104.46C151.471 104.22 151.718 104.037 152.004 103.91C152.298 103.783 152.624 103.72 152.984 103.72C153.344 103.72 153.668 103.783 153.954 103.91C154.248 104.037 154.494 104.22 154.694 104.46C154.901 104.693 155.058 104.977 155.164 105.31C155.271 105.643 155.324 106.013 155.324 106.42C155.324 106.833 155.271 107.207 155.164 107.54C155.058 107.867 154.901 108.15 154.694 108.39C154.494 108.623 154.248 108.803 153.954 108.93C153.668 109.057 153.344 109.12 152.984 109.12ZM152.984 108.43C153.431 108.43 153.791 108.297 154.064 108.03C154.338 107.763 154.474 107.35 154.474 106.79V106.05C154.474 105.49 154.338 105.077 154.064 104.81C153.791 104.543 153.431 104.41 152.984 104.41C152.538 104.41 152.178 104.543 151.904 104.81C151.631 105.077 151.494 105.49 151.494 106.05V106.79C151.494 107.35 151.631 107.763 151.904 108.03C152.178 108.297 152.538 108.43 152.984 108.43ZM157.071 108.32H158.581V104.52H157.071V103.84H159.381V105.14H159.431C159.537 104.733 159.737 104.417 160.031 104.19C160.331 103.957 160.711 103.84 161.171 103.84H161.891V104.64H160.921C160.461 104.64 160.087 104.773 159.801 105.04C159.521 105.307 159.381 105.657 159.381 106.09V108.32H161.381V109H157.071V108.32ZM165.937 102.7C165.703 102.7 165.54 102.653 165.447 102.56C165.353 102.46 165.307 102.337 165.307 102.19V102.03C165.307 101.883 165.353 101.763 165.447 101.67C165.54 101.57 165.703 101.52 165.937 101.52C166.17 101.52 166.333 101.57 166.427 101.67C166.52 101.763 166.567 101.883 166.567 102.03V102.19C166.567 102.337 166.52 102.46 166.427 102.56C166.333 102.653 166.17 102.7 165.937 102.7ZM163.677 108.32H165.537V104.52H163.677V103.84H166.337V108.32H168.077V109H163.677V108.32ZM172.183 109C171.789 109 171.499 108.89 171.313 108.67C171.133 108.45 171.043 108.167 171.043 107.82V104.52H169.323V103.84H170.603C170.776 103.84 170.896 103.807 170.963 103.74C171.036 103.667 171.073 103.543 171.073 103.37V102.02H171.843V103.84H174.193V104.52H171.843V108.32H174.193V109H172.183ZM176.229 101.6H177.029V104.68H177.069C177.122 104.553 177.189 104.433 177.269 104.32C177.349 104.2 177.445 104.097 177.559 104.01C177.679 103.923 177.819 103.853 177.979 103.8C178.139 103.747 178.325 103.72 178.539 103.72C179.079 103.72 179.512 103.893 179.839 104.24C180.165 104.58 180.329 105.063 180.329 105.69V109H179.529V105.83C179.529 105.357 179.425 105.007 179.219 104.78C179.012 104.547 178.709 104.43 178.309 104.43C178.149 104.43 177.992 104.45 177.839 104.49C177.685 104.53 177.549 104.59 177.429 104.67C177.309 104.75 177.212 104.853 177.139 104.98C177.065 105.107 177.029 105.253 177.029 105.42V109H176.229V101.6ZM182.105 109V103.84H182.845V104.44H182.885C182.965 104.24 183.078 104.07 183.225 103.93C183.372 103.79 183.588 103.72 183.875 103.72C184.175 103.72 184.398 103.797 184.545 103.95C184.692 104.097 184.782 104.29 184.815 104.53H184.845C184.938 104.297 185.072 104.103 185.245 103.95C185.418 103.797 185.658 103.72 185.965 103.72C186.385 103.72 186.665 103.867 186.805 104.16C186.952 104.453 187.025 104.873 187.025 105.42V109H186.285V105.55C186.285 105.11 186.238 104.807 186.145 104.64C186.058 104.467 185.895 104.38 185.655 104.38C185.442 104.38 185.268 104.45 185.135 104.59C185.002 104.723 184.935 104.93 184.935 105.21V109H184.195V105.55C184.195 105.11 184.148 104.807 184.055 104.64C183.968 104.467 183.808 104.38 183.575 104.38C183.362 104.38 183.185 104.45 183.045 104.59C182.912 104.723 182.845 104.93 182.845 105.21V109H182.105ZM199.807 109.59C199.807 110.11 199.59 110.493 199.157 110.74C198.724 110.993 198.074 111.12 197.207 111.12C196.374 111.12 195.774 111.01 195.407 110.79C195.047 110.57 194.867 110.253 194.867 109.84C194.867 109.56 194.94 109.343 195.087 109.19C195.234 109.037 195.44 108.923 195.707 108.85V108.73C195.56 108.657 195.447 108.563 195.367 108.45C195.287 108.337 195.247 108.193 195.247 108.02C195.247 107.753 195.334 107.553 195.507 107.42C195.687 107.287 195.91 107.187 196.177 107.12V107.08C195.857 106.94 195.607 106.733 195.427 106.46C195.254 106.187 195.167 105.867 195.167 105.5C195.167 105.24 195.214 105 195.307 104.78C195.4 104.56 195.534 104.373 195.707 104.22C195.887 104.06 196.1 103.937 196.347 103.85C196.594 103.763 196.867 103.72 197.167 103.72C197.554 103.72 197.894 103.79 198.187 103.93V103.84C198.187 103.64 198.234 103.473 198.327 103.34C198.42 103.207 198.58 103.14 198.807 103.14H199.757V103.84H198.597V104.19C198.784 104.35 198.927 104.54 199.027 104.76C199.127 104.98 199.177 105.227 199.177 105.5C199.177 105.76 199.127 106 199.027 106.22C198.934 106.44 198.8 106.63 198.627 106.79C198.454 106.943 198.24 107.063 197.987 107.15C197.74 107.237 197.467 107.28 197.167 107.28C197.08 107.28 196.997 107.277 196.917 107.27C196.837 107.263 196.757 107.253 196.677 107.24C196.597 107.253 196.514 107.277 196.427 107.31C196.34 107.337 196.26 107.377 196.187 107.43C196.114 107.477 196.054 107.533 196.007 107.6C195.96 107.667 195.937 107.743 195.937 107.83C195.937 107.983 196.014 108.087 196.167 108.14C196.32 108.187 196.52 108.21 196.767 108.21H197.907C198.574 108.21 199.057 108.337 199.357 108.59C199.657 108.837 199.807 109.17 199.807 109.59ZM199.057 109.63C199.057 109.423 198.974 109.257 198.807 109.13C198.64 109.01 198.35 108.95 197.937 108.95H196.147C195.8 109.09 195.627 109.323 195.627 109.65C195.627 109.877 195.717 110.07 195.897 110.23C196.077 110.397 196.377 110.48 196.797 110.48H197.577C198.044 110.48 198.407 110.407 198.667 110.26C198.927 110.12 199.057 109.91 199.057 109.63ZM197.167 106.66C197.567 106.66 197.86 106.567 198.047 106.38C198.24 106.193 198.337 105.947 198.337 105.64V105.35C198.337 105.043 198.24 104.8 198.047 104.62C197.86 104.433 197.567 104.34 197.167 104.34C196.767 104.34 196.474 104.433 196.287 104.62C196.1 104.8 196.007 105.043 196.007 105.35V105.64C196.007 105.947 196.1 106.193 196.287 106.38C196.474 106.567 196.767 106.66 197.167 106.66ZM203.513 109.12C203.153 109.12 202.827 109.057 202.533 108.93C202.247 108.803 202 108.623 201.793 108.39C201.593 108.15 201.44 107.867 201.333 107.54C201.227 107.207 201.173 106.833 201.173 106.42C201.173 106.013 201.227 105.643 201.333 105.31C201.44 104.977 201.593 104.693 201.793 104.46C202 104.22 202.247 104.037 202.533 103.91C202.827 103.783 203.153 103.72 203.513 103.72C203.873 103.72 204.197 103.783 204.483 103.91C204.777 104.037 205.023 104.22 205.223 104.46C205.43 104.693 205.587 104.977 205.693 105.31C205.8 105.643 205.853 106.013 205.853 106.42C205.853 106.833 205.8 107.207 205.693 107.54C205.587 107.867 205.43 108.15 205.223 108.39C205.023 108.623 204.777 108.803 204.483 108.93C204.197 109.057 203.873 109.12 203.513 109.12ZM203.513 108.43C203.96 108.43 204.32 108.297 204.593 108.03C204.867 107.763 205.003 107.35 205.003 106.79V106.05C205.003 105.49 204.867 105.077 204.593 104.81C204.32 104.543 203.96 104.41 203.513 104.41C203.067 104.41 202.707 104.543 202.433 104.81C202.16 105.077 202.023 105.49 202.023 106.05V106.79C202.023 107.35 202.16 107.763 202.433 108.03C202.707 108.297 203.067 108.43 203.513 108.43ZM209.919 109.12C209.546 109.12 209.209 109.057 208.909 108.93C208.616 108.803 208.363 108.623 208.149 108.39C207.943 108.15 207.783 107.867 207.669 107.54C207.556 107.207 207.499 106.837 207.499 106.43C207.499 106.017 207.556 105.643 207.669 105.31C207.789 104.977 207.953 104.693 208.159 104.46C208.366 104.22 208.613 104.037 208.899 103.91C209.193 103.783 209.516 103.72 209.869 103.72C210.216 103.72 210.529 103.783 210.809 103.91C211.096 104.037 211.339 104.213 211.539 104.44C211.739 104.66 211.893 104.923 211.999 105.23C212.106 105.537 212.159 105.873 212.159 106.24V106.62H208.339V106.86C208.339 107.087 208.376 107.297 208.449 107.49C208.523 107.683 208.626 107.85 208.759 107.99C208.899 108.13 209.066 108.24 209.259 108.32C209.459 108.393 209.679 108.43 209.919 108.43C210.266 108.43 210.566 108.35 210.819 108.19C211.073 108.03 211.266 107.81 211.399 107.53L211.989 107.93C211.836 108.277 211.579 108.563 211.219 108.79C210.866 109.01 210.433 109.12 209.919 109.12ZM209.869 104.38C209.649 104.38 209.446 104.42 209.259 104.5C209.073 104.58 208.909 104.69 208.769 104.83C208.636 104.97 208.529 105.137 208.449 105.33C208.376 105.517 208.339 105.723 208.339 105.95V106.02H211.299V105.91C211.299 105.683 211.263 105.477 211.189 105.29C211.123 105.103 211.026 104.943 210.899 104.81C210.779 104.67 210.629 104.563 210.449 104.49C210.276 104.417 210.083 104.38 209.869 104.38ZM216.205 109.12C215.665 109.12 215.199 109.03 214.805 108.85C214.419 108.663 214.089 108.417 213.815 108.11L214.355 107.64C214.602 107.9 214.872 108.1 215.165 108.24C215.459 108.38 215.812 108.45 216.225 108.45C216.625 108.45 216.952 108.38 217.205 108.24C217.465 108.093 217.595 107.867 217.595 107.56C217.595 107.427 217.569 107.317 217.515 107.23C217.469 107.137 217.402 107.063 217.315 107.01C217.229 106.957 217.132 106.917 217.025 106.89C216.919 106.857 216.805 106.83 216.685 106.81L215.875 106.69C215.695 106.663 215.499 106.627 215.285 106.58C215.079 106.533 214.889 106.46 214.715 106.36C214.542 106.253 214.395 106.113 214.275 105.94C214.162 105.767 214.105 105.54 214.105 105.26C214.105 105 214.155 104.777 214.255 104.59C214.362 104.397 214.509 104.237 214.695 104.11C214.882 103.977 215.102 103.88 215.355 103.82C215.609 103.753 215.885 103.72 216.185 103.72C216.652 103.72 217.055 103.793 217.395 103.94C217.742 104.087 218.039 104.29 218.285 104.55L217.765 105.04C217.705 104.967 217.629 104.893 217.535 104.82C217.449 104.74 217.339 104.67 217.205 104.61C217.079 104.543 216.929 104.49 216.755 104.45C216.582 104.41 216.382 104.39 216.155 104.39C215.749 104.39 215.435 104.46 215.215 104.6C215.002 104.74 214.895 104.943 214.895 105.21C214.895 105.343 214.919 105.457 214.965 105.55C215.019 105.637 215.089 105.707 215.175 105.76C215.262 105.813 215.359 105.857 215.465 105.89C215.579 105.917 215.692 105.94 215.805 105.96L216.615 106.08C216.802 106.107 216.999 106.143 217.205 106.19C217.412 106.237 217.602 106.313 217.775 106.42C217.949 106.52 218.092 106.657 218.205 106.83C218.325 107.003 218.385 107.23 218.385 107.51C218.385 108.023 218.185 108.42 217.785 108.7C217.392 108.98 216.865 109.12 216.205 109.12ZM226.758 101.6H227.558V104.68H227.598C227.651 104.553 227.718 104.433 227.798 104.32C227.878 104.2 227.974 104.097 228.088 104.01C228.208 103.923 228.348 103.853 228.508 103.8C228.668 103.747 228.854 103.72 229.068 103.72C229.608 103.72 230.041 103.893 230.368 104.24C230.694 104.58 230.858 105.063 230.858 105.69V109H230.058V105.83C230.058 105.357 229.954 105.007 229.748 104.78C229.541 104.547 229.238 104.43 228.838 104.43C228.678 104.43 228.521 104.45 228.368 104.49C228.214 104.53 228.078 104.59 227.958 104.67C227.838 104.75 227.741 104.853 227.668 104.98C227.594 105.107 227.558 105.253 227.558 105.42V109H226.758V101.6ZM235.184 109.12C234.81 109.12 234.474 109.057 234.174 108.93C233.88 108.803 233.627 108.623 233.414 108.39C233.207 108.15 233.047 107.867 232.934 107.54C232.82 107.207 232.764 106.837 232.764 106.43C232.764 106.017 232.82 105.643 232.934 105.31C233.054 104.977 233.217 104.693 233.424 104.46C233.63 104.22 233.877 104.037 234.164 103.91C234.457 103.783 234.78 103.72 235.134 103.72C235.48 103.72 235.794 103.783 236.074 103.91C236.36 104.037 236.604 104.213 236.804 104.44C237.004 104.66 237.157 104.923 237.264 105.23C237.37 105.537 237.424 105.873 237.424 106.24V106.62H233.604V106.86C233.604 107.087 233.64 107.297 233.714 107.49C233.787 107.683 233.89 107.85 234.024 107.99C234.164 108.13 234.33 108.24 234.524 108.32C234.724 108.393 234.944 108.43 235.184 108.43C235.53 108.43 235.83 108.35 236.084 108.19C236.337 108.03 236.53 107.81 236.664 107.53L237.254 107.93C237.1 108.277 236.844 108.563 236.484 108.79C236.13 109.01 235.697 109.12 235.184 109.12ZM235.134 104.38C234.914 104.38 234.71 104.42 234.524 104.5C234.337 104.58 234.174 104.69 234.034 104.83C233.9 104.97 233.794 105.137 233.714 105.33C233.64 105.517 233.604 105.723 233.604 105.95V106.02H236.564V105.91C236.564 105.683 236.527 105.477 236.454 105.29C236.387 105.103 236.29 104.943 236.164 104.81C236.044 104.67 235.894 104.563 235.714 104.49C235.54 104.417 235.347 104.38 235.134 104.38ZM239.18 108.32H240.69V104.52H239.18V103.84H241.49V105.14H241.54C241.646 104.733 241.846 104.417 242.14 104.19C242.44 103.957 242.82 103.84 243.28 103.84H244V104.64H243.03C242.57 104.64 242.196 104.773 241.91 105.04C241.63 105.307 241.49 105.657 241.49 106.09V108.32H243.49V109H239.18V108.32ZM247.816 109.12C247.442 109.12 247.106 109.057 246.806 108.93C246.512 108.803 246.259 108.623 246.046 108.39C245.839 108.15 245.679 107.867 245.566 107.54C245.452 107.207 245.396 106.837 245.396 106.43C245.396 106.017 245.452 105.643 245.566 105.31C245.686 104.977 245.849 104.693 246.056 104.46C246.262 104.22 246.509 104.037 246.796 103.91C247.089 103.783 247.412 103.72 247.766 103.72C248.112 103.72 248.426 103.783 248.706 103.91C248.992 104.037 249.236 104.213 249.436 104.44C249.636 104.66 249.789 104.923 249.896 105.23C250.002 105.537 250.056 105.873 250.056 106.24V106.62H246.236V106.86C246.236 107.087 246.272 107.297 246.346 107.49C246.419 107.683 246.522 107.85 246.656 107.99C246.796 108.13 246.962 108.24 247.156 108.32C247.356 108.393 247.576 108.43 247.816 108.43C248.162 108.43 248.462 108.35 248.716 108.19C248.969 108.03 249.162 107.81 249.296 107.53L249.886 107.93C249.732 108.277 249.476 108.563 249.116 108.79C248.762 109.01 248.329 109.12 247.816 109.12ZM247.766 104.38C247.546 104.38 247.342 104.42 247.156 104.5C246.969 104.58 246.806 104.69 246.666 104.83C246.532 104.97 246.426 105.137 246.346 105.33C246.272 105.517 246.236 105.723 246.236 105.95V106.02H249.196V105.91C249.196 105.683 249.159 105.477 249.086 105.29C249.019 105.103 248.922 104.943 248.796 104.81C248.676 104.67 248.526 104.563 248.346 104.49C248.172 104.417 247.979 104.38 247.766 104.38Z" fill="#121619"/>
<path d="M332.296 139.836V137.652C333.043 137.624 333.607 137.484 333.99 137.232C334.382 136.971 334.578 136.569 334.578 136.028V135.832C334.578 135.44 334.461 135.137 334.228 134.922C333.995 134.707 333.682 134.6 333.29 134.6C332.87 134.6 332.529 134.726 332.268 134.978C332.016 135.221 331.839 135.538 331.736 135.93L330.238 135.314C330.322 135.025 330.443 134.745 330.602 134.474C330.761 134.203 330.966 133.965 331.218 133.76C331.47 133.545 331.773 133.377 332.128 133.256C332.483 133.125 332.893 133.06 333.36 133.06C333.836 133.06 334.265 133.13 334.648 133.27C335.031 133.401 335.357 133.592 335.628 133.844C335.899 134.087 336.109 134.381 336.258 134.726C336.407 135.071 336.482 135.454 336.482 135.874C336.482 136.285 336.412 136.653 336.272 136.98C336.141 137.297 335.959 137.577 335.726 137.82C335.493 138.053 335.227 138.245 334.928 138.394C334.629 138.534 334.321 138.632 334.004 138.688V139.836H332.296ZM333.164 143.168C332.772 143.168 332.487 143.075 332.31 142.888C332.133 142.701 332.044 142.463 332.044 142.174V141.894C332.044 141.605 332.133 141.367 332.31 141.18C332.487 140.993 332.772 140.9 333.164 140.9C333.565 140.9 333.855 140.993 334.032 141.18C334.209 141.367 334.298 141.605 334.298 141.894V142.174C334.298 142.463 334.209 142.701 334.032 142.888C333.855 143.075 333.565 143.168 333.164 143.168Z" fill="#343A3F"/>
<path d="M8.21 119.824H3.814L3.59 123.1H3.688C3.79067 122.895 3.90267 122.703 4.024 122.526C4.14533 122.349 4.28533 122.199 4.444 122.078C4.60267 121.957 4.78467 121.863 4.99 121.798C5.20467 121.723 5.46133 121.686 5.76 121.686C6.18 121.686 6.572 121.756 6.936 121.896C7.3 122.036 7.61267 122.241 7.874 122.512C8.14467 122.773 8.35467 123.095 8.504 123.478C8.66267 123.861 8.742 124.295 8.742 124.78C8.742 125.275 8.66267 125.727 8.504 126.138C8.34533 126.549 8.112 126.908 7.804 127.216C7.496 127.515 7.118 127.748 6.67 127.916C6.222 128.084 5.70867 128.168 5.13 128.168C4.682 128.168 4.28067 128.117 3.926 128.014C3.57133 127.921 3.25867 127.79 2.988 127.622C2.71733 127.454 2.484 127.263 2.288 127.048C2.092 126.824 1.91933 126.591 1.77 126.348L3.114 125.312C3.226 125.499 3.34267 125.676 3.464 125.844C3.58533 126.003 3.72533 126.143 3.884 126.264C4.052 126.385 4.234 126.483 4.43 126.558C4.63533 126.623 4.87333 126.656 5.144 126.656C5.69467 126.656 6.11 126.502 6.39 126.194C6.67933 125.886 6.824 125.466 6.824 124.934V124.822C6.824 124.318 6.67933 123.921 6.39 123.632C6.10067 123.343 5.69933 123.198 5.186 123.198C4.78467 123.198 4.458 123.277 4.206 123.436C3.954 123.585 3.75333 123.749 3.604 123.926L2.092 123.716L2.456 118.228H8.21V119.824ZM13.7965 128.168C13.2365 128.168 12.7372 128.079 12.2985 127.902C11.8599 127.715 11.4865 127.459 11.1785 127.132C10.8705 126.796 10.6372 126.395 10.4785 125.928C10.3199 125.452 10.2405 124.92 10.2405 124.332C10.2405 123.632 10.3432 122.974 10.5485 122.358C10.7632 121.733 11.0385 121.163 11.3745 120.65C11.7105 120.127 12.0839 119.665 12.4945 119.264C12.9145 118.853 13.3299 118.508 13.7405 118.228H16.2325C15.6539 118.639 15.1359 119.035 14.6785 119.418C14.2305 119.801 13.8339 120.188 13.4885 120.58C13.1525 120.972 12.8725 121.383 12.6485 121.812C12.4339 122.232 12.2705 122.689 12.1585 123.184L12.2705 123.212C12.3639 123.025 12.4712 122.848 12.5925 122.68C12.7232 122.503 12.8772 122.349 13.0545 122.218C13.2319 122.078 13.4372 121.971 13.6705 121.896C13.9039 121.812 14.1745 121.77 14.4825 121.77C14.8839 121.77 15.2572 121.84 15.6025 121.98C15.9572 122.12 16.2605 122.325 16.5125 122.596C16.7739 122.857 16.9745 123.175 17.1145 123.548C17.2639 123.921 17.3385 124.337 17.3385 124.794C17.3385 125.289 17.2545 125.741 17.0865 126.152C16.9185 126.563 16.6805 126.917 16.3725 127.216C16.0645 127.515 15.6912 127.748 15.2525 127.916C14.8232 128.084 14.3379 128.168 13.7965 128.168ZM13.7965 126.712C14.3099 126.712 14.7112 126.572 15.0005 126.292C15.2992 126.003 15.4485 125.592 15.4485 125.06V124.85C15.4485 124.318 15.2992 123.912 15.0005 123.632C14.7112 123.343 14.3099 123.198 13.7965 123.198C13.2739 123.198 12.8679 123.343 12.5785 123.632C12.2892 123.912 12.1445 124.318 12.1445 124.85V125.06C12.1445 125.592 12.2892 126.003 12.5785 126.292C12.8679 126.572 13.2739 126.712 13.7965 126.712ZM20.4751 128L23.8771 119.726H20.5031V121.518H18.9351V118.228H25.7111V119.81L22.4071 128H20.4751ZM34.3076 128H27.5316V126.292L30.5976 123.604C31.1203 123.147 31.5029 122.736 31.7456 122.372C31.9883 121.999 32.1096 121.597 32.1096 121.168V120.986C32.1096 120.557 31.9696 120.23 31.6896 120.006C31.4096 119.773 31.0689 119.656 30.6676 119.656C30.1636 119.656 29.7809 119.801 29.5196 120.09C29.2583 120.37 29.0716 120.711 28.9596 121.112L27.3636 120.496C27.4663 120.169 27.6109 119.861 27.7976 119.572C27.9843 119.273 28.2176 119.012 28.4976 118.788C28.7869 118.564 29.1229 118.387 29.5056 118.256C29.8883 118.125 30.3269 118.06 30.8216 118.06C31.3349 118.06 31.7923 118.135 32.1936 118.284C32.5949 118.424 32.9309 118.625 33.2016 118.886C33.4816 119.147 33.6916 119.455 33.8316 119.81C33.9809 120.165 34.0556 120.552 34.0556 120.972C34.0556 121.383 33.9903 121.756 33.8596 122.092C33.7289 122.428 33.5516 122.75 33.3276 123.058C33.1036 123.357 32.8423 123.646 32.5436 123.926C32.2449 124.197 31.9276 124.472 31.5916 124.752L29.5336 126.446H34.3076V128Z" fill="#343A3F"/>
<path d="M2.274 159V157.502H4.962V150.558H4.836L2.708 153.078L1.56 152.112L3.982 149.228H6.768V157.502H9.008V159H2.274ZM17.1985 159H10.4225V157.292L13.4885 154.604C14.0112 154.147 14.3939 153.736 14.6365 153.372C14.8792 152.999 15.0005 152.597 15.0005 152.168V151.986C15.0005 151.557 14.8605 151.23 14.5805 151.006C14.3005 150.773 13.9599 150.656 13.5585 150.656C13.0545 150.656 12.6719 150.801 12.4105 151.09C12.1492 151.37 11.9625 151.711 11.8505 152.112L10.2545 151.496C10.3572 151.169 10.5019 150.861 10.6885 150.572C10.8752 150.273 11.1085 150.012 11.3885 149.788C11.6779 149.564 12.0139 149.387 12.3965 149.256C12.7792 149.125 13.2179 149.06 13.7125 149.06C14.2259 149.06 14.6832 149.135 15.0845 149.284C15.4859 149.424 15.8219 149.625 16.0925 149.886C16.3725 150.147 16.5825 150.455 16.7225 150.81C16.8719 151.165 16.9465 151.552 16.9465 151.972C16.9465 152.383 16.8812 152.756 16.7505 153.092C16.6199 153.428 16.4425 153.75 16.2185 154.058C15.9945 154.357 15.7332 154.646 15.4345 154.926C15.1359 155.197 14.8185 155.472 14.4825 155.752L12.4245 157.446H17.1985V159ZM21.7771 153.176C22.3371 153.176 22.7477 153.064 23.0091 152.84C23.2797 152.607 23.4151 152.313 23.4151 151.958V151.86C23.4151 151.459 23.2844 151.146 23.0231 150.922C22.7711 150.689 22.4211 150.572 21.9731 150.572C21.5437 150.572 21.1611 150.675 20.8251 150.88C20.4984 151.085 20.2137 151.375 19.9711 151.748L18.7951 150.684C18.9631 150.46 19.1451 150.25 19.3411 150.054C19.5464 149.849 19.7797 149.676 20.0411 149.536C20.3024 149.387 20.5964 149.27 20.9231 149.186C21.2497 149.102 21.6184 149.06 22.0291 149.06C22.5237 149.06 22.9717 149.121 23.3731 149.242C23.7837 149.354 24.1337 149.522 24.4231 149.746C24.7217 149.97 24.9504 150.241 25.1091 150.558C25.2677 150.866 25.3471 151.216 25.3471 151.608C25.3471 151.925 25.2957 152.21 25.1931 152.462C25.0997 152.714 24.9644 152.933 24.7871 153.12C24.6191 153.307 24.4184 153.461 24.1851 153.582C23.9611 153.694 23.7231 153.778 23.4711 153.834V153.918C23.7511 153.974 24.0171 154.063 24.2691 154.184C24.5211 154.305 24.7357 154.469 24.9131 154.674C25.0997 154.87 25.2444 155.103 25.3471 155.374C25.4591 155.645 25.5151 155.953 25.5151 156.298C25.5151 156.727 25.4264 157.119 25.2491 157.474C25.0811 157.829 24.8384 158.132 24.5211 158.384C24.2037 158.636 23.8257 158.832 23.3871 158.972C22.9484 159.103 22.4584 159.168 21.9171 159.168C21.4411 159.168 21.0211 159.117 20.6571 159.014C20.2931 158.921 19.9711 158.79 19.6911 158.622C19.4204 158.454 19.1824 158.263 18.9771 158.048C18.7717 157.824 18.5944 157.591 18.4451 157.348L19.8031 156.312C19.9151 156.508 20.0364 156.69 20.1671 156.858C20.2977 157.017 20.4471 157.157 20.6151 157.278C20.7831 157.399 20.9744 157.493 21.1891 157.558C21.4037 157.623 21.6464 157.656 21.9171 157.656C22.4584 157.656 22.8737 157.525 23.1631 157.264C23.4524 157.003 23.5971 156.643 23.5971 156.186V156.088C23.5971 155.64 23.4384 155.299 23.1211 155.066C22.8131 154.833 22.3651 154.716 21.7771 154.716H20.8111V153.176H21.7771ZM31.5356 159V157.11H27.1116V155.542L31.0036 149.228H33.2856V155.682H34.5596V157.11H33.2856V159H31.5356ZM28.6236 155.682H31.5356V151.02H31.4236L28.6236 155.682Z" fill="#343A3F"/>
<path d="M10.742 61V59.516H12.03V52.712H10.742V51.228H15.18V52.712H13.878V59.516H15.18V61H10.742ZM17.1159 61V53.692H18.9079V54.91H18.9779C19.1273 54.518 19.3606 54.1913 19.6779 53.93C20.0046 53.6593 20.4526 53.524 21.0219 53.524C21.7779 53.524 22.3566 53.7713 22.7579 54.266C23.1593 54.7607 23.3599 55.4653 23.3599 56.38V61H21.5679V56.562C21.5679 56.0393 21.4746 55.6473 21.2879 55.386C21.1013 55.1247 20.7933 54.994 20.3639 54.994C20.1773 54.994 19.9953 55.022 19.8179 55.078C19.6499 55.1247 19.4959 55.1993 19.3559 55.302C19.2253 55.3953 19.1179 55.5167 19.0339 55.666C18.9499 55.806 18.9079 55.974 18.9079 56.17V61H17.1159ZM25.5064 53.692H27.2984V54.896H27.3544C27.4851 54.476 27.7324 54.1447 28.0964 53.902C28.4604 53.65 28.8851 53.524 29.3704 53.524C30.3037 53.524 31.0131 53.8553 31.4984 54.518C31.9931 55.1713 32.2404 56.1093 32.2404 57.332C32.2404 58.564 31.9931 59.5113 31.4984 60.174C31.0131 60.8367 30.3037 61.168 29.3704 61.168C28.8851 61.168 28.4604 61.042 28.0964 60.79C27.7417 60.538 27.4944 60.202 27.3544 59.782H27.2984V63.8H25.5064V53.692ZM28.7964 59.684C29.2631 59.684 29.6411 59.53 29.9304 59.222C30.2197 58.914 30.3644 58.4987 30.3644 57.976V56.716C30.3644 56.1933 30.2197 55.778 29.9304 55.47C29.6411 55.1527 29.2631 54.994 28.7964 54.994C28.3671 54.994 28.0077 55.1013 27.7184 55.316C27.4384 55.5307 27.2984 55.8153 27.2984 56.17V58.494C27.2984 58.8767 27.4384 59.1707 27.7184 59.376C28.0077 59.5813 28.3671 59.684 28.7964 59.684ZM38.4289 59.782H38.3589C38.2936 59.9687 38.2049 60.146 38.0929 60.314C37.9903 60.4727 37.8549 60.6173 37.6869 60.748C37.5283 60.8787 37.3323 60.9813 37.0989 61.056C36.8749 61.1307 36.6136 61.168 36.3149 61.168C35.5589 61.168 34.9803 60.9207 34.5789 60.426C34.1776 59.9313 33.9769 59.2267 33.9769 58.312V53.692H35.7689V58.13C35.7689 58.634 35.8669 59.0213 36.0629 59.292C36.2589 59.5533 36.5716 59.684 37.0009 59.684C37.1783 59.684 37.3509 59.6607 37.5189 59.614C37.6963 59.5673 37.8503 59.4973 37.9809 59.404C38.1116 59.3013 38.2189 59.18 38.3029 59.04C38.3869 58.8907 38.4289 58.718 38.4289 58.522V53.692H40.2209V61H38.4289V59.782ZM44.7334 61C44.1174 61 43.6461 60.8413 43.3194 60.524C43.0021 60.1973 42.8434 59.7353 42.8434 59.138V55.12H41.7654V53.692H42.3254C42.5961 53.692 42.7781 53.6313 42.8714 53.51C42.9741 53.3793 43.0254 53.188 43.0254 52.936V51.69H44.6354V53.692H46.1334V55.12H44.6354V59.572H46.0214V61H44.7334Z" fill="#343A3F"/>
<path d="M307.984 61.168C307.34 61.168 306.757 61.0607 306.234 60.846C305.711 60.6313 305.263 60.3093 304.89 59.88C304.526 59.4507 304.241 58.9233 304.036 58.298C303.831 57.6727 303.728 56.9447 303.728 56.114C303.728 55.2927 303.831 54.5693 304.036 53.944C304.241 53.3093 304.526 52.7773 304.89 52.348C305.263 51.9187 305.711 51.5967 306.234 51.382C306.757 51.1673 307.34 51.06 307.984 51.06C308.628 51.06 309.211 51.1673 309.734 51.382C310.257 51.5967 310.705 51.9187 311.078 52.348C311.451 52.7773 311.736 53.3093 311.932 53.944C312.137 54.5693 312.24 55.2927 312.24 56.114C312.24 56.9447 312.137 57.6727 311.932 58.298C311.736 58.9233 311.451 59.4507 311.078 59.88C310.705 60.3093 310.257 60.6313 309.734 60.846C309.211 61.0607 308.628 61.168 307.984 61.168ZM307.984 59.53C308.684 59.53 309.239 59.2967 309.65 58.83C310.07 58.3633 310.28 57.71 310.28 56.87V55.358C310.28 54.518 310.07 53.8647 309.65 53.398C309.239 52.9313 308.684 52.698 307.984 52.698C307.284 52.698 306.724 52.9313 306.304 53.398C305.893 53.8647 305.688 54.518 305.688 55.358V56.87C305.688 57.71 305.893 58.3633 306.304 58.83C306.724 59.2967 307.284 59.53 307.984 59.53ZM318.531 59.782H318.461C318.395 59.9687 318.307 60.146 318.195 60.314C318.092 60.4727 317.957 60.6173 317.789 60.748C317.63 60.8787 317.434 60.9813 317.201 61.056C316.977 61.1307 316.715 61.168 316.417 61.168C315.661 61.168 315.082 60.9207 314.681 60.426C314.279 59.9313 314.079 59.2267 314.079 58.312V53.692H315.871V58.13C315.871 58.634 315.969 59.0213 316.165 59.292C316.361 59.5533 316.673 59.684 317.103 59.684C317.28 59.684 317.453 59.6607 317.621 59.614C317.798 59.5673 317.952 59.4973 318.083 59.404C318.213 59.3013 318.321 59.18 318.405 59.04C318.489 58.8907 318.531 58.718 318.531 58.522V53.692H320.323V61H318.531V59.782ZM324.835 61C324.219 61 323.748 60.8413 323.421 60.524C323.104 60.1973 322.945 59.7353 322.945 59.138V55.12H321.867V53.692H322.427C322.698 53.692 322.88 53.6313 322.973 53.51C323.076 53.3793 323.127 53.188 323.127 52.936V51.69H324.737V53.692H326.235V55.12H324.737V59.572H326.123V61H324.835ZM327.95 53.692H329.742V54.896H329.798C329.928 54.476 330.176 54.1447 330.54 53.902C330.904 53.65 331.328 53.524 331.814 53.524C332.747 53.524 333.456 53.8553 333.942 54.518C334.436 55.1713 334.684 56.1093 334.684 57.332C334.684 58.564 334.436 59.5113 333.942 60.174C333.456 60.8367 332.747 61.168 331.814 61.168C331.328 61.168 330.904 61.042 330.54 60.79C330.185 60.538 329.938 60.202 329.798 59.782H329.742V63.8H327.95V53.692ZM331.24 59.684C331.706 59.684 332.084 59.53 332.374 59.222C332.663 58.914 332.808 58.4987 332.808 57.976V56.716C332.808 56.1933 332.663 55.778 332.374 55.47C332.084 55.1527 331.706 54.994 331.24 54.994C330.81 54.994 330.451 55.1013 330.162 55.316C329.882 55.5307 329.742 55.8153 329.742 56.17V58.494C329.742 58.8767 329.882 59.1707 330.162 59.376C330.451 59.5813 330.81 59.684 331.24 59.684ZM340.872 59.782H340.802C340.737 59.9687 340.648 60.146 340.536 60.314C340.433 60.4727 340.298 60.6173 340.13 60.748C339.971 60.8787 339.775 60.9813 339.542 61.056C339.318 61.1307 339.057 61.168 338.758 61.168C338.002 61.168 337.423 60.9207 337.022 60.426C336.621 59.9313 336.42 59.2267 336.42 58.312V53.692H338.212V58.13C338.212 58.634 338.31 59.0213 338.506 59.292C338.702 59.5533 339.015 59.684 339.444 59.684C339.621 59.684 339.794 59.6607 339.962 59.614C340.139 59.5673 340.293 59.4973 340.424 59.404C340.555 59.3013 340.662 59.18 340.746 59.04C340.83 58.8907 340.872 58.718 340.872 58.522V53.692H342.664V61H340.872V59.782ZM347.177 61C346.561 61 346.089 60.8413 345.763 60.524C345.445 60.1973 345.287 59.7353 345.287 59.138V55.12H344.209V53.692H344.769C345.039 53.692 345.221 53.6313 345.315 53.51C345.417 53.3793 345.469 53.188 345.469 52.936V51.69H347.079V53.692H348.577V55.12H347.079V59.572H348.465V61H347.177Z" fill="white"/>
<path d="M92.942 61.168C92.298 61.168 91.7147 61.0653 91.192 60.86C90.6787 60.6453 90.2353 60.328 89.862 59.908C89.498 59.488 89.218 58.97 89.022 58.354C88.826 57.7287 88.728 57.0053 88.728 56.184C88.728 55.3627 88.826 54.6347 89.022 54C89.218 53.356 89.498 52.8193 89.862 52.39C90.2353 51.9513 90.6787 51.62 91.192 51.396C91.7147 51.172 92.298 51.06 92.942 51.06C93.8193 51.06 94.5473 51.2467 95.126 51.62C95.7047 51.9933 96.1667 52.558 96.512 53.314L94.93 54.154C94.79 53.7153 94.5613 53.3653 94.244 53.104C93.9267 52.8333 93.4927 52.698 92.942 52.698C92.2513 52.698 91.7007 52.9313 91.29 53.398C90.8887 53.8647 90.688 54.518 90.688 55.358V56.898C90.688 57.7473 90.8887 58.4007 91.29 58.858C91.7007 59.306 92.2513 59.53 92.942 59.53C93.4927 59.53 93.9407 59.3807 94.286 59.082C94.6407 58.7833 94.8973 58.4147 95.056 57.976L96.554 58.858C96.1993 59.586 95.728 60.1553 95.14 60.566C94.552 60.9673 93.8193 61.168 92.942 61.168ZM101.076 61.168C100.554 61.168 100.082 61.0793 99.6624 60.902C99.2518 60.7247 98.8971 60.468 98.5984 60.132C98.3091 59.796 98.0851 59.3947 97.9264 58.928C97.7678 58.452 97.6884 57.92 97.6884 57.332C97.6884 56.744 97.7678 56.2167 97.9264 55.75C98.0851 55.2833 98.3091 54.8867 98.5984 54.56C98.8971 54.224 99.2518 53.9673 99.6624 53.79C100.082 53.6127 100.554 53.524 101.076 53.524C101.599 53.524 102.07 53.6127 102.49 53.79C102.91 53.9673 103.265 54.224 103.554 54.56C103.853 54.8867 104.082 55.2833 104.24 55.75C104.399 56.2167 104.478 56.744 104.478 57.332C104.478 57.92 104.399 58.452 104.24 58.928C104.082 59.3947 103.853 59.796 103.554 60.132C103.265 60.468 102.91 60.7247 102.49 60.902C102.07 61.0793 101.599 61.168 101.076 61.168ZM101.076 59.726C101.552 59.726 101.926 59.5813 102.196 59.292C102.467 59.0027 102.602 58.578 102.602 58.018V56.66C102.602 56.1093 102.467 55.6893 102.196 55.4C101.926 55.1107 101.552 54.966 101.076 54.966C100.61 54.966 100.241 55.1107 99.9704 55.4C99.6998 55.6893 99.5644 56.1093 99.5644 56.66V58.018C99.5644 58.578 99.6998 59.0027 99.9704 59.292C100.241 59.5813 100.61 59.726 101.076 59.726ZM106.227 61V53.692H108.019V54.91H108.089C108.229 54.5273 108.453 54.2007 108.761 53.93C109.069 53.6593 109.498 53.524 110.049 53.524C110.553 53.524 110.987 53.6453 111.351 53.888C111.715 54.1307 111.986 54.4993 112.163 54.994H112.191C112.322 54.5833 112.578 54.238 112.961 53.958C113.353 53.6687 113.843 53.524 114.431 53.524C115.15 53.524 115.7 53.7713 116.083 54.266C116.475 54.7607 116.671 55.4653 116.671 56.38V61H114.879V56.562C114.879 55.5167 114.487 54.994 113.703 54.994C113.526 54.994 113.353 55.022 113.185 55.078C113.026 55.1247 112.882 55.1993 112.751 55.302C112.63 55.3953 112.532 55.5167 112.457 55.666C112.382 55.806 112.345 55.974 112.345 56.17V61H110.553V56.562C110.553 55.5167 110.161 54.994 109.377 54.994C109.209 54.994 109.041 55.022 108.873 55.078C108.714 55.1247 108.57 55.1993 108.439 55.302C108.318 55.3953 108.215 55.5167 108.131 55.666C108.056 55.806 108.019 55.974 108.019 56.17V61H106.227ZM118.815 53.692H120.607V54.896H120.663C120.793 54.476 121.041 54.1447 121.405 53.902C121.769 53.65 122.193 53.524 122.679 53.524C123.612 53.524 124.321 53.8553 124.807 54.518C125.301 55.1713 125.549 56.1093 125.549 57.332C125.549 58.564 125.301 59.5113 124.807 60.174C124.321 60.8367 123.612 61.168 122.679 61.168C122.193 61.168 121.769 61.042 121.405 60.79C121.05 60.538 120.803 60.202 120.663 59.782H120.607V63.8H118.815V53.692ZM122.105 59.684C122.571 59.684 122.949 59.53 123.239 59.222C123.528 58.914 123.673 58.4987 123.673 57.976V56.716C123.673 56.1933 123.528 55.778 123.239 55.47C122.949 55.1527 122.571 54.994 122.105 54.994C121.675 54.994 121.316 55.1013 121.027 55.316C120.747 55.5307 120.607 55.8153 120.607 56.17V58.494C120.607 58.8767 120.747 59.1707 121.027 59.376C121.316 59.5813 121.675 59.684 122.105 59.684ZM131.737 59.782H131.667C131.602 59.9687 131.513 60.146 131.401 60.314C131.299 60.4727 131.163 60.6173 130.995 60.748C130.837 60.8787 130.641 60.9813 130.407 61.056C130.183 61.1307 129.922 61.168 129.623 61.168C128.867 61.168 128.289 60.9207 127.887 60.426C127.486 59.9313 127.285 59.2267 127.285 58.312V53.692H129.077V58.13C129.077 58.634 129.175 59.0213 129.371 59.292C129.567 59.5533 129.88 59.684 130.309 59.684C130.487 59.684 130.659 59.6607 130.827 59.614C131.005 59.5673 131.159 59.4973 131.289 59.404C131.42 59.3013 131.527 59.18 131.611 59.04C131.695 58.8907 131.737 58.718 131.737 58.522V53.692H133.529V61H131.737V59.782ZM138.042 61C137.426 61 136.954 60.8413 136.628 60.524C136.31 60.1973 136.152 59.7353 136.152 59.138V55.12H135.074V53.692H135.634C135.904 53.692 136.086 53.6313 136.18 53.51C136.282 53.3793 136.334 53.188 136.334 52.936V51.69H137.944V53.692H139.442V55.12H137.944V59.572H139.33V61H138.042ZM144.055 61.168C143.514 61.168 143.029 61.0793 142.599 60.902C142.179 60.7153 141.82 60.4587 141.521 60.132C141.232 59.796 141.008 59.3947 140.849 58.928C140.691 58.452 140.611 57.92 140.611 57.332C140.611 56.7533 140.686 56.2307 140.835 55.764C140.994 55.2973 141.218 54.9007 141.507 54.574C141.797 54.238 142.151 53.9813 142.571 53.804C142.991 53.6173 143.467 53.524 143.999 53.524C144.569 53.524 145.063 53.622 145.483 53.818C145.903 54.014 146.249 54.28 146.519 54.616C146.79 54.952 146.991 55.344 147.121 55.792C147.261 56.2307 147.331 56.702 147.331 57.206V57.794H142.473V57.976C142.473 58.508 142.623 58.9373 142.921 59.264C143.22 59.5813 143.663 59.74 144.251 59.74C144.699 59.74 145.063 59.6467 145.343 59.46C145.633 59.2733 145.889 59.0353 146.113 58.746L147.079 59.824C146.781 60.244 146.37 60.5753 145.847 60.818C145.334 61.0513 144.737 61.168 144.055 61.168ZM144.027 54.868C143.551 54.868 143.173 55.0267 142.893 55.344C142.613 55.6613 142.473 56.072 142.473 56.576V56.688H145.469V56.562C145.469 56.058 145.343 55.652 145.091 55.344C144.849 55.0267 144.494 54.868 144.027 54.868ZM149.068 61V53.692H150.86V55.204H150.93C150.977 55.008 151.047 54.8213 151.14 54.644C151.243 54.4573 151.373 54.294 151.532 54.154C151.691 54.014 151.877 53.902 152.092 53.818C152.316 53.734 152.573 53.692 152.862 53.692H153.254V55.386H152.694C152.087 55.386 151.63 55.4747 151.322 55.652C151.014 55.8293 150.86 56.1187 150.86 56.52V61H149.068ZM158.557 55.106H157.479V53.692H158.557V52.642C158.557 51.998 158.725 51.5033 159.061 51.158C159.406 50.8127 159.91 50.64 160.573 50.64H161.847V52.068H160.349V53.692H161.847V55.106H160.349V61H158.557V55.106ZM166.091 61.168C165.568 61.168 165.097 61.0793 164.677 60.902C164.266 60.7247 163.911 60.468 163.613 60.132C163.323 59.796 163.099 59.3947 162.941 58.928C162.782 58.452 162.703 57.92 162.703 57.332C162.703 56.744 162.782 56.2167 162.941 55.75C163.099 55.2833 163.323 54.8867 163.613 54.56C163.911 54.224 164.266 53.9673 164.677 53.79C165.097 53.6127 165.568 53.524 166.091 53.524C166.613 53.524 167.085 53.6127 167.505 53.79C167.925 53.9673 168.279 54.224 168.569 54.56C168.867 54.8867 169.096 55.2833 169.255 55.75C169.413 56.2167 169.493 56.744 169.493 57.332C169.493 57.92 169.413 58.452 169.255 58.928C169.096 59.3947 168.867 59.796 168.569 60.132C168.279 60.468 167.925 60.7247 167.505 60.902C167.085 61.0793 166.613 61.168 166.091 61.168ZM166.091 59.726C166.567 59.726 166.94 59.5813 167.211 59.292C167.481 59.0027 167.617 58.578 167.617 58.018V56.66C167.617 56.1093 167.481 55.6893 167.211 55.4C166.94 55.1107 166.567 54.966 166.091 54.966C165.624 54.966 165.255 55.1107 164.985 55.4C164.714 55.6893 164.579 56.1093 164.579 56.66V58.018C164.579 58.578 164.714 59.0027 164.985 59.292C165.255 59.5813 165.624 59.726 166.091 59.726ZM173.033 61C172.417 61 171.965 60.846 171.675 60.538C171.386 60.23 171.241 59.796 171.241 59.236V50.64H173.033V59.572H173.999V61H173.033ZM177.213 61C176.597 61 176.144 60.846 175.855 60.538C175.566 60.23 175.421 59.796 175.421 59.236V50.64H177.213V59.572H178.179V61H177.213ZM182.594 61.168C182.071 61.168 181.6 61.0793 181.18 60.902C180.769 60.7247 180.415 60.468 180.116 60.132C179.827 59.796 179.603 59.3947 179.444 58.928C179.285 58.452 179.206 57.92 179.206 57.332C179.206 56.744 179.285 56.2167 179.444 55.75C179.603 55.2833 179.827 54.8867 180.116 54.56C180.415 54.224 180.769 53.9673 181.18 53.79C181.6 53.6127 182.071 53.524 182.594 53.524C183.117 53.524 183.588 53.6127 184.008 53.79C184.428 53.9673 184.783 54.224 185.072 54.56C185.371 54.8867 185.599 55.2833 185.758 55.75C185.917 56.2167 185.996 56.744 185.996 57.332C185.996 57.92 185.917 58.452 185.758 58.928C185.599 59.3947 185.371 59.796 185.072 60.132C184.783 60.468 184.428 60.7247 184.008 60.902C183.588 61.0793 183.117 61.168 182.594 61.168ZM182.594 59.726C183.07 59.726 183.443 59.5813 183.714 59.292C183.985 59.0027 184.12 58.578 184.12 58.018V56.66C184.12 56.1093 183.985 55.6893 183.714 55.4C183.443 55.1107 183.07 54.966 182.594 54.966C182.127 54.966 181.759 55.1107 181.488 55.4C181.217 55.6893 181.082 56.1093 181.082 56.66V58.018C181.082 58.578 181.217 59.0027 181.488 59.292C181.759 59.5813 182.127 59.726 182.594 59.726ZM186.908 53.692H188.63L189.372 56.702L189.946 59.208H190.002L190.674 56.702L191.528 53.692H193.152L194.034 56.702L194.72 59.208H194.776L195.35 56.702L196.078 53.692H197.744L195.742 61H193.81L192.872 57.78L192.326 55.792H192.284L191.752 57.78L190.828 61H188.924L186.908 53.692ZM201.605 61.168C200.905 61.168 200.317 61.0513 199.841 60.818C199.365 60.5753 198.945 60.244 198.581 59.824L199.673 58.76C199.944 59.068 200.238 59.3107 200.555 59.488C200.882 59.6653 201.255 59.754 201.675 59.754C202.105 59.754 202.413 59.6793 202.599 59.53C202.795 59.3807 202.893 59.1753 202.893 58.914C202.893 58.6993 202.823 58.5313 202.683 58.41C202.553 58.2793 202.324 58.1907 201.997 58.144L201.269 58.046C200.476 57.9433 199.869 57.7193 199.449 57.374C199.039 57.0193 198.833 56.506 198.833 55.834C198.833 55.4793 198.899 55.162 199.029 54.882C199.16 54.5927 199.347 54.35 199.589 54.154C199.832 53.9487 200.121 53.7947 200.457 53.692C200.803 53.58 201.185 53.524 201.605 53.524C201.96 53.524 202.273 53.552 202.543 53.608C202.823 53.6547 203.075 53.7293 203.299 53.832C203.523 53.9253 203.729 54.0467 203.915 54.196C204.102 54.336 204.284 54.4947 204.461 54.672L203.411 55.722C203.197 55.498 202.94 55.3113 202.641 55.162C202.343 55.0127 202.016 54.938 201.661 54.938C201.269 54.938 200.985 55.008 200.807 55.148C200.639 55.288 200.555 55.47 200.555 55.694C200.555 55.9367 200.625 56.1233 200.765 56.254C200.915 56.3753 201.162 56.464 201.507 56.52L202.249 56.618C203.827 56.842 204.615 57.5607 204.615 58.774C204.615 59.1287 204.541 59.4553 204.391 59.754C204.251 60.0433 204.051 60.2953 203.789 60.51C203.528 60.7153 203.211 60.8787 202.837 61C202.473 61.112 202.063 61.168 201.605 61.168ZM215.202 61C214.81 61 214.498 60.888 214.264 60.664C214.04 60.4307 213.9 60.1227 213.844 59.74H213.76C213.639 60.216 213.392 60.5753 213.018 60.818C212.645 61.0513 212.183 61.168 211.632 61.168C210.886 61.168 210.312 60.972 209.91 60.58C209.509 60.188 209.308 59.6653 209.308 59.012C209.308 58.256 209.579 57.696 210.12 57.332C210.662 56.9587 211.432 56.772 212.43 56.772H213.676V56.24C213.676 55.8293 213.569 55.512 213.354 55.288C213.14 55.064 212.794 54.952 212.318 54.952C211.898 54.952 211.558 55.0453 211.296 55.232C211.044 55.4093 210.83 55.624 210.652 55.876L209.588 54.924C209.859 54.504 210.218 54.168 210.666 53.916C211.114 53.6547 211.707 53.524 212.444 53.524C213.434 53.524 214.185 53.748 214.698 54.196C215.212 54.644 215.468 55.288 215.468 56.128V59.572H216.196V61H215.202ZM212.234 59.866C212.636 59.866 212.976 59.7773 213.256 59.6C213.536 59.4227 213.676 59.1613 213.676 58.816V57.85H212.528C211.595 57.85 211.128 58.1487 211.128 58.746V58.984C211.128 59.2827 211.222 59.5067 211.408 59.656C211.604 59.796 211.88 59.866 212.234 59.866ZM219.599 61C218.983 61 218.53 60.846 218.241 60.538C217.951 60.23 217.807 59.796 217.807 59.236V50.64H219.599V59.572H220.565V61H219.599ZM228.676 61.616C228.676 61.9987 228.606 62.3347 228.466 62.624C228.335 62.9227 228.116 63.17 227.808 63.366C227.5 63.562 227.103 63.7113 226.618 63.814C226.133 63.9167 225.54 63.968 224.84 63.968C224.224 63.968 223.701 63.926 223.272 63.842C222.843 63.7673 222.488 63.6553 222.208 63.506C221.937 63.366 221.741 63.1887 221.62 62.974C221.499 62.7593 221.438 62.5167 221.438 62.246C221.438 61.8353 221.55 61.5133 221.774 61.28C222.007 61.056 222.329 60.9113 222.74 60.846V60.692C222.441 60.6173 222.208 60.4727 222.04 60.258C221.881 60.034 221.802 59.7727 221.802 59.474C221.802 59.2873 221.839 59.124 221.914 58.984C221.989 58.8347 222.087 58.7087 222.208 58.606C222.339 58.5033 222.483 58.4193 222.642 58.354C222.801 58.2793 222.969 58.2233 223.146 58.186V58.13C222.698 57.9247 222.362 57.64 222.138 57.276C221.923 56.912 221.816 56.4873 221.816 56.002C221.816 55.2553 222.073 54.658 222.586 54.21C223.099 53.7527 223.851 53.524 224.84 53.524C225.064 53.524 225.283 53.538 225.498 53.566C225.722 53.594 225.927 53.6407 226.114 53.706V53.468C226.114 52.7587 226.459 52.404 227.15 52.404H228.284V53.776H226.73V53.972C227.113 54.1867 227.397 54.4667 227.584 54.812C227.771 55.1573 227.864 55.554 227.864 56.002C227.864 56.7393 227.607 57.332 227.094 57.78C226.59 58.228 225.839 58.452 224.84 58.452C224.411 58.452 224.037 58.41 223.72 58.326C223.58 58.3913 223.459 58.48 223.356 58.592C223.253 58.6947 223.202 58.8253 223.202 58.984C223.202 59.348 223.519 59.53 224.154 59.53H226.114C227.01 59.53 227.659 59.7167 228.06 60.09C228.471 60.454 228.676 60.9627 228.676 61.616ZM226.996 61.826C226.996 61.5927 226.903 61.4107 226.716 61.28C226.529 61.1493 226.207 61.084 225.75 61.084H223.258C223.006 61.2707 222.88 61.5227 222.88 61.84C222.88 62.12 222.997 62.3393 223.23 62.498C223.463 62.6567 223.86 62.736 224.42 62.736H225.316C225.904 62.736 226.329 62.6613 226.59 62.512C226.861 62.3627 226.996 62.134 226.996 61.826ZM224.84 57.234C225.717 57.234 226.156 56.8607 226.156 56.114V55.876C226.156 55.1293 225.717 54.756 224.84 54.756C223.963 54.756 223.524 55.1293 223.524 55.876V56.114C223.524 56.8607 223.963 57.234 224.84 57.234ZM232.687 61.168C232.164 61.168 231.693 61.0793 231.273 60.902C230.862 60.7247 230.507 60.468 230.209 60.132C229.919 59.796 229.695 59.3947 229.537 58.928C229.378 58.452 229.299 57.92 229.299 57.332C229.299 56.744 229.378 56.2167 229.537 55.75C229.695 55.2833 229.919 54.8867 230.209 54.56C230.507 54.224 230.862 53.9673 231.273 53.79C231.693 53.6127 232.164 53.524 232.687 53.524C233.209 53.524 233.681 53.6127 234.101 53.79C234.521 53.9673 234.875 54.224 235.165 54.56C235.463 54.8867 235.692 55.2833 235.851 55.75C236.009 56.2167 236.089 56.744 236.089 57.332C236.089 57.92 236.009 58.452 235.851 58.928C235.692 59.3947 235.463 59.796 235.165 60.132C234.875 60.468 234.521 60.7247 234.101 60.902C233.681 61.0793 233.209 61.168 232.687 61.168ZM232.687 59.726C233.163 59.726 233.536 59.5813 233.807 59.292C234.077 59.0027 234.213 58.578 234.213 58.018V56.66C234.213 56.1093 234.077 55.6893 233.807 55.4C233.536 55.1107 233.163 54.966 232.687 54.966C232.22 54.966 231.851 55.1107 231.581 55.4C231.31 55.6893 231.175 56.1093 231.175 56.66V58.018C231.175 58.578 231.31 59.0027 231.581 59.292C231.851 59.5813 232.22 59.726 232.687 59.726ZM237.837 61V53.692H239.629V55.204H239.699C239.746 55.008 239.816 54.8213 239.909 54.644C240.012 54.4573 240.143 54.294 240.301 54.154C240.46 54.014 240.647 53.902 240.861 53.818C241.085 53.734 241.342 53.692 241.631 53.692H242.023V55.386H241.463C240.857 55.386 240.399 55.4747 240.091 55.652C239.783 55.8293 239.629 56.1187 239.629 56.52V61H237.837ZM244.39 52.628C244.016 52.628 243.746 52.544 243.578 52.376C243.419 52.208 243.34 51.9933 243.34 51.732V51.452C243.34 51.1907 243.419 50.976 243.578 50.808C243.746 50.64 244.016 50.556 244.39 50.556C244.754 50.556 245.02 50.64 245.188 50.808C245.356 50.976 245.44 51.1907 245.44 51.452V51.732C245.44 51.9933 245.356 52.208 245.188 52.376C245.02 52.544 244.754 52.628 244.39 52.628ZM243.494 53.692H245.286V61H243.494V53.692ZM249.805 61C249.189 61 248.717 60.8413 248.391 60.524C248.073 60.1973 247.915 59.7353 247.915 59.138V55.12H246.837V53.692H247.397C247.667 53.692 247.849 53.6313 247.943 53.51C248.045 53.3793 248.097 53.188 248.097 52.936V51.69H249.707V53.692H251.205V55.12H249.707V59.572H251.093V61H249.805ZM252.919 50.64H254.711V54.91H254.781C254.93 54.518 255.164 54.1913 255.481 53.93C255.808 53.6593 256.256 53.524 256.825 53.524C257.581 53.524 258.16 53.7713 258.561 54.266C258.962 54.7607 259.163 55.4653 259.163 56.38V61H257.371V56.562C257.371 56.0393 257.278 55.6473 257.091 55.386C256.904 55.1247 256.596 54.994 256.167 54.994C255.98 54.994 255.798 55.022 255.621 55.078C255.453 55.1247 255.299 55.1993 255.159 55.302C255.028 55.3953 254.921 55.5167 254.837 55.666C254.753 55.806 254.711 55.974 254.711 56.17V61H252.919V50.64ZM261.309 61V53.692H263.101V54.91H263.171C263.311 54.5273 263.535 54.2007 263.843 53.93C264.151 53.6593 264.581 53.524 265.131 53.524C265.635 53.524 266.069 53.6453 266.433 53.888C266.797 54.1307 267.068 54.4993 267.245 54.994H267.273C267.404 54.5833 267.661 54.238 268.043 53.958C268.435 53.6687 268.925 53.524 269.513 53.524C270.232 53.524 270.783 53.7713 271.165 54.266C271.557 54.7607 271.753 55.4653 271.753 56.38V61H269.961V56.562C269.961 55.5167 269.569 54.994 268.785 54.994C268.608 54.994 268.435 55.022 268.267 55.078C268.109 55.1247 267.964 55.1993 267.833 55.302C267.712 55.3953 267.614 55.5167 267.539 55.666C267.465 55.806 267.427 55.974 267.427 56.17V61H265.635V56.562C265.635 55.5167 265.243 54.994 264.459 54.994C264.291 54.994 264.123 55.022 263.955 55.078C263.797 55.1247 263.652 55.1993 263.521 55.302C263.4 55.3953 263.297 55.5167 263.213 55.666C263.139 55.806 263.101 55.974 263.101 56.17V61H261.309Z" fill="#343A3F"/>
<path d="M1.302 15V5.228H7.266V6.264H2.478V9.54H6.986V10.576H2.478V13.964H7.266V15H1.302ZM9.51211 15V7.776H10.6321V8.952H10.6881C10.8654 8.54133 11.1128 8.21467 11.4301 7.972C11.7568 7.72933 12.1908 7.608 12.7321 7.608C13.4788 7.608 14.0668 7.85067 14.4961 8.336C14.9348 8.812 15.1541 9.48867 15.1541 10.366V15H14.0341V10.562C14.0341 9.26467 13.4881 8.616 12.3961 8.616C12.1721 8.616 11.9528 8.644 11.7381 8.7C11.5328 8.756 11.3461 8.84 11.1781 8.952C11.0101 9.064 10.8748 9.20867 10.7721 9.386C10.6788 9.554 10.6321 9.75467 10.6321 9.988V15H9.51211ZM19.2251 15C18.8331 15 18.5345 14.8927 18.3291 14.678C18.1331 14.454 18.0351 14.1647 18.0351 13.81V8.756H16.8451V7.776H17.5171C17.7598 7.776 17.9231 7.72933 18.0071 7.636C18.1005 7.53333 18.1471 7.36067 18.1471 7.118V5.774H19.1551V7.776H20.7371V8.756H19.1551V14.02H20.6251V15H19.2251ZM25.3587 15.168C24.864 15.168 24.416 15.0793 24.0147 14.902C23.6227 14.7247 23.282 14.4727 22.9927 14.146C22.7127 13.81 22.4933 13.4133 22.3347 12.956C22.1853 12.4893 22.1107 11.9667 22.1107 11.388C22.1107 10.8187 22.1853 10.3007 22.3347 9.834C22.4933 9.36733 22.7127 8.97067 22.9927 8.644C23.282 8.308 23.6227 8.05133 24.0147 7.874C24.416 7.69667 24.864 7.608 25.3587 7.608C25.844 7.608 26.278 7.69667 26.6607 7.874C27.0433 8.05133 27.37 8.29867 27.6407 8.616C27.9113 8.924 28.1167 9.29267 28.2567 9.722C28.406 10.1513 28.4807 10.6227 28.4807 11.136V11.668H23.2867V12.004C23.2867 12.312 23.3333 12.6013 23.4267 12.872C23.5293 13.1333 23.6693 13.362 23.8467 13.558C24.0333 13.754 24.2573 13.908 24.5187 14.02C24.7893 14.132 25.0927 14.188 25.4287 14.188C25.886 14.188 26.2827 14.0807 26.6187 13.866C26.964 13.6513 27.23 13.3433 27.4167 12.942L28.2147 13.516C27.9813 14.0107 27.6173 14.412 27.1227 14.72C26.628 15.0187 26.04 15.168 25.3587 15.168ZM25.3587 8.546C25.0507 8.546 24.7707 8.602 24.5187 8.714C24.2667 8.81667 24.0473 8.966 23.8607 9.162C23.6833 9.358 23.5433 9.59133 23.4407 9.862C23.338 10.1233 23.2867 10.4127 23.2867 10.73V10.828H27.2767V10.674C27.2767 10.03 27.0993 9.51667 26.7447 9.134C26.3993 8.742 25.9373 8.546 25.3587 8.546ZM30.4862 15V7.776H31.6062V9.106H31.6762C31.8069 8.76067 32.0402 8.45267 32.3762 8.182C32.7122 7.91133 33.1742 7.776 33.7622 7.776H34.1962V8.896H33.5382C32.9316 8.896 32.4556 9.01267 32.1102 9.246C31.7742 9.47 31.6062 9.75467 31.6062 10.1V15H30.4862ZM44.5055 15C44.0855 15 43.7821 14.888 43.5955 14.664C43.4181 14.44 43.3061 14.16 43.2595 13.824H43.1895C43.0308 14.272 42.7695 14.608 42.4055 14.832C42.0415 15.056 41.6075 15.168 41.1035 15.168C40.3381 15.168 39.7408 14.972 39.3115 14.58C38.8915 14.188 38.6815 13.656 38.6815 12.984C38.6815 12.3027 38.9288 11.78 39.4235 11.416C39.9275 11.052 40.7068 10.87 41.7615 10.87H43.1895V10.156C43.1895 9.64267 43.0495 9.25067 42.7695 8.98C42.4895 8.70933 42.0601 8.574 41.4815 8.574C41.0428 8.574 40.6741 8.672 40.3755 8.868C40.0861 9.064 39.8435 9.32533 39.6475 9.652L38.9755 9.022C39.1715 8.63 39.4841 8.29867 39.9135 8.028C40.3428 7.748 40.8841 7.608 41.5375 7.608C42.4148 7.608 43.0961 7.82267 43.5815 8.252C44.0668 8.68133 44.3095 9.27867 44.3095 10.044V14.02H45.1355V15H44.5055ZM41.2855 14.216C41.5655 14.216 41.8221 14.1833 42.0555 14.118C42.2888 14.0527 42.4895 13.9593 42.6575 13.838C42.8255 13.7167 42.9561 13.5767 43.0495 13.418C43.1428 13.2593 43.1895 13.0867 43.1895 12.9V11.71H41.7055C41.0615 11.71 40.5901 11.8033 40.2915 11.99C40.0021 12.1767 39.8575 12.4473 39.8575 12.802V13.096C39.8575 13.4507 39.9835 13.726 40.2355 13.922C40.4968 14.118 40.8468 14.216 41.2855 14.216ZM50.3626 15V7.776H51.4826V8.952H51.5386C51.7159 8.54133 51.9632 8.21467 52.2806 7.972C52.6072 7.72933 53.0412 7.608 53.5826 7.608C54.3292 7.608 54.9172 7.85067 55.3466 8.336C55.7852 8.812 56.0046 9.48867 56.0046 10.366V15H54.8846V10.562C54.8846 9.26467 54.3386 8.616 53.2466 8.616C53.0226 8.616 52.8032 8.644 52.5886 8.7C52.3832 8.756 52.1966 8.84 52.0286 8.952C51.8606 9.064 51.7252 9.20867 51.6226 9.386C51.5292 9.554 51.4826 9.75467 51.4826 9.988V15H50.3626ZM62.9316 13.824H62.8756C62.8009 13.992 62.7076 14.16 62.5956 14.328C62.4929 14.4867 62.3623 14.6313 62.2036 14.762C62.0449 14.8833 61.8536 14.9813 61.6296 15.056C61.4056 15.1307 61.1443 15.168 60.8456 15.168C60.0989 15.168 59.5063 14.93 59.0676 14.454C58.6289 13.9687 58.4096 13.2873 58.4096 12.41V7.776H59.5296V12.214C59.5296 13.5113 60.0803 14.16 61.1816 14.16C61.4056 14.16 61.6203 14.132 61.8256 14.076C62.0403 14.02 62.2269 13.936 62.3856 13.824C62.5536 13.712 62.6843 13.572 62.7776 13.404C62.8803 13.2267 62.9316 13.0167 62.9316 12.774V7.776H64.0516V15H62.9316V13.824ZM66.5966 15V7.776H67.7166V8.952H67.7726C67.8566 8.76533 67.95 8.59267 68.0526 8.434C68.1646 8.266 68.2953 8.12133 68.4446 8C68.6033 7.87867 68.7853 7.78533 68.9906 7.72C69.196 7.64533 69.4386 7.608 69.7186 7.608C70.1946 7.608 70.6333 7.72467 71.0346 7.958C71.436 8.182 71.7346 8.55533 71.9306 9.078H71.9586C72.0893 8.686 72.332 8.34533 72.6866 8.056C73.0506 7.75733 73.5406 7.608 74.1566 7.608C74.894 7.608 75.468 7.85067 75.8786 8.336C76.2986 8.812 76.5086 9.48867 76.5086 10.366V15H75.3886V10.562C75.3886 9.918 75.2626 9.43267 75.0106 9.106C74.7586 8.77933 74.3573 8.616 73.8066 8.616C73.5826 8.616 73.368 8.644 73.1626 8.7C72.9666 8.756 72.7893 8.84 72.6306 8.952C72.472 9.064 72.346 9.20867 72.2526 9.386C72.1593 9.554 72.1126 9.75467 72.1126 9.988V15H70.9926V10.562C70.9926 9.918 70.8666 9.43267 70.6146 9.106C70.3626 8.77933 69.9706 8.616 69.4386 8.616C69.2146 8.616 69 8.644 68.7946 8.7C68.5893 8.756 68.4073 8.84 68.2486 8.952C68.09 9.064 67.9593 9.20867 67.8566 9.386C67.7633 9.554 67.7166 9.75467 67.7166 9.988V15H66.5966ZM78.9793 4.64H80.0993V8.952H80.1553C80.342 8.49467 80.6126 8.15867 80.9673 7.944C81.3313 7.72 81.7653 7.608 82.2693 7.608C82.7173 7.608 83.1233 7.69667 83.4873 7.874C83.8513 8.05133 84.1593 8.30333 84.4113 8.63C84.6726 8.95667 84.8686 9.35333 84.9993 9.82C85.1393 10.2867 85.2093 10.8093 85.2093 11.388C85.2093 11.9667 85.1393 12.4893 84.9993 12.956C84.8686 13.4227 84.6726 13.8193 84.4113 14.146C84.1593 14.4727 83.8513 14.7247 83.4873 14.902C83.1233 15.0793 82.7173 15.168 82.2693 15.168C81.2893 15.168 80.5846 14.72 80.1553 13.824H80.0993V15H78.9793V4.64ZM81.9613 14.16C82.596 14.16 83.0953 13.964 83.4593 13.572C83.8233 13.1707 84.0053 12.648 84.0053 12.004V10.772C84.0053 10.128 83.8233 9.61 83.4593 9.218C83.0953 8.81667 82.596 8.616 81.9613 8.616C81.7093 8.616 81.4666 8.65333 81.2333 8.728C81.0093 8.79333 80.8133 8.88667 80.6453 9.008C80.4773 9.12933 80.342 9.27867 80.2393 9.456C80.146 9.624 80.0993 9.806 80.0993 10.002V12.69C80.0993 12.9233 80.146 13.1333 80.2393 13.32C80.342 13.4973 80.4773 13.6513 80.6453 13.782C80.8133 13.9033 81.0093 13.9967 81.2333 14.062C81.4666 14.1273 81.7093 14.16 81.9613 14.16ZM89.9764 15.168C89.4817 15.168 89.0337 15.0793 88.6324 14.902C88.2404 14.7247 87.8997 14.4727 87.6104 14.146C87.3304 13.81 87.1111 13.4133 86.9524 12.956C86.8031 12.4893 86.7284 11.9667 86.7284 11.388C86.7284 10.8187 86.8031 10.3007 86.9524 9.834C87.1111 9.36733 87.3304 8.97067 87.6104 8.644C87.8997 8.308 88.2404 8.05133 88.6324 7.874C89.0337 7.69667 89.4817 7.608 89.9764 7.608C90.4617 7.608 90.8957 7.69667 91.2784 7.874C91.6611 8.05133 91.9877 8.29867 92.2584 8.616C92.5291 8.924 92.7344 9.29267 92.8744 9.722C93.0237 10.1513 93.0984 10.6227 93.0984 11.136V11.668H87.9044V12.004C87.9044 12.312 87.9511 12.6013 88.0444 12.872C88.1471 13.1333 88.2871 13.362 88.4644 13.558C88.6511 13.754 88.8751 13.908 89.1364 14.02C89.4071 14.132 89.7104 14.188 90.0464 14.188C90.5037 14.188 90.9004 14.0807 91.2364 13.866C91.5817 13.6513 91.8477 13.3433 92.0344 12.942L92.8324 13.516C92.5991 14.0107 92.2351 14.412 91.7404 14.72C91.2457 15.0187 90.6577 15.168 89.9764 15.168ZM89.9764 8.546C89.6684 8.546 89.3884 8.602 89.1364 8.714C88.8844 8.81667 88.6651 8.966 88.4784 9.162C88.3011 9.358 88.1611 9.59133 88.0584 9.862C87.9557 10.1233 87.9044 10.4127 87.9044 10.73V10.828H91.8944V10.674C91.8944 10.03 91.7171 9.51667 91.3624 9.134C91.0171 8.742 90.5551 8.546 89.9764 8.546ZM95.104 15V7.776H96.224V9.106H96.294C96.4247 8.76067 96.658 8.45267 96.994 8.182C97.33 7.91133 97.792 7.776 98.38 7.776H98.814V8.896H98.156C97.5493 8.896 97.0733 9.01267 96.728 9.246C96.392 9.47 96.224 9.75467 96.224 10.1V15H95.104ZM103.873 4.64H104.993V8.952H105.049C105.236 8.49467 105.507 8.15867 105.861 7.944C106.225 7.72 106.659 7.608 107.163 7.608C107.611 7.608 108.017 7.69667 108.381 7.874C108.745 8.05133 109.053 8.30333 109.305 8.63C109.567 8.95667 109.763 9.35333 109.893 9.82C110.033 10.2867 110.103 10.8093 110.103 11.388C110.103 11.9667 110.033 12.4893 109.893 12.956C109.763 13.4227 109.567 13.8193 109.305 14.146C109.053 14.4727 108.745 14.7247 108.381 14.902C108.017 15.0793 107.611 15.168 107.163 15.168C106.183 15.168 105.479 14.72 105.049 13.824H104.993V15H103.873V4.64ZM106.855 14.16C107.49 14.16 107.989 13.964 108.353 13.572C108.717 13.1707 108.899 12.648 108.899 12.004V10.772C108.899 10.128 108.717 9.61 108.353 9.218C107.989 8.81667 107.49 8.616 106.855 8.616C106.603 8.616 106.361 8.65333 106.127 8.728C105.903 8.79333 105.707 8.88667 105.539 9.008C105.371 9.12933 105.236 9.27867 105.133 9.456C105.04 9.624 104.993 9.806 104.993 10.002V12.69C104.993 12.9233 105.04 13.1333 105.133 13.32C105.236 13.4973 105.371 13.6513 105.539 13.782C105.707 13.9033 105.903 13.9967 106.127 14.062C106.361 14.1273 106.603 14.16 106.855 14.16ZM114.87 15.168C114.376 15.168 113.928 15.0793 113.526 14.902C113.134 14.7247 112.794 14.4727 112.504 14.146C112.224 13.81 112.005 13.4133 111.846 12.956C111.697 12.4893 111.622 11.9667 111.622 11.388C111.622 10.8187 111.697 10.3007 111.846 9.834C112.005 9.36733 112.224 8.97067 112.504 8.644C112.794 8.308 113.134 8.05133 113.526 7.874C113.928 7.69667 114.376 7.608 114.87 7.608C115.356 7.608 115.79 7.69667 116.172 7.874C116.555 8.05133 116.882 8.29867 117.152 8.616C117.423 8.924 117.628 9.29267 117.768 9.722C117.918 10.1513 117.992 10.6227 117.992 11.136V11.668H112.798V12.004C112.798 12.312 112.845 12.6013 112.938 12.872C113.041 13.1333 113.181 13.362 113.358 13.558C113.545 13.754 113.769 13.908 114.03 14.02C114.301 14.132 114.604 14.188 114.94 14.188C115.398 14.188 115.794 14.0807 116.13 13.866C116.476 13.6513 116.742 13.3433 116.928 12.942L117.726 13.516C117.493 14.0107 117.129 14.412 116.634 14.72C116.14 15.0187 115.552 15.168 114.87 15.168ZM114.87 8.546C114.562 8.546 114.282 8.602 114.03 8.714C113.778 8.81667 113.559 8.966 113.372 9.162C113.195 9.358 113.055 9.59133 112.952 9.862C112.85 10.1233 112.798 10.4127 112.798 10.73V10.828H116.788V10.674C116.788 10.03 116.611 9.51667 116.256 9.134C115.911 8.742 115.449 8.546 114.87 8.546ZM121.188 15C120.796 15 120.497 14.8927 120.292 14.678C120.096 14.454 119.998 14.174 119.998 13.838V4.64H121.118V14.02H122.182V15H121.188ZM126.702 15.168C126.217 15.168 125.774 15.0793 125.372 14.902C124.971 14.7247 124.626 14.4727 124.336 14.146C124.056 13.81 123.837 13.4133 123.678 12.956C123.52 12.4893 123.44 11.9667 123.44 11.388C123.44 10.8187 123.52 10.3007 123.678 9.834C123.837 9.36733 124.056 8.97067 124.336 8.644C124.626 8.308 124.971 8.05133 125.372 7.874C125.774 7.69667 126.217 7.608 126.702 7.608C127.188 7.608 127.626 7.69667 128.018 7.874C128.42 8.05133 128.765 8.308 129.054 8.644C129.344 8.97067 129.568 9.36733 129.726 9.834C129.885 10.3007 129.964 10.8187 129.964 11.388C129.964 11.9667 129.885 12.4893 129.726 12.956C129.568 13.4133 129.344 13.81 129.054 14.146C128.765 14.4727 128.42 14.7247 128.018 14.902C127.626 15.0793 127.188 15.168 126.702 15.168ZM126.702 14.174C127.309 14.174 127.804 13.9873 128.186 13.614C128.569 13.2407 128.76 12.6713 128.76 11.906V10.87C128.76 10.1047 128.569 9.53533 128.186 9.162C127.804 8.78867 127.309 8.602 126.702 8.602C126.096 8.602 125.601 8.78867 125.218 9.162C124.836 9.53533 124.644 10.1047 124.644 10.87V11.906C124.644 12.6713 124.836 13.2407 125.218 13.614C125.601 13.9873 126.096 14.174 126.702 14.174ZM131.142 7.776H132.234L133.004 10.898L133.774 14.062H133.802L134.684 10.898L135.594 7.776H136.588L137.526 10.898L138.422 14.062H138.45L139.192 10.898L139.976 7.776H141.026L139.108 15H137.722L136.714 11.528L136.084 9.33H136.056L135.44 11.528L134.432 15H133.074L131.142 7.776ZM151.523 15C151.103 15 150.799 14.888 150.613 14.664C150.435 14.44 150.323 14.16 150.277 13.824H150.207C150.048 14.272 149.787 14.608 149.423 14.832C149.059 15.056 148.625 15.168 148.121 15.168C147.355 15.168 146.758 14.972 146.329 14.58C145.909 14.188 145.699 13.656 145.699 12.984C145.699 12.3027 145.946 11.78 146.441 11.416C146.945 11.052 147.724 10.87 148.779 10.87H150.207V10.156C150.207 9.64267 150.067 9.25067 149.787 8.98C149.507 8.70933 149.077 8.574 148.499 8.574C148.06 8.574 147.691 8.672 147.393 8.868C147.103 9.064 146.861 9.32533 146.665 9.652L145.993 9.022C146.189 8.63 146.501 8.29867 146.931 8.028C147.36 7.748 147.901 7.608 148.555 7.608C149.432 7.608 150.113 7.82267 150.599 8.252C151.084 8.68133 151.327 9.27867 151.327 10.044V14.02H152.153V15H151.523ZM148.303 14.216C148.583 14.216 148.839 14.1833 149.073 14.118C149.306 14.0527 149.507 13.9593 149.675 13.838C149.843 13.7167 149.973 13.5767 150.067 13.418C150.16 13.2593 150.207 13.0867 150.207 12.9V11.71H148.723C148.079 11.71 147.607 11.8033 147.309 11.99C147.019 12.1767 146.875 12.4473 146.875 12.802V13.096C146.875 13.4507 147.001 13.726 147.253 13.922C147.514 14.118 147.864 14.216 148.303 14.216ZM153.911 15V7.776H155.031V8.952H155.087C155.265 8.54133 155.512 8.21467 155.829 7.972C156.156 7.72933 156.59 7.608 157.131 7.608C157.878 7.608 158.466 7.85067 158.895 8.336C159.334 8.812 159.553 9.48867 159.553 10.366V15H158.433V10.562C158.433 9.26467 157.887 8.616 156.795 8.616C156.571 8.616 156.352 8.644 156.137 8.7C155.932 8.756 155.745 8.84 155.577 8.952C155.409 9.064 155.274 9.20867 155.171 9.386C155.078 9.554 155.031 9.75467 155.031 9.988V15H153.911ZM166.648 13.824H166.592C166.154 14.72 165.449 15.168 164.478 15.168C164.03 15.168 163.624 15.0793 163.26 14.902C162.896 14.7247 162.584 14.4727 162.322 14.146C162.07 13.8193 161.874 13.4227 161.734 12.956C161.604 12.4893 161.538 11.9667 161.538 11.388C161.538 10.8093 161.604 10.2867 161.734 9.82C161.874 9.35333 162.07 8.95667 162.322 8.63C162.584 8.30333 162.896 8.05133 163.26 7.874C163.624 7.69667 164.03 7.608 164.478 7.608C164.982 7.608 165.412 7.72 165.766 7.944C166.13 8.15867 166.406 8.49467 166.592 8.952H166.648V4.64H167.768V15H166.648V13.824ZM164.786 14.16C165.038 14.16 165.276 14.1273 165.5 14.062C165.734 13.9967 165.934 13.9033 166.102 13.782C166.27 13.6513 166.401 13.4973 166.494 13.32C166.597 13.1333 166.648 12.9233 166.648 12.69V10.002C166.648 9.806 166.597 9.624 166.494 9.456C166.401 9.27867 166.27 9.12933 166.102 9.008C165.934 8.88667 165.734 8.79333 165.5 8.728C165.276 8.65333 165.038 8.616 164.786 8.616C164.152 8.616 163.652 8.81667 163.288 9.218C162.924 9.61 162.742 10.128 162.742 10.772V12.004C162.742 12.648 162.924 13.1707 163.288 13.572C163.652 13.964 164.152 14.16 164.786 14.16ZM175.374 15C174.982 15 174.683 14.8927 174.478 14.678C174.282 14.454 174.184 14.1647 174.184 13.81V8.756H172.994V7.776H173.666C173.909 7.776 174.072 7.72933 174.156 7.636C174.249 7.53333 174.296 7.36067 174.296 7.118V5.774H175.304V7.776H176.886V8.756H175.304V14.02H176.774V15H175.374ZM178.846 4.64H179.966V8.952H180.022C180.199 8.54133 180.447 8.21467 180.764 7.972C181.091 7.72933 181.525 7.608 182.066 7.608C182.813 7.608 183.401 7.85067 183.83 8.336C184.269 8.812 184.488 9.48867 184.488 10.366V15H183.368V10.562C183.368 9.26467 182.822 8.616 181.73 8.616C181.506 8.616 181.287 8.644 181.072 8.7C180.867 8.756 180.68 8.84 180.512 8.952C180.344 9.064 180.209 9.20867 180.106 9.386C180.013 9.554 179.966 9.75467 179.966 9.988V15H178.846V4.64ZM189.679 15.168C189.184 15.168 188.736 15.0793 188.335 14.902C187.943 14.7247 187.602 14.4727 187.313 14.146C187.033 13.81 186.814 13.4133 186.655 12.956C186.506 12.4893 186.431 11.9667 186.431 11.388C186.431 10.8187 186.506 10.3007 186.655 9.834C186.814 9.36733 187.033 8.97067 187.313 8.644C187.602 8.308 187.943 8.05133 188.335 7.874C188.736 7.69667 189.184 7.608 189.679 7.608C190.164 7.608 190.598 7.69667 190.981 7.874C191.364 8.05133 191.69 8.29867 191.961 8.616C192.232 8.924 192.437 9.29267 192.577 9.722C192.726 10.1513 192.801 10.6227 192.801 11.136V11.668H187.607V12.004C187.607 12.312 187.654 12.6013 187.747 12.872C187.85 13.1333 187.99 13.362 188.167 13.558C188.354 13.754 188.578 13.908 188.839 14.02C189.11 14.132 189.413 14.188 189.749 14.188C190.206 14.188 190.603 14.0807 190.939 13.866C191.284 13.6513 191.55 13.3433 191.737 12.942L192.535 13.516C192.302 14.0107 191.938 14.412 191.443 14.72C190.948 15.0187 190.36 15.168 189.679 15.168ZM189.679 8.546C189.371 8.546 189.091 8.602 188.839 8.714C188.587 8.81667 188.368 8.966 188.181 9.162C188.004 9.358 187.864 9.59133 187.761 9.862C187.658 10.1233 187.607 10.4127 187.607 10.73V10.828H191.597V10.674C191.597 10.03 191.42 9.51667 191.065 9.134C190.72 8.742 190.258 8.546 189.679 8.546ZM200.445 15.168C199.773 15.168 199.209 15.042 198.751 14.79C198.303 14.5287 197.916 14.1833 197.589 13.754L198.387 13.11C198.667 13.4647 198.98 13.74 199.325 13.936C199.671 14.1227 200.072 14.216 200.529 14.216C201.005 14.216 201.374 14.1133 201.635 13.908C201.906 13.7027 202.041 13.4133 202.041 13.04C202.041 12.76 201.948 12.522 201.761 12.326C201.584 12.1207 201.257 11.9807 200.781 11.906L200.207 11.822C199.871 11.7753 199.563 11.7053 199.283 11.612C199.003 11.5093 198.756 11.3787 198.541 11.22C198.336 11.052 198.173 10.8467 198.051 10.604C197.939 10.3613 197.883 10.072 197.883 9.736C197.883 9.38133 197.949 9.07333 198.079 8.812C198.21 8.54133 198.387 8.31733 198.611 8.14C198.845 7.96267 199.12 7.832 199.437 7.748C199.755 7.65467 200.095 7.608 200.459 7.608C201.047 7.608 201.537 7.71067 201.929 7.916C202.331 8.12133 202.681 8.406 202.979 8.77L202.237 9.442C202.079 9.218 201.845 9.01733 201.537 8.84C201.229 8.65333 200.842 8.56 200.375 8.56C199.909 8.56 199.554 8.66267 199.311 8.868C199.078 9.064 198.961 9.33467 198.961 9.68C198.961 10.0347 199.078 10.2913 199.311 10.45C199.554 10.6087 199.899 10.7253 200.347 10.8L200.907 10.884C201.71 11.0053 202.279 11.2387 202.615 11.584C202.951 11.92 203.119 12.3633 203.119 12.914C203.119 13.614 202.881 14.1647 202.405 14.566C201.929 14.9673 201.276 15.168 200.445 15.168ZM209.463 7.776H210.569L207.335 16.68C207.251 16.8947 207.167 17.072 207.083 17.212C206.999 17.3613 206.897 17.478 206.775 17.562C206.654 17.646 206.5 17.7067 206.313 17.744C206.136 17.7813 205.917 17.8 205.655 17.8H205.081V16.82H206.215L206.761 15.28L204.059 7.776H205.179L206.915 12.69L207.251 13.866H207.321L207.713 12.69L209.463 7.776ZM214.273 15.168C213.601 15.168 213.036 15.042 212.579 14.79C212.131 14.5287 211.744 14.1833 211.417 13.754L212.215 13.11C212.495 13.4647 212.808 13.74 213.153 13.936C213.498 14.1227 213.9 14.216 214.357 14.216C214.833 14.216 215.202 14.1133 215.463 13.908C215.734 13.7027 215.869 13.4133 215.869 13.04C215.869 12.76 215.776 12.522 215.589 12.326C215.412 12.1207 215.085 11.9807 214.609 11.906L214.035 11.822C213.699 11.7753 213.391 11.7053 213.111 11.612C212.831 11.5093 212.584 11.3787 212.369 11.22C212.164 11.052 212 10.8467 211.879 10.604C211.767 10.3613 211.711 10.072 211.711 9.736C211.711 9.38133 211.776 9.07333 211.907 8.812C212.038 8.54133 212.215 8.31733 212.439 8.14C212.672 7.96267 212.948 7.832 213.265 7.748C213.582 7.65467 213.923 7.608 214.287 7.608C214.875 7.608 215.365 7.71067 215.757 7.916C216.158 8.12133 216.508 8.406 216.807 8.77L216.065 9.442C215.906 9.218 215.673 9.01733 215.365 8.84C215.057 8.65333 214.67 8.56 214.203 8.56C213.736 8.56 213.382 8.66267 213.139 8.868C212.906 9.064 212.789 9.33467 212.789 9.68C212.789 10.0347 212.906 10.2913 213.139 10.45C213.382 10.6087 213.727 10.7253 214.175 10.8L214.735 10.884C215.538 11.0053 216.107 11.2387 216.443 11.584C216.779 11.92 216.947 12.3633 216.947 12.914C216.947 13.614 216.709 14.1647 216.233 14.566C215.757 14.9673 215.104 15.168 214.273 15.168ZM220.586 15C220.194 15 219.895 14.8927 219.69 14.678C219.494 14.454 219.396 14.1647 219.396 13.81V8.756H218.206V7.776H218.878C219.12 7.776 219.284 7.72933 219.368 7.636C219.461 7.53333 219.508 7.36067 219.508 7.118V5.774H220.516V7.776H222.098V8.756H220.516V14.02H221.986V15H220.586ZM226.719 15.168C226.225 15.168 225.777 15.0793 225.375 14.902C224.983 14.7247 224.643 14.4727 224.353 14.146C224.073 13.81 223.854 13.4133 223.695 12.956C223.546 12.4893 223.471 11.9667 223.471 11.388C223.471 10.8187 223.546 10.3007 223.695 9.834C223.854 9.36733 224.073 8.97067 224.353 8.644C224.643 8.308 224.983 8.05133 225.375 7.874C225.777 7.69667 226.225 7.608 226.719 7.608C227.205 7.608 227.639 7.69667 228.021 7.874C228.404 8.05133 228.731 8.29867 229.001 8.616C229.272 8.924 229.477 9.29267 229.617 9.722C229.767 10.1513 229.841 10.6227 229.841 11.136V11.668H224.647V12.004C224.647 12.312 224.694 12.6013 224.787 12.872C224.89 13.1333 225.03 13.362 225.207 13.558C225.394 13.754 225.618 13.908 225.879 14.02C226.15 14.132 226.453 14.188 226.789 14.188C227.247 14.188 227.643 14.0807 227.979 13.866C228.325 13.6513 228.591 13.3433 228.777 12.942L229.575 13.516C229.342 14.0107 228.978 14.412 228.483 14.72C227.989 15.0187 227.401 15.168 226.719 15.168ZM226.719 8.546C226.411 8.546 226.131 8.602 225.879 8.714C225.627 8.81667 225.408 8.966 225.221 9.162C225.044 9.358 224.904 9.59133 224.801 9.862C224.699 10.1233 224.647 10.4127 224.647 10.73V10.828H228.637V10.674C228.637 10.03 228.46 9.51667 228.105 9.134C227.76 8.742 227.298 8.546 226.719 8.546ZM231.847 15V7.776H232.967V8.952H233.023C233.107 8.76533 233.2 8.59267 233.303 8.434C233.415 8.266 233.545 8.12133 233.695 8C233.853 7.87867 234.035 7.78533 234.241 7.72C234.446 7.64533 234.689 7.608 234.969 7.608C235.445 7.608 235.883 7.72467 236.285 7.958C236.686 8.182 236.985 8.55533 237.181 9.078H237.209C237.339 8.686 237.582 8.34533 237.937 8.056C238.301 7.75733 238.791 7.608 239.407 7.608C240.144 7.608 240.718 7.85067 241.129 8.336C241.549 8.812 241.759 9.48867 241.759 10.366V15H240.639V10.562C240.639 9.918 240.513 9.43267 240.261 9.106C240.009 8.77933 239.607 8.616 239.057 8.616C238.833 8.616 238.618 8.644 238.413 8.7C238.217 8.756 238.039 8.84 237.881 8.952C237.722 9.064 237.596 9.20867 237.503 9.386C237.409 9.554 237.363 9.75467 237.363 9.988V15H236.243V10.562C236.243 9.918 236.117 9.43267 235.865 9.106C235.613 8.77933 235.221 8.616 234.689 8.616C234.465 8.616 234.25 8.644 234.045 8.7C233.839 8.756 233.657 8.84 233.499 8.952C233.34 9.064 233.209 9.20867 233.107 9.386C233.013 9.554 232.967 9.75467 232.967 9.988V15H231.847ZM246.942 7.776H248.034L248.804 10.898L249.574 14.062H249.602L250.484 10.898L251.394 7.776H252.388L253.326 10.898L254.222 14.062H254.25L254.992 10.898L255.776 7.776H256.826L254.908 15H253.522L252.514 11.528L251.884 9.33H251.856L251.24 11.528L250.232 15H248.874L246.942 7.776ZM259.164 6.082C258.921 6.082 258.744 6.026 258.632 5.914C258.529 5.79267 258.478 5.63867 258.478 5.452V5.27C258.478 5.08333 258.529 4.934 258.632 4.822C258.744 4.70067 258.921 4.64 259.164 4.64C259.407 4.64 259.579 4.70067 259.682 4.822C259.794 4.934 259.85 5.08333 259.85 5.27V5.452C259.85 5.63867 259.794 5.79267 259.682 5.914C259.579 6.026 259.407 6.082 259.164 6.082ZM258.604 7.776H259.724V15H258.604V7.776ZM263.454 15C263.062 15 262.763 14.8927 262.558 14.678C262.362 14.454 262.264 14.174 262.264 13.838V4.64H263.384V14.02H264.448V15H263.454ZM267.36 15C266.968 15 266.67 14.8927 266.464 14.678C266.268 14.454 266.17 14.174 266.17 13.838V4.64H267.29V14.02H268.354V15H267.36ZM278.863 15C278.443 15 278.14 14.888 277.953 14.664C277.776 14.44 277.664 14.16 277.617 13.824H277.547C277.389 14.272 277.127 14.608 276.763 14.832C276.399 15.056 275.965 15.168 275.461 15.168C274.696 15.168 274.099 14.972 273.669 14.58C273.249 14.188 273.039 13.656 273.039 12.984C273.039 12.3027 273.287 11.78 273.781 11.416C274.285 11.052 275.065 10.87 276.119 10.87H277.547V10.156C277.547 9.64267 277.407 9.25067 277.127 8.98C276.847 8.70933 276.418 8.574 275.839 8.574C275.401 8.574 275.032 8.672 274.733 8.868C274.444 9.064 274.201 9.32533 274.005 9.652L273.333 9.022C273.529 8.63 273.842 8.29867 274.271 8.028C274.701 7.748 275.242 7.608 275.895 7.608C276.773 7.608 277.454 7.82267 277.939 8.252C278.425 8.68133 278.667 9.27867 278.667 10.044V14.02H279.493V15H278.863ZM275.643 14.216C275.923 14.216 276.18 14.1833 276.413 14.118C276.647 14.0527 276.847 13.9593 277.015 13.838C277.183 13.7167 277.314 13.5767 277.407 13.418C277.501 13.2593 277.547 13.0867 277.547 12.9V11.71H276.063C275.419 11.71 274.948 11.8033 274.649 11.99C274.36 12.1767 274.215 12.4473 274.215 12.802V13.096C274.215 13.4507 274.341 13.726 274.593 13.922C274.855 14.118 275.205 14.216 275.643 14.216ZM285.872 13.824H285.816C285.377 14.72 284.672 15.168 283.702 15.168C283.254 15.168 282.848 15.0793 282.484 14.902C282.12 14.7247 281.807 14.4727 281.546 14.146C281.294 13.8193 281.098 13.4227 280.958 12.956C280.827 12.4893 280.762 11.9667 280.762 11.388C280.762 10.8093 280.827 10.2867 280.958 9.82C281.098 9.35333 281.294 8.95667 281.546 8.63C281.807 8.30333 282.12 8.05133 282.484 7.874C282.848 7.69667 283.254 7.608 283.702 7.608C284.206 7.608 284.635 7.72 284.99 7.944C285.354 8.15867 285.629 8.49467 285.816 8.952H285.872V4.64H286.992V15H285.872V13.824ZM284.01 14.16C284.262 14.16 284.5 14.1273 284.724 14.062C284.957 13.9967 285.158 13.9033 285.326 13.782C285.494 13.6513 285.624 13.4973 285.718 13.32C285.82 13.1333 285.872 12.9233 285.872 12.69V10.002C285.872 9.806 285.82 9.624 285.718 9.456C285.624 9.27867 285.494 9.12933 285.326 9.008C285.158 8.88667 284.957 8.79333 284.724 8.728C284.5 8.65333 284.262 8.616 284.01 8.616C283.375 8.616 282.876 8.81667 282.512 9.218C282.148 9.61 281.966 10.128 281.966 10.772V12.004C281.966 12.648 282.148 13.1707 282.512 13.572C282.876 13.964 283.375 14.16 284.01 14.16ZM294.153 13.824H294.097C293.658 14.72 292.954 15.168 291.983 15.168C291.535 15.168 291.129 15.0793 290.765 14.902C290.401 14.7247 290.088 14.4727 289.827 14.146C289.575 13.8193 289.379 13.4227 289.239 12.956C289.108 12.4893 289.043 11.9667 289.043 11.388C289.043 10.8093 289.108 10.2867 289.239 9.82C289.379 9.35333 289.575 8.95667 289.827 8.63C290.088 8.30333 290.401 8.05133 290.765 7.874C291.129 7.69667 291.535 7.608 291.983 7.608C292.487 7.608 292.916 7.72 293.271 7.944C293.635 8.15867 293.91 8.49467 294.097 8.952H294.153V4.64H295.273V15H294.153V13.824ZM292.291 14.16C292.543 14.16 292.781 14.1273 293.005 14.062C293.238 13.9967 293.439 13.9033 293.607 13.782C293.775 13.6513 293.906 13.4973 293.999 13.32C294.102 13.1333 294.153 12.9233 294.153 12.69V10.002C294.153 9.806 294.102 9.624 293.999 9.456C293.906 9.27867 293.775 9.12933 293.607 9.008C293.439 8.88667 293.238 8.79333 293.005 8.728C292.781 8.65333 292.543 8.616 292.291 8.616C291.656 8.616 291.157 8.81667 290.793 9.218C290.429 9.61 290.247 10.128 290.247 10.772V12.004C290.247 12.648 290.429 13.1707 290.793 13.572C291.157 13.964 291.656 14.16 292.291 14.16ZM302.879 15C302.487 15 302.188 14.8927 301.983 14.678C301.787 14.454 301.689 14.1647 301.689 13.81V8.756H300.499V7.776H301.171C301.413 7.776 301.577 7.72933 301.661 7.636C301.754 7.53333 301.801 7.36067 301.801 7.118V5.774H302.809V7.776H304.391V8.756H302.809V14.02H304.279V15H302.879ZM306.351 4.64H307.471V8.952H307.527C307.704 8.54133 307.951 8.21467 308.269 7.972C308.595 7.72933 309.029 7.608 309.571 7.608C310.317 7.608 310.905 7.85067 311.335 8.336C311.773 8.812 311.993 9.48867 311.993 10.366V15H310.873V10.562C310.873 9.26467 310.327 8.616 309.235 8.616C309.011 8.616 308.791 8.644 308.577 8.7C308.371 8.756 308.185 8.84 308.017 8.952C307.849 9.064 307.713 9.20867 307.611 9.386C307.517 9.554 307.471 9.75467 307.471 9.988V15H306.351V4.64ZM317.184 15.168C316.689 15.168 316.241 15.0793 315.84 14.902C315.448 14.7247 315.107 14.4727 314.818 14.146C314.538 13.81 314.318 13.4133 314.16 12.956C314.01 12.4893 313.936 11.9667 313.936 11.388C313.936 10.8187 314.01 10.3007 314.16 9.834C314.318 9.36733 314.538 8.97067 314.818 8.644C315.107 8.308 315.448 8.05133 315.84 7.874C316.241 7.69667 316.689 7.608 317.184 7.608C317.669 7.608 318.103 7.69667 318.486 7.874C318.868 8.05133 319.195 8.29867 319.466 8.616C319.736 8.924 319.942 9.29267 320.082 9.722C320.231 10.1513 320.306 10.6227 320.306 11.136V11.668H315.112V12.004C315.112 12.312 315.158 12.6013 315.252 12.872C315.354 13.1333 315.494 13.362 315.672 13.558C315.858 13.754 316.082 13.908 316.344 14.02C316.614 14.132 316.918 14.188 317.254 14.188C317.711 14.188 318.108 14.0807 318.444 13.866C318.789 13.6513 319.055 13.3433 319.242 12.942L320.04 13.516C319.806 14.0107 319.442 14.412 318.948 14.72C318.453 15.0187 317.865 15.168 317.184 15.168ZM317.184 8.546C316.876 8.546 316.596 8.602 316.344 8.714C316.092 8.81667 315.872 8.966 315.686 9.162C315.508 9.358 315.368 9.59133 315.266 9.862C315.163 10.1233 315.112 10.4127 315.112 10.73V10.828H319.102V10.674C319.102 10.03 318.924 9.51667 318.57 9.134C318.224 8.742 317.762 8.546 317.184 8.546ZM322.311 15V7.776H323.431V8.952H323.487C323.571 8.76533 323.665 8.59267 323.767 8.434C323.879 8.266 324.01 8.12133 324.159 8C324.318 7.87867 324.5 7.78533 324.705 7.72C324.911 7.64533 325.153 7.608 325.433 7.608C325.909 7.608 326.348 7.72467 326.749 7.958C327.151 8.182 327.449 8.55533 327.645 9.078H327.673C327.804 8.686 328.047 8.34533 328.401 8.056C328.765 7.75733 329.255 7.608 329.871 7.608C330.609 7.608 331.183 7.85067 331.593 8.336C332.013 8.812 332.223 9.48867 332.223 10.366V15H331.103V10.562C331.103 9.918 330.977 9.43267 330.725 9.106C330.473 8.77933 330.072 8.616 329.521 8.616C329.297 8.616 329.083 8.644 328.877 8.7C328.681 8.756 328.504 8.84 328.345 8.952C328.187 9.064 328.061 9.20867 327.967 9.386C327.874 9.554 327.827 9.75467 327.827 9.988V15H326.707V10.562C326.707 9.918 326.581 9.43267 326.329 9.106C326.077 8.77933 325.685 8.616 325.153 8.616C324.929 8.616 324.715 8.644 324.509 8.7C324.304 8.756 324.122 8.84 323.963 8.952C323.805 9.064 323.674 9.20867 323.571 9.386C323.478 9.554 323.431 9.75467 323.431 9.988V15H322.311ZM339.759 15C339.367 15 339.068 14.8927 338.863 14.678C338.667 14.454 338.569 14.1647 338.569 13.81V8.756H337.379V7.776H338.051C338.293 7.776 338.457 7.72933 338.541 7.636C338.634 7.53333 338.681 7.36067 338.681 7.118V5.774H339.689V7.776H341.271V8.756H339.689V14.02H341.159V15H339.759ZM345.906 15.168C345.421 15.168 344.978 15.0793 344.576 14.902C344.175 14.7247 343.83 14.4727 343.54 14.146C343.26 13.81 343.041 13.4133 342.882 12.956C342.724 12.4893 342.644 11.9667 342.644 11.388C342.644 10.8187 342.724 10.3007 342.882 9.834C343.041 9.36733 343.26 8.97067 343.54 8.644C343.83 8.308 344.175 8.05133 344.576 7.874C344.978 7.69667 345.421 7.608 345.906 7.608C346.392 7.608 346.83 7.69667 347.222 7.874C347.624 8.05133 347.969 8.308 348.258 8.644C348.548 8.97067 348.772 9.36733 348.93 9.834C349.089 10.3007 349.168 10.8187 349.168 11.388C349.168 11.9667 349.089 12.4893 348.93 12.956C348.772 13.4133 348.548 13.81 348.258 14.146C347.969 14.4727 347.624 14.7247 347.222 14.902C346.83 15.0793 346.392 15.168 345.906 15.168ZM345.906 14.174C346.513 14.174 347.008 13.9873 347.39 13.614C347.773 13.2407 347.964 12.6713 347.964 11.906V10.87C347.964 10.1047 347.773 9.53533 347.39 9.162C347.008 8.78867 346.513 8.602 345.906 8.602C345.3 8.602 344.805 8.78867 344.422 9.162C344.04 9.53533 343.848 10.1047 343.848 10.87V11.906C343.848 12.6713 344.04 13.2407 344.422 13.614C344.805 13.9873 345.3 14.174 345.906 14.174ZM357.26 15.798C357.26 16.5447 356.966 17.0907 356.378 17.436C355.799 17.7907 354.927 17.968 353.76 17.968C352.631 17.968 351.819 17.814 351.324 17.506C350.829 17.198 350.582 16.7593 350.582 16.19C350.582 15.798 350.685 15.49 350.89 15.266C351.095 15.0513 351.375 14.8927 351.73 14.79V14.636C351.301 14.4307 351.086 14.0947 351.086 13.628C351.086 13.264 351.203 12.9887 351.436 12.802C351.669 12.606 351.968 12.4613 352.332 12.368V12.312C351.903 12.1067 351.567 11.8127 351.324 11.43C351.091 11.0473 350.974 10.604 350.974 10.1C350.974 9.736 351.039 9.4 351.17 9.092C351.301 8.784 351.483 8.52267 351.716 8.308C351.959 8.084 352.243 7.91133 352.57 7.79C352.906 7.66867 353.279 7.608 353.69 7.608C354.203 7.608 354.661 7.70133 355.062 7.888V7.762C355.062 7.482 355.127 7.25333 355.258 7.076C355.389 6.88933 355.603 6.796 355.902 6.796H356.98V7.776H355.608V8.238C355.869 8.462 356.07 8.73267 356.21 9.05C356.359 9.358 356.434 9.708 356.434 10.1C356.434 10.464 356.369 10.8 356.238 11.108C356.107 11.416 355.921 11.682 355.678 11.906C355.445 12.1207 355.16 12.2887 354.824 12.41C354.488 12.5313 354.115 12.592 353.704 12.592C353.471 12.592 353.237 12.5687 353.004 12.522C352.761 12.5873 352.542 12.6853 352.346 12.816C352.15 12.9373 352.052 13.11 352.052 13.334C352.052 13.5487 352.155 13.6933 352.36 13.768C352.565 13.8427 352.831 13.88 353.158 13.88H354.698C355.594 13.88 356.243 14.0527 356.644 14.398C357.055 14.734 357.26 15.2007 357.26 15.798ZM356.21 15.882C356.21 15.5927 356.098 15.3593 355.874 15.182C355.659 15.014 355.272 14.93 354.712 14.93H352.304C351.856 15.1353 351.632 15.462 351.632 15.91C351.632 16.2273 351.749 16.498 351.982 16.722C352.225 16.946 352.631 17.058 353.2 17.058H354.236C354.861 17.058 355.347 16.96 355.692 16.764C356.037 16.568 356.21 16.274 356.21 15.882ZM353.704 11.696C354.18 11.696 354.558 11.584 354.838 11.36C355.118 11.1267 355.258 10.772 355.258 10.296V9.904C355.258 9.428 355.118 9.078 354.838 8.854C354.558 8.62067 354.18 8.504 353.704 8.504C353.228 8.504 352.85 8.62067 352.57 8.854C352.29 9.078 352.15 9.428 352.15 9.904V10.296C352.15 10.772 352.29 11.1267 352.57 11.36C352.85 11.584 353.228 11.696 353.704 11.696ZM361.361 15.168C360.866 15.168 360.418 15.0793 360.017 14.902C359.625 14.7247 359.284 14.4727 358.995 14.146C358.715 13.81 358.495 13.4133 358.337 12.956C358.187 12.4893 358.113 11.9667 358.113 11.388C358.113 10.8187 358.187 10.3007 358.337 9.834C358.495 9.36733 358.715 8.97067 358.995 8.644C359.284 8.308 359.625 8.05133 360.017 7.874C360.418 7.69667 360.866 7.608 361.361 7.608C361.846 7.608 362.28 7.69667 362.663 7.874C363.045 8.05133 363.372 8.29867 363.643 8.616C363.913 8.924 364.119 9.29267 364.259 9.722C364.408 10.1513 364.483 10.6227 364.483 11.136V11.668H359.289V12.004C359.289 12.312 359.335 12.6013 359.429 12.872C359.531 13.1333 359.671 13.362 359.849 13.558C360.035 13.754 360.259 13.908 360.521 14.02C360.791 14.132 361.095 14.188 361.431 14.188C361.888 14.188 362.285 14.0807 362.621 13.866C362.966 13.6513 363.232 13.3433 363.419 12.942L364.217 13.516C363.983 14.0107 363.619 14.412 363.125 14.72C362.63 15.0187 362.042 15.168 361.361 15.168ZM361.361 8.546C361.053 8.546 360.773 8.602 360.521 8.714C360.269 8.81667 360.049 8.966 359.863 9.162C359.685 9.358 359.545 9.59133 359.443 9.862C359.34 10.1233 359.289 10.4127 359.289 10.73V10.828H363.279V10.674C363.279 10.03 363.101 9.51667 362.747 9.134C362.401 8.742 361.939 8.546 361.361 8.546ZM368.084 15C367.692 15 367.394 14.8927 367.188 14.678C366.992 14.454 366.894 14.1647 366.894 13.81V8.756H365.704V7.776H366.376C366.619 7.776 366.782 7.72933 366.866 7.636C366.96 7.53333 367.006 7.36067 367.006 7.118V5.774H368.014V7.776H369.596V8.756H368.014V14.02H369.484V15H368.084ZM371.556 4.64H372.676V8.952H372.732C372.91 8.54133 373.157 8.21467 373.474 7.972C373.801 7.72933 374.235 7.608 374.776 7.608C375.523 7.608 376.111 7.85067 376.54 8.336C376.979 8.812 377.198 9.48867 377.198 10.366V15H376.078V10.562C376.078 9.26467 375.532 8.616 374.44 8.616C374.216 8.616 373.997 8.644 373.782 8.7C373.577 8.756 373.39 8.84 373.222 8.952C373.054 9.064 372.919 9.20867 372.816 9.386C372.723 9.554 372.676 9.75467 372.676 9.988V15H371.556V4.64ZM382.389 15.168C381.895 15.168 381.447 15.0793 381.045 14.902C380.653 14.7247 380.313 14.4727 380.023 14.146C379.743 13.81 379.524 13.4133 379.365 12.956C379.216 12.4893 379.141 11.9667 379.141 11.388C379.141 10.8187 379.216 10.3007 379.365 9.834C379.524 9.36733 379.743 8.97067 380.023 8.644C380.313 8.308 380.653 8.05133 381.045 7.874C381.447 7.69667 381.895 7.608 382.389 7.608C382.875 7.608 383.309 7.69667 383.691 7.874C384.074 8.05133 384.401 8.29867 384.671 8.616C384.942 8.924 385.147 9.29267 385.287 9.722C385.437 10.1513 385.511 10.6227 385.511 11.136V11.668H380.317V12.004C380.317 12.312 380.364 12.6013 380.457 12.872C380.56 13.1333 380.7 13.362 380.877 13.558C381.064 13.754 381.288 13.908 381.549 14.02C381.82 14.132 382.123 14.188 382.459 14.188C382.917 14.188 383.313 14.0807 383.649 13.866C383.995 13.6513 384.261 13.3433 384.447 12.942L385.245 13.516C385.012 14.0107 384.648 14.412 384.153 14.72C383.659 15.0187 383.071 15.168 382.389 15.168ZM382.389 8.546C382.081 8.546 381.801 8.602 381.549 8.714C381.297 8.81667 381.078 8.966 380.891 9.162C380.714 9.358 380.574 9.59133 380.471 9.862C380.369 10.1233 380.317 10.4127 380.317 10.73V10.828H384.307V10.674C384.307 10.03 384.13 9.51667 383.775 9.134C383.43 8.742 382.968 8.546 382.389 8.546ZM387.517 15V7.776H388.637V9.106H388.707C388.838 8.76067 389.071 8.45267 389.407 8.182C389.743 7.91133 390.205 7.776 390.793 7.776H391.227V8.896H390.569C389.962 8.896 389.486 9.01267 389.141 9.246C388.805 9.47 388.637 9.75467 388.637 10.1V15H387.517Z" fill="#343A3F"/>
<line x1="74" y1="66.5" x2="292" y2="66.5" stroke="#6929C4"/>
</svg>
