<svg width="373" height="213" viewBox="0 0 373 213" fill="none" xmlns="http://www.w3.org/2000/svg">
<path d="M372.354 181.354C372.549 181.158 372.549 180.842 372.354 180.646L369.172 177.464C368.976 177.269 368.66 177.269 368.464 177.464C368.269 177.66 368.269 177.976 368.464 178.172L371.293 181L368.464 183.828C368.269 184.024 368.269 184.34 368.464 184.536C368.66 184.731 368.976 184.731 369.172 184.536L372.354 181.354ZM80 181.5H372V180.5H80V181.5Z" fill="black"/>
<path d="M88.3536 0.646454C88.1583 0.451187 87.8417 0.451187 87.6464 0.646454L84.4645 3.82843C84.2692 4.0237 84.2692 4.34027 84.4645 4.53554C84.6597 4.73079 84.9763 4.73079 85.1716 4.53554L88 1.70711L90.8284 4.53554C91.0237 4.73079 91.3403 4.73079 91.5355 4.53554C91.7308 4.34027 91.7308 4.0237 91.5355 3.82843L88.3536 0.646454ZM88.5 185L88.5 1H87.5L87.5 185H88.5Z" fill="black"/>
<line x1="84" y1="160.5" x2="344" y2="160.5" stroke="#0F62FE" stroke-dasharray="5 2"/>
<path d="M2.786 68C2.394 68 2.09533 67.8927 1.89 67.678C1.694 67.454 1.596 67.1647 1.596 66.81V61.756H0.406V60.776H1.078C1.32067 60.776 1.484 60.7293 1.568 60.636C1.66133 60.5333 1.708 60.3607 1.708 60.118V58.774H2.716V60.776H4.298V61.756H2.716V67.02H4.186V68H2.786ZM6.8182 59.082C6.57554 59.082 6.3982 59.026 6.2862 58.914C6.18354 58.7927 6.1322 58.6387 6.1322 58.452V58.27C6.1322 58.0833 6.18354 57.934 6.2862 57.822C6.3982 57.7007 6.57554 57.64 6.8182 57.64C7.06087 57.64 7.23354 57.7007 7.3362 57.822C7.4482 57.934 7.5042 58.0833 7.5042 58.27V58.452C7.5042 58.6387 7.4482 58.7927 7.3362 58.914C7.23354 59.026 7.06087 59.082 6.8182 59.082ZM6.2582 60.776H7.3782V68H6.2582V60.776ZM9.9182 68V60.776H11.0382V61.952H11.0942C11.1782 61.7653 11.2715 61.5927 11.3742 61.434C11.4862 61.266 11.6169 61.1213 11.7662 61C11.9249 60.8787 12.1069 60.7853 12.3122 60.72C12.5175 60.6453 12.7602 60.608 13.0402 60.608C13.5162 60.608 13.9549 60.7247 14.3562 60.958C14.7575 61.182 15.0562 61.5553 15.2522 62.078H15.2802C15.4109 61.686 15.6535 61.3453 16.0082 61.056C16.3722 60.7573 16.8622 60.608 17.4782 60.608C18.2155 60.608 18.7895 60.8507 19.2002 61.336C19.6202 61.812 19.8302 62.4887 19.8302 63.366V68H18.7102V63.562C18.7102 62.918 18.5842 62.4327 18.3322 62.106C18.0802 61.7793 17.6789 61.616 17.1282 61.616C16.9042 61.616 16.6895 61.644 16.4842 61.7C16.2882 61.756 16.1109 61.84 15.9522 61.952C15.7935 62.064 15.6675 62.2087 15.5742 62.386C15.4809 62.554 15.4342 62.7547 15.4342 62.988V68H14.3142V63.562C14.3142 62.918 14.1882 62.4327 13.9362 62.106C13.6842 61.7793 13.2922 61.616 12.7602 61.616C12.5362 61.616 12.3215 61.644 12.1162 61.7C11.9109 61.756 11.7289 61.84 11.5702 61.952C11.4115 62.064 11.2809 62.2087 11.1782 62.386C11.0849 62.554 11.0382 62.7547 11.0382 62.988V68H9.9182ZM25.0169 68.168C24.5222 68.168 24.0742 68.0793 23.6729 67.902C23.2809 67.7247 22.9402 67.4727 22.6509 67.146C22.3709 66.81 22.1515 66.4133 21.9929 65.956C21.8435 65.4893 21.7689 64.9667 21.7689 64.388C21.7689 63.8187 21.8435 63.3007 21.9929 62.834C22.1515 62.3673 22.3709 61.9707 22.6509 61.644C22.9402 61.308 23.2809 61.0513 23.6729 60.874C24.0742 60.6967 24.5222 60.608 25.0169 60.608C25.5022 60.608 25.9362 60.6967 26.3189 60.874C26.7015 61.0513 27.0282 61.2987 27.2989 61.616C27.5695 61.924 27.7749 62.2927 27.9149 62.722C28.0642 63.1513 28.1389 63.6227 28.1389 64.136V64.668H22.9449V65.004C22.9449 65.312 22.9915 65.6013 23.0849 65.872C23.1875 66.1333 23.3275 66.362 23.5049 66.558C23.6915 66.754 23.9155 66.908 24.1769 67.02C24.4475 67.132 24.7509 67.188 25.0869 67.188C25.5442 67.188 25.9409 67.0807 26.2769 66.866C26.6222 66.6513 26.8882 66.3433 27.0749 65.942L27.8729 66.516C27.6395 67.0107 27.2755 67.412 26.7809 67.72C26.2862 68.0187 25.6982 68.168 25.0169 68.168ZM25.0169 61.546C24.7089 61.546 24.4289 61.602 24.1769 61.714C23.9249 61.8167 23.7055 61.966 23.5189 62.162C23.3415 62.358 23.2015 62.5913 23.0989 62.862C22.9962 63.1233 22.9449 63.4127 22.9449 63.73V63.828H26.9349V63.674C26.9349 63.03 26.7575 62.5167 26.4029 62.134C26.0575 61.742 25.5955 61.546 25.0169 61.546ZM35.209 68C34.817 68 34.5184 67.8927 34.313 67.678C34.117 67.454 34.019 67.1647 34.019 66.81V61.756H32.829V60.776H33.501C33.7437 60.776 33.907 60.7293 33.991 60.636C34.0844 60.5333 34.131 60.3607 34.131 60.118V58.774H35.139V60.776H36.721V61.756H35.139V67.02H36.609V68H35.209ZM43.9312 68C43.5112 68 43.2079 67.888 43.0212 67.664C42.8439 67.44 42.7319 67.16 42.6852 66.824H42.6152C42.4566 67.272 42.1952 67.608 41.8312 67.832C41.4672 68.056 41.0332 68.168 40.5292 68.168C39.7639 68.168 39.1666 67.972 38.7372 67.58C38.3172 67.188 38.1072 66.656 38.1072 65.984C38.1072 65.3027 38.3546 64.78 38.8492 64.416C39.3532 64.052 40.1326 63.87 41.1872 63.87H42.6152V63.156C42.6152 62.6427 42.4752 62.2507 42.1952 61.98C41.9152 61.7093 41.4859 61.574 40.9072 61.574C40.4686 61.574 40.0999 61.672 39.8012 61.868C39.5119 62.064 39.2692 62.3253 39.0732 62.652L38.4012 62.022C38.5972 61.63 38.9099 61.2987 39.3392 61.028C39.7686 60.748 40.3099 60.608 40.9632 60.608C41.8406 60.608 42.5219 60.8227 43.0072 61.252C43.4926 61.6813 43.7352 62.2787 43.7352 63.044V67.02H44.5612V68H43.9312ZM40.7112 67.216C40.9912 67.216 41.2479 67.1833 41.4812 67.118C41.7146 67.0527 41.9152 66.9593 42.0832 66.838C42.2512 66.7167 42.3819 66.5767 42.4752 66.418C42.5686 66.2593 42.6152 66.0867 42.6152 65.9V64.71H41.1312C40.4872 64.71 40.0159 64.8033 39.7172 64.99C39.4279 65.1767 39.2832 65.4473 39.2832 65.802V66.096C39.2832 66.4507 39.4092 66.726 39.6612 66.922C39.9226 67.118 40.2726 67.216 40.7112 67.216ZM46.3198 57.64H47.4398V64.206H47.4958L48.6018 62.974L50.6458 60.776H52.0038L49.3298 63.632L52.2698 68H50.9118L48.5178 64.318L47.4398 65.424V68H46.3198V57.64ZM56.3462 68.168C55.8515 68.168 55.4035 68.0793 55.0022 67.902C54.6102 67.7247 54.2695 67.4727 53.9802 67.146C53.7002 66.81 53.4808 66.4133 53.3222 65.956C53.1728 65.4893 53.0982 64.9667 53.0982 64.388C53.0982 63.8187 53.1728 63.3007 53.3222 62.834C53.4808 62.3673 53.7002 61.9707 53.9802 61.644C54.2695 61.308 54.6102 61.0513 55.0022 60.874C55.4035 60.6967 55.8515 60.608 56.3462 60.608C56.8315 60.608 57.2655 60.6967 57.6482 60.874C58.0308 61.0513 58.3575 61.2987 58.6282 61.616C58.8988 61.924 59.1042 62.2927 59.2442 62.722C59.3935 63.1513 59.4682 63.6227 59.4682 64.136V64.668H54.2742V65.004C54.2742 65.312 54.3208 65.6013 54.4142 65.872C54.5168 66.1333 54.6568 66.362 54.8342 66.558C55.0208 66.754 55.2448 66.908 55.5062 67.02C55.7768 67.132 56.0802 67.188 56.4162 67.188C56.8735 67.188 57.2702 67.0807 57.6062 66.866C57.9515 66.6513 58.2175 66.3433 58.4042 65.942L59.2022 66.516C58.9688 67.0107 58.6048 67.412 58.1102 67.72C57.6155 68.0187 57.0275 68.168 56.3462 68.168ZM56.3462 61.546C56.0382 61.546 55.7582 61.602 55.5062 61.714C55.2542 61.8167 55.0348 61.966 54.8482 62.162C54.6708 62.358 54.5308 62.5913 54.4282 62.862C54.3255 63.1233 54.2742 63.4127 54.2742 63.73V63.828H58.2642V63.674C58.2642 63.03 58.0868 62.5167 57.7322 62.134C57.3868 61.742 56.9248 61.546 56.3462 61.546ZM61.4737 68V60.776H62.5937V61.952H62.6497C62.8271 61.5413 63.0744 61.2147 63.3917 60.972C63.7184 60.7293 64.1524 60.608 64.6937 60.608C65.4404 60.608 66.0284 60.8507 66.4577 61.336C66.8964 61.812 67.1157 62.4887 67.1157 63.366V68H65.9957V63.562C65.9957 62.2647 65.4497 61.616 64.3577 61.616C64.1337 61.616 63.9144 61.644 63.6997 61.7C63.4944 61.756 63.3077 61.84 63.1397 61.952C62.9717 62.064 62.8364 62.2087 62.7337 62.386C62.6404 62.554 62.5937 62.7547 62.5937 62.988V68H61.4737ZM2.786 88C2.394 88 2.09533 87.8927 1.89 87.678C1.694 87.454 1.596 87.1647 1.596 86.81V81.756H0.406V80.776H1.078C1.32067 80.776 1.484 80.7293 1.568 80.636C1.66133 80.5333 1.708 80.3607 1.708 80.118V78.774H2.716V80.776H4.298V81.756H2.716V87.02H4.186V88H2.786ZM8.93352 88.168C8.44818 88.168 8.00485 88.0793 7.60352 87.902C7.20218 87.7247 6.85685 87.4727 6.56752 87.146C6.28752 86.81 6.06818 86.4133 5.90952 85.956C5.75085 85.4893 5.67152 84.9667 5.67152 84.388C5.67152 83.8187 5.75085 83.3007 5.90952 82.834C6.06818 82.3673 6.28752 81.9707 6.56752 81.644C6.85685 81.308 7.20218 81.0513 7.60352 80.874C8.00485 80.6967 8.44818 80.608 8.93352 80.608C9.41885 80.608 9.85752 80.6967 10.2495 80.874C10.6508 81.0513 10.9962 81.308 11.2855 81.644C11.5748 81.9707 11.7988 82.3673 11.9575 82.834C12.1162 83.3007 12.1955 83.8187 12.1955 84.388C12.1955 84.9667 12.1162 85.4893 11.9575 85.956C11.7988 86.4133 11.5748 86.81 11.2855 87.146C10.9962 87.4727 10.6508 87.7247 10.2495 87.902C9.85752 88.0793 9.41885 88.168 8.93352 88.168ZM8.93352 87.174C9.54018 87.174 10.0348 86.9873 10.4175 86.614C10.8002 86.2407 10.9915 85.6713 10.9915 84.906V83.87C10.9915 83.1047 10.8002 82.5353 10.4175 82.162C10.0348 81.7887 9.54018 81.602 8.93352 81.602C8.32685 81.602 7.83218 81.7887 7.44952 82.162C7.06685 82.5353 6.87552 83.1047 6.87552 83.87V84.906C6.87552 85.6713 7.06685 86.2407 7.44952 86.614C7.83218 86.9873 8.32685 87.174 8.93352 87.174ZM20.3541 88.168C19.8501 88.168 19.3974 88.0793 18.9961 87.902C18.5948 87.7247 18.2541 87.4727 17.9741 87.146C17.7034 86.8193 17.4934 86.4227 17.3441 85.956C17.2041 85.4893 17.1341 84.9667 17.1341 84.388C17.1341 83.8093 17.2041 83.2867 17.3441 82.82C17.4934 82.3533 17.7034 81.9567 17.9741 81.63C18.2541 81.3033 18.5948 81.0513 18.9961 80.874C19.3974 80.6967 19.8501 80.608 20.3541 80.608C21.0728 80.608 21.6468 80.7667 22.0761 81.084C22.5148 81.392 22.8414 81.798 23.0561 82.302L22.1181 82.778C21.9874 82.4047 21.7728 82.1153 21.4741 81.91C21.1754 81.7047 20.8021 81.602 20.3541 81.602C20.0181 81.602 19.7241 81.658 19.4721 81.77C19.2201 81.8727 19.0101 82.022 18.8421 82.218C18.6741 82.4047 18.5481 82.6333 18.4641 82.904C18.3801 83.1653 18.3381 83.4547 18.3381 83.772V85.004C18.3381 85.6387 18.5061 86.1613 18.8421 86.572C19.1874 86.9733 19.6914 87.174 20.3541 87.174C21.2594 87.174 21.9128 86.754 22.3141 85.914L23.1261 86.46C22.8928 86.9827 22.5428 87.398 22.0761 87.706C21.6188 88.014 21.0448 88.168 20.3541 88.168ZM27.5151 88.168C27.0297 88.168 26.5864 88.0793 26.1851 87.902C25.7837 87.7247 25.4384 87.4727 25.1491 87.146C24.8691 86.81 24.6497 86.4133 24.4911 85.956C24.3324 85.4893 24.2531 84.9667 24.2531 84.388C24.2531 83.8187 24.3324 83.3007 24.4911 82.834C24.6497 82.3673 24.8691 81.9707 25.1491 81.644C25.4384 81.308 25.7837 81.0513 26.1851 80.874C26.5864 80.6967 27.0297 80.608 27.5151 80.608C28.0004 80.608 28.4391 80.6967 28.8311 80.874C29.2324 81.0513 29.5777 81.308 29.8671 81.644C30.1564 81.9707 30.3804 82.3673 30.5391 82.834C30.6977 83.3007 30.7771 83.8187 30.7771 84.388C30.7771 84.9667 30.6977 85.4893 30.5391 85.956C30.3804 86.4133 30.1564 86.81 29.8671 87.146C29.5777 87.4727 29.2324 87.7247 28.8311 87.902C28.4391 88.0793 28.0004 88.168 27.5151 88.168ZM27.5151 87.174C28.1217 87.174 28.6164 86.9873 28.9991 86.614C29.3817 86.2407 29.5731 85.6713 29.5731 84.906V83.87C29.5731 83.1047 29.3817 82.5353 28.9991 82.162C28.6164 81.7887 28.1217 81.602 27.5151 81.602C26.9084 81.602 26.4137 81.7887 26.0311 82.162C25.6484 82.5353 25.4571 83.1047 25.4571 83.87V84.906C25.4571 85.6713 25.6484 86.2407 26.0311 86.614C26.4137 86.9873 26.9084 87.174 27.5151 87.174ZM32.7791 88V80.776H33.8991V81.952H33.9551C34.0391 81.7653 34.1324 81.5927 34.2351 81.434C34.3471 81.266 34.4777 81.1213 34.6271 81C34.7857 80.8787 34.9677 80.7853 35.1731 80.72C35.3784 80.6453 35.6211 80.608 35.9011 80.608C36.3771 80.608 36.8157 80.7247 37.2171 80.958C37.6184 81.182 37.9171 81.5553 38.1131 82.078H38.1411C38.2717 81.686 38.5144 81.3453 38.8691 81.056C39.2331 80.7573 39.7231 80.608 40.3391 80.608C41.0764 80.608 41.6504 80.8507 42.0611 81.336C42.4811 81.812 42.6911 82.4887 42.6911 83.366V88H41.5711V83.562C41.5711 82.918 41.4451 82.4327 41.1931 82.106C40.9411 81.7793 40.5397 81.616 39.9891 81.616C39.7651 81.616 39.5504 81.644 39.3451 81.7C39.1491 81.756 38.9717 81.84 38.8131 81.952C38.6544 82.064 38.5284 82.2087 38.4351 82.386C38.3417 82.554 38.2951 82.7547 38.2951 82.988V88H37.1751V83.562C37.1751 82.918 37.0491 82.4327 36.7971 82.106C36.5451 81.7793 36.1531 81.616 35.6211 81.616C35.3971 81.616 35.1824 81.644 34.9771 81.7C34.7717 81.756 34.5897 81.84 34.4311 81.952C34.2724 82.064 34.1417 82.2087 34.0391 82.386C33.9457 82.554 33.8991 82.7547 33.8991 82.988V88H32.7791ZM45.1617 80.776H46.2817V81.952H46.3377C46.5244 81.4947 46.7951 81.1587 47.1497 80.944C47.5137 80.72 47.9477 80.608 48.4517 80.608C48.8997 80.608 49.3057 80.6967 49.6697 80.874C50.0337 81.0513 50.3417 81.3033 50.5937 81.63C50.8551 81.9567 51.0511 82.3533 51.1817 82.82C51.3217 83.2867 51.3917 83.8093 51.3917 84.388C51.3917 84.9667 51.3217 85.4893 51.1817 85.956C51.0511 86.4227 50.8551 86.8193 50.5937 87.146C50.3417 87.4727 50.0337 87.7247 49.6697 87.902C49.3057 88.0793 48.8997 88.168 48.4517 88.168C47.4717 88.168 46.7671 87.72 46.3377 86.824H46.2817V90.8H45.1617V80.776ZM48.1437 87.16C48.7784 87.16 49.2777 86.964 49.6417 86.572C50.0057 86.1707 50.1877 85.648 50.1877 85.004V83.772C50.1877 83.128 50.0057 82.61 49.6417 82.218C49.2777 81.8167 48.7784 81.616 48.1437 81.616C47.8917 81.616 47.6491 81.6533 47.4157 81.728C47.1917 81.7933 46.9957 81.8867 46.8277 82.008C46.6597 82.1293 46.5244 82.2787 46.4217 82.456C46.3284 82.624 46.2817 82.806 46.2817 83.002V85.69C46.2817 85.9233 46.3284 86.1333 46.4217 86.32C46.5244 86.4973 46.6597 86.6513 46.8277 86.782C46.9957 86.9033 47.1917 86.9967 47.4157 87.062C47.6491 87.1273 47.8917 87.16 48.1437 87.16ZM57.8948 86.824H57.8388C57.7641 86.992 57.6708 87.16 57.5588 87.328C57.4561 87.4867 57.3255 87.6313 57.1668 87.762C57.0081 87.8833 56.8168 87.9813 56.5928 88.056C56.3688 88.1307 56.1075 88.168 55.8088 88.168C55.0621 88.168 54.4695 87.93 54.0308 87.454C53.5921 86.9687 53.3728 86.2873 53.3728 85.41V80.776H54.4928V85.214C54.4928 86.5113 55.0435 87.16 56.1448 87.16C56.3688 87.16 56.5835 87.132 56.7888 87.076C57.0035 87.02 57.1901 86.936 57.3488 86.824C57.5168 86.712 57.6475 86.572 57.7408 86.404C57.8435 86.2267 57.8948 86.0167 57.8948 85.774V80.776H59.0148V88H57.8948V86.824ZM63.1558 88C62.7638 88 62.4652 87.8927 62.2598 87.678C62.0638 87.454 61.9658 87.1647 61.9658 86.81V81.756H60.7758V80.776H61.4478C61.6905 80.776 61.8538 80.7293 61.9378 80.636C62.0312 80.5333 62.0778 80.3607 62.0778 80.118V78.774H63.0858V80.776H64.6678V81.756H63.0858V87.02H64.5558V88H63.1558ZM69.2894 88.168C68.7947 88.168 68.3467 88.0793 67.9454 87.902C67.5534 87.7247 67.2127 87.4727 66.9234 87.146C66.6434 86.81 66.424 86.4133 66.2654 85.956C66.116 85.4893 66.0414 84.9667 66.0414 84.388C66.0414 83.8187 66.116 83.3007 66.2654 82.834C66.424 82.3673 66.6434 81.9707 66.9234 81.644C67.2127 81.308 67.5534 81.0513 67.9454 80.874C68.3467 80.6967 68.7947 80.608 69.2894 80.608C69.7747 80.608 70.2087 80.6967 70.5914 80.874C70.974 81.0513 71.3007 81.2987 71.5714 81.616C71.842 81.924 72.0474 82.2927 72.1874 82.722C72.3367 83.1513 72.4114 83.6227 72.4114 84.136V84.668H67.2174V85.004C67.2174 85.312 67.264 85.6013 67.3574 85.872C67.46 86.1333 67.6 86.362 67.7774 86.558C67.964 86.754 68.188 86.908 68.4494 87.02C68.72 87.132 69.0234 87.188 69.3594 87.188C69.8167 87.188 70.2134 87.0807 70.5494 86.866C70.8947 86.6513 71.1607 86.3433 71.3474 85.942L72.1454 86.516C71.912 87.0107 71.548 87.412 71.0534 87.72C70.5587 88.0187 69.9707 88.168 69.2894 88.168ZM69.2894 81.546C68.9814 81.546 68.7014 81.602 68.4494 81.714C68.1974 81.8167 67.978 81.966 67.7914 82.162C67.614 82.358 67.474 82.5913 67.3714 82.862C67.2687 83.1233 67.2174 83.4127 67.2174 83.73V83.828H71.2074V83.674C71.2074 83.03 71.03 82.5167 70.6754 82.134C70.33 81.742 69.868 81.546 69.2894 81.546Z" fill="black"/>
<path d="M175.36 208.168C174.688 208.168 174.123 208.042 173.666 207.79C173.218 207.529 172.831 207.183 172.504 206.754L173.302 206.11C173.582 206.465 173.895 206.74 174.24 206.936C174.585 207.123 174.987 207.216 175.444 207.216C175.92 207.216 176.289 207.113 176.55 206.908C176.821 206.703 176.956 206.413 176.956 206.04C176.956 205.76 176.863 205.522 176.676 205.326C176.499 205.121 176.172 204.981 175.696 204.906L175.122 204.822C174.786 204.775 174.478 204.705 174.198 204.612C173.918 204.509 173.671 204.379 173.456 204.22C173.251 204.052 173.087 203.847 172.966 203.604C172.854 203.361 172.798 203.072 172.798 202.736C172.798 202.381 172.863 202.073 172.994 201.812C173.125 201.541 173.302 201.317 173.526 201.14C173.759 200.963 174.035 200.832 174.352 200.748C174.669 200.655 175.01 200.608 175.374 200.608C175.962 200.608 176.452 200.711 176.844 200.916C177.245 201.121 177.595 201.406 177.894 201.77L177.152 202.442C176.993 202.218 176.76 202.017 176.452 201.84C176.144 201.653 175.757 201.56 175.29 201.56C174.823 201.56 174.469 201.663 174.226 201.868C173.993 202.064 173.876 202.335 173.876 202.68C173.876 203.035 173.993 203.291 174.226 203.45C174.469 203.609 174.814 203.725 175.262 203.8L175.822 203.884C176.625 204.005 177.194 204.239 177.53 204.584C177.866 204.92 178.034 205.363 178.034 205.914C178.034 206.614 177.796 207.165 177.32 207.566C176.844 207.967 176.191 208.168 175.36 208.168ZM180.732 199.082C180.49 199.082 180.312 199.026 180.2 198.914C180.098 198.793 180.046 198.639 180.046 198.452V198.27C180.046 198.083 180.098 197.934 180.2 197.822C180.312 197.701 180.49 197.64 180.732 197.64C180.975 197.64 181.148 197.701 181.25 197.822C181.362 197.934 181.418 198.083 181.418 198.27V198.452C181.418 198.639 181.362 198.793 181.25 198.914C181.148 199.026 180.975 199.082 180.732 199.082ZM180.172 200.776H181.292V208H180.172V200.776ZM183.104 208V207.062L187.206 201.756H183.23V200.776H188.564V201.616L184.378 207.02H188.676V208H183.104ZM193.066 208.168C192.571 208.168 192.123 208.079 191.722 207.902C191.33 207.725 190.989 207.473 190.7 207.146C190.42 206.81 190.2 206.413 190.042 205.956C189.892 205.489 189.818 204.967 189.818 204.388C189.818 203.819 189.892 203.301 190.042 202.834C190.2 202.367 190.42 201.971 190.7 201.644C190.989 201.308 191.33 201.051 191.722 200.874C192.123 200.697 192.571 200.608 193.066 200.608C193.551 200.608 193.985 200.697 194.368 200.874C194.75 201.051 195.077 201.299 195.348 201.616C195.618 201.924 195.824 202.293 195.964 202.722C196.113 203.151 196.188 203.623 196.188 204.136V204.668H190.994V205.004C190.994 205.312 191.04 205.601 191.134 205.872C191.236 206.133 191.376 206.362 191.554 206.558C191.74 206.754 191.964 206.908 192.226 207.02C192.496 207.132 192.8 207.188 193.136 207.188C193.593 207.188 193.99 207.081 194.326 206.866C194.671 206.651 194.937 206.343 195.124 205.942L195.922 206.516C195.688 207.011 195.324 207.412 194.83 207.72C194.335 208.019 193.747 208.168 193.066 208.168ZM193.066 201.546C192.758 201.546 192.478 201.602 192.226 201.714C191.974 201.817 191.754 201.966 191.568 202.162C191.39 202.358 191.25 202.591 191.148 202.862C191.045 203.123 190.994 203.413 190.994 203.73V203.828H194.984V203.674C194.984 203.03 194.806 202.517 194.452 202.134C194.106 201.742 193.644 201.546 193.066 201.546ZM204.392 208.168C203.907 208.168 203.463 208.079 203.062 207.902C202.661 207.725 202.315 207.473 202.026 207.146C201.746 206.81 201.527 206.413 201.368 205.956C201.209 205.489 201.13 204.967 201.13 204.388C201.13 203.819 201.209 203.301 201.368 202.834C201.527 202.367 201.746 201.971 202.026 201.644C202.315 201.308 202.661 201.051 203.062 200.874C203.463 200.697 203.907 200.608 204.392 200.608C204.877 200.608 205.316 200.697 205.708 200.874C206.109 201.051 206.455 201.308 206.744 201.644C207.033 201.971 207.257 202.367 207.416 202.834C207.575 203.301 207.654 203.819 207.654 204.388C207.654 204.967 207.575 205.489 207.416 205.956C207.257 206.413 207.033 206.81 206.744 207.146C206.455 207.473 206.109 207.725 205.708 207.902C205.316 208.079 204.877 208.168 204.392 208.168ZM204.392 207.174C204.999 207.174 205.493 206.987 205.876 206.614C206.259 206.241 206.45 205.671 206.45 204.906V203.87C206.45 203.105 206.259 202.535 205.876 202.162C205.493 201.789 204.999 201.602 204.392 201.602C203.785 201.602 203.291 201.789 202.908 202.162C202.525 202.535 202.334 203.105 202.334 203.87V204.906C202.334 205.671 202.525 206.241 202.908 206.614C203.291 206.987 203.785 207.174 204.392 207.174ZM209.966 201.756H208.79V200.776H209.966V199.32C209.966 198.816 210.096 198.41 210.358 198.102C210.619 197.794 211.016 197.64 211.548 197.64H212.64V198.62H211.086V200.776H212.64V201.756H211.086V208H209.966V201.756ZM217.741 200.776H218.861V201.952H218.917C219.104 201.495 219.375 201.159 219.729 200.944C220.093 200.72 220.527 200.608 221.031 200.608C221.479 200.608 221.885 200.697 222.249 200.874C222.613 201.051 222.921 201.303 223.173 201.63C223.435 201.957 223.631 202.353 223.761 202.82C223.901 203.287 223.971 203.809 223.971 204.388C223.971 204.967 223.901 205.489 223.761 205.956C223.631 206.423 223.435 206.819 223.173 207.146C222.921 207.473 222.613 207.725 222.249 207.902C221.885 208.079 221.479 208.168 221.031 208.168C220.051 208.168 219.347 207.72 218.917 206.824H218.861V210.8H217.741V200.776ZM220.723 207.16C221.358 207.16 221.857 206.964 222.221 206.572C222.585 206.171 222.767 205.648 222.767 205.004V203.772C222.767 203.128 222.585 202.61 222.221 202.218C221.857 201.817 221.358 201.616 220.723 201.616C220.471 201.616 220.229 201.653 219.995 201.728C219.771 201.793 219.575 201.887 219.407 202.008C219.239 202.129 219.104 202.279 219.001 202.456C218.908 202.624 218.861 202.806 218.861 203.002V205.69C218.861 205.923 218.908 206.133 219.001 206.32C219.104 206.497 219.239 206.651 219.407 206.782C219.575 206.903 219.771 206.997 219.995 207.062C220.229 207.127 220.471 207.16 220.723 207.16ZM226.023 208V200.776H227.143V202.106H227.213C227.343 201.761 227.577 201.453 227.913 201.182C228.249 200.911 228.711 200.776 229.299 200.776H229.733V201.896H229.075C228.468 201.896 227.992 202.013 227.647 202.246C227.311 202.47 227.143 202.755 227.143 203.1V208H226.023ZM233.985 208.168C233.5 208.168 233.056 208.079 232.655 207.902C232.254 207.725 231.908 207.473 231.619 207.146C231.339 206.81 231.12 206.413 230.961 205.956C230.802 205.489 230.723 204.967 230.723 204.388C230.723 203.819 230.802 203.301 230.961 202.834C231.12 202.367 231.339 201.971 231.619 201.644C231.908 201.308 232.254 201.051 232.655 200.874C233.056 200.697 233.5 200.608 233.985 200.608C234.47 200.608 234.909 200.697 235.301 200.874C235.702 201.051 236.048 201.308 236.337 201.644C236.626 201.971 236.85 202.367 237.009 202.834C237.168 203.301 237.247 203.819 237.247 204.388C237.247 204.967 237.168 205.489 237.009 205.956C236.85 206.413 236.626 206.81 236.337 207.146C236.048 207.473 235.702 207.725 235.301 207.902C234.909 208.079 234.47 208.168 233.985 208.168ZM233.985 207.174C234.592 207.174 235.086 206.987 235.469 206.614C235.852 206.241 236.043 205.671 236.043 204.906V203.87C236.043 203.105 235.852 202.535 235.469 202.162C235.086 201.789 234.592 201.602 233.985 201.602C233.378 201.602 232.884 201.789 232.501 202.162C232.118 202.535 231.927 203.105 231.927 203.87V204.906C231.927 205.671 232.118 206.241 232.501 206.614C232.884 206.987 233.378 207.174 233.985 207.174ZM239.249 197.64H240.369V201.952H240.425C240.611 201.495 240.882 201.159 241.237 200.944C241.601 200.72 242.035 200.608 242.539 200.608C242.987 200.608 243.393 200.697 243.757 200.874C244.121 201.051 244.429 201.303 244.681 201.63C244.942 201.957 245.138 202.353 245.269 202.82C245.409 203.287 245.479 203.809 245.479 204.388C245.479 204.967 245.409 205.489 245.269 205.956C245.138 206.423 244.942 206.819 244.681 207.146C244.429 207.473 244.121 207.725 243.757 207.902C243.393 208.079 242.987 208.168 242.539 208.168C241.559 208.168 240.854 207.72 240.425 206.824H240.369V208H239.249V197.64ZM242.231 207.16C242.865 207.16 243.365 206.964 243.729 206.572C244.093 206.171 244.275 205.648 244.275 205.004V203.772C244.275 203.128 244.093 202.61 243.729 202.218C243.365 201.817 242.865 201.616 242.231 201.616C241.979 201.616 241.736 201.653 241.503 201.728C241.279 201.793 241.083 201.887 240.915 202.008C240.747 202.129 240.611 202.279 240.509 202.456C240.415 202.624 240.369 202.806 240.369 203.002V205.69C240.369 205.923 240.415 206.133 240.509 206.32C240.611 206.497 240.747 206.651 240.915 206.782C241.083 206.903 241.279 206.997 241.503 207.062C241.736 207.127 241.979 207.16 242.231 207.16ZM248.72 208C248.328 208 248.029 207.893 247.824 207.678C247.628 207.454 247.53 207.174 247.53 206.838V197.64H248.65V207.02H249.714V208H248.72ZM254.22 208.168C253.726 208.168 253.278 208.079 252.876 207.902C252.484 207.725 252.144 207.473 251.854 207.146C251.574 206.81 251.355 206.413 251.196 205.956C251.047 205.489 250.972 204.967 250.972 204.388C250.972 203.819 251.047 203.301 251.196 202.834C251.355 202.367 251.574 201.971 251.854 201.644C252.144 201.308 252.484 201.051 252.876 200.874C253.278 200.697 253.726 200.608 254.22 200.608C254.706 200.608 255.14 200.697 255.522 200.874C255.905 201.051 256.232 201.299 256.502 201.616C256.773 201.924 256.978 202.293 257.118 202.722C257.268 203.151 257.342 203.623 257.342 204.136V204.668H252.148V205.004C252.148 205.312 252.195 205.601 252.288 205.872C252.391 206.133 252.531 206.362 252.708 206.558C252.895 206.754 253.119 206.908 253.38 207.02C253.651 207.132 253.954 207.188 254.29 207.188C254.748 207.188 255.144 207.081 255.48 206.866C255.826 206.651 256.092 206.343 256.278 205.942L257.076 206.516C256.843 207.011 256.479 207.412 255.984 207.72C255.49 208.019 254.902 208.168 254.22 208.168ZM254.22 201.546C253.912 201.546 253.632 201.602 253.38 201.714C253.128 201.817 252.909 201.966 252.722 202.162C252.545 202.358 252.405 202.591 252.302 202.862C252.2 203.123 252.148 203.413 252.148 203.73V203.828H256.138V203.674C256.138 203.03 255.961 202.517 255.606 202.134C255.261 201.742 254.799 201.546 254.22 201.546ZM259.348 208V200.776H260.468V201.952H260.524C260.608 201.765 260.701 201.593 260.804 201.434C260.916 201.266 261.047 201.121 261.196 201C261.355 200.879 261.537 200.785 261.742 200.72C261.947 200.645 262.19 200.608 262.47 200.608C262.946 200.608 263.385 200.725 263.786 200.958C264.187 201.182 264.486 201.555 264.682 202.078H264.71C264.841 201.686 265.083 201.345 265.438 201.056C265.802 200.757 266.292 200.608 266.908 200.608C267.645 200.608 268.219 200.851 268.63 201.336C269.05 201.812 269.26 202.489 269.26 203.366V208H268.14V203.562C268.14 202.918 268.014 202.433 267.762 202.106C267.51 201.779 267.109 201.616 266.558 201.616C266.334 201.616 266.119 201.644 265.914 201.7C265.718 201.756 265.541 201.84 265.382 201.952C265.223 202.064 265.097 202.209 265.004 202.386C264.911 202.554 264.864 202.755 264.864 202.988V208H263.744V203.562C263.744 202.918 263.618 202.433 263.366 202.106C263.114 201.779 262.722 201.616 262.19 201.616C261.966 201.616 261.751 201.644 261.546 201.7C261.341 201.756 261.159 201.84 261 201.952C260.841 202.064 260.711 202.209 260.608 202.386C260.515 202.554 260.468 202.755 260.468 202.988V208H259.348Z" fill="black"/>
<path d="M298.493 154.108C298.169 154.108 297.878 154.051 297.62 153.937C297.362 153.823 297.143 153.661 296.963 153.451C296.789 153.241 296.654 152.986 296.558 152.686C296.468 152.386 296.423 152.05 296.423 151.678C296.423 151.306 296.468 150.97 296.558 150.67C296.654 150.37 296.789 150.115 296.963 149.905C297.143 149.695 297.362 149.533 297.62 149.419C297.878 149.305 298.169 149.248 298.493 149.248C298.955 149.248 299.324 149.35 299.6 149.554C299.882 149.752 300.092 150.013 300.23 150.337L299.627 150.643C299.543 150.403 299.405 150.217 299.213 150.085C299.021 149.953 298.781 149.887 298.493 149.887C298.277 149.887 298.088 149.923 297.926 149.995C297.764 150.061 297.629 150.157 297.521 150.283C297.413 150.403 297.332 150.55 297.278 150.724C297.224 150.892 297.197 151.078 297.197 151.282V152.074C297.197 152.482 297.305 152.818 297.521 153.082C297.743 153.34 298.067 153.469 298.493 153.469C299.075 153.469 299.495 153.199 299.753 152.659L300.275 153.01C300.125 153.346 299.9 153.613 299.6 153.811C299.306 154.009 298.937 154.108 298.493 154.108ZM303.154 154.108C302.842 154.108 302.557 154.051 302.299 153.937C302.041 153.823 301.819 153.661 301.633 153.451C301.453 153.235 301.312 152.98 301.21 152.686C301.108 152.386 301.057 152.05 301.057 151.678C301.057 151.312 301.108 150.979 301.21 150.679C301.312 150.379 301.453 150.124 301.633 149.914C301.819 149.698 302.041 149.533 302.299 149.419C302.557 149.305 302.842 149.248 303.154 149.248C303.466 149.248 303.748 149.305 304 149.419C304.258 149.533 304.48 149.698 304.666 149.914C304.852 150.124 304.996 150.379 305.098 150.679C305.2 150.979 305.251 151.312 305.251 151.678C305.251 152.05 305.2 152.386 305.098 152.686C304.996 152.98 304.852 153.235 304.666 153.451C304.48 153.661 304.258 153.823 304 153.937C303.748 154.051 303.466 154.108 303.154 154.108ZM303.154 153.469C303.544 153.469 303.862 153.349 304.108 153.109C304.354 152.869 304.477 152.503 304.477 152.011V151.345C304.477 150.853 304.354 150.487 304.108 150.247C303.862 150.007 303.544 149.887 303.154 149.887C302.764 149.887 302.446 150.007 302.2 150.247C301.954 150.487 301.831 150.853 301.831 151.345V152.011C301.831 152.503 301.954 152.869 302.2 153.109C302.446 153.349 302.764 153.469 303.154 153.469ZM306.595 154V149.356H307.315V150.112H307.351C307.465 149.848 307.624 149.638 307.828 149.482C308.038 149.326 308.317 149.248 308.665 149.248C309.145 149.248 309.523 149.404 309.799 149.716C310.081 150.022 310.222 150.457 310.222 151.021V154H309.502V151.147C309.502 150.313 309.151 149.896 308.449 149.896C308.305 149.896 308.164 149.914 308.026 149.95C307.894 149.986 307.774 150.04 307.666 150.112C307.558 150.184 307.471 150.277 307.405 150.391C307.345 150.499 307.315 150.628 307.315 150.778V154H306.595ZM313.265 154.108C312.833 154.108 312.47 154.027 312.176 153.865C311.888 153.697 311.639 153.475 311.429 153.199L311.942 152.785C312.122 153.013 312.323 153.19 312.545 153.316C312.767 153.436 313.025 153.496 313.319 153.496C313.625 153.496 313.862 153.43 314.03 153.298C314.204 153.166 314.291 152.98 314.291 152.74C314.291 152.56 314.231 152.407 314.111 152.281C313.997 152.149 313.787 152.059 313.481 152.011L313.112 151.957C312.896 151.927 312.698 151.882 312.518 151.822C312.338 151.756 312.179 151.672 312.041 151.57C311.909 151.462 311.804 151.33 311.726 151.174C311.654 151.018 311.618 150.832 311.618 150.616C311.618 150.388 311.66 150.19 311.744 150.022C311.828 149.848 311.942 149.704 312.086 149.59C312.236 149.476 312.413 149.392 312.617 149.338C312.821 149.278 313.04 149.248 313.274 149.248C313.652 149.248 313.967 149.314 314.219 149.446C314.477 149.578 314.702 149.761 314.894 149.995L314.417 150.427C314.315 150.283 314.165 150.154 313.967 150.04C313.769 149.92 313.52 149.86 313.22 149.86C312.92 149.86 312.692 149.926 312.536 150.058C312.386 150.184 312.311 150.358 312.311 150.58C312.311 150.808 312.386 150.973 312.536 151.075C312.692 151.177 312.914 151.252 313.202 151.3L313.562 151.354C314.078 151.432 314.444 151.582 314.66 151.804C314.876 152.02 314.984 152.305 314.984 152.659C314.984 153.109 314.831 153.463 314.525 153.721C314.219 153.979 313.799 154.108 313.265 154.108ZM317.38 154C317.128 154 316.936 153.931 316.804 153.793C316.678 153.649 316.615 153.463 316.615 153.235V149.986H315.85V149.356H316.282C316.438 149.356 316.543 149.326 316.597 149.266C316.657 149.2 316.687 149.089 316.687 148.933V148.069H317.335V149.356H318.352V149.986H317.335V153.37H318.28V154H317.38ZM323.044 154C322.774 154 322.579 153.928 322.459 153.784C322.345 153.64 322.273 153.46 322.243 153.244H322.198C322.096 153.532 321.928 153.748 321.694 153.892C321.46 154.036 321.181 154.108 320.857 154.108C320.365 154.108 319.981 153.982 319.705 153.73C319.435 153.478 319.3 153.136 319.3 152.704C319.3 152.266 319.459 151.93 319.777 151.696C320.101 151.462 320.602 151.345 321.28 151.345H322.198V150.886C322.198 150.556 322.108 150.304 321.928 150.13C321.748 149.956 321.472 149.869 321.1 149.869C320.818 149.869 320.581 149.932 320.389 150.058C320.203 150.184 320.047 150.352 319.921 150.562L319.489 150.157C319.615 149.905 319.816 149.692 320.092 149.518C320.368 149.338 320.716 149.248 321.136 149.248C321.7 149.248 322.138 149.386 322.45 149.662C322.762 149.938 322.918 150.322 322.918 150.814V153.37H323.449V154H323.044ZM320.974 153.496C321.154 153.496 321.319 153.475 321.469 153.433C321.619 153.391 321.748 153.331 321.856 153.253C321.964 153.175 322.048 153.085 322.108 152.983C322.168 152.881 322.198 152.77 322.198 152.65V151.885H321.244C320.83 151.885 320.527 151.945 320.335 152.065C320.149 152.185 320.056 152.359 320.056 152.587V152.776C320.056 153.004 320.137 153.181 320.299 153.307C320.467 153.433 320.692 153.496 320.974 153.496ZM324.637 154V149.356H325.357V150.112H325.393C325.507 149.848 325.666 149.638 325.87 149.482C326.08 149.326 326.359 149.248 326.707 149.248C327.187 149.248 327.565 149.404 327.841 149.716C328.123 150.022 328.264 150.457 328.264 151.021V154H327.544V151.147C327.544 150.313 327.193 149.896 326.491 149.896C326.347 149.896 326.206 149.914 326.068 149.95C325.936 149.986 325.816 150.04 325.708 150.112C325.6 150.184 325.513 150.277 325.447 150.391C325.387 150.499 325.357 150.628 325.357 150.778V154H324.637ZM330.938 154C330.686 154 330.494 153.931 330.362 153.793C330.236 153.649 330.173 153.463 330.173 153.235V149.986H329.408V149.356H329.84C329.996 149.356 330.101 149.326 330.155 149.266C330.215 149.2 330.245 149.089 330.245 148.933V148.069H330.893V149.356H331.91V149.986H330.893V153.37H331.838V154H330.938ZM336.541 154C336.289 154 336.097 153.931 335.965 153.793C335.839 153.649 335.776 153.463 335.776 153.235V149.986H335.011V149.356H335.443C335.599 149.356 335.704 149.326 335.758 149.266C335.818 149.2 335.848 149.089 335.848 148.933V148.069H336.496V149.356H337.513V149.986H336.496V153.37H337.441V154H336.541ZM339.19 148.267C339.034 148.267 338.92 148.231 338.848 148.159C338.782 148.081 338.749 147.982 338.749 147.862V147.745C338.749 147.625 338.782 147.529 338.848 147.457C338.92 147.379 339.034 147.34 339.19 147.34C339.346 147.34 339.457 147.379 339.523 147.457C339.595 147.529 339.631 147.625 339.631 147.745V147.862C339.631 147.982 339.595 148.081 339.523 148.159C339.457 148.231 339.346 148.267 339.19 148.267ZM338.83 149.356H339.55V154H338.83V149.356ZM341.24 154V149.356H341.96V150.112H341.996C342.05 149.992 342.11 149.881 342.176 149.779C342.248 149.671 342.332 149.578 342.428 149.5C342.53 149.422 342.647 149.362 342.779 149.32C342.911 149.272 343.067 149.248 343.247 149.248C343.553 149.248 343.835 149.323 344.093 149.473C344.351 149.617 344.543 149.857 344.669 150.193H344.687C344.771 149.941 344.927 149.722 345.155 149.536C345.389 149.344 345.704 149.248 346.1 149.248C346.574 149.248 346.943 149.404 347.207 149.716C347.477 150.022 347.612 150.457 347.612 151.021V154H346.892V151.147C346.892 150.733 346.811 150.421 346.649 150.211C346.487 150.001 346.229 149.896 345.875 149.896C345.731 149.896 345.593 149.914 345.461 149.95C345.335 149.986 345.221 150.04 345.119 150.112C345.017 150.184 344.936 150.277 344.876 150.391C344.816 150.499 344.786 150.628 344.786 150.778V154H344.066V151.147C344.066 150.733 343.985 150.421 343.823 150.211C343.661 150.001 343.409 149.896 343.067 149.896C342.923 149.896 342.785 149.914 342.653 149.95C342.521 149.986 342.404 150.04 342.302 150.112C342.2 150.184 342.116 150.277 342.05 150.391C341.99 150.499 341.96 150.628 341.96 150.778V154H341.24ZM351.003 154.108C350.685 154.108 350.397 154.051 350.139 153.937C349.887 153.823 349.668 153.661 349.482 153.451C349.302 153.235 349.161 152.98 349.059 152.686C348.963 152.386 348.915 152.05 348.915 151.678C348.915 151.312 348.963 150.979 349.059 150.679C349.161 150.379 349.302 150.124 349.482 149.914C349.668 149.698 349.887 149.533 350.139 149.419C350.397 149.305 350.685 149.248 351.003 149.248C351.315 149.248 351.594 149.305 351.84 149.419C352.086 149.533 352.296 149.692 352.47 149.896C352.644 150.094 352.776 150.331 352.866 150.607C352.962 150.883 353.01 151.186 353.01 151.516V151.858H349.671V152.074C349.671 152.272 349.701 152.458 349.761 152.632C349.827 152.8 349.917 152.947 350.031 153.073C350.151 153.199 350.295 153.298 350.463 153.37C350.637 153.442 350.832 153.478 351.048 153.478C351.342 153.478 351.597 153.409 351.813 153.271C352.035 153.133 352.206 152.935 352.326 152.677L352.839 153.046C352.689 153.364 352.455 153.622 352.137 153.82C351.819 154.012 351.441 154.108 351.003 154.108ZM351.003 149.851C350.805 149.851 350.625 149.887 350.463 149.959C350.301 150.025 350.16 150.121 350.04 150.247C349.926 150.373 349.836 150.523 349.77 150.697C349.704 150.865 349.671 151.051 349.671 151.255V151.318H352.236V151.219C352.236 150.805 352.122 150.475 351.894 150.229C351.672 149.977 351.375 149.851 351.003 149.851Z" fill="#0F62FE"/>
<path d="M301.881 55.1532C301.652 55.2597 301.449 55.2783 301.271 55.209C301.096 55.1318 300.963 54.9953 300.872 54.7995L298.373 49.4405L299.025 49.1362L301.574 54.6013L302.194 54.3122L302.46 54.8832L301.881 55.1532ZM301.458 49.0246C301.317 49.0905 301.198 49.1061 301.103 49.0712C301.01 49.0284 300.938 48.9527 300.887 48.8439L300.838 48.7379C300.787 48.6291 300.777 48.5281 300.806 48.435C300.838 48.3339 300.925 48.2504 301.066 48.1844C301.208 48.1185 301.325 48.1069 301.418 48.1497C301.513 48.1846 301.587 48.2563 301.637 48.3651L301.687 48.4711C301.737 48.5799 301.747 48.6848 301.714 48.786C301.685 48.8791 301.6 48.9586 301.458 49.0246ZM301.592 50.1637L302.245 49.8594L304.207 54.0683L303.555 54.3726L301.592 50.1637ZM305.739 53.3541L303.776 49.1452L304.429 48.8409L304.748 49.5261L304.781 49.5108C304.773 49.2234 304.828 48.9659 304.947 48.7383C305.071 48.5081 305.291 48.3195 305.607 48.1725C306.042 47.9696 306.45 47.9513 306.832 48.1174C307.217 48.2755 307.529 48.6102 307.767 49.1213L309.026 51.8212L308.374 52.1255L307.168 49.5398C306.815 48.784 306.321 48.5544 305.685 48.851C305.554 48.9119 305.434 48.9878 305.324 49.0788C305.22 49.1672 305.134 49.2668 305.066 49.3777C304.999 49.4886 304.959 49.6097 304.948 49.7409C304.939 49.8641 304.966 49.9937 305.03 50.1297L306.392 53.0498L305.739 53.3541ZM312.148 50.4846C311.86 50.619 311.575 50.6891 311.293 50.6948C311.016 50.698 310.749 50.6437 310.492 50.532C310.237 50.4123 310.002 50.2408 309.785 50.0174C309.571 49.7861 309.386 49.5019 309.229 49.1647C309.074 48.833 308.977 48.511 308.937 48.1985C308.903 47.8835 308.923 47.5928 308.997 47.3264C309.074 47.052 309.203 46.8099 309.383 46.6001C309.569 46.3878 309.806 46.2144 310.094 46.08C310.377 45.9481 310.654 45.8819 310.925 45.8812C311.196 45.8806 311.454 45.9359 311.698 46.0473C311.939 46.1532 312.159 46.3122 312.357 46.5243C312.561 46.7339 312.732 46.9882 312.872 47.2873L313.016 47.5973L309.99 49.0084L310.081 49.2041C310.165 49.3836 310.271 49.5395 310.399 49.6718C310.529 49.7962 310.673 49.8914 310.83 49.9574C310.992 50.0209 311.164 50.0498 311.347 50.044C311.535 50.0357 311.727 49.9859 311.923 49.8947C312.189 49.7704 312.391 49.6001 312.528 49.3837C312.671 49.1649 312.743 48.9131 312.742 48.6286L313.363 48.7462C313.362 49.0978 313.259 49.4305 313.054 49.7444C312.847 50.0528 312.545 50.2995 312.148 50.4846ZM310.349 46.6265C310.169 46.7102 310.022 46.8189 309.905 46.9526C309.786 47.0809 309.699 47.2275 309.644 47.3924C309.593 47.5547 309.575 47.7287 309.589 47.9143C309.6 48.0945 309.649 48.277 309.735 48.4619L309.762 48.519L312.086 47.435L312.045 47.3452C311.87 46.97 311.627 46.7191 311.316 46.5925C311.009 46.458 310.686 46.4693 310.349 46.6265ZM318.2 47.5432C317.956 47.6573 317.749 47.6745 317.579 47.5947C317.415 47.5123 317.273 47.3796 317.155 47.1965L317.114 47.2156C317.143 47.5197 317.082 47.7865 316.931 48.0159C316.78 48.2453 316.558 48.4284 316.264 48.5653C315.818 48.7733 315.417 48.8214 315.06 48.7096C314.709 48.5953 314.442 48.3424 314.259 47.9509C314.074 47.5539 314.076 47.1822 314.266 46.8358C314.461 46.4868 314.865 46.169 315.48 45.8825L316.312 45.4945L316.118 45.0785C315.978 44.7794 315.79 44.5891 315.553 44.5074C315.317 44.4258 315.03 44.4636 314.693 44.6208C314.437 44.74 314.249 44.8972 314.128 45.0926C314.013 45.2854 313.943 45.5036 313.917 45.7472L313.354 45.5627C313.362 45.281 313.454 45.003 313.631 44.7287C313.805 44.4489 314.082 44.2203 314.463 44.0428C314.974 43.8044 315.429 43.7444 315.829 43.8627C316.228 43.981 316.532 44.263 316.74 44.709L317.82 47.0255L318.301 46.8011L318.567 47.372L318.2 47.5432ZM316.111 47.9612C316.275 47.8852 316.415 47.7964 316.533 47.6949C316.652 47.5935 316.743 47.4846 316.808 47.3683C316.873 47.2519 316.911 47.1349 316.922 47.0171C316.934 46.8993 316.914 46.786 316.863 46.6772L316.54 45.9839L315.675 46.3871C315.3 46.562 315.051 46.7445 314.927 46.9344C314.81 47.1217 314.799 47.3187 314.895 47.5254L314.975 47.6967C315.071 47.9033 315.22 48.0295 315.42 48.0752C315.625 48.1184 315.856 48.0804 316.111 47.9612ZM319.644 46.8701L317.681 42.6612L318.334 42.357L318.695 43.1318L318.736 43.1128C318.718 42.8761 318.77 42.6333 318.893 42.3843C319.015 42.1353 319.247 41.931 319.59 41.7712L319.843 41.6533L320.147 42.3058L319.764 42.4846C319.41 42.6494 319.165 42.8467 319.027 43.0765C318.892 43.2983 318.871 43.5098 318.965 43.711L320.296 46.5658L319.644 46.8701ZM325.786 44.0058C325.558 44.1123 325.355 44.1309 325.177 44.0616C325.002 43.9843 324.866 43.8424 324.77 43.6358L323.397 40.6912L322.703 41.0145L322.437 40.4435L322.829 40.2609C322.97 40.195 323.053 40.1234 323.076 40.0462C323.103 39.9611 323.083 39.8478 323.017 39.7064L322.652 38.9233L323.239 38.6495L323.783 39.8159L324.705 39.3861L324.971 39.9571L324.049 40.3869L325.479 43.4538L326.336 43.0544L326.602 43.6254L325.786 44.0058ZM325.765 37.6903C325.623 37.7562 325.505 37.7718 325.409 37.7369C325.316 37.6941 325.245 37.6184 325.194 37.5096L325.144 37.4036C325.094 37.2948 325.083 37.1939 325.112 37.1007C325.145 36.9996 325.231 36.9161 325.373 36.8501C325.514 36.7842 325.631 36.7726 325.724 36.8154C325.82 36.8503 325.893 36.9221 325.944 37.0308L325.993 37.1369C326.044 37.2456 326.053 37.3505 326.021 37.4517C325.991 37.5448 325.906 37.6244 325.765 37.6903ZM325.899 38.8294L326.551 38.5251L328.514 42.734L327.861 43.0383L325.899 38.8294ZM330.045 42.0198L328.083 37.8109L328.735 37.5066L329.055 38.1918L329.087 38.1766C329.086 38.045 329.093 37.919 329.11 37.7987C329.129 37.6704 329.166 37.5506 329.22 37.4393C329.28 37.3255 329.361 37.2217 329.462 37.1278C329.562 37.0286 329.693 36.9409 329.856 36.8648C330.133 36.7355 330.421 36.6843 330.718 36.7112C331.013 36.7327 331.288 36.869 331.544 37.1203L331.561 37.1127C331.53 36.8488 331.579 36.5844 331.707 36.3195C331.838 36.0466 332.083 35.8264 332.442 35.6591C332.871 35.4588 333.272 35.4442 333.643 35.6154C334.017 35.7786 334.323 36.1158 334.561 36.627L335.82 39.3269L335.168 39.6311L333.962 37.0454C333.787 36.6702 333.582 36.4217 333.346 36.2998C333.111 36.178 332.833 36.1918 332.512 36.3415C332.381 36.4023 332.264 36.4769 332.159 36.5654C332.06 36.6512 331.98 36.7484 331.918 36.8567C331.856 36.9651 331.822 37.0836 331.816 37.2123C331.807 37.3355 331.834 37.4651 331.898 37.601L333.259 40.5212L332.607 40.8255L331.401 38.2398C331.226 37.8646 331.021 37.616 330.785 37.4942C330.55 37.3723 330.277 37.3836 329.967 37.5282C329.836 37.589 329.719 37.6637 329.614 37.7521C329.51 37.8405 329.427 37.9389 329.365 38.0472C329.303 38.1556 329.266 38.2754 329.254 38.4066C329.246 38.5298 329.273 38.6594 329.336 38.7954L330.698 41.7155L330.045 42.0198ZM338.94 37.9915C338.652 38.1259 338.366 38.1959 338.084 38.2016C337.808 38.2048 337.541 38.1505 337.284 38.0388C337.029 37.9191 336.794 37.7476 336.577 37.5243C336.363 37.2929 336.178 37.0087 336.02 36.6716C335.866 36.3398 335.769 36.0178 335.729 35.7053C335.694 35.3903 335.714 35.0996 335.789 34.8332C335.866 34.5588 335.995 34.3167 336.175 34.1069C336.361 33.8946 336.598 33.7212 336.886 33.5868C337.169 33.4549 337.446 33.3887 337.717 33.3881C337.988 33.3874 338.245 33.4428 338.489 33.5541C338.731 33.66 338.95 33.819 339.149 34.0311C339.352 34.2407 339.524 34.495 339.663 34.7941L339.808 35.1041L336.782 36.5152L336.873 36.711C336.957 36.8904 337.062 37.0463 337.19 37.1786C337.321 37.303 337.465 37.3982 337.621 37.4642C337.783 37.5277 337.956 37.5566 338.138 37.5508C338.327 37.5425 338.519 37.4928 338.714 37.4015C338.981 37.2772 339.183 37.1069 339.32 36.8906C339.463 36.6717 339.534 36.42 339.534 36.1354L340.155 36.253C340.153 36.6046 340.05 36.9374 339.846 37.2512C339.639 37.5596 339.337 37.8064 338.94 37.9915ZM337.141 34.1333C336.961 34.217 336.813 34.3257 336.697 34.4594C336.578 34.5877 336.491 34.7343 336.435 34.8992C336.385 35.0616 336.367 35.2355 336.381 35.4211C336.392 35.6013 336.441 35.7838 336.527 35.9687L336.553 36.0258L338.878 34.9418L338.836 34.852C338.661 34.4768 338.419 34.2259 338.108 34.0993C337.8 33.9648 337.478 33.9761 337.141 34.1333Z" fill="#198038"/>
<line x1="86.8872" y1="166.655" x2="371.787" y2="32.5476" stroke="url(#paint0_linear)" stroke-dasharray="5 2"/>
<defs>
<linearGradient id="paint0_linear" x1="229.55" y1="100.053" x2="229.976" y2="100.958" gradientUnits="userSpaceOnUse">
<stop stop-color="#198038"/>
<stop offset="1" stop-color="white" stop-opacity="0"/>
</linearGradient>
</defs>
</svg>
