<?xml version="1.0" encoding="UTF-8" standalone="no"?>
<svg
   xmlns:dc="http://purl.org/dc/elements/1.1/"
   xmlns:cc="http://creativecommons.org/ns#"
   xmlns:rdf="http://www.w3.org/1999/02/22-rdf-syntax-ns#"
   xmlns:svg="http://www.w3.org/2000/svg"
   xmlns="http://www.w3.org/2000/svg"
   xmlns:xlink="http://www.w3.org/1999/xlink"
   xmlns:sodipodi="http://sodipodi.sourceforge.net/DTD/sodipodi-0.dtd"
   xmlns:inkscape="http://www.inkscape.org/namespaces/inkscape"
   sodipodi:docname="drawing.svg"
   inkscape:version="1.0beta2 (2b71d25, 2019-12-03)"
   id="svg8"
   version="1.1"
   viewBox="0 0 106 40"
   height="40mm"
   width="106mm">
  <defs
     id="defs2">
    <style
       type="text/css"
       id="style112">
*{stroke-linecap:butt;stroke-linejoin:round;}
  </style>
    <path
       inkscape:connector-curvature="0"
       d="m 41.703125,8.203125 q -3.609375,-4.734375 -8.53125,-7.1875 -4.90625,-2.4375 -10.859375,-2.4375 -8.296875,0 -13.015625,5.59375 -4.703125,5.59375 -4.703125,15.40625 0,7.90625 2.90625,15.28125 2.90625,7.375 8.328125,13.234375 3.515625,3.8125 8.078125,5.859375 Q 28.46875,56 33.5,56 q 6.046875,0 9.953125,-2.390625 3.90625,-2.390625 5.671875,-7.21875 l 1.5625,8.203125 h 9.03125 L 45.125,-20.609375 H 36.078125 Z M 13.921875,20.90625 q 0,-7.234375 3.015625,-11.015625 3.03125,-3.78125 8.75,-3.78125 8.5,0 14.5,8.125 6,8.125 6,19.75 0,7.03125 -3.109375,10.765625 -3.09375,3.734375 -8.890625,3.734375 -4.25,0 -7.875,-1.984375 -3.609375,-1.96875 -6.296875,-5.78125 -2.828125,-4 -4.46875,-9.375 -1.625,-5.359375 -1.625,-10.4375 z"
       id="DejaVuSans-Oblique-113" />
    <path
       inkscape:connector-curvature="0"
       d="m 31.78125,66.40625 q -7.609375,0 -11.453125,-7.5 Q 16.5,51.421875 16.5,36.375 q 0,-14.984375 3.828125,-22.484375 3.84375,-7.5 11.453125,-7.5 7.671875,0 11.5,7.5 3.84375,7.5 3.84375,22.484375 0,15.046875 -3.84375,22.53125 -3.828125,7.5 -11.5,7.5 z m 0,7.8125 q 12.265625,0 18.734375,-9.703125 6.46875,-9.6875 6.46875,-28.140625 0,-18.40625 -6.46875,-28.109375 -6.46875,-9.6875 -18.734375,-9.6875 -12.25,0 -18.71875,9.6875 Q 6.59375,17.96875 6.59375,36.375 q 0,18.453125 6.46875,28.140625 6.46875,9.703125 18.71875,9.703125 z"
       id="DejaVuSans-48" />
    <path
       inkscape:connector-curvature="0"
       d="m 12.40625,8.296875 h 16.109375 v 55.625 L 10.984375,60.40625 v 8.984375 l 17.4375,3.515625 H 38.28125 V 8.296875 H 54.390625 V 0 H 12.40625 Z"
       id="DejaVuSans-49" />
    <clipPath
       id="p8b1e7c525c">
      <rect
         height="109.0824"
         width="179.98596"
         x="7.1999998"
         y="7.1999998"
         id="rect167" />
    </clipPath>
    <style
       type="text/css"
       id="style522">
*{stroke-linecap:butt;stroke-linejoin:round;}
  </style>
    <path
       inkscape:connector-curvature="0"
       d="M 16.890625,72.90625 H 26.8125 L 21,43.015625 h 35.78125 l 5.8125,29.890625 h 9.921875 L 58.296875,0 h -9.90625 l 6.78125,34.71875 H 19.390625 L 12.59375,0 H 2.6875 Z"
       id="DejaVuSans-Oblique-72" />
    <path
       inkscape:connector-curvature="0"
       d="m 41.703125,8.203125 q -3.609375,-4.734375 -8.53125,-7.1875 -4.90625,-2.4375 -10.859375,-2.4375 -8.296875,0 -13.015625,5.59375 -4.703125,5.59375 -4.703125,15.40625 0,7.90625 2.90625,15.28125 2.90625,7.375 8.328125,13.234375 3.515625,3.8125 8.078125,5.859375 Q 28.46875,56 33.5,56 q 6.046875,0 9.953125,-2.390625 3.90625,-2.390625 5.671875,-7.21875 l 1.5625,8.203125 h 9.03125 L 45.125,-20.609375 H 36.078125 Z M 13.921875,20.90625 q 0,-7.234375 3.015625,-11.015625 3.03125,-3.78125 8.75,-3.78125 8.5,0 14.5,8.125 6,8.125 6,19.75 0,7.03125 -3.109375,10.765625 -3.09375,3.734375 -8.890625,3.734375 -4.25,0 -7.875,-1.984375 -3.609375,-1.96875 -6.296875,-5.78125 -2.828125,-4 -4.46875,-9.375 -1.625,-5.359375 -1.625,-10.4375 z"
       id="DejaVuSans-Oblique-113-6" />
    <path
       inkscape:connector-curvature="0"
       d="m 31.78125,66.40625 q -7.609375,0 -11.453125,-7.5 Q 16.5,51.421875 16.5,36.375 q 0,-14.984375 3.828125,-22.484375 3.84375,-7.5 11.453125,-7.5 7.671875,0 11.5,7.5 3.84375,7.5 3.84375,22.484375 0,15.046875 -3.84375,22.53125 -3.828125,7.5 -11.5,7.5 z m 0,7.8125 q 12.265625,0 18.734375,-9.703125 6.46875,-9.6875 6.46875,-28.140625 0,-18.40625 -6.46875,-28.109375 -6.46875,-9.6875 -18.734375,-9.6875 -12.25,0 -18.71875,9.6875 Q 6.59375,17.96875 6.59375,36.375 q 0,18.453125 6.46875,28.140625 6.46875,9.703125 18.71875,9.703125 z"
       id="DejaVuSans-48-9" />
    <path
       inkscape:connector-curvature="0"
       d="m 12.40625,8.296875 h 16.109375 v 55.625 L 10.984375,60.40625 v 8.984375 l 17.4375,3.515625 H 38.28125 V 8.296875 H 54.390625 V 0 H 12.40625 Z"
       id="DejaVuSans-49-8" />
    <clipPath
       id="p311bc229d1">
      <rect
         height="109.0824"
         width="270.88797"
         x="7.1999998"
         y="7.1999998"
         id="rect620" />
    </clipPath>
    <clipPath
       id="p8b1e7c525c-5">
      <rect
         id="rect167-7"
         y="7.1999998"
         x="7.1999998"
         width="179.98596"
         height="109.0824" />
    </clipPath>
    <clipPath
       id="p8b1e7c525c-5-0">
      <rect
         height="109.0824"
         width="179.98596"
         x="7.1999998"
         y="7.1999998"
         id="rect167-7-6" />
    </clipPath>
  </defs>
  <sodipodi:namedview
     inkscape:window-maximized="0"
     inkscape:window-y="0"
     inkscape:window-x="0"
     inkscape:window-height="1120"
     inkscape:window-width="1792"
     showgrid="false"
     inkscape:document-rotation="0"
     inkscape:current-layer="layer1"
     inkscape:document-units="mm"
     inkscape:cy="91.636479"
     inkscape:cx="239.9723"
     inkscape:zoom="2.3100548"
     inkscape:pageshadow="2"
     inkscape:pageopacity="0.0"
     borderopacity="1.0"
     bordercolor="#666666"
     pagecolor="#ffffff"
     id="base" />
  <metadata
     id="metadata5">
    <rdf:RDF>
      <cc:Work
         rdf:about="">
        <dc:format>image/svg+xml</dc:format>
        <dc:type
           rdf:resource="http://purl.org/dc/dcmitype/StillImage" />
        <dc:title></dc:title>
      </cc:Work>
    </rdf:RDF>
  </metadata>
  <g
     id="layer1"
     inkscape:groupmode="layer"
     inkscape:label="Layer 1">
    <g
       transform="matrix(0.24069506,0,0,0.35277778,-14.412963,-4.2962394)"
       id="line2d_1">
      <path
         id="path119"
         style="fill:none;stroke:#000000;stroke-width:2;stroke-linecap:square"
         d="m 114.46436,43.5608 h 68.1765"
         clip-path="url(#p8b1e7c525c)"
         inkscape:connector-curvature="0" />
    </g>
    <path
       transform="matrix(0.24190995,0,0,0.35277778,-14.640372,-4.2962394)"
       inkscape:connector-curvature="0"
       clip-path="url(#p8b1e7c525c)"
       d="m 114.46436,89.0118 h 68.1765"
       style="fill:none;stroke:#000000;stroke-width:2;stroke-linecap:square"
       id="path122" />
    <g
       transform="matrix(0.35277778,0,0,0.35277778,-27.219918,-4.2962394)"
       id="line2d_3">
      <path
         id="path125"
         style="fill:none;stroke:#6fa4ff;stroke-width:2;stroke-linecap:square"
         d="M 137.18986,89.0118 V 43.5608"
         clip-path="url(#p8b1e7c525c)"
         inkscape:connector-curvature="0" />
    </g>
    <g
       transform="matrix(0.35277778,0,0,0.35277778,-27.219918,-4.2962394)"
       id="patch_2">
      <path
         id="path128"
         style="fill:#6fa4ff;stroke:#6fa4ff;stroke-width:1.5;stroke-linejoin:miter"
         d="m 137.18986,93.443273 c 1.17524,0 2.3025,-0.466928 3.13352,-1.297949 0.83102,-0.83102 1.29795,-1.958284 1.29795,-3.133524 0,-1.17524 -0.46693,-2.302504 -1.29795,-3.133524 -0.83102,-0.831021 -1.95828,-1.297948 -3.13352,-1.297948 -1.17524,0 -2.3025,0.466927 -3.13352,1.297948 -0.83103,0.83102 -1.29795,1.958284 -1.29795,3.133524 0,1.17524 0.46692,2.302504 1.29795,3.133524 0.83102,0.831021 1.95828,1.297949 3.13352,1.297949 z"
         clip-path="url(#p8b1e7c525c)"
         inkscape:connector-curvature="0" />
    </g>
    <g
       transform="matrix(0.35277778,0,0,0.35277778,-27.219918,-4.2962394)"
       id="patch_3">
      <path
         id="path131"
         style="fill:#6fa4ff;stroke:#6fa4ff;stroke-width:2;stroke-linejoin:miter"
         d="m 137.18986,53.900903 c 2.74223,0 5.37251,-1.089499 7.31156,-3.028546 1.93904,-1.939048 3.02854,-4.56933 3.02854,-7.311557 0,-2.742227 -1.0895,-5.372509 -3.02854,-7.311557 -1.93905,-1.939047 -4.56933,-3.028545 -7.31156,-3.028545 -2.74223,0 -5.37251,1.089498 -7.31156,3.028545 -1.93904,1.939048 -3.02854,4.56933 -3.02854,7.311557 0,2.742227 1.0895,5.372509 3.02854,7.311557 1.93905,1.939047 4.56933,3.028546 7.31156,3.028546 z"
         clip-path="url(#p8b1e7c525c)"
         inkscape:connector-curvature="0" />
    </g>
    <g
       transform="matrix(0.35277778,0,0,0.35277778,-27.219918,-4.2962394)"
       id="line2d_4">
      <path
         id="path134"
         style="fill:none;stroke:#ffffff;stroke-width:2;stroke-linecap:square"
         d="M 137.18986,49.46943 V 37.65217"
         clip-path="url(#p8b1e7c525c)"
         inkscape:connector-curvature="0" />
    </g>
    <g
       transform="matrix(0.35277778,0,0,0.35277778,-27.219918,-4.2962394)"
       id="line2d_5">
      <path
         id="path137"
         style="fill:none;stroke:#ffffff;stroke-width:2;stroke-linecap:square"
         d="m 131.28123,43.5608 h 11.81726"
         clip-path="url(#p8b1e7c525c)"
         inkscape:connector-curvature="0" />
    </g>
    <path
       inkscape:connector-curvature="0"
       id="path236"
       d="M 40.277885,69.401896 Z"
       style="fill:none;stroke:#000000;stroke-width:0.264583px;stroke-linecap:butt;stroke-linejoin:miter;stroke-opacity:1" />
    <g
       transform="matrix(0.32107999,0,0,0.35277778,10.897907,-4.8830493)"
       id="line2d_1-0">
      <path
         id="path529"
         style="fill:none;stroke:#000000;stroke-width:2;stroke-linecap:square"
         d="m 114.46436,43.5608 h 159.0785"
         clip-path="url(#p311bc229d1)"
         inkscape:connector-curvature="0" />
    </g>
    <g
       transform="matrix(0.31881586,0,0,0.35277778,11.154805,-4.8830493)"
       id="line2d_2">
      <path
         id="path532"
         style="fill:none;stroke:#000000;stroke-width:2;stroke-linecap:square"
         d="m 114.46436,89.0118 h 159.0785"
         clip-path="url(#p311bc229d1)"
         inkscape:connector-curvature="0" />
    </g>
    <g
       transform="matrix(0.35277778,0,0,0.35277778,7.3013379,-4.8830493)"
       id="line2d_3-6">
      <path
         id="path535"
         style="fill:none;stroke:#6fa4ff;stroke-width:2;stroke-linecap:square"
         d="M 182.64086,89.0118 V 43.5608"
         clip-path="url(#p311bc229d1)"
         inkscape:connector-curvature="0" />
    </g>
    <g
       transform="matrix(0.35277778,0,0,0.35277778,7.3013379,-4.8830493)"
       id="patch_2-3">
      <path
         id="path538"
         style="fill:#6fa4ff"
         d="m 122.41828,58.332375 h 29.54315 v -29.54315 h -29.54315 z"
         clip-path="url(#p311bc229d1)"
         inkscape:connector-curvature="0" />
    </g>
    <g
       transform="matrix(0.35277778,0,0,0.35277778,7.3013379,-4.8830493)"
       id="patch_3-0">
      <path
         id="path541"
         style="fill:#6fa4ff"
         d="m 122.41828,103.78338 h 29.54315 V 74.240225 h -29.54315 z"
         clip-path="url(#p311bc229d1)"
         inkscape:connector-curvature="0" />
    </g>
    <g
       transform="matrix(0.35277778,0,0,0.35277778,7.3013379,-4.8830493)"
       id="patch_4">
      <path
         id="path544"
         style="fill:#6fa4ff;stroke:#6fa4ff;stroke-width:1.5;stroke-linejoin:miter"
         d="m 182.64086,47.992273 c 1.17524,0 2.3025,-0.466928 3.13352,-1.297949 0.83102,-0.83102 1.29795,-1.958284 1.29795,-3.133524 0,-1.17524 -0.46693,-2.302504 -1.29795,-3.133524 -0.83102,-0.831021 -1.95828,-1.297948 -3.13352,-1.297948 -1.17524,0 -2.3025,0.466927 -3.13352,1.297948 -0.83103,0.83102 -1.29795,1.958284 -1.29795,3.133524 0,1.17524 0.46692,2.302504 1.29795,3.133524 0.83102,0.831021 1.95828,1.297949 3.13352,1.297949 z"
         clip-path="url(#p311bc229d1)"
         inkscape:connector-curvature="0" />
    </g>
    <g
       transform="matrix(0.35277778,0,0,0.35277778,7.3013379,-4.8830493)"
       id="patch_5">
      <path
         id="path547"
         style="fill:#6fa4ff;stroke:#6fa4ff;stroke-width:2;stroke-linejoin:miter"
         d="m 182.64086,99.351903 c 2.74223,0 5.37251,-1.089499 7.31156,-3.028546 1.93904,-1.939048 3.02854,-4.56933 3.02854,-7.311557 0,-2.742227 -1.0895,-5.372509 -3.02854,-7.311557 -1.93905,-1.939047 -4.56933,-3.028545 -7.31156,-3.028545 -2.74223,0 -5.37251,1.089498 -7.31156,3.028545 -1.93904,1.939048 -3.02854,4.56933 -3.02854,7.311557 0,2.742227 1.0895,5.372509 3.02854,7.311557 1.93905,1.939047 4.56933,3.028546 7.31156,3.028546 z"
         clip-path="url(#p311bc229d1)"
         inkscape:connector-curvature="0" />
    </g>
    <g
       transform="matrix(0.35277778,0,0,0.35277778,7.3013379,-4.8830493)"
       id="patch_6">
      <path
         id="path550"
         style="fill:#6fa4ff"
         d="m 213.32028,58.332375 h 29.54315 v -29.54315 h -29.54315 z"
         clip-path="url(#p311bc229d1)"
         inkscape:connector-curvature="0" />
    </g>
    <g
       transform="matrix(0.35277778,0,0,0.35277778,7.3013379,-4.8830493)"
       id="patch_7">
      <path
         id="path553"
         style="fill:#6fa4ff"
         d="m 213.32028,103.78338 h 29.54315 V 74.240225 h -29.54315 z"
         clip-path="url(#p311bc229d1)"
         inkscape:connector-curvature="0" />
    </g>
    <g
       transform="matrix(0.35277778,0,0,0.35277778,7.3013379,-4.8830493)"
       id="line2d_4-3">
      <path
         id="path556"
         style="fill:none;stroke:#ffffff;stroke-width:2;stroke-linecap:square"
         d="M 182.64086,94.92043 V 83.10317"
         clip-path="url(#p311bc229d1)"
         inkscape:connector-curvature="0" />
    </g>
    <g
       transform="matrix(0.35277778,0,0,0.35277778,7.3013379,-4.8830493)"
       id="line2d_5-1">
      <path
         id="path559"
         style="fill:none;stroke:#ffffff;stroke-width:2;stroke-linecap:square"
         d="m 176.73223,89.0118 h 11.81726"
         clip-path="url(#p311bc229d1)"
         inkscape:connector-curvature="0" />
    </g>
    <g
       transform="matrix(0.35277778,0,0,0.35277778,7.3013379,-4.8830493)"
       id="text_1">
      <g
         id="g569"
         clip-path="url(#p311bc229d1)">
        <!-- $H$ -->
        <defs
           id="defs563">
          <path
             id="path662"
             d="M 16.890625,72.90625 H 26.8125 L 21,43.015625 h 35.78125 l 5.8125,29.890625 h 9.921875 L 58.296875,0 h -9.90625 l 6.78125,34.71875 H 19.390625 L 12.59375,0 H 2.6875 Z"
             inkscape:connector-curvature="0" />
        </defs>
        <g
           id="g567"
           transform="matrix(0.13,0,0,-0.13,132.24986,47.147988)">
          <use
             id="use565"
             xlink:href="#DejaVuSans-Oblique-72"
             transform="translate(0,0.09375)"
             x="0"
             y="0"
             width="100%"
             height="100%" />
        </g>
      </g>
    </g>
    <g
       transform="matrix(0.35277778,0,0,0.35277778,7.3013379,-4.8830493)"
       id="text_2">
      <g
         id="g576"
         clip-path="url(#p311bc229d1)">
        <!-- $H$ -->
        <g
           id="g574"
           transform="matrix(0.13,0,0,-0.13,132.24986,92.598988)">
          <use
             id="use572"
             xlink:href="#DejaVuSans-Oblique-72"
             transform="translate(0,0.09375)"
             x="0"
             y="0"
             width="100%"
             height="100%" />
        </g>
      </g>
    </g>
    <g
       transform="matrix(0.35277778,0,0,0.35277778,7.3013379,-4.8830493)"
       id="text_3">
      <g
         id="g583"
         clip-path="url(#p311bc229d1)">
        <!-- $H$ -->
        <g
           id="g581"
           transform="matrix(0.13,0,0,-0.13,223.15186,47.147988)">
          <use
             id="use579"
             xlink:href="#DejaVuSans-Oblique-72"
             transform="translate(0,0.09375)"
             x="0"
             y="0"
             width="100%"
             height="100%" />
        </g>
      </g>
    </g>
    <g
       transform="matrix(0.35277778,0,0,0.35277778,7.3013379,-4.8830493)"
       id="text_4">
      <g
         id="g590"
         clip-path="url(#p311bc229d1)">
        <!-- $H$ -->
        <g
           id="g588"
           transform="matrix(0.13,0,0,-0.13,223.15186,92.598988)">
          <use
             id="use586"
             xlink:href="#DejaVuSans-Oblique-72"
             transform="translate(0,0.09375)"
             x="0"
             y="0"
             width="100%"
             height="100%" />
        </g>
      </g>
    </g>
    <path
       id="path122-9"
       style="fill:none;stroke:#000000;stroke-width:2;stroke-linecap:square;stroke-linejoin:round"
       d="m 114.46436,89.0118 h 68.1765"
       clip-path="url(#p8b1e7c525c-5)"
       inkscape:connector-curvature="0"
       transform="matrix(0.0548205,0,0,0.35277777,30.790644,-13.926926)" />
    <path
       transform="matrix(0.0548205,0,0,0.35277777,30.801148,-12.116225)"
       inkscape:connector-curvature="0"
       clip-path="url(#p8b1e7c525c-5-0)"
       d="m 114.46436,89.0118 h 68.1765"
       style="fill:none;stroke:#000000;stroke-width:2;stroke-linecap:square;stroke-linejoin:round"
       id="path122-9-4" />
  </g>
</svg>
