<?xml version="1.0" encoding="UTF-8" standalone="no"?>
<svg
   xmlns:dc="http://purl.org/dc/elements/1.1/"
   xmlns:cc="http://creativecommons.org/ns#"
   xmlns:rdf="http://www.w3.org/1999/02/22-rdf-syntax-ns#"
   xmlns:svg="http://www.w3.org/2000/svg"
   xmlns="http://www.w3.org/2000/svg"
   xmlns:sodipodi="http://sodipodi.sourceforge.net/DTD/sodipodi-0.dtd"
   xmlns:inkscape="http://www.inkscape.org/namespaces/inkscape"
   inkscape:version="1.0beta2 (2b71d25, 2019-12-03)"
   sodipodi:docname="logo_qiskit_pink.svg"
   id="svg945"
   version="1.1"
   viewBox="0 0 392.5 392.5">
  <metadata
     id="metadata949">
    <rdf:RDF>
      <cc:Work
         rdf:about="">
        <dc:format>image/svg+xml</dc:format>
        <dc:type
           rdf:resource="http://purl.org/dc/dcmitype/StillImage" />
        <dc:title>qiskit-logo</dc:title>
      </cc:Work>
    </rdf:RDF>
  </metadata>
  <sodipodi:namedview
     inkscape:current-layer="svg945"
     inkscape:window-maximized="0"
     inkscape:window-y="0"
     inkscape:window-x="0"
     inkscape:cy="190.87842"
     inkscape:cx="200.79378"
     inkscape:zoom="1.9877582"
     showgrid="false"
     id="namedview947"
     inkscape:window-height="1120"
     inkscape:window-width="1792"
     inkscape:pageshadow="2"
     inkscape:pageopacity="0"
     guidetolerance="10"
     gridtolerance="10"
     objecttolerance="10"
     borderopacity="1"
     inkscape:document-rotation="0"
     bordercolor="#666666"
     pagecolor="#ffffff" />
  <defs
     id="defs921">
    <linearGradient
       gradientUnits="userSpaceOnUse"
       gradientTransform="matrix(1, 0, 0, -1, 0, 394)"
       y2="41.54"
       x2="196.25"
       y1="7.91"
       x1="196.25"
       id="a">
      <stop
         style="stop-color:#e8daff;stop-opacity:1"
         id="stop833"
         stop-color="#fff"
         offset="0" />
      <stop
         style="stop-color:#e8daff;stop-opacity:0.76862746"
         id="stop841"
         stop-opacity="0.77"
         stop-color="#fff"
         offset="0.51" />
      <stop
         id="stop851"
         stop-opacity="0"
         stop-color="#fff"
         offset="1" />
    </linearGradient>
    <linearGradient
       gradientUnits="userSpaceOnUse"
       gradientTransform="matrix(1, 0, 0, -1, 0, 394)"
       y2="156.86"
       x2="198.57"
       y1="59.17"
       x1="198.57"
       id="b">
      <stop
         style="stop-color:#e8daff;stop-opacity:1"
         id="stop854"
         stop-color="#fff"
         offset="0" />
      <stop
         style="stop-color:#e8daff;stop-opacity:0.89019608"
         id="stop860"
         stop-opacity="0.89"
         stop-color="#fff"
         offset="0.44" />
      <stop
         id="stop872"
         stop-opacity="0"
         stop-color="#fff"
         offset="1" />
    </linearGradient>
    <linearGradient
       gradientUnits="userSpaceOnUse"
       gradientTransform="matrix(1, 0, 0, -1, 0, 394)"
       y2="253"
       x2="196.25"
       y1="142.48"
       x1="196.25"
       id="c">
      <stop
         style="stop-color:#e8daff;stop-opacity:1"
         id="stop875"
         stop-color="#fff"
         offset="0" />
      <stop
         style="stop-color:#e8daff;stop-opacity:0.94901961"
         id="stop879"
         stop-opacity="0.95"
         stop-color="#fff"
         offset="0.4802137" />
      <stop
         id="stop893"
         stop-opacity="0.01"
         stop-color="#fff"
         offset="1" />
      <stop
         id="stop895"
         stop-opacity="0"
         stop-color="#fff"
         offset="1" />
    </linearGradient>
    <linearGradient
       gradientUnits="userSpaceOnUse"
       gradientTransform="matrix(1, 0, 0, -1, 0, 394)"
       y2="336.33"
       x2="198.57"
       y1="238.61"
       x1="198.57"
       id="d">
      <stop
         style="stop-color:#e8daff;stop-opacity:1"
         id="stop898"
         stop-color="#fff"
         offset="0" />
      <stop
         style="stop-color:#e8daff;stop-opacity:0.56862748"
         id="stop910"
         stop-opacity="0.57"
         stop-color="#fff"
         offset="0.52892494" />
      <stop
         id="stop916"
         stop-opacity="0.03"
         stop-color="#fff"
         offset="0.99" />
      <stop
         id="stop918"
         stop-opacity="0"
         stop-color="#fff"
         offset="1" />
    </linearGradient>
  </defs>
  <title
     id="title923">qiskit-logo</title>
  <path
     id="path925"
     fill="url(#a)"
     d="M196.2,386.1c-23.5,0-48.8-5.3-48.8-16.8s25.3-16.8,48.8-16.8,48.9,5.2,48.9,16.8S219.8,386.1,196.2,386.1Zm0-25.6c-26.7,0-40.2,6.4-40.8,8.8s14.1,8.8,40.8,8.8,40.2-6.4,40.9-8.8S222.9,360.5,196.2,360.5Z" />
  <rect
     style="fill:#e8daff;fill-opacity:1"
     id="rect927"
     fill="#fff"
     transform="translate(-73.9 144.1) rotate(-33.6)"
     height="307.03"
     width="8"
     y="40.9"
     x="197.6" />
  <path
     id="path929"
     fill="url(#b)"
     d="M198.6,334.8c-43.7,0-85-4.7-116-13.3C40.8,310,32,295.8,32,286s8.8-24,50.6-35.6c31-8.5,72.2-13.3,116-13.3s85,4.8,116,13.3c41.8,11.6,50.5,25.7,50.5,35.6s-8.7,24-50.5,35.6C283.6,330.1,242.4,334.8,198.6,334.8Zm0-89.7c-43,0-83.5,4.6-113.9,13C56.8,265.8,40,276.2,40,286s16.7,20.1,44.7,27.9c30.4,8.3,70.8,13,113.9,13s83.6-4.7,113.9-13c28-7.8,44.7-18.2,44.7-27.9s-16.7-20.1-44.7-27.9c-30.3-8.4-70.8-13-113.9-13Z" />
  <rect
     style="fill:#e8daff;fill-opacity:1"
     id="rect931"
     fill="#fff"
     transform="translate(-35.9 97.5) rotate(-33.4)"
     height="100.69"
     width="8"
     y="58.3"
     x="140.4" />
  <path
     style="fill:url(#c)"
     id="path933"
     fill="url(#c)"
     d="M196.2,251.5c-50,0-97-5.4-132.4-15.1-47.4-13.1-57.4-29-57.4-40.2s10-27,57.4-40.1c35.4-9.7,82.5-15.1,132.4-15.1s97,5.4,132.5,15.2c47.4,13,57.4,29,57.4,40.1s-10,27-57.4,40.1C293.3,246.1,246.2,251.5,196.2,251.5Zm0-102.5c-49.2,0-95.5,5.3-130.3,14.9-32.2,8.9-51.5,21-51.5,32.3s19.3,23.6,51.5,32.4c34.8,9.6,81.1,14.9,130.3,14.9s95.6-5.3,130.4-14.9c32.2-8.8,51.5-21,51.5-32.4s-19.3-23.4-51.5-32.3c-34.8-9.6-81.1-14.9-130.4-14.9Z" />
  <path
     style="fill:url(#d)"
     id="path935"
     fill="url(#d)"
     d="M198.6,155.4c-43.7,0-85-4.7-116-13.3C40.8,130.6,32,116.4,32,106.5s8.8-24,50.6-35.5c31-8.6,72.2-13.3,116-13.3s85,4.7,116,13.3c41.8,11.5,50.5,25.7,50.5,35.5s-8.7,24.1-50.5,35.6C283.6,150.7,242.4,155.4,198.6,155.4Zm0-89.7c-43,0-83.5,4.6-113.9,13C56.8,86.4,40,96.8,40,106.5s16.7,20.2,44.7,27.9c30.4,8.4,70.8,13,113.9,13s83.6-4.6,113.9-13c28-7.7,44.7-18.1,44.7-27.9s-16.7-20.1-44.7-27.8C282.2,70.3,241.7,65.7,198.6,65.7Z" />
  <path
     style="fill:#e8daff;fill-opacity:1"
     id="path937"
     fill="#fff"
     d="M196.2,40c-23.5,0-48.8-5.3-48.8-16.8S172.7,6.4,196.2,6.4s48.9,5.3,48.9,16.8S219.8,40,196.2,40Zm0-25.6c-26.7,0-40.2,6.4-40.8,8.8S169.5,32,196.2,32s40.2-6.3,40.9-8.8-14.2-8.8-40.9-8.8Z" />
  <path
     style="fill:#e8daff;fill-opacity:1"
     id="path939"
     fill="#fff"
     d="M196.2,392.5C88,392.5,0,304.5,0,196.2S88,0,196.2,0,392.5,88,392.5,196.2,304.5,392.5,196.2,392.5ZM196.2,8C92.4,8,8,92.4,8,196.2S92.4,384.5,196.2,384.5,384.5,300,384.5,196.2,300,8,196.2,8Z" />
  <circle
     style="fill:#e8daff;fill-opacity:1"
     id="circle941"
     fill="#fff"
     r="19.2"
     cy="320.9"
     cx="286.7" />
  <circle
     style="fill:#e8daff;fill-opacity:1"
     id="circle943"
     fill="#fff"
     r="19.2"
     cy="67"
     cx="115.8" />
</svg>
