<svg
    class="app-logo"
    version="1.2"
    xmlns="http://www.w3.org/2000/svg"
    x="0"
    y="0"
    viewBox="0 0 451.7 140.8"
    xml:space="preserve"
>
    <style type="text/css">
      .app-logo__gradient {
        stop-color: #6929c4;
      }
      .app-logo__solid {
        fill: #6929c4;
      }
    </style>
    <defs>
      <radialGradient
        id="gradient-1"
        cx="63.5"
        cy="71.1"
        r="65"
        gradientTransform="matrix(.96 .21 -.14 .63 43 13.8)"
        gradientUnits="userSpaceOnUse"
      >
        <stop class="app-logo__gradient" offset=".2" stop-opacity="0" />
        <stop class="app-logo__gradient" offset="1" />
      </radialGradient>
      <radialGradient
        id="gradient-2"
        cx="40"
        cy="162.1"
        r="35"
        gradientTransform="matrix(.98 0 0 .6 31.7 16.5)"
        gradientUnits="userSpaceOnUse"
      >
        <stop class="app-logo__gradient" offset="0" stop-opacity="0" />
        <stop class="app-logo__gradient" offset="1" />
      </radialGradient>
      <radialGradient
        id="gradient-3"
        cx="40.5"
        cy="29.8"
        r="60.3"
        gradientTransform="matrix(.98 0 0 .75 31.6 9.5)"
        gradientUnits="userSpaceOnUse"
      >
        <stop class="app-logo__gradient" offset=".2" stop-opacity="0" />
        <stop class="app-logo__gradient" offset="1" />
      </radialGradient>
      <radialGradient
        id="gradient-4"
        cx="3.1"
        cy="-.4"
        r="40.7"
        gradientTransform="matrix(.4 .89 -1.26 .57 33 -.4)"
        gradientUnits="userSpaceOnUse"
      >
        <stop class="app-logo__gradient" offset=".4" stop-opacity="0" />
        <stop class="app-logo__gradient" offset="1" />
      </radialGradient>
      <radialGradient
        id="gradient-5"
        cx="-412.4"
        cy="-1203.4"
        r="1068.9"
        gradientTransform="matrix(.98 0 0 .98 31.7 2.6)"
        gradientUnits="userSpaceOnUse"
      >
        <stop class="app-logo__gradient" offset="0" stop-opacity="0" />
        <stop class="app-logo__gradient" offset=".4" />
      </radialGradient>
      <style>
        .cls-1{fill:#010101}
      </style>
    </defs>
    <path class="app-logo__solid" d="M221.3 126.4h-11.6c-9.1 0-13.3-5-13.3-13v-6.2c-18.3-2.3-29.8-16.8-29.8-41.8 0-27.5 13.9-42.2 35.1-42.2S237 37.9 237 65.4c0 24.3-10.8 38.7-28.1 41.6v8.4H221zm1.5-54.6V59c0-14.8-8.4-24-21-24s-21 9.1-21 24v12.8c0 14.9 8.4 24 21 24s21-9.1 21-24zM246.3 30.3v-2c0-3.9 2.3-6.7 7.6-6.7s7.5 2.8 7.5 6.7v2c0 3.8-2.2 6.6-7.5 6.6s-7.6-2.8-7.6-6.6zM247.5 45.4h12.7v60.8h-12.7zM270.9 96.1l8.1-7.4c4.4 5.3 10 8.6 17.2 8.6s11-3 11-8.2c0-3.8-2.3-6.7-8.6-7.6l-5.6-.7c-12.4-1.5-20-6.9-20-18 0-11.9 9.3-18.8 22.6-18.8 11 0 17.2 3.6 22.7 9.7l-7.9 7.5a19.4 19.4 0 00-14.8-6.9c-7 0-10.3 3-10.3 7.6s3 6.8 9.3 7.8l5.7.7c13.3 2 19.2 7.9 19.2 17.7 0 11.7-9.4 19.5-24 19.5A29.3 29.3 0 01270.9 96zM328.2 19.7H341v53h.6L350 62l14.6-16.5h14.8L358.1 69l23.9 37.3h-15.2l-17.4-29-8.4 9.1v19.9h-12.8zM390.8 30.3v-2c0-3.9 2.4-6.7 7.6-6.7s7.5 2.8 7.5 6.7v2c0 3.8-2.2 6.6-7.5 6.6s-7.6-2.8-7.6-6.6zM392 45.4h12.7v60.8H392zM438.3 106.2c-8.8 0-13.5-5-13.5-13.2V55.8h-9.4V45.4h5.1c4.2 0 5.6-1.7 5.6-6V28.8h11.5v16.6h12.7v10.4h-12.7v40h11.8v10.4z" />
    <path fill="url(#gradient-1)" d="M131.1 103.1C131 90.1 100.6 83 72 82.6c-30.4 0-61.8 7.6-61.9 20.5.2 13 30.6 20.3 59.2 20.6 30.3 0 61.7-7.7 61.8-20.5zM69.3 119c-32-.4-54.3-8.6-54.4-15.8.1-7.5 24.5-16 57.1-16 32 .5 54.3 8.7 54.4 16 0 7.4-24.5 15.8-57.1 15.8z" />
    <path class="app-logo__solid" d="M70.8 140.3a70 70 0 1161.5-103 70 70 0 01-61.5 103zM70.5 5.2a65.2 65.2 0 1057.6 34.3A65.3 65.3 0 0070.7 5.2z" />
    <path fill="url(#gradient-2)" d="M88.7 131c0-5.4-7.8-9.5-18-9.5s-18 4-18 9.4v.1c0 5.3 7.8 9.4 18 9.4s18-4 18-9.4zm-18 5c-8.1 0-13.3-3-13.3-5s5.2-5 13.3-5 13.2 2.9 13.3 5-5.3 4.9-13.3 4.9z" />
    <path fill="url(#gradient-3)" d="M140.6 70.4c-.2-13.8-35.3-21.7-68.3-22-35 0-71.4 8.2-71.6 22C.9 84.5 36 92.3 69 92.7c35 0 71.4-8.3 71.6-22.1zM69.1 87.8c-37.4-.4-63.5-9.5-63.7-17.4C5.5 62.2 34.1 53 72.2 53c37.5.4 63.6 9.5 63.7 17.4-.1 8.2-28.7 17.4-66.8 17.4z" />
    <path fill="url(#gradient-4)" d="M72 16.9c-30.4 0-61.8 7.7-61.8 20.6s30.4 20.3 59 20.6c30.4 0 61.8-7.7 61.8-20.6s-30.3-20.3-59-20.6zm-2.7 36.4C37.3 53 15 44.7 15 37.5c0-7.5 24.4-15.9 57-15.9 32 .4 54.3 8.7 54.3 15.9 0 7.5-24.4 15.8-57 15.8z" />
    <path class="app-logo__solid" d="M70.4.4c-5 0-16.9.7-16.9 7.9s11.8 7.8 17 7.8 16.8-.7 16.8-7.8-11.8-8-16.9-8zm0 4.8c7.2 0 12.1 1.6 12.1 3s-5 3.2-12 3.2-12.2-1.7-12.2-3.1 5-3.1 12.1-3.1z" />
    <path fill="url(#gradient-5)" d="M100 112.8a6.1 6.1 0 00-.9 0L72.8 67.6 48.8 26a6 6 0 10-4.5 2.2 6.6 6.6 0 00.8 0l24 41.3 10.8 18.7L95.3 115a6 6 0 104.7-2.2z" />
</svg>