<svg width="14" height="15" viewBox="0 0 14 15" fill="none" xmlns="http://www.w3.org/2000/svg">
<path d="M14 14.1938L10.2 10.1562C11 9.14688 11.5 7.81875 11.5 6.4375C11.5 3.19688 9.05 0.59375 6 0.59375C2.95 0.59375 0.5 3.19688 0.5 6.4375C0.5 9.67813 2.95 12.2812 6 12.2812C7.35 12.2812 8.55 11.7499 9.5 10.8999L13.3 14.9375L14 14.1938ZM1.5 6.4375C1.5 3.78125 3.5 1.65625 6 1.65625C8.5 1.65625 10.5 3.78125 10.5 6.4375C10.5 9.09375 8.5 11.2188 6 11.2188C3.5 11.2188 1.5 9.09375 1.5 6.4375Z" fill="black"/>
</svg>
