<?xml version="1.0" encoding="utf-8" standalone="no"?>
<!DOCTYPE svg PUBLIC "-//W3C//DTD SVG 1.1//EN"
  "http://www.w3.org/Graphics/SVG/1.1/DTD/svg11.dtd">
<!-- Created with matplotlib (https://matplotlib.org/) -->
<svg height="214.3844pt" version="1.1" viewBox="0 0 958.87178 214.3844" width="958.87178pt" xmlns="http://www.w3.org/2000/svg" xmlns:xlink="http://www.w3.org/1999/xlink">
 <defs>
  <style type="text/css">
*{stroke-linecap:butt;stroke-linejoin:round;}
  </style>
 </defs>
 <g id="figure_1">
  <g id="patch_1">
   <path d="M -0 214.3844 
L 958.87178 214.3844 
L 958.87178 0 
L -0 0 
z
" style="fill:#ffffff;"/>
  </g>
  <g id="axes_1">
   <g id="patch_2">
    <path clip-path="url(#pc9956f72e5)" d="M 804.86505 169.573697 
L 816.68231 169.573697 
L 810.77368 179.9138 
z
" style="fill:#778899;"/>
   </g>
   <g id="patch_3">
    <path clip-path="url(#pc9956f72e5)" d="M 850.31605 169.573697 
L 862.13331 169.573697 
L 856.22468 179.9138 
z
" style="fill:#778899;"/>
   </g>
   <g id="patch_4">
    <path clip-path="url(#pc9956f72e5)" d="M 895.76705 169.573697 
L 907.58431 169.573697 
L 901.67568 179.9138 
z
" style="fill:#778899;"/>
   </g>
   <g id="line2d_1">
    <path clip-path="url(#pc9956f72e5)" d="M 106.28318 43.5608 
L 947.12668 43.5608 
" style="fill:none;stroke:#000000;stroke-linecap:square;stroke-width:2;"/>
   </g>
   <g id="line2d_2">
    <path clip-path="url(#pc9956f72e5)" d="M 106.28318 89.0118 
L 947.12668 89.0118 
" style="fill:none;stroke:#000000;stroke-linecap:square;stroke-width:2;"/>
   </g>
   <g id="line2d_3">
    <path clip-path="url(#pc9956f72e5)" d="M 106.28318 134.4628 
L 947.12668 134.4628 
" style="fill:none;stroke:#000000;stroke-linecap:square;stroke-width:2;"/>
   </g>
   <g id="line2d_4">
    <path clip-path="url(#pc9956f72e5)" d="M 106.28318 178.436642 
L 947.12668 178.436642 
" style="fill:none;stroke:#778899;stroke-linecap:square;stroke-width:2;"/>
   </g>
   <g id="line2d_5">
    <path clip-path="url(#pc9956f72e5)" d="M 106.28318 181.390957 
L 947.12668 181.390957 
" style="fill:none;stroke:#778899;stroke-linecap:square;stroke-width:2;"/>
   </g>
   <g id="patch_5">
    <path clip-path="url(#pc9956f72e5)" d="M 165.596735 157.1883 
L 183.322625 157.1883 
L 183.322625 20.8353 
L 165.596735 20.8353 
z
" style="fill:#bdbdbd;opacity:0.6;"/>
   </g>
   <g id="patch_6">
    <path clip-path="url(#pc9956f72e5)" d="M 301.949735 157.1883 
L 319.675625 157.1883 
L 319.675625 20.8353 
L 301.949735 20.8353 
z
" style="fill:#bdbdbd;opacity:0.6;"/>
   </g>
   <g id="patch_7">
    <path clip-path="url(#pc9956f72e5)" d="M 438.302735 157.1883 
L 456.028625 157.1883 
L 456.028625 20.8353 
L 438.302735 20.8353 
z
" style="fill:#bdbdbd;opacity:0.6;"/>
   </g>
   <g id="patch_8">
    <path clip-path="url(#pc9956f72e5)" d="M 620.106735 157.1883 
L 637.832625 157.1883 
L 637.832625 20.8353 
L 620.106735 20.8353 
z
" style="fill:#bdbdbd;opacity:0.6;"/>
   </g>
   <g id="patch_9">
    <path clip-path="url(#pc9956f72e5)" d="M 756.459735 157.1883 
L 774.185625 157.1883 
L 774.185625 20.8353 
L 756.459735 20.8353 
z
" style="fill:#bdbdbd;opacity:0.6;"/>
   </g>
   <g id="line2d_6">
    <path clip-path="url(#pc9956f72e5)" d="M 219.91068 134.4628 
L 219.91068 43.5608 
" style="fill:none;stroke:#bb8bff;stroke-linecap:square;stroke-width:2;"/>
   </g>
   <g id="line2d_7">
    <path clip-path="url(#pc9956f72e5)" d="M 265.36168 134.4628 
L 265.36168 89.0118 
" style="fill:none;stroke:#bb8bff;stroke-linecap:square;stroke-width:2;"/>
   </g>
   <g id="line2d_8">
    <path clip-path="url(#pc9956f72e5)" d="M 538.06768 134.4628 
L 538.06768 43.5608 
" style="fill:none;stroke:#bb8bff;stroke-linecap:square;stroke-width:2;"/>
   </g>
   <g id="line2d_9">
    <path clip-path="url(#pc9956f72e5)" d="M 812.250837 43.5608 
L 812.250837 169.573697 
" style="fill:none;stroke:#778899;stroke-linecap:square;stroke-width:2;"/>
   </g>
   <g id="line2d_10">
    <path clip-path="url(#pc9956f72e5)" d="M 809.296522 43.5608 
L 809.296522 169.573697 
" style="fill:none;stroke:#778899;stroke-linecap:square;stroke-width:2;"/>
   </g>
   <g id="line2d_11">
    <path clip-path="url(#pc9956f72e5)" d="M 857.701837 89.0118 
L 857.701837 169.573697 
" style="fill:none;stroke:#778899;stroke-linecap:square;stroke-width:2;"/>
   </g>
   <g id="line2d_12">
    <path clip-path="url(#pc9956f72e5)" d="M 854.747522 89.0118 
L 854.747522 169.573697 
" style="fill:none;stroke:#778899;stroke-linecap:square;stroke-width:2;"/>
   </g>
   <g id="line2d_13">
    <path clip-path="url(#pc9956f72e5)" d="M 903.152837 134.4628 
L 903.152837 169.573697 
" style="fill:none;stroke:#778899;stroke-linecap:square;stroke-width:2;"/>
   </g>
   <g id="line2d_14">
    <path clip-path="url(#pc9956f72e5)" d="M 900.198522 134.4628 
L 900.198522 169.573697 
" style="fill:none;stroke:#778899;stroke-linecap:square;stroke-width:2;"/>
   </g>
   <g id="line2d_15">
    <path clip-path="url(#pc9956f72e5)" d="M 133.55378 184.4589 
L 138.09888 175.3687 
" style="fill:none;stroke:#778899;stroke-linecap:square;stroke-width:1.5;"/>
   </g>
   <g id="patch_10">
    <path clip-path="url(#pc9956f72e5)" d="M 114.237105 58.332375 
L 143.780255 58.332375 
L 143.780255 28.789225 
L 114.237105 28.789225 
z
" style="fill:#6fa4ff;"/>
   </g>
   <g id="patch_11">
    <path clip-path="url(#pc9956f72e5)" d="M 114.237105 103.783375 
L 143.780255 103.783375 
L 143.780255 74.240225 
L 114.237105 74.240225 
z
" style="fill:#6fa4ff;"/>
   </g>
   <g id="patch_12">
    <path clip-path="url(#pc9956f72e5)" d="M 114.237105 149.234375 
L 143.780255 149.234375 
L 143.780255 119.691225 
L 114.237105 119.691225 
z
" style="fill:#6fa4ff;"/>
   </g>
   <g id="patch_13">
    <path clip-path="url(#pc9956f72e5)" d="M 219.91068 138.894272 
C 221.08592 138.894272 222.213184 138.427345 223.044204 137.596324 
C 223.875225 136.765304 224.342152 135.63804 224.342152 134.4628 
C 224.342152 133.28756 223.875225 132.160296 223.044204 131.329276 
C 222.213184 130.498255 221.08592 130.031327 219.91068 130.031327 
C 218.73544 130.031327 217.608176 130.498255 216.777156 131.329276 
C 215.946135 132.160296 215.479207 133.28756 215.479207 134.4628 
C 215.479207 135.63804 215.946135 136.765304 216.777156 137.596324 
C 217.608176 138.427345 218.73544 138.894272 219.91068 138.894272 
z
" style="fill:#bb8bff;stroke:#bb8bff;stroke-linejoin:miter;stroke-width:1.5;"/>
   </g>
   <g id="patch_14">
    <path clip-path="url(#pc9956f72e5)" d="M 205.139105 58.332375 
L 234.682255 58.332375 
L 234.682255 28.789225 
L 205.139105 28.789225 
z
" style="fill:#bb8bff;"/>
   </g>
   <g id="patch_15">
    <path clip-path="url(#pc9956f72e5)" d="M 265.36168 138.894272 
C 266.53692 138.894272 267.664184 138.427345 268.495204 137.596324 
C 269.326225 136.765304 269.793152 135.63804 269.793152 134.4628 
C 269.793152 133.28756 269.326225 132.160296 268.495204 131.329276 
C 267.664184 130.498255 266.53692 130.031327 265.36168 130.031327 
C 264.18644 130.031327 263.059176 130.498255 262.228156 131.329276 
C 261.397135 132.160296 260.930207 133.28756 260.930207 134.4628 
C 260.930207 135.63804 261.397135 136.765304 262.228156 137.596324 
C 263.059176 138.427345 264.18644 138.894272 265.36168 138.894272 
z
" style="fill:#bb8bff;stroke:#bb8bff;stroke-linejoin:miter;stroke-width:1.5;"/>
   </g>
   <g id="patch_16">
    <path clip-path="url(#pc9956f72e5)" d="M 250.590105 103.783375 
L 280.133255 103.783375 
L 280.133255 74.240225 
L 250.590105 74.240225 
z
" style="fill:#bb8bff;"/>
   </g>
   <g id="patch_17">
    <path clip-path="url(#pc9956f72e5)" d="M 341.492105 58.332375 
L 371.035255 58.332375 
L 371.035255 28.789225 
L 341.492105 28.789225 
z
" style="fill:#6fa4ff;"/>
   </g>
   <g id="patch_18">
    <path clip-path="url(#pc9956f72e5)" d="M 341.492105 103.783375 
L 371.035255 103.783375 
L 371.035255 74.240225 
L 341.492105 74.240225 
z
" style="fill:#6fa4ff;"/>
   </g>
   <g id="patch_19">
    <path clip-path="url(#pc9956f72e5)" d="M 341.492105 149.234375 
L 371.035255 149.234375 
L 371.035255 119.691225 
L 341.492105 119.691225 
z
" style="fill:#6fa4ff;"/>
   </g>
   <g id="patch_20">
    <path clip-path="url(#pc9956f72e5)" d="M 386.943105 58.332375 
L 416.486255 58.332375 
L 416.486255 28.789225 
L 386.943105 28.789225 
z
" style="fill:#05bab6;"/>
   </g>
   <g id="patch_21">
    <path clip-path="url(#pc9956f72e5)" d="M 386.943105 103.783375 
L 416.486255 103.783375 
L 416.486255 74.240225 
L 386.943105 74.240225 
z
" style="fill:#05bab6;"/>
   </g>
   <g id="patch_22">
    <path clip-path="url(#pc9956f72e5)" d="M 386.943105 149.234375 
L 416.486255 149.234375 
L 416.486255 119.691225 
L 386.943105 119.691225 
z
" style="fill:#05bab6;"/>
   </g>
   <g id="patch_23">
    <path clip-path="url(#pc9956f72e5)" d="M 477.845105 149.234375 
L 507.388255 149.234375 
L 507.388255 119.691225 
L 477.845105 119.691225 
z
" style="fill:#6fa4ff;"/>
   </g>
   <g id="patch_24">
    <path clip-path="url(#pc9956f72e5)" d="M 538.06768 47.992272 
C 539.24292 47.992272 540.370184 47.525345 541.201204 46.694324 
C 542.032225 45.863304 542.499152 44.73604 542.499152 43.5608 
C 542.499152 42.38556 542.032225 41.258296 541.201204 40.427276 
C 540.370184 39.596255 539.24292 39.129327 538.06768 39.129327 
C 536.89244 39.129327 535.765176 39.596255 534.934156 40.427276 
C 534.103135 41.258296 533.636207 42.38556 533.636207 43.5608 
C 533.636207 44.73604 534.103135 45.863304 534.934156 46.694324 
C 535.765176 47.525345 536.89244 47.992272 538.06768 47.992272 
z
" style="fill:#bb8bff;stroke:#bb8bff;stroke-linejoin:miter;stroke-width:1.5;"/>
   </g>
   <g id="patch_25">
    <path clip-path="url(#pc9956f72e5)" d="M 538.06768 93.443272 
C 539.24292 93.443272 540.370184 92.976345 541.201204 92.145324 
C 542.032225 91.314304 542.499152 90.18704 542.499152 89.0118 
C 542.499152 87.83656 542.032225 86.709296 541.201204 85.878276 
C 540.370184 85.047255 539.24292 84.580327 538.06768 84.580327 
C 536.89244 84.580327 535.765176 85.047255 534.934156 85.878276 
C 534.103135 86.709296 533.636207 87.83656 533.636207 89.0118 
C 533.636207 90.18704 534.103135 91.314304 534.934156 92.145324 
C 535.765176 92.976345 536.89244 93.443272 538.06768 93.443272 
z
" style="fill:#bb8bff;stroke:#bb8bff;stroke-linejoin:miter;stroke-width:1.5;"/>
   </g>
   <g id="patch_26">
    <path clip-path="url(#pc9956f72e5)" d="M 538.06768 144.802902 
C 540.809907 144.802902 543.440189 143.713404 545.379237 141.774357 
C 547.318284 139.835309 548.407782 137.205027 548.407782 134.4628 
C 548.407782 131.720573 547.318284 129.090291 545.379237 127.151243 
C 543.440189 125.212196 540.809907 124.122697 538.06768 124.122697 
C 535.325453 124.122697 532.695171 125.212196 530.756123 127.151243 
C 528.817076 129.090291 527.727577 131.720573 527.727577 134.4628 
C 527.727577 137.205027 528.817076 139.835309 530.756123 141.774357 
C 532.695171 143.713404 535.325453 144.802902 538.06768 144.802902 
z
" style="fill:#bb8bff;stroke:#bb8bff;stroke-linejoin:miter;stroke-width:2;"/>
   </g>
   <g id="patch_27">
    <path clip-path="url(#pc9956f72e5)" d="M 568.747105 149.234375 
L 598.290255 149.234375 
L 598.290255 119.691225 
L 568.747105 119.691225 
z
" style="fill:#6fa4ff;"/>
   </g>
   <g id="patch_28">
    <path clip-path="url(#pc9956f72e5)" d="M 659.649105 58.332375 
L 689.192255 58.332375 
L 689.192255 28.789225 
L 659.649105 28.789225 
z
" style="fill:#05bab6;"/>
   </g>
   <g id="patch_29">
    <path clip-path="url(#pc9956f72e5)" d="M 659.649105 103.783375 
L 689.192255 103.783375 
L 689.192255 74.240225 
L 659.649105 74.240225 
z
" style="fill:#05bab6;"/>
   </g>
   <g id="patch_30">
    <path clip-path="url(#pc9956f72e5)" d="M 659.649105 149.234375 
L 689.192255 149.234375 
L 689.192255 119.691225 
L 659.649105 119.691225 
z
" style="fill:#05bab6;"/>
   </g>
   <g id="patch_31">
    <path clip-path="url(#pc9956f72e5)" d="M 705.100105 58.332375 
L 734.643255 58.332375 
L 734.643255 28.789225 
L 705.100105 28.789225 
z
" style="fill:#6fa4ff;"/>
   </g>
   <g id="patch_32">
    <path clip-path="url(#pc9956f72e5)" d="M 705.100105 103.783375 
L 734.643255 103.783375 
L 734.643255 74.240225 
L 705.100105 74.240225 
z
" style="fill:#6fa4ff;"/>
   </g>
   <g id="patch_33">
    <path clip-path="url(#pc9956f72e5)" d="M 705.100105 149.234375 
L 734.643255 149.234375 
L 734.643255 119.691225 
L 705.100105 119.691225 
z
" style="fill:#6fa4ff;"/>
   </g>
   <g id="patch_34">
    <path clip-path="url(#pc9956f72e5)" d="M 796.002105 58.332375 
L 825.545255 58.332375 
L 825.545255 28.789225 
L 796.002105 28.789225 
z
"/>
   </g>
   <g id="patch_35">
    <path clip-path="url(#pc9956f72e5)" d="M 821.113782 47.992272 
C 821.113782 45.250959 820.023638 42.619118 818.085237 40.680716 
C 816.146835 38.742314 813.514994 37.65217 810.77368 37.65217 
C 808.032366 37.65217 805.400525 38.742314 803.462123 40.680716 
C 801.523722 42.619118 800.433577 45.250959 800.433577 47.992272 
" style="fill:none;stroke:#ffffff;stroke-linejoin:miter;stroke-width:2;"/>
   </g>
   <g id="patch_36">
    <path clip-path="url(#pc9956f72e5)" d="M 841.453105 103.783375 
L 870.996255 103.783375 
L 870.996255 74.240225 
L 841.453105 74.240225 
z
"/>
   </g>
   <g id="patch_37">
    <path clip-path="url(#pc9956f72e5)" d="M 866.564782 93.443272 
C 866.564782 90.701959 865.474638 88.070118 863.536237 86.131716 
C 861.597835 84.193314 858.965994 83.10317 856.22468 83.10317 
C 853.483366 83.10317 850.851525 84.193314 848.913123 86.131716 
C 846.974722 88.070118 845.884577 90.701959 845.884577 93.443272 
" style="fill:none;stroke:#ffffff;stroke-linejoin:miter;stroke-width:2;"/>
   </g>
   <g id="patch_38">
    <path clip-path="url(#pc9956f72e5)" d="M 886.904105 149.234375 
L 916.447255 149.234375 
L 916.447255 119.691225 
L 886.904105 119.691225 
z
"/>
   </g>
   <g id="patch_39">
    <path clip-path="url(#pc9956f72e5)" d="M 912.015782 138.894272 
C 912.015782 136.152959 910.925638 133.521118 908.987237 131.582716 
C 907.048835 129.644314 904.416994 128.55417 901.67568 128.55417 
C 898.934366 128.55417 896.302525 129.644314 894.364123 131.582716 
C 892.425722 133.521118 891.335577 136.152959 891.335577 138.894272 
" style="fill:none;stroke:#ffffff;stroke-linejoin:miter;stroke-width:2;"/>
   </g>
   <g id="line2d_16">
    <path clip-path="url(#pc9956f72e5)" d="M 810.77368 47.992272 
L 821.113782 37.65217 
" style="fill:none;stroke:#ffffff;stroke-linecap:square;stroke-width:2;"/>
   </g>
   <g id="line2d_17">
    <path clip-path="url(#pc9956f72e5)" d="M 856.22468 93.443272 
L 866.564782 83.10317 
" style="fill:none;stroke:#ffffff;stroke-linecap:square;stroke-width:2;"/>
   </g>
   <g id="line2d_18">
    <path clip-path="url(#pc9956f72e5)" d="M 901.67568 138.894272 
L 912.015782 128.55417 
" style="fill:none;stroke:#ffffff;stroke-linecap:square;stroke-width:2;"/>
   </g>
   <g id="line2d_19">
    <path clip-path="url(#pc9956f72e5)" d="M 174.45968 20.8353 
L 174.45968 66.2863 
" style="fill:none;stroke:#000000;stroke-dasharray:3.7,1.6;stroke-dashoffset:0;"/>
   </g>
   <g id="line2d_20">
    <path clip-path="url(#pc9956f72e5)" d="M 174.45968 66.2863 
L 174.45968 111.7373 
" style="fill:none;stroke:#000000;stroke-dasharray:3.7,1.6;stroke-dashoffset:0;"/>
   </g>
   <g id="line2d_21">
    <path clip-path="url(#pc9956f72e5)" d="M 174.45968 111.7373 
L 174.45968 157.1883 
" style="fill:none;stroke:#000000;stroke-dasharray:3.7,1.6;stroke-dashoffset:0;"/>
   </g>
   <g id="line2d_22">
    <path clip-path="url(#pc9956f72e5)" d="M 310.81268 20.8353 
L 310.81268 66.2863 
" style="fill:none;stroke:#000000;stroke-dasharray:3.7,1.6;stroke-dashoffset:0;"/>
   </g>
   <g id="line2d_23">
    <path clip-path="url(#pc9956f72e5)" d="M 310.81268 66.2863 
L 310.81268 111.7373 
" style="fill:none;stroke:#000000;stroke-dasharray:3.7,1.6;stroke-dashoffset:0;"/>
   </g>
   <g id="line2d_24">
    <path clip-path="url(#pc9956f72e5)" d="M 310.81268 111.7373 
L 310.81268 157.1883 
" style="fill:none;stroke:#000000;stroke-dasharray:3.7,1.6;stroke-dashoffset:0;"/>
   </g>
   <g id="line2d_25">
    <path clip-path="url(#pc9956f72e5)" d="M 447.16568 20.8353 
L 447.16568 66.2863 
" style="fill:none;stroke:#000000;stroke-dasharray:3.7,1.6;stroke-dashoffset:0;"/>
   </g>
   <g id="line2d_26">
    <path clip-path="url(#pc9956f72e5)" d="M 447.16568 66.2863 
L 447.16568 111.7373 
" style="fill:none;stroke:#000000;stroke-dasharray:3.7,1.6;stroke-dashoffset:0;"/>
   </g>
   <g id="line2d_27">
    <path clip-path="url(#pc9956f72e5)" d="M 447.16568 111.7373 
L 447.16568 157.1883 
" style="fill:none;stroke:#000000;stroke-dasharray:3.7,1.6;stroke-dashoffset:0;"/>
   </g>
   <g id="line2d_28">
    <path clip-path="url(#pc9956f72e5)" d="M 538.06768 140.37143 
L 538.06768 128.55417 
" style="fill:none;stroke:#ffffff;stroke-linecap:square;stroke-width:2;"/>
   </g>
   <g id="line2d_29">
    <path clip-path="url(#pc9956f72e5)" d="M 532.15905 134.4628 
L 543.97631 134.4628 
" style="fill:none;stroke:#ffffff;stroke-linecap:square;stroke-width:2;"/>
   </g>
   <g id="line2d_30">
    <path clip-path="url(#pc9956f72e5)" d="M 628.96968 20.8353 
L 628.96968 66.2863 
" style="fill:none;stroke:#000000;stroke-dasharray:3.7,1.6;stroke-dashoffset:0;"/>
   </g>
   <g id="line2d_31">
    <path clip-path="url(#pc9956f72e5)" d="M 628.96968 66.2863 
L 628.96968 111.7373 
" style="fill:none;stroke:#000000;stroke-dasharray:3.7,1.6;stroke-dashoffset:0;"/>
   </g>
   <g id="line2d_32">
    <path clip-path="url(#pc9956f72e5)" d="M 628.96968 111.7373 
L 628.96968 157.1883 
" style="fill:none;stroke:#000000;stroke-dasharray:3.7,1.6;stroke-dashoffset:0;"/>
   </g>
   <g id="line2d_33">
    <path clip-path="url(#pc9956f72e5)" d="M 765.32268 20.8353 
L 765.32268 66.2863 
" style="fill:none;stroke:#000000;stroke-dasharray:3.7,1.6;stroke-dashoffset:0;"/>
   </g>
   <g id="line2d_34">
    <path clip-path="url(#pc9956f72e5)" d="M 765.32268 66.2863 
L 765.32268 111.7373 
" style="fill:none;stroke:#000000;stroke-dasharray:3.7,1.6;stroke-dashoffset:0;"/>
   </g>
   <g id="line2d_35">
    <path clip-path="url(#pc9956f72e5)" d="M 765.32268 111.7373 
L 765.32268 157.1883 
" style="fill:none;stroke:#000000;stroke-dasharray:3.7,1.6;stroke-dashoffset:0;"/>
   </g>
   <g id="text_1">
    <g clip-path="url(#pc9956f72e5)">
     <!-- $H$ -->
     <defs>
      <path d="M 16.890625 72.90625 
L 26.8125 72.90625 
L 21 43.015625 
L 56.78125 43.015625 
L 62.59375 72.90625 
L 72.515625 72.90625 
L 58.296875 0 
L 48.390625 0 
L 55.171875 34.71875 
L 19.390625 34.71875 
L 12.59375 0 
L 2.6875 0 
z
" id="DejaVuSans-Oblique-72"/>
     </defs>
     <g transform="translate(124.06868 47.147987)scale(0.13 -0.13)">
      <use transform="translate(0 0.09375)" xlink:href="#DejaVuSans-Oblique-72"/>
     </g>
    </g>
   </g>
   <g id="text_2">
    <g clip-path="url(#pc9956f72e5)">
     <!-- $H$ -->
     <g transform="translate(124.06868 92.598987)scale(0.13 -0.13)">
      <use transform="translate(0 0.09375)" xlink:href="#DejaVuSans-Oblique-72"/>
     </g>
    </g>
   </g>
   <g id="text_3">
    <g clip-path="url(#pc9956f72e5)">
     <!-- $H$ -->
     <g transform="translate(124.06868 138.049987)scale(0.13 -0.13)">
      <use transform="translate(0 0.09375)" xlink:href="#DejaVuSans-Oblique-72"/>
     </g>
    </g>
   </g>
   <g id="text_4">
    <g clip-path="url(#pc9956f72e5)">
     <!-- $Z$ -->
     <defs>
      <path d="M 13.09375 72.90625 
L 70.3125 72.90625 
L 68.890625 65.375 
L 12.40625 8.296875 
L 58.890625 8.296875 
L 57.328125 0 
L -2.203125 0 
L -0.78125 7.515625 
L 55.71875 64.59375 
L 11.53125 64.59375 
z
" id="DejaVuSans-Oblique-90"/>
     </defs>
     <g transform="translate(215.42568 47.147987)scale(0.13 -0.13)">
      <use transform="translate(0 0.09375)" xlink:href="#DejaVuSans-Oblique-90"/>
     </g>
    </g>
   </g>
   <g id="text_5">
    <g clip-path="url(#pc9956f72e5)">
     <!-- $Z$ -->
     <g transform="translate(260.87668 92.598987)scale(0.13 -0.13)">
      <use transform="translate(0 0.09375)" xlink:href="#DejaVuSans-Oblique-90"/>
     </g>
    </g>
   </g>
   <g id="text_6">
    <g clip-path="url(#pc9956f72e5)">
     <!-- $H$ -->
     <g transform="translate(351.32368 47.147987)scale(0.13 -0.13)">
      <use transform="translate(0 0.09375)" xlink:href="#DejaVuSans-Oblique-72"/>
     </g>
    </g>
   </g>
   <g id="text_7">
    <g clip-path="url(#pc9956f72e5)">
     <!-- $H$ -->
     <g transform="translate(351.32368 92.598987)scale(0.13 -0.13)">
      <use transform="translate(0 0.09375)" xlink:href="#DejaVuSans-Oblique-72"/>
     </g>
    </g>
   </g>
   <g id="text_8">
    <g clip-path="url(#pc9956f72e5)">
     <!-- $H$ -->
     <g transform="translate(351.32368 138.049987)scale(0.13 -0.13)">
      <use transform="translate(0 0.09375)" xlink:href="#DejaVuSans-Oblique-72"/>
     </g>
    </g>
   </g>
   <g id="text_9">
    <g clip-path="url(#pc9956f72e5)">
     <!-- $X$ -->
     <defs>
      <path d="M 13.71875 72.90625 
L 23.6875 72.90625 
L 36.1875 46.578125 
L 58.796875 72.90625 
L 70.3125 72.90625 
L 40.28125 38.09375 
L 58.40625 0 
L 48.484375 0 
L 33.796875 30.71875 
L 7.171875 0 
L -4.296875 0 
L 29.78125 39.203125 
z
" id="DejaVuSans-Oblique-88"/>
     </defs>
     <g transform="translate(397.22968 47.147987)scale(0.13 -0.13)">
      <use transform="translate(0 0.09375)" xlink:href="#DejaVuSans-Oblique-88"/>
     </g>
    </g>
   </g>
   <g id="text_10">
    <g clip-path="url(#pc9956f72e5)">
     <!-- $X$ -->
     <g transform="translate(397.22968 92.598987)scale(0.13 -0.13)">
      <use transform="translate(0 0.09375)" xlink:href="#DejaVuSans-Oblique-88"/>
     </g>
    </g>
   </g>
   <g id="text_11">
    <g clip-path="url(#pc9956f72e5)">
     <!-- $X$ -->
     <g transform="translate(397.22968 138.049987)scale(0.13 -0.13)">
      <use transform="translate(0 0.09375)" xlink:href="#DejaVuSans-Oblique-88"/>
     </g>
    </g>
   </g>
   <g id="text_12">
    <g clip-path="url(#pc9956f72e5)">
     <!-- $H$ -->
     <g transform="translate(487.67668 138.049987)scale(0.13 -0.13)">
      <use transform="translate(0 0.09375)" xlink:href="#DejaVuSans-Oblique-72"/>
     </g>
    </g>
   </g>
   <g id="text_13">
    <g clip-path="url(#pc9956f72e5)">
     <!-- $H$ -->
     <g transform="translate(578.57868 138.049987)scale(0.13 -0.13)">
      <use transform="translate(0 0.09375)" xlink:href="#DejaVuSans-Oblique-72"/>
     </g>
    </g>
   </g>
   <g id="text_14">
    <g clip-path="url(#pc9956f72e5)">
     <!-- $X$ -->
     <g transform="translate(669.93568 47.147987)scale(0.13 -0.13)">
      <use transform="translate(0 0.09375)" xlink:href="#DejaVuSans-Oblique-88"/>
     </g>
    </g>
   </g>
   <g id="text_15">
    <g clip-path="url(#pc9956f72e5)">
     <!-- $X$ -->
     <g transform="translate(669.93568 92.598987)scale(0.13 -0.13)">
      <use transform="translate(0 0.09375)" xlink:href="#DejaVuSans-Oblique-88"/>
     </g>
    </g>
   </g>
   <g id="text_16">
    <g clip-path="url(#pc9956f72e5)">
     <!-- $X$ -->
     <g transform="translate(669.93568 138.049987)scale(0.13 -0.13)">
      <use transform="translate(0 0.09375)" xlink:href="#DejaVuSans-Oblique-88"/>
     </g>
    </g>
   </g>
   <g id="text_17">
    <g clip-path="url(#pc9956f72e5)">
     <!-- $H$ -->
     <g transform="translate(714.93168 47.147987)scale(0.13 -0.13)">
      <use transform="translate(0 0.09375)" xlink:href="#DejaVuSans-Oblique-72"/>
     </g>
    </g>
   </g>
   <g id="text_18">
    <g clip-path="url(#pc9956f72e5)">
     <!-- $H$ -->
     <g transform="translate(714.93168 92.598987)scale(0.13 -0.13)">
      <use transform="translate(0 0.09375)" xlink:href="#DejaVuSans-Oblique-72"/>
     </g>
    </g>
   </g>
   <g id="text_19">
    <g clip-path="url(#pc9956f72e5)">
     <!-- $H$ -->
     <g transform="translate(714.93168 138.049987)scale(0.13 -0.13)">
      <use transform="translate(0 0.09375)" xlink:href="#DejaVuSans-Oblique-72"/>
     </g>
    </g>
   </g>
   <g id="text_20">
    <g clip-path="url(#pc9956f72e5)">
     <!-- 0 -->
     <defs>
      <path d="M 31.78125 66.40625 
Q 24.171875 66.40625 20.328125 58.90625 
Q 16.5 51.421875 16.5 36.375 
Q 16.5 21.390625 20.328125 13.890625 
Q 24.171875 6.390625 31.78125 6.390625 
Q 39.453125 6.390625 43.28125 13.890625 
Q 47.125 21.390625 47.125 36.375 
Q 47.125 51.421875 43.28125 58.90625 
Q 39.453125 66.40625 31.78125 66.40625 
z
M 31.78125 74.21875 
Q 44.046875 74.21875 50.515625 64.515625 
Q 56.984375 54.828125 56.984375 36.375 
Q 56.984375 17.96875 50.515625 8.265625 
Q 44.046875 -1.421875 31.78125 -1.421875 
Q 19.53125 -1.421875 13.0625 8.265625 
Q 6.59375 17.96875 6.59375 36.375 
Q 6.59375 54.828125 13.0625 64.515625 
Q 19.53125 74.21875 31.78125 74.21875 
z
" id="DejaVuSans-48"/>
     </defs>
     <g transform="translate(822.13643 173.205825)scale(0.104 -0.104)">
      <use xlink:href="#DejaVuSans-48"/>
     </g>
    </g>
   </g>
   <g id="text_21">
    <g clip-path="url(#pc9956f72e5)">
     <!-- 1 -->
     <defs>
      <path d="M 12.40625 8.296875 
L 28.515625 8.296875 
L 28.515625 63.921875 
L 10.984375 60.40625 
L 10.984375 69.390625 
L 28.421875 72.90625 
L 38.28125 72.90625 
L 38.28125 8.296875 
L 54.390625 8.296875 
L 54.390625 0 
L 12.40625 0 
z
" id="DejaVuSans-49"/>
     </defs>
     <g transform="translate(867.58743 173.205825)scale(0.104 -0.104)">
      <use xlink:href="#DejaVuSans-49"/>
     </g>
    </g>
   </g>
   <g id="text_22">
    <g clip-path="url(#pc9956f72e5)">
     <!-- 2 -->
     <defs>
      <path d="M 19.1875 8.296875 
L 53.609375 8.296875 
L 53.609375 0 
L 7.328125 0 
L 7.328125 8.296875 
Q 12.9375 14.109375 22.625 23.890625 
Q 32.328125 33.6875 34.8125 36.53125 
Q 39.546875 41.84375 41.421875 45.53125 
Q 43.3125 49.21875 43.3125 52.78125 
Q 43.3125 58.59375 39.234375 62.25 
Q 35.15625 65.921875 28.609375 65.921875 
Q 23.96875 65.921875 18.8125 64.3125 
Q 13.671875 62.703125 7.8125 59.421875 
L 7.8125 69.390625 
Q 13.765625 71.78125 18.9375 73 
Q 24.125 74.21875 28.421875 74.21875 
Q 39.75 74.21875 46.484375 68.546875 
Q 53.21875 62.890625 53.21875 53.421875 
Q 53.21875 48.921875 51.53125 44.890625 
Q 49.859375 40.875 45.40625 35.40625 
Q 44.1875 33.984375 37.640625 27.21875 
Q 31.109375 20.453125 19.1875 8.296875 
z
" id="DejaVuSans-50"/>
     </defs>
     <g transform="translate(913.03843 173.205825)scale(0.104 -0.104)">
      <use xlink:href="#DejaVuSans-50"/>
     </g>
    </g>
   </g>
   <g id="text_23">
    <g clip-path="url(#pc9956f72e5)">
     <!-- $q1_{0}$ -->
     <defs>
      <path d="M 41.703125 8.203125 
Q 38.09375 3.46875 33.171875 1.015625 
Q 28.265625 -1.421875 22.3125 -1.421875 
Q 14.015625 -1.421875 9.296875 4.171875 
Q 4.59375 9.765625 4.59375 19.578125 
Q 4.59375 27.484375 7.5 34.859375 
Q 10.40625 42.234375 15.828125 48.09375 
Q 19.34375 51.90625 23.90625 53.953125 
Q 28.46875 56 33.5 56 
Q 39.546875 56 43.453125 53.609375 
Q 47.359375 51.21875 49.125 46.390625 
L 50.6875 54.59375 
L 59.71875 54.59375 
L 45.125 -20.609375 
L 36.078125 -20.609375 
z
M 13.921875 20.90625 
Q 13.921875 13.671875 16.9375 9.890625 
Q 19.96875 6.109375 25.6875 6.109375 
Q 34.1875 6.109375 40.1875 14.234375 
Q 46.1875 22.359375 46.1875 33.984375 
Q 46.1875 41.015625 43.078125 44.75 
Q 39.984375 48.484375 34.1875 48.484375 
Q 29.9375 48.484375 26.3125 46.5 
Q 22.703125 44.53125 20.015625 40.71875 
Q 17.1875 36.71875 15.546875 31.34375 
Q 13.921875 25.984375 13.921875 20.90625 
z
" id="DejaVuSans-Oblique-113"/>
     </defs>
     <g transform="translate(54.95768 48.011777)scale(0.1625 -0.1625)">
      <use transform="translate(0 0.09375)" xlink:href="#DejaVuSans-Oblique-113"/>
      <use transform="translate(63.476562 0.09375)" xlink:href="#DejaVuSans-49"/>
      <use transform="translate(128.056641 -16.3125)scale(0.7)" xlink:href="#DejaVuSans-48"/>
     </g>
    </g>
   </g>
   <g id="text_24">
    <g clip-path="url(#pc9956f72e5)">
     <!-- $q1_{1}$ -->
     <g transform="translate(54.95768 93.462777)scale(0.1625 -0.1625)">
      <use transform="translate(0 0.09375)" xlink:href="#DejaVuSans-Oblique-113"/>
      <use transform="translate(63.476562 0.09375)" xlink:href="#DejaVuSans-49"/>
      <use transform="translate(128.056641 -16.3125)scale(0.7)" xlink:href="#DejaVuSans-49"/>
     </g>
    </g>
   </g>
   <g id="text_25">
    <g clip-path="url(#pc9956f72e5)">
     <!-- $q1_{2}$ -->
     <g transform="translate(54.95768 138.913777)scale(0.1625 -0.1625)">
      <use transform="translate(0 0.09375)" xlink:href="#DejaVuSans-Oblique-113"/>
      <use transform="translate(63.476562 0.09375)" xlink:href="#DejaVuSans-49"/>
      <use transform="translate(128.056641 -16.3125)scale(0.7)" xlink:href="#DejaVuSans-50"/>
     </g>
    </g>
   </g>
   <g id="text_26">
    <g clip-path="url(#pc9956f72e5)">
     <!-- 3 -->
     <defs>
      <path d="M 40.578125 39.3125 
Q 47.65625 37.796875 51.625 33 
Q 55.609375 28.21875 55.609375 21.1875 
Q 55.609375 10.40625 48.1875 4.484375 
Q 40.765625 -1.421875 27.09375 -1.421875 
Q 22.515625 -1.421875 17.65625 -0.515625 
Q 12.796875 0.390625 7.625 2.203125 
L 7.625 11.71875 
Q 11.71875 9.328125 16.59375 8.109375 
Q 21.484375 6.890625 26.8125 6.890625 
Q 36.078125 6.890625 40.9375 10.546875 
Q 45.796875 14.203125 45.796875 21.1875 
Q 45.796875 27.640625 41.28125 31.265625 
Q 36.765625 34.90625 28.71875 34.90625 
L 20.21875 34.90625 
L 20.21875 43.015625 
L 29.109375 43.015625 
Q 36.375 43.015625 40.234375 45.921875 
Q 44.09375 48.828125 44.09375 54.296875 
Q 44.09375 59.90625 40.109375 62.90625 
Q 36.140625 65.921875 28.71875 65.921875 
Q 24.65625 65.921875 20.015625 65.03125 
Q 15.375 64.15625 9.8125 62.3125 
L 9.8125 71.09375 
Q 15.4375 72.65625 20.34375 73.4375 
Q 25.25 74.21875 29.59375 74.21875 
Q 40.828125 74.21875 47.359375 69.109375 
Q 53.90625 64.015625 53.90625 55.328125 
Q 53.90625 49.265625 50.4375 45.09375 
Q 46.96875 40.921875 40.578125 39.3125 
z
" id="DejaVuSans-51"/>
     </defs>
     <g transform="translate(129.00868 173.205825)scale(0.104 -0.104)">
      <use xlink:href="#DejaVuSans-51"/>
     </g>
    </g>
   </g>
   <g id="text_27">
    <g clip-path="url(#pc9956f72e5)">
     <!-- $c1$ -->
     <defs>
      <path d="M 53.609375 52.59375 
L 51.8125 43.703125 
Q 48.578125 46.046875 44.9375 47.21875 
Q 41.3125 48.390625 37.40625 48.390625 
Q 33.109375 48.390625 29.21875 46.875 
Q 25.34375 45.359375 22.703125 42.578125 
Q 18.5 38.328125 16.203125 32.609375 
Q 13.921875 26.90625 13.921875 20.796875 
Q 13.921875 13.421875 17.609375 9.8125 
Q 21.296875 6.203125 28.8125 6.203125 
Q 32.515625 6.203125 36.6875 7.328125 
Q 40.875 8.453125 45.40625 10.6875 
L 43.703125 1.8125 
Q 39.796875 0.203125 35.671875 -0.609375 
Q 31.546875 -1.421875 27.203125 -1.421875 
Q 16.3125 -1.421875 10.453125 4.015625 
Q 4.59375 9.46875 4.59375 19.578125 
Q 4.59375 28.078125 7.640625 35.234375 
Q 10.6875 42.390625 16.703125 48.09375 
Q 20.796875 52 26.3125 54 
Q 31.84375 56 38.375 56 
Q 42.1875 56 45.9375 55.140625 
Q 49.703125 54.296875 53.609375 52.59375 
z
" id="DejaVuSans-Oblique-99"/>
     </defs>
     <g transform="translate(60.35268 185.294581)scale(0.195 -0.195)">
      <use transform="translate(0 0.09375)" xlink:href="#DejaVuSans-Oblique-99"/>
      <use transform="translate(54.980469 0.09375)" xlink:href="#DejaVuSans-49"/>
     </g>
    </g>
   </g>
  </g>
 </g>
 <defs>
  <clipPath id="pc9956f72e5">
   <rect height="199.9844" width="944.47178" x="7.2" y="7.2"/>
  </clipPath>
 </defs>
</svg>
