<?xml version="1.0" encoding="utf-8" standalone="no"?>
<!DOCTYPE svg PUBLIC "-//W3C//DTD SVG 1.1//EN"
  "http://www.w3.org/Graphics/SVG/1.1/DTD/svg11.dtd">
<!-- Created with matplotlib (https://matplotlib.org/) -->
<svg height="350.7374pt" version="1.1" viewBox="0 0 945.23648 350.7374" width="945.23648pt" xmlns="http://www.w3.org/2000/svg" xmlns:xlink="http://www.w3.org/1999/xlink">
 <defs>
  <style type="text/css">
*{stroke-linecap:butt;stroke-linejoin:round;}
  </style>
 </defs>
 <g id="figure_1">
  <g id="patch_1">
   <path d="M 0 350.7374 
L 945.23648 350.7374 
L 945.23648 0 
L 0 0 
z
" style="fill:#ffffff;"/>
  </g>
  <g id="axes_1">
   <g id="patch_2">
    <path clip-path="url(#p6ddff107f8)" d="M 518.52375 260.475697 
L 530.34101 260.475697 
L 524.43238 270.8158 
z
" style="fill:#778899;"/>
   </g>
   <g id="patch_3">
    <path clip-path="url(#p6ddff107f8)" d="M 586.70025 260.475697 
L 598.51751 260.475697 
L 592.60888 270.8158 
z
" style="fill:#778899;"/>
   </g>
   <g id="patch_4">
    <path clip-path="url(#p6ddff107f8)" d="M 791.22975 305.926697 
L 803.04701 305.926697 
L 797.13838 316.2668 
z
" style="fill:#778899;"/>
   </g>
   <g id="patch_5">
    <path clip-path="url(#p6ddff107f8)" d="M 836.68075 305.926697 
L 848.49801 305.926697 
L 842.58938 316.2668 
z
" style="fill:#778899;"/>
   </g>
   <g id="patch_6">
    <path clip-path="url(#p6ddff107f8)" d="M 882.13175 305.926697 
L 893.94901 305.926697 
L 888.04038 316.2668 
z
" style="fill:#778899;"/>
   </g>
   <g id="line2d_1">
    <path clip-path="url(#p6ddff107f8)" d="M 229.00088 43.5608 
L 933.49138 43.5608 
" style="fill:none;stroke:#000000;stroke-linecap:square;stroke-width:2;"/>
   </g>
   <g id="line2d_2">
    <path clip-path="url(#p6ddff107f8)" d="M 229.00088 89.0118 
L 933.49138 89.0118 
" style="fill:none;stroke:#000000;stroke-linecap:square;stroke-width:2;"/>
   </g>
   <g id="line2d_3">
    <path clip-path="url(#p6ddff107f8)" d="M 229.00088 134.4628 
L 933.49138 134.4628 
" style="fill:none;stroke:#000000;stroke-linecap:square;stroke-width:2;"/>
   </g>
   <g id="line2d_4">
    <path clip-path="url(#p6ddff107f8)" d="M 229.00088 179.9138 
L 933.49138 179.9138 
" style="fill:none;stroke:#000000;stroke-linecap:square;stroke-width:2;"/>
   </g>
   <g id="line2d_5">
    <path clip-path="url(#p6ddff107f8)" d="M 229.00088 225.3648 
L 933.49138 225.3648 
" style="fill:none;stroke:#000000;stroke-linecap:square;stroke-width:2;"/>
   </g>
   <g id="line2d_6">
    <path clip-path="url(#p6ddff107f8)" d="M 229.00088 269.338642 
L 933.49138 269.338642 
" style="fill:none;stroke:#778899;stroke-linecap:square;stroke-width:2;"/>
   </g>
   <g id="line2d_7">
    <path clip-path="url(#p6ddff107f8)" d="M 229.00088 272.292957 
L 933.49138 272.292957 
" style="fill:none;stroke:#778899;stroke-linecap:square;stroke-width:2;"/>
   </g>
   <g id="line2d_8">
    <path clip-path="url(#p6ddff107f8)" d="M 229.00088 314.789642 
L 933.49138 314.789642 
" style="fill:none;stroke:#778899;stroke-linecap:square;stroke-width:2;"/>
   </g>
   <g id="line2d_9">
    <path clip-path="url(#p6ddff107f8)" d="M 229.00088 317.743957 
L 933.49138 317.743957 
" style="fill:none;stroke:#778899;stroke-linecap:square;stroke-width:2;"/>
   </g>
   <g id="patch_7">
    <path clip-path="url(#p6ddff107f8)" d="M 288.314435 248.0903 
L 306.040325 248.0903 
L 306.040325 20.8353 
L 288.314435 20.8353 
z
" style="fill:#bdbdbd;opacity:0.6;"/>
   </g>
   <g id="patch_8">
    <path clip-path="url(#p6ddff107f8)" d="M 742.824435 248.0903 
L 760.550325 248.0903 
L 760.550325 20.8353 
L 742.824435 20.8353 
z
" style="fill:#bdbdbd;opacity:0.6;"/>
   </g>
   <g id="line2d_10">
    <path clip-path="url(#p6ddff107f8)" d="M 342.62838 134.4628 
L 342.62838 43.5608 
" style="fill:none;stroke:#6fa4ff;stroke-linecap:square;stroke-width:2;"/>
   </g>
   <g id="line2d_11">
    <path clip-path="url(#p6ddff107f8)" d="M 388.07938 179.9138 
L 388.07938 89.0118 
" style="fill:none;stroke:#6fa4ff;stroke-linecap:square;stroke-width:2;"/>
   </g>
   <g id="line2d_12">
    <path clip-path="url(#p6ddff107f8)" d="M 433.53038 179.9138 
L 433.53038 43.5608 
" style="fill:none;stroke:#6fa4ff;stroke-linecap:square;stroke-width:2;"/>
   </g>
   <g id="line2d_13">
    <path clip-path="url(#p6ddff107f8)" d="M 478.98138 225.3648 
L 478.98138 89.0118 
" style="fill:none;stroke:#6fa4ff;stroke-linecap:square;stroke-width:2;"/>
   </g>
   <g id="line2d_14">
    <path clip-path="url(#p6ddff107f8)" d="M 525.909537 43.5608 
L 525.909537 260.475697 
" style="fill:none;stroke:#778899;stroke-linecap:square;stroke-width:2;"/>
   </g>
   <g id="line2d_15">
    <path clip-path="url(#p6ddff107f8)" d="M 522.955222 43.5608 
L 522.955222 260.475697 
" style="fill:none;stroke:#778899;stroke-linecap:square;stroke-width:2;"/>
   </g>
   <g id="line2d_16">
    <path clip-path="url(#p6ddff107f8)" d="M 594.086037 89.0118 
L 594.086037 260.475697 
" style="fill:none;stroke:#778899;stroke-linecap:square;stroke-width:2;"/>
   </g>
   <g id="line2d_17">
    <path clip-path="url(#p6ddff107f8)" d="M 591.131722 89.0118 
L 591.131722 260.475697 
" style="fill:none;stroke:#778899;stroke-linecap:square;stroke-width:2;"/>
   </g>
   <g id="line2d_18">
    <path clip-path="url(#p6ddff107f8)" d="M 798.615537 134.4628 
L 798.615537 305.926697 
" style="fill:none;stroke:#778899;stroke-linecap:square;stroke-width:2;"/>
   </g>
   <g id="line2d_19">
    <path clip-path="url(#p6ddff107f8)" d="M 795.661222 134.4628 
L 795.661222 305.926697 
" style="fill:none;stroke:#778899;stroke-linecap:square;stroke-width:2;"/>
   </g>
   <g id="line2d_20">
    <path clip-path="url(#p6ddff107f8)" d="M 844.066537 179.9138 
L 844.066537 305.926697 
" style="fill:none;stroke:#778899;stroke-linecap:square;stroke-width:2;"/>
   </g>
   <g id="line2d_21">
    <path clip-path="url(#p6ddff107f8)" d="M 841.112223 179.9138 
L 841.112223 305.926697 
" style="fill:none;stroke:#778899;stroke-linecap:square;stroke-width:2;"/>
   </g>
   <g id="line2d_22">
    <path clip-path="url(#p6ddff107f8)" d="M 889.517537 225.3648 
L 889.517537 305.926697 
" style="fill:none;stroke:#778899;stroke-linecap:square;stroke-width:2;"/>
   </g>
   <g id="line2d_23">
    <path clip-path="url(#p6ddff107f8)" d="M 886.563222 225.3648 
L 886.563222 305.926697 
" style="fill:none;stroke:#778899;stroke-linecap:square;stroke-width:2;"/>
   </g>
   <g id="line2d_24">
    <path clip-path="url(#p6ddff107f8)" d="M 256.27148 275.3609 
L 260.81658 266.2707 
" style="fill:none;stroke:#778899;stroke-linecap:square;stroke-width:1.5;"/>
   </g>
   <g id="line2d_25">
    <path clip-path="url(#p6ddff107f8)" d="M 256.27148 320.8119 
L 260.81658 311.7217 
" style="fill:none;stroke:#778899;stroke-linecap:square;stroke-width:1.5;"/>
   </g>
   <g id="patch_9">
    <path clip-path="url(#p6ddff107f8)" d="M 236.954805 149.234375 
L 266.497955 149.234375 
L 266.497955 119.691225 
L 236.954805 119.691225 
z
" style="fill:#05bab6;"/>
   </g>
   <g id="patch_10">
    <path clip-path="url(#p6ddff107f8)" d="M 236.954805 194.685375 
L 266.497955 194.685375 
L 266.497955 165.142225 
L 236.954805 165.142225 
z
" style="fill:#05bab6;"/>
   </g>
   <g id="patch_11">
    <path clip-path="url(#p6ddff107f8)" d="M 236.954805 240.136375 
L 266.497955 240.136375 
L 266.497955 210.593225 
L 236.954805 210.593225 
z
" style="fill:#05bab6;"/>
   </g>
   <g id="patch_12">
    <path clip-path="url(#p6ddff107f8)" d="M 342.62838 138.894272 
C 343.80362 138.894272 344.930884 138.427345 345.761904 137.596324 
C 346.592925 136.765304 347.059852 135.63804 347.059852 134.4628 
C 347.059852 133.28756 346.592925 132.160296 345.761904 131.329276 
C 344.930884 130.498255 343.80362 130.031327 342.62838 130.031327 
C 341.45314 130.031327 340.325876 130.498255 339.494856 131.329276 
C 338.663835 132.160296 338.196908 133.28756 338.196908 134.4628 
C 338.196908 135.63804 338.663835 136.765304 339.494856 137.596324 
C 340.325876 138.427345 341.45314 138.894272 342.62838 138.894272 
z
" style="fill:#6fa4ff;stroke:#6fa4ff;stroke-linejoin:miter;stroke-width:1.5;"/>
   </g>
   <g id="patch_13">
    <path clip-path="url(#p6ddff107f8)" d="M 342.62838 53.900902 
C 345.370607 53.900902 348.000889 52.811404 349.939937 50.872357 
C 351.878984 48.933309 352.968482 46.303027 352.968482 43.5608 
C 352.968482 40.818573 351.878984 38.188291 349.939937 36.249243 
C 348.000889 34.310196 345.370607 33.220697 342.62838 33.220697 
C 339.886153 33.220697 337.255871 34.310196 335.316823 36.249243 
C 333.377776 38.188291 332.288277 40.818573 332.288277 43.5608 
C 332.288277 46.303027 333.377776 48.933309 335.316823 50.872357 
C 337.255871 52.811404 339.886153 53.900902 342.62838 53.900902 
z
" style="fill:#6fa4ff;stroke:#6fa4ff;stroke-linejoin:miter;stroke-width:2;"/>
   </g>
   <g id="patch_14">
    <path clip-path="url(#p6ddff107f8)" d="M 388.07938 184.345272 
C 389.25462 184.345272 390.381884 183.878345 391.212904 183.047324 
C 392.043925 182.216304 392.510852 181.08904 392.510852 179.9138 
C 392.510852 178.73856 392.043925 177.611296 391.212904 176.780276 
C 390.381884 175.949255 389.25462 175.482327 388.07938 175.482327 
C 386.90414 175.482327 385.776876 175.949255 384.945856 176.780276 
C 384.114835 177.611296 383.647908 178.73856 383.647908 179.9138 
C 383.647908 181.08904 384.114835 182.216304 384.945856 183.047324 
C 385.776876 183.878345 386.90414 184.345272 388.07938 184.345272 
z
" style="fill:#6fa4ff;stroke:#6fa4ff;stroke-linejoin:miter;stroke-width:1.5;"/>
   </g>
   <g id="patch_15">
    <path clip-path="url(#p6ddff107f8)" d="M 388.07938 99.351902 
C 390.821607 99.351902 393.451889 98.262404 395.390937 96.323357 
C 397.329984 94.384309 398.419483 91.754027 398.419483 89.0118 
C 398.419483 86.269573 397.329984 83.639291 395.390937 81.700243 
C 393.451889 79.761196 390.821607 78.671697 388.07938 78.671697 
C 385.337153 78.671697 382.706871 79.761196 380.767823 81.700243 
C 378.828776 83.639291 377.739278 86.269573 377.739278 89.0118 
C 377.739278 91.754027 378.828776 94.384309 380.767823 96.323357 
C 382.706871 98.262404 385.337153 99.351902 388.07938 99.351902 
z
" style="fill:#6fa4ff;stroke:#6fa4ff;stroke-linejoin:miter;stroke-width:2;"/>
   </g>
   <g id="patch_16">
    <path clip-path="url(#p6ddff107f8)" d="M 433.53038 184.345272 
C 434.70562 184.345272 435.832884 183.878345 436.663904 183.047324 
C 437.494925 182.216304 437.961853 181.08904 437.961853 179.9138 
C 437.961853 178.73856 437.494925 177.611296 436.663904 176.780276 
C 435.832884 175.949255 434.70562 175.482327 433.53038 175.482327 
C 432.35514 175.482327 431.227876 175.949255 430.396856 176.780276 
C 429.565835 177.611296 429.098908 178.73856 429.098908 179.9138 
C 429.098908 181.08904 429.565835 182.216304 430.396856 183.047324 
C 431.227876 183.878345 432.35514 184.345272 433.53038 184.345272 
z
" style="fill:#6fa4ff;stroke:#6fa4ff;stroke-linejoin:miter;stroke-width:1.5;"/>
   </g>
   <g id="patch_17">
    <path clip-path="url(#p6ddff107f8)" d="M 433.53038 53.900902 
C 436.272607 53.900902 438.902889 52.811404 440.841937 50.872357 
C 442.780984 48.933309 443.870483 46.303027 443.870483 43.5608 
C 443.870483 40.818573 442.780984 38.188291 440.841937 36.249243 
C 438.902889 34.310196 436.272607 33.220697 433.53038 33.220697 
C 430.788153 33.220697 428.157871 34.310196 426.218823 36.249243 
C 424.279776 38.188291 423.190278 40.818573 423.190278 43.5608 
C 423.190278 46.303027 424.279776 48.933309 426.218823 50.872357 
C 428.157871 52.811404 430.788153 53.900902 433.53038 53.900902 
z
" style="fill:#6fa4ff;stroke:#6fa4ff;stroke-linejoin:miter;stroke-width:2;"/>
   </g>
   <g id="patch_18">
    <path clip-path="url(#p6ddff107f8)" d="M 478.98138 229.796272 
C 480.15662 229.796272 481.283884 229.329345 482.114904 228.498324 
C 482.945925 227.667304 483.412852 226.54004 483.412852 225.3648 
C 483.412852 224.18956 482.945925 223.062296 482.114904 222.231276 
C 481.283884 221.400255 480.15662 220.933327 478.98138 220.933327 
C 477.80614 220.933327 476.678876 221.400255 475.847856 222.231276 
C 475.016835 223.062296 474.549908 224.18956 474.549908 225.3648 
C 474.549908 226.54004 475.016835 227.667304 475.847856 228.498324 
C 476.678876 229.329345 477.80614 229.796272 478.98138 229.796272 
z
" style="fill:#6fa4ff;stroke:#6fa4ff;stroke-linejoin:miter;stroke-width:1.5;"/>
   </g>
   <g id="patch_19">
    <path clip-path="url(#p6ddff107f8)" d="M 478.98138 99.351902 
C 481.723607 99.351902 484.353889 98.262404 486.292937 96.323357 
C 488.231984 94.384309 489.321483 91.754027 489.321483 89.0118 
C 489.321483 86.269573 488.231984 83.639291 486.292937 81.700243 
C 484.353889 79.761196 481.723607 78.671697 478.98138 78.671697 
C 476.239153 78.671697 473.608871 79.761196 471.669823 81.700243 
C 469.730776 83.639291 468.641278 86.269573 468.641278 89.0118 
C 468.641278 91.754027 469.730776 94.384309 471.669823 96.323357 
C 473.608871 98.262404 476.239153 99.351902 478.98138 99.351902 
z
" style="fill:#6fa4ff;stroke:#6fa4ff;stroke-linejoin:miter;stroke-width:2;"/>
   </g>
   <g id="patch_20">
    <path clip-path="url(#p6ddff107f8)" d="M 509.660805 58.332375 
L 539.203955 58.332375 
L 539.203955 28.789225 
L 509.660805 28.789225 
z
"/>
   </g>
   <g id="patch_21">
    <path clip-path="url(#p6ddff107f8)" d="M 534.772482 47.992272 
C 534.772482 45.250959 533.682338 42.619118 531.743937 40.680716 
C 529.805535 38.742314 527.173694 37.65217 524.43238 37.65217 
C 521.691066 37.65217 519.059225 38.742314 517.120823 40.680716 
C 515.182422 42.619118 514.092278 45.250959 514.092278 47.992272 
" style="fill:none;stroke:#ffffff;stroke-linejoin:miter;stroke-width:2;"/>
   </g>
   <g id="patch_22">
    <path clip-path="url(#p6ddff107f8)" d="M 577.837305 103.783375 
L 607.380455 103.783375 
L 607.380455 74.240225 
L 577.837305 74.240225 
z
"/>
   </g>
   <g id="patch_23">
    <path clip-path="url(#p6ddff107f8)" d="M 602.948982 93.443272 
C 602.948982 90.701959 601.858838 88.070118 599.920437 86.131716 
C 597.982035 84.193314 595.350194 83.10317 592.60888 83.10317 
C 589.867566 83.10317 587.235725 84.193314 585.297323 86.131716 
C 583.358922 88.070118 582.268778 90.701959 582.268778 93.443272 
" style="fill:none;stroke:#ffffff;stroke-linejoin:miter;stroke-width:2;"/>
   </g>
   <g id="patch_24">
    <path clip-path="url(#p6ddff107f8)" d="M 577.837305 58.332375 
L 607.380455 58.332375 
L 607.380455 28.789225 
L 577.837305 28.789225 
z
"/>
   </g>
   <g id="patch_25">
    <path clip-path="url(#p6ddff107f8)" d="M 668.739305 103.783375 
L 698.282455 103.783375 
L 698.282455 74.240225 
L 668.739305 74.240225 
z
"/>
   </g>
   <g id="patch_26">
    <path clip-path="url(#p6ddff107f8)" d="M 782.366805 149.234375 
L 811.909955 149.234375 
L 811.909955 119.691225 
L 782.366805 119.691225 
z
"/>
   </g>
   <g id="patch_27">
    <path clip-path="url(#p6ddff107f8)" d="M 807.478482 138.894272 
C 807.478482 136.152959 806.388338 133.521118 804.449937 131.582716 
C 802.511535 129.644314 799.879694 128.55417 797.13838 128.55417 
C 794.397066 128.55417 791.765225 129.644314 789.826823 131.582716 
C 787.888422 133.521118 786.798278 136.152959 786.798278 138.894272 
" style="fill:none;stroke:#ffffff;stroke-linejoin:miter;stroke-width:2;"/>
   </g>
   <g id="patch_28">
    <path clip-path="url(#p6ddff107f8)" d="M 827.817805 194.685375 
L 857.360955 194.685375 
L 857.360955 165.142225 
L 827.817805 165.142225 
z
"/>
   </g>
   <g id="patch_29">
    <path clip-path="url(#p6ddff107f8)" d="M 852.929482 184.345272 
C 852.929482 181.603959 851.839338 178.972118 849.900937 177.033716 
C 847.962535 175.095314 845.330694 174.00517 842.58938 174.00517 
C 839.848066 174.00517 837.216225 175.095314 835.277823 177.033716 
C 833.339422 178.972118 832.249277 181.603959 832.249277 184.345272 
" style="fill:none;stroke:#ffffff;stroke-linejoin:miter;stroke-width:2;"/>
   </g>
   <g id="patch_30">
    <path clip-path="url(#p6ddff107f8)" d="M 873.268805 240.136375 
L 902.811955 240.136375 
L 902.811955 210.593225 
L 873.268805 210.593225 
z
"/>
   </g>
   <g id="patch_31">
    <path clip-path="url(#p6ddff107f8)" d="M 898.380482 229.796272 
C 898.380482 227.054959 897.290338 224.423118 895.351937 222.484716 
C 893.413535 220.546314 890.781694 219.45617 888.04038 219.45617 
C 885.299066 219.45617 882.667225 220.546314 880.728823 222.484716 
C 878.790422 224.423118 877.700277 227.054959 877.700277 229.796272 
" style="fill:none;stroke:#ffffff;stroke-linejoin:miter;stroke-width:2;"/>
   </g>
   <g id="line2d_26">
    <path clip-path="url(#p6ddff107f8)" d="M 524.43238 47.992272 
L 534.772482 37.65217 
" style="fill:none;stroke:#ffffff;stroke-linecap:square;stroke-width:2;"/>
   </g>
   <g id="line2d_27">
    <path clip-path="url(#p6ddff107f8)" d="M 592.60888 93.443272 
L 602.948982 83.10317 
" style="fill:none;stroke:#ffffff;stroke-linecap:square;stroke-width:2;"/>
   </g>
   <g id="line2d_28">
    <path clip-path="url(#p6ddff107f8)" d="M 797.13838 138.894272 
L 807.478482 128.55417 
" style="fill:none;stroke:#ffffff;stroke-linecap:square;stroke-width:2;"/>
   </g>
   <g id="line2d_29">
    <path clip-path="url(#p6ddff107f8)" d="M 842.58938 184.345272 
L 852.929482 174.00517 
" style="fill:none;stroke:#ffffff;stroke-linecap:square;stroke-width:2;"/>
   </g>
   <g id="line2d_30">
    <path clip-path="url(#p6ddff107f8)" d="M 888.04038 229.796272 
L 898.380482 219.45617 
" style="fill:none;stroke:#ffffff;stroke-linecap:square;stroke-width:2;"/>
   </g>
   <g id="line2d_31">
    <path clip-path="url(#p6ddff107f8)" d="M 297.17738 20.8353 
L 297.17738 66.2863 
" style="fill:none;stroke:#000000;stroke-dasharray:3.7,1.6;stroke-dashoffset:0;"/>
   </g>
   <g id="line2d_32">
    <path clip-path="url(#p6ddff107f8)" d="M 297.17738 66.2863 
L 297.17738 111.7373 
" style="fill:none;stroke:#000000;stroke-dasharray:3.7,1.6;stroke-dashoffset:0;"/>
   </g>
   <g id="line2d_33">
    <path clip-path="url(#p6ddff107f8)" d="M 297.17738 111.7373 
L 297.17738 157.1883 
" style="fill:none;stroke:#000000;stroke-dasharray:3.7,1.6;stroke-dashoffset:0;"/>
   </g>
   <g id="line2d_34">
    <path clip-path="url(#p6ddff107f8)" d="M 297.17738 157.1883 
L 297.17738 202.6393 
" style="fill:none;stroke:#000000;stroke-dasharray:3.7,1.6;stroke-dashoffset:0;"/>
   </g>
   <g id="line2d_35">
    <path clip-path="url(#p6ddff107f8)" d="M 297.17738 202.6393 
L 297.17738 248.0903 
" style="fill:none;stroke:#000000;stroke-dasharray:3.7,1.6;stroke-dashoffset:0;"/>
   </g>
   <g id="line2d_36">
    <path clip-path="url(#p6ddff107f8)" d="M 342.62838 49.46943 
L 342.62838 37.65217 
" style="fill:none;stroke:#ffffff;stroke-linecap:square;stroke-width:2;"/>
   </g>
   <g id="line2d_37">
    <path clip-path="url(#p6ddff107f8)" d="M 336.71975 43.5608 
L 348.53701 43.5608 
" style="fill:none;stroke:#ffffff;stroke-linecap:square;stroke-width:2;"/>
   </g>
   <g id="line2d_38">
    <path clip-path="url(#p6ddff107f8)" d="M 388.07938 94.92043 
L 388.07938 83.10317 
" style="fill:none;stroke:#ffffff;stroke-linecap:square;stroke-width:2;"/>
   </g>
   <g id="line2d_39">
    <path clip-path="url(#p6ddff107f8)" d="M 382.17075 89.0118 
L 393.98801 89.0118 
" style="fill:none;stroke:#ffffff;stroke-linecap:square;stroke-width:2;"/>
   </g>
   <g id="line2d_40">
    <path clip-path="url(#p6ddff107f8)" d="M 433.53038 49.46943 
L 433.53038 37.65217 
" style="fill:none;stroke:#ffffff;stroke-linecap:square;stroke-width:2;"/>
   </g>
   <g id="line2d_41">
    <path clip-path="url(#p6ddff107f8)" d="M 427.62175 43.5608 
L 439.43901 43.5608 
" style="fill:none;stroke:#ffffff;stroke-linecap:square;stroke-width:2;"/>
   </g>
   <g id="line2d_42">
    <path clip-path="url(#p6ddff107f8)" d="M 478.98138 94.92043 
L 478.98138 83.10317 
" style="fill:none;stroke:#ffffff;stroke-linecap:square;stroke-width:2;"/>
   </g>
   <g id="line2d_43">
    <path clip-path="url(#p6ddff107f8)" d="M 473.07275 89.0118 
L 484.89001 89.0118 
" style="fill:none;stroke:#ffffff;stroke-linecap:square;stroke-width:2;"/>
   </g>
   <g id="line2d_44">
    <path clip-path="url(#p6ddff107f8)" d="M 751.68738 20.8353 
L 751.68738 66.2863 
" style="fill:none;stroke:#000000;stroke-dasharray:3.7,1.6;stroke-dashoffset:0;"/>
   </g>
   <g id="line2d_45">
    <path clip-path="url(#p6ddff107f8)" d="M 751.68738 66.2863 
L 751.68738 111.7373 
" style="fill:none;stroke:#000000;stroke-dasharray:3.7,1.6;stroke-dashoffset:0;"/>
   </g>
   <g id="line2d_46">
    <path clip-path="url(#p6ddff107f8)" d="M 751.68738 111.7373 
L 751.68738 157.1883 
" style="fill:none;stroke:#000000;stroke-dasharray:3.7,1.6;stroke-dashoffset:0;"/>
   </g>
   <g id="line2d_47">
    <path clip-path="url(#p6ddff107f8)" d="M 751.68738 157.1883 
L 751.68738 202.6393 
" style="fill:none;stroke:#000000;stroke-dasharray:3.7,1.6;stroke-dashoffset:0;"/>
   </g>
   <g id="line2d_48">
    <path clip-path="url(#p6ddff107f8)" d="M 751.68738 202.6393 
L 751.68738 248.0903 
" style="fill:none;stroke:#000000;stroke-dasharray:3.7,1.6;stroke-dashoffset:0;"/>
   </g>
   <g id="text_1">
    <g clip-path="url(#p6ddff107f8)">
     <!-- $X$ -->
     <defs>
      <path d="M 13.71875 72.90625 
L 23.6875 72.90625 
L 36.1875 46.578125 
L 58.796875 72.90625 
L 70.3125 72.90625 
L 40.28125 38.09375 
L 58.40625 0 
L 48.484375 0 
L 33.796875 30.71875 
L 7.171875 0 
L -4.296875 0 
L 29.78125 39.203125 
z
" id="DejaVuSans-Oblique-88"/>
     </defs>
     <g transform="translate(247.24138 138.049987)scale(0.13 -0.13)">
      <use transform="translate(0 0.09375)" xlink:href="#DejaVuSans-Oblique-88"/>
     </g>
    </g>
   </g>
   <g id="text_2">
    <g clip-path="url(#p6ddff107f8)">
     <!-- $X$ -->
     <g transform="translate(247.24138 183.500987)scale(0.13 -0.13)">
      <use transform="translate(0 0.09375)" xlink:href="#DejaVuSans-Oblique-88"/>
     </g>
    </g>
   </g>
   <g id="text_3">
    <g clip-path="url(#p6ddff107f8)">
     <!-- $X$ -->
     <g transform="translate(247.24138 228.951987)scale(0.13 -0.13)">
      <use transform="translate(0 0.09375)" xlink:href="#DejaVuSans-Oblique-88"/>
     </g>
    </g>
   </g>
   <g id="text_4">
    <g clip-path="url(#p6ddff107f8)">
     <!-- 0 -->
     <defs>
      <path d="M 31.78125 66.40625 
Q 24.171875 66.40625 20.328125 58.90625 
Q 16.5 51.421875 16.5 36.375 
Q 16.5 21.390625 20.328125 13.890625 
Q 24.171875 6.390625 31.78125 6.390625 
Q 39.453125 6.390625 43.28125 13.890625 
Q 47.125 21.390625 47.125 36.375 
Q 47.125 51.421875 43.28125 58.90625 
Q 39.453125 66.40625 31.78125 66.40625 
z
M 31.78125 74.21875 
Q 44.046875 74.21875 50.515625 64.515625 
Q 56.984375 54.828125 56.984375 36.375 
Q 56.984375 17.96875 50.515625 8.265625 
Q 44.046875 -1.421875 31.78125 -1.421875 
Q 19.53125 -1.421875 13.0625 8.265625 
Q 6.59375 17.96875 6.59375 36.375 
Q 6.59375 54.828125 13.0625 64.515625 
Q 19.53125 74.21875 31.78125 74.21875 
z
" id="DejaVuSans-48"/>
     </defs>
     <g transform="translate(535.79513 264.107825)scale(0.104 -0.104)">
      <use xlink:href="#DejaVuSans-48"/>
     </g>
    </g>
   </g>
   <g id="text_5">
    <g clip-path="url(#p6ddff107f8)">
     <!-- 1 -->
     <defs>
      <path d="M 12.40625 8.296875 
L 28.515625 8.296875 
L 28.515625 63.921875 
L 10.984375 60.40625 
L 10.984375 69.390625 
L 28.421875 72.90625 
L 38.28125 72.90625 
L 38.28125 8.296875 
L 54.390625 8.296875 
L 54.390625 0 
L 12.40625 0 
z
" id="DejaVuSans-49"/>
     </defs>
     <g transform="translate(603.97163 264.107825)scale(0.104 -0.104)">
      <use xlink:href="#DejaVuSans-49"/>
     </g>
    </g>
   </g>
   <g id="text_6">
    <g clip-path="url(#p6ddff107f8)">
     <!-- $\left|0\right\rangle$ -->
     <defs>
      <path d="M 21 76.421875 
L 21 -23.578125 
L 12.703125 -23.578125 
L 12.703125 76.421875 
z
" id="DejaVuSans-124"/>
      <path d="M 30.078125 31.34375 
L 16.3125 -13.1875 
L 8.015625 -13.1875 
L 21.78125 31.34375 
L 8.015625 75.875 
L 16.3125 75.875 
z
" id="DejaVuSans-10217"/>
     </defs>
     <g style="fill:#ffffff;" transform="translate(582.33388 47.5358)scale(0.15 -0.15)">
      <use transform="translate(0 0.578125)" xlink:href="#DejaVuSans-124"/>
      <use transform="translate(33.691406 0.578125)" xlink:href="#DejaVuSans-48"/>
      <use transform="translate(97.314453 0.578125)" xlink:href="#DejaVuSans-10217"/>
     </g>
    </g>
   </g>
   <g id="text_7">
    <g clip-path="url(#p6ddff107f8)">
     <!-- $\left|0\right\rangle$ -->
     <g style="fill:#ffffff;" transform="translate(673.23588 92.9868)scale(0.15 -0.15)">
      <use transform="translate(0 0.578125)" xlink:href="#DejaVuSans-124"/>
      <use transform="translate(33.691406 0.578125)" xlink:href="#DejaVuSans-48"/>
      <use transform="translate(97.314453 0.578125)" xlink:href="#DejaVuSans-10217"/>
     </g>
    </g>
   </g>
   <g id="text_8">
    <g clip-path="url(#p6ddff107f8)">
     <!-- 0 -->
     <g transform="translate(808.50113 309.558825)scale(0.104 -0.104)">
      <use xlink:href="#DejaVuSans-48"/>
     </g>
    </g>
   </g>
   <g id="text_9">
    <g clip-path="url(#p6ddff107f8)">
     <!-- 1 -->
     <g transform="translate(853.95213 309.558825)scale(0.104 -0.104)">
      <use xlink:href="#DejaVuSans-49"/>
     </g>
    </g>
   </g>
   <g id="text_10">
    <g clip-path="url(#p6ddff107f8)">
     <!-- 2 -->
     <defs>
      <path d="M 19.1875 8.296875 
L 53.609375 8.296875 
L 53.609375 0 
L 7.328125 0 
L 7.328125 8.296875 
Q 12.9375 14.109375 22.625 23.890625 
Q 32.328125 33.6875 34.8125 36.53125 
Q 39.546875 41.84375 41.421875 45.53125 
Q 43.3125 49.21875 43.3125 52.78125 
Q 43.3125 58.59375 39.234375 62.25 
Q 35.15625 65.921875 28.609375 65.921875 
Q 23.96875 65.921875 18.8125 64.3125 
Q 13.671875 62.703125 7.8125 59.421875 
L 7.8125 69.390625 
Q 13.765625 71.78125 18.9375 73 
Q 24.125 74.21875 28.421875 74.21875 
Q 39.75 74.21875 46.484375 68.546875 
Q 53.21875 62.890625 53.21875 53.421875 
Q 53.21875 48.921875 51.53125 44.890625 
Q 49.859375 40.875 45.40625 35.40625 
Q 44.1875 33.984375 37.640625 27.21875 
Q 31.109375 20.453125 19.1875 8.296875 
z
" id="DejaVuSans-50"/>
     </defs>
     <g transform="translate(899.40313 309.558825)scale(0.104 -0.104)">
      <use xlink:href="#DejaVuSans-50"/>
     </g>
    </g>
   </g>
   <g id="text_11">
    <g clip-path="url(#p6ddff107f8)">
     <!-- $link\ qubit\ _{0}$ -->
     <defs>
      <path d="M 18.3125 75.984375 
L 27.296875 75.984375 
L 12.5 0 
L 3.515625 0 
z
" id="DejaVuSans-Oblique-108"/>
      <path d="M 18.3125 75.984375 
L 27.296875 75.984375 
L 25.09375 64.59375 
L 16.109375 64.59375 
z
M 14.203125 54.6875 
L 23.1875 54.6875 
L 12.5 0 
L 3.515625 0 
z
" id="DejaVuSans-Oblique-105"/>
      <path d="M 55.71875 33.015625 
L 49.3125 0 
L 40.28125 0 
L 46.6875 32.671875 
Q 47.125 34.96875 47.359375 36.71875 
Q 47.609375 38.484375 47.609375 39.5 
Q 47.609375 43.609375 45.015625 45.890625 
Q 42.4375 48.1875 37.796875 48.1875 
Q 30.5625 48.1875 25.34375 43.375 
Q 20.125 38.578125 18.5 30.328125 
L 12.5 0 
L 3.515625 0 
L 14.109375 54.6875 
L 23.09375 54.6875 
L 21.296875 46.09375 
Q 25.046875 50.828125 30.3125 53.40625 
Q 35.59375 56 41.40625 56 
Q 48.640625 56 52.609375 52.09375 
Q 56.59375 48.1875 56.59375 41.109375 
Q 56.59375 39.359375 56.375 37.359375 
Q 56.15625 35.359375 55.71875 33.015625 
z
" id="DejaVuSans-Oblique-110"/>
      <path d="M 18.3125 75.984375 
L 27.296875 75.984375 
L 18.703125 31.6875 
L 49.515625 54.6875 
L 61.1875 54.6875 
L 26.8125 28.515625 
L 51.90625 0 
L 41.015625 0 
L 17.671875 26.703125 
L 12.5 0 
L 3.515625 0 
z
" id="DejaVuSans-Oblique-107"/>
      <path d="M 41.703125 8.203125 
Q 38.09375 3.46875 33.171875 1.015625 
Q 28.265625 -1.421875 22.3125 -1.421875 
Q 14.015625 -1.421875 9.296875 4.171875 
Q 4.59375 9.765625 4.59375 19.578125 
Q 4.59375 27.484375 7.5 34.859375 
Q 10.40625 42.234375 15.828125 48.09375 
Q 19.34375 51.90625 23.90625 53.953125 
Q 28.46875 56 33.5 56 
Q 39.546875 56 43.453125 53.609375 
Q 47.359375 51.21875 49.125 46.390625 
L 50.6875 54.59375 
L 59.71875 54.59375 
L 45.125 -20.609375 
L 36.078125 -20.609375 
z
M 13.921875 20.90625 
Q 13.921875 13.671875 16.9375 9.890625 
Q 19.96875 6.109375 25.6875 6.109375 
Q 34.1875 6.109375 40.1875 14.234375 
Q 46.1875 22.359375 46.1875 33.984375 
Q 46.1875 41.015625 43.078125 44.75 
Q 39.984375 48.484375 34.1875 48.484375 
Q 29.9375 48.484375 26.3125 46.5 
Q 22.703125 44.53125 20.015625 40.71875 
Q 17.1875 36.71875 15.546875 31.34375 
Q 13.921875 25.984375 13.921875 20.90625 
z
" id="DejaVuSans-Oblique-113"/>
      <path d="M 6.6875 21.6875 
L 13.09375 54.6875 
L 22.125 54.6875 
L 15.71875 22.015625 
Q 15.234375 19.625 15.015625 17.921875 
Q 14.796875 16.21875 14.796875 15.09375 
Q 14.796875 10.9375 17.328125 8.65625 
Q 19.875 6.390625 24.515625 6.390625 
Q 31.734375 6.390625 37 11.265625 
Q 42.28125 16.15625 43.890625 24.421875 
L 49.90625 54.6875 
L 58.890625 54.6875 
L 48.296875 0 
L 39.3125 0 
L 41.109375 8.59375 
Q 37.3125 3.8125 32.0625 1.1875 
Q 26.8125 -1.421875 20.90625 -1.421875 
Q 13.71875 -1.421875 9.71875 2.515625 
Q 5.71875 6.453125 5.71875 13.484375 
Q 5.71875 14.9375 5.953125 17.140625 
Q 6.203125 19.34375 6.6875 21.6875 
z
" id="DejaVuSans-Oblique-117"/>
      <path d="M 49.515625 33.40625 
Q 49.515625 40.484375 46.265625 44.484375 
Q 43.015625 48.484375 37.3125 48.484375 
Q 33.15625 48.484375 29.515625 46.453125 
Q 25.875 44.4375 23.1875 40.578125 
Q 20.359375 36.53125 18.71875 31.171875 
Q 17.09375 25.828125 17.09375 20.515625 
Q 17.09375 13.765625 20.28125 9.9375 
Q 23.484375 6.109375 29.109375 6.109375 
Q 33.34375 6.109375 36.953125 8.078125 
Q 40.578125 10.0625 43.3125 13.921875 
Q 46.09375 17.921875 47.796875 23.234375 
Q 49.515625 28.5625 49.515625 33.40625 
z
M 21.578125 46.390625 
Q 24.90625 50.875 29.90625 53.4375 
Q 34.90625 56 40.375 56 
Q 48.78125 56 53.734375 50.328125 
Q 58.6875 44.671875 58.6875 35.015625 
Q 58.6875 27.09375 55.78125 19.671875 
Q 52.875 12.25 47.515625 6.5 
Q 44 2.6875 39.40625 0.625 
Q 34.8125 -1.421875 29.78125 -1.421875 
Q 24.46875 -1.421875 20.5625 1.015625 
Q 16.65625 3.46875 14.203125 8.296875 
L 12.59375 0 
L 3.609375 0 
L 18.40625 75.984375 
L 27.390625 75.984375 
z
" id="DejaVuSans-Oblique-98"/>
      <path d="M 42.28125 54.6875 
L 40.921875 47.703125 
L 23 47.703125 
L 17.1875 18.015625 
Q 16.890625 16.359375 16.75 15.234375 
Q 16.609375 14.109375 16.609375 13.484375 
Q 16.609375 10.359375 18.484375 8.9375 
Q 20.359375 7.515625 24.515625 7.515625 
L 33.59375 7.515625 
L 32.078125 0 
L 23.484375 0 
Q 15.484375 0 11.546875 3.125 
Q 7.625 6.25 7.625 12.59375 
Q 7.625 13.71875 7.765625 15.0625 
Q 7.90625 16.40625 8.203125 18.015625 
L 14.015625 47.703125 
L 6.390625 47.703125 
L 7.8125 54.6875 
L 15.28125 54.6875 
L 18.3125 70.21875 
L 27.296875 70.21875 
L 24.3125 54.6875 
z
" id="DejaVuSans-Oblique-116"/>
     </defs>
     <g transform="translate(117.22538 48.02955)scale(0.1625 -0.1625)">
      <use transform="translate(0 0.015625)" xlink:href="#DejaVuSans-Oblique-108"/>
      <use transform="translate(27.783203 0.015625)" xlink:href="#DejaVuSans-Oblique-105"/>
      <use transform="translate(55.566406 0.015625)" xlink:href="#DejaVuSans-Oblique-110"/>
      <use transform="translate(118.945312 0.015625)" xlink:href="#DejaVuSans-Oblique-107"/>
      <use transform="translate(209.325847 0.015625)" xlink:href="#DejaVuSans-Oblique-113"/>
      <use transform="translate(272.80241 0.015625)" xlink:href="#DejaVuSans-Oblique-117"/>
      <use transform="translate(336.181316 0.015625)" xlink:href="#DejaVuSans-Oblique-98"/>
      <use transform="translate(399.657878 0.015625)" xlink:href="#DejaVuSans-Oblique-105"/>
      <use transform="translate(427.441082 0.015625)" xlink:href="#DejaVuSans-Oblique-116"/>
      <use transform="translate(500.077476 -16.390625)scale(0.7)" xlink:href="#DejaVuSans-48"/>
     </g>
    </g>
   </g>
   <g id="text_12">
    <g clip-path="url(#p6ddff107f8)">
     <!-- $link\ qubit\ _{1}$ -->
     <g transform="translate(117.22538 93.48055)scale(0.1625 -0.1625)">
      <use transform="translate(0 0.015625)" xlink:href="#DejaVuSans-Oblique-108"/>
      <use transform="translate(27.783203 0.015625)" xlink:href="#DejaVuSans-Oblique-105"/>
      <use transform="translate(55.566406 0.015625)" xlink:href="#DejaVuSans-Oblique-110"/>
      <use transform="translate(118.945312 0.015625)" xlink:href="#DejaVuSans-Oblique-107"/>
      <use transform="translate(209.325847 0.015625)" xlink:href="#DejaVuSans-Oblique-113"/>
      <use transform="translate(272.80241 0.015625)" xlink:href="#DejaVuSans-Oblique-117"/>
      <use transform="translate(336.181316 0.015625)" xlink:href="#DejaVuSans-Oblique-98"/>
      <use transform="translate(399.657878 0.015625)" xlink:href="#DejaVuSans-Oblique-105"/>
      <use transform="translate(427.441082 0.015625)" xlink:href="#DejaVuSans-Oblique-116"/>
      <use transform="translate(500.077476 -16.390625)scale(0.7)" xlink:href="#DejaVuSans-49"/>
     </g>
    </g>
   </g>
   <g id="text_13">
    <g clip-path="url(#p6ddff107f8)">
     <!-- $code\ qubit\ _{0}$ -->
     <defs>
      <path d="M 53.609375 52.59375 
L 51.8125 43.703125 
Q 48.578125 46.046875 44.9375 47.21875 
Q 41.3125 48.390625 37.40625 48.390625 
Q 33.109375 48.390625 29.21875 46.875 
Q 25.34375 45.359375 22.703125 42.578125 
Q 18.5 38.328125 16.203125 32.609375 
Q 13.921875 26.90625 13.921875 20.796875 
Q 13.921875 13.421875 17.609375 9.8125 
Q 21.296875 6.203125 28.8125 6.203125 
Q 32.515625 6.203125 36.6875 7.328125 
Q 40.875 8.453125 45.40625 10.6875 
L 43.703125 1.8125 
Q 39.796875 0.203125 35.671875 -0.609375 
Q 31.546875 -1.421875 27.203125 -1.421875 
Q 16.3125 -1.421875 10.453125 4.015625 
Q 4.59375 9.46875 4.59375 19.578125 
Q 4.59375 28.078125 7.640625 35.234375 
Q 10.6875 42.390625 16.703125 48.09375 
Q 20.796875 52 26.3125 54 
Q 31.84375 56 38.375 56 
Q 42.1875 56 45.9375 55.140625 
Q 49.703125 54.296875 53.609375 52.59375 
z
" id="DejaVuSans-Oblique-99"/>
      <path d="M 25.390625 -1.421875 
Q 15.765625 -1.421875 10.171875 4.515625 
Q 4.59375 10.453125 4.59375 20.703125 
Q 4.59375 26.65625 6.515625 32.828125 
Q 8.453125 39.015625 11.53125 43.21875 
Q 16.359375 49.75 22.3125 52.875 
Q 28.265625 56 35.796875 56 
Q 45.125 56 50.859375 50.1875 
Q 56.59375 44.390625 56.59375 35.015625 
Q 56.59375 28.515625 54.6875 22.0625 
Q 52.78125 15.625 49.703125 11.375 
Q 44.921875 4.828125 38.96875 1.703125 
Q 33.015625 -1.421875 25.390625 -1.421875 
z
M 13.921875 21 
Q 13.921875 13.578125 17.015625 9.890625 
Q 20.125 6.203125 26.421875 6.203125 
Q 35.453125 6.203125 41.375 14.078125 
Q 47.3125 21.96875 47.3125 34.078125 
Q 47.3125 41.15625 44.140625 44.765625 
Q 40.96875 48.390625 34.8125 48.390625 
Q 29.734375 48.390625 25.78125 46.015625 
Q 21.828125 43.65625 18.703125 38.8125 
Q 16.40625 35.203125 15.15625 30.5625 
Q 13.921875 25.921875 13.921875 21 
z
" id="DejaVuSans-Oblique-111"/>
      <path d="M 41.796875 8.203125 
Q 38.1875 3.46875 33.25 1.015625 
Q 28.328125 -1.421875 22.3125 -1.421875 
Q 14.109375 -1.421875 9.34375 4.171875 
Q 4.59375 9.765625 4.59375 19.484375 
Q 4.59375 27.59375 7.46875 34.9375 
Q 10.359375 42.28125 15.828125 48.09375 
Q 19.4375 51.953125 23.96875 53.96875 
Q 28.515625 56 33.5 56 
Q 38.765625 56 42.796875 53.453125 
Q 46.828125 50.921875 49.03125 46.1875 
L 54.890625 75.984375 
L 63.921875 75.984375 
L 49.125 0 
L 40.09375 0 
z
M 13.921875 21.09375 
Q 13.921875 14.015625 17.109375 10.0625 
Q 20.3125 6.109375 25.984375 6.109375 
Q 30.171875 6.109375 33.765625 8.125 
Q 37.359375 10.15625 40.09375 14.109375 
Q 42.96875 18.21875 44.625 23.578125 
Q 46.296875 28.953125 46.296875 34.1875 
Q 46.296875 40.96875 43.09375 44.765625 
Q 39.890625 48.578125 34.28125 48.578125 
Q 30.03125 48.578125 26.359375 46.578125 
Q 22.703125 44.578125 20.125 40.828125 
Q 17.28125 36.765625 15.59375 31.390625 
Q 13.921875 26.03125 13.921875 21.09375 
z
" id="DejaVuSans-Oblique-100"/>
      <path d="M 48.09375 32.234375 
Q 48.25 33.015625 48.3125 33.84375 
Q 48.390625 34.671875 48.390625 35.5 
Q 48.390625 41.453125 44.890625 44.921875 
Q 41.40625 48.390625 35.40625 48.390625 
Q 28.71875 48.390625 23.578125 44.15625 
Q 18.453125 39.9375 15.828125 32.171875 
z
M 55.90625 25.203125 
L 14.109375 25.203125 
Q 13.8125 23.34375 13.71875 22.265625 
Q 13.625 21.1875 13.625 20.40625 
Q 13.625 13.625 17.796875 9.90625 
Q 21.96875 6.203125 29.59375 6.203125 
Q 35.453125 6.203125 40.671875 7.515625 
Q 45.90625 8.84375 50.390625 11.375 
L 48.6875 2.484375 
Q 43.84375 0.53125 38.6875 -0.4375 
Q 33.546875 -1.421875 28.21875 -1.421875 
Q 16.84375 -1.421875 10.71875 4.015625 
Q 4.59375 9.46875 4.59375 19.484375 
Q 4.59375 28.03125 7.640625 35.375 
Q 10.6875 42.71875 16.609375 48.484375 
Q 20.40625 52.09375 25.65625 54.046875 
Q 30.90625 56 36.8125 56 
Q 46.09375 56 51.578125 50.4375 
Q 57.078125 44.875 57.078125 35.5 
Q 57.078125 33.25 56.78125 30.6875 
Q 56.5 28.125 55.90625 25.203125 
z
" id="DejaVuSans-Oblique-101"/>
     </defs>
     <g transform="translate(106.82538 138.93155)scale(0.1625 -0.1625)">
      <use transform="translate(0 0.015625)" xlink:href="#DejaVuSans-Oblique-99"/>
      <use transform="translate(54.980469 0.015625)" xlink:href="#DejaVuSans-Oblique-111"/>
      <use transform="translate(116.162109 0.015625)" xlink:href="#DejaVuSans-Oblique-100"/>
      <use transform="translate(179.638672 0.015625)" xlink:href="#DejaVuSans-Oblique-101"/>
      <use transform="translate(273.632488 0.015625)" xlink:href="#DejaVuSans-Oblique-113"/>
      <use transform="translate(337.10905 0.015625)" xlink:href="#DejaVuSans-Oblique-117"/>
      <use transform="translate(400.487957 0.015625)" xlink:href="#DejaVuSans-Oblique-98"/>
      <use transform="translate(463.964519 0.015625)" xlink:href="#DejaVuSans-Oblique-105"/>
      <use transform="translate(491.747722 0.015625)" xlink:href="#DejaVuSans-Oblique-116"/>
      <use transform="translate(564.384116 -16.390625)scale(0.7)" xlink:href="#DejaVuSans-48"/>
     </g>
    </g>
   </g>
   <g id="text_14">
    <g clip-path="url(#p6ddff107f8)">
     <!-- $code\ qubit\ _{1}$ -->
     <g transform="translate(106.82538 184.38255)scale(0.1625 -0.1625)">
      <use transform="translate(0 0.015625)" xlink:href="#DejaVuSans-Oblique-99"/>
      <use transform="translate(54.980469 0.015625)" xlink:href="#DejaVuSans-Oblique-111"/>
      <use transform="translate(116.162109 0.015625)" xlink:href="#DejaVuSans-Oblique-100"/>
      <use transform="translate(179.638672 0.015625)" xlink:href="#DejaVuSans-Oblique-101"/>
      <use transform="translate(273.632488 0.015625)" xlink:href="#DejaVuSans-Oblique-113"/>
      <use transform="translate(337.10905 0.015625)" xlink:href="#DejaVuSans-Oblique-117"/>
      <use transform="translate(400.487957 0.015625)" xlink:href="#DejaVuSans-Oblique-98"/>
      <use transform="translate(463.964519 0.015625)" xlink:href="#DejaVuSans-Oblique-105"/>
      <use transform="translate(491.747722 0.015625)" xlink:href="#DejaVuSans-Oblique-116"/>
      <use transform="translate(564.384116 -16.390625)scale(0.7)" xlink:href="#DejaVuSans-49"/>
     </g>
    </g>
   </g>
   <g id="text_15">
    <g clip-path="url(#p6ddff107f8)">
     <!-- $code\ qubit\ _{2}$ -->
     <g transform="translate(106.82538 229.83355)scale(0.1625 -0.1625)">
      <use transform="translate(0 0.015625)" xlink:href="#DejaVuSans-Oblique-99"/>
      <use transform="translate(54.980469 0.015625)" xlink:href="#DejaVuSans-Oblique-111"/>
      <use transform="translate(116.162109 0.015625)" xlink:href="#DejaVuSans-Oblique-100"/>
      <use transform="translate(179.638672 0.015625)" xlink:href="#DejaVuSans-Oblique-101"/>
      <use transform="translate(273.632488 0.015625)" xlink:href="#DejaVuSans-Oblique-113"/>
      <use transform="translate(337.10905 0.015625)" xlink:href="#DejaVuSans-Oblique-117"/>
      <use transform="translate(400.487957 0.015625)" xlink:href="#DejaVuSans-Oblique-98"/>
      <use transform="translate(463.964519 0.015625)" xlink:href="#DejaVuSans-Oblique-105"/>
      <use transform="translate(491.747722 0.015625)" xlink:href="#DejaVuSans-Oblique-116"/>
      <use transform="translate(564.384116 -16.390625)scale(0.7)" xlink:href="#DejaVuSans-50"/>
     </g>
    </g>
   </g>
   <g id="text_16">
    <g clip-path="url(#p6ddff107f8)">
     <!-- 2 -->
     <g transform="translate(251.72638 264.107825)scale(0.104 -0.104)">
      <use xlink:href="#DejaVuSans-50"/>
     </g>
    </g>
   </g>
   <g id="text_17">
    <g clip-path="url(#p6ddff107f8)">
     <!-- $round\ 0\ link\ bit\ $ -->
     <defs>
      <path d="M 44.578125 46.390625 
Q 43.21875 47.125 41.453125 47.515625 
Q 39.703125 47.90625 37.703125 47.90625 
Q 30.515625 47.90625 25.140625 42.453125 
Q 19.78125 37.015625 18.015625 27.875 
L 12.5 0 
L 3.515625 0 
L 14.203125 54.6875 
L 23.1875 54.6875 
L 21.484375 46.1875 
Q 25.046875 50.921875 30 53.453125 
Q 34.96875 56 40.578125 56 
Q 42.046875 56 43.453125 55.828125 
Q 44.875 55.671875 46.296875 55.28125 
z
" id="DejaVuSans-Oblique-114"/>
     </defs>
     <g transform="translate(51.44538 276.196581)scale(0.195 -0.195)">
      <use transform="translate(0 0.015625)" xlink:href="#DejaVuSans-Oblique-114"/>
      <use transform="translate(41.113281 0.015625)" xlink:href="#DejaVuSans-Oblique-111"/>
      <use transform="translate(102.294922 0.015625)" xlink:href="#DejaVuSans-Oblique-117"/>
      <use transform="translate(165.673828 0.015625)" xlink:href="#DejaVuSans-Oblique-110"/>
      <use transform="translate(229.052734 0.015625)" xlink:href="#DejaVuSans-Oblique-100"/>
      <use transform="translate(324.999675 0.015625)" xlink:href="#DejaVuSans-48"/>
      <use transform="translate(421.093101 0.015625)" xlink:href="#DejaVuSans-Oblique-108"/>
      <use transform="translate(448.876304 0.015625)" xlink:href="#DejaVuSans-Oblique-105"/>
      <use transform="translate(476.659507 0.015625)" xlink:href="#DejaVuSans-Oblique-110"/>
      <use transform="translate(540.038413 0.015625)" xlink:href="#DejaVuSans-Oblique-107"/>
      <use transform="translate(630.418948 0.015625)" xlink:href="#DejaVuSans-Oblique-98"/>
      <use transform="translate(693.89551 0.015625)" xlink:href="#DejaVuSans-Oblique-105"/>
      <use transform="translate(721.678713 0.015625)" xlink:href="#DejaVuSans-Oblique-116"/>
     </g>
    </g>
   </g>
   <g id="text_18">
    <g clip-path="url(#p6ddff107f8)">
     <!-- 3 -->
     <defs>
      <path d="M 40.578125 39.3125 
Q 47.65625 37.796875 51.625 33 
Q 55.609375 28.21875 55.609375 21.1875 
Q 55.609375 10.40625 48.1875 4.484375 
Q 40.765625 -1.421875 27.09375 -1.421875 
Q 22.515625 -1.421875 17.65625 -0.515625 
Q 12.796875 0.390625 7.625 2.203125 
L 7.625 11.71875 
Q 11.71875 9.328125 16.59375 8.109375 
Q 21.484375 6.890625 26.8125 6.890625 
Q 36.078125 6.890625 40.9375 10.546875 
Q 45.796875 14.203125 45.796875 21.1875 
Q 45.796875 27.640625 41.28125 31.265625 
Q 36.765625 34.90625 28.71875 34.90625 
L 20.21875 34.90625 
L 20.21875 43.015625 
L 29.109375 43.015625 
Q 36.375 43.015625 40.234375 45.921875 
Q 44.09375 48.828125 44.09375 54.296875 
Q 44.09375 59.90625 40.109375 62.90625 
Q 36.140625 65.921875 28.71875 65.921875 
Q 24.65625 65.921875 20.015625 65.03125 
Q 15.375 64.15625 9.8125 62.3125 
L 9.8125 71.09375 
Q 15.4375 72.65625 20.34375 73.4375 
Q 25.25 74.21875 29.59375 74.21875 
Q 40.828125 74.21875 47.359375 69.109375 
Q 53.90625 64.015625 53.90625 55.328125 
Q 53.90625 49.265625 50.4375 45.09375 
Q 46.96875 40.921875 40.578125 39.3125 
z
" id="DejaVuSans-51"/>
     </defs>
     <g transform="translate(251.72638 309.558825)scale(0.104 -0.104)">
      <use xlink:href="#DejaVuSans-51"/>
     </g>
    </g>
   </g>
   <g id="text_19">
    <g clip-path="url(#p6ddff107f8)">
     <!-- $code\ bit\ $ -->
     <g transform="translate(121.06038 321.647581)scale(0.195 -0.195)">
      <use transform="translate(0 0.015625)" xlink:href="#DejaVuSans-Oblique-99"/>
      <use transform="translate(54.980469 0.015625)" xlink:href="#DejaVuSans-Oblique-111"/>
      <use transform="translate(116.162109 0.015625)" xlink:href="#DejaVuSans-Oblique-100"/>
      <use transform="translate(179.638672 0.015625)" xlink:href="#DejaVuSans-Oblique-101"/>
      <use transform="translate(273.632488 0.015625)" xlink:href="#DejaVuSans-Oblique-98"/>
      <use transform="translate(337.10905 0.015625)" xlink:href="#DejaVuSans-Oblique-105"/>
      <use transform="translate(364.892253 0.015625)" xlink:href="#DejaVuSans-Oblique-116"/>
     </g>
    </g>
   </g>
  </g>
 </g>
 <defs>
  <clipPath id="p6ddff107f8">
   <rect height="336.3374" width="930.83648" x="7.2" y="7.2"/>
  </clipPath>
 </defs>
</svg>
