<svg xmlns="http://www.w3.org/2000/svg" viewBox="0 0 1260.48 169.67"><defs><style>.a{fill:none;}.a,.b{stroke:#231815;stroke-miterlimit:10;stroke-width:2px;}.b{fill:#fff;}.c{fill:#040000;}</style></defs><title>shor_circuit_1</title><line class="a" x1="274.81" y1="12" x2="928.48" y2="12"/><line class="a" x1="274.81" y1="33" x2="928.48" y2="33"/><line class="a" x1="274.81" y1="54" x2="928.48" y2="54"/><line class="a" x1="274.81" y1="75" x2="928.48" y2="75"/><line class="a" x1="274.81" y1="96" x2="928.48" y2="96"/><line class="a" x1="274.81" y1="117" x2="928.48" y2="117"/><line class="a" x1="274.81" y1="138" x2="928.48" y2="138"/><line class="a" x1="274.81" y1="159" x2="928.48" y2="159"/><rect class="b" x="297.81" y="1" width="67" height="84.33"/><rect class="b" x="817.37" y="1" width="87.44" height="84.33"/><rect class="b" x="411.48" y="85.33" width="61.33" height="83.33"/><rect class="b" x="495.81" y="85.33" width="61.33" height="83.33"/><rect class="b" x="580.31" y="85.33" width="83.33" height="83.33"/><rect class="b" x="687.65" y="85.33" width="83.33" height="83.33"/><path class="c" d="M229.34,154.19a4.55,4.55,0,0,1-.2,1.56h-.61q-4.36,0-6.08-5.43-.18-.57-.27-1a6.88,6.88,0,0,1-.17-.9c0-.33-.09-.69-.14-1.07a11.67,11.67,0,0,1-.07-1.23c0-.44,0-1,0-1.81s0-1.51,0-2.22V130.83c0-4.88-.08-7.62-.17-8.23a.32.32,0,0,1,0-.16,10.45,10.45,0,0,0-1.69-4.61,3.26,3.26,0,0,0-2.4-1.64.45.45,0,0,1-.47-.25,8.7,8.7,0,0,1,0-2.63.45.45,0,0,1,.47-.25c.77,0,1.56-.55,2.37-1.64a10.82,10.82,0,0,0,1.72-4.61,14.59,14.59,0,0,0,.17-2.63q0-1.73,0-12.5V87.56c0-3,.06-5.12.2-6.33a10.66,10.66,0,0,1,1-3.45,7.85,7.85,0,0,1,2.7-3.46,7.1,7.1,0,0,1,1.79-.74h.44a2,2,0,0,0,.61-.08h.68a4.23,4.23,0,0,1,.2,1.48,4.82,4.82,0,0,1-.1,1.32q-.08.24-.54.24a3.78,3.78,0,0,0-2.81,2A8.83,8.83,0,0,0,224.68,82q-.18,1.07-.17,12.17v6.75c0,2.58,0,4.33-.1,5.26a17.86,17.86,0,0,1-.58,3.21q-1.05,3.54-2.94,4.85l-.47.41.47.42a8.88,8.88,0,0,1,1.22,1.23,11.59,11.59,0,0,1,1.42,2.8,15.2,15.2,0,0,1,.94,4.85q0,.49,0,11.19,0,11.1.17,12.17a8,8,0,0,0,1.45,3.7,4.09,4.09,0,0,0,2.57,1.73q.47,0,.54.24A4.35,4.35,0,0,1,229.34,154.19Z" transform="translate(42.48 -71.67)"/><path class="c" d="M890.17,75.06a4.31,4.31,0,0,1,.2-1.56H891q4.35,0,6.08,5.43.16.57.27,1a6.88,6.88,0,0,1,.17.9c0,.33.09.69.14,1.07a11.78,11.78,0,0,1,.06,1.23c0,.44,0,1,0,1.81s0,1.51,0,2.22V98.42q0,7.32.17,8.23a.45.45,0,0,1,0,.16,10.57,10.57,0,0,0,1.69,4.61,3.29,3.29,0,0,0,2.4,1.64c.25,0,.41.08.48.25a8.7,8.7,0,0,1,0,2.63c-.07.17-.23.25-.48.25-.76,0-1.55.55-2.36,1.64a10.82,10.82,0,0,0-1.73,4.61,15.8,15.8,0,0,0-.16,2.63q0,1.73,0,12.5v4.12q0,4.51-.2,6.33a10.91,10.91,0,0,1-1,3.45,7.87,7.87,0,0,1-2.71,3.46,7,7,0,0,1-1.79.74h-.44a2,2,0,0,0-.6.08h-.68a4,4,0,0,1-.2-1.48,4.82,4.82,0,0,1,.1-1.32q.06-.24.54-.24a3.77,3.77,0,0,0,2.8-2,8.69,8.69,0,0,0,1.22-3.45q.17-1.07.17-12.17v-6.75c0-2.58,0-4.33.1-5.26a17.86,17.86,0,0,1,.58-3.21q1-3.54,2.94-4.85l.47-.41-.47-.42A8.88,8.88,0,0,1,897.4,113a11.23,11.23,0,0,1-1.42-2.8,15.19,15.19,0,0,1-1-4.85q0-.49,0-11.19Q895,83,894.83,82a8,8,0,0,0-1.45-3.7,4.12,4.12,0,0,0-2.57-1.73q-.48,0-.54-.24A4.35,4.35,0,0,1,890.17,75.06Z" transform="translate(42.48 -71.67)"/><path class="c" d="M229.34,238.23a4.55,4.55,0,0,1-.2,1.56h-.61q-4.36,0-6.08-5.43c-.12-.38-.21-.71-.27-1a7.39,7.39,0,0,1-.17-.91c0-.33-.09-.68-.14-1.07a11.67,11.67,0,0,1-.07-1.23c0-.44,0-1,0-1.81s0-1.51,0-2.22V214.87c0-4.88-.08-7.62-.17-8.23a.29.29,0,0,1,0-.16,10.5,10.5,0,0,0-1.69-4.61,3.26,3.26,0,0,0-2.4-1.64A.45.45,0,0,1,217,200a4.68,4.68,0,0,1-.1-1.31,4.77,4.77,0,0,1,.1-1.32.46.46,0,0,1,.47-.25c.77,0,1.56-.54,2.37-1.64a10.82,10.82,0,0,0,1.72-4.61,14.59,14.59,0,0,0,.17-2.63q0-1.72,0-12.5v-4.11c0-3,.06-5.13.2-6.34a10.73,10.73,0,0,1,1-3.45,7.85,7.85,0,0,1,2.7-3.46,7.52,7.52,0,0,1,1.79-.74h.44a1.77,1.77,0,0,0,.61-.08h.68a4.23,4.23,0,0,1,.2,1.48,4.77,4.77,0,0,1-.1,1.32q-.08.24-.54.24a3.78,3.78,0,0,0-2.81,2,8.83,8.83,0,0,0-1.21,3.45c-.12.72-.17,4.77-.17,12.18v6.74c0,2.58,0,4.33-.1,5.26a17.71,17.71,0,0,1-.58,3.21q-1.05,3.54-2.94,4.86l-.47.41.47.41a8.88,8.88,0,0,1,1.22,1.23,11.79,11.79,0,0,1,1.42,2.8,15.25,15.25,0,0,1,.94,4.85q0,.49,0,11.19,0,11.1.17,12.17a8,8,0,0,0,1.45,3.7,4.09,4.09,0,0,0,2.57,1.73c.31,0,.49.08.54.25A4.21,4.21,0,0,1,229.34,238.23Z" transform="translate(42.48 -71.67)"/><path class="c" d="M171.77,126.45h-.05a.45.45,0,0,1-.42-.33V114.88l0-11.25a.61.61,0,0,1,.44-.3.51.51,0,0,1,.46.35v22.44c-.13.22-.26.33-.42.33Z" transform="translate(42.48 -71.67)"/><path class="c" d="M177.2,107.15a4.09,4.09,0,0,1,3.54-1.87,4.63,4.63,0,0,1,2.22.6,4.33,4.33,0,0,1,1.81,2.13,13.2,13.2,0,0,1,.86,5.27,12.16,12.16,0,0,1-1,5.49,4,4,0,0,1-1.27,1.55A4.21,4.21,0,0,1,182,121a6.22,6.22,0,0,1-1.18.17,5.55,5.55,0,0,1-1.21-.14,4.19,4.19,0,0,1-1.41-.74,4.28,4.28,0,0,1-1.27-1.55,12.16,12.16,0,0,1-1-5.49A11.63,11.63,0,0,1,177.2,107.15Zm5.21-.28a2.19,2.19,0,0,0-1.64-.74,2.22,2.22,0,0,0-1.67.74,3.06,3.06,0,0,0-.76,1.67,31.43,31.43,0,0,0-.19,4.44,36.84,36.84,0,0,0,.19,4.81,3.28,3.28,0,0,0,.83,1.83,2.14,2.14,0,0,0,3.17,0,3.31,3.31,0,0,0,.83-1.94,46.73,46.73,0,0,0,.19-4.7,31.17,31.17,0,0,0-.19-4.42A3.27,3.27,0,0,0,182.41,106.87Z" transform="translate(42.48 -71.67)"/><path class="c" d="M187.82,103.75a.57.57,0,0,1,.14-.28.56.56,0,0,1,.33-.14.48.48,0,0,1,.39.23q.07.16,2.17,5.7T193,114.9t-2.1,5.65q-2.13,5.52-2.2,5.69a.48.48,0,0,1-.39.23.41.41,0,0,1-.3-.11.63.63,0,0,1-.17-.31c0-.07.7-2,2.09-5.62s2.1-5.5,2.1-5.53-.7-1.87-2.1-5.53S187.82,103.83,187.82,103.75Z" transform="translate(42.48 -71.67)"/><path class="c" d="M935.75,96.79l-.22.08a3.91,3.91,0,0,1-.68.17,6.73,6.73,0,0,1-1,.12h-.32v-.78h.32a5.26,5.26,0,0,0,1.47-.25,3.91,3.91,0,0,0,.95-.41,3.85,3.85,0,0,0,.47-.37.3.3,0,0,1,.21,0,.46.46,0,0,1,.29.1v10.14a.83.83,0,0,0,.21.16,2.11,2.11,0,0,0,.4.06,8.92,8.92,0,0,0,1,0h.44v.78h-.18c-.24,0-1.14,0-2.7,0s-2.42,0-2.66,0h-.2v-.78h1.09l.42,0,.27,0,.14,0,.1-.09c.05-.06.09-.08.1-.07Z" transform="translate(42.48 -71.67)"/><path class="c" d="M940.13,126.76a.4.4,0,0,0,0-.13c0-.06,0-.18.08-.38a3.52,3.52,0,0,1,.17-.52c.07-.16.15-.35.26-.56a2,2,0,0,1,.33-.51,5.7,5.7,0,0,1,.44-.37.76.76,0,0,1,.56-.15,1.75,1.75,0,0,1,.87.2,2.13,2.13,0,0,1,.52.37.78.78,0,0,1,.19.34c0,.07,0,.1,0,.1a.48.48,0,0,0,.13-.12,2.53,2.53,0,0,1,1.88-.88h.06a1.32,1.32,0,0,1,1.21.7,1.59,1.59,0,0,1,.14.62,1.37,1.37,0,0,1-.22.82,1.1,1.1,0,0,1-.44.39.91.91,0,0,1-.42.06.81.81,0,0,1-.55-.18.66.66,0,0,1-.2-.49,1.11,1.11,0,0,1,.95-1.09,1.37,1.37,0,0,0-.61-.22,2.18,2.18,0,0,0-1.74,1.26,2,2,0,0,0-.26.56c-.05.19-.25.94-.57,2.25q-.59,2.37-.66,2.52a.75.75,0,0,1-.73.46.64.64,0,0,1-.36-.1.56.56,0,0,1-.18-.21.23.23,0,0,1,0-.17c0-.14.23-1.11.68-2.91a29.6,29.6,0,0,0,.68-3c0-.44-.15-.66-.44-.66s-.44.16-.61.48a4.71,4.71,0,0,0-.41,1,3.33,3.33,0,0,1-.19.61.61.61,0,0,1-.27,0h-.23C940.17,126.85,940.13,126.8,940.13,126.76Z" transform="translate(42.48 -71.67)"/><path class="c" d="M926.94,128.9c-.07,0-.14-.05-.23-.14a.5.5,0,0,1-.16-.24c0-.06.17-.23.53-.51l1.12-.84.64-.49a.09.09,0,0,1,.08,0h0c.07,0,.15.1.24.29l.91,2c.22.49.39.88.53,1.17l1.44,3.13s.6-1.2,1.76-3.6l3.49-7.27c1.16-2.44,1.76-3.68,1.81-3.74a.35.35,0,0,1,.34-.24.28.28,0,0,1,.2.1.57.57,0,0,1,.12.21v.1L935.83,127l-4,8.23c0,.08-.15.12-.32.12a.3.3,0,0,1-.2-.05s-.58-1.22-1.66-3.59L928,128.1l-.27.19-.52.4A1.24,1.24,0,0,1,926.94,128.9Z" transform="translate(42.48 -71.67)"/><rect class="c" x="982.26" y="46.7" width="7.64" height="1.02"/><rect class="c" x="966.12" y="41.62" width="25.47" height="1.02"/><path class="c" d="M952.73,113.79a14.28,14.28,0,0,1,.17-2.22,16.4,16.4,0,0,1,.39-1.81,7.39,7.39,0,0,1,.63-1.49c.27-.49.48-.86.64-1.13a4.67,4.67,0,0,1,.71-.89,7.73,7.73,0,0,0,.56-.57,3,3,0,0,1,.43-.36h.28c.16,0,.24.05.24.16a1.51,1.51,0,0,1-.29.35,7.24,7.24,0,0,0-.69.9,11,11,0,0,0-.83,1.46,9.54,9.54,0,0,0-.71,2.33,17.22,17.22,0,0,0-.29,3.27,16.92,16.92,0,0,0,.29,3.25,11.08,11.08,0,0,0,.69,2.36,7.85,7.85,0,0,0,.83,1.45c.28.37.52.67.71.9l.29.35c0,.11-.08.16-.25.16h-.27l-.48-.41a8.43,8.43,0,0,1-2.32-3.59A14,14,0,0,1,952.73,113.79Z" transform="translate(42.48 -71.67)"/><path class="c" d="M960.08,122.24h0a.33.33,0,0,1-.31-.24v-8.23l0-8.23a.47.47,0,0,1,.32-.22.38.38,0,0,1,.34.26V122q-.13.24-.3.24Z" transform="translate(42.48 -71.67)"/><path class="c" d="M964.28,110.76a.92.92,0,0,1-.73-.31,1.07,1.07,0,0,1-.27-.74,2.8,2.8,0,0,1,.9-2.08,3.05,3.05,0,0,1,2.24-.88,3.67,3.67,0,0,1,2.57.94,3.24,3.24,0,0,1,1,2.46,3,3,0,0,1-.34,1.39,5.14,5.14,0,0,1-.81,1.15c-.32.33-.77.74-1.36,1.25-.4.35-1,.87-1.69,1.56l-1,1,1.29,0a19.28,19.28,0,0,0,2.83-.09,4.85,4.85,0,0,0,.4-1.51v-.05H970v.05s-.09.55-.22,1.55a15.26,15.26,0,0,1-.25,1.55v0h-6.29v-.52a.53.53,0,0,1,.1-.26l.51-.59.85-1,.57-.62.58-.63.49-.56q.35-.39.48-.57t.39-.51a4.24,4.24,0,0,0,.35-.54c.07-.15.15-.31.25-.49a1.92,1.92,0,0,0,.22-.55c0-.18.09-.35.12-.5a2.38,2.38,0,0,0,0-.56,3.06,3.06,0,0,0-.57-1.85,1.92,1.92,0,0,0-1.64-.78,1.75,1.75,0,0,0-1,.29,2,2,0,0,0-.59.56,1.4,1.4,0,0,0-.17.32s0,0,.09,0a1.08,1.08,0,0,1,.62.23.89.89,0,0,1,.32.78,1,1,0,0,1-.27.71A1,1,0,0,1,964.28,110.76Z" transform="translate(42.48 -71.67)"/><path class="c" d="M971.15,107.59s0-.11,0-.19a4.44,4.44,0,0,1,.14-.45,4.67,4.67,0,0,1,.24-.57,1.45,1.45,0,0,1,.4-.44.83.83,0,0,1,.55-.2,1.18,1.18,0,0,1,.72.21,1.07,1.07,0,0,1,.36.41,1.45,1.45,0,0,1,.07.25s0,0,0,0l.13-.14a2.24,2.24,0,0,1,1.67-.76,1.63,1.63,0,0,1,1,.32,1.17,1.17,0,0,1,.4,1,5.73,5.73,0,0,1-.45,1.88,6.22,6.22,0,0,0-.45,1.52c0,.21.06.31.2.31h.11a1,1,0,0,0,.62-.46,3,3,0,0,0,.42-1q0-.09.24-.09t.24.09l-.05.18a3.61,3.61,0,0,1-.26.69,2.52,2.52,0,0,1-.56.67,1.17,1.17,0,0,1-.82.32,1,1,0,0,1-.82-.32,1.14,1.14,0,0,1-.25-.67,8,8,0,0,1,.43-1.44,6.48,6.48,0,0,0,.45-1.82c0-.47-.18-.71-.53-.71h-.06a2.06,2.06,0,0,0-1.74,1.21l-.08.15-.39,1.6c-.27,1-.42,1.61-.46,1.69a.53.53,0,0,1-.51.32.42.42,0,0,1-.26-.07.79.79,0,0,1-.13-.14.19.19,0,0,1,0-.12q0-.17.45-2c.31-1.2.47-1.85.48-2a1.64,1.64,0,0,0,0-.27c0-.31-.09-.47-.28-.47s-.56.4-.76,1.2c0,.16-.07.24-.07.25s-.09.07-.23.07h-.16C971.18,107.65,971.15,107.62,971.15,107.59Z" transform="translate(42.48 -71.67)"/><path class="c" d="M984,113.79a1,1,0,0,1,1-1,1,1,0,0,1,.72.28,1,1,0,0,1,.32.72,1,1,0,0,1-.29.73,1,1,0,0,1-.73.31,1,1,0,0,1-.73-.29A1.05,1.05,0,0,1,984,113.79Z" transform="translate(42.48 -71.67)"/><path class="c" d="M996.3,103.16l-.15.06a3.3,3.3,0,0,1-.48.12,6,6,0,0,1-.69.08h-.22v-.55H995a3.77,3.77,0,0,0,1-.17,3.11,3.11,0,0,0,.66-.29,1.81,1.81,0,0,0,.33-.26s.06,0,.14,0a.35.35,0,0,1,.21.07v7.1a.37.37,0,0,0,.14.1.86.86,0,0,0,.28,0,6.37,6.37,0,0,0,.74,0h.31V110h-.13q-.26,0-1.89,0T995,110h-.14v-.54h.76l.29,0a1,1,0,0,0,.19,0l.1,0,.07,0s.06-.06.07,0Z" transform="translate(42.48 -71.67)"/><path class="c" d="M994.31,122.75a.46.46,0,0,0,0-.09l.06-.26a1.79,1.79,0,0,1,.12-.37c0-.11.1-.24.17-.39a1.5,1.5,0,0,1,.24-.36c.09-.08.19-.17.31-.26a.55.55,0,0,1,.39-.1,1.22,1.22,0,0,1,.61.14,1.28,1.28,0,0,1,.36.26.48.48,0,0,1,.13.24s0,.07,0,.07l.09-.09a1.75,1.75,0,0,1,1.32-.61h0a.94.94,0,0,1,.86.48,1.19,1.19,0,0,1,.09.44,1,1,0,0,1-.15.57.75.75,0,0,1-.31.27.63.63,0,0,1-.3,0,.51.51,0,0,1-.37-.13.43.43,0,0,1-.15-.34c0-.38.22-.63.67-.76a1,1,0,0,0-.43-.16,1.55,1.55,0,0,0-1.22.88,1.7,1.7,0,0,0-.18.39c0,.14-.17.66-.4,1.58-.27,1.11-.42,1.69-.46,1.77a.55.55,0,0,1-.51.32.37.37,0,0,1-.25-.08.29.29,0,0,1-.13-.14.18.18,0,0,1,0-.12c0-.1.16-.78.48-2s.47-2,.47-2.1c0-.31-.1-.47-.31-.47s-.31.12-.42.34a3.29,3.29,0,0,0-.29.72,3.05,3.05,0,0,1-.13.43.51.51,0,0,1-.19,0h-.16S994.31,122.78,994.31,122.75Z" transform="translate(42.48 -71.67)"/><rect class="c" x="1035.07" y="43.04" width="8.3" height="0.71"/><path class="c" d="M1003.24,105.63a.35.35,0,0,1,.1-.2.38.38,0,0,1,.24-.11.36.36,0,0,1,.29.17l1.59,4.17c1,2.7,1.55,4.07,1.56,4.13s-.5,1.43-1.54,4.13l-1.61,4.17a.36.36,0,0,1-.29.17.29.29,0,0,1-.22-.09.4.4,0,0,1-.12-.22s.51-1.43,1.53-4.11,1.54-4,1.54-4-.52-1.37-1.54-4.05S1003.24,105.68,1003.24,105.63Z" transform="translate(42.48 -71.67)"/><path class="c" d="M1013.61,114v-.22a.37.37,0,0,1,.24-.34h5.06v-2.54l0-2.54a.44.44,0,0,1,.32-.22.39.39,0,0,1,.34.26v5h5c.17.09.26.2.26.34s-.09.25-.26.34h-5v5.05a.39.39,0,0,1-.31.23h-.07a.33.33,0,0,1-.3-.23v-5.05h-5.06a.37.37,0,0,1-.24-.34Z" transform="translate(42.48 -71.67)"/><path class="c" d="M1032,122.24h0a.33.33,0,0,1-.31-.24v-8.23l0-8.23a.47.47,0,0,1,.32-.22.38.38,0,0,1,.34.26V122q-.13.24-.3.24Z" transform="translate(42.48 -71.67)"/><path class="c" d="M1036.15,110.76a.92.92,0,0,1-.73-.31,1.07,1.07,0,0,1-.27-.74,2.8,2.8,0,0,1,.9-2.08,3.05,3.05,0,0,1,2.24-.88,3.67,3.67,0,0,1,2.57.94,3.24,3.24,0,0,1,1.05,2.46,3,3,0,0,1-.34,1.39,4.84,4.84,0,0,1-.81,1.15c-.32.33-.77.74-1.36,1.25-.4.35-1,.87-1.69,1.56l-1,1,1.29,0a19.28,19.28,0,0,0,2.83-.09,4.54,4.54,0,0,0,.4-1.51v-.05h.68v.05s-.08.55-.22,1.55a15.26,15.26,0,0,1-.25,1.55v0h-6.29v-.52a.53.53,0,0,1,.1-.26l.51-.59.85-1,.58-.62.57-.63.49-.56q.35-.39.48-.57t.39-.51a3.36,3.36,0,0,0,.35-.54,4.81,4.81,0,0,1,.26-.49,2.74,2.74,0,0,0,.22-.55c0-.18.08-.35.11-.5a2.38,2.38,0,0,0,0-.56,3.06,3.06,0,0,0-.57-1.85,1.91,1.91,0,0,0-1.64-.78,1.75,1.75,0,0,0-1,.29,2,2,0,0,0-.59.56,1.4,1.4,0,0,0-.17.32s0,0,.09,0a1.08,1.08,0,0,1,.62.23.9.9,0,0,1,.33.78,1,1,0,0,1-.28.71A1,1,0,0,1,1036.15,110.76Z" transform="translate(42.48 -71.67)"/><path class="c" d="M1043,107.59a.89.89,0,0,1,0-.19,4.44,4.44,0,0,1,.14-.45,4.67,4.67,0,0,1,.24-.57,1.6,1.6,0,0,1,.4-.44.83.83,0,0,1,.55-.2,1.18,1.18,0,0,1,.72.21,1.07,1.07,0,0,1,.36.41.87.87,0,0,1,.07.25s0,0,0,0l.13-.14a2.24,2.24,0,0,1,1.67-.76,1.61,1.61,0,0,1,1,.32,1.21,1.21,0,0,1,.41,1,6.09,6.09,0,0,1-.46,1.88,6.22,6.22,0,0,0-.45,1.52c0,.21.06.31.2.31h.11a1,1,0,0,0,.62-.46,3,3,0,0,0,.42-1q0-.09.24-.09t.24.09l0,.18a3.61,3.61,0,0,1-.26.69,2.66,2.66,0,0,1-.55.67,1.21,1.21,0,0,1-.83.32,1,1,0,0,1-.81-.32,1.09,1.09,0,0,1-.26-.67,8,8,0,0,1,.43-1.44,6.48,6.48,0,0,0,.45-1.82c0-.47-.18-.71-.53-.71h-.06a2,2,0,0,0-1.73,1.21l-.09.15-.39,1.6c-.27,1-.42,1.61-.46,1.69a.53.53,0,0,1-.51.32.37.37,0,0,1-.25-.07.61.61,0,0,1-.14-.14.19.19,0,0,1,0-.12q0-.17.45-2c.31-1.2.47-1.85.48-2a1.31,1.31,0,0,0,0-.27c0-.31-.1-.47-.29-.47s-.56.4-.76,1.2c0,.16-.07.24-.07.25s-.09.07-.23.07h-.16S1043,107.62,1043,107.59Z" transform="translate(42.48 -71.67)"/><path class="c" d="M1055.89,113.79a1,1,0,0,1,1-1,1,1,0,0,1,.71.28,1,1,0,0,1,.33.72,1,1,0,0,1-.29.73,1,1,0,0,1-.73.31,1,1,0,0,1-.73-.29A1.05,1.05,0,0,1,1055.89,113.79Z" transform="translate(42.48 -71.67)"/><path class="c" d="M1066.94,104.93a.64.64,0,0,1-.51-.22.73.73,0,0,1-.19-.52,2,2,0,0,1,.63-1.46,2.14,2.14,0,0,1,1.56-.61,2.56,2.56,0,0,1,1.8.66,2.25,2.25,0,0,1,.74,1.72,2.08,2.08,0,0,1-.24,1,3.45,3.45,0,0,1-.57.81,11.67,11.67,0,0,1-1,.87c-.28.25-.68.61-1.18,1.09l-.7.67h.9a14.08,14.08,0,0,0,2-.06,3,3,0,0,0,.28-1v0h.48v0s-.06.38-.16,1.07a10.46,10.46,0,0,1-.17,1.1v0h-4.4v-.37a.27.27,0,0,1,.07-.17q.07-.1.36-.42l.59-.66c.07-.08.2-.23.4-.44l.4-.44.35-.39c.16-.18.27-.32.33-.4s.15-.21.27-.36a2.19,2.19,0,0,0,.25-.38c0-.1.11-.22.18-.34a1.66,1.66,0,0,0,.15-.38c0-.13.06-.25.09-.36a2.21,2.21,0,0,0,0-.39,2.09,2.09,0,0,0-.4-1.29,1.36,1.36,0,0,0-1.15-.55,1.24,1.24,0,0,0-.69.2,1.42,1.42,0,0,0-.41.4.81.81,0,0,0-.12.22s0,0,.06,0a.76.76,0,0,1,.44.17.62.62,0,0,1,.22.54.68.68,0,0,1-.19.5A.7.7,0,0,1,1066.94,104.93Z" transform="translate(42.48 -71.67)"/><path class="c" d="M1066.19,122.75a.51.51,0,0,1,0-.09l.06-.26a1.79,1.79,0,0,1,.12-.37c0-.11.1-.24.17-.39a1.5,1.5,0,0,1,.24-.36c.09-.08.19-.17.31-.26a.55.55,0,0,1,.39-.1,1.22,1.22,0,0,1,.61.14,1.28,1.28,0,0,1,.36.26.48.48,0,0,1,.13.24s0,.07,0,.07,0,0,.09-.09a1.75,1.75,0,0,1,1.32-.61h0a.93.93,0,0,1,.85.48,1.19,1.19,0,0,1,.09.44,1,1,0,0,1-.15.57.75.75,0,0,1-.31.27.61.61,0,0,1-.29,0,.52.52,0,0,1-.38-.13.43.43,0,0,1-.15-.34c0-.38.22-.63.67-.76a1,1,0,0,0-.43-.16,1.55,1.55,0,0,0-1.22.88,1.7,1.7,0,0,0-.18.39c0,.14-.17.66-.4,1.58-.27,1.11-.42,1.69-.46,1.77a.55.55,0,0,1-.51.32.37.37,0,0,1-.25-.08.29.29,0,0,1-.13-.14.18.18,0,0,1,0-.12c0-.1.16-.78.48-2s.47-2,.47-2.1c0-.31-.1-.47-.31-.47s-.3.12-.42.34a3.29,3.29,0,0,0-.29.72,3.05,3.05,0,0,1-.13.43.51.51,0,0,1-.19,0h-.16S1066.19,122.78,1066.19,122.75Z" transform="translate(42.48 -71.67)"/><rect class="c" x="1106.94" y="43.04" width="8.3" height="0.71"/><path class="c" d="M1075.11,105.63a.35.35,0,0,1,.1-.2.38.38,0,0,1,.24-.11.36.36,0,0,1,.29.17l1.59,4.17c1,2.7,1.55,4.07,1.56,4.13s-.5,1.43-1.54,4.13l-1.61,4.17a.36.36,0,0,1-.29.17.29.29,0,0,1-.22-.09.4.4,0,0,1-.12-.22s.51-1.43,1.53-4.11,1.54-4,1.54-4-.52-1.37-1.54-4.05S1075.11,105.68,1075.11,105.63Z" transform="translate(42.48 -71.67)"/><path class="c" d="M1085.48,114v-.22a.37.37,0,0,1,.24-.34h5.06v-2.54l0-2.54a.44.44,0,0,1,.32-.22.39.39,0,0,1,.34.26v5h5c.17.09.26.2.26.34s-.09.25-.26.34h-5v5.05a.39.39,0,0,1-.31.23h-.07a.33.33,0,0,1-.3-.23v-5.05h-5.06a.37.37,0,0,1-.24-.34Z" transform="translate(42.48 -71.67)"/><path class="c" d="M1102.79,113.79a1,1,0,0,1,1-1,1,1,0,0,1,.72.28,1,1,0,0,1,.32.72,1,1,0,0,1-.29.73,1,1,0,0,1-.73.31,1,1,0,0,1-.73-.29A1.05,1.05,0,0,1,1102.79,113.79Zm7.57,0a1,1,0,0,1,1-1,1,1,0,0,1,.72.28,1,1,0,0,1,.32.72,1,1,0,0,1-.29.73,1,1,0,0,1-.73.31,1,1,0,0,1-.73-.29A1.05,1.05,0,0,1,1110.36,113.79Zm7.57,0a1,1,0,0,1,1-1,1,1,0,0,1,.71.28,1,1,0,0,1,.33.72,1,1,0,0,1-.29.73,1,1,0,0,1-.73.31,1,1,0,0,1-.73-.29A1.05,1.05,0,0,1,1117.93,113.79Z" transform="translate(42.48 -71.67)"/><path class="c" d="M1126,114v-.22a.36.36,0,0,1,.23-.34h5.07v-5.08c.12-.15.22-.22.32-.22a.38.38,0,0,1,.34.26v5h5a.36.36,0,0,1,0,.68h-5v5.05c-.09.15-.19.23-.3.23h-.07a.32.32,0,0,1-.3-.23v-5.05h-5.07a.36.36,0,0,1-.23-.34Z" transform="translate(42.48 -71.67)"/><path class="c" d="M1144.37,122.24h0a.33.33,0,0,1-.31-.24v-8.23l0-8.23a.47.47,0,0,1,.32-.22.38.38,0,0,1,.34.26V122c-.09.16-.19.24-.31.24Z" transform="translate(42.48 -71.67)"/><path class="c" d="M1148.57,110.76a.9.9,0,0,1-.73-.31,1.07,1.07,0,0,1-.27-.74,2.8,2.8,0,0,1,.9-2.08,3,3,0,0,1,2.23-.88,3.68,3.68,0,0,1,2.58.94,3.24,3.24,0,0,1,1,2.46,3.1,3.1,0,0,1-.34,1.39,5.14,5.14,0,0,1-.81,1.15c-.32.33-.77.74-1.36,1.25-.41.35-1,.87-1.69,1.56l-1,1,1.29,0a19,19,0,0,0,2.82-.09,4.38,4.38,0,0,0,.41-1.51v-.05h.68v.05s-.09.55-.22,1.55a11.17,11.17,0,0,1-.26,1.55v0h-6.28v-.52a.45.45,0,0,1,.1-.26l.51-.59.85-1,.57-.62.58-.63.49-.56c.23-.26.38-.45.47-.57s.22-.3.39-.51a3.55,3.55,0,0,0,.36-.54c.07-.15.15-.31.25-.49a2.26,2.26,0,0,0,.22-.55c.05-.18.09-.35.12-.5a2.38,2.38,0,0,0,0-.56,3.06,3.06,0,0,0-.57-1.85,1.94,1.94,0,0,0-1.65-.78,1.71,1.71,0,0,0-1,.29,2,2,0,0,0-.59.56,1.4,1.4,0,0,0-.17.32s0,0,.08,0a1.09,1.09,0,0,1,.63.23.89.89,0,0,1,.32.78,1,1,0,0,1-.27.71A1,1,0,0,1,1148.57,110.76Z" transform="translate(42.48 -71.67)"/><path class="c" d="M1155.44,107.59s0-.11,0-.19a2.76,2.76,0,0,1,.14-.45,4.67,4.67,0,0,1,.24-.57,1.45,1.45,0,0,1,.4-.44.82.82,0,0,1,.55-.2,1.22,1.22,0,0,1,.72.21,1,1,0,0,1,.35.41,1,1,0,0,1,.08.25s0,0,0,0l.13-.14a2.24,2.24,0,0,1,1.66-.76,1.64,1.64,0,0,1,1,.32,1.2,1.2,0,0,1,.4,1,5.73,5.73,0,0,1-.45,1.88,6.48,6.48,0,0,0-.46,1.52c0,.21.07.31.21.31h.1a1,1,0,0,0,.63-.46,3,3,0,0,0,.42-1q0-.09.24-.09c.15,0,.23,0,.23.09a1.23,1.23,0,0,1,0,.18,3.65,3.65,0,0,1-.27.69,2.29,2.29,0,0,1-.55.67,1.17,1.17,0,0,1-.82.32,1,1,0,0,1-.82-.32,1.08,1.08,0,0,1-.25-.67,7.2,7.2,0,0,1,.43-1.44,6,6,0,0,0,.44-1.82c0-.47-.17-.71-.52-.71h-.06a2,2,0,0,0-1.74,1.21l-.08.15-.4,1.6c-.26,1-.41,1.61-.45,1.69a.55.55,0,0,1-.52.32.41.41,0,0,1-.25-.07.54.54,0,0,1-.13-.14.19.19,0,0,1,0-.12q0-.17.45-2c.3-1.2.46-1.85.48-2a1.64,1.64,0,0,0,0-.27c0-.31-.09-.47-.28-.47s-.56.4-.76,1.2a2.31,2.31,0,0,0-.07.25c0,.05-.09.07-.23.07h-.17S1155.44,107.62,1155.44,107.59Z" transform="translate(42.48 -71.67)"/><path class="c" d="M1168.3,113.79a1,1,0,0,1,.29-.71,1,1,0,0,1,.73-.31,1,1,0,0,1,.71.28,1,1,0,0,1,.32.72,1,1,0,0,1-.28.73,1,1,0,0,1-.73.31,1,1,0,0,1-.73-.29A1.11,1.11,0,0,1,1168.3,113.79Z" transform="translate(42.48 -71.67)"/><path class="c" d="M1178.31,106.61l0-.1a1.31,1.31,0,0,1,.06-.26,3.07,3.07,0,0,1,.11-.36l.18-.4a1.19,1.19,0,0,1,.24-.35,2,2,0,0,1,.31-.26.56.56,0,0,1,.39-.11,1.27,1.27,0,0,1,.6.14,1.71,1.71,0,0,1,.37.26.57.57,0,0,1,.13.24s0,.07,0,.07l.09-.08a1.76,1.76,0,0,1,1.32-.62h0a1,1,0,0,1,.86.49,1.19,1.19,0,0,1,.09.44,1,1,0,0,1-.15.57.82.82,0,0,1-.31.27.79.79,0,0,1-.3,0,.58.58,0,0,1-.38-.13.48.48,0,0,1-.14-.35c0-.38.22-.63.66-.76a.89.89,0,0,0-.42-.15c-.45,0-.85.29-1.22.88a1.38,1.38,0,0,0-.18.39c0,.13-.18.66-.4,1.57-.27,1.11-.43,1.7-.47,1.77a.53.53,0,0,1-.51.32.41.41,0,0,1-.25-.07.55.55,0,0,1-.13-.14.19.19,0,0,1,0-.12c0-.1.16-.78.47-2a20.74,20.74,0,0,0,.48-2.1c0-.31-.1-.46-.31-.46s-.31.11-.43.33a3.85,3.85,0,0,0-.28.72,3.69,3.69,0,0,1-.13.43s-.08,0-.19,0h-.17A.3.3,0,0,1,1178.31,106.61Z" transform="translate(42.48 -71.67)"/><path class="c" d="M1187,107.2v-.15a.25.25,0,0,1,.16-.24h6.89a.24.24,0,0,1,0,.47h-6.89a.24.24,0,0,1-.16-.23Z" transform="translate(42.48 -71.67)"/><path class="c" d="M1200.42,103.16l-.15.06a3.46,3.46,0,0,1-.47.12,6.57,6.57,0,0,1-.69.08h-.23v-.55h.23a3.76,3.76,0,0,0,1-.17,2.69,2.69,0,0,0,.66-.29,2.34,2.34,0,0,0,.34-.26s.06,0,.14,0a.31.31,0,0,1,.2.07v7.1a.46.46,0,0,0,.14.1.94.94,0,0,0,.29,0,6.17,6.17,0,0,0,.73,0h.31V110h-.13c-.17,0-.79,0-1.88,0s-1.7,0-1.87,0h-.14v-.54h.76l.3,0a1.08,1.08,0,0,0,.19,0l.09,0,.07,0s.07-.06.07,0Z" transform="translate(42.48 -71.67)"/><path class="c" d="M1188.52,122.75a.2.2,0,0,0,0-.09l.06-.26a2.68,2.68,0,0,1,.12-.37l.18-.39a1.25,1.25,0,0,1,.24-.36,3,3,0,0,1,.31-.26.53.53,0,0,1,.39-.1,1.16,1.16,0,0,1,.6.14,1.36,1.36,0,0,1,.37.26.57.57,0,0,1,.13.24.25.25,0,0,0,0,.07l.1-.09a1.74,1.74,0,0,1,1.31-.61h0a.92.92,0,0,1,.85.48,1,1,0,0,1,.1.44.9.9,0,0,1-.16.57.73.73,0,0,1-.3.27.68.68,0,0,1-.3,0,.53.53,0,0,1-.38-.13.46.46,0,0,1-.14-.34c0-.38.22-.63.66-.76a.93.93,0,0,0-.42-.16c-.45,0-.85.3-1.23.88a2.2,2.2,0,0,0-.17.39c0,.14-.18.66-.41,1.58-.26,1.11-.42,1.69-.46,1.77a.53.53,0,0,1-.51.32.41.41,0,0,1-.25-.08.43.43,0,0,1-.13-.14.17.17,0,0,1,0-.12c0-.1.16-.78.47-2a20.74,20.74,0,0,0,.48-2.1c0-.31-.11-.47-.31-.47s-.31.12-.43.34a3.27,3.27,0,0,0-.28.72c-.07.26-.12.4-.13.43a.56.56,0,0,1-.19,0h-.17S1188.52,122.78,1188.52,122.75Z" transform="translate(42.48 -71.67)"/><rect class="c" x="1219.36" y="43.04" width="28.13" height="0.71"/><path class="c" d="M1207.37,105.63a.3.3,0,0,1,.1-.2.34.34,0,0,1,.23-.11.35.35,0,0,1,.29.17q.06.12,1.59,4.17c1,2.7,1.55,4.07,1.56,4.13s-.5,1.43-1.54,4.13S1208,122,1208,122.09a.35.35,0,0,1-.29.17.29.29,0,0,1-.22-.09.46.46,0,0,1-.11-.22s.5-1.43,1.52-4.11,1.54-4,1.54-4-.51-1.37-1.54-4.05S1207.37,105.68,1207.37,105.63Z" transform="translate(42.48 -71.67)"/><path class="c" d="M1214,105.34l.07,0h.37l.47.41a8.34,8.34,0,0,1,2.32,3.59,13.69,13.69,0,0,1,.73,4.47,14.48,14.48,0,0,1-.17,2.22,13.64,13.64,0,0,1-.39,1.81,7.3,7.3,0,0,1-.63,1.49c-.27.5-.48.88-.64,1.14a6.15,6.15,0,0,1-.69.86l-.55.56-.38.32-.07.07h-.39s-.06,0-.09-.05a.5.5,0,0,1,0-.16,2.49,2.49,0,0,0,.19-.22q2.63-2.72,2.62-8c0-3.54-.87-6.23-2.62-8a2.49,2.49,0,0,0-.19-.22A.2.2,0,0,1,1214,105.34Z" transform="translate(42.48 -71.67)"/><path class="c" d="M-42.16,205.31h0c-.13,0-.22-.08-.29-.23v-7.87l0-7.87a.42.42,0,0,1,.3-.21.37.37,0,0,1,.33.24v15.71c-.09.15-.19.23-.29.23Z" transform="translate(42.48 -71.67)"/><path class="c" d="M-36.45,191.91l-.22.08a4.3,4.3,0,0,1-.64.17,8.11,8.11,0,0,1-.94.11h-.31v-.75h.31a5.33,5.33,0,0,0,1.41-.24,3.65,3.65,0,0,0,.9-.39,3.67,3.67,0,0,0,.46-.35s.08,0,.19,0a.44.44,0,0,1,.28.1v9.7a.67.67,0,0,0,.2.14,1.69,1.69,0,0,0,.39.07c.2,0,.54,0,1,0H-33v.74h-.18c-.22,0-1.08,0-2.57,0s-2.32,0-2.54,0h-.2v-.74h1l.4,0a.92.92,0,0,0,.26,0l.13,0,.1-.08s.08-.07.1-.06Z" transform="translate(42.48 -71.67)"/><path class="c" d="M-30.92,189.42a.32.32,0,0,1,.1-.19.33.33,0,0,1,.23-.1.31.31,0,0,1,.27.16c0,.08.54,1.4,1.53,4s1.47,3.9,1.49,4-.49,1.37-1.48,4-1.5,3.91-1.54,4a.31.31,0,0,1-.27.16.25.25,0,0,1-.21-.08.43.43,0,0,1-.12-.21c0-.05.49-1.36,1.46-3.93s1.47-3.85,1.47-3.87-.49-1.32-1.47-3.88S-30.92,189.47-30.92,189.42Z" transform="translate(42.48 -71.67)"/><path class="c" d="M-20.1,195.65a.34.34,0,0,1,.23-.32H-9.56c.16.09.24.19.24.32a.36.36,0,0,1-.22.31l-5.15,0h-5.15A.32.32,0,0,1-20.1,195.65Zm0,3.15a.32.32,0,0,1,.26-.33h10.3a.43.43,0,0,1,.22.33.35.35,0,0,1-.24.32H-19.87A.34.34,0,0,1-20.1,198.8Z" transform="translate(42.48 -71.67)"/><path class="c" d="M9.61,181l-.21.08a6.14,6.14,0,0,1-.65.16,7.93,7.93,0,0,1-.93.11H7.51v-.74h.31a5.19,5.19,0,0,0,1.4-.25,4.09,4.09,0,0,0,.91-.38,3.54,3.54,0,0,0,.45-.36.28.28,0,0,1,.2-.05.39.39,0,0,1,.27.1v4.84l0,4.86a.81.81,0,0,0,.19.14,1.42,1.42,0,0,0,.39.07c.21,0,.54,0,1,0h.42v.75H12.9c-.23,0-1.08-.05-2.57-.05s-2.32,0-2.55.05H7.59v-.75H9l.26,0,.13,0s0,0,.1-.08.08-.07.09-.06Z" transform="translate(42.48 -71.67)"/><path class="c" d="M13.81,209.63a.86.86,0,0,0,0-.13c0-.05,0-.17.08-.36a3.26,3.26,0,0,1,.16-.5c.07-.15.15-.33.25-.53a1.54,1.54,0,0,1,.32-.49,3,3,0,0,1,.42-.35.75.75,0,0,1,.54-.15,1.8,1.8,0,0,1,.82.19,1.74,1.74,0,0,1,.5.36.7.7,0,0,1,.18.32c0,.07,0,.1.05.1l.13-.11a2.39,2.39,0,0,1,1.8-.84h.05a1.27,1.27,0,0,1,1.16.66,1.51,1.51,0,0,1,.13.6,1.33,1.33,0,0,1-.21.78,1,1,0,0,1-.42.37.86.86,0,0,1-.41.06.72.72,0,0,1-.51-.17.62.62,0,0,1-.2-.47,1,1,0,0,1,.91-1,1.24,1.24,0,0,0-.58-.21,2.09,2.09,0,0,0-1.67,1.2,2.32,2.32,0,0,0-.25.53l-.55,2.16c-.36,1.51-.57,2.31-.63,2.41a.72.72,0,0,1-.69.44.57.57,0,0,1-.34-.1.62.62,0,0,1-.18-.19c0-.07,0-.12,0-.17s.21-1.07.64-2.78a25.92,25.92,0,0,0,.65-2.87q0-.63-.42-.63c-.23,0-.42.15-.58.45a5.1,5.1,0,0,0-.39,1,4.74,4.74,0,0,1-.18.58s-.11,0-.26,0H13.9A.31.31,0,0,1,13.81,209.63Z" transform="translate(42.48 -71.67)"/><path class="c" d="M1.19,211.67a.36.36,0,0,1-.23-.13.45.45,0,0,1-.14-.23c0-.06.16-.22.5-.48L2.39,210l.62-.47a.1.1,0,0,1,.08,0h0c.07,0,.14.09.23.27l.87,1.9.51,1.11,1.37,3s.57-1.15,1.69-3.45,2.22-4.61,3.33-6.95,1.69-3.52,1.74-3.58a.32.32,0,0,1,.32-.22.22.22,0,0,1,.19.1.44.44,0,0,1,.12.19v.1l-3.78,7.82-3.8,7.87a.36.36,0,0,1-.31.11c-.1,0-.16,0-.19,0s-.55-1.16-1.59-3.43l-1.56-3.4-.25.18-.51.39A1.24,1.24,0,0,1,1.19,211.67Z" transform="translate(42.48 -71.67)"/><rect class="c" x="55.95" y="129.93" width="7.3" height="0.97"/><rect class="c" x="40.51" y="125.07" width="24.36" height="0.97"/><path class="c" d="M25.86,197.23A13.16,13.16,0,0,1,26,195.1a15.51,15.51,0,0,1,.37-1.73A6.72,6.72,0,0,1,27,192c.26-.47.46-.83.62-1.09a3.91,3.91,0,0,1,.68-.84c.3-.3.48-.49.53-.55a2.45,2.45,0,0,1,.4-.34h.28c.15,0,.23.05.23.14s-.09.15-.28.34a8.35,8.35,0,0,0-.66.86,11.22,11.22,0,0,0-.8,1.39,9.69,9.69,0,0,0-.68,2.24,16.67,16.67,0,0,0-.27,3.13,16.27,16.27,0,0,0,.27,3.1,11,11,0,0,0,.67,2.26,7.55,7.55,0,0,0,.79,1.39l.68.86a2.59,2.59,0,0,1,.28.34c0,.09-.08.14-.25.14h-.26l-.45-.39a8,8,0,0,1-2.22-3.43A13.35,13.35,0,0,1,25.86,197.23Z" transform="translate(42.48 -71.67)"/><path class="c" d="M32.88,205.31h0c-.13,0-.22-.08-.29-.23v-7.87l0-7.87q.16-.21.3-.21a.36.36,0,0,1,.33.24v15.71c-.09.15-.18.23-.29.23Z" transform="translate(42.48 -71.67)"/><path class="c" d="M35.48,196.63a1.62,1.62,0,0,1,.14-.51,7.86,7.86,0,0,1,.41-.84,2.6,2.6,0,0,1,.71-.81,1.68,1.68,0,0,1,.95-.35,1.45,1.45,0,0,1,1.12.4,1.36,1.36,0,0,1,.37,1,9.06,9.06,0,0,1-.55,1.81,7.73,7.73,0,0,0-.55,2.28,1.6,1.6,0,0,0,.23,1,.88.88,0,0,0,.68.29,1.34,1.34,0,0,0,.86-.28,2.75,2.75,0,0,0,.6-.55l.18-.27c0-.05.22-.87.61-2.47.33-1.29.52-2.05.58-2.26a1.2,1.2,0,0,1,.23-.47.89.89,0,0,1,.58-.25.49.49,0,0,1,.41.17.46.46,0,0,1,.13.3l-1.23,5.15a1.51,1.51,0,0,0,0,.26.85.85,0,0,0,.12.54.47.47,0,0,0,.34.14.76.76,0,0,0,.56-.5,11.5,11.5,0,0,0,.49-1.42c0-.09.13-.13.32-.13s.31,0,.31.14,0,.13,0,.23a2.63,2.63,0,0,1-.15.52q-.14.38-.27.69a2.66,2.66,0,0,1-.41.62,1.38,1.38,0,0,1-.58.4,1.33,1.33,0,0,1-.39,0,1.48,1.48,0,0,1-1.47-.91.64.64,0,0,0-.18.16,1.93,1.93,0,0,1-.29.24l-.36.25a1.29,1.29,0,0,1-.47.19l-.55.08a2.55,2.55,0,0,1-1.26-.29,1.82,1.82,0,0,1-.85-1.72,7.16,7.16,0,0,1,.57-2.41,7.6,7.6,0,0,0,.57-1.89v-.23a.16.16,0,0,0-.07-.11.21.21,0,0,0-.18-.07h-.06A.92.92,0,0,0,37,195a2.51,2.51,0,0,0-.49.66,5,5,0,0,0-.27.68,2,2,0,0,1-.13.36.58.58,0,0,1-.26,0h-.23A.26.26,0,0,1,35.48,196.63Z" transform="translate(42.48 -71.67)"/><path class="c" d="M45.5,197a2,2,0,0,1,1.75-.93,2.28,2.28,0,0,1,1.1.3,2.1,2.1,0,0,1,.89,1.05,6.38,6.38,0,0,1,.43,2.61,5.92,5.92,0,0,1-.5,2.71,1.92,1.92,0,0,1-.63.77,2.19,2.19,0,0,1-.69.36,4.17,4.17,0,0,1-.59.08,2.88,2.88,0,0,1-.59-.07,2.08,2.08,0,0,1-.7-.37,2,2,0,0,1-.63-.77,5.93,5.93,0,0,1-.49-2.71A5.69,5.69,0,0,1,45.5,197Zm2.57-.14a1,1,0,0,0-.81-.37,1.07,1.07,0,0,0-.82.37,1.53,1.53,0,0,0-.38.82,16.59,16.59,0,0,0-.09,2.2,19.32,19.32,0,0,0,.09,2.38,1.67,1.67,0,0,0,.41.91,1,1,0,0,0,.79.34,1,1,0,0,0,.78-.34,1.64,1.64,0,0,0,.41-1,19.26,19.26,0,0,0,.09-2.32,16.41,16.41,0,0,0-.09-2.19A1.49,1.49,0,0,0,48.07,196.87Z" transform="translate(42.48 -71.67)"/><path class="c" d="M51.82,189.42a.39.39,0,0,1,.1-.19.35.35,0,0,1,.23-.1.31.31,0,0,1,.27.16c0,.08.54,1.4,1.53,4s1.48,3.9,1.49,4-.48,1.37-1.48,4-1.5,3.91-1.54,4a.31.31,0,0,1-.27.16.25.25,0,0,1-.21-.08.43.43,0,0,1-.12-.21c0-.05.49-1.36,1.46-3.93s1.48-3.85,1.48-3.87-.5-1.32-1.48-3.88S51.82,189.47,51.82,189.42Z" transform="translate(42.48 -71.67)"/><path class="c" d="M61.74,197.44v-.21a.35.35,0,0,1,.23-.33h4.84V192a.45.45,0,0,1,.31-.21.36.36,0,0,1,.33.25v4.82h4.82a.4.4,0,0,1,.25.33c0,.12-.09.23-.25.32H67.46v4.83c-.09.15-.19.22-.3.22H67.1a.3.3,0,0,1-.29-.22v-4.83H62a.34.34,0,0,1-.23-.32Z" transform="translate(42.48 -71.67)"/><path class="c" d="M79.28,205.31h0a.31.31,0,0,1-.29-.23v-7.87l0-7.87a.42.42,0,0,1,.3-.21.37.37,0,0,1,.33.24v15.71c-.09.15-.19.23-.29.23Z" transform="translate(42.48 -71.67)"/><path class="c" d="M81.87,196.63a1.74,1.74,0,0,1,.15-.51c.1-.24.23-.52.4-.84a2.77,2.77,0,0,1,.72-.81,1.68,1.68,0,0,1,1-.35,1.45,1.45,0,0,1,1.12.4,1.36,1.36,0,0,1,.37,1,9.06,9.06,0,0,1-.55,1.81,7.73,7.73,0,0,0-.55,2.28,1.6,1.6,0,0,0,.23,1,.88.88,0,0,0,.68.29,1.34,1.34,0,0,0,.86-.28,2.75,2.75,0,0,0,.6-.55l.17-.27c0-.05.23-.87.62-2.47.32-1.29.52-2.05.58-2.26a1.2,1.2,0,0,1,.23-.47.89.89,0,0,1,.58-.25.49.49,0,0,1,.41.17.52.52,0,0,1,.13.3l-1.23,5.15a1.51,1.51,0,0,0,0,.26.94.94,0,0,0,.11.54.51.51,0,0,0,.34.14.76.76,0,0,0,.57-.5,11.5,11.5,0,0,0,.49-1.42c0-.09.13-.13.32-.13s.31,0,.31.14,0,.13,0,.23a3.61,3.61,0,0,1-.15.52c-.09.25-.18.48-.28.69a2.34,2.34,0,0,1-.4.62,1.38,1.38,0,0,1-.58.4,1.33,1.33,0,0,1-.39,0,1.5,1.5,0,0,1-1.48-.91.9.9,0,0,0-.17.16,1.58,1.58,0,0,1-.3.24l-.35.25a1.29,1.29,0,0,1-.47.19l-.55.08a2.62,2.62,0,0,1-1.27-.29,1.84,1.84,0,0,1-.84-1.72,7.16,7.16,0,0,1,.57-2.41,7.6,7.6,0,0,0,.57-1.89v-.23a.2.2,0,0,0-.07-.11.21.21,0,0,0-.18-.07H84a.92.92,0,0,0-.68.31,2.51,2.51,0,0,0-.49.66,4,4,0,0,0-.27.68,2,2,0,0,1-.13.36.58.58,0,0,1-.26,0H82C81.91,196.71,81.87,196.66,81.87,196.63Z" transform="translate(42.48 -71.67)"/><path class="c" d="M93.24,197.09l-.15,0a3.26,3.26,0,0,1-.46.12,6,6,0,0,1-.66.08h-.22v-.53H92a3.48,3.48,0,0,0,1-.17,2.35,2.35,0,0,0,.64-.28,1.69,1.69,0,0,0,.32-.25s.06,0,.14,0a.32.32,0,0,1,.2.07V203a.53.53,0,0,0,.13.11,1.57,1.57,0,0,0,.28,0,5.78,5.78,0,0,0,.71,0h.3v.52h-.13c-.16,0-.77,0-1.82,0s-1.64,0-1.8,0h-.13v-.52h1l.19,0,.09,0,.07-.06s.06-.05.07-.05Z" transform="translate(42.48 -71.67)"/><path class="c" d="M98.22,189.42a.32.32,0,0,1,.1-.19.33.33,0,0,1,.23-.1.32.32,0,0,1,.27.16c0,.08.54,1.4,1.52,4s1.48,3.9,1.49,4-.48,1.37-1.47,4-1.51,3.91-1.54,4a.32.32,0,0,1-.27.16.25.25,0,0,1-.21-.08.37.37,0,0,1-.12-.21c0-.05.49-1.36,1.46-3.93s1.47-3.85,1.47-3.87-.49-1.32-1.47-3.88S98.22,189.47,98.22,189.42Z" transform="translate(42.48 -71.67)"/><path class="c" d="M108.14,197.44v-.21a.35.35,0,0,1,.22-.33h4.85V192c.11-.14.21-.21.31-.21a.34.34,0,0,1,.32.25v4.82h4.83a.34.34,0,0,1,0,.65h-4.83v4.83a.34.34,0,0,1-.29.22h-.06a.3.3,0,0,1-.29-.22v-4.83h-4.85a.35.35,0,0,1-.22-.32Z" transform="translate(42.48 -71.67)"/><path class="c" d="M124.69,197.23a1,1,0,0,1,.28-.68.89.89,0,0,1,.7-.3,1,1,0,0,1,.68.26,1,1,0,0,1,.3.7,1,1,0,0,1-.27.7,1,1,0,0,1-.7.29.9.9,0,0,1-.69-.28A1,1,0,0,1,124.69,197.23Zm7.24,0a.93.93,0,0,1,.28-.68.89.89,0,0,1,.69-.3,1,1,0,0,1,.68.26.94.94,0,0,1,.31.7,1,1,0,0,1-.27.7,1,1,0,0,1-1.4,0A1,1,0,0,1,131.93,197.23Zm7.24,0a.93.93,0,0,1,.28-.68.89.89,0,0,1,.69-.3,1,1,0,0,1,.68.26.94.94,0,0,1,.31.7,1,1,0,0,1-.27.7,1,1,0,0,1-1.4,0A1,1,0,0,1,139.17,197.23Z" transform="translate(42.48 -71.67)"/><path class="c" d="M146.92,197.44v-.21a.35.35,0,0,1,.22-.33H152V192c.11-.14.21-.21.31-.21a.34.34,0,0,1,.32.25v4.82h4.83a.34.34,0,0,1,0,.65h-4.83v4.83a.34.34,0,0,1-.29.22h-.06a.3.3,0,0,1-.29-.22v-4.83h-4.85a.35.35,0,0,1-.22-.32Z" transform="translate(42.48 -71.67)"/><path class="c" d="M164.46,205.31h0a.33.33,0,0,1-.3-.23v-7.87l0-7.87c.11-.14.21-.21.31-.21a.34.34,0,0,1,.32.24v15.71c-.08.15-.18.23-.29.23Z" transform="translate(42.48 -71.67)"/><path class="c" d="M167.05,196.63a1.74,1.74,0,0,1,.15-.51,7.58,7.58,0,0,1,.4-.84,2.6,2.6,0,0,1,.71-.81,1.71,1.71,0,0,1,1-.35,1.46,1.46,0,0,1,1.12.4,1.41,1.41,0,0,1,.37,1,9.88,9.88,0,0,1-.55,1.81,7.42,7.42,0,0,0-.55,2.28,1.61,1.61,0,0,0,.22,1,.88.88,0,0,0,.68.29,1.32,1.32,0,0,0,.86-.28,2.75,2.75,0,0,0,.6-.55l.18-.27c0-.05.23-.87.61-2.47.33-1.29.52-2.05.59-2.26a1.21,1.21,0,0,1,.22-.47.91.91,0,0,1,.59-.25.47.47,0,0,1,.4.17.46.46,0,0,1,.13.3l-1.23,5.15a1.78,1.78,0,0,0,0,.26.87.87,0,0,0,.11.54.49.49,0,0,0,.34.14.76.76,0,0,0,.57-.5,10.27,10.27,0,0,0,.48-1.42c0-.09.13-.13.33-.13s.3,0,.3.14,0,.13,0,.23a2.63,2.63,0,0,1-.15.52,5.51,5.51,0,0,1-.27.69,2.38,2.38,0,0,1-.41.62,1.32,1.32,0,0,1-.58.4,1.24,1.24,0,0,1-.39,0,1.48,1.48,0,0,1-1.47-.91,1.18,1.18,0,0,0-.18.16,1.53,1.53,0,0,1-.29.24l-.36.25a1.23,1.23,0,0,1-.47.19l-.55.08a2.6,2.6,0,0,1-1.26-.29,1.84,1.84,0,0,1-.84-1.72,7.35,7.35,0,0,1,.56-2.41,7.6,7.6,0,0,0,.57-1.89v-.23a.17.17,0,0,0-.06-.11.24.24,0,0,0-.18-.07h-.07a1,1,0,0,0-.68.31,2.71,2.71,0,0,0-.48.66,5.17,5.17,0,0,0-.28.68,1.37,1.37,0,0,1-.13.36.58.58,0,0,1-.26,0h-.22C167.08,196.71,167.05,196.66,167.05,196.63Z" transform="translate(42.48 -71.67)"/><path class="c" d="M176.21,200.42l0-.09a1.74,1.74,0,0,1,0-.26,1.8,1.8,0,0,1,.12-.35c0-.11.1-.23.17-.38a1.12,1.12,0,0,1,.23-.34,1.53,1.53,0,0,1,.3-.25.51.51,0,0,1,.37-.11,1.22,1.22,0,0,1,.59.14,1.44,1.44,0,0,1,.35.25.54.54,0,0,1,.13.23.14.14,0,0,0,0,.07l.1-.08a1.67,1.67,0,0,1,1.27-.6h0a.89.89,0,0,1,.82.47,1,1,0,0,1,.1.43.92.92,0,0,1-.15.55.78.78,0,0,1-.3.26.74.74,0,0,1-.29,0,.53.53,0,0,1-.36-.13.42.42,0,0,1-.14-.33c0-.37.21-.61.64-.74a.94.94,0,0,0-.41-.14,1.48,1.48,0,0,0-1.18.84,1.59,1.59,0,0,0-.17.38c0,.13-.17.64-.39,1.52q-.39,1.6-.45,1.71a.5.5,0,0,1-.49.31.36.36,0,0,1-.24-.07.55.55,0,0,1-.13-.14.15.15,0,0,1,0-.11c0-.1.15-.76.46-2s.46-1.89.46-2c0-.3-.1-.44-.3-.44s-.3.1-.41.32a2.93,2.93,0,0,0-.28.7c-.07.25-.11.38-.12.41a.56.56,0,0,1-.19,0h-.16C176.24,200.47,176.21,200.44,176.21,200.42Z" transform="translate(42.48 -71.67)"/><path class="c" d="M182.1,201v-.15a.25.25,0,0,1,.16-.23h6.65a.24.24,0,0,1,0,.46h-6.65a.24.24,0,0,1-.16-.23Z" transform="translate(42.48 -71.67)"/><path class="c" d="M192.48,197.09l-.15,0a2.74,2.74,0,0,1-.45.12,5.87,5.87,0,0,1-.67.08H191v-.53h.21a3.55,3.55,0,0,0,1-.17,2.51,2.51,0,0,0,.64-.28,2.09,2.09,0,0,0,.32-.25s.06,0,.14,0a.28.28,0,0,1,.19.07V203a.54.54,0,0,0,.14.11,1.57,1.57,0,0,0,.28,0,5.78,5.78,0,0,0,.71,0h.29v.52h-.12c-.16,0-.77,0-1.82,0s-1.64,0-1.8,0h-.14v-.52h1l.18,0,.1,0,.06-.06a.21.21,0,0,1,.07-.05Z" transform="translate(42.48 -71.67)"/><path class="c" d="M197.47,189.42a.32.32,0,0,1,.1-.19.33.33,0,0,1,.23-.1.31.31,0,0,1,.27.16c0,.08.54,1.4,1.52,4s1.48,3.9,1.49,4-.48,1.37-1.47,4-1.51,3.91-1.54,4a.31.31,0,0,1-.27.16.25.25,0,0,1-.21-.08.37.37,0,0,1-.12-.21c0-.05.49-1.36,1.46-3.93s1.47-3.85,1.47-3.87-.49-1.32-1.47-3.88S197.47,189.47,197.47,189.42Z" transform="translate(42.48 -71.67)"/><path class="c" d="M203.85,189.14h.43l.45.39A8,8,0,0,1,207,193a13.78,13.78,0,0,1,.53,6.4,14.58,14.58,0,0,1-.37,1.73,7.18,7.18,0,0,1-.6,1.42c-.26.48-.46.84-.62,1.09a5.16,5.16,0,0,1-.66.83c-.29.3-.46.48-.52.53l-.37.31-.06.06h-.38a.08.08,0,0,1-.08,0,.38.38,0,0,1,0-.14l.18-.21q2.51-2.61,2.51-7.69t-2.51-7.7l-.18-.21A.22.22,0,0,1,203.85,189.14Z" transform="translate(42.48 -71.67)"/><path class="c" d="M269.12,108.5c-.6,0-.92,0-1-.11a.84.84,0,0,1,0-.21,1.07,1.07,0,0,1,.29-.88,1.71,1.71,0,0,1,.45,0q1.1.06,3.63.06h1.67q.78,0,1.2,0a2.23,2.23,0,0,1,.54,0q.42,0,.42.27s0,.15,0,.37-.18.48-.27.53h-.37l-.24,0a.49.49,0,0,1-.24,0,10.92,10.92,0,0,0-1.33.08.72.72,0,0,0-.48.29c-.05.07-.34,1.16-.85,3.28-.13.46-.26,1-.4,1.54s-.25,1-.32,1.25l-.11.4s1.29.06,3.86.06h3.87l0-.08c0-.06.28-1.15.83-3.28s.74-3.13.74-3.28-.5-.23-1.51-.26a3.25,3.25,0,0,1-.8-.06.22.22,0,0,1-.19-.24s0-.14.05-.32a1.78,1.78,0,0,1,.16-.5,1,1,0,0,1,.43-.08l1.12,0,2.5,0,2.53,0,1,0c.3,0,.46.09.46.27,0,.47-.11.78-.32.9H286l-.24,0a.49.49,0,0,1-.24,0,11.09,11.09,0,0,0-1.33.08.76.76,0,0,0-.48.29q-.08.13-1.92,7.54t-1.86,7.51c0,.13,0,.19.11.19a7.52,7.52,0,0,0,1.43.13h.83a.92.92,0,0,1,.16.24s0,.18-.08.48a1.22,1.22,0,0,1-.27.51h-.4q-1-.06-3.57-.06h-2.9a3,3,0,0,0-.56,0q-.45,0-.45-.24a1.07,1.07,0,0,1,.08-.37c.09-.34.18-.53.26-.56a1.83,1.83,0,0,1,.4,0h.16c.48,0,1,0,1.6-.08l.21,0s.09,0,.16-.13a.9.9,0,0,0,.16-.24,2.79,2.79,0,0,0,.16-.48,6.7,6.7,0,0,0,.19-.74c.05-.25.15-.63.29-1.15s.23-.9.3-1.2c.58-2.34.88-3.52.88-3.54s-1.29,0-3.87,0h-3.86l-.88,3.6c-.6,2.38-.9,3.61-.9,3.7a.23.23,0,0,0,.21.24,9.25,9.25,0,0,0,1.33.08H272a1.4,1.4,0,0,1,.16.24s0,.18-.08.48a1.22,1.22,0,0,1-.27.51h-.4q-1-.06-3.57-.06h-2.9a3,3,0,0,0-.56,0c-.3,0-.46-.08-.46-.24a3.24,3.24,0,0,1,.08-.37c.09-.34.18-.53.27-.56a1.77,1.77,0,0,1,.4,0h.16c.48,0,1,0,1.6-.08a.71.71,0,0,0,.51-.32q.08-.11,1.91-7.4t1.84-7.7C270.64,108.61,270.14,108.53,269.12,108.5Z" transform="translate(42.48 -71.67)"/><path class="c" d="M289.17,109.76a5.88,5.88,0,0,1,1.88-4.49,6.22,6.22,0,0,1,4.29-1.79,6.25,6.25,0,0,1,6.37,6.28,6,6,0,0,1-1.83,4.44,6.31,6.31,0,0,1-8.89,0A6.16,6.16,0,0,1,289.17,109.76Zm9.9-4.17a6.93,6.93,0,0,0-1.62-1,6.23,6.23,0,0,0-2.16-.35,5,5,0,0,0-2.06.43,4.64,4.64,0,0,0-1.43.9l3.64,3.64,1.81-1.83Zm-7.81.55a5.48,5.48,0,0,0,0,7.23l3.61-3.61Zm8.34,7.23a5.48,5.48,0,0,0,0-7.23L296,109.76Zm-7.8.55a5.49,5.49,0,0,0,.64.51,6.26,6.26,0,0,0,1.23.54,5.31,5.31,0,0,0,1.75.29c.26,0,.52,0,.77,0a4.11,4.11,0,0,0,.68-.13l.58-.19a2,2,0,0,0,.49-.23,2.82,2.82,0,0,1,.42-.22,1,1,0,0,0,.32-.23.49.49,0,0,1,.24-.17.17.17,0,0,0,.15-.13l-3.65-3.64Z" transform="translate(42.48 -71.67)"/><path class="c" d="M303.16,109.06a2.62,2.62,0,0,1,.06-.3,5.69,5.69,0,0,1,.22-.72,7,7,0,0,1,.38-.88,2.19,2.19,0,0,1,.62-.7,1.31,1.31,0,0,1,.87-.32,1.81,1.81,0,0,1,1.13.34,1.51,1.51,0,0,1,.56.64,1.45,1.45,0,0,1,.12.39s0,0,0,0l.21-.2a3.52,3.52,0,0,1,2.62-1.21,2.51,2.51,0,0,1,1.64.51,1.86,1.86,0,0,1,.64,1.49,9.13,9.13,0,0,1-.72,3,9.55,9.55,0,0,0-.71,2.4c0,.32.1.48.32.48h.17a1.61,1.61,0,0,0,1-.72,5,5,0,0,0,.66-1.51c0-.1.15-.15.37-.15s.38,0,.38.15,0,.11-.08.29a6.36,6.36,0,0,1-.41,1.07,3.67,3.67,0,0,1-.87,1,1.78,1.78,0,0,1-1.3.51,1.53,1.53,0,0,1-1.28-.51,1.69,1.69,0,0,1-.39-1,11.71,11.71,0,0,1,.67-2.26,9.78,9.78,0,0,0,.7-2.86c0-.74-.27-1.11-.83-1.11h-.09a3.19,3.19,0,0,0-2.73,1.9L307,109l-.63,2.53c-.41,1.64-.65,2.53-.71,2.65a.83.83,0,0,1-.81.51.7.7,0,0,1-.4-.11.59.59,0,0,1-.2-.23.29.29,0,0,1,0-.19c0-.16.24-1.18.71-3.07s.73-2.9.76-3.07a3.16,3.16,0,0,0,0-.43c0-.49-.15-.73-.46-.73-.47,0-.87.62-1.18,1.88-.08.25-.12.38-.12.4s-.14.11-.35.11h-.27C303.2,109.15,303.16,109.1,303.16,109.06Z" transform="translate(42.48 -71.67)"/><path class="c" d="M793.25,128.55c0-.61,0-1.07,0-1.39a2.4,2.4,0,0,1,.06-.52v-.12l-.42.12a10.27,10.27,0,0,1-2.33.3,6.82,6.82,0,0,1-7-6.19c0-.15,0-.55,0-1.2a11.45,11.45,0,0,1,1.33-5.38,15.69,15.69,0,0,1,3.58-4.53,10.87,10.87,0,0,1,6.91-2.86c.71,0,1.15,0,1.34,0a6.63,6.63,0,0,1,4.33,2.39,7.85,7.85,0,0,1,1.67,5,12.64,12.64,0,0,1-4.11,9.11,13.53,13.53,0,0,1-3.64,2.53l-.47.22v.14s0,.26.14.75a2.1,2.1,0,0,0,.58,1.16,1.71,1.71,0,0,0,1.28.45,3.32,3.32,0,0,0,1.86-.61,2.82,2.82,0,0,0,1.16-1.59q.16-.39.36-.39a.3.3,0,0,1,.31.25,3.86,3.86,0,0,1-.28,1,18.07,18.07,0,0,1-.78,1.84,4.77,4.77,0,0,1-1.5,1.8,3.8,3.8,0,0,1-2.11.81c-1.51,0-2.27-1-2.27-3Zm6.58-15.21a7.71,7.71,0,0,0-.42-2.67,3.66,3.66,0,0,0-1.14-1.69,6.35,6.35,0,0,0-1.39-.84,3.85,3.85,0,0,0-1.47-.27,6.09,6.09,0,0,0-2.72.69,10,10,0,0,0-4.55,4.89,15.57,15.57,0,0,0-1.72,6.88,5.73,5.73,0,0,0,1.5,4.36,2.53,2.53,0,0,0,.8.58v-.22a2.9,2.9,0,0,1,.92-2,3,3,0,0,1,2.16-1,2.3,2.3,0,0,1,1.2.3,1.94,1.94,0,0,1,.75.83,5.7,5.7,0,0,1,.33.89c.06.24.11.49.17.75l.36-.25a10.2,10.2,0,0,0,3-3.36,15.07,15.07,0,0,0,1.73-4.13A16.61,16.61,0,0,0,799.83,113.34Zm-8.94,12.49a5.5,5.5,0,0,0,2.5-.58l0-.28c-.08-1-.42-1.63-1-1.83a3.15,3.15,0,0,0-.53-.06h-.16c-.06,0-.1,0-.11,0a1.71,1.71,0,0,0-1.14.56,1.77,1.77,0,0,0-.61,1.28C789.78,125.52,790.15,125.83,790.89,125.83Z" transform="translate(42.48 -71.67)"/><path class="c" d="M805.46,126.3c-.31,0-.47-.09-.47-.28a3,3,0,0,1,.09-.38c.07-.3.14-.47.22-.5a2.08,2.08,0,0,1,.64-.09c.5,0,1,0,1.66-.08a.77.77,0,0,0,.53-.33c0-.1.69-2.7,2-7.81l1.94-7.77c0-.13,0-.2-.11-.2a7.92,7.92,0,0,0-1.47-.13h-.86c-.11-.12-.17-.19-.17-.23s0-.19.06-.47a1,1,0,0,1,.28-.58h15a.33.33,0,0,1,.2.3c0,.1-.12,1.13-.36,3.11s-.37,3-.39,3.06-.22.19-.56.19h-.33a.41.41,0,0,1-.19-.36s0-.24.08-.66a12.82,12.82,0,0,0,.08-1.48,4,4,0,0,0-.19-1.36,2.37,2.37,0,0,0-.53-.86,1.79,1.79,0,0,0-1-.44c-.46-.08-.93-.14-1.41-.2a14,14,0,0,0-2,0h-.64a20.53,20.53,0,0,0-2.42.08.35.35,0,0,0-.19.22s-.33,1.23-1,3.64l-.88,3.58h2.16a6.83,6.83,0,0,0,.78,0l.61-.08a2.41,2.41,0,0,0,.67-.19,2.1,2.1,0,0,0,.47-.34,2.73,2.73,0,0,0,.61-.91,5.78,5.78,0,0,0,.36-1.06,2.46,2.46,0,0,1,.14-.5c.06-.09.23-.14.53-.14h.33a.37.37,0,0,1,.19.28c0,.06-.28,1.27-.86,3.64s-.88,3.59-.94,3.66-.22.2-.56.2h-.33a.46.46,0,0,1-.19-.34,3.7,3.7,0,0,1,.14-.61,4.44,4.44,0,0,0,.13-1.11c0-.54-.18-.87-.55-1a9.54,9.54,0,0,0-2.47-.19h-1.53l-.89,3.52c-.59,2.3-.89,3.5-.89,3.61,0,.26.83.39,2.48.39h.69a.76.76,0,0,1,.17.2s0,.2-.06.55a1.25,1.25,0,0,1-.28.53h-.47c-.76,0-2.16-.06-4.19-.06h-2.75A9,9,0,0,0,805.46,126.3Z" transform="translate(42.48 -71.67)"/><path class="c" d="M826,114.2c-.35,0-.53-.08-.53-.23a14,14,0,0,1,.45-1.55c.29-1,.61-1.88.94-2.81l.47-1.36a1.61,1.61,0,0,1,.36-.72h15.5a9.64,9.64,0,0,1,1,0c.11,0,.18.1.2.25S844.32,109,844,111s-.49,3-.52,3-.18.2-.53.2h-.33c-.06,0-.12,0-.17-.14l-.06-.09c0-.11.06-.52.17-1.25a12,12,0,0,0,.17-1.69,2.49,2.49,0,0,0-.36-1.47,2.35,2.35,0,0,0-1.53-.7c-.09,0-.63,0-1.61,0s-1.39,0-1.61,0a.71.71,0,0,0-.5.22s-.68,2.6-2,7.75-1.95,7.76-1.95,7.85.82.36,2.45.39c.59,0,1,0,1.13,0s.25.1.25.25a1.21,1.21,0,0,1-.08.39c-.07.33-.16.53-.25.58l-.05,0h-.2l-1.44,0q-1.31,0-3.75,0c-2.39,0-3.91,0-4.55.06h-.42c-.11-.11-.17-.19-.17-.25s0-.22.06-.5a1.15,1.15,0,0,1,.28-.53h1.08a7.44,7.44,0,0,0,2.64-.25.05.05,0,0,1,.05,0,1,1,0,0,0,.28-.55c.09-.32.46-1.77,1.11-4.36.31-1.26.57-2.29.78-3.08q1.94-7.64,1.94-7.8c0-.1-.27-.14-.8-.14h-.87a11.28,11.28,0,0,0-2.44.16,3.37,3.37,0,0,0-1.94,1.14,11.48,11.48,0,0,0-1.5,3.22,3.07,3.07,0,0,1-.28.72q-.07.12-.39.12Z" transform="translate(42.48 -71.67)"/><path class="c" d="M849.6,101.61a.84.84,0,0,1,.79-.59.89.89,0,0,1,.41.1.45.45,0,0,1,.2.18,1.45,1.45,0,0,0,.19.31l0,.39a16.14,16.14,0,0,1-.19,2.08c-.13.93-.21,1.56-.24,1.87v.1l.94-.24a5.86,5.86,0,0,1,1.14-.21.73.73,0,0,1,.61.21,1,1,0,0,1,.24.59.88.88,0,0,1-.2.53.85.85,0,0,1-.65.28,4.94,4.94,0,0,1-1.14-.22,7.5,7.5,0,0,0-.88-.22h-.06v.14c.07.5.13.93.2,1.3a6.24,6.24,0,0,0,.16.74,2.44,2.44,0,0,1,0,.53c0,.23,0,.55,0,1q0,2-.15,5.22a15.51,15.51,0,0,1-.32,3.37.55.55,0,0,1-.33.06h-.1c-.14,0-.23,0-.26-.08a5.46,5.46,0,0,1-.09-.86q-.36-4.05-.36-7.71c0-.53,0-.89,0-1.08a7.88,7.88,0,0,1,.18-.93,11.63,11.63,0,0,0,.25-1.53v-.14h0a8.21,8.21,0,0,0-.87.22,4.89,4.89,0,0,1-1.16.22.74.74,0,0,1-.62-.26,1,1,0,0,1-.22-.55.7.7,0,0,1,.2-.53.91.91,0,0,1,.64-.27,5,5,0,0,1,1.12.19l1,.26a1,1,0,0,1,0-.22,4.62,4.62,0,0,0,0-.59c0-.28-.1-.66-.16-1.12a16.06,16.06,0,0,1-.22-2.12Z" transform="translate(42.48 -71.67)"/><path class="c" d="M382.37,194.61c-.62,0-.95,0-1-.11a.54.54,0,0,1,0-.22,1.15,1.15,0,0,1,.3-.92,3.24,3.24,0,0,1,.47,0c.76,0,2,0,3.77,0h1.74c.53,0,.95,0,1.24,0a4.78,4.78,0,0,1,.56,0c.29,0,.44.1.44.28a3.75,3.75,0,0,1-.06.39c-.09.31-.18.5-.27.55h-.39l-.25,0a.53.53,0,0,1-.25,0,11.73,11.73,0,0,0-1.38.08.81.81,0,0,0-.5.31s-.28,1-.77,2.9-1,3.89-1.5,6-.77,3.31-.83,3.68a7,7,0,0,0-.05.8,3.13,3.13,0,0,0,.86,2.35,3.17,3.17,0,0,0,2.37.86,6.61,6.61,0,0,0,3.71-1.24,7.15,7.15,0,0,0,2.71-3.76l1.41-5.56c.87-3.54,1.3-5.39,1.3-5.53,0-.5-.59-.79-1.77-.86-.44,0-.66-.1-.66-.31a2.06,2.06,0,0,1,.05-.33,2.44,2.44,0,0,1,.17-.52c0-.06.13-.09.27-.11l.89,0,2.32.06q1.41,0,2.16,0l.8,0c.28,0,.42.1.42.28a1.16,1.16,0,0,1-.23.83c0,.09-.25.14-.6.14-1.31.07-2.13.44-2.47,1.11q0,.14-1.38,5.33c-.75,3.12-1.21,4.95-1.38,5.51a9.19,9.19,0,0,1-3.18,4.5,7.8,7.8,0,0,1-4.7,1.77,5.43,5.43,0,0,1-4.07-1.55,5.17,5.17,0,0,1-1.55-3.67v-.45q0-.49,1.53-6.58Q384,195,384,194.86C384,194.73,383.42,194.65,382.37,194.61Z" transform="translate(42.48 -71.67)"/><path class="c" d="M404.26,192.42a1,1,0,0,1-.84-.36,1.24,1.24,0,0,1-.32-.86,3.27,3.27,0,0,1,1-2.4,3.53,3.53,0,0,1,2.58-1,4.21,4.21,0,0,1,3,1.1,3.69,3.69,0,0,1,1.21,2.83,3.51,3.51,0,0,1-.39,1.61,5.33,5.33,0,0,1-.94,1.32c-.36.38-.88.86-1.56,1.45-.47.41-1.12,1-2,1.8L404.9,199h1.49a25.44,25.44,0,0,0,3.26-.09,5.36,5.36,0,0,0,.47-1.74v-.06h.78v.06s-.09.63-.25,1.78a15.61,15.61,0,0,1-.29,1.79v.06H403.1v-.6a.53.53,0,0,1,.12-.3c.08-.1.27-.33.59-.68s.7-.78,1-1.1l.67-.72.66-.72.57-.65c.26-.3.44-.52.55-.66s.25-.34.45-.59a3.81,3.81,0,0,0,.41-.62c.08-.17.17-.36.29-.57a2.8,2.8,0,0,0,.26-.63c.05-.21.09-.4.13-.58a3.13,3.13,0,0,0,.06-.65,3.5,3.5,0,0,0-.66-2.13,2.23,2.23,0,0,0-1.9-.9,2,2,0,0,0-1.13.33,2.3,2.3,0,0,0-.69.65,1.31,1.31,0,0,0-.19.37s0,0,.09,0a1.25,1.25,0,0,1,.73.27,1.08,1.08,0,0,1,.37.9,1.18,1.18,0,0,1-.31.82A1.23,1.23,0,0,1,404.26,192.42Z" transform="translate(42.48 -71.67)"/><path class="c" d="M413.23,185.62a2.42,2.42,0,0,1,2.11-1.12,2.77,2.77,0,0,1,1.33.36,2.61,2.61,0,0,1,1.08,1.27,8,8,0,0,1,.51,3.15,7.18,7.18,0,0,1-.6,3.28,2.56,2.56,0,0,1-1.6,1.35,3.47,3.47,0,0,1-.7.1,3.53,3.53,0,0,1-.72-.08,2.76,2.76,0,0,1-.85-.44,2.58,2.58,0,0,1-.76-.93,7.34,7.34,0,0,1-.59-3.28A6.91,6.91,0,0,1,413.23,185.62Zm3.11-.17a1.33,1.33,0,0,0-2,0,1.86,1.86,0,0,0-.45,1,18,18,0,0,0-.12,2.65,21.28,21.28,0,0,0,.12,2.88,1.94,1.94,0,0,0,.49,1.09,1.26,1.26,0,0,0,1,.42,1.23,1.23,0,0,0,.94-.42,2,2,0,0,0,.49-1.16,23.9,23.9,0,0,0,.11-2.81,18.57,18.57,0,0,0-.11-2.64A1.93,1.93,0,0,0,416.34,185.45Z" transform="translate(42.48 -71.67)"/><path class="c" d="M466.55,193.67c-.66,0-1,0-1.05-.11a.62.62,0,0,1,0-.24,1.22,1.22,0,0,1,.32-1,2,2,0,0,1,.49,0q1.2.06,4,.06h1.83c.56,0,1,0,1.31,0a2.56,2.56,0,0,1,.58,0c.31,0,.47.1.47.29,0,0,0,.18-.06.41a1.18,1.18,0,0,1-.29.58h-.41l-.26,0a.57.57,0,0,1-.26,0,12.4,12.4,0,0,0-1.46.09.8.8,0,0,0-.52.32s-.29,1-.82,3-1,4.09-1.57,6.28-.81,3.48-.87,3.87a5.73,5.73,0,0,0-.06.84,3.3,3.3,0,0,0,.91,2.47,3.34,3.34,0,0,0,2.5.91,7,7,0,0,0,3.89-1.31,7.48,7.48,0,0,0,2.85-4l1.48-5.84c.92-3.72,1.37-5.66,1.37-5.82q0-.78-1.86-.9c-.46,0-.7-.11-.7-.32a3,3,0,0,1,.06-.35,2.52,2.52,0,0,1,.18-.55c0-.06.13-.1.29-.12l.93,0,2.44.06c1,0,1.74,0,2.27,0l.84,0c.29,0,.44.1.44.29a1.24,1.24,0,0,1-.24.88c-.05.09-.27.14-.64.14-1.37.08-2.23.47-2.58,1.16q-.06.15-1.46,5.62c-.79,3.27-1.28,5.2-1.45,5.78A9.65,9.65,0,0,1,476,211a8.15,8.15,0,0,1-4.94,1.86,5.72,5.72,0,0,1-4.27-1.62,5.44,5.44,0,0,1-1.63-3.87v-.47c0-.35.53-2.65,1.6-6.92q1.43-5.83,1.42-6C468.2,193.8,467.65,193.71,466.55,193.67Z" transform="translate(42.48 -71.67)"/><path class="c" d="M489.55,191.37a1.14,1.14,0,0,1-.88-.37,1.32,1.32,0,0,1-.33-.91,3.42,3.42,0,0,1,1.09-2.53,3.73,3.73,0,0,1,2.71-1.07,4.49,4.49,0,0,1,3.13,1.15,4,4,0,0,1,1.27,3,3.56,3.56,0,0,1-.41,1.68,5.51,5.51,0,0,1-1,1.4c-.38.4-.93.9-1.64,1.52-.49.43-1.18,1.06-2.06,1.89l-1.21,1.15,1.56,0a24.79,24.79,0,0,0,3.44-.1,5.78,5.78,0,0,0,.49-1.83v-.06h.82v.06s-.1.67-.26,1.87a16.29,16.29,0,0,1-.31,1.89v.06h-7.63v-.63a.53.53,0,0,1,.12-.31c.09-.11.29-.35.62-.72l1-1.15c.12-.14.35-.39.7-.76s.57-.63.7-.76l.59-.68c.28-.32.47-.55.58-.7l.47-.62a3.39,3.39,0,0,0,.43-.65c.08-.18.19-.38.31-.6a3.06,3.06,0,0,0,.27-.66c0-.22.1-.42.14-.62a3.26,3.26,0,0,0,.06-.67,3.62,3.62,0,0,0-.7-2.24,2.3,2.3,0,0,0-2-.95,2.08,2.08,0,0,0-1.19.35,2.51,2.51,0,0,0-.72.68,1.48,1.48,0,0,0-.21.39s0,0,.11,0a1.25,1.25,0,0,1,.76.29,1.08,1.08,0,0,1,.39.94,1.24,1.24,0,0,1-.33.87A1.32,1.32,0,0,1,489.55,191.37Z" transform="translate(42.48 -71.67)"/><path class="c" d="M500.69,184.32l-.19.07a4.27,4.27,0,0,1-.58.15,6.85,6.85,0,0,1-.85.1h-.27V184h.27a4.62,4.62,0,0,0,1.27-.22,3.34,3.34,0,0,0,.81-.34c.16-.11.29-.22.41-.32s.08-.05.17-.05a.4.4,0,0,1,.25.09v4.35l0,4.36a.59.59,0,0,0,.17.13,1.29,1.29,0,0,0,.35.05q.27,0,.9,0h.38v.67h-.16c-.21,0-1,0-2.31,0s-2.08,0-2.29,0h-.17v-.67h1.29l.24,0,.11,0,.09-.08s.08-.06.09,0Z" transform="translate(42.48 -71.67)"/><path class="c" d="M659,194.42c-.66,0-1,0-1-.11a1.06,1.06,0,0,1,0-.23,1.2,1.2,0,0,1,.31-1,2.07,2.07,0,0,1,.5,0q1.18.06,3.93.06h1.82c.56,0,1,0,1.3,0a2.56,2.56,0,0,1,.58,0c.31,0,.46.1.46.29,0,0,0,.17-.05.41a1.13,1.13,0,0,1-.29.57h-.41l-.26,0a.57.57,0,0,1-.26,0,11.94,11.94,0,0,0-1.44.09.82.82,0,0,0-.53.32l-.81,3q-.78,3-1.56,6.25c-.52,2.18-.81,3.46-.86,3.85a5.73,5.73,0,0,0-.06.84,3.36,3.36,0,0,0,.89,2.46,3.4,3.4,0,0,0,2.49.89,6.9,6.9,0,0,0,3.88-1.3,7.46,7.46,0,0,0,2.83-3.93l1.48-5.82c.9-3.7,1.36-5.63,1.36-5.78q0-.78-1.86-.9c-.46,0-.69-.1-.69-.32a3,3,0,0,1,.06-.34,2.78,2.78,0,0,1,.17-.55.41.41,0,0,1,.29-.12l.93,0,2.43.06q1.47,0,2.25,0l.84,0c.29,0,.43.1.43.29a1.23,1.23,0,0,1-.23.87c0,.09-.27.14-.63.14-1.37.08-2.23.47-2.58,1.16q-.06.15-1.44,5.58c-.79,3.26-1.28,5.18-1.45,5.76a9.53,9.53,0,0,1-3.33,4.71,8.1,8.1,0,0,1-4.91,1.85,5.67,5.67,0,0,1-4.25-1.62,5.41,5.41,0,0,1-1.62-3.84v-.47c0-.34.53-2.64,1.59-6.88.94-3.88,1.41-5.87,1.41-6S660.13,194.46,659,194.42Z" transform="translate(42.48 -71.67)"/><path class="c" d="M681.91,192.13a1.11,1.11,0,0,1-.88-.37,1.28,1.28,0,0,1-.33-.9,3.41,3.41,0,0,1,1.09-2.51,3.69,3.69,0,0,1,2.7-1.07,4.42,4.42,0,0,1,3.11,1.15,3.88,3.88,0,0,1,1.26,3,3.54,3.54,0,0,1-.41,1.68,5.68,5.68,0,0,1-1,1.39c-.38.4-.92.9-1.63,1.51-.49.43-1.18,1.05-2.05,1.88l-1.2,1.15,1.55,0a24.27,24.27,0,0,0,3.41-.1,5.6,5.6,0,0,0,.5-1.82V197h.81v.06s-.1.66-.26,1.86a16.33,16.33,0,0,1-.31,1.88v.06H680.7v-.63a.55.55,0,0,1,.13-.31c.08-.11.28-.35.61-.71s.74-.82,1-1.15l.7-.76.69-.75.6-.68q.4-.47.57-.69c.11-.15.26-.36.47-.62a3.57,3.57,0,0,0,.43-.65,4.88,4.88,0,0,1,.31-.59,2.59,2.59,0,0,0,.26-.66c.06-.22.1-.42.14-.61a2.73,2.73,0,0,0,.07-.68,3.68,3.68,0,0,0-.7-2.23,2.32,2.32,0,0,0-2-.94,2.08,2.08,0,0,0-1.19.35,2.33,2.33,0,0,0-.71.68,1.22,1.22,0,0,0-.21.39s0,0,.1,0a1.28,1.28,0,0,1,.76.28,1.09,1.09,0,0,1,.39.94,1.2,1.2,0,0,1-.33.86A1.25,1.25,0,0,1,681.91,192.13Z" transform="translate(42.48 -71.67)"/><path class="c" d="M690.21,189.33c0-.06,0-.14,0-.23a4.54,4.54,0,0,1,.18-.55,4.08,4.08,0,0,1,.29-.68,1.75,1.75,0,0,1,.47-.54,1,1,0,0,1,.67-.24,1.42,1.42,0,0,1,.86.26,1.19,1.19,0,0,1,.44.49,1.29,1.29,0,0,1,.09.3s0,0,0,0l.16-.16a2.74,2.74,0,0,1,2-.92,1.94,1.94,0,0,1,1.26.39,1.45,1.45,0,0,1,.49,1.14,7.09,7.09,0,0,1-.55,2.27,7.54,7.54,0,0,0-.55,1.84c0,.25.08.37.24.37h.13a1.22,1.22,0,0,0,.76-.55,3.42,3.42,0,0,0,.5-1.16c0-.07.12-.11.29-.11s.29,0,.29.11l-.06.22a3.76,3.76,0,0,1-.32.82,2.62,2.62,0,0,1-.66.81,1.43,1.43,0,0,1-1,.39,1.16,1.16,0,0,1-1-.39,1.31,1.31,0,0,1-.3-.81,8.84,8.84,0,0,1,.52-1.73,8,8,0,0,0,.53-2.2c0-.57-.21-.85-.64-.85h-.07a2.45,2.45,0,0,0-2.09,1.46l-.1.17-.48,1.94c-.32,1.26-.5,1.94-.55,2a.64.64,0,0,1-.62.39.5.5,0,0,1-.31-.09.62.62,0,0,1-.16-.17.28.28,0,0,1,0-.15c0-.12.18-.91.55-2.35s.55-2.23.57-2.36a2,2,0,0,0,0-.33c0-.38-.12-.57-.35-.57s-.67.49-.91,1.45q-.09.28-.09.3t-.27.09h-.2C690.24,189.4,690.21,189.36,690.21,189.33Z" transform="translate(42.48 -71.67)"/><path class="c" d="M699.79,190.05v-.19a.3.3,0,0,1,.21-.28h8.4a.3.3,0,0,1,0,.57H700a.31.31,0,0,1-.21-.29Z" transform="translate(42.48 -71.67)"/><path class="c" d="M712.91,185.12l-.19.08c-.14,0-.33.09-.58.14a6.46,6.46,0,0,1-.84.1H711v-.66h.27a5,5,0,0,0,1.26-.22,3.66,3.66,0,0,0,.81-.35,2.67,2.67,0,0,0,.4-.32.29.29,0,0,1,.18,0,.38.38,0,0,1,.24.09v4.32l0,4.34a.59.59,0,0,0,.17.13,1.63,1.63,0,0,0,.35.06l.89,0H716v.67h-.16c-.2,0-1,0-2.3,0s-2.06,0-2.27,0h-.17v-.67h1.29l.23,0,.11,0,.09-.08s.08-.06.09-.05Z" transform="translate(42.48 -71.67)"/><path class="c" d="M551.53,194.42c-.65,0-1,0-1-.11a.6.6,0,0,1,0-.23,1.2,1.2,0,0,1,.32-1,2,2,0,0,1,.49,0c.79,0,2.1.06,3.94.06H557c.56,0,1,0,1.3,0a2.56,2.56,0,0,1,.58,0c.31,0,.46.1.46.29,0,0,0,.17-.06.41s-.19.52-.29.57h-.4l-.26,0a.57.57,0,0,1-.26,0,12.17,12.17,0,0,0-1.45.09.83.83,0,0,0-.52.32s-.29,1-.81,3-1,4.07-1.56,6.25-.81,3.46-.87,3.85a5.75,5.75,0,0,0,0,.84,3.32,3.32,0,0,0,.89,2.46,3.4,3.4,0,0,0,2.49.89,6.87,6.87,0,0,0,3.87-1.3,7.43,7.43,0,0,0,2.84-3.93l1.47-5.82q1.36-5.55,1.36-5.78c0-.52-.61-.82-1.85-.9-.46,0-.69-.1-.69-.32a3,3,0,0,1,.06-.34,2.2,2.2,0,0,1,.17-.55c0-.06.13-.1.29-.12l.92,0,2.43.06c1,0,1.74,0,2.26,0l.84,0c.29,0,.43.1.43.29a1.28,1.28,0,0,1-.23.87c-.06.09-.27.14-.64.14-1.36.08-2.22.47-2.57,1.16q-.06.15-1.45,5.58-1.18,4.89-1.44,5.76a9.6,9.6,0,0,1-3.33,4.71,8.1,8.1,0,0,1-4.91,1.85,5.7,5.7,0,0,1-4.26-1.62,5.41,5.41,0,0,1-1.62-3.84v-.47c0-.34.53-2.64,1.6-6.88.94-3.88,1.41-5.87,1.41-6S552.63,194.46,551.53,194.42Z" transform="translate(42.48 -71.67)"/><path class="c" d="M574.42,192.13a1.11,1.11,0,0,1-.88-.37,1.28,1.28,0,0,1-.33-.9,3.37,3.37,0,0,1,1.09-2.51,3.69,3.69,0,0,1,2.69-1.07,4.38,4.38,0,0,1,3.11,1.15,3.89,3.89,0,0,1,1.27,3,3.66,3.66,0,0,1-.41,1.68,5.68,5.68,0,0,1-1,1.39c-.38.4-.93.9-1.64,1.51-.49.43-1.17,1.05-2,1.88L575.09,199l1.56,0a24.27,24.27,0,0,0,3.41-.1,5.46,5.46,0,0,0,.49-1.82V197h.82v.06s-.1.66-.27,1.86a15.3,15.3,0,0,1-.3,1.88v.06h-7.59v-.63a.53.53,0,0,1,.12-.31c.09-.11.29-.35.62-.71l1-1.15.7-.76.69-.75.59-.68c.28-.31.47-.54.58-.69s.26-.36.47-.62a4.2,4.2,0,0,0,.43-.65,6.61,6.61,0,0,1,.3-.59,2.63,2.63,0,0,0,.27-.66c0-.22.1-.42.14-.61a3.37,3.37,0,0,0,.06-.68,3.67,3.67,0,0,0-.69-2.23,2.35,2.35,0,0,0-2-.94,2.05,2.05,0,0,0-1.18.35,2.51,2.51,0,0,0-.72.68,1.33,1.33,0,0,0-.2.39s0,0,.1,0a1.28,1.28,0,0,1,.76.28,1.09,1.09,0,0,1,.39.94,1.2,1.2,0,0,1-.33.86A1.27,1.27,0,0,1,574.42,192.13Z" transform="translate(42.48 -71.67)"/><path class="c" d="M582.72,189.33c0-.06,0-.14,0-.23s.08-.28.17-.55a6.93,6.93,0,0,1,.29-.68,1.94,1.94,0,0,1,.48-.54,1,1,0,0,1,.67-.24,1.42,1.42,0,0,1,.86.26,1.27,1.27,0,0,1,.44.49,1.67,1.67,0,0,1,.08.3s0,0,0,0l.16-.16a2.7,2.7,0,0,1,2-.92,1.89,1.89,0,0,1,1.25.39,1.43,1.43,0,0,1,.5,1.14,7.37,7.37,0,0,1-.55,2.27,7.54,7.54,0,0,0-.55,1.84c0,.25.08.37.24.37H589a1.18,1.18,0,0,0,.75-.55,3.43,3.43,0,0,0,.51-1.16c0-.07.12-.11.29-.11s.29,0,.29.11l-.06.22a4.35,4.35,0,0,1-.32.82,2.62,2.62,0,0,1-.66.81,1.43,1.43,0,0,1-1,.39,1.16,1.16,0,0,1-1-.39,1.27,1.27,0,0,1-.31-.81,9.71,9.71,0,0,1,.52-1.73,7.71,7.71,0,0,0,.54-2.2c0-.57-.21-.85-.64-.85h-.07a2.47,2.47,0,0,0-2.1,1.46l-.1.17-.47,1.94c-.32,1.26-.51,1.94-.55,2a.66.66,0,0,1-.63.39.49.49,0,0,1-.3-.09.5.5,0,0,1-.16-.17.22.22,0,0,1,0-.15c0-.12.19-.91.55-2.35s.56-2.23.58-2.36a2,2,0,0,0,0-.33c0-.38-.12-.57-.35-.57s-.67.49-.91,1.45q-.09.28-.09.3t-.27.09h-.21C582.75,189.4,582.72,189.36,582.72,189.33Z" transform="translate(42.48 -71.67)"/><path class="c" d="M592.3,190.05v-.19a.31.31,0,0,1,.2-.28h8.4a.29.29,0,0,1,0,.57h-8.4a.31.31,0,0,1-.2-.29Z" transform="translate(42.48 -71.67)"/><path class="c" d="M603.91,187.28a.79.79,0,0,1-.62-.26.92.92,0,0,1-.23-.64,2.41,2.41,0,0,1,.76-1.78,2.62,2.62,0,0,1,1.91-.75,3.13,3.13,0,0,1,2.2.81,2.76,2.76,0,0,1,.9,2.1,2.57,2.57,0,0,1-.29,1.18,4.28,4.28,0,0,1-.7,1c-.27.27-.65.63-1.15,1.06s-.83.75-1.45,1.33l-.85.81,1.1,0a19.37,19.37,0,0,0,2.41-.07,4,4,0,0,0,.35-1.29v0h.58v0s-.08.47-.19,1.32a11.61,11.61,0,0,1-.22,1.33v0h-5.36V193a.42.42,0,0,1,.08-.22l.44-.5.72-.81.49-.54.49-.53.42-.48a6.12,6.12,0,0,0,.41-.49c.07-.11.19-.25.33-.43a2.34,2.34,0,0,0,.3-.47c.06-.12.13-.26.22-.42a1.66,1.66,0,0,0,.19-.46c0-.15.07-.3.1-.43a2.33,2.33,0,0,0,0-.48,2.53,2.53,0,0,0-.49-1.57,1.62,1.62,0,0,0-1.4-.67,1.41,1.41,0,0,0-.84.25,1.64,1.64,0,0,0-.5.47,1.08,1.08,0,0,0-.15.28H604a1,1,0,0,1,.54.2.79.79,0,0,1,.27.67.84.84,0,0,1-.23.61A.9.9,0,0,1,603.91,187.28Z" transform="translate(42.48 -71.67)"/><circle class="c" cx="442.15" cy="12" r="4.42"/><line class="a" x1="442.15" y1="12" x2="442.15" y2="85.33"/><circle class="c" cx="526.48" cy="32.83" r="4.42"/><line class="a" x1="526.48" y1="32.83" x2="526.48" y2="85.33"/><circle class="c" cx="622.4" cy="54" r="4.42"/><line class="a" x1="622.4" y1="54" x2="622.4" y2="85.33"/><circle class="c" cx="729.31" cy="74.83" r="4.42"/><line class="a" x1="729.31" y1="74.83" x2="729.31" y2="85.33"/></svg>
