<?xml version="1.0" encoding="utf-8" standalone="no"?>
<!DOCTYPE svg PUBLIC "-//W3C//DTD SVG 1.1//EN"
  "http://www.w3.org/Graphics/SVG/1.1/DTD/svg11.dtd">
<!-- Created with matplotlib (https://matplotlib.org/) -->
<svg height="259.8354pt" version="1.1" viewBox="0 0 739.79796 259.8354" width="739.79796pt" xmlns="http://www.w3.org/2000/svg" xmlns:xlink="http://www.w3.org/1999/xlink">
 <defs>
  <style type="text/css">
*{stroke-linecap:butt;stroke-linejoin:round;}
  </style>
 </defs>
 <g id="figure_1">
  <g id="patch_1">
   <path d="M 0 259.8354 
L 739.79796 259.8354 
L 739.79796 0 
L 0 0 
z
" style="fill:#ffffff;"/>
  </g>
  <g id="axes_1">
   <g id="patch_2">
    <path clip-path="url(#p3c8592a68e)" d="M 540.34023 215.024697 
L 552.15749 215.024697 
L 546.24886 225.3648 
z
" style="fill:#778899;"/>
   </g>
   <g id="patch_3">
    <path clip-path="url(#p3c8592a68e)" d="M 585.79123 215.024697 
L 597.60849 215.024697 
L 591.69986 225.3648 
z
" style="fill:#778899;"/>
   </g>
   <g id="patch_4">
    <path clip-path="url(#p3c8592a68e)" d="M 631.24223 215.024697 
L 643.05949 215.024697 
L 637.15086 225.3648 
z
" style="fill:#778899;"/>
   </g>
   <g id="patch_5">
    <path clip-path="url(#p3c8592a68e)" d="M 676.69323 215.024697 
L 688.51049 215.024697 
L 682.60186 225.3648 
z
" style="fill:#778899;"/>
   </g>
   <g id="line2d_1">
    <path clip-path="url(#p3c8592a68e)" d="M 114.46436 43.5608 
L 728.05286 43.5608 
" style="fill:none;stroke:#000000;stroke-linecap:square;stroke-width:2;"/>
   </g>
   <g id="line2d_2">
    <path clip-path="url(#p3c8592a68e)" d="M 114.46436 89.0118 
L 728.05286 89.0118 
" style="fill:none;stroke:#000000;stroke-linecap:square;stroke-width:2;"/>
   </g>
   <g id="line2d_3">
    <path clip-path="url(#p3c8592a68e)" d="M 114.46436 134.4628 
L 728.05286 134.4628 
" style="fill:none;stroke:#000000;stroke-linecap:square;stroke-width:2;"/>
   </g>
   <g id="line2d_4">
    <path clip-path="url(#p3c8592a68e)" d="M 114.46436 179.9138 
L 728.05286 179.9138 
" style="fill:none;stroke:#000000;stroke-linecap:square;stroke-width:2;"/>
   </g>
   <g id="line2d_5">
    <path clip-path="url(#p3c8592a68e)" d="M 114.46436 223.887642 
L 728.05286 223.887642 
" style="fill:none;stroke:#778899;stroke-linecap:square;stroke-width:2;"/>
   </g>
   <g id="line2d_6">
    <path clip-path="url(#p3c8592a68e)" d="M 114.46436 226.841957 
L 728.05286 226.841957 
" style="fill:none;stroke:#778899;stroke-linecap:square;stroke-width:2;"/>
   </g>
   <g id="patch_6">
    <path clip-path="url(#p3c8592a68e)" d="M 173.777915 202.6393 
L 191.503805 202.6393 
L 191.503805 20.8353 
L 173.777915 20.8353 
z
" style="fill:#bdbdbd;opacity:0.6;"/>
   </g>
   <g id="patch_7">
    <path clip-path="url(#p3c8592a68e)" d="M 401.032915 202.6393 
L 418.758805 202.6393 
L 418.758805 20.8353 
L 401.032915 20.8353 
z
" style="fill:#bdbdbd;opacity:0.6;"/>
   </g>
   <g id="patch_8">
    <path clip-path="url(#p3c8592a68e)" d="M 491.934915 202.6393 
L 509.660805 202.6393 
L 509.660805 20.8353 
L 491.934915 20.8353 
z
" style="fill:#bdbdbd;opacity:0.6;"/>
   </g>
   <g id="line2d_7">
    <path clip-path="url(#p3c8592a68e)" d="M 228.09186 134.4628 
L 228.09186 43.5608 
" style="fill:none;stroke:#6fa4ff;stroke-linecap:square;stroke-width:2;"/>
   </g>
   <g id="line2d_8">
    <path clip-path="url(#p3c8592a68e)" d="M 273.54286 179.9138 
L 273.54286 43.5608 
" style="fill:none;stroke:#6fa4ff;stroke-linecap:square;stroke-width:2;"/>
   </g>
   <g id="line2d_9">
    <path clip-path="url(#p3c8592a68e)" d="M 318.99386 134.4628 
L 318.99386 89.0118 
" style="fill:none;stroke:#6fa4ff;stroke-linecap:square;stroke-width:2;"/>
   </g>
   <g id="line2d_10">
    <path clip-path="url(#p3c8592a68e)" d="M 364.44486 179.9138 
L 364.44486 89.0118 
" style="fill:none;stroke:#6fa4ff;stroke-linecap:square;stroke-width:2;"/>
   </g>
   <g id="line2d_11">
    <path clip-path="url(#p3c8592a68e)" d="M 547.726018 43.5608 
L 547.726018 215.024697 
" style="fill:none;stroke:#778899;stroke-linecap:square;stroke-width:2;"/>
   </g>
   <g id="line2d_12">
    <path clip-path="url(#p3c8592a68e)" d="M 544.771703 43.5608 
L 544.771703 215.024697 
" style="fill:none;stroke:#778899;stroke-linecap:square;stroke-width:2;"/>
   </g>
   <g id="line2d_13">
    <path clip-path="url(#p3c8592a68e)" d="M 593.177018 89.0118 
L 593.177018 215.024697 
" style="fill:none;stroke:#778899;stroke-linecap:square;stroke-width:2;"/>
   </g>
   <g id="line2d_14">
    <path clip-path="url(#p3c8592a68e)" d="M 590.222703 89.0118 
L 590.222703 215.024697 
" style="fill:none;stroke:#778899;stroke-linecap:square;stroke-width:2;"/>
   </g>
   <g id="line2d_15">
    <path clip-path="url(#p3c8592a68e)" d="M 638.628018 134.4628 
L 638.628018 215.024697 
" style="fill:none;stroke:#778899;stroke-linecap:square;stroke-width:2;"/>
   </g>
   <g id="line2d_16">
    <path clip-path="url(#p3c8592a68e)" d="M 635.673702 134.4628 
L 635.673702 215.024697 
" style="fill:none;stroke:#778899;stroke-linecap:square;stroke-width:2;"/>
   </g>
   <g id="line2d_17">
    <path clip-path="url(#p3c8592a68e)" d="M 684.079018 179.9138 
L 684.079018 215.024697 
" style="fill:none;stroke:#778899;stroke-linecap:square;stroke-width:2;"/>
   </g>
   <g id="line2d_18">
    <path clip-path="url(#p3c8592a68e)" d="M 681.124703 179.9138 
L 681.124703 215.024697 
" style="fill:none;stroke:#778899;stroke-linecap:square;stroke-width:2;"/>
   </g>
   <g id="line2d_19">
    <path clip-path="url(#p3c8592a68e)" d="M 141.73496 229.9099 
L 146.28006 220.8197 
" style="fill:none;stroke:#778899;stroke-linecap:square;stroke-width:1.5;"/>
   </g>
   <g id="patch_9">
    <path clip-path="url(#p3c8592a68e)" d="M 122.418285 58.332375 
L 151.961435 58.332375 
L 151.961435 28.789225 
L 122.418285 28.789225 
z
" style="fill:#6fa4ff;"/>
   </g>
   <g id="patch_10">
    <path clip-path="url(#p3c8592a68e)" d="M 122.418285 103.783375 
L 151.961435 103.783375 
L 151.961435 74.240225 
L 122.418285 74.240225 
z
" style="fill:#6fa4ff;"/>
   </g>
   <g id="patch_11">
    <path clip-path="url(#p3c8592a68e)" d="M 228.09186 47.992272 
C 229.2671 47.992272 230.394364 47.525345 231.225384 46.694324 
C 232.056405 45.863304 232.523333 44.73604 232.523333 43.5608 
C 232.523333 42.38556 232.056405 41.258296 231.225384 40.427276 
C 230.394364 39.596255 229.2671 39.129327 228.09186 39.129327 
C 226.91662 39.129327 225.789356 39.596255 224.958336 40.427276 
C 224.127315 41.258296 223.660388 42.38556 223.660388 43.5608 
C 223.660388 44.73604 224.127315 45.863304 224.958336 46.694324 
C 225.789356 47.525345 226.91662 47.992272 228.09186 47.992272 
z
" style="fill:#6fa4ff;stroke:#6fa4ff;stroke-linejoin:miter;stroke-width:1.5;"/>
   </g>
   <g id="patch_12">
    <path clip-path="url(#p3c8592a68e)" d="M 228.09186 144.802902 
C 230.834087 144.802902 233.464369 143.713404 235.403417 141.774357 
C 237.342464 139.835309 238.431963 137.205027 238.431963 134.4628 
C 238.431963 131.720573 237.342464 129.090291 235.403417 127.151243 
C 233.464369 125.212196 230.834087 124.122697 228.09186 124.122697 
C 225.349633 124.122697 222.719351 125.212196 220.780303 127.151243 
C 218.841256 129.090291 217.751758 131.720573 217.751758 134.4628 
C 217.751758 137.205027 218.841256 139.835309 220.780303 141.774357 
C 222.719351 143.713404 225.349633 144.802902 228.09186 144.802902 
z
" style="fill:#6fa4ff;stroke:#6fa4ff;stroke-linejoin:miter;stroke-width:2;"/>
   </g>
   <g id="patch_13">
    <path clip-path="url(#p3c8592a68e)" d="M 273.54286 47.992272 
C 274.7181 47.992272 275.845364 47.525345 276.676384 46.694324 
C 277.507405 45.863304 277.974333 44.73604 277.974333 43.5608 
C 277.974333 42.38556 277.507405 41.258296 276.676384 40.427276 
C 275.845364 39.596255 274.7181 39.129327 273.54286 39.129327 
C 272.36762 39.129327 271.240356 39.596255 270.409336 40.427276 
C 269.578315 41.258296 269.111388 42.38556 269.111388 43.5608 
C 269.111388 44.73604 269.578315 45.863304 270.409336 46.694324 
C 271.240356 47.525345 272.36762 47.992272 273.54286 47.992272 
z
" style="fill:#6fa4ff;stroke:#6fa4ff;stroke-linejoin:miter;stroke-width:1.5;"/>
   </g>
   <g id="patch_14">
    <path clip-path="url(#p3c8592a68e)" d="M 273.54286 190.253902 
C 276.285087 190.253902 278.915369 189.164404 280.854417 187.225357 
C 282.793464 185.286309 283.882963 182.656027 283.882963 179.9138 
C 283.882963 177.171573 282.793464 174.541291 280.854417 172.602243 
C 278.915369 170.663196 276.285087 169.573697 273.54286 169.573697 
C 270.800633 169.573697 268.170351 170.663196 266.231303 172.602243 
C 264.292256 174.541291 263.202758 177.171573 263.202758 179.9138 
C 263.202758 182.656027 264.292256 185.286309 266.231303 187.225357 
C 268.170351 189.164404 270.800633 190.253902 273.54286 190.253902 
z
" style="fill:#6fa4ff;stroke:#6fa4ff;stroke-linejoin:miter;stroke-width:2;"/>
   </g>
   <g id="patch_15">
    <path clip-path="url(#p3c8592a68e)" d="M 318.99386 93.443272 
C 320.1691 93.443272 321.296364 92.976345 322.127384 92.145324 
C 322.958405 91.314304 323.425333 90.18704 323.425333 89.0118 
C 323.425333 87.83656 322.958405 86.709296 322.127384 85.878276 
C 321.296364 85.047255 320.1691 84.580327 318.99386 84.580327 
C 317.81862 84.580327 316.691356 85.047255 315.860336 85.878276 
C 315.029315 86.709296 314.562388 87.83656 314.562388 89.0118 
C 314.562388 90.18704 315.029315 91.314304 315.860336 92.145324 
C 316.691356 92.976345 317.81862 93.443272 318.99386 93.443272 
z
" style="fill:#6fa4ff;stroke:#6fa4ff;stroke-linejoin:miter;stroke-width:1.5;"/>
   </g>
   <g id="patch_16">
    <path clip-path="url(#p3c8592a68e)" d="M 318.99386 144.802902 
C 321.736087 144.802902 324.366369 143.713404 326.305417 141.774357 
C 328.244464 139.835309 329.333963 137.205027 329.333963 134.4628 
C 329.333963 131.720573 328.244464 129.090291 326.305417 127.151243 
C 324.366369 125.212196 321.736087 124.122697 318.99386 124.122697 
C 316.251633 124.122697 313.621351 125.212196 311.682303 127.151243 
C 309.743256 129.090291 308.653758 131.720573 308.653758 134.4628 
C 308.653758 137.205027 309.743256 139.835309 311.682303 141.774357 
C 313.621351 143.713404 316.251633 144.802902 318.99386 144.802902 
z
" style="fill:#6fa4ff;stroke:#6fa4ff;stroke-linejoin:miter;stroke-width:2;"/>
   </g>
   <g id="patch_17">
    <path clip-path="url(#p3c8592a68e)" d="M 364.44486 93.443272 
C 365.6201 93.443272 366.747364 92.976345 367.578384 92.145324 
C 368.409405 91.314304 368.876333 90.18704 368.876333 89.0118 
C 368.876333 87.83656 368.409405 86.709296 367.578384 85.878276 
C 366.747364 85.047255 365.6201 84.580327 364.44486 84.580327 
C 363.26962 84.580327 362.142356 85.047255 361.311336 85.878276 
C 360.480315 86.709296 360.013388 87.83656 360.013388 89.0118 
C 360.013388 90.18704 360.480315 91.314304 361.311336 92.145324 
C 362.142356 92.976345 363.26962 93.443272 364.44486 93.443272 
z
" style="fill:#6fa4ff;stroke:#6fa4ff;stroke-linejoin:miter;stroke-width:1.5;"/>
   </g>
   <g id="patch_18">
    <path clip-path="url(#p3c8592a68e)" d="M 364.44486 190.253902 
C 367.187087 190.253902 369.817369 189.164404 371.756417 187.225357 
C 373.695464 185.286309 374.784963 182.656027 374.784963 179.9138 
C 374.784963 177.171573 373.695464 174.541291 371.756417 172.602243 
C 369.817369 170.663196 367.187087 169.573697 364.44486 169.573697 
C 361.702633 169.573697 359.072351 170.663196 357.133303 172.602243 
C 355.194256 174.541291 354.104758 177.171573 354.104758 179.9138 
C 354.104758 182.656027 355.194256 185.286309 357.133303 187.225357 
C 359.072351 189.164404 361.702633 190.253902 364.44486 190.253902 
z
" style="fill:#6fa4ff;stroke:#6fa4ff;stroke-linejoin:miter;stroke-width:2;"/>
   </g>
   <g id="patch_19">
    <path clip-path="url(#p3c8592a68e)" d="M 440.575285 58.332375 
L 470.118435 58.332375 
L 470.118435 28.789225 
L 440.575285 28.789225 
z
" style="fill:#6fa4ff;"/>
   </g>
   <g id="patch_20">
    <path clip-path="url(#p3c8592a68e)" d="M 440.575285 103.783375 
L 470.118435 103.783375 
L 470.118435 74.240225 
L 440.575285 74.240225 
z
" style="fill:#6fa4ff;"/>
   </g>
   <g id="patch_21">
    <path clip-path="url(#p3c8592a68e)" d="M 531.477285 58.332375 
L 561.020435 58.332375 
L 561.020435 28.789225 
L 531.477285 28.789225 
z
"/>
   </g>
   <g id="patch_22">
    <path clip-path="url(#p3c8592a68e)" d="M 556.588963 47.992272 
C 556.588963 45.250959 555.498818 42.619118 553.560417 40.680716 
C 551.622015 38.742314 548.990174 37.65217 546.24886 37.65217 
C 543.507546 37.65217 540.875705 38.742314 538.937303 40.680716 
C 536.998902 42.619118 535.908758 45.250959 535.908758 47.992272 
" style="fill:none;stroke:#ffffff;stroke-linejoin:miter;stroke-width:2;"/>
   </g>
   <g id="patch_23">
    <path clip-path="url(#p3c8592a68e)" d="M 576.928285 103.783375 
L 606.471435 103.783375 
L 606.471435 74.240225 
L 576.928285 74.240225 
z
"/>
   </g>
   <g id="patch_24">
    <path clip-path="url(#p3c8592a68e)" d="M 602.039963 93.443272 
C 602.039963 90.701959 600.949818 88.070118 599.011417 86.131716 
C 597.073015 84.193314 594.441174 83.10317 591.69986 83.10317 
C 588.958546 83.10317 586.326705 84.193314 584.388303 86.131716 
C 582.449902 88.070118 581.359758 90.701959 581.359758 93.443272 
" style="fill:none;stroke:#ffffff;stroke-linejoin:miter;stroke-width:2;"/>
   </g>
   <g id="patch_25">
    <path clip-path="url(#p3c8592a68e)" d="M 622.379285 149.234375 
L 651.922435 149.234375 
L 651.922435 119.691225 
L 622.379285 119.691225 
z
"/>
   </g>
   <g id="patch_26">
    <path clip-path="url(#p3c8592a68e)" d="M 647.490963 138.894272 
C 647.490963 136.152959 646.400818 133.521118 644.462417 131.582716 
C 642.524015 129.644314 639.892174 128.55417 637.15086 128.55417 
C 634.409546 128.55417 631.777705 129.644314 629.839303 131.582716 
C 627.900902 133.521118 626.810758 136.152959 626.810758 138.894272 
" style="fill:none;stroke:#ffffff;stroke-linejoin:miter;stroke-width:2;"/>
   </g>
   <g id="patch_27">
    <path clip-path="url(#p3c8592a68e)" d="M 667.830285 194.685375 
L 697.373435 194.685375 
L 697.373435 165.142225 
L 667.830285 165.142225 
z
"/>
   </g>
   <g id="patch_28">
    <path clip-path="url(#p3c8592a68e)" d="M 692.941963 184.345272 
C 692.941963 181.603959 691.851818 178.972118 689.913417 177.033716 
C 687.975015 175.095314 685.343174 174.00517 682.60186 174.00517 
C 679.860546 174.00517 677.228705 175.095314 675.290303 177.033716 
C 673.351902 178.972118 672.261758 181.603959 672.261758 184.345272 
" style="fill:none;stroke:#ffffff;stroke-linejoin:miter;stroke-width:2;"/>
   </g>
   <g id="line2d_20">
    <path clip-path="url(#p3c8592a68e)" d="M 546.24886 47.992272 
L 556.588962 37.65217 
" style="fill:none;stroke:#ffffff;stroke-linecap:square;stroke-width:2;"/>
   </g>
   <g id="line2d_21">
    <path clip-path="url(#p3c8592a68e)" d="M 591.69986 93.443272 
L 602.039963 83.10317 
" style="fill:none;stroke:#ffffff;stroke-linecap:square;stroke-width:2;"/>
   </g>
   <g id="line2d_22">
    <path clip-path="url(#p3c8592a68e)" d="M 637.15086 138.894272 
L 647.490963 128.55417 
" style="fill:none;stroke:#ffffff;stroke-linecap:square;stroke-width:2;"/>
   </g>
   <g id="line2d_23">
    <path clip-path="url(#p3c8592a68e)" d="M 682.60186 184.345272 
L 692.941963 174.00517 
" style="fill:none;stroke:#ffffff;stroke-linecap:square;stroke-width:2;"/>
   </g>
   <g id="line2d_24">
    <path clip-path="url(#p3c8592a68e)" d="M 182.64086 20.8353 
L 182.64086 66.2863 
" style="fill:none;stroke:#000000;stroke-dasharray:3.7,1.6;stroke-dashoffset:0;"/>
   </g>
   <g id="line2d_25">
    <path clip-path="url(#p3c8592a68e)" d="M 182.64086 66.2863 
L 182.64086 111.7373 
" style="fill:none;stroke:#000000;stroke-dasharray:3.7,1.6;stroke-dashoffset:0;"/>
   </g>
   <g id="line2d_26">
    <path clip-path="url(#p3c8592a68e)" d="M 182.64086 111.7373 
L 182.64086 157.1883 
" style="fill:none;stroke:#000000;stroke-dasharray:3.7,1.6;stroke-dashoffset:0;"/>
   </g>
   <g id="line2d_27">
    <path clip-path="url(#p3c8592a68e)" d="M 182.64086 157.1883 
L 182.64086 202.6393 
" style="fill:none;stroke:#000000;stroke-dasharray:3.7,1.6;stroke-dashoffset:0;"/>
   </g>
   <g id="line2d_28">
    <path clip-path="url(#p3c8592a68e)" d="M 228.09186 140.37143 
L 228.09186 128.55417 
" style="fill:none;stroke:#ffffff;stroke-linecap:square;stroke-width:2;"/>
   </g>
   <g id="line2d_29">
    <path clip-path="url(#p3c8592a68e)" d="M 222.18323 134.4628 
L 234.00049 134.4628 
" style="fill:none;stroke:#ffffff;stroke-linecap:square;stroke-width:2;"/>
   </g>
   <g id="line2d_30">
    <path clip-path="url(#p3c8592a68e)" d="M 273.54286 185.82243 
L 273.54286 174.00517 
" style="fill:none;stroke:#ffffff;stroke-linecap:square;stroke-width:2;"/>
   </g>
   <g id="line2d_31">
    <path clip-path="url(#p3c8592a68e)" d="M 267.63423 179.9138 
L 279.45149 179.9138 
" style="fill:none;stroke:#ffffff;stroke-linecap:square;stroke-width:2;"/>
   </g>
   <g id="line2d_32">
    <path clip-path="url(#p3c8592a68e)" d="M 318.99386 140.37143 
L 318.99386 128.55417 
" style="fill:none;stroke:#ffffff;stroke-linecap:square;stroke-width:2;"/>
   </g>
   <g id="line2d_33">
    <path clip-path="url(#p3c8592a68e)" d="M 313.08523 134.4628 
L 324.90249 134.4628 
" style="fill:none;stroke:#ffffff;stroke-linecap:square;stroke-width:2;"/>
   </g>
   <g id="line2d_34">
    <path clip-path="url(#p3c8592a68e)" d="M 364.44486 185.82243 
L 364.44486 174.00517 
" style="fill:none;stroke:#ffffff;stroke-linecap:square;stroke-width:2;"/>
   </g>
   <g id="line2d_35">
    <path clip-path="url(#p3c8592a68e)" d="M 358.53623 179.9138 
L 370.35349 179.9138 
" style="fill:none;stroke:#ffffff;stroke-linecap:square;stroke-width:2;"/>
   </g>
   <g id="line2d_36">
    <path clip-path="url(#p3c8592a68e)" d="M 409.89586 20.8353 
L 409.89586 66.2863 
" style="fill:none;stroke:#000000;stroke-dasharray:3.7,1.6;stroke-dashoffset:0;"/>
   </g>
   <g id="line2d_37">
    <path clip-path="url(#p3c8592a68e)" d="M 409.89586 66.2863 
L 409.89586 111.7373 
" style="fill:none;stroke:#000000;stroke-dasharray:3.7,1.6;stroke-dashoffset:0;"/>
   </g>
   <g id="line2d_38">
    <path clip-path="url(#p3c8592a68e)" d="M 409.89586 111.7373 
L 409.89586 157.1883 
" style="fill:none;stroke:#000000;stroke-dasharray:3.7,1.6;stroke-dashoffset:0;"/>
   </g>
   <g id="line2d_39">
    <path clip-path="url(#p3c8592a68e)" d="M 409.89586 157.1883 
L 409.89586 202.6393 
" style="fill:none;stroke:#000000;stroke-dasharray:3.7,1.6;stroke-dashoffset:0;"/>
   </g>
   <g id="line2d_40">
    <path clip-path="url(#p3c8592a68e)" d="M 500.79786 20.8353 
L 500.79786 66.2863 
" style="fill:none;stroke:#000000;stroke-dasharray:3.7,1.6;stroke-dashoffset:0;"/>
   </g>
   <g id="line2d_41">
    <path clip-path="url(#p3c8592a68e)" d="M 500.79786 66.2863 
L 500.79786 111.7373 
" style="fill:none;stroke:#000000;stroke-dasharray:3.7,1.6;stroke-dashoffset:0;"/>
   </g>
   <g id="line2d_42">
    <path clip-path="url(#p3c8592a68e)" d="M 500.79786 111.7373 
L 500.79786 157.1883 
" style="fill:none;stroke:#000000;stroke-dasharray:3.7,1.6;stroke-dashoffset:0;"/>
   </g>
   <g id="line2d_43">
    <path clip-path="url(#p3c8592a68e)" d="M 500.79786 157.1883 
L 500.79786 202.6393 
" style="fill:none;stroke:#000000;stroke-dasharray:3.7,1.6;stroke-dashoffset:0;"/>
   </g>
   <g id="text_1">
    <g clip-path="url(#p3c8592a68e)">
     <!-- $H$ -->
     <defs>
      <path d="M 16.890625 72.90625 
L 26.8125 72.90625 
L 21 43.015625 
L 56.78125 43.015625 
L 62.59375 72.90625 
L 72.515625 72.90625 
L 58.296875 0 
L 48.390625 0 
L 55.171875 34.71875 
L 19.390625 34.71875 
L 12.59375 0 
L 2.6875 0 
z
" id="DejaVuSans-Oblique-72"/>
     </defs>
     <g transform="translate(132.24986 47.147987)scale(0.13 -0.13)">
      <use transform="translate(0 0.09375)" xlink:href="#DejaVuSans-Oblique-72"/>
     </g>
    </g>
   </g>
   <g id="text_2">
    <g clip-path="url(#p3c8592a68e)">
     <!-- $H$ -->
     <g transform="translate(132.24986 92.598987)scale(0.13 -0.13)">
      <use transform="translate(0 0.09375)" xlink:href="#DejaVuSans-Oblique-72"/>
     </g>
    </g>
   </g>
   <g id="text_3">
    <g clip-path="url(#p3c8592a68e)">
     <!-- $H$ -->
     <g transform="translate(450.40686 47.147987)scale(0.13 -0.13)">
      <use transform="translate(0 0.09375)" xlink:href="#DejaVuSans-Oblique-72"/>
     </g>
    </g>
   </g>
   <g id="text_4">
    <g clip-path="url(#p3c8592a68e)">
     <!-- $H$ -->
     <g transform="translate(450.40686 92.598987)scale(0.13 -0.13)">
      <use transform="translate(0 0.09375)" xlink:href="#DejaVuSans-Oblique-72"/>
     </g>
    </g>
   </g>
   <g id="text_5">
    <g clip-path="url(#p3c8592a68e)">
     <!-- 0 -->
     <defs>
      <path d="M 31.78125 66.40625 
Q 24.171875 66.40625 20.328125 58.90625 
Q 16.5 51.421875 16.5 36.375 
Q 16.5 21.390625 20.328125 13.890625 
Q 24.171875 6.390625 31.78125 6.390625 
Q 39.453125 6.390625 43.28125 13.890625 
Q 47.125 21.390625 47.125 36.375 
Q 47.125 51.421875 43.28125 58.90625 
Q 39.453125 66.40625 31.78125 66.40625 
z
M 31.78125 74.21875 
Q 44.046875 74.21875 50.515625 64.515625 
Q 56.984375 54.828125 56.984375 36.375 
Q 56.984375 17.96875 50.515625 8.265625 
Q 44.046875 -1.421875 31.78125 -1.421875 
Q 19.53125 -1.421875 13.0625 8.265625 
Q 6.59375 17.96875 6.59375 36.375 
Q 6.59375 54.828125 13.0625 64.515625 
Q 19.53125 74.21875 31.78125 74.21875 
z
" id="DejaVuSans-48"/>
     </defs>
     <g transform="translate(557.61161 218.656825)scale(0.104 -0.104)">
      <use xlink:href="#DejaVuSans-48"/>
     </g>
    </g>
   </g>
   <g id="text_6">
    <g clip-path="url(#p3c8592a68e)">
     <!-- 1 -->
     <defs>
      <path d="M 12.40625 8.296875 
L 28.515625 8.296875 
L 28.515625 63.921875 
L 10.984375 60.40625 
L 10.984375 69.390625 
L 28.421875 72.90625 
L 38.28125 72.90625 
L 38.28125 8.296875 
L 54.390625 8.296875 
L 54.390625 0 
L 12.40625 0 
z
" id="DejaVuSans-49"/>
     </defs>
     <g transform="translate(603.06261 218.656825)scale(0.104 -0.104)">
      <use xlink:href="#DejaVuSans-49"/>
     </g>
    </g>
   </g>
   <g id="text_7">
    <g clip-path="url(#p3c8592a68e)">
     <!-- 2 -->
     <defs>
      <path d="M 19.1875 8.296875 
L 53.609375 8.296875 
L 53.609375 0 
L 7.328125 0 
L 7.328125 8.296875 
Q 12.9375 14.109375 22.625 23.890625 
Q 32.328125 33.6875 34.8125 36.53125 
Q 39.546875 41.84375 41.421875 45.53125 
Q 43.3125 49.21875 43.3125 52.78125 
Q 43.3125 58.59375 39.234375 62.25 
Q 35.15625 65.921875 28.609375 65.921875 
Q 23.96875 65.921875 18.8125 64.3125 
Q 13.671875 62.703125 7.8125 59.421875 
L 7.8125 69.390625 
Q 13.765625 71.78125 18.9375 73 
Q 24.125 74.21875 28.421875 74.21875 
Q 39.75 74.21875 46.484375 68.546875 
Q 53.21875 62.890625 53.21875 53.421875 
Q 53.21875 48.921875 51.53125 44.890625 
Q 49.859375 40.875 45.40625 35.40625 
Q 44.1875 33.984375 37.640625 27.21875 
Q 31.109375 20.453125 19.1875 8.296875 
z
" id="DejaVuSans-50"/>
     </defs>
     <g transform="translate(648.51361 218.656825)scale(0.104 -0.104)">
      <use xlink:href="#DejaVuSans-50"/>
     </g>
    </g>
   </g>
   <g id="text_8">
    <g clip-path="url(#p3c8592a68e)">
     <!-- 3 -->
     <defs>
      <path d="M 40.578125 39.3125 
Q 47.65625 37.796875 51.625 33 
Q 55.609375 28.21875 55.609375 21.1875 
Q 55.609375 10.40625 48.1875 4.484375 
Q 40.765625 -1.421875 27.09375 -1.421875 
Q 22.515625 -1.421875 17.65625 -0.515625 
Q 12.796875 0.390625 7.625 2.203125 
L 7.625 11.71875 
Q 11.71875 9.328125 16.59375 8.109375 
Q 21.484375 6.890625 26.8125 6.890625 
Q 36.078125 6.890625 40.9375 10.546875 
Q 45.796875 14.203125 45.796875 21.1875 
Q 45.796875 27.640625 41.28125 31.265625 
Q 36.765625 34.90625 28.71875 34.90625 
L 20.21875 34.90625 
L 20.21875 43.015625 
L 29.109375 43.015625 
Q 36.375 43.015625 40.234375 45.921875 
Q 44.09375 48.828125 44.09375 54.296875 
Q 44.09375 59.90625 40.109375 62.90625 
Q 36.140625 65.921875 28.71875 65.921875 
Q 24.65625 65.921875 20.015625 65.03125 
Q 15.375 64.15625 9.8125 62.3125 
L 9.8125 71.09375 
Q 15.4375 72.65625 20.34375 73.4375 
Q 25.25 74.21875 29.59375 74.21875 
Q 40.828125 74.21875 47.359375 69.109375 
Q 53.90625 64.015625 53.90625 55.328125 
Q 53.90625 49.265625 50.4375 45.09375 
Q 46.96875 40.921875 40.578125 39.3125 
z
" id="DejaVuSans-51"/>
     </defs>
     <g transform="translate(693.96461 218.656825)scale(0.104 -0.104)">
      <use xlink:href="#DejaVuSans-51"/>
     </g>
    </g>
   </g>
   <g id="text_9">
    <g clip-path="url(#p3c8592a68e)">
     <!-- $q_{0}$ -->
     <defs>
      <path d="M 41.703125 8.203125 
Q 38.09375 3.46875 33.171875 1.015625 
Q 28.265625 -1.421875 22.3125 -1.421875 
Q 14.015625 -1.421875 9.296875 4.171875 
Q 4.59375 9.765625 4.59375 19.578125 
Q 4.59375 27.484375 7.5 34.859375 
Q 10.40625 42.234375 15.828125 48.09375 
Q 19.34375 51.90625 23.90625 53.953125 
Q 28.46875 56 33.5 56 
Q 39.546875 56 43.453125 53.609375 
Q 47.359375 51.21875 49.125 46.390625 
L 50.6875 54.59375 
L 59.71875 54.59375 
L 45.125 -20.609375 
L 36.078125 -20.609375 
z
M 13.921875 20.90625 
Q 13.921875 13.671875 16.9375 9.890625 
Q 19.96875 6.109375 25.6875 6.109375 
Q 34.1875 6.109375 40.1875 14.234375 
Q 46.1875 22.359375 46.1875 33.984375 
Q 46.1875 41.015625 43.078125 44.75 
Q 39.984375 48.484375 34.1875 48.484375 
Q 29.9375 48.484375 26.3125 46.5 
Q 22.703125 44.53125 20.015625 40.71875 
Q 17.1875 36.71875 15.546875 31.34375 
Q 13.921875 25.984375 13.921875 20.90625 
z
" id="DejaVuSans-Oblique-113"/>
     </defs>
     <g transform="translate(73.70136 48.011777)scale(0.1625 -0.1625)">
      <use xlink:href="#DejaVuSans-Oblique-113"/>
      <use transform="translate(63.476562 -16.40625)scale(0.7)" xlink:href="#DejaVuSans-48"/>
     </g>
    </g>
   </g>
   <g id="text_10">
    <g clip-path="url(#p3c8592a68e)">
     <!-- $q_{1}$ -->
     <g transform="translate(73.70136 93.462777)scale(0.1625 -0.1625)">
      <use xlink:href="#DejaVuSans-Oblique-113"/>
      <use transform="translate(63.476562 -16.40625)scale(0.7)" xlink:href="#DejaVuSans-49"/>
     </g>
    </g>
   </g>
   <g id="text_11">
    <g clip-path="url(#p3c8592a68e)">
     <!-- $q_{2}$ -->
     <g transform="translate(73.70136 138.913777)scale(0.1625 -0.1625)">
      <use xlink:href="#DejaVuSans-Oblique-113"/>
      <use transform="translate(63.476562 -16.40625)scale(0.7)" xlink:href="#DejaVuSans-50"/>
     </g>
    </g>
   </g>
   <g id="text_12">
    <g clip-path="url(#p3c8592a68e)">
     <!-- $q_{3}$ -->
     <g transform="translate(73.70136 184.364777)scale(0.1625 -0.1625)">
      <use xlink:href="#DejaVuSans-Oblique-113"/>
      <use transform="translate(63.476562 -16.40625)scale(0.7)" xlink:href="#DejaVuSans-51"/>
     </g>
    </g>
   </g>
   <g id="text_13">
    <g clip-path="url(#p3c8592a68e)">
     <!-- 4 -->
     <defs>
      <path d="M 37.796875 64.3125 
L 12.890625 25.390625 
L 37.796875 25.390625 
z
M 35.203125 72.90625 
L 47.609375 72.90625 
L 47.609375 25.390625 
L 58.015625 25.390625 
L 58.015625 17.1875 
L 47.609375 17.1875 
L 47.609375 0 
L 37.796875 0 
L 37.796875 17.1875 
L 4.890625 17.1875 
L 4.890625 26.703125 
z
" id="DejaVuSans-52"/>
     </defs>
     <g transform="translate(137.18986 218.656825)scale(0.104 -0.104)">
      <use xlink:href="#DejaVuSans-52"/>
     </g>
    </g>
   </g>
   <g id="text_14">
    <g clip-path="url(#p3c8592a68e)">
     <!-- $measure$ -->
     <defs>
      <path d="M 89.796875 33.015625 
L 83.40625 0 
L 74.421875 0 
L 80.71875 32.71875 
Q 81.109375 34.8125 81.296875 36.328125 
Q 81.5 37.84375 81.5 38.921875 
Q 81.5 43.3125 79.046875 45.75 
Q 76.609375 48.1875 72.21875 48.1875 
Q 65.671875 48.1875 60.546875 43.28125 
Q 55.421875 38.375 53.90625 30.515625 
L 47.90625 0 
L 38.921875 0 
L 45.3125 32.71875 
Q 45.703125 34.515625 45.890625 36.046875 
Q 46.09375 37.59375 46.09375 38.8125 
Q 46.09375 43.265625 43.65625 45.71875 
Q 41.21875 48.1875 36.921875 48.1875 
Q 30.28125 48.1875 25.140625 43.28125 
Q 20.015625 38.375 18.5 30.515625 
L 12.5 0 
L 3.515625 0 
L 14.203125 54.6875 
L 23.1875 54.6875 
L 21.484375 46.1875 
Q 25.140625 50.984375 30.046875 53.484375 
Q 34.96875 56 40.578125 56 
Q 46.53125 56 50.359375 52.875 
Q 54.203125 49.75 54.984375 44.1875 
Q 59.078125 49.953125 64.46875 52.96875 
Q 69.875 56 75.875 56 
Q 82.90625 56 86.734375 51.953125 
Q 90.578125 47.90625 90.578125 40.484375 
Q 90.578125 38.875 90.375 36.9375 
Q 90.1875 35.015625 89.796875 33.015625 
z
" id="DejaVuSans-Oblique-109"/>
      <path d="M 48.09375 32.234375 
Q 48.25 33.015625 48.3125 33.84375 
Q 48.390625 34.671875 48.390625 35.5 
Q 48.390625 41.453125 44.890625 44.921875 
Q 41.40625 48.390625 35.40625 48.390625 
Q 28.71875 48.390625 23.578125 44.15625 
Q 18.453125 39.9375 15.828125 32.171875 
z
M 55.90625 25.203125 
L 14.109375 25.203125 
Q 13.8125 23.34375 13.71875 22.265625 
Q 13.625 21.1875 13.625 20.40625 
Q 13.625 13.625 17.796875 9.90625 
Q 21.96875 6.203125 29.59375 6.203125 
Q 35.453125 6.203125 40.671875 7.515625 
Q 45.90625 8.84375 50.390625 11.375 
L 48.6875 2.484375 
Q 43.84375 0.53125 38.6875 -0.4375 
Q 33.546875 -1.421875 28.21875 -1.421875 
Q 16.84375 -1.421875 10.71875 4.015625 
Q 4.59375 9.46875 4.59375 19.484375 
Q 4.59375 28.03125 7.640625 35.375 
Q 10.6875 42.71875 16.609375 48.484375 
Q 20.40625 52.09375 25.65625 54.046875 
Q 30.90625 56 36.8125 56 
Q 46.09375 56 51.578125 50.4375 
Q 57.078125 44.875 57.078125 35.5 
Q 57.078125 33.25 56.78125 30.6875 
Q 56.5 28.125 55.90625 25.203125 
z
" id="DejaVuSans-Oblique-101"/>
      <path d="M 53.71875 31.203125 
L 47.609375 0 
L 38.625 0 
L 40.28125 8.296875 
Q 36.328125 3.421875 31.265625 1 
Q 26.21875 -1.421875 20.015625 -1.421875 
Q 13.03125 -1.421875 8.5625 2.84375 
Q 4.109375 7.125 4.109375 13.8125 
Q 4.109375 23.390625 11.75 28.953125 
Q 19.390625 34.515625 32.8125 34.515625 
L 45.3125 34.515625 
L 45.796875 36.921875 
Q 45.90625 37.3125 45.953125 37.765625 
Q 46 38.234375 46 39.203125 
Q 46 43.5625 42.453125 45.96875 
Q 38.921875 48.390625 32.515625 48.390625 
Q 28.125 48.390625 23.5 47.265625 
Q 18.890625 46.140625 14.015625 43.890625 
L 15.578125 52.203125 
Q 20.65625 54.109375 25.515625 55.046875 
Q 30.375 56 34.90625 56 
Q 44.578125 56 49.625 51.796875 
Q 54.6875 47.609375 54.6875 39.59375 
Q 54.6875 37.984375 54.4375 35.8125 
Q 54.203125 33.640625 53.71875 31.203125 
z
M 44 27.484375 
L 35.015625 27.484375 
Q 23.96875 27.484375 18.671875 24.53125 
Q 13.375 21.578125 13.375 15.375 
Q 13.375 11.078125 16.078125 8.640625 
Q 18.796875 6.203125 23.578125 6.203125 
Q 30.90625 6.203125 36.375 11.453125 
Q 41.84375 16.703125 43.609375 25.484375 
z
" id="DejaVuSans-Oblique-97"/>
      <path d="M 50 53.078125 
L 48.296875 44.578125 
Q 44.734375 46.53125 40.765625 47.5 
Q 36.8125 48.484375 32.625 48.484375 
Q 25.53125 48.484375 21.453125 46.0625 
Q 17.390625 43.65625 17.390625 39.5 
Q 17.390625 34.671875 26.859375 32.078125 
Q 27.59375 31.890625 27.9375 31.78125 
L 30.8125 30.90625 
Q 39.796875 28.421875 42.796875 25.6875 
Q 45.796875 22.953125 45.796875 18.21875 
Q 45.796875 9.515625 38.890625 4.046875 
Q 31.984375 -1.421875 20.796875 -1.421875 
Q 16.453125 -1.421875 11.671875 -0.578125 
Q 6.890625 0.25 1.125 2 
L 2.875 11.28125 
Q 7.8125 8.734375 12.59375 7.421875 
Q 17.390625 6.109375 21.78125 6.109375 
Q 28.375 6.109375 32.5 8.9375 
Q 36.625 11.765625 36.625 16.109375 
Q 36.625 20.796875 25.78125 23.6875 
L 24.859375 23.921875 
L 21.78125 24.703125 
Q 14.9375 26.515625 11.765625 29.46875 
Q 8.59375 32.421875 8.59375 37.015625 
Q 8.59375 45.75 15.15625 50.875 
Q 21.734375 56 33.015625 56 
Q 37.453125 56 41.671875 55.265625 
Q 45.90625 54.546875 50 53.078125 
z
" id="DejaVuSans-Oblique-115"/>
      <path d="M 6.6875 21.6875 
L 13.09375 54.6875 
L 22.125 54.6875 
L 15.71875 22.015625 
Q 15.234375 19.625 15.015625 17.921875 
Q 14.796875 16.21875 14.796875 15.09375 
Q 14.796875 10.9375 17.328125 8.65625 
Q 19.875 6.390625 24.515625 6.390625 
Q 31.734375 6.390625 37 11.265625 
Q 42.28125 16.15625 43.890625 24.421875 
L 49.90625 54.6875 
L 58.890625 54.6875 
L 48.296875 0 
L 39.3125 0 
L 41.109375 8.59375 
Q 37.3125 3.8125 32.0625 1.1875 
Q 26.8125 -1.421875 20.90625 -1.421875 
Q 13.71875 -1.421875 9.71875 2.515625 
Q 5.71875 6.453125 5.71875 13.484375 
Q 5.71875 14.9375 5.953125 17.140625 
Q 6.203125 19.34375 6.6875 21.6875 
z
" id="DejaVuSans-Oblique-117"/>
      <path d="M 44.578125 46.390625 
Q 43.21875 47.125 41.453125 47.515625 
Q 39.703125 47.90625 37.703125 47.90625 
Q 30.515625 47.90625 25.140625 42.453125 
Q 19.78125 37.015625 18.015625 27.875 
L 12.5 0 
L 3.515625 0 
L 14.203125 54.6875 
L 23.1875 54.6875 
L 21.484375 46.1875 
Q 25.046875 50.921875 30 53.453125 
Q 34.96875 56 40.578125 56 
Q 42.046875 56 43.453125 55.828125 
Q 44.875 55.671875 46.296875 55.28125 
z
" id="DejaVuSans-Oblique-114"/>
     </defs>
     <g transform="translate(6.13386 230.745581)scale(0.195 -0.195)">
      <use xlink:href="#DejaVuSans-Oblique-109"/>
      <use transform="translate(97.412109 0)" xlink:href="#DejaVuSans-Oblique-101"/>
      <use transform="translate(158.935547 0)" xlink:href="#DejaVuSans-Oblique-97"/>
      <use transform="translate(220.214844 0)" xlink:href="#DejaVuSans-Oblique-115"/>
      <use transform="translate(272.314453 0)" xlink:href="#DejaVuSans-Oblique-117"/>
      <use transform="translate(335.693359 0)" xlink:href="#DejaVuSans-Oblique-114"/>
      <use transform="translate(376.806641 0)" xlink:href="#DejaVuSans-Oblique-101"/>
     </g>
    </g>
   </g>
  </g>
 </g>
 <defs>
  <clipPath id="p3c8592a68e">
   <rect height="245.4354" width="725.39796" x="7.2" y="7.2"/>
  </clipPath>
 </defs>
</svg>
