<?xml version="1.0" encoding="UTF-8" standalone="no"?>
<!DOCTYPE svg PUBLIC "-//W3C//DTD SVG 1.1//EN"
 "http://www.w3.org/Graphics/SVG/1.1/DTD/svg11.dtd">
<!-- Generated by graphviz version 2.43.0 (0)
 -->
<!-- Title: G Pages: 1 -->
<svg width="968pt" height="518pt"
 viewBox="0.00 0.00 967.85 518.00" xmlns="http://www.w3.org/2000/svg" xmlns:xlink="http://www.w3.org/1999/xlink">
<g id="graph0" class="graph" transform="scale(1 1) rotate(0) translate(4 514)">
<title>G</title>
<polygon fill="white" stroke="transparent" points="-4,4 -4,-514 963.85,-514 963.85,4 -4,4"/>
<g id="clust1" class="cluster">
<title>cluster_prereq</title>
<polygon fill="none" stroke="blue" points="340,-431 340,-502 588,-502 588,-431 340,-431"/>
<text text-anchor="middle" x="464" y="-490" font-family="Veranda" font-size="10.00">Prerequisites</text>
</g>
<g id="clust2" class="cluster">
<title>cluster_intro</title>
<polygon fill="none" stroke="blue" points="391,-279 391,-423 571,-423 571,-279 391,-279"/>
<text text-anchor="middle" x="481" y="-411" font-family="Veranda" font-size="10.00">Introduction to Quantum Computing</text>
</g>
<g id="clust3" class="cluster">
<title>cluster_cqa</title>
<polygon fill="none" stroke="blue" points="432,-200 432,-271 602,-271 602,-200 432,-200"/>
<text text-anchor="middle" x="517" y="-259" font-family="Veranda" font-size="10.00">Core Quantum Algorithms</text>
</g>
<g id="clust4" class="cluster">
<title>cluster_cqa_supp</title>
<polygon fill="none" stroke="blue" points="8,-87 8,-192 374,-192 374,-87 8,-87"/>
<text text-anchor="middle" x="191" y="-180" font-family="Veranda" font-size="10.00">Supplementary Material</text>
</g>
<g id="clust5" class="cluster">
<title>cluster_extra_qa</title>
<polygon fill="none" stroke="pink" points="111,-95 111,-166 366,-166 366,-95 111,-95"/>
<text text-anchor="middle" x="238.5" y="-154" font-family="Veranda" font-size="10.00">Extra Quantum Algorithms</text>
</g>
<g id="clust6" class="cluster">
<title>cluster_fqa</title>
<polygon fill="none" stroke="blue" points="382,-95 382,-166 524,-166 524,-95 382,-95"/>
<text text-anchor="middle" x="453" y="-154" font-family="Veranda" font-size="10.00">Further Quantum Algorithms</text>
</g>
<g id="clust7" class="cluster">
<title>cluster_errmit</title>
<polygon fill="none" stroke="blue" points="532,-95 532,-166 760,-166 760,-95 532,-95"/>
<text text-anchor="middle" x="646" y="-154" font-family="Veranda" font-size="10.00">Transpiling and Error Mitigation</text>
</g>
<g id="clust8" class="cluster">
<title>cluster_qhw</title>
<polygon fill="none" stroke="blue" points="758,-8 758,-79 900,-79 900,-8 758,-8"/>
<text text-anchor="middle" x="829" y="-67" font-family="Veranda" font-size="10.00">Hardware</text>
</g>
<!-- Python -->
<g id="node1" class="node">
<title>Python</title>
<polygon fill="lightgrey" stroke="black" points="526,-439.5 526,-475.5 580,-475.5 580,-439.5 526,-439.5"/>
<text text-anchor="middle" x="552.81" y="-455.58" font-family="Verdana" font-size="10.00">Python</text>
</g>
<!-- Qiskit -->
<g id="node2" class="node">
<title>Qiskit</title>
<polygon fill="lightgrey" stroke="black" points="454,-439.5 454,-475.5 508,-475.5 508,-439.5 454,-439.5"/>
<text text-anchor="middle" x="480.71" y="-455.58" font-family="Verdana" font-size="10.00">Qiskit</text>
</g>
<!-- Quantum States and Qubits -->
<g id="node4" class="node">
<title>Quantum States and Qubits</title>
<polygon fill="lightgrey" stroke="black" points="403.07,-360.5 403.07,-396.5 558.93,-396.5 558.93,-360.5 403.07,-360.5"/>
<text text-anchor="middle" x="481" y="-376.58" font-family="Verdana" font-size="10.00">Quantum States and Qubits</text>
</g>
<!-- Qiskit&#45;&gt;Quantum States and Qubits -->
<g id="edge2" class="edge">
<title>Qiskit&#45;&gt;Quantum States and Qubits</title>
<path fill="none" stroke="black" d="M481,-431C481,-429 481,-427 481,-425"/>
<polygon fill="black" stroke="black" points="484.5,-433 481,-423 477.5,-433 484.5,-433"/>
</g>
<!-- Linear Algebra -->
<g id="node3" class="node">
<title>Linear Algebra</title>
<g id="a_node3"><a xlink:href="ch-prerequisites/linear_algebra.html" xlink:title="\N">
<polygon fill="lightgrey" stroke="black" points="347.76,-439.5 347.76,-475.5 436.24,-475.5 436.24,-439.5 347.76,-439.5"/>
<text text-anchor="middle" x="392" y="-455.58" font-family="Verdana" font-size="10.00">Linear Algebra</text>
</a>
</g>
</g>
<!-- Single and Multi&#45; Qubit Gates -->
<g id="node5" class="node">
<title>Single and Multi&#45; Qubit Gates</title>
<polygon fill="lightgrey" stroke="black" points="398.91,-287.5 398.91,-323.5 563.09,-323.5 563.09,-287.5 398.91,-287.5"/>
<text text-anchor="middle" x="481" y="-303.58" font-family="Verdana" font-size="10.00">Single and Multi&#45; Qubit Gates</text>
</g>
<!-- Quantum States and Qubits&#45;&gt;Single and Multi&#45; Qubit Gates -->
<g id="edge1" class="edge">
<title>Quantum States and Qubits&#45;&gt;Single and Multi&#45; Qubit Gates</title>
<path fill="none" stroke="black" d="M481,-360.31C481,-352.29 481,-342.55 481,-333.57"/>
<polygon fill="black" stroke="black" points="484.5,-333.53 481,-323.53 477.5,-333.53 484.5,-333.53"/>
</g>
<!-- Deutsch&#45;Joza -->
<g id="node6" class="node">
<title>Deutsch&#45;Joza</title>
<polygon fill="lightgrey" stroke="black" points="439.7,-208.5 439.7,-244.5 522.3,-244.5 522.3,-208.5 439.7,-208.5"/>
<text text-anchor="middle" x="481" y="-224.58" font-family="Verdana" font-size="10.00">Deutsch&#45;Joza</text>
</g>
<!-- Single and Multi&#45; Qubit Gates&#45;&gt;Deutsch&#45;Joza -->
<g id="edge3" class="edge">
<title>Single and Multi&#45; Qubit Gates&#45;&gt;Deutsch&#45;Joza</title>
<path fill="none" stroke="black" d="M481,-279C481,-277 481,-275 481,-273"/>
<polygon fill="black" stroke="black" points="484.5,-281 481,-271 477.5,-281 484.5,-281"/>
</g>
<!-- Oracle Design -->
<g id="node8" class="node">
<title>Oracle Design</title>
<polygon fill="lightgrey" stroke="black" points="16.21,-103.5 16.21,-139.5 101.79,-139.5 101.79,-103.5 16.21,-103.5"/>
<text text-anchor="middle" x="59" y="-119.58" font-family="Verdana" font-size="10.00">Oracle Design</text>
</g>
<!-- Deutsch&#45;Joza&#45;&gt;Oracle Design -->
<g id="edge4" class="edge">
<title>Deutsch&#45;Joza&#45;&gt;Oracle Design</title>
<path fill="none" stroke="black" d="M432,-226.18C347.89,-226.57 179.02,-223.75 116.07,-196.53"/>
<polygon fill="black" stroke="black" points="117.51,-193.33 107,-192 114.38,-199.6 117.51,-193.33"/>
</g>
<!-- QFT -->
<g id="node7" class="node">
<title>QFT</title>
<polygon fill="lightgrey" stroke="black" points="540,-208.5 540,-244.5 594,-244.5 594,-208.5 540,-208.5"/>
<text text-anchor="middle" x="566.96" y="-224.58" font-family="Verdana" font-size="10.00">QFT</text>
</g>
<!-- Shor -->
<g id="node12" class="node">
<title>Shor</title>
<polygon fill="lightgrey" stroke="black" points="390,-103.5 390,-139.5 444,-139.5 444,-103.5 390,-103.5"/>
<text text-anchor="middle" x="416.75" y="-119.58" font-family="Verdana" font-size="10.00">Shor</text>
</g>
<!-- QFT&#45;&gt;Shor -->
<g id="edge5" class="edge">
<title>QFT&#45;&gt;Shor</title>
<path fill="none" stroke="black" d="M531,-200C514.69,-193.87 467.41,-201.8 453,-192 446.42,-187.52 440.96,-181.45 436.46,-174.75"/>
<polygon fill="black" stroke="black" points="439.38,-172.8 431.26,-166 433.36,-176.38 439.38,-172.8"/>
</g>
<!-- Transpiling -->
<g id="node13" class="node">
<title>Transpiling</title>
<polygon fill="lightgrey" stroke="black" points="682.08,-103.5 682.08,-139.5 751.92,-139.5 751.92,-103.5 682.08,-103.5"/>
<text text-anchor="middle" x="717" y="-119.58" font-family="Verdana" font-size="10.00">Transpiling</text>
</g>
<!-- QFT&#45;&gt;Transpiling -->
<g id="edge6" class="edge">
<title>QFT&#45;&gt;Transpiling</title>
<path fill="none" stroke="black" d="M602,-220.74C624.16,-216.3 652.41,-207.86 673,-192 679.36,-187.1 685.05,-181 690.06,-174.46"/>
<polygon fill="black" stroke="black" points="693.13,-176.19 696.04,-166 687.41,-172.15 693.13,-176.19"/>
</g>
<!-- Quantum Mechanics (Prerequisite) -->
<g id="node15" class="node">
<title>Quantum Mechanics (Prerequisite)</title>
<polygon fill="none" stroke="black" points="770.15,-103.5 770.15,-139.5 959.85,-139.5 959.85,-103.5 770.15,-103.5"/>
<text text-anchor="middle" x="865" y="-119.58" font-family="Verdana" font-size="10.00">Quantum Mechanics (Prerequisite)</text>
</g>
<!-- QFT&#45;&gt;Quantum Mechanics (Prerequisite) -->
<g id="edge7" class="edge">
<title>QFT&#45;&gt;Quantum Mechanics (Prerequisite)</title>
<path fill="none" stroke="black" d="M602,-224.1C642.38,-221.46 710.13,-213.86 764,-192 791.27,-180.93 818.54,-161.55 837.86,-146.06"/>
<polygon fill="black" stroke="black" points="840.11,-148.74 845.63,-139.7 835.67,-143.33 840.11,-148.74"/>
</g>
<!-- Superdense Coding -->
<g id="node9" class="node">
<title>Superdense Coding</title>
<polygon fill="lightgrey" stroke="black" points="244.3,-103.5 244.3,-139.5 357.7,-139.5 357.7,-103.5 244.3,-103.5"/>
<text text-anchor="middle" x="301" y="-119.58" font-family="Verdana" font-size="10.00">Superdense Coding</text>
</g>
<!-- Bernstein&#45;Vazirani -->
<g id="node10" class="node">
<title>Bernstein&#45;Vazirani</title>
<polygon fill="lightgrey" stroke="black" points="119.3,-103.5 119.3,-139.5 226.7,-139.5 226.7,-103.5 119.3,-103.5"/>
<text text-anchor="middle" x="173" y="-119.58" font-family="Verdana" font-size="10.00">Bernstein&#45;Vazirani</text>
</g>
<!-- VQE -->
<g id="node11" class="node">
<title>VQE</title>
<polygon fill="lightgrey" stroke="black" points="462,-103.5 462,-139.5 516,-139.5 516,-103.5 462,-103.5"/>
<text text-anchor="middle" x="488.52" y="-119.58" font-family="Verdana" font-size="10.00">VQE</text>
</g>
<!-- Error Repetition Code -->
<g id="node14" class="node">
<title>Error Repetition Code</title>
<polygon fill="lightgrey" stroke="black" points="539.96,-103.5 539.96,-139.5 664.04,-139.5 664.04,-103.5 539.96,-103.5"/>
<text text-anchor="middle" x="602" y="-119.58" font-family="Verdana" font-size="10.00">Error Repetition Code</text>
</g>
<!-- Pulse -->
<g id="node16" class="node">
<title>Pulse</title>
<polygon fill="lightgrey" stroke="black" points="838,-16.5 838,-52.5 892,-52.5 892,-16.5 838,-16.5"/>
<text text-anchor="middle" x="864.63" y="-32.58" font-family="Verdana" font-size="10.00">Pulse</text>
</g>
<!-- Quantum Mechanics (Prerequisite)&#45;&gt;Pulse -->
<g id="edge8" class="edge">
<title>Quantum Mechanics (Prerequisite)&#45;&gt;Pulse</title>
<path fill="none" stroke="black" d="M865,-103.3C865,-98.97 865,-94.1 865,-89"/>
<polygon fill="black" stroke="black" points="868.5,-89 865,-79 861.5,-89 868.5,-89"/>
</g>
<!-- Metal -->
<g id="node17" class="node">
<title>Metal</title>
<polygon fill="lightgrey" stroke="black" points="766,-16.5 766,-52.5 820,-52.5 820,-16.5 766,-16.5"/>
<text text-anchor="middle" x="792.54" y="-32.58" font-family="Verdana" font-size="10.00">Metal</text>
</g>
</g>
</svg>
