<?xml version="1.0" encoding="utf-8" standalone="no"?>
<!DOCTYPE svg PUBLIC "-//W3C//DTD SVG 1.1//EN"
  "http://www.w3.org/Graphics/SVG/1.1/DTD/svg11.dtd">
<!-- Created with matplotlib (https://matplotlib.org/) -->
<svg height="502.765719pt" version="1.1" viewBox="0 0 628.12125 502.765719" width="628.12125pt" xmlns="http://www.w3.org/2000/svg" xmlns:xlink="http://www.w3.org/1999/xlink">
 <defs>
  <style type="text/css">
*{stroke-linecap:butt;stroke-linejoin:round;}
  </style>
 </defs>
 <g id="figure_1">
  <g id="patch_1">
   <path d="M -0 502.765719 
L 628.12125 502.765719 
L 628.12125 0 
L -0 0 
z
" style="fill:none;"/>
  </g>
  <g id="axes_1">
   <g id="patch_2">
    <path d="M 62.92125 442.08 
L 620.92125 442.08 
L 620.92125 7.2 
L 62.92125 7.2 
z
" style="fill:#ffffff;"/>
   </g>
   <g id="matplotlib.axis_1">
    <g id="xtick_1">
     <g id="line2d_1">
      <defs>
       <path d="M 0 0 
L 0 3.5 
" id="m61ed9ee2cf" style="stroke:#000000;stroke-width:0.8;"/>
      </defs>
      <g>
       <use style="stroke:#000000;stroke-width:0.8;" x="92.31086" xlink:href="#m61ed9ee2cf" y="442.08"/>
      </g>
     </g>
     <g id="text_1">
      <!-- 00000 -->
      <defs>
       <path d="M 31.78125 66.40625 
Q 24.171875 66.40625 20.328125 58.90625 
Q 16.5 51.421875 16.5 36.375 
Q 16.5 21.390625 20.328125 13.890625 
Q 24.171875 6.390625 31.78125 6.390625 
Q 39.453125 6.390625 43.28125 13.890625 
Q 47.125 21.390625 47.125 36.375 
Q 47.125 51.421875 43.28125 58.90625 
Q 39.453125 66.40625 31.78125 66.40625 
z
M 31.78125 74.21875 
Q 44.046875 74.21875 50.515625 64.515625 
Q 56.984375 54.828125 56.984375 36.375 
Q 56.984375 17.96875 50.515625 8.265625 
Q 44.046875 -1.421875 31.78125 -1.421875 
Q 19.53125 -1.421875 13.0625 8.265625 
Q 6.59375 17.96875 6.59375 36.375 
Q 6.59375 54.828125 13.0625 64.515625 
Q 19.53125 74.21875 31.78125 74.21875 
z
" id="DejaVuSans-48"/>
      </defs>
      <g transform="translate(88.324649 494.569906)rotate(-70)scale(0.14 -0.14)">
       <use xlink:href="#DejaVuSans-48"/>
       <use x="63.623047" xlink:href="#DejaVuSans-48"/>
       <use x="127.246094" xlink:href="#DejaVuSans-48"/>
       <use x="190.869141" xlink:href="#DejaVuSans-48"/>
       <use x="254.492188" xlink:href="#DejaVuSans-48"/>
      </g>
     </g>
    </g>
    <g id="xtick_2">
     <g id="line2d_2">
      <g>
       <use style="stroke:#000000;stroke-width:0.8;" x="108.414756" xlink:href="#m61ed9ee2cf" y="442.08"/>
      </g>
     </g>
     <g id="text_2">
      <!-- 00001 -->
      <defs>
       <path d="M 12.40625 8.296875 
L 28.515625 8.296875 
L 28.515625 63.921875 
L 10.984375 60.40625 
L 10.984375 69.390625 
L 28.421875 72.90625 
L 38.28125 72.90625 
L 38.28125 8.296875 
L 54.390625 8.296875 
L 54.390625 0 
L 12.40625 0 
z
" id="DejaVuSans-49"/>
      </defs>
      <g transform="translate(104.428545 494.569906)rotate(-70)scale(0.14 -0.14)">
       <use xlink:href="#DejaVuSans-48"/>
       <use x="63.623047" xlink:href="#DejaVuSans-48"/>
       <use x="127.246094" xlink:href="#DejaVuSans-48"/>
       <use x="190.869141" xlink:href="#DejaVuSans-48"/>
       <use x="254.492188" xlink:href="#DejaVuSans-49"/>
      </g>
     </g>
    </g>
    <g id="xtick_3">
     <g id="line2d_3">
      <g>
       <use style="stroke:#000000;stroke-width:0.8;" x="124.518653" xlink:href="#m61ed9ee2cf" y="442.08"/>
      </g>
     </g>
     <g id="text_3">
      <!-- 00010 -->
      <g transform="translate(120.532442 494.569906)rotate(-70)scale(0.14 -0.14)">
       <use xlink:href="#DejaVuSans-48"/>
       <use x="63.623047" xlink:href="#DejaVuSans-48"/>
       <use x="127.246094" xlink:href="#DejaVuSans-48"/>
       <use x="190.869141" xlink:href="#DejaVuSans-49"/>
       <use x="254.492188" xlink:href="#DejaVuSans-48"/>
      </g>
     </g>
    </g>
    <g id="xtick_4">
     <g id="line2d_4">
      <g>
       <use style="stroke:#000000;stroke-width:0.8;" x="140.622549" xlink:href="#m61ed9ee2cf" y="442.08"/>
      </g>
     </g>
     <g id="text_4">
      <!-- 00011 -->
      <g transform="translate(136.636338 494.569906)rotate(-70)scale(0.14 -0.14)">
       <use xlink:href="#DejaVuSans-48"/>
       <use x="63.623047" xlink:href="#DejaVuSans-48"/>
       <use x="127.246094" xlink:href="#DejaVuSans-48"/>
       <use x="190.869141" xlink:href="#DejaVuSans-49"/>
       <use x="254.492188" xlink:href="#DejaVuSans-49"/>
      </g>
     </g>
    </g>
    <g id="xtick_5">
     <g id="line2d_5">
      <g>
       <use style="stroke:#000000;stroke-width:0.8;" x="156.726445" xlink:href="#m61ed9ee2cf" y="442.08"/>
      </g>
     </g>
     <g id="text_5">
      <!-- 00100 -->
      <g transform="translate(152.740234 494.569906)rotate(-70)scale(0.14 -0.14)">
       <use xlink:href="#DejaVuSans-48"/>
       <use x="63.623047" xlink:href="#DejaVuSans-48"/>
       <use x="127.246094" xlink:href="#DejaVuSans-49"/>
       <use x="190.869141" xlink:href="#DejaVuSans-48"/>
       <use x="254.492188" xlink:href="#DejaVuSans-48"/>
      </g>
     </g>
    </g>
    <g id="xtick_6">
     <g id="line2d_6">
      <g>
       <use style="stroke:#000000;stroke-width:0.8;" x="172.830341" xlink:href="#m61ed9ee2cf" y="442.08"/>
      </g>
     </g>
     <g id="text_6">
      <!-- 00101 -->
      <g transform="translate(168.84413 494.569906)rotate(-70)scale(0.14 -0.14)">
       <use xlink:href="#DejaVuSans-48"/>
       <use x="63.623047" xlink:href="#DejaVuSans-48"/>
       <use x="127.246094" xlink:href="#DejaVuSans-49"/>
       <use x="190.869141" xlink:href="#DejaVuSans-48"/>
       <use x="254.492188" xlink:href="#DejaVuSans-49"/>
      </g>
     </g>
    </g>
    <g id="xtick_7">
     <g id="line2d_7">
      <g>
       <use style="stroke:#000000;stroke-width:0.8;" x="188.934237" xlink:href="#m61ed9ee2cf" y="442.08"/>
      </g>
     </g>
     <g id="text_7">
      <!-- 00110 -->
      <g transform="translate(184.948026 494.569906)rotate(-70)scale(0.14 -0.14)">
       <use xlink:href="#DejaVuSans-48"/>
       <use x="63.623047" xlink:href="#DejaVuSans-48"/>
       <use x="127.246094" xlink:href="#DejaVuSans-49"/>
       <use x="190.869141" xlink:href="#DejaVuSans-49"/>
       <use x="254.492188" xlink:href="#DejaVuSans-48"/>
      </g>
     </g>
    </g>
    <g id="xtick_8">
     <g id="line2d_8">
      <g>
       <use style="stroke:#000000;stroke-width:0.8;" x="205.038133" xlink:href="#m61ed9ee2cf" y="442.08"/>
      </g>
     </g>
     <g id="text_8">
      <!-- 00111 -->
      <g transform="translate(201.051922 494.569906)rotate(-70)scale(0.14 -0.14)">
       <use xlink:href="#DejaVuSans-48"/>
       <use x="63.623047" xlink:href="#DejaVuSans-48"/>
       <use x="127.246094" xlink:href="#DejaVuSans-49"/>
       <use x="190.869141" xlink:href="#DejaVuSans-49"/>
       <use x="254.492188" xlink:href="#DejaVuSans-49"/>
      </g>
     </g>
    </g>
    <g id="xtick_9">
     <g id="line2d_9">
      <g>
       <use style="stroke:#000000;stroke-width:0.8;" x="221.142029" xlink:href="#m61ed9ee2cf" y="442.08"/>
      </g>
     </g>
     <g id="text_9">
      <!-- 01000 -->
      <g transform="translate(217.155818 494.569906)rotate(-70)scale(0.14 -0.14)">
       <use xlink:href="#DejaVuSans-48"/>
       <use x="63.623047" xlink:href="#DejaVuSans-49"/>
       <use x="127.246094" xlink:href="#DejaVuSans-48"/>
       <use x="190.869141" xlink:href="#DejaVuSans-48"/>
       <use x="254.492188" xlink:href="#DejaVuSans-48"/>
      </g>
     </g>
    </g>
    <g id="xtick_10">
     <g id="line2d_10">
      <g>
       <use style="stroke:#000000;stroke-width:0.8;" x="237.245925" xlink:href="#m61ed9ee2cf" y="442.08"/>
      </g>
     </g>
     <g id="text_10">
      <!-- 01001 -->
      <g transform="translate(233.259714 494.569906)rotate(-70)scale(0.14 -0.14)">
       <use xlink:href="#DejaVuSans-48"/>
       <use x="63.623047" xlink:href="#DejaVuSans-49"/>
       <use x="127.246094" xlink:href="#DejaVuSans-48"/>
       <use x="190.869141" xlink:href="#DejaVuSans-48"/>
       <use x="254.492188" xlink:href="#DejaVuSans-49"/>
      </g>
     </g>
    </g>
    <g id="xtick_11">
     <g id="line2d_11">
      <g>
       <use style="stroke:#000000;stroke-width:0.8;" x="253.349821" xlink:href="#m61ed9ee2cf" y="442.08"/>
      </g>
     </g>
     <g id="text_11">
      <!-- 01010 -->
      <g transform="translate(249.36361 494.569906)rotate(-70)scale(0.14 -0.14)">
       <use xlink:href="#DejaVuSans-48"/>
       <use x="63.623047" xlink:href="#DejaVuSans-49"/>
       <use x="127.246094" xlink:href="#DejaVuSans-48"/>
       <use x="190.869141" xlink:href="#DejaVuSans-49"/>
       <use x="254.492188" xlink:href="#DejaVuSans-48"/>
      </g>
     </g>
    </g>
    <g id="xtick_12">
     <g id="line2d_12">
      <g>
       <use style="stroke:#000000;stroke-width:0.8;" x="269.453718" xlink:href="#m61ed9ee2cf" y="442.08"/>
      </g>
     </g>
     <g id="text_12">
      <!-- 01011 -->
      <g transform="translate(265.467507 494.569906)rotate(-70)scale(0.14 -0.14)">
       <use xlink:href="#DejaVuSans-48"/>
       <use x="63.623047" xlink:href="#DejaVuSans-49"/>
       <use x="127.246094" xlink:href="#DejaVuSans-48"/>
       <use x="190.869141" xlink:href="#DejaVuSans-49"/>
       <use x="254.492188" xlink:href="#DejaVuSans-49"/>
      </g>
     </g>
    </g>
    <g id="xtick_13">
     <g id="line2d_13">
      <g>
       <use style="stroke:#000000;stroke-width:0.8;" x="285.557614" xlink:href="#m61ed9ee2cf" y="442.08"/>
      </g>
     </g>
     <g id="text_13">
      <!-- 01100 -->
      <g transform="translate(281.571403 494.569906)rotate(-70)scale(0.14 -0.14)">
       <use xlink:href="#DejaVuSans-48"/>
       <use x="63.623047" xlink:href="#DejaVuSans-49"/>
       <use x="127.246094" xlink:href="#DejaVuSans-49"/>
       <use x="190.869141" xlink:href="#DejaVuSans-48"/>
       <use x="254.492188" xlink:href="#DejaVuSans-48"/>
      </g>
     </g>
    </g>
    <g id="xtick_14">
     <g id="line2d_14">
      <g>
       <use style="stroke:#000000;stroke-width:0.8;" x="301.66151" xlink:href="#m61ed9ee2cf" y="442.08"/>
      </g>
     </g>
     <g id="text_14">
      <!-- 01101 -->
      <g transform="translate(297.675299 494.569906)rotate(-70)scale(0.14 -0.14)">
       <use xlink:href="#DejaVuSans-48"/>
       <use x="63.623047" xlink:href="#DejaVuSans-49"/>
       <use x="127.246094" xlink:href="#DejaVuSans-49"/>
       <use x="190.869141" xlink:href="#DejaVuSans-48"/>
       <use x="254.492188" xlink:href="#DejaVuSans-49"/>
      </g>
     </g>
    </g>
    <g id="xtick_15">
     <g id="line2d_15">
      <g>
       <use style="stroke:#000000;stroke-width:0.8;" x="317.765406" xlink:href="#m61ed9ee2cf" y="442.08"/>
      </g>
     </g>
     <g id="text_15">
      <!-- 01110 -->
      <g transform="translate(313.779195 494.569906)rotate(-70)scale(0.14 -0.14)">
       <use xlink:href="#DejaVuSans-48"/>
       <use x="63.623047" xlink:href="#DejaVuSans-49"/>
       <use x="127.246094" xlink:href="#DejaVuSans-49"/>
       <use x="190.869141" xlink:href="#DejaVuSans-49"/>
       <use x="254.492188" xlink:href="#DejaVuSans-48"/>
      </g>
     </g>
    </g>
    <g id="xtick_16">
     <g id="line2d_16">
      <g>
       <use style="stroke:#000000;stroke-width:0.8;" x="333.869302" xlink:href="#m61ed9ee2cf" y="442.08"/>
      </g>
     </g>
     <g id="text_16">
      <!-- 01111 -->
      <g transform="translate(329.883091 494.569906)rotate(-70)scale(0.14 -0.14)">
       <use xlink:href="#DejaVuSans-48"/>
       <use x="63.623047" xlink:href="#DejaVuSans-49"/>
       <use x="127.246094" xlink:href="#DejaVuSans-49"/>
       <use x="190.869141" xlink:href="#DejaVuSans-49"/>
       <use x="254.492188" xlink:href="#DejaVuSans-49"/>
      </g>
     </g>
    </g>
    <g id="xtick_17">
     <g id="line2d_17">
      <g>
       <use style="stroke:#000000;stroke-width:0.8;" x="349.973198" xlink:href="#m61ed9ee2cf" y="442.08"/>
      </g>
     </g>
     <g id="text_17">
      <!-- 10000 -->
      <g transform="translate(345.986987 494.569906)rotate(-70)scale(0.14 -0.14)">
       <use xlink:href="#DejaVuSans-49"/>
       <use x="63.623047" xlink:href="#DejaVuSans-48"/>
       <use x="127.246094" xlink:href="#DejaVuSans-48"/>
       <use x="190.869141" xlink:href="#DejaVuSans-48"/>
       <use x="254.492188" xlink:href="#DejaVuSans-48"/>
      </g>
     </g>
    </g>
    <g id="xtick_18">
     <g id="line2d_18">
      <g>
       <use style="stroke:#000000;stroke-width:0.8;" x="366.077094" xlink:href="#m61ed9ee2cf" y="442.08"/>
      </g>
     </g>
     <g id="text_18">
      <!-- 10001 -->
      <g transform="translate(362.090883 494.569906)rotate(-70)scale(0.14 -0.14)">
       <use xlink:href="#DejaVuSans-49"/>
       <use x="63.623047" xlink:href="#DejaVuSans-48"/>
       <use x="127.246094" xlink:href="#DejaVuSans-48"/>
       <use x="190.869141" xlink:href="#DejaVuSans-48"/>
       <use x="254.492188" xlink:href="#DejaVuSans-49"/>
      </g>
     </g>
    </g>
    <g id="xtick_19">
     <g id="line2d_19">
      <g>
       <use style="stroke:#000000;stroke-width:0.8;" x="382.18099" xlink:href="#m61ed9ee2cf" y="442.08"/>
      </g>
     </g>
     <g id="text_19">
      <!-- 10010 -->
      <g transform="translate(378.194779 494.569906)rotate(-70)scale(0.14 -0.14)">
       <use xlink:href="#DejaVuSans-49"/>
       <use x="63.623047" xlink:href="#DejaVuSans-48"/>
       <use x="127.246094" xlink:href="#DejaVuSans-48"/>
       <use x="190.869141" xlink:href="#DejaVuSans-49"/>
       <use x="254.492188" xlink:href="#DejaVuSans-48"/>
      </g>
     </g>
    </g>
    <g id="xtick_20">
     <g id="line2d_20">
      <g>
       <use style="stroke:#000000;stroke-width:0.8;" x="398.284886" xlink:href="#m61ed9ee2cf" y="442.08"/>
      </g>
     </g>
     <g id="text_20">
      <!-- 10011 -->
      <g transform="translate(394.298675 494.569906)rotate(-70)scale(0.14 -0.14)">
       <use xlink:href="#DejaVuSans-49"/>
       <use x="63.623047" xlink:href="#DejaVuSans-48"/>
       <use x="127.246094" xlink:href="#DejaVuSans-48"/>
       <use x="190.869141" xlink:href="#DejaVuSans-49"/>
       <use x="254.492188" xlink:href="#DejaVuSans-49"/>
      </g>
     </g>
    </g>
    <g id="xtick_21">
     <g id="line2d_21">
      <g>
       <use style="stroke:#000000;stroke-width:0.8;" x="414.388782" xlink:href="#m61ed9ee2cf" y="442.08"/>
      </g>
     </g>
     <g id="text_21">
      <!-- 10100 -->
      <g transform="translate(410.402571 494.569906)rotate(-70)scale(0.14 -0.14)">
       <use xlink:href="#DejaVuSans-49"/>
       <use x="63.623047" xlink:href="#DejaVuSans-48"/>
       <use x="127.246094" xlink:href="#DejaVuSans-49"/>
       <use x="190.869141" xlink:href="#DejaVuSans-48"/>
       <use x="254.492188" xlink:href="#DejaVuSans-48"/>
      </g>
     </g>
    </g>
    <g id="xtick_22">
     <g id="line2d_22">
      <g>
       <use style="stroke:#000000;stroke-width:0.8;" x="430.492679" xlink:href="#m61ed9ee2cf" y="442.08"/>
      </g>
     </g>
     <g id="text_22">
      <!-- 10101 -->
      <g transform="translate(426.506468 494.569906)rotate(-70)scale(0.14 -0.14)">
       <use xlink:href="#DejaVuSans-49"/>
       <use x="63.623047" xlink:href="#DejaVuSans-48"/>
       <use x="127.246094" xlink:href="#DejaVuSans-49"/>
       <use x="190.869141" xlink:href="#DejaVuSans-48"/>
       <use x="254.492188" xlink:href="#DejaVuSans-49"/>
      </g>
     </g>
    </g>
    <g id="xtick_23">
     <g id="line2d_23">
      <g>
       <use style="stroke:#000000;stroke-width:0.8;" x="446.596575" xlink:href="#m61ed9ee2cf" y="442.08"/>
      </g>
     </g>
     <g id="text_23">
      <!-- 10110 -->
      <g transform="translate(442.610364 494.569906)rotate(-70)scale(0.14 -0.14)">
       <use xlink:href="#DejaVuSans-49"/>
       <use x="63.623047" xlink:href="#DejaVuSans-48"/>
       <use x="127.246094" xlink:href="#DejaVuSans-49"/>
       <use x="190.869141" xlink:href="#DejaVuSans-49"/>
       <use x="254.492188" xlink:href="#DejaVuSans-48"/>
      </g>
     </g>
    </g>
    <g id="xtick_24">
     <g id="line2d_24">
      <g>
       <use style="stroke:#000000;stroke-width:0.8;" x="462.700471" xlink:href="#m61ed9ee2cf" y="442.08"/>
      </g>
     </g>
     <g id="text_24">
      <!-- 10111 -->
      <g transform="translate(458.71426 494.569906)rotate(-70)scale(0.14 -0.14)">
       <use xlink:href="#DejaVuSans-49"/>
       <use x="63.623047" xlink:href="#DejaVuSans-48"/>
       <use x="127.246094" xlink:href="#DejaVuSans-49"/>
       <use x="190.869141" xlink:href="#DejaVuSans-49"/>
       <use x="254.492188" xlink:href="#DejaVuSans-49"/>
      </g>
     </g>
    </g>
    <g id="xtick_25">
     <g id="line2d_25">
      <g>
       <use style="stroke:#000000;stroke-width:0.8;" x="478.804367" xlink:href="#m61ed9ee2cf" y="442.08"/>
      </g>
     </g>
     <g id="text_25">
      <!-- 11000 -->
      <g transform="translate(474.818156 494.569906)rotate(-70)scale(0.14 -0.14)">
       <use xlink:href="#DejaVuSans-49"/>
       <use x="63.623047" xlink:href="#DejaVuSans-49"/>
       <use x="127.246094" xlink:href="#DejaVuSans-48"/>
       <use x="190.869141" xlink:href="#DejaVuSans-48"/>
       <use x="254.492188" xlink:href="#DejaVuSans-48"/>
      </g>
     </g>
    </g>
    <g id="xtick_26">
     <g id="line2d_26">
      <g>
       <use style="stroke:#000000;stroke-width:0.8;" x="494.908263" xlink:href="#m61ed9ee2cf" y="442.08"/>
      </g>
     </g>
     <g id="text_26">
      <!-- 11001 -->
      <g transform="translate(490.922052 494.569906)rotate(-70)scale(0.14 -0.14)">
       <use xlink:href="#DejaVuSans-49"/>
       <use x="63.623047" xlink:href="#DejaVuSans-49"/>
       <use x="127.246094" xlink:href="#DejaVuSans-48"/>
       <use x="190.869141" xlink:href="#DejaVuSans-48"/>
       <use x="254.492188" xlink:href="#DejaVuSans-49"/>
      </g>
     </g>
    </g>
    <g id="xtick_27">
     <g id="line2d_27">
      <g>
       <use style="stroke:#000000;stroke-width:0.8;" x="511.012159" xlink:href="#m61ed9ee2cf" y="442.08"/>
      </g>
     </g>
     <g id="text_27">
      <!-- 11010 -->
      <g transform="translate(507.025948 494.569906)rotate(-70)scale(0.14 -0.14)">
       <use xlink:href="#DejaVuSans-49"/>
       <use x="63.623047" xlink:href="#DejaVuSans-49"/>
       <use x="127.246094" xlink:href="#DejaVuSans-48"/>
       <use x="190.869141" xlink:href="#DejaVuSans-49"/>
       <use x="254.492188" xlink:href="#DejaVuSans-48"/>
      </g>
     </g>
    </g>
    <g id="xtick_28">
     <g id="line2d_28">
      <g>
       <use style="stroke:#000000;stroke-width:0.8;" x="527.116055" xlink:href="#m61ed9ee2cf" y="442.08"/>
      </g>
     </g>
     <g id="text_28">
      <!-- 11011 -->
      <g transform="translate(523.129844 494.569906)rotate(-70)scale(0.14 -0.14)">
       <use xlink:href="#DejaVuSans-49"/>
       <use x="63.623047" xlink:href="#DejaVuSans-49"/>
       <use x="127.246094" xlink:href="#DejaVuSans-48"/>
       <use x="190.869141" xlink:href="#DejaVuSans-49"/>
       <use x="254.492188" xlink:href="#DejaVuSans-49"/>
      </g>
     </g>
    </g>
    <g id="xtick_29">
     <g id="line2d_29">
      <g>
       <use style="stroke:#000000;stroke-width:0.8;" x="543.219951" xlink:href="#m61ed9ee2cf" y="442.08"/>
      </g>
     </g>
     <g id="text_29">
      <!-- 11100 -->
      <g transform="translate(539.23374 494.569906)rotate(-70)scale(0.14 -0.14)">
       <use xlink:href="#DejaVuSans-49"/>
       <use x="63.623047" xlink:href="#DejaVuSans-49"/>
       <use x="127.246094" xlink:href="#DejaVuSans-49"/>
       <use x="190.869141" xlink:href="#DejaVuSans-48"/>
       <use x="254.492188" xlink:href="#DejaVuSans-48"/>
      </g>
     </g>
    </g>
    <g id="xtick_30">
     <g id="line2d_30">
      <g>
       <use style="stroke:#000000;stroke-width:0.8;" x="559.323847" xlink:href="#m61ed9ee2cf" y="442.08"/>
      </g>
     </g>
     <g id="text_30">
      <!-- 11101 -->
      <g transform="translate(555.337636 494.569906)rotate(-70)scale(0.14 -0.14)">
       <use xlink:href="#DejaVuSans-49"/>
       <use x="63.623047" xlink:href="#DejaVuSans-49"/>
       <use x="127.246094" xlink:href="#DejaVuSans-49"/>
       <use x="190.869141" xlink:href="#DejaVuSans-48"/>
       <use x="254.492188" xlink:href="#DejaVuSans-49"/>
      </g>
     </g>
    </g>
    <g id="xtick_31">
     <g id="line2d_31">
      <g>
       <use style="stroke:#000000;stroke-width:0.8;" x="575.427744" xlink:href="#m61ed9ee2cf" y="442.08"/>
      </g>
     </g>
     <g id="text_31">
      <!-- 11110 -->
      <g transform="translate(571.441532 494.569906)rotate(-70)scale(0.14 -0.14)">
       <use xlink:href="#DejaVuSans-49"/>
       <use x="63.623047" xlink:href="#DejaVuSans-49"/>
       <use x="127.246094" xlink:href="#DejaVuSans-49"/>
       <use x="190.869141" xlink:href="#DejaVuSans-49"/>
       <use x="254.492188" xlink:href="#DejaVuSans-48"/>
      </g>
     </g>
    </g>
    <g id="xtick_32">
     <g id="line2d_32">
      <g>
       <use style="stroke:#000000;stroke-width:0.8;" x="591.53164" xlink:href="#m61ed9ee2cf" y="442.08"/>
      </g>
     </g>
     <g id="text_32">
      <!-- 11111 -->
      <g transform="translate(587.545429 494.569906)rotate(-70)scale(0.14 -0.14)">
       <use xlink:href="#DejaVuSans-49"/>
       <use x="63.623047" xlink:href="#DejaVuSans-49"/>
       <use x="127.246094" xlink:href="#DejaVuSans-49"/>
       <use x="190.869141" xlink:href="#DejaVuSans-49"/>
       <use x="254.492188" xlink:href="#DejaVuSans-49"/>
      </g>
     </g>
    </g>
   </g>
   <g id="matplotlib.axis_2">
    <g id="ytick_1">
     <g id="line2d_33">
      <path clip-path="url(#p6477ec292f)" d="M 62.92125 442.08 
L 620.92125 442.08 
" style="fill:none;stroke:#b0b0b0;stroke-dasharray:2.96,1.28;stroke-dashoffset:0;stroke-width:0.8;"/>
     </g>
     <g id="line2d_34">
      <defs>
       <path d="M 0 0 
L -3.5 0 
" id="m1e4b87fac4" style="stroke:#000000;stroke-width:0.8;"/>
      </defs>
      <g>
       <use style="stroke:#000000;stroke-width:0.8;" x="62.92125" xlink:href="#m1e4b87fac4" y="442.08"/>
      </g>
     </g>
     <g id="text_33">
      <!-- 0.00 -->
      <defs>
       <path d="M 10.6875 12.40625 
L 21 12.40625 
L 21 0 
L 10.6875 0 
z
" id="DejaVuSans-46"/>
      </defs>
      <g transform="translate(24.749375 447.398906)scale(0.14 -0.14)">
       <use xlink:href="#DejaVuSans-48"/>
       <use x="63.623047" xlink:href="#DejaVuSans-46"/>
       <use x="95.410156" xlink:href="#DejaVuSans-48"/>
       <use x="159.033203" xlink:href="#DejaVuSans-48"/>
      </g>
     </g>
    </g>
    <g id="ytick_2">
     <g id="line2d_35">
      <path clip-path="url(#p6477ec292f)" d="M 62.92125 327.896123 
L 620.92125 327.896123 
" style="fill:none;stroke:#b0b0b0;stroke-dasharray:2.96,1.28;stroke-dashoffset:0;stroke-width:0.8;"/>
     </g>
     <g id="line2d_36">
      <g>
       <use style="stroke:#000000;stroke-width:0.8;" x="62.92125" xlink:href="#m1e4b87fac4" y="327.896123"/>
      </g>
     </g>
     <g id="text_34">
      <!-- 0.02 -->
      <defs>
       <path d="M 19.1875 8.296875 
L 53.609375 8.296875 
L 53.609375 0 
L 7.328125 0 
L 7.328125 8.296875 
Q 12.9375 14.109375 22.625 23.890625 
Q 32.328125 33.6875 34.8125 36.53125 
Q 39.546875 41.84375 41.421875 45.53125 
Q 43.3125 49.21875 43.3125 52.78125 
Q 43.3125 58.59375 39.234375 62.25 
Q 35.15625 65.921875 28.609375 65.921875 
Q 23.96875 65.921875 18.8125 64.3125 
Q 13.671875 62.703125 7.8125 59.421875 
L 7.8125 69.390625 
Q 13.765625 71.78125 18.9375 73 
Q 24.125 74.21875 28.421875 74.21875 
Q 39.75 74.21875 46.484375 68.546875 
Q 53.21875 62.890625 53.21875 53.421875 
Q 53.21875 48.921875 51.53125 44.890625 
Q 49.859375 40.875 45.40625 35.40625 
Q 44.1875 33.984375 37.640625 27.21875 
Q 31.109375 20.453125 19.1875 8.296875 
z
" id="DejaVuSans-50"/>
      </defs>
      <g transform="translate(24.749375 333.215029)scale(0.14 -0.14)">
       <use xlink:href="#DejaVuSans-48"/>
       <use x="63.623047" xlink:href="#DejaVuSans-46"/>
       <use x="95.410156" xlink:href="#DejaVuSans-48"/>
       <use x="159.033203" xlink:href="#DejaVuSans-50"/>
      </g>
     </g>
    </g>
    <g id="ytick_3">
     <g id="line2d_37">
      <path clip-path="url(#p6477ec292f)" d="M 62.92125 213.712246 
L 620.92125 213.712246 
" style="fill:none;stroke:#b0b0b0;stroke-dasharray:2.96,1.28;stroke-dashoffset:0;stroke-width:0.8;"/>
     </g>
     <g id="line2d_38">
      <g>
       <use style="stroke:#000000;stroke-width:0.8;" x="62.92125" xlink:href="#m1e4b87fac4" y="213.712246"/>
      </g>
     </g>
     <g id="text_35">
      <!-- 0.04 -->
      <defs>
       <path d="M 37.796875 64.3125 
L 12.890625 25.390625 
L 37.796875 25.390625 
z
M 35.203125 72.90625 
L 47.609375 72.90625 
L 47.609375 25.390625 
L 58.015625 25.390625 
L 58.015625 17.1875 
L 47.609375 17.1875 
L 47.609375 0 
L 37.796875 0 
L 37.796875 17.1875 
L 4.890625 17.1875 
L 4.890625 26.703125 
z
" id="DejaVuSans-52"/>
      </defs>
      <g transform="translate(24.749375 219.031152)scale(0.14 -0.14)">
       <use xlink:href="#DejaVuSans-48"/>
       <use x="63.623047" xlink:href="#DejaVuSans-46"/>
       <use x="95.410156" xlink:href="#DejaVuSans-48"/>
       <use x="159.033203" xlink:href="#DejaVuSans-52"/>
      </g>
     </g>
    </g>
    <g id="ytick_4">
     <g id="line2d_39">
      <path clip-path="url(#p6477ec292f)" d="M 62.92125 99.528369 
L 620.92125 99.528369 
" style="fill:none;stroke:#b0b0b0;stroke-dasharray:2.96,1.28;stroke-dashoffset:0;stroke-width:0.8;"/>
     </g>
     <g id="line2d_40">
      <g>
       <use style="stroke:#000000;stroke-width:0.8;" x="62.92125" xlink:href="#m1e4b87fac4" y="99.528369"/>
      </g>
     </g>
     <g id="text_36">
      <!-- 0.06 -->
      <defs>
       <path d="M 33.015625 40.375 
Q 26.375 40.375 22.484375 35.828125 
Q 18.609375 31.296875 18.609375 23.390625 
Q 18.609375 15.53125 22.484375 10.953125 
Q 26.375 6.390625 33.015625 6.390625 
Q 39.65625 6.390625 43.53125 10.953125 
Q 47.40625 15.53125 47.40625 23.390625 
Q 47.40625 31.296875 43.53125 35.828125 
Q 39.65625 40.375 33.015625 40.375 
z
M 52.59375 71.296875 
L 52.59375 62.3125 
Q 48.875 64.0625 45.09375 64.984375 
Q 41.3125 65.921875 37.59375 65.921875 
Q 27.828125 65.921875 22.671875 59.328125 
Q 17.53125 52.734375 16.796875 39.40625 
Q 19.671875 43.65625 24.015625 45.921875 
Q 28.375 48.1875 33.59375 48.1875 
Q 44.578125 48.1875 50.953125 41.515625 
Q 57.328125 34.859375 57.328125 23.390625 
Q 57.328125 12.15625 50.6875 5.359375 
Q 44.046875 -1.421875 33.015625 -1.421875 
Q 20.359375 -1.421875 13.671875 8.265625 
Q 6.984375 17.96875 6.984375 36.375 
Q 6.984375 53.65625 15.1875 63.9375 
Q 23.390625 74.21875 37.203125 74.21875 
Q 40.921875 74.21875 44.703125 73.484375 
Q 48.484375 72.75 52.59375 71.296875 
z
" id="DejaVuSans-54"/>
      </defs>
      <g transform="translate(24.749375 104.847275)scale(0.14 -0.14)">
       <use xlink:href="#DejaVuSans-48"/>
       <use x="63.623047" xlink:href="#DejaVuSans-46"/>
       <use x="95.410156" xlink:href="#DejaVuSans-48"/>
       <use x="159.033203" xlink:href="#DejaVuSans-54"/>
      </g>
     </g>
    </g>
    <g id="text_37">
     <!-- Probabilities -->
     <defs>
      <path d="M 19.671875 64.796875 
L 19.671875 37.40625 
L 32.078125 37.40625 
Q 38.96875 37.40625 42.71875 40.96875 
Q 46.484375 44.53125 46.484375 51.125 
Q 46.484375 57.671875 42.71875 61.234375 
Q 38.96875 64.796875 32.078125 64.796875 
z
M 9.8125 72.90625 
L 32.078125 72.90625 
Q 44.34375 72.90625 50.609375 67.359375 
Q 56.890625 61.8125 56.890625 51.125 
Q 56.890625 40.328125 50.609375 34.8125 
Q 44.34375 29.296875 32.078125 29.296875 
L 19.671875 29.296875 
L 19.671875 0 
L 9.8125 0 
z
" id="DejaVuSans-80"/>
      <path d="M 41.109375 46.296875 
Q 39.59375 47.171875 37.8125 47.578125 
Q 36.03125 48 33.890625 48 
Q 26.265625 48 22.1875 43.046875 
Q 18.109375 38.09375 18.109375 28.8125 
L 18.109375 0 
L 9.078125 0 
L 9.078125 54.6875 
L 18.109375 54.6875 
L 18.109375 46.1875 
Q 20.953125 51.171875 25.484375 53.578125 
Q 30.03125 56 36.53125 56 
Q 37.453125 56 38.578125 55.875 
Q 39.703125 55.765625 41.0625 55.515625 
z
" id="DejaVuSans-114"/>
      <path d="M 30.609375 48.390625 
Q 23.390625 48.390625 19.1875 42.75 
Q 14.984375 37.109375 14.984375 27.296875 
Q 14.984375 17.484375 19.15625 11.84375 
Q 23.34375 6.203125 30.609375 6.203125 
Q 37.796875 6.203125 41.984375 11.859375 
Q 46.1875 17.53125 46.1875 27.296875 
Q 46.1875 37.015625 41.984375 42.703125 
Q 37.796875 48.390625 30.609375 48.390625 
z
M 30.609375 56 
Q 42.328125 56 49.015625 48.375 
Q 55.71875 40.765625 55.71875 27.296875 
Q 55.71875 13.875 49.015625 6.21875 
Q 42.328125 -1.421875 30.609375 -1.421875 
Q 18.84375 -1.421875 12.171875 6.21875 
Q 5.515625 13.875 5.515625 27.296875 
Q 5.515625 40.765625 12.171875 48.375 
Q 18.84375 56 30.609375 56 
z
" id="DejaVuSans-111"/>
      <path d="M 48.6875 27.296875 
Q 48.6875 37.203125 44.609375 42.84375 
Q 40.53125 48.484375 33.40625 48.484375 
Q 26.265625 48.484375 22.1875 42.84375 
Q 18.109375 37.203125 18.109375 27.296875 
Q 18.109375 17.390625 22.1875 11.75 
Q 26.265625 6.109375 33.40625 6.109375 
Q 40.53125 6.109375 44.609375 11.75 
Q 48.6875 17.390625 48.6875 27.296875 
z
M 18.109375 46.390625 
Q 20.953125 51.265625 25.265625 53.625 
Q 29.59375 56 35.59375 56 
Q 45.5625 56 51.78125 48.09375 
Q 58.015625 40.1875 58.015625 27.296875 
Q 58.015625 14.40625 51.78125 6.484375 
Q 45.5625 -1.421875 35.59375 -1.421875 
Q 29.59375 -1.421875 25.265625 0.953125 
Q 20.953125 3.328125 18.109375 8.203125 
L 18.109375 0 
L 9.078125 0 
L 9.078125 75.984375 
L 18.109375 75.984375 
z
" id="DejaVuSans-98"/>
      <path d="M 34.28125 27.484375 
Q 23.390625 27.484375 19.1875 25 
Q 14.984375 22.515625 14.984375 16.5 
Q 14.984375 11.71875 18.140625 8.90625 
Q 21.296875 6.109375 26.703125 6.109375 
Q 34.1875 6.109375 38.703125 11.40625 
Q 43.21875 16.703125 43.21875 25.484375 
L 43.21875 27.484375 
z
M 52.203125 31.203125 
L 52.203125 0 
L 43.21875 0 
L 43.21875 8.296875 
Q 40.140625 3.328125 35.546875 0.953125 
Q 30.953125 -1.421875 24.3125 -1.421875 
Q 15.921875 -1.421875 10.953125 3.296875 
Q 6 8.015625 6 15.921875 
Q 6 25.140625 12.171875 29.828125 
Q 18.359375 34.515625 30.609375 34.515625 
L 43.21875 34.515625 
L 43.21875 35.40625 
Q 43.21875 41.609375 39.140625 45 
Q 35.0625 48.390625 27.6875 48.390625 
Q 23 48.390625 18.546875 47.265625 
Q 14.109375 46.140625 10.015625 43.890625 
L 10.015625 52.203125 
Q 14.9375 54.109375 19.578125 55.046875 
Q 24.21875 56 28.609375 56 
Q 40.484375 56 46.34375 49.84375 
Q 52.203125 43.703125 52.203125 31.203125 
z
" id="DejaVuSans-97"/>
      <path d="M 9.421875 54.6875 
L 18.40625 54.6875 
L 18.40625 0 
L 9.421875 0 
z
M 9.421875 75.984375 
L 18.40625 75.984375 
L 18.40625 64.59375 
L 9.421875 64.59375 
z
" id="DejaVuSans-105"/>
      <path d="M 9.421875 75.984375 
L 18.40625 75.984375 
L 18.40625 0 
L 9.421875 0 
z
" id="DejaVuSans-108"/>
      <path d="M 18.3125 70.21875 
L 18.3125 54.6875 
L 36.8125 54.6875 
L 36.8125 47.703125 
L 18.3125 47.703125 
L 18.3125 18.015625 
Q 18.3125 11.328125 20.140625 9.421875 
Q 21.96875 7.515625 27.59375 7.515625 
L 36.8125 7.515625 
L 36.8125 0 
L 27.59375 0 
Q 17.1875 0 13.234375 3.875 
Q 9.28125 7.765625 9.28125 18.015625 
L 9.28125 47.703125 
L 2.6875 47.703125 
L 2.6875 54.6875 
L 9.28125 54.6875 
L 9.28125 70.21875 
z
" id="DejaVuSans-116"/>
      <path d="M 56.203125 29.59375 
L 56.203125 25.203125 
L 14.890625 25.203125 
Q 15.484375 15.921875 20.484375 11.0625 
Q 25.484375 6.203125 34.421875 6.203125 
Q 39.59375 6.203125 44.453125 7.46875 
Q 49.3125 8.734375 54.109375 11.28125 
L 54.109375 2.78125 
Q 49.265625 0.734375 44.1875 -0.34375 
Q 39.109375 -1.421875 33.890625 -1.421875 
Q 20.796875 -1.421875 13.15625 6.1875 
Q 5.515625 13.8125 5.515625 26.8125 
Q 5.515625 40.234375 12.765625 48.109375 
Q 20.015625 56 32.328125 56 
Q 43.359375 56 49.78125 48.890625 
Q 56.203125 41.796875 56.203125 29.59375 
z
M 47.21875 32.234375 
Q 47.125 39.59375 43.09375 43.984375 
Q 39.0625 48.390625 32.421875 48.390625 
Q 24.90625 48.390625 20.390625 44.140625 
Q 15.875 39.890625 15.1875 32.171875 
z
" id="DejaVuSans-101"/>
      <path d="M 44.28125 53.078125 
L 44.28125 44.578125 
Q 40.484375 46.53125 36.375 47.5 
Q 32.28125 48.484375 27.875 48.484375 
Q 21.1875 48.484375 17.84375 46.4375 
Q 14.5 44.390625 14.5 40.28125 
Q 14.5 37.15625 16.890625 35.375 
Q 19.28125 33.59375 26.515625 31.984375 
L 29.59375 31.296875 
Q 39.15625 29.25 43.1875 25.515625 
Q 47.21875 21.78125 47.21875 15.09375 
Q 47.21875 7.46875 41.1875 3.015625 
Q 35.15625 -1.421875 24.609375 -1.421875 
Q 20.21875 -1.421875 15.453125 -0.5625 
Q 10.6875 0.296875 5.421875 2 
L 5.421875 11.28125 
Q 10.40625 8.6875 15.234375 7.390625 
Q 20.0625 6.109375 24.8125 6.109375 
Q 31.15625 6.109375 34.5625 8.28125 
Q 37.984375 10.453125 37.984375 14.40625 
Q 37.984375 18.0625 35.515625 20.015625 
Q 33.0625 21.96875 24.703125 23.78125 
L 21.578125 24.515625 
Q 13.234375 26.265625 9.515625 29.90625 
Q 5.8125 33.546875 5.8125 39.890625 
Q 5.8125 47.609375 11.28125 51.796875 
Q 16.75 56 26.8125 56 
Q 31.78125 56 36.171875 55.265625 
Q 40.578125 54.546875 44.28125 53.078125 
z
" id="DejaVuSans-115"/>
     </defs>
     <g transform="translate(17.837813 267.6725)rotate(-90)scale(0.14 -0.14)">
      <use xlink:href="#DejaVuSans-80"/>
      <use x="60.287109" xlink:href="#DejaVuSans-114"/>
      <use x="101.369141" xlink:href="#DejaVuSans-111"/>
      <use x="162.550781" xlink:href="#DejaVuSans-98"/>
      <use x="226.027344" xlink:href="#DejaVuSans-97"/>
      <use x="287.306641" xlink:href="#DejaVuSans-98"/>
      <use x="350.783203" xlink:href="#DejaVuSans-105"/>
      <use x="378.566406" xlink:href="#DejaVuSans-108"/>
      <use x="406.349609" xlink:href="#DejaVuSans-105"/>
      <use x="434.132812" xlink:href="#DejaVuSans-116"/>
      <use x="473.341797" xlink:href="#DejaVuSans-105"/>
      <use x="501.125" xlink:href="#DejaVuSans-101"/>
      <use x="562.648438" xlink:href="#DejaVuSans-115"/>
     </g>
    </g>
   </g>
   <g id="patch_3">
    <path clip-path="url(#p6477ec292f)" d="M 88.284886 442.08 
L 96.336834 442.08 
L 96.336834 330.572308 
L 88.284886 330.572308 
z
" style="fill:#648fff;"/>
   </g>
   <g id="patch_4">
    <path clip-path="url(#p6477ec292f)" d="M 104.388782 442.08 
L 112.440731 442.08 
L 112.440731 280.393846 
L 104.388782 280.393846 
z
" style="fill:#648fff;"/>
   </g>
   <g id="patch_5">
    <path clip-path="url(#p6477ec292f)" d="M 120.492679 442.08 
L 128.544627 442.08 
L 128.544627 235.790769 
L 120.492679 235.790769 
z
" style="fill:#648fff;"/>
   </g>
   <g id="patch_6">
    <path clip-path="url(#p6477ec292f)" d="M 136.596575 442.08 
L 144.648523 442.08 
L 144.648523 377.963077 
L 136.596575 377.963077 
z
" style="fill:#648fff;"/>
   </g>
   <g id="patch_7">
    <path clip-path="url(#p6477ec292f)" d="M 152.700471 442.08 
L 160.752419 442.08 
L 160.752419 227.427692 
L 152.700471 227.427692 
z
" style="fill:#648fff;"/>
   </g>
   <g id="patch_8">
    <path clip-path="url(#p6477ec292f)" d="M 168.804367 442.08 
L 176.856315 442.08 
L 176.856315 277.606154 
L 168.804367 277.606154 
z
" style="fill:#648fff;"/>
   </g>
   <g id="patch_9">
    <path clip-path="url(#p6477ec292f)" d="M 184.908263 442.08 
L 192.960211 442.08 
L 192.960211 266.455385 
L 184.908263 266.455385 
z
" style="fill:#648fff;"/>
   </g>
   <g id="patch_10">
    <path clip-path="url(#p6477ec292f)" d="M 201.012159 442.08 
L 209.064107 442.08 
L 209.064107 263.667692 
L 201.012159 263.667692 
z
" style="fill:#648fff;"/>
   </g>
   <g id="patch_11">
    <path clip-path="url(#p6477ec292f)" d="M 217.116055 442.08 
L 225.168003 442.08 
L 225.168003 291.544615 
L 217.116055 291.544615 
z
" style="fill:#648fff;"/>
   </g>
   <g id="patch_12">
    <path clip-path="url(#p6477ec292f)" d="M 233.219951 442.08 
L 241.271899 442.08 
L 241.271899 79.68 
L 233.219951 79.68 
z
" style="fill:#648fff;"/>
   </g>
   <g id="patch_13">
    <path clip-path="url(#p6477ec292f)" d="M 249.323847 442.08 
L 257.375795 442.08 
L 257.375795 202.338462 
L 249.323847 202.338462 
z
" style="fill:#648fff;"/>
   </g>
   <g id="patch_14">
    <path clip-path="url(#p6477ec292f)" d="M 265.427744 442.08 
L 273.479692 442.08 
L 273.479692 352.873846 
L 265.427744 352.873846 
z
" style="fill:#648fff;"/>
   </g>
   <g id="patch_15">
    <path clip-path="url(#p6477ec292f)" d="M 281.53164 442.08 
L 289.583588 442.08 
L 289.583588 157.735385 
L 281.53164 157.735385 
z
" style="fill:#648fff;"/>
   </g>
   <g id="patch_16">
    <path clip-path="url(#p6477ec292f)" d="M 297.635536 442.08 
L 305.687484 442.08 
L 305.687484 333.36 
L 297.635536 333.36 
z
" style="fill:#648fff;"/>
   </g>
   <g id="patch_17">
    <path clip-path="url(#p6477ec292f)" d="M 313.739432 442.08 
L 321.79138 442.08 
L 321.79138 308.270769 
L 313.739432 308.270769 
z
" style="fill:#648fff;"/>
   </g>
   <g id="patch_18">
    <path clip-path="url(#p6477ec292f)" d="M 329.843328 442.08 
L 337.895276 442.08 
L 337.895276 207.913846 
L 329.843328 207.913846 
z
" style="fill:#648fff;"/>
   </g>
   <g id="patch_19">
    <path clip-path="url(#p6477ec292f)" d="M 345.947224 442.08 
L 353.999172 442.08 
L 353.999172 350.086154 
L 345.947224 350.086154 
z
" style="fill:#648fff;"/>
   </g>
   <g id="patch_20">
    <path clip-path="url(#p6477ec292f)" d="M 362.05112 442.08 
L 370.103068 442.08 
L 370.103068 135.433846 
L 362.05112 135.433846 
z
" style="fill:#648fff;"/>
   </g>
   <g id="patch_21">
    <path clip-path="url(#p6477ec292f)" d="M 378.155016 442.08 
L 386.206964 442.08 
L 386.206964 213.489231 
L 378.155016 213.489231 
z
" style="fill:#648fff;"/>
   </g>
   <g id="patch_22">
    <path clip-path="url(#p6477ec292f)" d="M 394.258912 442.08 
L 402.31086 442.08 
L 402.31086 350.086154 
L 394.258912 350.086154 
z
" style="fill:#648fff;"/>
   </g>
   <g id="patch_23">
    <path clip-path="url(#p6477ec292f)" d="M 410.362808 442.08 
L 418.414756 442.08 
L 418.414756 260.88 
L 410.362808 260.88 
z
" style="fill:#648fff;"/>
   </g>
   <g id="patch_24">
    <path clip-path="url(#p6477ec292f)" d="M 426.466705 442.08 
L 434.518653 442.08 
L 434.518653 347.298462 
L 426.466705 347.298462 
z
" style="fill:#648fff;"/>
   </g>
   <g id="patch_25">
    <path clip-path="url(#p6477ec292f)" d="M 442.570601 442.08 
L 450.622549 442.08 
L 450.622549 322.209231 
L 442.570601 322.209231 
z
" style="fill:#648fff;"/>
   </g>
   <g id="patch_26">
    <path clip-path="url(#p6477ec292f)" d="M 458.674497 442.08 
L 466.726445 442.08 
L 466.726445 227.427692 
L 458.674497 227.427692 
z
" style="fill:#648fff;"/>
   </g>
   <g id="patch_27">
    <path clip-path="url(#p6477ec292f)" d="M 474.778393 442.08 
L 482.830341 442.08 
L 482.830341 347.298462 
L 474.778393 347.298462 
z
" style="fill:#648fff;"/>
   </g>
   <g id="patch_28">
    <path clip-path="url(#p6477ec292f)" d="M 490.882289 442.08 
L 498.934237 442.08 
L 498.934237 205.126154 
L 490.882289 205.126154 
z
" style="fill:#648fff;"/>
   </g>
   <g id="patch_29">
    <path clip-path="url(#p6477ec292f)" d="M 506.986185 442.08 
L 515.038133 442.08 
L 515.038133 322.209231 
L 506.986185 322.209231 
z
" style="fill:#648fff;"/>
   </g>
   <g id="patch_30">
    <path clip-path="url(#p6477ec292f)" d="M 523.090081 442.08 
L 531.142029 442.08 
L 531.142029 269.243077 
L 523.090081 269.243077 
z
" style="fill:#648fff;"/>
   </g>
   <g id="patch_31">
    <path clip-path="url(#p6477ec292f)" d="M 539.193977 442.08 
L 547.245925 442.08 
L 547.245925 118.707692 
L 539.193977 118.707692 
z
" style="fill:#648fff;"/>
   </g>
   <g id="patch_32">
    <path clip-path="url(#p6477ec292f)" d="M 555.297873 442.08 
L 563.349821 442.08 
L 563.349821 333.36 
L 555.297873 333.36 
z
" style="fill:#648fff;"/>
   </g>
   <g id="patch_33">
    <path clip-path="url(#p6477ec292f)" d="M 571.401769 442.08 
L 579.453718 442.08 
L 579.453718 230.215385 
L 571.401769 230.215385 
z
" style="fill:#648fff;"/>
   </g>
   <g id="patch_34">
    <path clip-path="url(#p6477ec292f)" d="M 587.505666 442.08 
L 595.557614 442.08 
L 595.557614 210.701538 
L 587.505666 210.701538 
z
" style="fill:#648fff;"/>
   </g>
   <g id="patch_35">
    <path d="M 62.92125 442.08 
L 62.92125 7.2 
" style="fill:none;stroke:#000000;stroke-linecap:square;stroke-linejoin:miter;stroke-width:0.8;"/>
   </g>
   <g id="patch_36">
    <path d="M 620.92125 442.08 
L 620.92125 7.2 
" style="fill:none;stroke:#000000;stroke-linecap:square;stroke-linejoin:miter;stroke-width:0.8;"/>
   </g>
   <g id="patch_37">
    <path d="M 62.92125 442.08 
L 620.92125 442.08 
" style="fill:none;stroke:#000000;stroke-linecap:square;stroke-linejoin:miter;stroke-width:0.8;"/>
   </g>
   <g id="patch_38">
    <path d="M 62.92125 7.2 
L 620.92125 7.2 
" style="fill:none;stroke:#000000;stroke-linecap:square;stroke-linejoin:miter;stroke-width:0.8;"/>
   </g>
  </g>
 </g>
 <defs>
  <clipPath id="p6477ec292f">
   <rect height="434.88" width="558" x="62.92125" y="7.2"/>
  </clipPath>
 </defs>
</svg>
