<?xml version="1.0" encoding="utf-8" standalone="no"?>
<!DOCTYPE svg PUBLIC "-//W3C//DTD SVG 1.1//EN"
  "http://www.w3.org/Graphics/SVG/1.1/DTD/svg11.dtd">
<!-- Created with matplotlib (https://matplotlib.org/) -->
<svg height="305.2864pt" version="1.1" viewBox="0 0 1132.4946 305.2864" width="1132.4946pt" xmlns="http://www.w3.org/2000/svg" xmlns:xlink="http://www.w3.org/1999/xlink">
 <defs>
  <style type="text/css">
*{stroke-linecap:butt;stroke-linejoin:round;}
  </style>
 </defs>
 <g id="figure_1">
  <g id="patch_1">
   <path d="M 0 305.2864 
L 1132.4946 305.2864 
L 1132.4946 0 
L 0 0 
z
" style="fill:#ffffff;"/>
  </g>
  <g id="axes_1">
   <g id="patch_2">
    <path clip-path="url(#pbe96aa4e2a)" d="M 887.58587 260.475697 
L 899.40313 260.475697 
L 893.4945 270.8158 
z
" style="fill:#778899;"/>
   </g>
   <g id="patch_3">
    <path clip-path="url(#pbe96aa4e2a)" d="M 933.03687 260.475697 
L 944.85413 260.475697 
L 938.9455 270.8158 
z
" style="fill:#778899;"/>
   </g>
   <g id="patch_4">
    <path clip-path="url(#pbe96aa4e2a)" d="M 978.48787 260.475697 
L 990.30513 260.475697 
L 984.3965 270.8158 
z
" style="fill:#778899;"/>
   </g>
   <g id="patch_5">
    <path clip-path="url(#pbe96aa4e2a)" d="M 1023.93887 260.475697 
L 1035.75613 260.475697 
L 1029.8475 270.8158 
z
" style="fill:#778899;"/>
   </g>
   <g id="patch_6">
    <path clip-path="url(#pbe96aa4e2a)" d="M 1069.38987 260.475697 
L 1081.20713 260.475697 
L 1075.2985 270.8158 
z
" style="fill:#778899;"/>
   </g>
   <g id="line2d_1">
    <path clip-path="url(#pbe96aa4e2a)" d="M 98.102 43.5608 
L 1120.7495 43.5608 
" style="fill:none;stroke:#000000;stroke-linecap:square;stroke-width:2;"/>
   </g>
   <g id="line2d_2">
    <path clip-path="url(#pbe96aa4e2a)" d="M 98.102 89.0118 
L 1120.7495 89.0118 
" style="fill:none;stroke:#000000;stroke-linecap:square;stroke-width:2;"/>
   </g>
   <g id="line2d_3">
    <path clip-path="url(#pbe96aa4e2a)" d="M 98.102 134.4628 
L 1120.7495 134.4628 
" style="fill:none;stroke:#000000;stroke-linecap:square;stroke-width:2;"/>
   </g>
   <g id="line2d_4">
    <path clip-path="url(#pbe96aa4e2a)" d="M 98.102 179.9138 
L 1120.7495 179.9138 
" style="fill:none;stroke:#000000;stroke-linecap:square;stroke-width:2;"/>
   </g>
   <g id="line2d_5">
    <path clip-path="url(#pbe96aa4e2a)" d="M 98.102 225.3648 
L 1120.7495 225.3648 
" style="fill:none;stroke:#000000;stroke-linecap:square;stroke-width:2;"/>
   </g>
   <g id="line2d_6">
    <path clip-path="url(#pbe96aa4e2a)" d="M 98.102 269.338642 
L 1120.7495 269.338642 
" style="fill:none;stroke:#778899;stroke-linecap:square;stroke-width:2;"/>
   </g>
   <g id="line2d_7">
    <path clip-path="url(#pbe96aa4e2a)" d="M 98.102 272.292957 
L 1120.7495 272.292957 
" style="fill:none;stroke:#778899;stroke-linecap:square;stroke-width:2;"/>
   </g>
   <g id="patch_7">
    <path clip-path="url(#pbe96aa4e2a)" d="M 157.415555 248.0903 
L 175.141445 248.0903 
L 175.141445 20.8353 
L 157.415555 20.8353 
z
" style="fill:#bdbdbd;opacity:0.6;"/>
   </g>
   <g id="patch_8">
    <path clip-path="url(#pbe96aa4e2a)" d="M 748.278555 248.0903 
L 766.004445 248.0903 
L 766.004445 20.8353 
L 748.278555 20.8353 
z
" style="fill:#bdbdbd;opacity:0.6;"/>
   </g>
   <g id="patch_9">
    <path clip-path="url(#pbe96aa4e2a)" d="M 839.180555 248.0903 
L 856.906445 248.0903 
L 856.906445 20.8353 
L 839.180555 20.8353 
z
" style="fill:#bdbdbd;opacity:0.6;"/>
   </g>
   <g id="line2d_8">
    <path clip-path="url(#pbe96aa4e2a)" d="M 211.7295 89.0118 
L 211.7295 43.5608 
" style="fill:none;stroke:#bb8bff;stroke-linecap:square;stroke-width:2;"/>
   </g>
   <g id="line2d_9">
    <path clip-path="url(#pbe96aa4e2a)" d="M 302.6315 134.4628 
L 302.6315 43.5608 
" style="fill:none;stroke:#bb8bff;stroke-linecap:square;stroke-width:2;"/>
   </g>
   <g id="line2d_10">
    <path clip-path="url(#pbe96aa4e2a)" d="M 393.5335 134.4628 
L 393.5335 89.0118 
" style="fill:none;stroke:#bb8bff;stroke-linecap:square;stroke-width:2;"/>
   </g>
   <g id="line2d_11">
    <path clip-path="url(#pbe96aa4e2a)" d="M 484.4355 179.9138 
L 484.4355 134.4628 
" style="fill:none;stroke:#bb8bff;stroke-linecap:square;stroke-width:2;"/>
   </g>
   <g id="line2d_12">
    <path clip-path="url(#pbe96aa4e2a)" d="M 575.3375 225.3648 
L 575.3375 179.9138 
" style="fill:none;stroke:#bb8bff;stroke-linecap:square;stroke-width:2;"/>
   </g>
   <g id="line2d_13">
    <path clip-path="url(#pbe96aa4e2a)" d="M 666.2395 225.3648 
L 666.2395 134.4628 
" style="fill:none;stroke:#bb8bff;stroke-linecap:square;stroke-width:2;"/>
   </g>
   <g id="line2d_14">
    <path clip-path="url(#pbe96aa4e2a)" d="M 894.971657 43.5608 
L 894.971657 260.475697 
" style="fill:none;stroke:#778899;stroke-linecap:square;stroke-width:2;"/>
   </g>
   <g id="line2d_15">
    <path clip-path="url(#pbe96aa4e2a)" d="M 892.017343 43.5608 
L 892.017343 260.475697 
" style="fill:none;stroke:#778899;stroke-linecap:square;stroke-width:2;"/>
   </g>
   <g id="line2d_16">
    <path clip-path="url(#pbe96aa4e2a)" d="M 940.422657 89.0118 
L 940.422657 260.475697 
" style="fill:none;stroke:#778899;stroke-linecap:square;stroke-width:2;"/>
   </g>
   <g id="line2d_17">
    <path clip-path="url(#pbe96aa4e2a)" d="M 937.468343 89.0118 
L 937.468343 260.475697 
" style="fill:none;stroke:#778899;stroke-linecap:square;stroke-width:2;"/>
   </g>
   <g id="line2d_18">
    <path clip-path="url(#pbe96aa4e2a)" d="M 985.873657 134.4628 
L 985.873657 260.475697 
" style="fill:none;stroke:#778899;stroke-linecap:square;stroke-width:2;"/>
   </g>
   <g id="line2d_19">
    <path clip-path="url(#pbe96aa4e2a)" d="M 982.919342 134.4628 
L 982.919342 260.475697 
" style="fill:none;stroke:#778899;stroke-linecap:square;stroke-width:2;"/>
   </g>
   <g id="line2d_20">
    <path clip-path="url(#pbe96aa4e2a)" d="M 1031.324657 179.9138 
L 1031.324657 260.475697 
" style="fill:none;stroke:#778899;stroke-linecap:square;stroke-width:2;"/>
   </g>
   <g id="line2d_21">
    <path clip-path="url(#pbe96aa4e2a)" d="M 1028.370342 179.9138 
L 1028.370342 260.475697 
" style="fill:none;stroke:#778899;stroke-linecap:square;stroke-width:2;"/>
   </g>
   <g id="line2d_22">
    <path clip-path="url(#pbe96aa4e2a)" d="M 1076.775657 225.3648 
L 1076.775657 260.475697 
" style="fill:none;stroke:#778899;stroke-linecap:square;stroke-width:2;"/>
   </g>
   <g id="line2d_23">
    <path clip-path="url(#pbe96aa4e2a)" d="M 1073.821342 225.3648 
L 1073.821342 260.475697 
" style="fill:none;stroke:#778899;stroke-linecap:square;stroke-width:2;"/>
   </g>
   <g id="line2d_24">
    <path clip-path="url(#pbe96aa4e2a)" d="M 125.3726 275.3609 
L 129.9177 266.2707 
" style="fill:none;stroke:#778899;stroke-linecap:square;stroke-width:1.5;"/>
   </g>
   <g id="patch_10">
    <path clip-path="url(#pbe96aa4e2a)" d="M 106.055925 58.332375 
L 135.599075 58.332375 
L 135.599075 28.789225 
L 106.055925 28.789225 
z
" style="fill:#6fa4ff;"/>
   </g>
   <g id="patch_11">
    <path clip-path="url(#pbe96aa4e2a)" d="M 106.055925 103.783375 
L 135.599075 103.783375 
L 135.599075 74.240225 
L 106.055925 74.240225 
z
" style="fill:#6fa4ff;"/>
   </g>
   <g id="patch_12">
    <path clip-path="url(#pbe96aa4e2a)" d="M 106.055925 149.234375 
L 135.599075 149.234375 
L 135.599075 119.691225 
L 106.055925 119.691225 
z
" style="fill:#6fa4ff;"/>
   </g>
   <g id="patch_13">
    <path clip-path="url(#pbe96aa4e2a)" d="M 106.055925 194.685375 
L 135.599075 194.685375 
L 135.599075 165.142225 
L 106.055925 165.142225 
z
" style="fill:#6fa4ff;"/>
   </g>
   <g id="patch_14">
    <path clip-path="url(#pbe96aa4e2a)" d="M 106.055925 240.136375 
L 135.599075 240.136375 
L 135.599075 210.593225 
L 106.055925 210.593225 
z
" style="fill:#6fa4ff;"/>
   </g>
   <g id="patch_15">
    <path clip-path="url(#pbe96aa4e2a)" d="M 211.7295 47.992272 
C 212.90474 47.992272 214.032004 47.525345 214.863024 46.694324 
C 215.694045 45.863304 216.160973 44.73604 216.160973 43.5608 
C 216.160973 42.38556 215.694045 41.258296 214.863024 40.427276 
C 214.032004 39.596255 212.90474 39.129327 211.7295 39.129327 
C 210.55426 39.129327 209.426996 39.596255 208.595976 40.427276 
C 207.764955 41.258296 207.298028 42.38556 207.298028 43.5608 
C 207.298028 44.73604 207.764955 45.863304 208.595976 46.694324 
C 209.426996 47.525345 210.55426 47.992272 211.7295 47.992272 
z
" style="fill:#bb8bff;stroke:#bb8bff;stroke-linejoin:miter;stroke-width:1.5;"/>
   </g>
   <g id="patch_16">
    <path clip-path="url(#pbe96aa4e2a)" d="M 196.957925 103.783375 
L 226.501075 103.783375 
L 226.501075 74.240225 
L 196.957925 74.240225 
z
" style="fill:#bb8bff;"/>
   </g>
   <g id="patch_17">
    <path clip-path="url(#pbe96aa4e2a)" d="M 242.408925 58.332375 
L 271.952075 58.332375 
L 271.952075 28.789225 
L 242.408925 28.789225 
z
" style="fill:#fa74a6;"/>
   </g>
   <g id="patch_18">
    <path clip-path="url(#pbe96aa4e2a)" d="M 242.408925 103.783375 
L 271.952075 103.783375 
L 271.952075 74.240225 
L 242.408925 74.240225 
z
" style="fill:#fa74a6;"/>
   </g>
   <g id="patch_19">
    <path clip-path="url(#pbe96aa4e2a)" d="M 302.6315 47.992272 
C 303.80674 47.992272 304.934004 47.525345 305.765024 46.694324 
C 306.596045 45.863304 307.062973 44.73604 307.062973 43.5608 
C 307.062973 42.38556 306.596045 41.258296 305.765024 40.427276 
C 304.934004 39.596255 303.80674 39.129327 302.6315 39.129327 
C 301.45626 39.129327 300.328996 39.596255 299.497976 40.427276 
C 298.666955 41.258296 298.200028 42.38556 298.200028 43.5608 
C 298.200028 44.73604 298.666955 45.863304 299.497976 46.694324 
C 300.328996 47.525345 301.45626 47.992272 302.6315 47.992272 
z
" style="fill:#bb8bff;stroke:#bb8bff;stroke-linejoin:miter;stroke-width:1.5;"/>
   </g>
   <g id="patch_20">
    <path clip-path="url(#pbe96aa4e2a)" d="M 287.859925 149.234375 
L 317.403075 149.234375 
L 317.403075 119.691225 
L 287.859925 119.691225 
z
" style="fill:#bb8bff;"/>
   </g>
   <g id="patch_21">
    <path clip-path="url(#pbe96aa4e2a)" d="M 333.310925 58.332375 
L 362.854075 58.332375 
L 362.854075 28.789225 
L 333.310925 28.789225 
z
" style="fill:#fa74a6;"/>
   </g>
   <g id="patch_22">
    <path clip-path="url(#pbe96aa4e2a)" d="M 333.310925 149.234375 
L 362.854075 149.234375 
L 362.854075 119.691225 
L 333.310925 119.691225 
z
" style="fill:#fa74a6;"/>
   </g>
   <g id="patch_23">
    <path clip-path="url(#pbe96aa4e2a)" d="M 393.5335 93.443272 
C 394.70874 93.443272 395.836004 92.976345 396.667024 92.145324 
C 397.498045 91.314304 397.964972 90.18704 397.964972 89.0118 
C 397.964972 87.83656 397.498045 86.709296 396.667024 85.878276 
C 395.836004 85.047255 394.70874 84.580327 393.5335 84.580327 
C 392.35826 84.580327 391.230996 85.047255 390.399976 85.878276 
C 389.568955 86.709296 389.102028 87.83656 389.102028 89.0118 
C 389.102028 90.18704 389.568955 91.314304 390.399976 92.145324 
C 391.230996 92.976345 392.35826 93.443272 393.5335 93.443272 
z
" style="fill:#bb8bff;stroke:#bb8bff;stroke-linejoin:miter;stroke-width:1.5;"/>
   </g>
   <g id="patch_24">
    <path clip-path="url(#pbe96aa4e2a)" d="M 378.761925 149.234375 
L 408.305075 149.234375 
L 408.305075 119.691225 
L 378.761925 119.691225 
z
" style="fill:#bb8bff;"/>
   </g>
   <g id="patch_25">
    <path clip-path="url(#pbe96aa4e2a)" d="M 424.212925 103.783375 
L 453.756075 103.783375 
L 453.756075 74.240225 
L 424.212925 74.240225 
z
" style="fill:#fa74a6;"/>
   </g>
   <g id="patch_26">
    <path clip-path="url(#pbe96aa4e2a)" d="M 424.212925 149.234375 
L 453.756075 149.234375 
L 453.756075 119.691225 
L 424.212925 119.691225 
z
" style="fill:#fa74a6;"/>
   </g>
   <g id="patch_27">
    <path clip-path="url(#pbe96aa4e2a)" d="M 484.4355 184.345272 
C 485.61074 184.345272 486.738004 183.878345 487.569024 183.047324 
C 488.400045 182.216304 488.866972 181.08904 488.866972 179.9138 
C 488.866972 178.73856 488.400045 177.611296 487.569024 176.780276 
C 486.738004 175.949255 485.61074 175.482327 484.4355 175.482327 
C 483.26026 175.482327 482.132996 175.949255 481.301976 176.780276 
C 480.470955 177.611296 480.004028 178.73856 480.004028 179.9138 
C 480.004028 181.08904 480.470955 182.216304 481.301976 183.047324 
C 482.132996 183.878345 483.26026 184.345272 484.4355 184.345272 
z
" style="fill:#bb8bff;stroke:#bb8bff;stroke-linejoin:miter;stroke-width:1.5;"/>
   </g>
   <g id="patch_28">
    <path clip-path="url(#pbe96aa4e2a)" d="M 469.663925 149.234375 
L 499.207075 149.234375 
L 499.207075 119.691225 
L 469.663925 119.691225 
z
" style="fill:#bb8bff;"/>
   </g>
   <g id="patch_29">
    <path clip-path="url(#pbe96aa4e2a)" d="M 515.114925 194.685375 
L 544.658075 194.685375 
L 544.658075 165.142225 
L 515.114925 165.142225 
z
" style="fill:#fa74a6;"/>
   </g>
   <g id="patch_30">
    <path clip-path="url(#pbe96aa4e2a)" d="M 515.114925 149.234375 
L 544.658075 149.234375 
L 544.658075 119.691225 
L 515.114925 119.691225 
z
" style="fill:#fa74a6;"/>
   </g>
   <g id="patch_31">
    <path clip-path="url(#pbe96aa4e2a)" d="M 575.3375 184.345272 
C 576.51274 184.345272 577.640004 183.878345 578.471024 183.047324 
C 579.302045 182.216304 579.768973 181.08904 579.768973 179.9138 
C 579.768973 178.73856 579.302045 177.611296 578.471024 176.780276 
C 577.640004 175.949255 576.51274 175.482327 575.3375 175.482327 
C 574.16226 175.482327 573.034996 175.949255 572.203976 176.780276 
C 571.372955 177.611296 570.906027 178.73856 570.906027 179.9138 
C 570.906027 181.08904 571.372955 182.216304 572.203976 183.047324 
C 573.034996 183.878345 574.16226 184.345272 575.3375 184.345272 
z
" style="fill:#bb8bff;stroke:#bb8bff;stroke-linejoin:miter;stroke-width:1.5;"/>
   </g>
   <g id="patch_32">
    <path clip-path="url(#pbe96aa4e2a)" d="M 560.565925 240.136375 
L 590.109075 240.136375 
L 590.109075 210.593225 
L 560.565925 210.593225 
z
" style="fill:#bb8bff;"/>
   </g>
   <g id="patch_33">
    <path clip-path="url(#pbe96aa4e2a)" d="M 606.016925 194.685375 
L 635.560075 194.685375 
L 635.560075 165.142225 
L 606.016925 165.142225 
z
" style="fill:#fa74a6;"/>
   </g>
   <g id="patch_34">
    <path clip-path="url(#pbe96aa4e2a)" d="M 606.016925 240.136375 
L 635.560075 240.136375 
L 635.560075 210.593225 
L 606.016925 210.593225 
z
" style="fill:#fa74a6;"/>
   </g>
   <g id="patch_35">
    <path clip-path="url(#pbe96aa4e2a)" d="M 666.2395 229.796272 
C 667.41474 229.796272 668.542004 229.329345 669.373024 228.498324 
C 670.204045 227.667304 670.670972 226.54004 670.670972 225.3648 
C 670.670972 224.18956 670.204045 223.062296 669.373024 222.231276 
C 668.542004 221.400255 667.41474 220.933327 666.2395 220.933327 
C 665.06426 220.933327 663.936996 221.400255 663.105976 222.231276 
C 662.274955 223.062296 661.808027 224.18956 661.808027 225.3648 
C 661.808027 226.54004 662.274955 227.667304 663.105976 228.498324 
C 663.936996 229.329345 665.06426 229.796272 666.2395 229.796272 
z
" style="fill:#bb8bff;stroke:#bb8bff;stroke-linejoin:miter;stroke-width:1.5;"/>
   </g>
   <g id="patch_36">
    <path clip-path="url(#pbe96aa4e2a)" d="M 651.467925 149.234375 
L 681.011075 149.234375 
L 681.011075 119.691225 
L 651.467925 119.691225 
z
" style="fill:#bb8bff;"/>
   </g>
   <g id="patch_37">
    <path clip-path="url(#pbe96aa4e2a)" d="M 696.918925 240.136375 
L 726.462075 240.136375 
L 726.462075 210.593225 
L 696.918925 210.593225 
z
" style="fill:#fa74a6;"/>
   </g>
   <g id="patch_38">
    <path clip-path="url(#pbe96aa4e2a)" d="M 696.918925 149.234375 
L 726.462075 149.234375 
L 726.462075 119.691225 
L 696.918925 119.691225 
z
" style="fill:#fa74a6;"/>
   </g>
   <g id="patch_39">
    <path clip-path="url(#pbe96aa4e2a)" d="M 787.820925 58.332375 
L 817.364075 58.332375 
L 817.364075 28.789225 
L 787.820925 28.789225 
z
" style="fill:#bb8bff;"/>
   </g>
   <g id="patch_40">
    <path clip-path="url(#pbe96aa4e2a)" d="M 787.820925 103.783375 
L 817.364075 103.783375 
L 817.364075 74.240225 
L 787.820925 74.240225 
z
" style="fill:#bb8bff;"/>
   </g>
   <g id="patch_41">
    <path clip-path="url(#pbe96aa4e2a)" d="M 787.820925 149.234375 
L 817.364075 149.234375 
L 817.364075 119.691225 
L 787.820925 119.691225 
z
" style="fill:#bb8bff;"/>
   </g>
   <g id="patch_42">
    <path clip-path="url(#pbe96aa4e2a)" d="M 787.820925 194.685375 
L 817.364075 194.685375 
L 817.364075 165.142225 
L 787.820925 165.142225 
z
" style="fill:#bb8bff;"/>
   </g>
   <g id="patch_43">
    <path clip-path="url(#pbe96aa4e2a)" d="M 787.820925 240.136375 
L 817.364075 240.136375 
L 817.364075 210.593225 
L 787.820925 210.593225 
z
" style="fill:#bb8bff;"/>
   </g>
   <g id="patch_44">
    <path clip-path="url(#pbe96aa4e2a)" d="M 878.722925 58.332375 
L 908.266075 58.332375 
L 908.266075 28.789225 
L 878.722925 28.789225 
z
"/>
   </g>
   <g id="patch_45">
    <path clip-path="url(#pbe96aa4e2a)" d="M 903.834602 47.992272 
C 903.834602 45.250959 902.744458 42.619118 900.806057 40.680716 
C 898.867655 38.742314 896.235814 37.65217 893.4945 37.65217 
C 890.753186 37.65217 888.121345 38.742314 886.182943 40.680716 
C 884.244542 42.619118 883.154398 45.250959 883.154398 47.992272 
" style="fill:none;stroke:#ffffff;stroke-linejoin:miter;stroke-width:2;"/>
   </g>
   <g id="patch_46">
    <path clip-path="url(#pbe96aa4e2a)" d="M 924.173925 103.783375 
L 953.717075 103.783375 
L 953.717075 74.240225 
L 924.173925 74.240225 
z
"/>
   </g>
   <g id="patch_47">
    <path clip-path="url(#pbe96aa4e2a)" d="M 949.285602 93.443272 
C 949.285602 90.701959 948.195458 88.070118 946.257057 86.131716 
C 944.318655 84.193314 941.686814 83.10317 938.9455 83.10317 
C 936.204186 83.10317 933.572345 84.193314 931.633943 86.131716 
C 929.695542 88.070118 928.605397 90.701959 928.605397 93.443272 
" style="fill:none;stroke:#ffffff;stroke-linejoin:miter;stroke-width:2;"/>
   </g>
   <g id="patch_48">
    <path clip-path="url(#pbe96aa4e2a)" d="M 969.624925 149.234375 
L 999.168075 149.234375 
L 999.168075 119.691225 
L 969.624925 119.691225 
z
"/>
   </g>
   <g id="patch_49">
    <path clip-path="url(#pbe96aa4e2a)" d="M 994.736602 138.894272 
C 994.736602 136.152959 993.646458 133.521118 991.708057 131.582716 
C 989.769655 129.644314 987.137814 128.55417 984.3965 128.55417 
C 981.655186 128.55417 979.023345 129.644314 977.084943 131.582716 
C 975.146542 133.521118 974.056397 136.152959 974.056397 138.894272 
" style="fill:none;stroke:#ffffff;stroke-linejoin:miter;stroke-width:2;"/>
   </g>
   <g id="patch_50">
    <path clip-path="url(#pbe96aa4e2a)" d="M 1015.075925 194.685375 
L 1044.619075 194.685375 
L 1044.619075 165.142225 
L 1015.075925 165.142225 
z
"/>
   </g>
   <g id="patch_51">
    <path clip-path="url(#pbe96aa4e2a)" d="M 1040.187602 184.345272 
C 1040.187602 181.603959 1039.097458 178.972118 1037.159057 177.033716 
C 1035.220655 175.095314 1032.588814 174.00517 1029.8475 174.00517 
C 1027.106186 174.00517 1024.474345 175.095314 1022.535943 177.033716 
C 1020.597542 178.972118 1019.507397 181.603959 1019.507397 184.345272 
" style="fill:none;stroke:#ffffff;stroke-linejoin:miter;stroke-width:2;"/>
   </g>
   <g id="patch_52">
    <path clip-path="url(#pbe96aa4e2a)" d="M 1060.526925 240.136375 
L 1090.070075 240.136375 
L 1090.070075 210.593225 
L 1060.526925 210.593225 
z
"/>
   </g>
   <g id="patch_53">
    <path clip-path="url(#pbe96aa4e2a)" d="M 1085.638602 229.796272 
C 1085.638602 227.054959 1084.548458 224.423118 1082.610057 222.484716 
C 1080.671655 220.546314 1078.039814 219.45617 1075.2985 219.45617 
C 1072.557186 219.45617 1069.925345 220.546314 1067.986943 222.484716 
C 1066.048542 224.423118 1064.958397 227.054959 1064.958397 229.796272 
" style="fill:none;stroke:#ffffff;stroke-linejoin:miter;stroke-width:2;"/>
   </g>
   <g id="line2d_25">
    <path clip-path="url(#pbe96aa4e2a)" d="M 893.4945 47.992272 
L 903.834602 37.65217 
" style="fill:none;stroke:#ffffff;stroke-linecap:square;stroke-width:2;"/>
   </g>
   <g id="line2d_26">
    <path clip-path="url(#pbe96aa4e2a)" d="M 938.9455 93.443272 
L 949.285602 83.10317 
" style="fill:none;stroke:#ffffff;stroke-linecap:square;stroke-width:2;"/>
   </g>
   <g id="line2d_27">
    <path clip-path="url(#pbe96aa4e2a)" d="M 984.3965 138.894272 
L 994.736602 128.55417 
" style="fill:none;stroke:#ffffff;stroke-linecap:square;stroke-width:2;"/>
   </g>
   <g id="line2d_28">
    <path clip-path="url(#pbe96aa4e2a)" d="M 1029.8475 184.345272 
L 1040.187602 174.00517 
" style="fill:none;stroke:#ffffff;stroke-linecap:square;stroke-width:2;"/>
   </g>
   <g id="line2d_29">
    <path clip-path="url(#pbe96aa4e2a)" d="M 1075.2985 229.796272 
L 1085.638602 219.45617 
" style="fill:none;stroke:#ffffff;stroke-linecap:square;stroke-width:2;"/>
   </g>
   <g id="line2d_30">
    <path clip-path="url(#pbe96aa4e2a)" d="M 166.2785 20.8353 
L 166.2785 66.2863 
" style="fill:none;stroke:#000000;stroke-dasharray:3.7,1.6;stroke-dashoffset:0;"/>
   </g>
   <g id="line2d_31">
    <path clip-path="url(#pbe96aa4e2a)" d="M 166.2785 66.2863 
L 166.2785 111.7373 
" style="fill:none;stroke:#000000;stroke-dasharray:3.7,1.6;stroke-dashoffset:0;"/>
   </g>
   <g id="line2d_32">
    <path clip-path="url(#pbe96aa4e2a)" d="M 166.2785 111.7373 
L 166.2785 157.1883 
" style="fill:none;stroke:#000000;stroke-dasharray:3.7,1.6;stroke-dashoffset:0;"/>
   </g>
   <g id="line2d_33">
    <path clip-path="url(#pbe96aa4e2a)" d="M 166.2785 157.1883 
L 166.2785 202.6393 
" style="fill:none;stroke:#000000;stroke-dasharray:3.7,1.6;stroke-dashoffset:0;"/>
   </g>
   <g id="line2d_34">
    <path clip-path="url(#pbe96aa4e2a)" d="M 166.2785 202.6393 
L 166.2785 248.0903 
" style="fill:none;stroke:#000000;stroke-dasharray:3.7,1.6;stroke-dashoffset:0;"/>
   </g>
   <g id="line2d_35">
    <path clip-path="url(#pbe96aa4e2a)" d="M 757.1415 20.8353 
L 757.1415 66.2863 
" style="fill:none;stroke:#000000;stroke-dasharray:3.7,1.6;stroke-dashoffset:0;"/>
   </g>
   <g id="line2d_36">
    <path clip-path="url(#pbe96aa4e2a)" d="M 757.1415 66.2863 
L 757.1415 111.7373 
" style="fill:none;stroke:#000000;stroke-dasharray:3.7,1.6;stroke-dashoffset:0;"/>
   </g>
   <g id="line2d_37">
    <path clip-path="url(#pbe96aa4e2a)" d="M 757.1415 111.7373 
L 757.1415 157.1883 
" style="fill:none;stroke:#000000;stroke-dasharray:3.7,1.6;stroke-dashoffset:0;"/>
   </g>
   <g id="line2d_38">
    <path clip-path="url(#pbe96aa4e2a)" d="M 757.1415 157.1883 
L 757.1415 202.6393 
" style="fill:none;stroke:#000000;stroke-dasharray:3.7,1.6;stroke-dashoffset:0;"/>
   </g>
   <g id="line2d_39">
    <path clip-path="url(#pbe96aa4e2a)" d="M 757.1415 202.6393 
L 757.1415 248.0903 
" style="fill:none;stroke:#000000;stroke-dasharray:3.7,1.6;stroke-dashoffset:0;"/>
   </g>
   <g id="line2d_40">
    <path clip-path="url(#pbe96aa4e2a)" d="M 848.0435 20.8353 
L 848.0435 66.2863 
" style="fill:none;stroke:#000000;stroke-dasharray:3.7,1.6;stroke-dashoffset:0;"/>
   </g>
   <g id="line2d_41">
    <path clip-path="url(#pbe96aa4e2a)" d="M 848.0435 66.2863 
L 848.0435 111.7373 
" style="fill:none;stroke:#000000;stroke-dasharray:3.7,1.6;stroke-dashoffset:0;"/>
   </g>
   <g id="line2d_42">
    <path clip-path="url(#pbe96aa4e2a)" d="M 848.0435 111.7373 
L 848.0435 157.1883 
" style="fill:none;stroke:#000000;stroke-dasharray:3.7,1.6;stroke-dashoffset:0;"/>
   </g>
   <g id="line2d_43">
    <path clip-path="url(#pbe96aa4e2a)" d="M 848.0435 157.1883 
L 848.0435 202.6393 
" style="fill:none;stroke:#000000;stroke-dasharray:3.7,1.6;stroke-dashoffset:0;"/>
   </g>
   <g id="line2d_44">
    <path clip-path="url(#pbe96aa4e2a)" d="M 848.0435 202.6393 
L 848.0435 248.0903 
" style="fill:none;stroke:#000000;stroke-dasharray:3.7,1.6;stroke-dashoffset:0;"/>
   </g>
   <g id="text_1">
    <g clip-path="url(#pbe96aa4e2a)">
     <!-- $H$ -->
     <defs>
      <path d="M 16.890625 72.90625 
L 26.8125 72.90625 
L 21 43.015625 
L 56.78125 43.015625 
L 62.59375 72.90625 
L 72.515625 72.90625 
L 58.296875 0 
L 48.390625 0 
L 55.171875 34.71875 
L 19.390625 34.71875 
L 12.59375 0 
L 2.6875 0 
z
" id="DejaVuSans-Oblique-72"/>
     </defs>
     <g transform="translate(115.8875 47.147987)scale(0.13 -0.13)">
      <use transform="translate(0 0.09375)" xlink:href="#DejaVuSans-Oblique-72"/>
     </g>
    </g>
   </g>
   <g id="text_2">
    <g clip-path="url(#pbe96aa4e2a)">
     <!-- $H$ -->
     <g transform="translate(115.8875 92.598987)scale(0.13 -0.13)">
      <use transform="translate(0 0.09375)" xlink:href="#DejaVuSans-Oblique-72"/>
     </g>
    </g>
   </g>
   <g id="text_3">
    <g clip-path="url(#pbe96aa4e2a)">
     <!-- $H$ -->
     <g transform="translate(115.8875 138.049987)scale(0.13 -0.13)">
      <use transform="translate(0 0.09375)" xlink:href="#DejaVuSans-Oblique-72"/>
     </g>
    </g>
   </g>
   <g id="text_4">
    <g clip-path="url(#pbe96aa4e2a)">
     <!-- $H$ -->
     <g transform="translate(115.8875 183.500987)scale(0.13 -0.13)">
      <use transform="translate(0 0.09375)" xlink:href="#DejaVuSans-Oblique-72"/>
     </g>
    </g>
   </g>
   <g id="text_5">
    <g clip-path="url(#pbe96aa4e2a)">
     <!-- $H$ -->
     <g transform="translate(115.8875 228.951987)scale(0.13 -0.13)">
      <use transform="translate(0 0.09375)" xlink:href="#DejaVuSans-Oblique-72"/>
     </g>
    </g>
   </g>
   <g id="text_6">
    <g clip-path="url(#pbe96aa4e2a)">
     <!-- $U_1$ -->
     <defs>
      <path d="M 15.484375 72.90625 
L 25.390625 72.90625 
L 16.796875 28.609375 
Q 16.265625 25.640625 16.046875 23.703125 
Q 15.828125 21.78125 15.828125 20.3125 
Q 15.828125 13.578125 19.578125 10.078125 
Q 23.34375 6.59375 30.609375 6.59375 
Q 40.046875 6.59375 45.28125 11.765625 
Q 50.53125 16.9375 52.78125 28.609375 
L 61.375 72.90625 
L 71.296875 72.90625 
L 62.5 27.390625 
Q 59.625 12.640625 51.5625 5.609375 
Q 43.5 -1.421875 29.5 -1.421875 
Q 18.5625 -1.421875 12.1875 4.078125 
Q 5.8125 9.578125 5.8125 19 
Q 5.8125 20.703125 6.046875 22.828125 
Q 6.296875 24.953125 6.78125 27.390625 
z
" id="DejaVuSans-Oblique-85"/>
      <path d="M 12.40625 8.296875 
L 28.515625 8.296875 
L 28.515625 63.921875 
L 10.984375 60.40625 
L 10.984375 69.390625 
L 28.421875 72.90625 
L 38.28125 72.90625 
L 38.28125 8.296875 
L 54.390625 8.296875 
L 54.390625 0 
L 12.40625 0 
z
" id="DejaVuSans-49"/>
     </defs>
     <g transform="translate(203.8645 88.167515)scale(0.13 -0.13)">
      <use transform="translate(0 0.09375)" xlink:href="#DejaVuSans-Oblique-85"/>
      <use transform="translate(73.193359 -16.3125)scale(0.7)" xlink:href="#DejaVuSans-49"/>
     </g>
    </g>
   </g>
   <g id="text_7">
    <g clip-path="url(#pbe96aa4e2a)">
     <!-- $-$3.8 -->
     <defs>
      <path d="M 10.59375 35.5 
L 73.1875 35.5 
L 73.1875 27.203125 
L 10.59375 27.203125 
z
" id="DejaVuSans-8722"/>
      <path d="M 40.578125 39.3125 
Q 47.65625 37.796875 51.625 33 
Q 55.609375 28.21875 55.609375 21.1875 
Q 55.609375 10.40625 48.1875 4.484375 
Q 40.765625 -1.421875 27.09375 -1.421875 
Q 22.515625 -1.421875 17.65625 -0.515625 
Q 12.796875 0.390625 7.625 2.203125 
L 7.625 11.71875 
Q 11.71875 9.328125 16.59375 8.109375 
Q 21.484375 6.890625 26.8125 6.890625 
Q 36.078125 6.890625 40.9375 10.546875 
Q 45.796875 14.203125 45.796875 21.1875 
Q 45.796875 27.640625 41.28125 31.265625 
Q 36.765625 34.90625 28.71875 34.90625 
L 20.21875 34.90625 
L 20.21875 43.015625 
L 29.109375 43.015625 
Q 36.375 43.015625 40.234375 45.921875 
Q 44.09375 48.828125 44.09375 54.296875 
Q 44.09375 59.90625 40.109375 62.90625 
Q 36.140625 65.921875 28.71875 65.921875 
Q 24.65625 65.921875 20.015625 65.03125 
Q 15.375 64.15625 9.8125 62.3125 
L 9.8125 71.09375 
Q 15.4375 72.65625 20.34375 73.4375 
Q 25.25 74.21875 29.59375 74.21875 
Q 40.828125 74.21875 47.359375 69.109375 
Q 53.90625 64.015625 53.90625 55.328125 
Q 53.90625 49.265625 50.4375 45.09375 
Q 46.96875 40.921875 40.578125 39.3125 
z
" id="DejaVuSans-51"/>
      <path d="M 10.6875 12.40625 
L 21 12.40625 
L 21 0 
L 10.6875 0 
z
" id="DejaVuSans-46"/>
      <path d="M 31.78125 34.625 
Q 24.75 34.625 20.71875 30.859375 
Q 16.703125 27.09375 16.703125 20.515625 
Q 16.703125 13.921875 20.71875 10.15625 
Q 24.75 6.390625 31.78125 6.390625 
Q 38.8125 6.390625 42.859375 10.171875 
Q 46.921875 13.96875 46.921875 20.515625 
Q 46.921875 27.09375 42.890625 30.859375 
Q 38.875 34.625 31.78125 34.625 
z
M 21.921875 38.8125 
Q 15.578125 40.375 12.03125 44.71875 
Q 8.5 49.078125 8.5 55.328125 
Q 8.5 64.0625 14.71875 69.140625 
Q 20.953125 74.21875 31.78125 74.21875 
Q 42.671875 74.21875 48.875 69.140625 
Q 55.078125 64.0625 55.078125 55.328125 
Q 55.078125 49.078125 51.53125 44.71875 
Q 48 40.375 41.703125 38.8125 
Q 48.828125 37.15625 52.796875 32.3125 
Q 56.78125 27.484375 56.78125 20.515625 
Q 56.78125 9.90625 50.3125 4.234375 
Q 43.84375 -1.421875 31.78125 -1.421875 
Q 19.734375 -1.421875 13.25 4.234375 
Q 6.78125 9.90625 6.78125 20.515625 
Q 6.78125 27.484375 10.78125 32.3125 
Q 14.796875 37.15625 21.921875 38.8125 
z
M 18.3125 54.390625 
Q 18.3125 48.734375 21.84375 45.5625 
Q 25.390625 42.390625 31.78125 42.390625 
Q 38.140625 42.390625 41.71875 45.5625 
Q 45.3125 48.734375 45.3125 54.390625 
Q 45.3125 60.0625 41.71875 63.234375 
Q 38.140625 66.40625 31.78125 66.40625 
Q 25.390625 66.40625 21.84375 63.234375 
Q 18.3125 60.0625 18.3125 54.390625 
z
" id="DejaVuSans-56"/>
     </defs>
     <g transform="translate(202.0095 100.082245)scale(0.08 -0.08)">
      <use transform="translate(0 0.78125)" xlink:href="#DejaVuSans-8722"/>
      <use transform="translate(83.789062 0.78125)" xlink:href="#DejaVuSans-51"/>
      <use transform="translate(147.412109 0.78125)" xlink:href="#DejaVuSans-46"/>
      <use transform="translate(179.167969 0.78125)" xlink:href="#DejaVuSans-56"/>
     </g>
    </g>
   </g>
   <g id="text_8">
    <g clip-path="url(#pbe96aa4e2a)">
     <!-- $U_1$ -->
     <g transform="translate(249.3155 42.716515)scale(0.13 -0.13)">
      <use transform="translate(0 0.09375)" xlink:href="#DejaVuSans-Oblique-85"/>
      <use transform="translate(73.193359 -16.3125)scale(0.7)" xlink:href="#DejaVuSans-49"/>
     </g>
    </g>
   </g>
   <g id="text_9">
    <g clip-path="url(#pbe96aa4e2a)">
     <!-- 1.9 -->
     <defs>
      <path d="M 10.984375 1.515625 
L 10.984375 10.5 
Q 14.703125 8.734375 18.5 7.8125 
Q 22.3125 6.890625 25.984375 6.890625 
Q 35.75 6.890625 40.890625 13.453125 
Q 46.046875 20.015625 46.78125 33.40625 
Q 43.953125 29.203125 39.59375 26.953125 
Q 35.25 24.703125 29.984375 24.703125 
Q 19.046875 24.703125 12.671875 31.3125 
Q 6.296875 37.9375 6.296875 49.421875 
Q 6.296875 60.640625 12.9375 67.421875 
Q 19.578125 74.21875 30.609375 74.21875 
Q 43.265625 74.21875 49.921875 64.515625 
Q 56.59375 54.828125 56.59375 36.375 
Q 56.59375 19.140625 48.40625 8.859375 
Q 40.234375 -1.421875 26.421875 -1.421875 
Q 22.703125 -1.421875 18.890625 -0.6875 
Q 15.09375 0.046875 10.984375 1.515625 
z
M 30.609375 32.421875 
Q 37.25 32.421875 41.125 36.953125 
Q 45.015625 41.5 45.015625 49.421875 
Q 45.015625 57.28125 41.125 61.84375 
Q 37.25 66.40625 30.609375 66.40625 
Q 23.96875 66.40625 20.09375 61.84375 
Q 16.21875 57.28125 16.21875 49.421875 
Q 16.21875 41.5 20.09375 36.953125 
Q 23.96875 32.421875 30.609375 32.421875 
z
" id="DejaVuSans-57"/>
     </defs>
     <g transform="translate(250.81925 54.631245)scale(0.08 -0.08)">
      <use xlink:href="#DejaVuSans-49"/>
      <use x="63.623047" xlink:href="#DejaVuSans-46"/>
      <use x="95.410156" xlink:href="#DejaVuSans-57"/>
     </g>
    </g>
   </g>
   <g id="text_10">
    <g clip-path="url(#pbe96aa4e2a)">
     <!-- $U_1$ -->
     <g transform="translate(249.3155 88.167515)scale(0.13 -0.13)">
      <use transform="translate(0 0.09375)" xlink:href="#DejaVuSans-Oblique-85"/>
      <use transform="translate(73.193359 -16.3125)scale(0.7)" xlink:href="#DejaVuSans-49"/>
     </g>
    </g>
   </g>
   <g id="text_11">
    <g clip-path="url(#pbe96aa4e2a)">
     <!-- 1.9 -->
     <g transform="translate(250.81925 100.082245)scale(0.08 -0.08)">
      <use xlink:href="#DejaVuSans-49"/>
      <use x="63.623047" xlink:href="#DejaVuSans-46"/>
      <use x="95.410156" xlink:href="#DejaVuSans-57"/>
     </g>
    </g>
   </g>
   <g id="text_12">
    <g clip-path="url(#pbe96aa4e2a)">
     <!-- $U_1$ -->
     <g transform="translate(294.7665 133.618515)scale(0.13 -0.13)">
      <use transform="translate(0 0.09375)" xlink:href="#DejaVuSans-Oblique-85"/>
      <use transform="translate(73.193359 -16.3125)scale(0.7)" xlink:href="#DejaVuSans-49"/>
     </g>
    </g>
   </g>
   <g id="text_13">
    <g clip-path="url(#pbe96aa4e2a)">
     <!-- $-$3.8 -->
     <g transform="translate(292.9115 145.533245)scale(0.08 -0.08)">
      <use transform="translate(0 0.78125)" xlink:href="#DejaVuSans-8722"/>
      <use transform="translate(83.789062 0.78125)" xlink:href="#DejaVuSans-51"/>
      <use transform="translate(147.412109 0.78125)" xlink:href="#DejaVuSans-46"/>
      <use transform="translate(179.167969 0.78125)" xlink:href="#DejaVuSans-56"/>
     </g>
    </g>
   </g>
   <g id="text_14">
    <g clip-path="url(#pbe96aa4e2a)">
     <!-- $U_1$ -->
     <g transform="translate(340.2175 42.716515)scale(0.13 -0.13)">
      <use transform="translate(0 0.09375)" xlink:href="#DejaVuSans-Oblique-85"/>
      <use transform="translate(73.193359 -16.3125)scale(0.7)" xlink:href="#DejaVuSans-49"/>
     </g>
    </g>
   </g>
   <g id="text_15">
    <g clip-path="url(#pbe96aa4e2a)">
     <!-- 1.9 -->
     <g transform="translate(341.72125 54.631245)scale(0.08 -0.08)">
      <use xlink:href="#DejaVuSans-49"/>
      <use x="63.623047" xlink:href="#DejaVuSans-46"/>
      <use x="95.410156" xlink:href="#DejaVuSans-57"/>
     </g>
    </g>
   </g>
   <g id="text_16">
    <g clip-path="url(#pbe96aa4e2a)">
     <!-- $U_1$ -->
     <g transform="translate(340.2175 133.618515)scale(0.13 -0.13)">
      <use transform="translate(0 0.09375)" xlink:href="#DejaVuSans-Oblique-85"/>
      <use transform="translate(73.193359 -16.3125)scale(0.7)" xlink:href="#DejaVuSans-49"/>
     </g>
    </g>
   </g>
   <g id="text_17">
    <g clip-path="url(#pbe96aa4e2a)">
     <!-- 1.9 -->
     <g transform="translate(341.72125 145.533245)scale(0.08 -0.08)">
      <use xlink:href="#DejaVuSans-49"/>
      <use x="63.623047" xlink:href="#DejaVuSans-46"/>
      <use x="95.410156" xlink:href="#DejaVuSans-57"/>
     </g>
    </g>
   </g>
   <g id="text_18">
    <g clip-path="url(#pbe96aa4e2a)">
     <!-- $U_1$ -->
     <g transform="translate(385.6685 133.618515)scale(0.13 -0.13)">
      <use transform="translate(0 0.09375)" xlink:href="#DejaVuSans-Oblique-85"/>
      <use transform="translate(73.193359 -16.3125)scale(0.7)" xlink:href="#DejaVuSans-49"/>
     </g>
    </g>
   </g>
   <g id="text_19">
    <g clip-path="url(#pbe96aa4e2a)">
     <!-- $-$3.8 -->
     <g transform="translate(383.8135 145.533245)scale(0.08 -0.08)">
      <use transform="translate(0 0.78125)" xlink:href="#DejaVuSans-8722"/>
      <use transform="translate(83.789062 0.78125)" xlink:href="#DejaVuSans-51"/>
      <use transform="translate(147.412109 0.78125)" xlink:href="#DejaVuSans-46"/>
      <use transform="translate(179.167969 0.78125)" xlink:href="#DejaVuSans-56"/>
     </g>
    </g>
   </g>
   <g id="text_20">
    <g clip-path="url(#pbe96aa4e2a)">
     <!-- $U_1$ -->
     <g transform="translate(431.1195 88.167515)scale(0.13 -0.13)">
      <use transform="translate(0 0.09375)" xlink:href="#DejaVuSans-Oblique-85"/>
      <use transform="translate(73.193359 -16.3125)scale(0.7)" xlink:href="#DejaVuSans-49"/>
     </g>
    </g>
   </g>
   <g id="text_21">
    <g clip-path="url(#pbe96aa4e2a)">
     <!-- 1.9 -->
     <g transform="translate(432.62325 100.082245)scale(0.08 -0.08)">
      <use xlink:href="#DejaVuSans-49"/>
      <use x="63.623047" xlink:href="#DejaVuSans-46"/>
      <use x="95.410156" xlink:href="#DejaVuSans-57"/>
     </g>
    </g>
   </g>
   <g id="text_22">
    <g clip-path="url(#pbe96aa4e2a)">
     <!-- $U_1$ -->
     <g transform="translate(431.1195 133.618515)scale(0.13 -0.13)">
      <use transform="translate(0 0.09375)" xlink:href="#DejaVuSans-Oblique-85"/>
      <use transform="translate(73.193359 -16.3125)scale(0.7)" xlink:href="#DejaVuSans-49"/>
     </g>
    </g>
   </g>
   <g id="text_23">
    <g clip-path="url(#pbe96aa4e2a)">
     <!-- 1.9 -->
     <g transform="translate(432.62325 145.533245)scale(0.08 -0.08)">
      <use xlink:href="#DejaVuSans-49"/>
      <use x="63.623047" xlink:href="#DejaVuSans-46"/>
      <use x="95.410156" xlink:href="#DejaVuSans-57"/>
     </g>
    </g>
   </g>
   <g id="text_24">
    <g clip-path="url(#pbe96aa4e2a)">
     <!-- $U_1$ -->
     <g transform="translate(476.5705 133.618515)scale(0.13 -0.13)">
      <use transform="translate(0 0.09375)" xlink:href="#DejaVuSans-Oblique-85"/>
      <use transform="translate(73.193359 -16.3125)scale(0.7)" xlink:href="#DejaVuSans-49"/>
     </g>
    </g>
   </g>
   <g id="text_25">
    <g clip-path="url(#pbe96aa4e2a)">
     <!-- $-$3.8 -->
     <g transform="translate(474.7155 145.533245)scale(0.08 -0.08)">
      <use transform="translate(0 0.78125)" xlink:href="#DejaVuSans-8722"/>
      <use transform="translate(83.789062 0.78125)" xlink:href="#DejaVuSans-51"/>
      <use transform="translate(147.412109 0.78125)" xlink:href="#DejaVuSans-46"/>
      <use transform="translate(179.167969 0.78125)" xlink:href="#DejaVuSans-56"/>
     </g>
    </g>
   </g>
   <g id="text_26">
    <g clip-path="url(#pbe96aa4e2a)">
     <!-- $U_1$ -->
     <g transform="translate(522.0215 179.069515)scale(0.13 -0.13)">
      <use transform="translate(0 0.09375)" xlink:href="#DejaVuSans-Oblique-85"/>
      <use transform="translate(73.193359 -16.3125)scale(0.7)" xlink:href="#DejaVuSans-49"/>
     </g>
    </g>
   </g>
   <g id="text_27">
    <g clip-path="url(#pbe96aa4e2a)">
     <!-- 1.9 -->
     <g transform="translate(523.52525 190.984245)scale(0.08 -0.08)">
      <use xlink:href="#DejaVuSans-49"/>
      <use x="63.623047" xlink:href="#DejaVuSans-46"/>
      <use x="95.410156" xlink:href="#DejaVuSans-57"/>
     </g>
    </g>
   </g>
   <g id="text_28">
    <g clip-path="url(#pbe96aa4e2a)">
     <!-- $U_1$ -->
     <g transform="translate(522.0215 133.618515)scale(0.13 -0.13)">
      <use transform="translate(0 0.09375)" xlink:href="#DejaVuSans-Oblique-85"/>
      <use transform="translate(73.193359 -16.3125)scale(0.7)" xlink:href="#DejaVuSans-49"/>
     </g>
    </g>
   </g>
   <g id="text_29">
    <g clip-path="url(#pbe96aa4e2a)">
     <!-- 1.9 -->
     <g transform="translate(523.52525 145.533245)scale(0.08 -0.08)">
      <use xlink:href="#DejaVuSans-49"/>
      <use x="63.623047" xlink:href="#DejaVuSans-46"/>
      <use x="95.410156" xlink:href="#DejaVuSans-57"/>
     </g>
    </g>
   </g>
   <g id="text_30">
    <g clip-path="url(#pbe96aa4e2a)">
     <!-- $U_1$ -->
     <g transform="translate(567.4725 224.520515)scale(0.13 -0.13)">
      <use transform="translate(0 0.09375)" xlink:href="#DejaVuSans-Oblique-85"/>
      <use transform="translate(73.193359 -16.3125)scale(0.7)" xlink:href="#DejaVuSans-49"/>
     </g>
    </g>
   </g>
   <g id="text_31">
    <g clip-path="url(#pbe96aa4e2a)">
     <!-- $-$3.8 -->
     <g transform="translate(565.6175 236.435245)scale(0.08 -0.08)">
      <use transform="translate(0 0.78125)" xlink:href="#DejaVuSans-8722"/>
      <use transform="translate(83.789062 0.78125)" xlink:href="#DejaVuSans-51"/>
      <use transform="translate(147.412109 0.78125)" xlink:href="#DejaVuSans-46"/>
      <use transform="translate(179.167969 0.78125)" xlink:href="#DejaVuSans-56"/>
     </g>
    </g>
   </g>
   <g id="text_32">
    <g clip-path="url(#pbe96aa4e2a)">
     <!-- $U_1$ -->
     <g transform="translate(612.9235 179.069515)scale(0.13 -0.13)">
      <use transform="translate(0 0.09375)" xlink:href="#DejaVuSans-Oblique-85"/>
      <use transform="translate(73.193359 -16.3125)scale(0.7)" xlink:href="#DejaVuSans-49"/>
     </g>
    </g>
   </g>
   <g id="text_33">
    <g clip-path="url(#pbe96aa4e2a)">
     <!-- 1.9 -->
     <g transform="translate(614.42725 190.984245)scale(0.08 -0.08)">
      <use xlink:href="#DejaVuSans-49"/>
      <use x="63.623047" xlink:href="#DejaVuSans-46"/>
      <use x="95.410156" xlink:href="#DejaVuSans-57"/>
     </g>
    </g>
   </g>
   <g id="text_34">
    <g clip-path="url(#pbe96aa4e2a)">
     <!-- $U_1$ -->
     <g transform="translate(612.9235 224.520515)scale(0.13 -0.13)">
      <use transform="translate(0 0.09375)" xlink:href="#DejaVuSans-Oblique-85"/>
      <use transform="translate(73.193359 -16.3125)scale(0.7)" xlink:href="#DejaVuSans-49"/>
     </g>
    </g>
   </g>
   <g id="text_35">
    <g clip-path="url(#pbe96aa4e2a)">
     <!-- 1.9 -->
     <g transform="translate(614.42725 236.435245)scale(0.08 -0.08)">
      <use xlink:href="#DejaVuSans-49"/>
      <use x="63.623047" xlink:href="#DejaVuSans-46"/>
      <use x="95.410156" xlink:href="#DejaVuSans-57"/>
     </g>
    </g>
   </g>
   <g id="text_36">
    <g clip-path="url(#pbe96aa4e2a)">
     <!-- $U_1$ -->
     <g transform="translate(658.3745 133.618515)scale(0.13 -0.13)">
      <use transform="translate(0 0.09375)" xlink:href="#DejaVuSans-Oblique-85"/>
      <use transform="translate(73.193359 -16.3125)scale(0.7)" xlink:href="#DejaVuSans-49"/>
     </g>
    </g>
   </g>
   <g id="text_37">
    <g clip-path="url(#pbe96aa4e2a)">
     <!-- $-$3.8 -->
     <g transform="translate(656.5195 145.533245)scale(0.08 -0.08)">
      <use transform="translate(0 0.78125)" xlink:href="#DejaVuSans-8722"/>
      <use transform="translate(83.789062 0.78125)" xlink:href="#DejaVuSans-51"/>
      <use transform="translate(147.412109 0.78125)" xlink:href="#DejaVuSans-46"/>
      <use transform="translate(179.167969 0.78125)" xlink:href="#DejaVuSans-56"/>
     </g>
    </g>
   </g>
   <g id="text_38">
    <g clip-path="url(#pbe96aa4e2a)">
     <!-- $U_1$ -->
     <g transform="translate(703.8255 224.520515)scale(0.13 -0.13)">
      <use transform="translate(0 0.09375)" xlink:href="#DejaVuSans-Oblique-85"/>
      <use transform="translate(73.193359 -16.3125)scale(0.7)" xlink:href="#DejaVuSans-49"/>
     </g>
    </g>
   </g>
   <g id="text_39">
    <g clip-path="url(#pbe96aa4e2a)">
     <!-- 1.9 -->
     <g transform="translate(705.32925 236.435245)scale(0.08 -0.08)">
      <use xlink:href="#DejaVuSans-49"/>
      <use x="63.623047" xlink:href="#DejaVuSans-46"/>
      <use x="95.410156" xlink:href="#DejaVuSans-57"/>
     </g>
    </g>
   </g>
   <g id="text_40">
    <g clip-path="url(#pbe96aa4e2a)">
     <!-- $U_1$ -->
     <g transform="translate(703.8255 133.618515)scale(0.13 -0.13)">
      <use transform="translate(0 0.09375)" xlink:href="#DejaVuSans-Oblique-85"/>
      <use transform="translate(73.193359 -16.3125)scale(0.7)" xlink:href="#DejaVuSans-49"/>
     </g>
    </g>
   </g>
   <g id="text_41">
    <g clip-path="url(#pbe96aa4e2a)">
     <!-- 1.9 -->
     <g transform="translate(705.32925 145.533245)scale(0.08 -0.08)">
      <use xlink:href="#DejaVuSans-49"/>
      <use x="63.623047" xlink:href="#DejaVuSans-46"/>
      <use x="95.410156" xlink:href="#DejaVuSans-57"/>
     </g>
    </g>
   </g>
   <g id="text_42">
    <g clip-path="url(#pbe96aa4e2a)">
     <!-- $R_x$ -->
     <defs>
      <path d="M 25.203125 64.796875 
L 20.21875 38.921875 
L 32.90625 38.921875 
Q 40.375 38.921875 44.984375 43.046875 
Q 49.609375 47.171875 49.609375 53.8125 
Q 49.609375 59.125 46.5 61.953125 
Q 43.40625 64.796875 37.59375 64.796875 
z
M 43.3125 35.015625 
Q 46.4375 34.28125 48.515625 31.390625 
Q 50.59375 28.515625 53.328125 19.921875 
L 59.515625 0 
L 49.125 0 
L 43.40625 18.703125 
Q 41.21875 25.921875 38.328125 28.359375 
Q 35.453125 30.8125 29.5 30.8125 
L 18.609375 30.8125 
L 12.59375 0 
L 2.6875 0 
L 16.890625 72.90625 
L 39.109375 72.90625 
Q 49.21875 72.90625 54.609375 68.328125 
Q 60.015625 63.765625 60.015625 55.171875 
Q 60.015625 47.5625 55.421875 41.984375 
Q 50.828125 36.421875 43.3125 35.015625 
z
" id="DejaVuSans-Oblique-82"/>
      <path d="M 60.015625 54.6875 
L 34.90625 27.875 
L 50.296875 0 
L 39.984375 0 
L 28.421875 21.6875 
L 8.296875 0 
L -2.59375 0 
L 24.3125 28.8125 
L 10.015625 54.6875 
L 20.3125 54.6875 
L 30.8125 34.90625 
L 49.125 54.6875 
z
" id="DejaVuSans-Oblique-120"/>
     </defs>
     <g transform="translate(795.1825 42.716515)scale(0.13 -0.13)">
      <use transform="translate(0 0.09375)" xlink:href="#DejaVuSans-Oblique-82"/>
      <use transform="translate(69.482422 -16.3125)scale(0.7)" xlink:href="#DejaVuSans-Oblique-120"/>
     </g>
    </g>
   </g>
   <g id="text_43">
    <g clip-path="url(#pbe96aa4e2a)">
     <!-- 0.4 -->
     <defs>
      <path d="M 31.78125 66.40625 
Q 24.171875 66.40625 20.328125 58.90625 
Q 16.5 51.421875 16.5 36.375 
Q 16.5 21.390625 20.328125 13.890625 
Q 24.171875 6.390625 31.78125 6.390625 
Q 39.453125 6.390625 43.28125 13.890625 
Q 47.125 21.390625 47.125 36.375 
Q 47.125 51.421875 43.28125 58.90625 
Q 39.453125 66.40625 31.78125 66.40625 
z
M 31.78125 74.21875 
Q 44.046875 74.21875 50.515625 64.515625 
Q 56.984375 54.828125 56.984375 36.375 
Q 56.984375 17.96875 50.515625 8.265625 
Q 44.046875 -1.421875 31.78125 -1.421875 
Q 19.53125 -1.421875 13.0625 8.265625 
Q 6.59375 17.96875 6.59375 36.375 
Q 6.59375 54.828125 13.0625 64.515625 
Q 19.53125 74.21875 31.78125 74.21875 
z
" id="DejaVuSans-48"/>
      <path d="M 37.796875 64.3125 
L 12.890625 25.390625 
L 37.796875 25.390625 
z
M 35.203125 72.90625 
L 47.609375 72.90625 
L 47.609375 25.390625 
L 58.015625 25.390625 
L 58.015625 17.1875 
L 47.609375 17.1875 
L 47.609375 0 
L 37.796875 0 
L 37.796875 17.1875 
L 4.890625 17.1875 
L 4.890625 26.703125 
z
" id="DejaVuSans-52"/>
     </defs>
     <g transform="translate(796.23125 54.631245)scale(0.08 -0.08)">
      <use xlink:href="#DejaVuSans-48"/>
      <use x="63.623047" xlink:href="#DejaVuSans-46"/>
      <use x="95.410156" xlink:href="#DejaVuSans-52"/>
     </g>
    </g>
   </g>
   <g id="text_44">
    <g clip-path="url(#pbe96aa4e2a)">
     <!-- $R_x$ -->
     <g transform="translate(795.1825 88.167515)scale(0.13 -0.13)">
      <use transform="translate(0 0.09375)" xlink:href="#DejaVuSans-Oblique-82"/>
      <use transform="translate(69.482422 -16.3125)scale(0.7)" xlink:href="#DejaVuSans-Oblique-120"/>
     </g>
    </g>
   </g>
   <g id="text_45">
    <g clip-path="url(#pbe96aa4e2a)">
     <!-- 0.4 -->
     <g transform="translate(796.23125 100.082245)scale(0.08 -0.08)">
      <use xlink:href="#DejaVuSans-48"/>
      <use x="63.623047" xlink:href="#DejaVuSans-46"/>
      <use x="95.410156" xlink:href="#DejaVuSans-52"/>
     </g>
    </g>
   </g>
   <g id="text_46">
    <g clip-path="url(#pbe96aa4e2a)">
     <!-- $R_x$ -->
     <g transform="translate(795.1825 133.618515)scale(0.13 -0.13)">
      <use transform="translate(0 0.09375)" xlink:href="#DejaVuSans-Oblique-82"/>
      <use transform="translate(69.482422 -16.3125)scale(0.7)" xlink:href="#DejaVuSans-Oblique-120"/>
     </g>
    </g>
   </g>
   <g id="text_47">
    <g clip-path="url(#pbe96aa4e2a)">
     <!-- 0.4 -->
     <g transform="translate(796.23125 145.533245)scale(0.08 -0.08)">
      <use xlink:href="#DejaVuSans-48"/>
      <use x="63.623047" xlink:href="#DejaVuSans-46"/>
      <use x="95.410156" xlink:href="#DejaVuSans-52"/>
     </g>
    </g>
   </g>
   <g id="text_48">
    <g clip-path="url(#pbe96aa4e2a)">
     <!-- $R_x$ -->
     <g transform="translate(795.1825 179.069515)scale(0.13 -0.13)">
      <use transform="translate(0 0.09375)" xlink:href="#DejaVuSans-Oblique-82"/>
      <use transform="translate(69.482422 -16.3125)scale(0.7)" xlink:href="#DejaVuSans-Oblique-120"/>
     </g>
    </g>
   </g>
   <g id="text_49">
    <g clip-path="url(#pbe96aa4e2a)">
     <!-- 0.4 -->
     <g transform="translate(796.23125 190.984245)scale(0.08 -0.08)">
      <use xlink:href="#DejaVuSans-48"/>
      <use x="63.623047" xlink:href="#DejaVuSans-46"/>
      <use x="95.410156" xlink:href="#DejaVuSans-52"/>
     </g>
    </g>
   </g>
   <g id="text_50">
    <g clip-path="url(#pbe96aa4e2a)">
     <!-- $R_x$ -->
     <g transform="translate(795.1825 224.520515)scale(0.13 -0.13)">
      <use transform="translate(0 0.09375)" xlink:href="#DejaVuSans-Oblique-82"/>
      <use transform="translate(69.482422 -16.3125)scale(0.7)" xlink:href="#DejaVuSans-Oblique-120"/>
     </g>
    </g>
   </g>
   <g id="text_51">
    <g clip-path="url(#pbe96aa4e2a)">
     <!-- 0.4 -->
     <g transform="translate(796.23125 236.435245)scale(0.08 -0.08)">
      <use xlink:href="#DejaVuSans-48"/>
      <use x="63.623047" xlink:href="#DejaVuSans-46"/>
      <use x="95.410156" xlink:href="#DejaVuSans-52"/>
     </g>
    </g>
   </g>
   <g id="text_52">
    <g clip-path="url(#pbe96aa4e2a)">
     <!-- 0 -->
     <g transform="translate(904.85725 264.107825)scale(0.104 -0.104)">
      <use xlink:href="#DejaVuSans-48"/>
     </g>
    </g>
   </g>
   <g id="text_53">
    <g clip-path="url(#pbe96aa4e2a)">
     <!-- 1 -->
     <g transform="translate(950.30825 264.107825)scale(0.104 -0.104)">
      <use xlink:href="#DejaVuSans-49"/>
     </g>
    </g>
   </g>
   <g id="text_54">
    <g clip-path="url(#pbe96aa4e2a)">
     <!-- 2 -->
     <defs>
      <path d="M 19.1875 8.296875 
L 53.609375 8.296875 
L 53.609375 0 
L 7.328125 0 
L 7.328125 8.296875 
Q 12.9375 14.109375 22.625 23.890625 
Q 32.328125 33.6875 34.8125 36.53125 
Q 39.546875 41.84375 41.421875 45.53125 
Q 43.3125 49.21875 43.3125 52.78125 
Q 43.3125 58.59375 39.234375 62.25 
Q 35.15625 65.921875 28.609375 65.921875 
Q 23.96875 65.921875 18.8125 64.3125 
Q 13.671875 62.703125 7.8125 59.421875 
L 7.8125 69.390625 
Q 13.765625 71.78125 18.9375 73 
Q 24.125 74.21875 28.421875 74.21875 
Q 39.75 74.21875 46.484375 68.546875 
Q 53.21875 62.890625 53.21875 53.421875 
Q 53.21875 48.921875 51.53125 44.890625 
Q 49.859375 40.875 45.40625 35.40625 
Q 44.1875 33.984375 37.640625 27.21875 
Q 31.109375 20.453125 19.1875 8.296875 
z
" id="DejaVuSans-50"/>
     </defs>
     <g transform="translate(995.75925 264.107825)scale(0.104 -0.104)">
      <use xlink:href="#DejaVuSans-50"/>
     </g>
    </g>
   </g>
   <g id="text_55">
    <g clip-path="url(#pbe96aa4e2a)">
     <!-- 3 -->
     <g transform="translate(1041.21025 264.107825)scale(0.104 -0.104)">
      <use xlink:href="#DejaVuSans-51"/>
     </g>
    </g>
   </g>
   <g id="text_56">
    <g clip-path="url(#pbe96aa4e2a)">
     <!-- 4 -->
     <g transform="translate(1086.66125 264.107825)scale(0.104 -0.104)">
      <use xlink:href="#DejaVuSans-52"/>
     </g>
    </g>
   </g>
   <g id="text_57">
    <g clip-path="url(#pbe96aa4e2a)">
     <!-- $q_{0}$ -->
     <defs>
      <path d="M 41.703125 8.203125 
Q 38.09375 3.46875 33.171875 1.015625 
Q 28.265625 -1.421875 22.3125 -1.421875 
Q 14.015625 -1.421875 9.296875 4.171875 
Q 4.59375 9.765625 4.59375 19.578125 
Q 4.59375 27.484375 7.5 34.859375 
Q 10.40625 42.234375 15.828125 48.09375 
Q 19.34375 51.90625 23.90625 53.953125 
Q 28.46875 56 33.5 56 
Q 39.546875 56 43.453125 53.609375 
Q 47.359375 51.21875 49.125 46.390625 
L 50.6875 54.59375 
L 59.71875 54.59375 
L 45.125 -20.609375 
L 36.078125 -20.609375 
z
M 13.921875 20.90625 
Q 13.921875 13.671875 16.9375 9.890625 
Q 19.96875 6.109375 25.6875 6.109375 
Q 34.1875 6.109375 40.1875 14.234375 
Q 46.1875 22.359375 46.1875 33.984375 
Q 46.1875 41.015625 43.078125 44.75 
Q 39.984375 48.484375 34.1875 48.484375 
Q 29.9375 48.484375 26.3125 46.5 
Q 22.703125 44.53125 20.015625 40.71875 
Q 17.1875 36.71875 15.546875 31.34375 
Q 13.921875 25.984375 13.921875 20.90625 
z
" id="DejaVuSans-Oblique-113"/>
     </defs>
     <g transform="translate(57.339 48.011777)scale(0.1625 -0.1625)">
      <use xlink:href="#DejaVuSans-Oblique-113"/>
      <use transform="translate(63.476562 -16.40625)scale(0.7)" xlink:href="#DejaVuSans-48"/>
     </g>
    </g>
   </g>
   <g id="text_58">
    <g clip-path="url(#pbe96aa4e2a)">
     <!-- $q_{1}$ -->
     <g transform="translate(57.339 93.462777)scale(0.1625 -0.1625)">
      <use xlink:href="#DejaVuSans-Oblique-113"/>
      <use transform="translate(63.476562 -16.40625)scale(0.7)" xlink:href="#DejaVuSans-49"/>
     </g>
    </g>
   </g>
   <g id="text_59">
    <g clip-path="url(#pbe96aa4e2a)">
     <!-- $q_{2}$ -->
     <g transform="translate(57.339 138.913777)scale(0.1625 -0.1625)">
      <use xlink:href="#DejaVuSans-Oblique-113"/>
      <use transform="translate(63.476562 -16.40625)scale(0.7)" xlink:href="#DejaVuSans-50"/>
     </g>
    </g>
   </g>
   <g id="text_60">
    <g clip-path="url(#pbe96aa4e2a)">
     <!-- $q_{3}$ -->
     <g transform="translate(57.339 184.364777)scale(0.1625 -0.1625)">
      <use xlink:href="#DejaVuSans-Oblique-113"/>
      <use transform="translate(63.476562 -16.40625)scale(0.7)" xlink:href="#DejaVuSans-51"/>
     </g>
    </g>
   </g>
   <g id="text_61">
    <g clip-path="url(#pbe96aa4e2a)">
     <!-- $q_{4}$ -->
     <g transform="translate(57.339 229.815777)scale(0.1625 -0.1625)">
      <use xlink:href="#DejaVuSans-Oblique-113"/>
      <use transform="translate(63.476562 -16.40625)scale(0.7)" xlink:href="#DejaVuSans-52"/>
     </g>
    </g>
   </g>
   <g id="text_62">
    <g clip-path="url(#pbe96aa4e2a)">
     <!-- 5 -->
     <defs>
      <path d="M 10.796875 72.90625 
L 49.515625 72.90625 
L 49.515625 64.59375 
L 19.828125 64.59375 
L 19.828125 46.734375 
Q 21.96875 47.46875 24.109375 47.828125 
Q 26.265625 48.1875 28.421875 48.1875 
Q 40.625 48.1875 47.75 41.5 
Q 54.890625 34.8125 54.890625 23.390625 
Q 54.890625 11.625 47.5625 5.09375 
Q 40.234375 -1.421875 26.90625 -1.421875 
Q 22.3125 -1.421875 17.546875 -0.640625 
Q 12.796875 0.140625 7.71875 1.703125 
L 7.71875 11.625 
Q 12.109375 9.234375 16.796875 8.0625 
Q 21.484375 6.890625 26.703125 6.890625 
Q 35.15625 6.890625 40.078125 11.328125 
Q 45.015625 15.765625 45.015625 23.390625 
Q 45.015625 31 40.078125 35.4375 
Q 35.15625 39.890625 26.703125 39.890625 
Q 22.75 39.890625 18.8125 39.015625 
Q 14.890625 38.140625 10.796875 36.28125 
z
" id="DejaVuSans-53"/>
     </defs>
     <g transform="translate(120.8275 264.107825)scale(0.104 -0.104)">
      <use xlink:href="#DejaVuSans-53"/>
     </g>
    </g>
   </g>
   <g id="text_63">
    <g clip-path="url(#pbe96aa4e2a)">
     <!-- $c$ -->
     <defs>
      <path d="M 53.609375 52.59375 
L 51.8125 43.703125 
Q 48.578125 46.046875 44.9375 47.21875 
Q 41.3125 48.390625 37.40625 48.390625 
Q 33.109375 48.390625 29.21875 46.875 
Q 25.34375 45.359375 22.703125 42.578125 
Q 18.5 38.328125 16.203125 32.609375 
Q 13.921875 26.90625 13.921875 20.796875 
Q 13.921875 13.421875 17.609375 9.8125 
Q 21.296875 6.203125 28.8125 6.203125 
Q 32.515625 6.203125 36.6875 7.328125 
Q 40.875 8.453125 45.40625 10.6875 
L 43.703125 1.8125 
Q 39.796875 0.203125 35.671875 -0.609375 
Q 31.546875 -1.421875 27.203125 -1.421875 
Q 16.3125 -1.421875 10.453125 4.015625 
Q 4.59375 9.46875 4.59375 19.578125 
Q 4.59375 28.078125 7.640625 35.234375 
Q 10.6875 42.390625 16.703125 48.09375 
Q 20.796875 52 26.3125 54 
Q 31.84375 56 38.375 56 
Q 42.1875 56 45.9375 55.140625 
Q 49.703125 54.296875 53.609375 52.59375 
z
" id="DejaVuSans-Oblique-99"/>
     </defs>
     <g transform="translate(64.6515 276.196581)scale(0.195 -0.195)">
      <use xlink:href="#DejaVuSans-Oblique-99"/>
     </g>
    </g>
   </g>
  </g>
 </g>
 <defs>
  <clipPath id="pbe96aa4e2a">
   <rect height="290.8864" width="1118.0946" x="7.2" y="7.2"/>
  </clipPath>
 </defs>
</svg>
