<svg width="188" height="83" viewBox="0 0 188 83" fill="none" xmlns="http://www.w3.org/2000/svg">
<path d="M34.0309 13V10.822H37.4149V2.398H37.2529L34.6969 5.746L32.9689 4.396L35.9749 0.436H40.1149V10.822H42.7789V13H34.0309ZM48.8519 13.216C47.1719 13.216 45.9299 12.646 45.1259 11.506C44.3339 10.366 43.9379 8.77 43.9379 6.718C43.9379 4.666 44.3339 3.07 45.1259 1.93C45.9299 0.789999 47.1719 0.219999 48.8519 0.219999C50.5319 0.219999 51.7679 0.789999 52.5599 1.93C53.3639 3.07 53.7659 4.666 53.7659 6.718C53.7659 8.77 53.3639 10.366 52.5599 11.506C51.7679 12.646 50.5319 13.216 48.8519 13.216ZM48.8519 11.092C49.6559 11.092 50.2139 10.81 50.5259 10.246C50.8499 9.682 51.0119 8.896 51.0119 7.888V5.548C51.0119 4.54 50.8499 3.754 50.5259 3.19C50.2139 2.626 49.6559 2.344 48.8519 2.344C48.0479 2.344 47.4839 2.626 47.1599 3.19C46.8479 3.754 46.6919 4.54 46.6919 5.548V7.888C46.6919 8.896 46.8479 9.682 47.1599 10.246C47.4839 10.81 48.0479 11.092 48.8519 11.092ZM48.8519 7.78C48.4319 7.78 48.1379 7.696 47.9699 7.528C47.8139 7.36 47.7359 7.156 47.7359 6.916V6.52C47.7359 6.28 47.8139 6.076 47.9699 5.908C48.1379 5.74 48.4319 5.656 48.8519 5.656C49.2719 5.656 49.5599 5.74 49.7159 5.908C49.8839 6.076 49.9679 6.28 49.9679 6.52V6.916C49.9679 7.156 49.8839 7.36 49.7159 7.528C49.5599 7.696 49.2719 7.78 48.8519 7.78ZM59.9648 13.216C58.2848 13.216 57.0428 12.646 56.2388 11.506C55.4468 10.366 55.0508 8.77 55.0508 6.718C55.0508 4.666 55.4468 3.07 56.2388 1.93C57.0428 0.789999 58.2848 0.219999 59.9648 0.219999C61.6448 0.219999 62.8808 0.789999 63.6728 1.93C64.4768 3.07 64.8788 4.666 64.8788 6.718C64.8788 8.77 64.4768 10.366 63.6728 11.506C62.8808 12.646 61.6448 13.216 59.9648 13.216ZM59.9648 11.092C60.7688 11.092 61.3268 10.81 61.6388 10.246C61.9628 9.682 62.1248 8.896 62.1248 7.888V5.548C62.1248 4.54 61.9628 3.754 61.6388 3.19C61.3268 2.626 60.7688 2.344 59.9648 2.344C59.1608 2.344 58.5968 2.626 58.2728 3.19C57.9608 3.754 57.8048 4.54 57.8048 5.548V7.888C57.8048 8.896 57.9608 9.682 58.2728 10.246C58.5968 10.81 59.1608 11.092 59.9648 11.092ZM59.9648 7.78C59.5448 7.78 59.2508 7.696 59.0828 7.528C58.9268 7.36 58.8488 7.156 58.8488 6.916V6.52C58.8488 6.28 58.9268 6.076 59.0828 5.908C59.2508 5.74 59.5448 5.656 59.9648 5.656C60.3848 5.656 60.6728 5.74 60.8288 5.908C60.9968 6.076 61.0808 6.28 61.0808 6.52V6.916C61.0808 7.156 60.9968 7.36 60.8288 7.528C60.6728 7.696 60.3848 7.78 59.9648 7.78ZM71.0778 13.216C69.3978 13.216 68.1558 12.646 67.3518 11.506C66.5598 10.366 66.1638 8.77 66.1638 6.718C66.1638 4.666 66.5598 3.07 67.3518 1.93C68.1558 0.789999 69.3978 0.219999 71.0778 0.219999C72.7578 0.219999 73.9938 0.789999 74.7858 1.93C75.5898 3.07 75.9918 4.666 75.9918 6.718C75.9918 8.77 75.5898 10.366 74.7858 11.506C73.9938 12.646 72.7578 13.216 71.0778 13.216ZM71.0778 11.092C71.8818 11.092 72.4398 10.81 72.7518 10.246C73.0758 9.682 73.2378 8.896 73.2378 7.888V5.548C73.2378 4.54 73.0758 3.754 72.7518 3.19C72.4398 2.626 71.8818 2.344 71.0778 2.344C70.2738 2.344 69.7098 2.626 69.3858 3.19C69.0738 3.754 68.9178 4.54 68.9178 5.548V7.888C68.9178 8.896 69.0738 9.682 69.3858 10.246C69.7098 10.81 70.2738 11.092 71.0778 11.092ZM71.0778 7.78C70.6578 7.78 70.3638 7.696 70.1958 7.528C70.0398 7.36 69.9618 7.156 69.9618 6.916V6.52C69.9618 6.28 70.0398 6.076 70.1958 5.908C70.3638 5.74 70.6578 5.656 71.0778 5.656C71.4978 5.656 71.7858 5.74 71.9418 5.908C72.1098 6.076 72.1938 6.28 72.1938 6.52V6.916C72.1938 7.156 72.1098 7.36 71.9418 7.528C71.7858 7.696 71.4978 7.78 71.0778 7.78ZM78.4828 13V10.822H81.8668V2.398H81.7048L79.1488 5.746L77.4208 4.396L80.4268 0.436H84.5668V10.822H87.2308V13H78.4828ZM89.5957 13V10.822H92.9797V2.398H92.8177L90.2617 5.746L88.5337 4.396L91.5397 0.436H95.6797V10.822H98.3437V13H89.5957ZM100.709 13V10.822H104.093V2.398H103.931L101.375 5.746L99.6467 4.396L102.653 0.436H106.793V10.822H109.457V13H100.709ZM111.822 13V10.822H115.206V2.398H115.044L112.488 5.746L110.76 4.396L113.766 0.436H117.906V10.822H120.57V13H111.822ZM122.935 13V10.822H126.319V2.398H126.157L123.601 5.746L121.873 4.396L124.879 0.436H129.019V10.822H131.683V13H122.935ZM134.048 13V10.822H137.432V2.398H137.27L134.714 5.746L132.986 4.396L135.992 0.436H140.132V10.822H142.796V13H134.048ZM145.161 13V10.822H148.545V2.398H148.383L145.827 5.746L144.099 4.396L147.105 0.436H151.245V10.822H153.909V13H145.161ZM156.274 13V10.822H159.658V2.398H159.496L156.94 5.746L155.212 4.396L158.218 0.436H162.358V10.822H165.022V13H156.274ZM171.095 13.216C169.415 13.216 168.173 12.646 167.369 11.506C166.577 10.366 166.181 8.77 166.181 6.718C166.181 4.666 166.577 3.07 167.369 1.93C168.173 0.789999 169.415 0.219999 171.095 0.219999C172.775 0.219999 174.011 0.789999 174.803 1.93C175.607 3.07 176.009 4.666 176.009 6.718C176.009 8.77 175.607 10.366 174.803 11.506C174.011 12.646 172.775 13.216 171.095 13.216ZM171.095 11.092C171.899 11.092 172.457 10.81 172.769 10.246C173.093 9.682 173.255 8.896 173.255 7.888V5.548C173.255 4.54 173.093 3.754 172.769 3.19C172.457 2.626 171.899 2.344 171.095 2.344C170.291 2.344 169.727 2.626 169.403 3.19C169.091 3.754 168.935 4.54 168.935 5.548V7.888C168.935 8.896 169.091 9.682 169.403 10.246C169.727 10.81 170.291 11.092 171.095 11.092ZM171.095 7.78C170.675 7.78 170.381 7.696 170.213 7.528C170.057 7.36 169.979 7.156 169.979 6.916V6.52C169.979 6.28 170.057 6.076 170.213 5.908C170.381 5.74 170.675 5.656 171.095 5.656C171.515 5.656 171.803 5.74 171.959 5.908C172.127 6.076 172.211 6.28 172.211 6.52V6.916C172.211 7.156 172.127 7.36 171.959 7.528C171.803 7.696 171.515 7.78 171.095 7.78ZM178.499 13V10.822H181.883V2.398H181.721L179.165 5.746L177.437 4.396L180.443 0.436H184.583V10.822H187.247V13H178.499ZM3.248 34.884V31.572H0.116V29.448H3.248V26.136H5.552V29.448H8.684V31.572H5.552V34.884H3.248ZM37.7389 36.216C36.0589 36.216 34.8169 35.646 34.0129 34.506C33.2209 33.366 32.8249 31.77 32.8249 29.718C32.8249 27.666 33.2209 26.07 34.0129 24.93C34.8169 23.79 36.0589 23.22 37.7389 23.22C39.4189 23.22 40.6549 23.79 41.4469 24.93C42.2509 26.07 42.6529 27.666 42.6529 29.718C42.6529 31.77 42.2509 33.366 41.4469 34.506C40.6549 35.646 39.4189 36.216 37.7389 36.216ZM37.7389 34.092C38.5429 34.092 39.1009 33.81 39.4129 33.246C39.7369 32.682 39.8989 31.896 39.8989 30.888V28.548C39.8989 27.54 39.7369 26.754 39.4129 26.19C39.1009 25.626 38.5429 25.344 37.7389 25.344C36.9349 25.344 36.3709 25.626 36.0469 26.19C35.7349 26.754 35.5789 27.54 35.5789 28.548V30.888C35.5789 31.896 35.7349 32.682 36.0469 33.246C36.3709 33.81 36.9349 34.092 37.7389 34.092ZM37.7389 30.78C37.3189 30.78 37.0249 30.696 36.8569 30.528C36.7009 30.36 36.6229 30.156 36.6229 29.916V29.52C36.6229 29.28 36.7009 29.076 36.8569 28.908C37.0249 28.74 37.3189 28.656 37.7389 28.656C38.1589 28.656 38.4469 28.74 38.6029 28.908C38.7709 29.076 38.8549 29.28 38.8549 29.52V29.916C38.8549 30.156 38.7709 30.36 38.6029 30.528C38.4469 30.696 38.1589 30.78 37.7389 30.78ZM48.8519 36.216C47.1719 36.216 45.9299 35.646 45.1259 34.506C44.3339 33.366 43.9379 31.77 43.9379 29.718C43.9379 27.666 44.3339 26.07 45.1259 24.93C45.9299 23.79 47.1719 23.22 48.8519 23.22C50.5319 23.22 51.7679 23.79 52.5599 24.93C53.3639 26.07 53.7659 27.666 53.7659 29.718C53.7659 31.77 53.3639 33.366 52.5599 34.506C51.7679 35.646 50.5319 36.216 48.8519 36.216ZM48.8519 34.092C49.6559 34.092 50.2139 33.81 50.5259 33.246C50.8499 32.682 51.0119 31.896 51.0119 30.888V28.548C51.0119 27.54 50.8499 26.754 50.5259 26.19C50.2139 25.626 49.6559 25.344 48.8519 25.344C48.0479 25.344 47.4839 25.626 47.1599 26.19C46.8479 26.754 46.6919 27.54 46.6919 28.548V30.888C46.6919 31.896 46.8479 32.682 47.1599 33.246C47.4839 33.81 48.0479 34.092 48.8519 34.092ZM48.8519 30.78C48.4319 30.78 48.1379 30.696 47.9699 30.528C47.8139 30.36 47.7359 30.156 47.7359 29.916V29.52C47.7359 29.28 47.8139 29.076 47.9699 28.908C48.1379 28.74 48.4319 28.656 48.8519 28.656C49.2719 28.656 49.5599 28.74 49.7159 28.908C49.8839 29.076 49.9679 29.28 49.9679 29.52V29.916C49.9679 30.156 49.8839 30.36 49.7159 30.528C49.5599 30.696 49.2719 30.78 48.8519 30.78ZM59.9648 36.216C58.2848 36.216 57.0428 35.646 56.2388 34.506C55.4468 33.366 55.0508 31.77 55.0508 29.718C55.0508 27.666 55.4468 26.07 56.2388 24.93C57.0428 23.79 58.2848 23.22 59.9648 23.22C61.6448 23.22 62.8808 23.79 63.6728 24.93C64.4768 26.07 64.8788 27.666 64.8788 29.718C64.8788 31.77 64.4768 33.366 63.6728 34.506C62.8808 35.646 61.6448 36.216 59.9648 36.216ZM59.9648 34.092C60.7688 34.092 61.3268 33.81 61.6388 33.246C61.9628 32.682 62.1248 31.896 62.1248 30.888V28.548C62.1248 27.54 61.9628 26.754 61.6388 26.19C61.3268 25.626 60.7688 25.344 59.9648 25.344C59.1608 25.344 58.5968 25.626 58.2728 26.19C57.9608 26.754 57.8048 27.54 57.8048 28.548V30.888C57.8048 31.896 57.9608 32.682 58.2728 33.246C58.5968 33.81 59.1608 34.092 59.9648 34.092ZM59.9648 30.78C59.5448 30.78 59.2508 30.696 59.0828 30.528C58.9268 30.36 58.8488 30.156 58.8488 29.916V29.52C58.8488 29.28 58.9268 29.076 59.0828 28.908C59.2508 28.74 59.5448 28.656 59.9648 28.656C60.3848 28.656 60.6728 28.74 60.8288 28.908C60.9968 29.076 61.0808 29.28 61.0808 29.52V29.916C61.0808 30.156 60.9968 30.36 60.8288 30.528C60.6728 30.696 60.3848 30.78 59.9648 30.78ZM67.3698 36V33.822H70.7538V25.398H70.5918L68.0358 28.746L66.3078 27.396L69.3138 23.436H73.4538V33.822H76.1178V36H67.3698ZM78.4828 36V33.822H81.8668V25.398H81.7048L79.1488 28.746L77.4208 27.396L80.4268 23.436H84.5668V33.822H87.2308V36H78.4828ZM89.5957 36V33.822H92.9797V25.398H92.8177L90.2617 28.746L88.5337 27.396L91.5397 23.436H95.6797V33.822H98.3437V36H89.5957ZM104.417 36.216C102.737 36.216 101.495 35.646 100.691 34.506C99.8987 33.366 99.5027 31.77 99.5027 29.718C99.5027 27.666 99.8987 26.07 100.691 24.93C101.495 23.79 102.737 23.22 104.417 23.22C106.097 23.22 107.333 23.79 108.125 24.93C108.929 26.07 109.331 27.666 109.331 29.718C109.331 31.77 108.929 33.366 108.125 34.506C107.333 35.646 106.097 36.216 104.417 36.216ZM104.417 34.092C105.221 34.092 105.779 33.81 106.091 33.246C106.415 32.682 106.577 31.896 106.577 30.888V28.548C106.577 27.54 106.415 26.754 106.091 26.19C105.779 25.626 105.221 25.344 104.417 25.344C103.613 25.344 103.049 25.626 102.725 26.19C102.413 26.754 102.257 27.54 102.257 28.548V30.888C102.257 31.896 102.413 32.682 102.725 33.246C103.049 33.81 103.613 34.092 104.417 34.092ZM104.417 30.78C103.997 30.78 103.703 30.696 103.535 30.528C103.379 30.36 103.301 30.156 103.301 29.916V29.52C103.301 29.28 103.379 29.076 103.535 28.908C103.703 28.74 103.997 28.656 104.417 28.656C104.837 28.656 105.125 28.74 105.281 28.908C105.449 29.076 105.533 29.28 105.533 29.52V29.916C105.533 30.156 105.449 30.36 105.281 30.528C105.125 30.696 104.837 30.78 104.417 30.78ZM115.53 36.216C113.85 36.216 112.608 35.646 111.804 34.506C111.012 33.366 110.616 31.77 110.616 29.718C110.616 27.666 111.012 26.07 111.804 24.93C112.608 23.79 113.85 23.22 115.53 23.22C117.21 23.22 118.446 23.79 119.238 24.93C120.042 26.07 120.444 27.666 120.444 29.718C120.444 31.77 120.042 33.366 119.238 34.506C118.446 35.646 117.21 36.216 115.53 36.216ZM115.53 34.092C116.334 34.092 116.892 33.81 117.204 33.246C117.528 32.682 117.69 31.896 117.69 30.888V28.548C117.69 27.54 117.528 26.754 117.204 26.19C116.892 25.626 116.334 25.344 115.53 25.344C114.726 25.344 114.162 25.626 113.838 26.19C113.526 26.754 113.37 27.54 113.37 28.548V30.888C113.37 31.896 113.526 32.682 113.838 33.246C114.162 33.81 114.726 34.092 115.53 34.092ZM115.53 30.78C115.11 30.78 114.816 30.696 114.648 30.528C114.492 30.36 114.414 30.156 114.414 29.916V29.52C114.414 29.28 114.492 29.076 114.648 28.908C114.816 28.74 115.11 28.656 115.53 28.656C115.95 28.656 116.238 28.74 116.394 28.908C116.562 29.076 116.646 29.28 116.646 29.52V29.916C116.646 30.156 116.562 30.36 116.394 30.528C116.238 30.696 115.95 30.78 115.53 30.78ZM122.935 36V33.822H126.319V25.398H126.157L123.601 28.746L121.873 27.396L124.879 23.436H129.019V33.822H131.683V36H122.935ZM134.048 36V33.822H137.432V25.398H137.27L134.714 28.746L132.986 27.396L135.992 23.436H140.132V33.822H142.796V36H134.048ZM145.161 36V33.822H148.545V25.398H148.383L145.827 28.746L144.099 27.396L147.105 23.436H151.245V33.822H153.909V36H145.161ZM156.274 36V33.822H159.658V25.398H159.496L156.94 28.746L155.212 27.396L158.218 23.436H162.358V33.822H165.022V36H156.274ZM167.387 36V33.822H170.771V25.398H170.609L168.053 28.746L166.325 27.396L169.331 23.436H173.471V33.822H176.135V36H167.387ZM182.207 36.216C180.527 36.216 179.285 35.646 178.481 34.506C177.689 33.366 177.293 31.77 177.293 29.718C177.293 27.666 177.689 26.07 178.481 24.93C179.285 23.79 180.527 23.22 182.207 23.22C183.887 23.22 185.123 23.79 185.915 24.93C186.719 26.07 187.121 27.666 187.121 29.718C187.121 31.77 186.719 33.366 185.915 34.506C185.123 35.646 183.887 36.216 182.207 36.216ZM182.207 34.092C183.011 34.092 183.569 33.81 183.881 33.246C184.205 32.682 184.367 31.896 184.367 30.888V28.548C184.367 27.54 184.205 26.754 183.881 26.19C183.569 25.626 183.011 25.344 182.207 25.344C181.403 25.344 180.839 25.626 180.515 26.19C180.203 26.754 180.047 27.54 180.047 28.548V30.888C180.047 31.896 180.203 32.682 180.515 33.246C180.839 33.81 181.403 34.092 182.207 34.092ZM182.207 30.78C181.787 30.78 181.493 30.696 181.325 30.528C181.169 30.36 181.091 30.156 181.091 29.916V29.52C181.091 29.28 181.169 29.076 181.325 28.908C181.493 28.74 181.787 28.656 182.207 28.656C182.627 28.656 182.915 28.74 183.071 28.908C183.239 29.076 183.323 29.28 183.323 29.52V29.916C183.323 30.156 183.239 30.36 183.071 30.528C182.915 30.696 182.627 30.78 182.207 30.78ZM0.116 75.502V73.378H8.684V75.502H0.116ZM0.116 79.642V77.518H8.684V79.642H0.116Z" fill="#343A3F"/>
<path d="M36.0829 77.806V75.052C36.9829 75.016 37.6969 74.86 38.2249 74.584C38.7529 74.308 39.0169 73.828 39.0169 73.144V72.892C39.0169 72.388 38.8669 72.028 38.5669 71.812C38.2789 71.596 37.9189 71.488 37.4869 71.488C36.9949 71.488 36.5929 71.632 36.2809 71.92C35.9689 72.196 35.7529 72.562 35.6329 73.018L33.4369 72.1C33.5449 71.74 33.7009 71.392 33.9049 71.056C34.1209 70.708 34.3969 70.402 34.7329 70.138C35.0689 69.862 35.4709 69.64 35.9389 69.472C36.4069 69.304 36.9529 69.22 37.5769 69.22C38.2129 69.22 38.7889 69.31 39.3049 69.49C39.8329 69.67 40.2829 69.922 40.6549 70.246C41.0269 70.57 41.3149 70.96 41.5189 71.416C41.7229 71.872 41.8249 72.37 41.8249 72.91C41.8249 73.414 41.7349 73.876 41.5549 74.296C41.3869 74.704 41.1529 75.064 40.8529 75.376C40.5649 75.676 40.2229 75.922 39.8269 76.114C39.4429 76.306 39.0349 76.438 38.6029 76.51V77.806H36.0829ZM37.3789 82.216C36.7429 82.216 36.2869 82.078 36.0109 81.802C35.7469 81.526 35.6149 81.196 35.6149 80.812V80.236C35.6149 79.852 35.7469 79.528 36.0109 79.264C36.2869 78.988 36.7429 78.85 37.3789 78.85C38.0149 78.85 38.4709 78.988 38.7469 79.264C39.0229 79.54 39.1609 79.864 39.1609 80.236V80.812C39.1609 81.196 39.0229 81.526 38.7469 81.802C38.4829 82.078 38.0269 82.216 37.3789 82.216ZM47.1959 77.806V75.052C48.0959 75.016 48.8099 74.86 49.3379 74.584C49.8659 74.308 50.1299 73.828 50.1299 73.144V72.892C50.1299 72.388 49.9799 72.028 49.6799 71.812C49.3919 71.596 49.0319 71.488 48.5999 71.488C48.1079 71.488 47.7059 71.632 47.3939 71.92C47.0819 72.196 46.8659 72.562 46.7459 73.018L44.5499 72.1C44.6579 71.74 44.8139 71.392 45.0179 71.056C45.2339 70.708 45.5099 70.402 45.8459 70.138C46.1819 69.862 46.5839 69.64 47.0519 69.472C47.5199 69.304 48.0659 69.22 48.6899 69.22C49.3259 69.22 49.9019 69.31 50.4179 69.49C50.9459 69.67 51.3959 69.922 51.7679 70.246C52.1399 70.57 52.4279 70.96 52.6319 71.416C52.8359 71.872 52.9379 72.37 52.9379 72.91C52.9379 73.414 52.8479 73.876 52.6679 74.296C52.4999 74.704 52.2659 75.064 51.9659 75.376C51.6779 75.676 51.3359 75.922 50.9399 76.114C50.5559 76.306 50.1479 76.438 49.7159 76.51V77.806H47.1959ZM48.4919 82.216C47.8559 82.216 47.3999 82.078 47.1239 81.802C46.8599 81.526 46.7279 81.196 46.7279 80.812V80.236C46.7279 79.852 46.8599 79.528 47.1239 79.264C47.3999 78.988 47.8559 78.85 48.4919 78.85C49.1279 78.85 49.5839 78.988 49.8599 79.264C50.1359 79.54 50.2739 79.864 50.2739 80.236V80.812C50.2739 81.196 50.1359 81.526 49.8599 81.802C49.5959 82.078 49.1399 82.216 48.4919 82.216ZM58.3088 77.806V75.052C59.2088 75.016 59.9228 74.86 60.4508 74.584C60.9788 74.308 61.2428 73.828 61.2428 73.144V72.892C61.2428 72.388 61.0928 72.028 60.7928 71.812C60.5048 71.596 60.1448 71.488 59.7128 71.488C59.2208 71.488 58.8188 71.632 58.5068 71.92C58.1948 72.196 57.9788 72.562 57.8588 73.018L55.6628 72.1C55.7708 71.74 55.9268 71.392 56.1308 71.056C56.3468 70.708 56.6228 70.402 56.9588 70.138C57.2948 69.862 57.6968 69.64 58.1648 69.472C58.6328 69.304 59.1788 69.22 59.8028 69.22C60.4388 69.22 61.0148 69.31 61.5308 69.49C62.0588 69.67 62.5088 69.922 62.8808 70.246C63.2528 70.57 63.5408 70.96 63.7448 71.416C63.9488 71.872 64.0508 72.37 64.0508 72.91C64.0508 73.414 63.9608 73.876 63.7808 74.296C63.6128 74.704 63.3788 75.064 63.0788 75.376C62.7908 75.676 62.4488 75.922 62.0528 76.114C61.6688 76.306 61.2608 76.438 60.8288 76.51V77.806H58.3088ZM59.6048 82.216C58.9688 82.216 58.5128 82.078 58.2368 81.802C57.9728 81.526 57.8408 81.196 57.8408 80.812V80.236C57.8408 79.852 57.9728 79.528 58.2368 79.264C58.5128 78.988 58.9688 78.85 59.6048 78.85C60.2408 78.85 60.6968 78.988 60.9728 79.264C61.2488 79.54 61.3868 79.864 61.3868 80.236V80.812C61.3868 81.196 61.2488 81.526 60.9728 81.802C60.7088 82.078 60.2528 82.216 59.6048 82.216ZM69.4218 77.806V75.052C70.3218 75.016 71.0358 74.86 71.5638 74.584C72.0918 74.308 72.3558 73.828 72.3558 73.144V72.892C72.3558 72.388 72.2058 72.028 71.9058 71.812C71.6178 71.596 71.2578 71.488 70.8258 71.488C70.3338 71.488 69.9318 71.632 69.6198 71.92C69.3078 72.196 69.0918 72.562 68.9718 73.018L66.7758 72.1C66.8838 71.74 67.0398 71.392 67.2438 71.056C67.4598 70.708 67.7358 70.402 68.0718 70.138C68.4078 69.862 68.8098 69.64 69.2778 69.472C69.7458 69.304 70.2918 69.22 70.9158 69.22C71.5518 69.22 72.1278 69.31 72.6438 69.49C73.1718 69.67 73.6218 69.922 73.9938 70.246C74.3658 70.57 74.6538 70.96 74.8578 71.416C75.0618 71.872 75.1638 72.37 75.1638 72.91C75.1638 73.414 75.0738 73.876 74.8938 74.296C74.7258 74.704 74.4918 75.064 74.1918 75.376C73.9038 75.676 73.5618 75.922 73.1658 76.114C72.7818 76.306 72.3738 76.438 71.9418 76.51V77.806H69.4218ZM70.7178 82.216C70.0818 82.216 69.6258 82.078 69.3498 81.802C69.0858 81.526 68.9538 81.196 68.9538 80.812V80.236C68.9538 79.852 69.0858 79.528 69.3498 79.264C69.6258 78.988 70.0818 78.85 70.7178 78.85C71.3538 78.85 71.8098 78.988 72.0858 79.264C72.3618 79.54 72.4998 79.864 72.4998 80.236V80.812C72.4998 81.196 72.3618 81.526 72.0858 81.802C71.8218 82.078 71.3658 82.216 70.7178 82.216ZM80.5348 77.806V75.052C81.4348 75.016 82.1488 74.86 82.6768 74.584C83.2048 74.308 83.4688 73.828 83.4688 73.144V72.892C83.4688 72.388 83.3188 72.028 83.0188 71.812C82.7308 71.596 82.3708 71.488 81.9388 71.488C81.4468 71.488 81.0448 71.632 80.7328 71.92C80.4208 72.196 80.2048 72.562 80.0848 73.018L77.8888 72.1C77.9968 71.74 78.1528 71.392 78.3568 71.056C78.5728 70.708 78.8488 70.402 79.1848 70.138C79.5208 69.862 79.9228 69.64 80.3908 69.472C80.8588 69.304 81.4048 69.22 82.0288 69.22C82.6648 69.22 83.2408 69.31 83.7568 69.49C84.2848 69.67 84.7348 69.922 85.1068 70.246C85.4788 70.57 85.7668 70.96 85.9708 71.416C86.1748 71.872 86.2768 72.37 86.2768 72.91C86.2768 73.414 86.1868 73.876 86.0068 74.296C85.8388 74.704 85.6048 75.064 85.3048 75.376C85.0168 75.676 84.6748 75.922 84.2788 76.114C83.8948 76.306 83.4868 76.438 83.0548 76.51V77.806H80.5348ZM81.8308 82.216C81.1948 82.216 80.7388 82.078 80.4628 81.802C80.1988 81.526 80.0668 81.196 80.0668 80.812V80.236C80.0668 79.852 80.1988 79.528 80.4628 79.264C80.7388 78.988 81.1948 78.85 81.8308 78.85C82.4668 78.85 82.9228 78.988 83.1988 79.264C83.4748 79.54 83.6128 79.864 83.6128 80.236V80.812C83.6128 81.196 83.4748 81.526 83.1988 81.802C82.9348 82.078 82.4788 82.216 81.8308 82.216ZM91.6477 77.806V75.052C92.5477 75.016 93.2617 74.86 93.7897 74.584C94.3177 74.308 94.5817 73.828 94.5817 73.144V72.892C94.5817 72.388 94.4317 72.028 94.1317 71.812C93.8437 71.596 93.4837 71.488 93.0517 71.488C92.5597 71.488 92.1577 71.632 91.8457 71.92C91.5337 72.196 91.3177 72.562 91.1977 73.018L89.0017 72.1C89.1097 71.74 89.2657 71.392 89.4697 71.056C89.6857 70.708 89.9617 70.402 90.2977 70.138C90.6337 69.862 91.0357 69.64 91.5037 69.472C91.9717 69.304 92.5177 69.22 93.1417 69.22C93.7777 69.22 94.3537 69.31 94.8697 69.49C95.3977 69.67 95.8477 69.922 96.2197 70.246C96.5917 70.57 96.8797 70.96 97.0837 71.416C97.2877 71.872 97.3897 72.37 97.3897 72.91C97.3897 73.414 97.2997 73.876 97.1197 74.296C96.9517 74.704 96.7177 75.064 96.4177 75.376C96.1297 75.676 95.7877 75.922 95.3917 76.114C95.0077 76.306 94.5997 76.438 94.1677 76.51V77.806H91.6477ZM92.9437 82.216C92.3077 82.216 91.8517 82.078 91.5757 81.802C91.3117 81.526 91.1797 81.196 91.1797 80.812V80.236C91.1797 79.852 91.3117 79.528 91.5757 79.264C91.8517 78.988 92.3077 78.85 92.9437 78.85C93.5797 78.85 94.0357 78.988 94.3117 79.264C94.5877 79.54 94.7257 79.864 94.7257 80.236V80.812C94.7257 81.196 94.5877 81.526 94.3117 81.802C94.0477 82.078 93.5917 82.216 92.9437 82.216ZM102.761 77.806V75.052C103.661 75.016 104.375 74.86 104.903 74.584C105.431 74.308 105.695 73.828 105.695 73.144V72.892C105.695 72.388 105.545 72.028 105.245 71.812C104.957 71.596 104.597 71.488 104.165 71.488C103.673 71.488 103.271 71.632 102.959 71.92C102.647 72.196 102.431 72.562 102.311 73.018L100.115 72.1C100.223 71.74 100.379 71.392 100.583 71.056C100.799 70.708 101.075 70.402 101.411 70.138C101.747 69.862 102.149 69.64 102.617 69.472C103.085 69.304 103.631 69.22 104.255 69.22C104.891 69.22 105.467 69.31 105.983 69.49C106.511 69.67 106.961 69.922 107.333 70.246C107.705 70.57 107.993 70.96 108.197 71.416C108.401 71.872 108.503 72.37 108.503 72.91C108.503 73.414 108.413 73.876 108.233 74.296C108.065 74.704 107.831 75.064 107.531 75.376C107.243 75.676 106.901 75.922 106.505 76.114C106.121 76.306 105.713 76.438 105.281 76.51V77.806H102.761ZM104.057 82.216C103.421 82.216 102.965 82.078 102.689 81.802C102.425 81.526 102.293 81.196 102.293 80.812V80.236C102.293 79.852 102.425 79.528 102.689 79.264C102.965 78.988 103.421 78.85 104.057 78.85C104.693 78.85 105.149 78.988 105.425 79.264C105.701 79.54 105.839 79.864 105.839 80.236V80.812C105.839 81.196 105.701 81.526 105.425 81.802C105.161 82.078 104.705 82.216 104.057 82.216ZM113.874 77.806V75.052C114.774 75.016 115.488 74.86 116.016 74.584C116.544 74.308 116.808 73.828 116.808 73.144V72.892C116.808 72.388 116.658 72.028 116.358 71.812C116.07 71.596 115.71 71.488 115.278 71.488C114.786 71.488 114.384 71.632 114.072 71.92C113.76 72.196 113.544 72.562 113.424 73.018L111.228 72.1C111.336 71.74 111.492 71.392 111.696 71.056C111.912 70.708 112.188 70.402 112.524 70.138C112.86 69.862 113.262 69.64 113.73 69.472C114.198 69.304 114.744 69.22 115.368 69.22C116.004 69.22 116.58 69.31 117.096 69.49C117.624 69.67 118.074 69.922 118.446 70.246C118.818 70.57 119.106 70.96 119.31 71.416C119.514 71.872 119.616 72.37 119.616 72.91C119.616 73.414 119.526 73.876 119.346 74.296C119.178 74.704 118.944 75.064 118.644 75.376C118.356 75.676 118.014 75.922 117.618 76.114C117.234 76.306 116.826 76.438 116.394 76.51V77.806H113.874ZM115.17 82.216C114.534 82.216 114.078 82.078 113.802 81.802C113.538 81.526 113.406 81.196 113.406 80.812V80.236C113.406 79.852 113.538 79.528 113.802 79.264C114.078 78.988 114.534 78.85 115.17 78.85C115.806 78.85 116.262 78.988 116.538 79.264C116.814 79.54 116.952 79.864 116.952 80.236V80.812C116.952 81.196 116.814 81.526 116.538 81.802C116.274 82.078 115.818 82.216 115.17 82.216ZM124.987 77.806V75.052C125.887 75.016 126.601 74.86 127.129 74.584C127.657 74.308 127.921 73.828 127.921 73.144V72.892C127.921 72.388 127.771 72.028 127.471 71.812C127.183 71.596 126.823 71.488 126.391 71.488C125.899 71.488 125.497 71.632 125.185 71.92C124.873 72.196 124.657 72.562 124.537 73.018L122.341 72.1C122.449 71.74 122.605 71.392 122.809 71.056C123.025 70.708 123.301 70.402 123.637 70.138C123.973 69.862 124.375 69.64 124.843 69.472C125.311 69.304 125.857 69.22 126.481 69.22C127.117 69.22 127.693 69.31 128.209 69.49C128.737 69.67 129.187 69.922 129.559 70.246C129.931 70.57 130.219 70.96 130.423 71.416C130.627 71.872 130.729 72.37 130.729 72.91C130.729 73.414 130.639 73.876 130.459 74.296C130.291 74.704 130.057 75.064 129.757 75.376C129.469 75.676 129.127 75.922 128.731 76.114C128.347 76.306 127.939 76.438 127.507 76.51V77.806H124.987ZM126.283 82.216C125.647 82.216 125.191 82.078 124.915 81.802C124.651 81.526 124.519 81.196 124.519 80.812V80.236C124.519 79.852 124.651 79.528 124.915 79.264C125.191 78.988 125.647 78.85 126.283 78.85C126.919 78.85 127.375 78.988 127.651 79.264C127.927 79.54 128.065 79.864 128.065 80.236V80.812C128.065 81.196 127.927 81.526 127.651 81.802C127.387 82.078 126.931 82.216 126.283 82.216ZM136.1 77.806V75.052C137 75.016 137.714 74.86 138.242 74.584C138.77 74.308 139.034 73.828 139.034 73.144V72.892C139.034 72.388 138.884 72.028 138.584 71.812C138.296 71.596 137.936 71.488 137.504 71.488C137.012 71.488 136.61 71.632 136.298 71.92C135.986 72.196 135.77 72.562 135.65 73.018L133.454 72.1C133.562 71.74 133.718 71.392 133.922 71.056C134.138 70.708 134.414 70.402 134.75 70.138C135.086 69.862 135.488 69.64 135.956 69.472C136.424 69.304 136.97 69.22 137.594 69.22C138.23 69.22 138.806 69.31 139.322 69.49C139.85 69.67 140.3 69.922 140.672 70.246C141.044 70.57 141.332 70.96 141.536 71.416C141.74 71.872 141.842 72.37 141.842 72.91C141.842 73.414 141.752 73.876 141.572 74.296C141.404 74.704 141.17 75.064 140.87 75.376C140.582 75.676 140.24 75.922 139.844 76.114C139.46 76.306 139.052 76.438 138.62 76.51V77.806H136.1ZM137.396 82.216C136.76 82.216 136.304 82.078 136.028 81.802C135.764 81.526 135.632 81.196 135.632 80.812V80.236C135.632 79.852 135.764 79.528 136.028 79.264C136.304 78.988 136.76 78.85 137.396 78.85C138.032 78.85 138.488 78.988 138.764 79.264C139.04 79.54 139.178 79.864 139.178 80.236V80.812C139.178 81.196 139.04 81.526 138.764 81.802C138.5 82.078 138.044 82.216 137.396 82.216ZM147.213 77.806V75.052C148.113 75.016 148.827 74.86 149.355 74.584C149.883 74.308 150.147 73.828 150.147 73.144V72.892C150.147 72.388 149.997 72.028 149.697 71.812C149.409 71.596 149.049 71.488 148.617 71.488C148.125 71.488 147.723 71.632 147.411 71.92C147.099 72.196 146.883 72.562 146.763 73.018L144.567 72.1C144.675 71.74 144.831 71.392 145.035 71.056C145.251 70.708 145.527 70.402 145.863 70.138C146.199 69.862 146.601 69.64 147.069 69.472C147.537 69.304 148.083 69.22 148.707 69.22C149.343 69.22 149.919 69.31 150.435 69.49C150.963 69.67 151.413 69.922 151.785 70.246C152.157 70.57 152.445 70.96 152.649 71.416C152.853 71.872 152.955 72.37 152.955 72.91C152.955 73.414 152.865 73.876 152.685 74.296C152.517 74.704 152.283 75.064 151.983 75.376C151.695 75.676 151.353 75.922 150.957 76.114C150.573 76.306 150.165 76.438 149.733 76.51V77.806H147.213ZM148.509 82.216C147.873 82.216 147.417 82.078 147.141 81.802C146.877 81.526 146.745 81.196 146.745 80.812V80.236C146.745 79.852 146.877 79.528 147.141 79.264C147.417 78.988 147.873 78.85 148.509 78.85C149.145 78.85 149.601 78.988 149.877 79.264C150.153 79.54 150.291 79.864 150.291 80.236V80.812C150.291 81.196 150.153 81.526 149.877 81.802C149.613 82.078 149.157 82.216 148.509 82.216ZM158.326 77.806V75.052C159.226 75.016 159.94 74.86 160.468 74.584C160.996 74.308 161.26 73.828 161.26 73.144V72.892C161.26 72.388 161.11 72.028 160.81 71.812C160.522 71.596 160.162 71.488 159.73 71.488C159.238 71.488 158.836 71.632 158.524 71.92C158.212 72.196 157.996 72.562 157.876 73.018L155.68 72.1C155.788 71.74 155.944 71.392 156.148 71.056C156.364 70.708 156.64 70.402 156.976 70.138C157.312 69.862 157.714 69.64 158.182 69.472C158.65 69.304 159.196 69.22 159.82 69.22C160.456 69.22 161.032 69.31 161.548 69.49C162.076 69.67 162.526 69.922 162.898 70.246C163.27 70.57 163.558 70.96 163.762 71.416C163.966 71.872 164.068 72.37 164.068 72.91C164.068 73.414 163.978 73.876 163.798 74.296C163.63 74.704 163.396 75.064 163.096 75.376C162.808 75.676 162.466 75.922 162.07 76.114C161.686 76.306 161.278 76.438 160.846 76.51V77.806H158.326ZM159.622 82.216C158.986 82.216 158.53 82.078 158.254 81.802C157.99 81.526 157.858 81.196 157.858 80.812V80.236C157.858 79.852 157.99 79.528 158.254 79.264C158.53 78.988 158.986 78.85 159.622 78.85C160.258 78.85 160.714 78.988 160.99 79.264C161.266 79.54 161.404 79.864 161.404 80.236V80.812C161.404 81.196 161.266 81.526 160.99 81.802C160.726 82.078 160.27 82.216 159.622 82.216ZM169.439 77.806V75.052C170.339 75.016 171.053 74.86 171.581 74.584C172.109 74.308 172.373 73.828 172.373 73.144V72.892C172.373 72.388 172.223 72.028 171.923 71.812C171.635 71.596 171.275 71.488 170.843 71.488C170.351 71.488 169.949 71.632 169.637 71.92C169.325 72.196 169.109 72.562 168.989 73.018L166.793 72.1C166.901 71.74 167.057 71.392 167.261 71.056C167.477 70.708 167.753 70.402 168.089 70.138C168.425 69.862 168.827 69.64 169.295 69.472C169.763 69.304 170.309 69.22 170.933 69.22C171.569 69.22 172.145 69.31 172.661 69.49C173.189 69.67 173.639 69.922 174.011 70.246C174.383 70.57 174.671 70.96 174.875 71.416C175.079 71.872 175.181 72.37 175.181 72.91C175.181 73.414 175.091 73.876 174.911 74.296C174.743 74.704 174.509 75.064 174.209 75.376C173.921 75.676 173.579 75.922 173.183 76.114C172.799 76.306 172.391 76.438 171.959 76.51V77.806H169.439ZM170.735 82.216C170.099 82.216 169.643 82.078 169.367 81.802C169.103 81.526 168.971 81.196 168.971 80.812V80.236C168.971 79.852 169.103 79.528 169.367 79.264C169.643 78.988 170.099 78.85 170.735 78.85C171.371 78.85 171.827 78.988 172.103 79.264C172.379 79.54 172.517 79.864 172.517 80.236V80.812C172.517 81.196 172.379 81.526 172.103 81.802C171.839 82.078 171.383 82.216 170.735 82.216ZM180.551 77.806V75.052C181.451 75.016 182.165 74.86 182.693 74.584C183.221 74.308 183.485 73.828 183.485 73.144V72.892C183.485 72.388 183.335 72.028 183.035 71.812C182.747 71.596 182.387 71.488 181.955 71.488C181.463 71.488 181.061 71.632 180.749 71.92C180.437 72.196 180.221 72.562 180.101 73.018L177.905 72.1C178.013 71.74 178.169 71.392 178.373 71.056C178.589 70.708 178.865 70.402 179.201 70.138C179.537 69.862 179.939 69.64 180.407 69.472C180.875 69.304 181.421 69.22 182.045 69.22C182.681 69.22 183.257 69.31 183.773 69.49C184.301 69.67 184.751 69.922 185.123 70.246C185.495 70.57 185.783 70.96 185.987 71.416C186.191 71.872 186.293 72.37 186.293 72.91C186.293 73.414 186.203 73.876 186.023 74.296C185.855 74.704 185.621 75.064 185.321 75.376C185.033 75.676 184.691 75.922 184.295 76.114C183.911 76.306 183.503 76.438 183.071 76.51V77.806H180.551ZM181.847 82.216C181.211 82.216 180.755 82.078 180.479 81.802C180.215 81.526 180.083 81.196 180.083 80.812V80.236C180.083 79.852 180.215 79.528 180.479 79.264C180.755 78.988 181.211 78.85 181.847 78.85C182.483 78.85 182.939 78.988 183.215 79.264C183.491 79.54 183.629 79.864 183.629 80.236V80.812C183.629 81.196 183.491 81.526 183.215 81.802C182.951 82.078 182.495 82.216 181.847 82.216Z" fill="#A2A9B0"/>
</svg>
