<svg width="89" height="83" viewBox="0 0 89 83" fill="none" xmlns="http://www.w3.org/2000/svg">
<path d="M5.4 13.216C3.72 13.216 2.478 12.646 1.674 11.506C0.882 10.366 0.486 8.77 0.486 6.718C0.486 4.666 0.882 3.07 1.674 1.93C2.478 0.789999 3.72 0.219999 5.4 0.219999C7.08 0.219999 8.316 0.789999 9.108 1.93C9.912 3.07 10.314 4.666 10.314 6.718C10.314 8.77 9.912 10.366 9.108 11.506C8.316 12.646 7.08 13.216 5.4 13.216ZM5.4 11.092C6.204 11.092 6.762 10.81 7.074 10.246C7.398 9.682 7.56 8.896 7.56 7.888V5.548C7.56 4.54 7.398 3.754 7.074 3.19C6.762 2.626 6.204 2.344 5.4 2.344C4.596 2.344 4.032 2.626 3.708 3.19C3.396 3.754 3.24 4.54 3.24 5.548V7.888C3.24 8.896 3.396 9.682 3.708 10.246C4.032 10.81 4.596 11.092 5.4 11.092ZM5.4 7.78C4.98 7.78 4.686 7.696 4.518 7.528C4.362 7.36 4.284 7.156 4.284 6.916V6.52C4.284 6.28 4.362 6.076 4.518 5.908C4.686 5.74 4.98 5.656 5.4 5.656C5.82 5.656 6.108 5.74 6.264 5.908C6.432 6.076 6.516 6.28 6.516 6.52V6.916C6.516 7.156 6.432 7.36 6.264 7.528C6.108 7.696 5.82 7.78 5.4 7.78ZM15.361 11.884V8.572H12.229V6.448H15.361V3.136H17.665V6.448H20.797V8.572H17.665V11.884H15.361ZM27.6259 13.216C25.9459 13.216 24.7039 12.646 23.8999 11.506C23.1079 10.366 22.7119 8.77 22.7119 6.718C22.7119 4.666 23.1079 3.07 23.8999 1.93C24.7039 0.789999 25.9459 0.219999 27.6259 0.219999C29.3059 0.219999 30.5419 0.789999 31.3339 1.93C32.1379 3.07 32.5399 4.666 32.5399 6.718C32.5399 8.77 32.1379 10.366 31.3339 11.506C30.5419 12.646 29.3059 13.216 27.6259 13.216ZM27.6259 11.092C28.4299 11.092 28.9879 10.81 29.2999 10.246C29.6239 9.682 29.7859 8.896 29.7859 7.888V5.548C29.7859 4.54 29.6239 3.754 29.2999 3.19C28.9879 2.626 28.4299 2.344 27.6259 2.344C26.8219 2.344 26.2579 2.626 25.9339 3.19C25.6219 3.754 25.4659 4.54 25.4659 5.548V7.888C25.4659 8.896 25.6219 9.682 25.9339 10.246C26.2579 10.81 26.8219 11.092 27.6259 11.092ZM27.6259 7.78C27.2059 7.78 26.9119 7.696 26.7439 7.528C26.5879 7.36 26.5099 7.156 26.5099 6.916V6.52C26.5099 6.28 26.5879 6.076 26.7439 5.908C26.9119 5.74 27.2059 5.656 27.6259 5.656C28.0459 5.656 28.3339 5.74 28.4899 5.908C28.6579 6.076 28.7419 6.28 28.7419 6.52V6.916C28.7419 7.156 28.6579 7.36 28.4899 7.528C28.3339 7.696 28.0459 7.78 27.6259 7.78ZM45.5679 6.502V4.378H54.1359V6.502H45.5679ZM45.5679 10.642V8.518H54.1359V10.642H45.5679ZM72.0778 13.216C70.3978 13.216 69.1558 12.646 68.3518 11.506C67.5598 10.366 67.1638 8.77 67.1638 6.718C67.1638 4.666 67.5598 3.07 68.3518 1.93C69.1558 0.789999 70.3978 0.219999 72.0778 0.219999C73.7578 0.219999 74.9938 0.789999 75.7858 1.93C76.5898 3.07 76.9918 4.666 76.9918 6.718C76.9918 8.77 76.5898 10.366 75.7858 11.506C74.9938 12.646 73.7578 13.216 72.0778 13.216ZM72.0778 11.092C72.8818 11.092 73.4398 10.81 73.7518 10.246C74.0758 9.682 74.2378 8.896 74.2378 7.888V5.548C74.2378 4.54 74.0758 3.754 73.7518 3.19C73.4398 2.626 72.8818 2.344 72.0778 2.344C71.2738 2.344 70.7098 2.626 70.3858 3.19C70.0738 3.754 69.9178 4.54 69.9178 5.548V7.888C69.9178 8.896 70.0738 9.682 70.3858 10.246C70.7098 10.81 71.2738 11.092 72.0778 11.092ZM72.0778 7.78C71.6578 7.78 71.3638 7.696 71.1958 7.528C71.0398 7.36 70.9618 7.156 70.9618 6.916V6.52C70.9618 6.28 71.0398 6.076 71.1958 5.908C71.3638 5.74 71.6578 5.656 72.0778 5.656C72.4978 5.656 72.7858 5.74 72.9418 5.908C73.1098 6.076 73.1938 6.28 73.1938 6.52V6.916C73.1938 7.156 73.1098 7.36 72.9418 7.528C72.7858 7.696 72.4978 7.78 72.0778 7.78ZM83.1908 13.216C81.5108 13.216 80.2688 12.646 79.4648 11.506C78.6728 10.366 78.2768 8.77 78.2768 6.718C78.2768 4.666 78.6728 3.07 79.4648 1.93C80.2688 0.789999 81.5108 0.219999 83.1908 0.219999C84.8708 0.219999 86.1068 0.789999 86.8988 1.93C87.7028 3.07 88.1048 4.666 88.1048 6.718C88.1048 8.77 87.7028 10.366 86.8988 11.506C86.1068 12.646 84.8708 13.216 83.1908 13.216ZM83.1908 11.092C83.9948 11.092 84.5528 10.81 84.8648 10.246C85.1888 9.682 85.3508 8.896 85.3508 7.888V5.548C85.3508 4.54 85.1888 3.754 84.8648 3.19C84.5528 2.626 83.9948 2.344 83.1908 2.344C82.3868 2.344 81.8228 2.626 81.4988 3.19C81.1868 3.754 81.0308 4.54 81.0308 5.548V7.888C81.0308 8.896 81.1868 9.682 81.4988 10.246C81.8228 10.81 82.3868 11.092 83.1908 11.092ZM83.1908 7.78C82.7708 7.78 82.4768 7.696 82.3088 7.528C82.1528 7.36 82.0748 7.156 82.0748 6.916V6.52C82.0748 6.28 82.1528 6.076 82.3088 5.908C82.4768 5.74 82.7708 5.656 83.1908 5.656C83.6108 5.656 83.8988 5.74 84.0548 5.908C84.2228 6.076 84.3068 6.28 84.3068 6.52V6.916C84.3068 7.156 84.2228 7.36 84.0548 7.528C83.8988 7.696 83.6108 7.78 83.1908 7.78ZM5.4 36.216C3.72 36.216 2.478 35.646 1.674 34.506C0.882 33.366 0.486 31.77 0.486 29.718C0.486 27.666 0.882 26.07 1.674 24.93C2.478 23.79 3.72 23.22 5.4 23.22C7.08 23.22 8.316 23.79 9.108 24.93C9.912 26.07 10.314 27.666 10.314 29.718C10.314 31.77 9.912 33.366 9.108 34.506C8.316 35.646 7.08 36.216 5.4 36.216ZM5.4 34.092C6.204 34.092 6.762 33.81 7.074 33.246C7.398 32.682 7.56 31.896 7.56 30.888V28.548C7.56 27.54 7.398 26.754 7.074 26.19C6.762 25.626 6.204 25.344 5.4 25.344C4.596 25.344 4.032 25.626 3.708 26.19C3.396 26.754 3.24 27.54 3.24 28.548V30.888C3.24 31.896 3.396 32.682 3.708 33.246C4.032 33.81 4.596 34.092 5.4 34.092ZM5.4 30.78C4.98 30.78 4.686 30.696 4.518 30.528C4.362 30.36 4.284 30.156 4.284 29.916V29.52C4.284 29.28 4.362 29.076 4.518 28.908C4.686 28.74 4.98 28.656 5.4 28.656C5.82 28.656 6.108 28.74 6.264 28.908C6.432 29.076 6.516 29.28 6.516 29.52V29.916C6.516 30.156 6.432 30.36 6.264 30.528C6.108 30.696 5.82 30.78 5.4 30.78ZM15.361 34.884V31.572H12.229V29.448H15.361V26.136H17.665V29.448H20.797V31.572H17.665V34.884H15.361ZM23.9179 36V33.822H27.3019V25.398H27.1399L24.5839 28.746L22.8559 27.396L25.8619 23.436H30.0019V33.822H32.6659V36H23.9179ZM45.5679 29.502V27.378H54.1359V29.502H45.5679ZM45.5679 33.642V31.518H54.1359V33.642H45.5679ZM72.0778 36.216C70.3978 36.216 69.1558 35.646 68.3518 34.506C67.5598 33.366 67.1638 31.77 67.1638 29.718C67.1638 27.666 67.5598 26.07 68.3518 24.93C69.1558 23.79 70.3978 23.22 72.0778 23.22C73.7578 23.22 74.9938 23.79 75.7858 24.93C76.5898 26.07 76.9918 27.666 76.9918 29.718C76.9918 31.77 76.5898 33.366 75.7858 34.506C74.9938 35.646 73.7578 36.216 72.0778 36.216ZM72.0778 34.092C72.8818 34.092 73.4398 33.81 73.7518 33.246C74.0758 32.682 74.2378 31.896 74.2378 30.888V28.548C74.2378 27.54 74.0758 26.754 73.7518 26.19C73.4398 25.626 72.8818 25.344 72.0778 25.344C71.2738 25.344 70.7098 25.626 70.3858 26.19C70.0738 26.754 69.9178 27.54 69.9178 28.548V30.888C69.9178 31.896 70.0738 32.682 70.3858 33.246C70.7098 33.81 71.2738 34.092 72.0778 34.092ZM72.0778 30.78C71.6578 30.78 71.3638 30.696 71.1958 30.528C71.0398 30.36 70.9618 30.156 70.9618 29.916V29.52C70.9618 29.28 71.0398 29.076 71.1958 28.908C71.3638 28.74 71.6578 28.656 72.0778 28.656C72.4978 28.656 72.7858 28.74 72.9418 28.908C73.1098 29.076 73.1938 29.28 73.1938 29.52V29.916C73.1938 30.156 73.1098 30.36 72.9418 30.528C72.7858 30.696 72.4978 30.78 72.0778 30.78ZM79.4828 36V33.822H82.8668V25.398H82.7048L80.1488 28.746L78.4208 27.396L81.4268 23.436H85.5668V33.822H88.2308V36H79.4828ZM1.692 59V56.822H5.076V48.398H4.914L2.358 51.746L0.63 50.396L3.636 46.436H7.776V56.822H10.44V59H1.692ZM15.361 57.884V54.572H12.229V52.448H15.361V49.136H17.665V52.448H20.797V54.572H17.665V57.884H15.361ZM27.6259 59.216C25.9459 59.216 24.7039 58.646 23.8999 57.506C23.1079 56.366 22.7119 54.77 22.7119 52.718C22.7119 50.666 23.1079 49.07 23.8999 47.93C24.7039 46.79 25.9459 46.22 27.6259 46.22C29.3059 46.22 30.5419 46.79 31.3339 47.93C32.1379 49.07 32.5399 50.666 32.5399 52.718C32.5399 54.77 32.1379 56.366 31.3339 57.506C30.5419 58.646 29.3059 59.216 27.6259 59.216ZM27.6259 57.092C28.4299 57.092 28.9879 56.81 29.2999 56.246C29.6239 55.682 29.7859 54.896 29.7859 53.888V51.548C29.7859 50.54 29.6239 49.754 29.2999 49.19C28.9879 48.626 28.4299 48.344 27.6259 48.344C26.8219 48.344 26.2579 48.626 25.9339 49.19C25.6219 49.754 25.4659 50.54 25.4659 51.548V53.888C25.4659 54.896 25.6219 55.682 25.9339 56.246C26.2579 56.81 26.8219 57.092 27.6259 57.092ZM27.6259 53.78C27.2059 53.78 26.9119 53.696 26.7439 53.528C26.5879 53.36 26.5099 53.156 26.5099 52.916V52.52C26.5099 52.28 26.5879 52.076 26.7439 51.908C26.9119 51.74 27.2059 51.656 27.6259 51.656C28.0459 51.656 28.3339 51.74 28.4899 51.908C28.6579 52.076 28.7419 52.28 28.7419 52.52V52.916C28.7419 53.156 28.6579 53.36 28.4899 53.528C28.3339 53.696 28.0459 53.78 27.6259 53.78ZM45.5679 52.502V50.378H54.1359V52.502H45.5679ZM45.5679 56.642V54.518H54.1359V56.642H45.5679ZM72.0778 59.216C70.3978 59.216 69.1558 58.646 68.3518 57.506C67.5598 56.366 67.1638 54.77 67.1638 52.718C67.1638 50.666 67.5598 49.07 68.3518 47.93C69.1558 46.79 70.3978 46.22 72.0778 46.22C73.7578 46.22 74.9938 46.79 75.7858 47.93C76.5898 49.07 76.9918 50.666 76.9918 52.718C76.9918 54.77 76.5898 56.366 75.7858 57.506C74.9938 58.646 73.7578 59.216 72.0778 59.216ZM72.0778 57.092C72.8818 57.092 73.4398 56.81 73.7518 56.246C74.0758 55.682 74.2378 54.896 74.2378 53.888V51.548C74.2378 50.54 74.0758 49.754 73.7518 49.19C73.4398 48.626 72.8818 48.344 72.0778 48.344C71.2738 48.344 70.7098 48.626 70.3858 49.19C70.0738 49.754 69.9178 50.54 69.9178 51.548V53.888C69.9178 54.896 70.0738 55.682 70.3858 56.246C70.7098 56.81 71.2738 57.092 72.0778 57.092ZM72.0778 53.78C71.6578 53.78 71.3638 53.696 71.1958 53.528C71.0398 53.36 70.9618 53.156 70.9618 52.916V52.52C70.9618 52.28 71.0398 52.076 71.1958 51.908C71.3638 51.74 71.6578 51.656 72.0778 51.656C72.4978 51.656 72.7858 51.74 72.9418 51.908C73.1098 52.076 73.1938 52.28 73.1938 52.52V52.916C73.1938 53.156 73.1098 53.36 72.9418 53.528C72.7858 53.696 72.4978 53.78 72.0778 53.78ZM79.4828 59V56.822H82.8668V48.398H82.7048L80.1488 51.746L78.4208 50.396L81.4268 46.436H85.5668V56.822H88.2308V59H79.4828ZM1.692 82V79.822H5.076V71.398H4.914L2.358 74.746L0.63 73.396L3.636 69.436H7.776V79.822H10.44V82H1.692ZM15.361 80.884V77.572H12.229V75.448H15.361V72.136H17.665V75.448H20.797V77.572H17.665V80.884H15.361ZM23.9179 82V79.822H27.3019V71.398H27.1399L24.5839 74.746L22.8559 73.396L25.8619 69.436H30.0019V79.822H32.6659V82H23.9179ZM45.5679 75.502V73.378H54.1359V75.502H45.5679ZM45.5679 79.642V77.518H54.1359V79.642H45.5679ZM68.3698 82V79.822H71.7538V71.398H71.5918L69.0358 74.746L67.3078 73.396L70.3138 69.436H74.4538V79.822H77.1178V82H68.3698ZM83.1908 82.216C81.5108 82.216 80.2688 81.646 79.4648 80.506C78.6728 79.366 78.2768 77.77 78.2768 75.718C78.2768 73.666 78.6728 72.07 79.4648 70.93C80.2688 69.79 81.5108 69.22 83.1908 69.22C84.8708 69.22 86.1068 69.79 86.8988 70.93C87.7028 72.07 88.1048 73.666 88.1048 75.718C88.1048 77.77 87.7028 79.366 86.8988 80.506C86.1068 81.646 84.8708 82.216 83.1908 82.216ZM83.1908 80.092C83.9948 80.092 84.5528 79.81 84.8648 79.246C85.1888 78.682 85.3508 77.896 85.3508 76.888V74.548C85.3508 73.54 85.1888 72.754 84.8648 72.19C84.5528 71.626 83.9948 71.344 83.1908 71.344C82.3868 71.344 81.8228 71.626 81.4988 72.19C81.1868 72.754 81.0308 73.54 81.0308 74.548V76.888C81.0308 77.896 81.1868 78.682 81.4988 79.246C81.8228 79.81 82.3868 80.092 83.1908 80.092ZM83.1908 76.78C82.7708 76.78 82.4768 76.696 82.3088 76.528C82.1528 76.36 82.0748 76.156 82.0748 75.916V75.52C82.0748 75.28 82.1528 75.076 82.3088 74.908C82.4768 74.74 82.7708 74.656 83.1908 74.656C83.6108 74.656 83.8988 74.74 84.0548 74.908C84.2228 75.076 84.3068 75.28 84.3068 75.52V75.916C84.3068 76.156 84.2228 76.36 84.0548 76.528C83.8988 76.696 83.6108 76.78 83.1908 76.78Z" fill="#343A3F"/>
</svg>
