<?xml version="1.0" encoding="UTF-8"?>
<svg xmlns="http://www.w3.org/2000/svg" xmlns:xlink="http://www.w3.org/1999/xlink" width="945pt" height="180pt" viewBox="0 0 945 180" version="1.1">
<defs>
<clipPath id="clip1">
  <path d="M 222 153.136719 L 232 153.136719 L 232 163.734375 L 222 163.734375 Z M 222 153.136719 "/>
</clipPath>
<clipPath id="clip2">
  <path d="M 222 153.136719 L 232.503906 153.136719 L 232.503906 163.734375 L 222 163.734375 Z M 222 153.136719 "/>
</clipPath>
<clipPath id="clip3">
  <path d="M 198.25 24 L 208.894531 24 L 208.894531 34 L 198.25 34 Z M 198.25 24 "/>
</clipPath>
<clipPath id="clip4">
  <path d="M 198.25 24 L 208.894531 24 L 208.894531 34.480469 L 198.25 34.480469 Z M 198.25 24 "/>
</clipPath>
<clipPath id="clip5">
  <path d="M 5.496094 38.6875 L 16 38.6875 L 16 49.285156 L 5.496094 49.285156 Z M 5.496094 38.6875 "/>
</clipPath>
<clipPath id="clip6">
  <path d="M 28.308594 168 L 38.953125 168 L 38.953125 178 L 28.308594 178 Z M 28.308594 168 "/>
</clipPath>
<clipPath id="clip7">
  <path d="M 28.308594 167.519531 L 38.953125 167.519531 L 38.953125 178 L 28.308594 178 Z M 28.308594 167.519531 "/>
</clipPath>
<clipPath id="clip8">
  <path d="M 259 150.339844 L 268.648438 150.339844 L 268.648438 160 L 259 160 Z M 259 150.339844 "/>
</clipPath>
<clipPath id="clip9">
  <path d="M 453.445312 152 L 463 152 L 463 161 L 453.445312 161 Z M 453.445312 152 "/>
</clipPath>
<clipPath id="clip10">
  <path d="M 453.445312 151.625 L 463 151.625 L 463 161.285156 L 453.445312 161.285156 Z M 453.445312 151.625 "/>
</clipPath>
<clipPath id="clip11">
  <path d="M 455.351562 22 L 465 22 L 465 31.632812 L 455.351562 31.632812 Z M 455.351562 22 "/>
</clipPath>
<clipPath id="clip12">
  <path d="M 261 21 L 270.554688 21 L 270.554688 30 L 261 30 Z M 261 21 "/>
</clipPath>
<clipPath id="clip13">
  <path d="M 261 20.714844 L 270.554688 20.714844 L 270.554688 30.375 L 261 30.375 Z M 261 20.714844 "/>
</clipPath>
<clipPath id="clip14">
  <path d="M 694.402344 141 L 704.6875 141 L 704.6875 151 L 694.402344 151 Z M 694.402344 141 "/>
</clipPath>
<clipPath id="clip15">
  <path d="M 485.3125 22 L 495.597656 22 L 495.597656 32 L 485.3125 32 Z M 485.3125 22 "/>
</clipPath>
<clipPath id="clip16">
  <path d="M 679.035156 12 L 689 12 L 689 22 L 679.035156 22 Z M 679.035156 12 "/>
</clipPath>
<clipPath id="clip17">
  <path d="M 679.035156 12 L 689.320312 12 L 689.320312 22 L 679.035156 22 Z M 679.035156 12 "/>
</clipPath>
<clipPath id="clip18">
  <path d="M 929 127 L 939.503906 127 L 939.503906 137.511719 L 929 137.511719 Z M 929 127 "/>
</clipPath>
<clipPath id="clip19">
  <path d="M 902 2 L 912.527344 2 L 912.527344 12.480469 L 902 12.480469 Z M 902 2 "/>
</clipPath>
<clipPath id="clip20">
  <path d="M 712.496094 20.710938 L 723 20.710938 L 723 31.3125 L 712.496094 31.3125 Z M 712.496094 20.710938 "/>
</clipPath>
<clipPath id="clip21">
  <path d="M 739.089844 146 L 749.734375 146 L 749.734375 156 L 739.089844 156 Z M 739.089844 146 "/>
</clipPath>
<clipPath id="clip22">
  <path d="M 739.089844 145.519531 L 749.734375 145.519531 L 749.734375 156 L 739.089844 156 Z M 739.089844 145.519531 "/>
</clipPath>
</defs>
<g id="surface1">
<rect x="0" y="0" width="945" height="180" style="fill:rgb(100%,100%,100%);fill-opacity:1;stroke:none;"/>
<path style=" stroke:none;fill-rule:nonzero;fill:rgb(100%,100%,100%);fill-opacity:1;" d="M 0 180 L 238 180 L 238 22 L 0 22 Z M 0 180 "/>
<path style="fill:none;stroke-width:1;stroke-linecap:butt;stroke-linejoin:round;stroke:rgb(0%,0%,0%);stroke-opacity:0.6;stroke-miterlimit:10;" d="M 412.366879 39.303795 L 369.512885 274.905857 " transform="matrix(0.550926,0,0,-0.548611,0,179.999998)"/>
<path style="fill:none;stroke-width:1;stroke-linecap:butt;stroke-linejoin:round;stroke:rgb(0%,0%,0%);stroke-opacity:0.6;stroke-miterlimit:10;" d="M 412.366879 39.303795 L 61.040707 13.094142 " transform="matrix(0.550926,0,0,-0.548611,0,179.999998)"/>
<path style="fill:none;stroke-width:1;stroke-linecap:butt;stroke-linejoin:round;stroke:rgb(0%,0%,0%);stroke-opacity:0.6;stroke-miterlimit:10;" d="M 369.512885 274.905857 L 19.633142 247.927217 " transform="matrix(0.550926,0,0,-0.548611,0,179.999998)"/>
<path style="fill:none;stroke-width:1;stroke-linecap:butt;stroke-linejoin:round;stroke:rgb(0%,0%,0%);stroke-opacity:0.6;stroke-miterlimit:10;" d="M 19.633142 247.927217 L 61.040707 13.094142 " transform="matrix(0.550926,0,0,-0.548611,0,179.999998)"/>
<g clip-path="url(#clip1)" clip-rule="nonzero">
<path style=" stroke:none;fill-rule:nonzero;fill:rgb(100%,0%,0%);fill-opacity:0.6;" d="M 227.183594 163.1875 C 228.445312 163.1875 229.660156 162.6875 230.554688 161.796875 C 231.449219 160.90625 231.953125 159.695312 231.953125 158.4375 C 231.953125 157.175781 231.449219 155.96875 230.554688 155.078125 C 229.660156 154.183594 228.445312 153.683594 227.183594 153.683594 C 225.917969 153.683594 224.703125 154.183594 223.808594 155.078125 C 222.914062 155.96875 222.410156 157.175781 222.410156 158.4375 C 222.410156 159.695312 222.914062 160.90625 223.808594 161.796875 C 224.703125 162.6875 225.917969 163.1875 227.183594 163.1875 Z M 227.183594 163.1875 "/>
</g>
<g clip-path="url(#clip2)" clip-rule="nonzero">
<path style="fill:none;stroke-width:1;stroke-linecap:butt;stroke-linejoin:round;stroke:rgb(100%,0%,0%);stroke-opacity:0.6;stroke-miterlimit:10;" d="M 0.00325588 -8.661345 C 2.293435 -8.661345 4.498529 -7.749953 6.122216 -6.126535 C 7.745903 -4.503117 8.660557 -2.295839 8.660557 -0.00311696 C 8.660557 2.296725 7.745903 4.496883 6.122216 6.120301 C 4.498529 7.750839 2.293435 8.662231 0.00325588 8.662231 C -2.294013 8.662231 -4.499108 7.750839 -6.122795 6.120301 C -7.746482 4.496883 -8.661135 2.296725 -8.661135 -0.00311696 C -8.661135 -2.295839 -7.746482 -4.503117 -6.122795 -6.126535 C -4.499108 -7.749953 -2.294013 -8.661345 0.00325588 -8.661345 Z M 0.00325588 -8.661345 " transform="matrix(0.550926,0,0,-0.548611,227.1818,158.43579)"/>
</g>
<g clip-path="url(#clip3)" clip-rule="nonzero">
<path style=" stroke:none;fill-rule:nonzero;fill:rgb(100%,0%,0%);fill-opacity:0.6;" d="M 203.574219 33.933594 C 204.839844 33.933594 206.050781 33.433594 206.945312 32.542969 C 207.84375 31.648438 208.34375 30.441406 208.34375 29.183594 C 208.34375 27.921875 207.84375 26.714844 206.945312 25.820312 C 206.050781 24.929688 204.839844 24.429688 203.574219 24.429688 C 202.308594 24.429688 201.09375 24.929688 200.199219 25.820312 C 199.304688 26.714844 198.800781 27.921875 198.800781 29.183594 C 198.800781 30.441406 199.304688 31.648438 200.199219 32.542969 C 201.09375 33.433594 202.308594 33.933594 203.574219 33.933594 Z M 203.574219 33.933594 "/>
</g>
<g clip-path="url(#clip4)" clip-rule="nonzero">
<path style="fill:none;stroke-width:1;stroke-linecap:butt;stroke-linejoin:round;stroke:rgb(100%,0%,0%);stroke-opacity:0.6;stroke-miterlimit:10;" d="M 0.00130462 -8.661498 C 2.298574 -8.661498 4.496578 -7.750105 6.120265 -6.126687 C 7.751042 -4.496149 8.658605 -2.295991 8.658605 -0.00326962 C 8.658605 2.296572 7.751042 4.49673 6.120265 6.127268 C 4.496578 7.750686 2.298574 8.662079 0.00130462 8.662079 C -2.295964 8.662079 -4.501059 7.750686 -6.124746 6.127268 C -7.748433 4.49673 -8.663087 2.296572 -8.663087 -0.00326962 C -8.663087 -2.295991 -7.748433 -4.496149 -6.124746 -6.126687 C -4.501059 -7.750105 -2.295964 -8.661498 0.00130462 -8.661498 Z M 0.00130462 -8.661498 " transform="matrix(0.550926,0,0,-0.548611,203.5735,29.1818)"/>
</g>
<path style=" stroke:none;fill-rule:nonzero;fill:rgb(100%,0%,0%);fill-opacity:0.6;" d="M 10.816406 48.738281 C 12.082031 48.738281 13.296875 48.238281 14.191406 47.34375 C 15.085938 46.453125 15.589844 45.246094 15.589844 43.984375 C 15.589844 42.726562 15.085938 41.515625 14.191406 40.625 C 13.296875 39.734375 12.082031 39.234375 10.816406 39.234375 C 9.554688 39.234375 8.339844 39.734375 7.445312 40.625 C 6.550781 41.515625 6.046875 42.726562 6.046875 43.984375 C 6.046875 45.246094 6.550781 46.453125 7.445312 47.34375 C 8.339844 48.238281 9.554688 48.738281 10.816406 48.738281 Z M 10.816406 48.738281 "/>
<g clip-path="url(#clip5)" clip-rule="nonzero">
<path style="fill:none;stroke-width:1;stroke-linecap:butt;stroke-linejoin:round;stroke:rgb(100%,0%,0%);stroke-opacity:0.6;stroke-miterlimit:10;" d="M -0.00321958 -8.662569 C 2.294049 -8.662569 4.499144 -7.751176 6.122831 -6.120638 C 7.746518 -4.49722 8.661172 -2.297062 8.661172 0.00277975 C 8.661172 2.295501 7.746518 4.50278 6.122831 6.126198 C 4.499144 7.749615 2.294049 8.661008 -0.00321958 8.661008 C -2.293398 8.661008 -4.498493 7.749615 -6.12218 6.126198 C -7.745867 4.50278 -8.66052 2.295501 -8.66052 0.00277975 C -8.66052 -2.297062 -7.745867 -4.49722 -6.12218 -6.120638 C -4.498493 -7.751176 -2.293398 -8.662569 -0.00321958 -8.662569 Z M -0.00321958 -8.662569 " transform="matrix(0.550926,0,0,-0.548611,10.81818,43.9859)"/>
</g>
<g clip-path="url(#clip6)" clip-rule="nonzero">
<path style=" stroke:none;fill-rule:nonzero;fill:rgb(100%,0%,0%);fill-opacity:0.6;" d="M 33.628906 177.570312 C 34.894531 177.570312 36.109375 177.070312 37.003906 176.175781 C 37.898438 175.285156 38.398438 174.078125 38.398438 172.816406 C 38.398438 171.558594 37.898438 170.347656 37.003906 169.457031 C 36.109375 168.566406 34.894531 168.066406 33.628906 168.066406 C 32.363281 168.066406 31.148438 168.566406 30.253906 169.457031 C 29.359375 170.347656 28.859375 171.558594 28.859375 172.816406 C 28.859375 174.078125 29.359375 175.285156 30.253906 176.175781 C 31.148438 177.070312 32.363281 177.570312 33.628906 177.570312 Z M 33.628906 177.570312 "/>
</g>
<g clip-path="url(#clip7)" clip-rule="nonzero">
<path style="fill:none;stroke-width:1;stroke-linecap:butt;stroke-linejoin:round;stroke:rgb(100%,0%,0%);stroke-opacity:0.6;stroke-miterlimit:10;" d="M -0.00047874 -8.662115 C 2.29679 -8.662115 4.501885 -7.750723 6.125572 -6.120185 C 7.749259 -4.496767 8.656822 -2.296609 8.656822 0.00323316 C 8.656822 2.295955 7.749259 4.503233 6.125572 6.126651 C 4.501885 7.750069 2.29679 8.661461 -0.00047874 8.661461 C -2.297748 8.661461 -4.502842 7.750069 -6.126529 6.126651 C -7.750216 4.503233 -8.65778 2.295955 -8.65778 0.00323316 C -8.65778 -2.296609 -7.750216 -4.496767 -6.126529 -6.120185 C -4.502842 -7.750723 -2.297748 -8.662115 -0.00047874 -8.662115 Z M -0.00047874 -8.662115 " transform="matrix(0.550926,0,0,-0.548611,33.62917,172.81818)"/>
</g>
<path style=" stroke:none;fill-rule:nonzero;fill:rgb(100%,100%,100%);fill-opacity:1;" d="M 254 163 L 470 163 L 470 19 L 254 19 Z M 254 163 "/>
<path style="fill:none;stroke-width:1;stroke-linecap:butt;stroke-linejoin:round;stroke:rgb(0%,0%,0%);stroke-opacity:0.6;stroke-miterlimit:10;" d="M 19.632812 15.664062 L 408.546875 13.09375 " transform="matrix(0.5,0,0,-0.5,254,163)"/>
<path style="fill:none;stroke-width:1;stroke-linecap:butt;stroke-linejoin:round;stroke:rgb(0%,0%,0%);stroke-opacity:0.6;stroke-miterlimit:10;" d="M 19.632812 15.664062 L 23.453125 274.90625 " transform="matrix(0.5,0,0,-0.5,254,163)"/>
<path style="fill:none;stroke-width:1;stroke-linecap:butt;stroke-linejoin:round;stroke:rgb(0%,0%,0%);stroke-opacity:0.6;stroke-miterlimit:10;" d="M 408.546875 13.09375 L 412.367188 272.390625 " transform="matrix(0.5,0,0,-0.5,254,163)"/>
<path style="fill:none;stroke-width:1;stroke-linecap:butt;stroke-linejoin:round;stroke:rgb(0%,0%,0%);stroke-opacity:0.6;stroke-miterlimit:10;" d="M 412.367188 272.390625 L 23.453125 274.90625 " transform="matrix(0.5,0,0,-0.5,254,163)"/>
<g clip-path="url(#clip8)" clip-rule="nonzero">
<path style="fill-rule:nonzero;fill:rgb(100%,0%,0%);fill-opacity:0.6;stroke-width:1;stroke-linecap:butt;stroke-linejoin:round;stroke:rgb(100%,0%,0%);stroke-opacity:0.6;stroke-miterlimit:10;" d="M -0.0035875 -8.66112 C 2.293288 -8.66112 4.496413 -7.747057 6.121413 -6.122057 C 7.746413 -4.497057 8.660475 -2.293932 8.660475 0.0029425 C 8.660475 2.299818 7.746413 4.502943 6.121413 6.12013 C 4.496413 7.74513 2.293288 8.659193 -0.0035875 8.659193 C -2.300462 8.659193 -4.503587 7.74513 -6.120775 6.12013 C -7.745775 4.502943 -8.659837 2.299818 -8.659837 0.0029425 C -8.659837 -2.293932 -7.745775 -4.497057 -6.120775 -6.122057 C -4.503587 -7.747057 -2.300462 -8.66112 -0.0035875 -8.66112 Z M -0.0035875 -8.66112 " transform="matrix(0.5,0,0,-0.5,263.8182,155.16944)"/>
</g>
<g clip-path="url(#clip9)" clip-rule="nonzero">
<path style=" stroke:none;fill-rule:nonzero;fill:rgb(100%,0%,0%);fill-opacity:0.6;" d="M 458.273438 160.785156 C 459.421875 160.785156 460.523438 160.328125 461.335938 159.515625 C 462.148438 158.703125 462.605469 157.601562 462.605469 156.453125 C 462.605469 155.304688 462.148438 154.203125 461.335938 153.394531 C 460.523438 152.582031 459.421875 152.125 458.273438 152.125 C 457.125 152.125 456.023438 152.582031 455.214844 153.394531 C 454.402344 154.203125 453.945312 155.304688 453.945312 156.453125 C 453.945312 157.601562 454.402344 158.703125 455.214844 159.515625 C 456.023438 160.328125 457.125 160.785156 458.273438 160.785156 Z M 458.273438 160.785156 "/>
</g>
<g clip-path="url(#clip10)" clip-rule="nonzero">
<path style="fill:none;stroke-width:1;stroke-linecap:butt;stroke-linejoin:round;stroke:rgb(100%,0%,0%);stroke-opacity:0.6;stroke-miterlimit:10;" d="M -0.002925 -8.661212 C 2.29395 -8.661212 4.497075 -7.74715 6.122075 -6.12215 C 7.747075 -4.49715 8.661137 -2.294025 8.661137 0.00285 C 8.661137 2.299725 7.747075 4.50285 6.122075 6.120038 C 4.497075 7.745038 2.29395 8.6591 -0.002925 8.6591 C -2.2998 8.6591 -4.502925 7.745038 -6.120113 6.120038 C -7.745113 4.50285 -8.659175 2.299725 -8.659175 0.00285 C -8.659175 -2.294025 -7.745113 -4.49715 -6.120113 -6.12215 C -4.502925 -7.74715 -2.2998 -8.661212 -0.002925 -8.661212 Z M -0.002925 -8.661212 " transform="matrix(0.5,0,0,-0.5,458.2749,156.45455)"/>
</g>
<g clip-path="url(#clip11)" clip-rule="nonzero">
<path style="fill-rule:nonzero;fill:rgb(100%,0%,0%);fill-opacity:0.6;stroke-width:1;stroke-linecap:butt;stroke-linejoin:round;stroke:rgb(100%,0%,0%);stroke-opacity:0.6;stroke-miterlimit:10;" d="M 0.0035875 -8.657225 C 2.300462 -8.657225 4.503587 -7.750975 6.120775 -6.125975 C 7.745775 -4.500975 8.659837 -2.29785 8.659837 -0.000975 C 8.659837 2.2959 7.745775 4.499025 6.120775 6.124025 C 4.503587 7.749025 2.300462 8.663088 0.0035875 8.663088 C -2.293288 8.663088 -4.496413 7.749025 -6.121413 6.124025 C -7.746413 4.499025 -8.660475 2.2959 -8.660475 -0.000975 C -8.660475 -2.29785 -7.746413 -4.500975 -6.121413 -6.125975 C -4.496413 -7.750975 -2.293288 -8.657225 0.0035875 -8.657225 Z M 0.0035875 -8.657225 " transform="matrix(0.5,0,0,-0.5,460.1818,26.8042)"/>
</g>
<g clip-path="url(#clip12)" clip-rule="nonzero">
<path style=" stroke:none;fill-rule:nonzero;fill:rgb(0%,0%,100%);fill-opacity:0.6;" d="M 265.726562 29.875 C 266.875 29.875 267.972656 29.417969 268.785156 28.605469 C 269.597656 27.796875 270.054688 26.695312 270.054688 25.546875 C 270.054688 24.398438 269.597656 23.296875 268.785156 22.484375 C 267.972656 21.671875 266.875 21.214844 265.726562 21.214844 C 264.578125 21.214844 263.476562 21.671875 262.664062 22.484375 C 261.851562 23.296875 261.394531 24.398438 261.394531 25.546875 C 261.394531 26.695312 261.851562 27.796875 262.664062 28.605469 C 263.476562 29.417969 264.578125 29.875 265.726562 29.875 Z M 265.726562 29.875 "/>
</g>
<g clip-path="url(#clip13)" clip-rule="nonzero">
<path style="fill:none;stroke-width:1;stroke-linecap:butt;stroke-linejoin:round;stroke:rgb(0%,0%,100%);stroke-opacity:0.6;stroke-miterlimit:10;" d="M 0.003725 -8.659 C 2.3006 -8.659 4.495913 -7.744937 6.120913 -6.119937 C 7.745913 -4.50275 8.659975 -2.299625 8.659975 -0.00275 C 8.659975 2.294125 7.745913 4.49725 6.120913 6.12225 C 4.495913 7.74725 2.3006 8.661313 0.003725 8.661313 C -2.29315 8.661313 -4.496275 7.74725 -6.121275 6.12225 C -7.746275 4.49725 -8.660337 2.294125 -8.660337 -0.00275 C -8.660337 -2.299625 -7.746275 -4.50275 -6.121275 -6.119937 C -4.496275 -7.744937 -2.29315 -8.659 0.003725 -8.659 Z M 0.003725 -8.659 " transform="matrix(0.5,0,0,-0.5,265.7247,25.5455)"/>
</g>
<path style=" stroke:none;fill-rule:nonzero;fill:rgb(100%,100%,100%);fill-opacity:1;" d="M 480 163 L 710 163 L 710 10 L 480 10 Z M 480 163 "/>
<path style="fill:none;stroke-width:1;stroke-linecap:butt;stroke-linejoin:round;stroke:rgb(0%,0%,0%);stroke-opacity:0.6;stroke-miterlimit:10;" d="M 412.36631 32.183824 L 48.878805 13.088235 " transform="matrix(0.532407,0,0,-0.53125,480,163)"/>
<path style="fill:none;stroke-width:1;stroke-linecap:butt;stroke-linejoin:round;stroke:rgb(0%,0%,0%);stroke-opacity:0.6;stroke-miterlimit:10;" d="M 412.36631 32.183824 L 383.495386 274.911765 " transform="matrix(0.532407,0,0,-0.53125,480,163)"/>
<path style="fill:none;stroke-width:1;stroke-linecap:butt;stroke-linejoin:round;stroke:rgb(0%,0%,0%);stroke-opacity:0.6;stroke-miterlimit:10;" d="M 48.878805 13.088235 L 19.633696 255.977941 " transform="matrix(0.532407,0,0,-0.53125,480,163)"/>
<path style="fill:none;stroke-width:1;stroke-linecap:butt;stroke-linejoin:round;stroke:rgb(0%,0%,0%);stroke-opacity:0.6;stroke-miterlimit:10;" d="M 19.633696 255.977941 L 383.495386 274.911765 " transform="matrix(0.532407,0,0,-0.53125,480,163)"/>
<g clip-path="url(#clip14)" clip-rule="nonzero">
<path style="fill-rule:nonzero;fill:rgb(100%,0%,0%);fill-opacity:0.6;stroke-width:1;stroke-linecap:butt;stroke-linejoin:round;stroke:rgb(100%,0%,0%);stroke-opacity:0.6;stroke-miterlimit:10;" d="M 0.00258261 -8.658101 C 2.29905 -8.658101 4.500137 -7.746336 6.121604 -6.121336 C 7.750409 -4.496336 8.660191 -2.297807 8.660191 0.00366353 C 8.660191 2.297781 7.750409 4.496311 6.121604 6.121311 C 4.500137 7.746311 2.29905 8.658075 0.00258261 8.658075 C -2.293885 8.658075 -4.502309 7.746311 -6.123776 6.121311 C -7.745244 4.496311 -8.662363 2.297781 -8.662363 0.00366353 C -8.662363 -2.297807 -7.745244 -4.496336 -6.123776 -6.121336 C -4.502309 -7.746336 -2.293885 -8.658101 0.00258261 -8.658101 Z M 0.00258261 -8.658101 " transform="matrix(0.532407,0,0,-0.53125,699.5455,145.90429)"/>
</g>
<path style="fill-rule:nonzero;fill:rgb(100%,0%,0%);fill-opacity:0.6;stroke-width:1;stroke-linecap:butt;stroke-linejoin:round;stroke:rgb(100%,0%,0%);stroke-opacity:0.6;stroke-miterlimit:10;" d="M 0.0027 -8.657094 C 2.299167 -8.657094 4.500254 -7.745329 6.121722 -6.120329 C 7.750526 -4.502682 8.660309 -2.2968 8.660309 -0.00268235 C 8.660309 2.298788 7.750526 4.497318 6.121722 6.122318 C 4.500254 7.747318 2.299167 8.659082 0.0027 8.659082 C -2.293767 8.659082 -4.502191 7.747318 -6.123659 6.122318 C -7.745126 4.497318 -8.662246 2.298788 -8.662246 -0.00268235 C -8.662246 -2.2968 -7.745126 -4.502682 -6.123659 -6.120329 C -4.502191 -7.745329 -2.293767 -8.657094 0.0027 -8.657094 Z M 0.0027 -8.657094 " transform="matrix(0.532407,0,0,-0.53125,506.022,156.04545)"/>
<g clip-path="url(#clip15)" clip-rule="nonzero">
<path style="fill-rule:nonzero;fill:rgb(0%,0%,100%);fill-opacity:0.6;stroke-width:1;stroke-linecap:butt;stroke-linejoin:round;stroke:rgb(0%,0%,100%);stroke-opacity:0.6;stroke-miterlimit:10;" d="M -0.00258261 -8.661988 C 2.293885 -8.661988 4.502309 -7.750224 6.123776 -6.125224 C 7.745244 -4.500224 8.662363 -2.294341 8.662363 -0.000223529 C 8.662363 2.293894 7.745244 4.499776 6.123776 6.124776 C 4.502309 7.749776 2.293885 8.661541 -0.00258261 8.661541 C -2.29905 8.661541 -4.500137 7.749776 -6.121604 6.124776 C -7.750409 4.499776 -8.660191 2.293894 -8.660191 -0.000223529 C -8.660191 -2.294341 -7.750409 -4.500224 -6.121604 -6.125224 C -4.500137 -7.750224 -2.29905 -8.661988 -0.00258261 -8.661988 Z M -0.00258261 -8.661988 " transform="matrix(0.532407,0,0,-0.53125,490.4545,27.0116)"/>
</g>
<g clip-path="url(#clip16)" clip-rule="nonzero">
<path style=" stroke:none;fill-rule:nonzero;fill:rgb(0%,0%,100%);fill-opacity:0.6;" d="M 684.175781 21.554688 C 685.398438 21.554688 686.574219 21.070312 687.4375 20.207031 C 688.300781 19.34375 688.789062 18.175781 688.789062 16.953125 C 688.789062 15.734375 688.300781 14.5625 687.4375 13.703125 C 686.574219 12.839844 685.398438 12.355469 684.175781 12.355469 C 682.953125 12.355469 681.78125 12.839844 680.917969 13.703125 C 680.050781 14.5625 679.566406 15.734375 679.566406 16.953125 C 679.566406 18.175781 680.050781 19.34375 680.917969 20.207031 C 681.78125 21.070312 682.953125 21.554688 684.175781 21.554688 Z M 684.175781 21.554688 "/>
</g>
<g clip-path="url(#clip17)" clip-rule="nonzero">
<path style="fill:none;stroke-width:1;stroke-linecap:butt;stroke-linejoin:round;stroke:rgb(0%,0%,100%);stroke-opacity:0.6;stroke-miterlimit:10;" d="M -0.00228913 -8.659176 C 2.294178 -8.659176 4.502602 -7.747412 6.12407 -6.122412 C 7.745537 -4.497412 8.662657 -2.298882 8.662657 0.00258824 C 8.662657 2.296706 7.745537 4.502588 6.12407 6.120235 C 4.502602 7.745235 2.294178 8.657 -0.00228913 8.657 C -2.298757 8.657 -4.499844 7.745235 -6.121311 6.120235 C -7.750115 4.502588 -8.659898 2.296706 -8.659898 0.00258824 C -8.659898 -2.298882 -7.750115 -4.497412 -6.121311 -6.122412 C -4.499844 -7.747412 -2.298757 -8.659176 -0.00228913 -8.659176 Z M -0.00228913 -8.659176 " transform="matrix(0.532407,0,0,-0.53125,684.177,16.9545)"/>
</g>
<path style=" stroke:none;fill-rule:nonzero;fill:rgb(100%,100%,100%);fill-opacity:1;" d="M 707 158 L 945 158 L 945 0 L 707 0 Z M 707 158 "/>
<path style="fill:none;stroke-width:1;stroke-linecap:butt;stroke-linejoin:round;stroke:rgb(0%,0%,0%);stroke-opacity:0.6;stroke-miterlimit:10;" d="M 412.366879 47.007912 L 363.401015 274.90586 " transform="matrix(0.550926,0,0,-0.548611,707,158)"/>
<path style="fill:none;stroke-width:1;stroke-linecap:butt;stroke-linejoin:round;stroke:rgb(0%,0%,0%);stroke-opacity:0.6;stroke-miterlimit:10;" d="M 412.366879 47.007912 L 67.911243 13.094146 " transform="matrix(0.550926,0,0,-0.548611,707,158)"/>
<path style="fill:none;stroke-width:1;stroke-linecap:butt;stroke-linejoin:round;stroke:rgb(0%,0%,0%);stroke-opacity:0.6;stroke-miterlimit:10;" d="M 363.401015 274.90586 L 19.633142 240.586239 " transform="matrix(0.550926,0,0,-0.548611,707,158)"/>
<path style="fill:none;stroke-width:1;stroke-linecap:butt;stroke-linejoin:round;stroke:rgb(0%,0%,0%);stroke-opacity:0.6;stroke-miterlimit:10;" d="M 19.633142 240.586239 L 67.911243 13.094146 " transform="matrix(0.550926,0,0,-0.548611,707,158)"/>
<path style=" stroke:none;fill-rule:nonzero;fill:rgb(100%,0%,0%);fill-opacity:0.6;" d="M 934.183594 136.960938 C 935.445312 136.960938 936.660156 136.460938 937.554688 135.570312 C 938.449219 134.679688 938.953125 133.46875 938.953125 132.210938 C 938.953125 130.949219 938.449219 129.742188 937.554688 128.851562 C 936.660156 127.960938 935.445312 127.460938 934.183594 127.460938 C 932.917969 127.460938 931.703125 127.960938 930.808594 128.851562 C 929.914062 129.742188 929.410156 130.949219 929.410156 132.210938 C 929.410156 133.46875 929.914062 134.679688 930.808594 135.570312 C 931.703125 136.460938 932.917969 136.960938 934.183594 136.960938 Z M 934.183594 136.960938 "/>
<g clip-path="url(#clip18)" clip-rule="nonzero">
<path style="fill:none;stroke-width:1;stroke-linecap:butt;stroke-linejoin:round;stroke:rgb(100%,0%,0%);stroke-opacity:0.6;stroke-miterlimit:10;" d="M 0.00325588 -8.659317 C 2.293435 -8.659317 4.498529 -7.747925 6.122216 -6.124507 C 7.745903 -4.501089 8.660557 -2.293811 8.660557 -0.00108911 C 8.660557 2.298753 7.745903 4.498911 6.122216 6.122329 C 4.498529 7.745746 2.293435 8.657139 0.00325588 8.657139 C -2.294013 8.657139 -4.499108 7.745746 -6.122795 6.122329 C -7.746482 4.498911 -8.661135 2.298753 -8.661135 -0.00108911 C -8.661135 -2.293811 -7.746482 -4.501089 -6.122795 -6.124507 C -4.499108 -7.747925 -2.294013 -8.659317 0.00325588 -8.659317 Z M 0.00325588 -8.659317 " transform="matrix(0.550926,0,0,-0.548611,934.1818,132.21034)"/>
</g>
<path style=" stroke:none;fill-rule:nonzero;fill:rgb(0%,0%,100%);fill-opacity:0.6;" d="M 907.207031 11.933594 C 908.472656 11.933594 909.683594 11.433594 910.578125 10.542969 C 911.472656 9.648438 911.976562 8.441406 911.976562 7.183594 C 911.976562 5.921875 911.472656 4.714844 910.578125 3.820312 C 909.683594 2.929688 908.472656 2.429688 907.207031 2.429688 C 905.941406 2.429688 904.726562 2.929688 903.832031 3.820312 C 902.9375 4.714844 902.433594 5.921875 902.433594 7.183594 C 902.433594 8.441406 902.9375 9.648438 903.832031 10.542969 C 904.726562 11.433594 905.941406 11.933594 907.207031 11.933594 Z M 907.207031 11.933594 "/>
<g clip-path="url(#clip19)" clip-rule="nonzero">
<path style="fill:none;stroke-width:1;stroke-linecap:butt;stroke-linejoin:round;stroke:rgb(0%,0%,100%);stroke-opacity:0.6;stroke-miterlimit:10;" d="M 0.00187185 -8.661498 C 2.299141 -8.661498 4.497145 -7.750105 6.120832 -6.126687 C 7.744519 -4.496149 8.659173 -2.295991 8.659173 -0.00326962 C 8.659173 2.296572 7.744519 4.49673 6.120832 6.127268 C 4.497145 7.750686 2.299141 8.662079 0.00187185 8.662079 C -2.295397 8.662079 -4.500492 7.750686 -6.124179 6.127268 C -7.747866 4.49673 -8.662519 2.296572 -8.662519 -0.00326962 C -8.662519 -2.295991 -7.747866 -4.496149 -6.124179 -6.126687 C -4.500492 -7.750105 -2.295397 -8.661498 0.00187185 -8.661498 Z M 0.00187185 -8.661498 " transform="matrix(0.550926,0,0,-0.548611,907.206,7.1818)"/>
</g>
<path style=" stroke:none;fill-rule:nonzero;fill:rgb(100%,0%,0%);fill-opacity:0.6;" d="M 717.816406 30.761719 C 719.082031 30.761719 720.296875 30.261719 721.191406 29.371094 C 722.085938 28.480469 722.589844 27.273438 722.589844 26.011719 C 722.589844 24.753906 722.085938 23.542969 721.191406 22.652344 C 720.296875 21.761719 719.082031 21.261719 717.816406 21.261719 C 716.554688 21.261719 715.339844 21.761719 714.445312 22.652344 C 713.550781 23.542969 713.046875 24.753906 713.046875 26.011719 C 713.046875 27.273438 713.550781 28.480469 714.445312 29.371094 C 715.339844 30.261719 716.554688 30.761719 717.816406 30.761719 Z M 717.816406 30.761719 "/>
<g clip-path="url(#clip20)" clip-rule="nonzero">
<path style="fill:none;stroke-width:1;stroke-linecap:butt;stroke-linejoin:round;stroke:rgb(100%,0%,0%);stroke-opacity:0.6;stroke-miterlimit:10;" d="M -0.00325588 -8.656986 C 2.294013 -8.656986 4.499108 -7.745594 6.122795 -6.122176 C 7.746482 -4.498758 8.661135 -2.2986 8.661135 0.00124177 C 8.661135 2.293963 7.746482 4.501242 6.122795 6.12466 C 4.499108 7.748077 2.294013 8.65947 -0.00325588 8.65947 C -2.293435 8.65947 -4.498529 7.748077 -6.122216 6.12466 C -7.745903 4.501242 -8.660557 2.293963 -8.660557 0.00124177 C -8.660557 -2.2986 -7.745903 -4.498758 -6.122216 -6.122176 C -4.498529 -7.745594 -2.293435 -8.656986 -0.00325588 -8.656986 Z M -0.00325588 -8.656986 " transform="matrix(0.550926,0,0,-0.548611,717.8182,26.0124)"/>
</g>
<g clip-path="url(#clip21)" clip-rule="nonzero">
<path style=" stroke:none;fill-rule:nonzero;fill:rgb(0%,0%,100%);fill-opacity:0.6;" d="M 744.414062 155.570312 C 745.675781 155.570312 746.890625 155.070312 747.785156 154.175781 C 748.679688 153.285156 749.183594 152.078125 749.183594 150.816406 C 749.183594 149.558594 748.679688 148.347656 747.785156 147.457031 C 746.890625 146.566406 745.675781 146.066406 744.414062 146.066406 C 743.148438 146.066406 741.933594 146.566406 741.039062 147.457031 C 740.144531 148.347656 739.640625 149.558594 739.640625 150.816406 C 739.640625 152.078125 740.144531 153.285156 741.039062 154.175781 C 741.933594 155.070312 743.148438 155.570312 744.414062 155.570312 Z M 744.414062 155.570312 "/>
</g>
<g clip-path="url(#clip22)" clip-rule="nonzero">
<path style="fill:none;stroke-width:1;stroke-linecap:butt;stroke-linejoin:round;stroke:rgb(0%,0%,100%);stroke-opacity:0.6;stroke-miterlimit:10;" d="M 0.00338067 -8.662115 C 2.293559 -8.662115 4.498654 -7.750723 6.122341 -6.120185 C 7.746028 -4.496767 8.660681 -2.296609 8.660681 0.00323316 C 8.660681 2.295955 7.746028 4.503233 6.122341 6.126651 C 4.498654 7.750069 2.293559 8.661461 0.00338067 8.661461 C -2.293888 8.661461 -4.498983 7.750069 -6.12267 6.126651 C -7.746357 4.503233 -8.66101 2.295955 -8.66101 0.00323316 C -8.66101 -2.296609 -7.746357 -4.496767 -6.12267 -6.120185 C -4.498983 -7.750723 -2.293888 -8.662115 0.00338067 -8.662115 Z M 0.00338067 -8.662115 " transform="matrix(0.550926,0,0,-0.548611,744.4122,150.81818)"/>
</g>
</g>
</svg>
