<?xml version="1.0" encoding="utf-8" standalone="no"?>
<!DOCTYPE svg PUBLIC "-//W3C//DTD SVG 1.1//EN"
  "http://www.w3.org/Graphics/SVG/1.1/DTD/svg11.dtd">
<!-- Created with matplotlib (https://matplotlib.org/) -->
<svg height="259.8354pt" version="1.1" viewBox="0 0 450.7296 259.8354" width="450.7296pt" xmlns="http://www.w3.org/2000/svg" xmlns:xlink="http://www.w3.org/1999/xlink">
 <defs>
  <style type="text/css">
*{stroke-linecap:butt;stroke-linejoin:round;}
  </style>
 </defs>
 <g id="figure_1">
  <g id="patch_1">
   <path d="M 0 259.8354 
L 450.7296 259.8354 
L 450.7296 0 
L 0 0 
z
" style="fill:#ffffff;"/>
  </g>
  <g id="axes_1">
   <g id="patch_2">
    <path clip-path="url(#paa36c275ac)" d="M 342.17387 215.024697 
L 353.99113 215.024697 
L 348.0825 225.3648 
z
" style="fill:#778899;"/>
   </g>
   <g id="patch_3">
    <path clip-path="url(#paa36c275ac)" d="M 387.62487 215.024697 
L 399.44213 215.024697 
L 393.5335 225.3648 
z
" style="fill:#778899;"/>
   </g>
   <g id="line2d_1">
    <path clip-path="url(#paa36c275ac)" d="M 98.102 43.5608 
L 438.9845 43.5608 
" style="fill:none;stroke:#000000;stroke-linecap:square;stroke-width:2;"/>
   </g>
   <g id="line2d_2">
    <path clip-path="url(#paa36c275ac)" d="M 98.102 89.0118 
L 438.9845 89.0118 
" style="fill:none;stroke:#000000;stroke-linecap:square;stroke-width:2;"/>
   </g>
   <g id="line2d_3">
    <path clip-path="url(#paa36c275ac)" d="M 98.102 134.4628 
L 438.9845 134.4628 
" style="fill:none;stroke:#000000;stroke-linecap:square;stroke-width:2;"/>
   </g>
   <g id="line2d_4">
    <path clip-path="url(#paa36c275ac)" d="M 98.102 179.9138 
L 438.9845 179.9138 
" style="fill:none;stroke:#000000;stroke-linecap:square;stroke-width:2;"/>
   </g>
   <g id="line2d_5">
    <path clip-path="url(#paa36c275ac)" d="M 98.102 223.887642 
L 438.9845 223.887642 
" style="fill:none;stroke:#778899;stroke-linecap:square;stroke-width:2;"/>
   </g>
   <g id="line2d_6">
    <path clip-path="url(#paa36c275ac)" d="M 98.102 226.841957 
L 438.9845 226.841957 
" style="fill:none;stroke:#778899;stroke-linecap:square;stroke-width:2;"/>
   </g>
   <g id="patch_4">
    <path clip-path="url(#paa36c275ac)" d="M 157.415555 202.6393 
L 175.141445 202.6393 
L 175.141445 20.8353 
L 157.415555 20.8353 
z
" style="fill:#bdbdbd;opacity:0.6;"/>
   </g>
   <g id="patch_5">
    <path clip-path="url(#paa36c275ac)" d="M 293.768555 202.6393 
L 311.494445 202.6393 
L 311.494445 20.8353 
L 293.768555 20.8353 
z
" style="fill:#bdbdbd;opacity:0.6;"/>
   </g>
   <g id="line2d_7">
    <path clip-path="url(#paa36c275ac)" d="M 211.7295 134.4628 
L 211.7295 43.5608 
" style="fill:none;stroke:#6fa4ff;stroke-linecap:square;stroke-width:2;"/>
   </g>
   <g id="line2d_8">
    <path clip-path="url(#paa36c275ac)" d="M 257.1805 134.4628 
L 257.1805 89.0118 
" style="fill:none;stroke:#6fa4ff;stroke-linecap:square;stroke-width:2;"/>
   </g>
   <g id="line2d_9">
    <path clip-path="url(#paa36c275ac)" d="M 349.559657 134.4628 
L 349.559657 215.024697 
" style="fill:none;stroke:#778899;stroke-linecap:square;stroke-width:2;"/>
   </g>
   <g id="line2d_10">
    <path clip-path="url(#paa36c275ac)" d="M 346.605342 134.4628 
L 346.605342 215.024697 
" style="fill:none;stroke:#778899;stroke-linecap:square;stroke-width:2;"/>
   </g>
   <g id="line2d_11">
    <path clip-path="url(#paa36c275ac)" d="M 395.010657 179.9138 
L 395.010657 215.024697 
" style="fill:none;stroke:#778899;stroke-linecap:square;stroke-width:2;"/>
   </g>
   <g id="line2d_12">
    <path clip-path="url(#paa36c275ac)" d="M 392.056342 179.9138 
L 392.056342 215.024697 
" style="fill:none;stroke:#778899;stroke-linecap:square;stroke-width:2;"/>
   </g>
   <g id="line2d_13">
    <path clip-path="url(#paa36c275ac)" d="M 125.3726 229.9099 
L 129.9177 220.8197 
" style="fill:none;stroke:#778899;stroke-linecap:square;stroke-width:1.5;"/>
   </g>
   <g id="patch_6">
    <path clip-path="url(#paa36c275ac)" d="M 106.055925 58.332375 
L 135.599075 58.332375 
L 135.599075 28.789225 
L 106.055925 28.789225 
z
" style="fill:#05bab6;"/>
   </g>
   <g id="patch_7">
    <path clip-path="url(#paa36c275ac)" d="M 106.055925 103.783375 
L 135.599075 103.783375 
L 135.599075 74.240225 
L 106.055925 74.240225 
z
" style="fill:#05bab6;"/>
   </g>
   <g id="patch_8">
    <path clip-path="url(#paa36c275ac)" d="M 211.7295 47.992272 
C 212.90474 47.992272 214.032004 47.525345 214.863024 46.694324 
C 215.694045 45.863304 216.160972 44.73604 216.160972 43.5608 
C 216.160972 42.38556 215.694045 41.258296 214.863024 40.427276 
C 214.032004 39.596255 212.90474 39.129327 211.7295 39.129327 
C 210.55426 39.129327 209.426996 39.596255 208.595976 40.427276 
C 207.764955 41.258296 207.298027 42.38556 207.298027 43.5608 
C 207.298027 44.73604 207.764955 45.863304 208.595976 46.694324 
C 209.426996 47.525345 210.55426 47.992272 211.7295 47.992272 
z
" style="fill:#6fa4ff;stroke:#6fa4ff;stroke-linejoin:miter;stroke-width:1.5;"/>
   </g>
   <g id="patch_9">
    <path clip-path="url(#paa36c275ac)" d="M 211.7295 144.802902 
C 214.471727 144.802902 217.102009 143.713404 219.041057 141.774357 
C 220.980104 139.835309 222.069602 137.205027 222.069602 134.4628 
C 222.069602 131.720573 220.980104 129.090291 219.041057 127.151243 
C 217.102009 125.212196 214.471727 124.122697 211.7295 124.122697 
C 208.987273 124.122697 206.356991 125.212196 204.417943 127.151243 
C 202.478896 129.090291 201.389397 131.720573 201.389397 134.4628 
C 201.389397 137.205027 202.478896 139.835309 204.417943 141.774357 
C 206.356991 143.713404 208.987273 144.802902 211.7295 144.802902 
z
" style="fill:#6fa4ff;stroke:#6fa4ff;stroke-linejoin:miter;stroke-width:2;"/>
   </g>
   <g id="patch_10">
    <path clip-path="url(#paa36c275ac)" d="M 257.1805 93.443272 
C 258.35574 93.443272 259.483004 92.976345 260.314024 92.145324 
C 261.145045 91.314304 261.611972 90.18704 261.611972 89.0118 
C 261.611972 87.83656 261.145045 86.709296 260.314024 85.878276 
C 259.483004 85.047255 258.35574 84.580327 257.1805 84.580327 
C 256.00526 84.580327 254.877996 85.047255 254.046976 85.878276 
C 253.215955 86.709296 252.749027 87.83656 252.749027 89.0118 
C 252.749027 90.18704 253.215955 91.314304 254.046976 92.145324 
C 254.877996 92.976345 256.00526 93.443272 257.1805 93.443272 
z
" style="fill:#6fa4ff;stroke:#6fa4ff;stroke-linejoin:miter;stroke-width:1.5;"/>
   </g>
   <g id="patch_11">
    <path clip-path="url(#paa36c275ac)" d="M 257.1805 144.802902 
C 259.922727 144.802902 262.553009 143.713404 264.492057 141.774357 
C 266.431104 139.835309 267.520602 137.205027 267.520602 134.4628 
C 267.520602 131.720573 266.431104 129.090291 264.492057 127.151243 
C 262.553009 125.212196 259.922727 124.122697 257.1805 124.122697 
C 254.438273 124.122697 251.807991 125.212196 249.868943 127.151243 
C 247.929896 129.090291 246.840397 131.720573 246.840397 134.4628 
C 246.840397 137.205027 247.929896 139.835309 249.868943 141.774357 
C 251.807991 143.713404 254.438273 144.802902 257.1805 144.802902 
z
" style="fill:#6fa4ff;stroke:#6fa4ff;stroke-linejoin:miter;stroke-width:2;"/>
   </g>
   <g id="patch_12">
    <path clip-path="url(#paa36c275ac)" d="M 333.310925 149.234375 
L 362.854075 149.234375 
L 362.854075 119.691225 
L 333.310925 119.691225 
z
"/>
   </g>
   <g id="patch_13">
    <path clip-path="url(#paa36c275ac)" d="M 358.422602 138.894272 
C 358.422602 136.152959 357.332458 133.521118 355.394057 131.582716 
C 353.455655 129.644314 350.823814 128.55417 348.0825 128.55417 
C 345.341186 128.55417 342.709345 129.644314 340.770943 131.582716 
C 338.832542 133.521118 337.742397 136.152959 337.742397 138.894272 
" style="fill:none;stroke:#ffffff;stroke-linejoin:miter;stroke-width:2;"/>
   </g>
   <g id="patch_14">
    <path clip-path="url(#paa36c275ac)" d="M 378.761925 194.685375 
L 408.305075 194.685375 
L 408.305075 165.142225 
L 378.761925 165.142225 
z
"/>
   </g>
   <g id="patch_15">
    <path clip-path="url(#paa36c275ac)" d="M 403.873602 184.345272 
C 403.873602 181.603959 402.783458 178.972118 400.845057 177.033716 
C 398.906655 175.095314 396.274814 174.00517 393.5335 174.00517 
C 390.792186 174.00517 388.160345 175.095314 386.221943 177.033716 
C 384.283542 178.972118 383.193397 181.603959 383.193397 184.345272 
" style="fill:none;stroke:#ffffff;stroke-linejoin:miter;stroke-width:2;"/>
   </g>
   <g id="line2d_14">
    <path clip-path="url(#paa36c275ac)" d="M 348.0825 138.894272 
L 358.422602 128.55417 
" style="fill:none;stroke:#ffffff;stroke-linecap:square;stroke-width:2;"/>
   </g>
   <g id="line2d_15">
    <path clip-path="url(#paa36c275ac)" d="M 393.5335 184.345272 
L 403.873602 174.00517 
" style="fill:none;stroke:#ffffff;stroke-linecap:square;stroke-width:2;"/>
   </g>
   <g id="line2d_16">
    <path clip-path="url(#paa36c275ac)" d="M 166.2785 20.8353 
L 166.2785 66.2863 
" style="fill:none;stroke:#000000;stroke-dasharray:3.7,1.6;stroke-dashoffset:0;"/>
   </g>
   <g id="line2d_17">
    <path clip-path="url(#paa36c275ac)" d="M 166.2785 66.2863 
L 166.2785 111.7373 
" style="fill:none;stroke:#000000;stroke-dasharray:3.7,1.6;stroke-dashoffset:0;"/>
   </g>
   <g id="line2d_18">
    <path clip-path="url(#paa36c275ac)" d="M 166.2785 111.7373 
L 166.2785 157.1883 
" style="fill:none;stroke:#000000;stroke-dasharray:3.7,1.6;stroke-dashoffset:0;"/>
   </g>
   <g id="line2d_19">
    <path clip-path="url(#paa36c275ac)" d="M 166.2785 157.1883 
L 166.2785 202.6393 
" style="fill:none;stroke:#000000;stroke-dasharray:3.7,1.6;stroke-dashoffset:0;"/>
   </g>
   <g id="line2d_20">
    <path clip-path="url(#paa36c275ac)" d="M 211.7295 140.37143 
L 211.7295 128.55417 
" style="fill:none;stroke:#ffffff;stroke-linecap:square;stroke-width:2;"/>
   </g>
   <g id="line2d_21">
    <path clip-path="url(#paa36c275ac)" d="M 205.82087 134.4628 
L 217.63813 134.4628 
" style="fill:none;stroke:#ffffff;stroke-linecap:square;stroke-width:2;"/>
   </g>
   <g id="line2d_22">
    <path clip-path="url(#paa36c275ac)" d="M 257.1805 140.37143 
L 257.1805 128.55417 
" style="fill:none;stroke:#ffffff;stroke-linecap:square;stroke-width:2;"/>
   </g>
   <g id="line2d_23">
    <path clip-path="url(#paa36c275ac)" d="M 251.27187 134.4628 
L 263.08913 134.4628 
" style="fill:none;stroke:#ffffff;stroke-linecap:square;stroke-width:2;"/>
   </g>
   <g id="line2d_24">
    <path clip-path="url(#paa36c275ac)" d="M 302.6315 20.8353 
L 302.6315 66.2863 
" style="fill:none;stroke:#000000;stroke-dasharray:3.7,1.6;stroke-dashoffset:0;"/>
   </g>
   <g id="line2d_25">
    <path clip-path="url(#paa36c275ac)" d="M 302.6315 66.2863 
L 302.6315 111.7373 
" style="fill:none;stroke:#000000;stroke-dasharray:3.7,1.6;stroke-dashoffset:0;"/>
   </g>
   <g id="line2d_26">
    <path clip-path="url(#paa36c275ac)" d="M 302.6315 111.7373 
L 302.6315 157.1883 
" style="fill:none;stroke:#000000;stroke-dasharray:3.7,1.6;stroke-dashoffset:0;"/>
   </g>
   <g id="line2d_27">
    <path clip-path="url(#paa36c275ac)" d="M 302.6315 157.1883 
L 302.6315 202.6393 
" style="fill:none;stroke:#000000;stroke-dasharray:3.7,1.6;stroke-dashoffset:0;"/>
   </g>
   <g id="text_1">
    <g clip-path="url(#paa36c275ac)">
     <!-- $X$ -->
     <defs>
      <path d="M 13.71875 72.90625 
L 23.6875 72.90625 
L 36.1875 46.578125 
L 58.796875 72.90625 
L 70.3125 72.90625 
L 40.28125 38.09375 
L 58.40625 0 
L 48.484375 0 
L 33.796875 30.71875 
L 7.171875 0 
L -4.296875 0 
L 29.78125 39.203125 
z
" id="DejaVuSans-Oblique-88"/>
     </defs>
     <g transform="translate(116.3425 47.147987)scale(0.13 -0.13)">
      <use transform="translate(0 0.09375)" xlink:href="#DejaVuSans-Oblique-88"/>
     </g>
    </g>
   </g>
   <g id="text_2">
    <g clip-path="url(#paa36c275ac)">
     <!-- $X$ -->
     <g transform="translate(116.3425 92.598987)scale(0.13 -0.13)">
      <use transform="translate(0 0.09375)" xlink:href="#DejaVuSans-Oblique-88"/>
     </g>
    </g>
   </g>
   <g id="text_3">
    <g clip-path="url(#paa36c275ac)">
     <!-- 0 -->
     <defs>
      <path d="M 31.78125 66.40625 
Q 24.171875 66.40625 20.328125 58.90625 
Q 16.5 51.421875 16.5 36.375 
Q 16.5 21.390625 20.328125 13.890625 
Q 24.171875 6.390625 31.78125 6.390625 
Q 39.453125 6.390625 43.28125 13.890625 
Q 47.125 21.390625 47.125 36.375 
Q 47.125 51.421875 43.28125 58.90625 
Q 39.453125 66.40625 31.78125 66.40625 
z
M 31.78125 74.21875 
Q 44.046875 74.21875 50.515625 64.515625 
Q 56.984375 54.828125 56.984375 36.375 
Q 56.984375 17.96875 50.515625 8.265625 
Q 44.046875 -1.421875 31.78125 -1.421875 
Q 19.53125 -1.421875 13.0625 8.265625 
Q 6.59375 17.96875 6.59375 36.375 
Q 6.59375 54.828125 13.0625 64.515625 
Q 19.53125 74.21875 31.78125 74.21875 
z
" id="DejaVuSans-48"/>
     </defs>
     <g transform="translate(359.44525 218.656825)scale(0.104 -0.104)">
      <use xlink:href="#DejaVuSans-48"/>
     </g>
    </g>
   </g>
   <g id="text_4">
    <g clip-path="url(#paa36c275ac)">
     <!-- 1 -->
     <defs>
      <path d="M 12.40625 8.296875 
L 28.515625 8.296875 
L 28.515625 63.921875 
L 10.984375 60.40625 
L 10.984375 69.390625 
L 28.421875 72.90625 
L 38.28125 72.90625 
L 38.28125 8.296875 
L 54.390625 8.296875 
L 54.390625 0 
L 12.40625 0 
z
" id="DejaVuSans-49"/>
     </defs>
     <g transform="translate(404.89625 218.656825)scale(0.104 -0.104)">
      <use xlink:href="#DejaVuSans-49"/>
     </g>
    </g>
   </g>
   <g id="text_5">
    <g clip-path="url(#paa36c275ac)">
     <!-- $q_{0}$ -->
     <defs>
      <path d="M 41.703125 8.203125 
Q 38.09375 3.46875 33.171875 1.015625 
Q 28.265625 -1.421875 22.3125 -1.421875 
Q 14.015625 -1.421875 9.296875 4.171875 
Q 4.59375 9.765625 4.59375 19.578125 
Q 4.59375 27.484375 7.5 34.859375 
Q 10.40625 42.234375 15.828125 48.09375 
Q 19.34375 51.90625 23.90625 53.953125 
Q 28.46875 56 33.5 56 
Q 39.546875 56 43.453125 53.609375 
Q 47.359375 51.21875 49.125 46.390625 
L 50.6875 54.59375 
L 59.71875 54.59375 
L 45.125 -20.609375 
L 36.078125 -20.609375 
z
M 13.921875 20.90625 
Q 13.921875 13.671875 16.9375 9.890625 
Q 19.96875 6.109375 25.6875 6.109375 
Q 34.1875 6.109375 40.1875 14.234375 
Q 46.1875 22.359375 46.1875 33.984375 
Q 46.1875 41.015625 43.078125 44.75 
Q 39.984375 48.484375 34.1875 48.484375 
Q 29.9375 48.484375 26.3125 46.5 
Q 22.703125 44.53125 20.015625 40.71875 
Q 17.1875 36.71875 15.546875 31.34375 
Q 13.921875 25.984375 13.921875 20.90625 
z
" id="DejaVuSans-Oblique-113"/>
     </defs>
     <g transform="translate(57.339 48.011777)scale(0.1625 -0.1625)">
      <use xlink:href="#DejaVuSans-Oblique-113"/>
      <use transform="translate(63.476562 -16.40625)scale(0.7)" xlink:href="#DejaVuSans-48"/>
     </g>
    </g>
   </g>
   <g id="text_6">
    <g clip-path="url(#paa36c275ac)">
     <!-- $q_{1}$ -->
     <g transform="translate(57.339 93.462777)scale(0.1625 -0.1625)">
      <use xlink:href="#DejaVuSans-Oblique-113"/>
      <use transform="translate(63.476562 -16.40625)scale(0.7)" xlink:href="#DejaVuSans-49"/>
     </g>
    </g>
   </g>
   <g id="text_7">
    <g clip-path="url(#paa36c275ac)">
     <!-- $q_{2}$ -->
     <defs>
      <path d="M 19.1875 8.296875 
L 53.609375 8.296875 
L 53.609375 0 
L 7.328125 0 
L 7.328125 8.296875 
Q 12.9375 14.109375 22.625 23.890625 
Q 32.328125 33.6875 34.8125 36.53125 
Q 39.546875 41.84375 41.421875 45.53125 
Q 43.3125 49.21875 43.3125 52.78125 
Q 43.3125 58.59375 39.234375 62.25 
Q 35.15625 65.921875 28.609375 65.921875 
Q 23.96875 65.921875 18.8125 64.3125 
Q 13.671875 62.703125 7.8125 59.421875 
L 7.8125 69.390625 
Q 13.765625 71.78125 18.9375 73 
Q 24.125 74.21875 28.421875 74.21875 
Q 39.75 74.21875 46.484375 68.546875 
Q 53.21875 62.890625 53.21875 53.421875 
Q 53.21875 48.921875 51.53125 44.890625 
Q 49.859375 40.875 45.40625 35.40625 
Q 44.1875 33.984375 37.640625 27.21875 
Q 31.109375 20.453125 19.1875 8.296875 
z
" id="DejaVuSans-50"/>
     </defs>
     <g transform="translate(57.339 138.913777)scale(0.1625 -0.1625)">
      <use xlink:href="#DejaVuSans-Oblique-113"/>
      <use transform="translate(63.476562 -16.40625)scale(0.7)" xlink:href="#DejaVuSans-50"/>
     </g>
    </g>
   </g>
   <g id="text_8">
    <g clip-path="url(#paa36c275ac)">
     <!-- $q_{3}$ -->
     <defs>
      <path d="M 40.578125 39.3125 
Q 47.65625 37.796875 51.625 33 
Q 55.609375 28.21875 55.609375 21.1875 
Q 55.609375 10.40625 48.1875 4.484375 
Q 40.765625 -1.421875 27.09375 -1.421875 
Q 22.515625 -1.421875 17.65625 -0.515625 
Q 12.796875 0.390625 7.625 2.203125 
L 7.625 11.71875 
Q 11.71875 9.328125 16.59375 8.109375 
Q 21.484375 6.890625 26.8125 6.890625 
Q 36.078125 6.890625 40.9375 10.546875 
Q 45.796875 14.203125 45.796875 21.1875 
Q 45.796875 27.640625 41.28125 31.265625 
Q 36.765625 34.90625 28.71875 34.90625 
L 20.21875 34.90625 
L 20.21875 43.015625 
L 29.109375 43.015625 
Q 36.375 43.015625 40.234375 45.921875 
Q 44.09375 48.828125 44.09375 54.296875 
Q 44.09375 59.90625 40.109375 62.90625 
Q 36.140625 65.921875 28.71875 65.921875 
Q 24.65625 65.921875 20.015625 65.03125 
Q 15.375 64.15625 9.8125 62.3125 
L 9.8125 71.09375 
Q 15.4375 72.65625 20.34375 73.4375 
Q 25.25 74.21875 29.59375 74.21875 
Q 40.828125 74.21875 47.359375 69.109375 
Q 53.90625 64.015625 53.90625 55.328125 
Q 53.90625 49.265625 50.4375 45.09375 
Q 46.96875 40.921875 40.578125 39.3125 
z
" id="DejaVuSans-51"/>
     </defs>
     <g transform="translate(57.339 184.364777)scale(0.1625 -0.1625)">
      <use xlink:href="#DejaVuSans-Oblique-113"/>
      <use transform="translate(63.476562 -16.40625)scale(0.7)" xlink:href="#DejaVuSans-51"/>
     </g>
    </g>
   </g>
   <g id="text_9">
    <g clip-path="url(#paa36c275ac)">
     <!-- 2 -->
     <g transform="translate(120.8275 218.656825)scale(0.104 -0.104)">
      <use xlink:href="#DejaVuSans-50"/>
     </g>
    </g>
   </g>
   <g id="text_10">
    <g clip-path="url(#paa36c275ac)">
     <!-- $c$ -->
     <defs>
      <path d="M 53.609375 52.59375 
L 51.8125 43.703125 
Q 48.578125 46.046875 44.9375 47.21875 
Q 41.3125 48.390625 37.40625 48.390625 
Q 33.109375 48.390625 29.21875 46.875 
Q 25.34375 45.359375 22.703125 42.578125 
Q 18.5 38.328125 16.203125 32.609375 
Q 13.921875 26.90625 13.921875 20.796875 
Q 13.921875 13.421875 17.609375 9.8125 
Q 21.296875 6.203125 28.8125 6.203125 
Q 32.515625 6.203125 36.6875 7.328125 
Q 40.875 8.453125 45.40625 10.6875 
L 43.703125 1.8125 
Q 39.796875 0.203125 35.671875 -0.609375 
Q 31.546875 -1.421875 27.203125 -1.421875 
Q 16.3125 -1.421875 10.453125 4.015625 
Q 4.59375 9.46875 4.59375 19.578125 
Q 4.59375 28.078125 7.640625 35.234375 
Q 10.6875 42.390625 16.703125 48.09375 
Q 20.796875 52 26.3125 54 
Q 31.84375 56 38.375 56 
Q 42.1875 56 45.9375 55.140625 
Q 49.703125 54.296875 53.609375 52.59375 
z
" id="DejaVuSans-Oblique-99"/>
     </defs>
     <g transform="translate(64.6515 230.745581)scale(0.195 -0.195)">
      <use xlink:href="#DejaVuSans-Oblique-99"/>
     </g>
    </g>
   </g>
  </g>
 </g>
 <defs>
  <clipPath id="paa36c275ac">
   <rect height="245.4354" width="436.3296" x="7.2" y="7.2"/>
  </clipPath>
 </defs>
</svg>
