<svg width="385" height="241" viewBox="0 0 385 241" fill="none" xmlns="http://www.w3.org/2000/svg">
<path d="M79.644 187.944H79.584L78.876 189.348L76.872 192.996L74.868 189.348L74.16 187.944H74.1V195H73.116V186.624H74.46L76.86 191.136H76.92L79.332 186.624H80.628V195H79.644V187.944ZM87.4183 195C87.0583 195 86.7983 194.904 86.6383 194.712C86.4863 194.52 86.3903 194.28 86.3503 193.992H86.2903C86.1543 194.376 85.9303 194.664 85.6183 194.856C85.3063 195.048 84.9343 195.144 84.5023 195.144C83.8463 195.144 83.3343 194.976 82.9663 194.64C82.6063 194.304 82.4263 193.848 82.4263 193.272C82.4263 192.688 82.6383 192.24 83.0623 191.928C83.4943 191.616 84.1623 191.46 85.0663 191.46H86.2903V190.848C86.2903 190.408 86.1703 190.072 85.9303 189.84C85.6903 189.608 85.3223 189.492 84.8263 189.492C84.4503 189.492 84.1343 189.576 83.8783 189.744C83.6303 189.912 83.4223 190.136 83.2543 190.416L82.6783 189.876C82.8463 189.54 83.1143 189.256 83.4823 189.024C83.8503 188.784 84.3143 188.664 84.8743 188.664C85.6263 188.664 86.2103 188.848 86.6263 189.216C87.0423 189.584 87.2503 190.096 87.2503 190.752V194.16H87.9583V195H87.4183ZM84.6583 194.328C84.8983 194.328 85.1183 194.3 85.3183 194.244C85.5183 194.188 85.6903 194.108 85.8343 194.004C85.9783 193.9 86.0903 193.78 86.1703 193.644C86.2503 193.508 86.2903 193.36 86.2903 193.2V192.18H85.0183C84.4663 192.18 84.0623 192.26 83.8063 192.42C83.5583 192.58 83.4343 192.812 83.4343 193.116V193.368C83.4343 193.672 83.5423 193.908 83.7583 194.076C83.9823 194.244 84.2823 194.328 84.6583 194.328ZM94.7084 195.684C94.7084 196.324 94.4564 196.792 93.9524 197.088C93.4564 197.392 92.7084 197.544 91.7084 197.544C90.7404 197.544 90.0444 197.412 89.6204 197.148C89.1964 196.884 88.9844 196.508 88.9844 196.02C88.9844 195.684 89.0724 195.42 89.2484 195.228C89.4244 195.044 89.6644 194.908 89.9684 194.82V194.688C89.6004 194.512 89.4164 194.224 89.4164 193.824C89.4164 193.512 89.5164 193.276 89.7164 193.116C89.9164 192.948 90.1724 192.824 90.4844 192.744V192.696C90.1164 192.52 89.8284 192.268 89.6204 191.94C89.4204 191.612 89.3204 191.232 89.3204 190.8C89.3204 190.488 89.3764 190.2 89.4884 189.936C89.6004 189.672 89.7564 189.448 89.9564 189.264C90.1644 189.072 90.4084 188.924 90.6884 188.82C90.9764 188.716 91.2964 188.664 91.6484 188.664C92.0884 188.664 92.4804 188.744 92.8244 188.904V188.796C92.8244 188.556 92.8804 188.36 92.9924 188.208C93.1044 188.048 93.2884 187.968 93.5444 187.968H94.4684V188.808H93.2924V189.204C93.5164 189.396 93.6884 189.628 93.8084 189.9C93.9364 190.164 94.0004 190.464 94.0004 190.8C94.0004 191.112 93.9444 191.4 93.8324 191.664C93.7204 191.928 93.5604 192.156 93.3524 192.348C93.1524 192.532 92.9084 192.676 92.6204 192.78C92.3324 192.884 92.0124 192.936 91.6604 192.936C91.4604 192.936 91.2604 192.916 91.0604 192.876C90.8524 192.932 90.6644 193.016 90.4964 193.128C90.3284 193.232 90.2444 193.38 90.2444 193.572C90.2444 193.756 90.3324 193.88 90.5084 193.944C90.6844 194.008 90.9124 194.04 91.1924 194.04H92.5124C93.2804 194.04 93.8364 194.188 94.1804 194.484C94.5324 194.772 94.7084 195.172 94.7084 195.684ZM93.8084 195.756C93.8084 195.508 93.7124 195.308 93.5204 195.156C93.3364 195.012 93.0044 194.94 92.5244 194.94H90.4604C90.0764 195.116 89.8844 195.396 89.8844 195.78C89.8844 196.052 89.9844 196.284 90.1844 196.476C90.3924 196.668 90.7404 196.764 91.2284 196.764H92.1164C92.6524 196.764 93.0684 196.68 93.3644 196.512C93.6604 196.344 93.8084 196.092 93.8084 195.756ZM91.6604 192.168C92.0684 192.168 92.3924 192.072 92.6324 191.88C92.8724 191.68 92.9924 191.376 92.9924 190.968V190.632C92.9924 190.224 92.8724 189.924 92.6324 189.732C92.3924 189.532 92.0684 189.432 91.6604 189.432C91.2524 189.432 90.9284 189.532 90.6884 189.732C90.4484 189.924 90.3284 190.224 90.3284 190.632V190.968C90.3284 191.376 90.4484 191.68 90.6884 191.88C90.9284 192.072 91.2524 192.168 91.6604 192.168ZM95.9883 195V188.808H96.9483V189.816H96.9963C97.1483 189.464 97.3603 189.184 97.6323 188.976C97.9123 188.768 98.2843 188.664 98.7483 188.664C99.3883 188.664 99.8923 188.872 100.26 189.288C100.636 189.696 100.824 190.276 100.824 191.028V195H99.8643V191.196C99.8643 190.084 99.3963 189.528 98.4603 189.528C98.2683 189.528 98.0803 189.552 97.8963 189.6C97.7203 189.648 97.5603 189.72 97.4163 189.816C97.2723 189.912 97.1563 190.036 97.0683 190.188C96.9883 190.332 96.9483 190.504 96.9483 190.704V195H95.9883ZM103.449 187.356C103.241 187.356 103.089 187.308 102.993 187.212C102.905 187.108 102.861 186.976 102.861 186.816V186.66C102.861 186.5 102.905 186.372 102.993 186.276C103.089 186.172 103.241 186.12 103.449 186.12C103.657 186.12 103.805 186.172 103.893 186.276C103.989 186.372 104.037 186.5 104.037 186.66V186.816C104.037 186.976 103.989 187.108 103.893 187.212C103.805 187.308 103.657 187.356 103.449 187.356ZM102.969 188.808H103.929V195H102.969V188.808ZM107.497 195C107.161 195 106.905 194.908 106.729 194.724C106.561 194.532 106.477 194.284 106.477 193.98V189.648H105.457V188.808H106.033C106.241 188.808 106.381 188.768 106.453 188.688C106.533 188.6 106.573 188.452 106.573 188.244V187.092H107.437V188.808H108.793V189.648H107.437V194.16H108.697V195H107.497ZM114.312 193.992H114.264C114.2 194.136 114.12 194.28 114.024 194.424C113.936 194.56 113.824 194.684 113.688 194.796C113.552 194.9 113.388 194.984 113.196 195.048C113.004 195.112 112.78 195.144 112.524 195.144C111.884 195.144 111.376 194.94 111 194.532C110.624 194.116 110.436 193.532 110.436 192.78V188.808H111.396V192.612C111.396 193.724 111.868 194.28 112.812 194.28C113.004 194.28 113.188 194.256 113.364 194.208C113.548 194.16 113.708 194.088 113.844 193.992C113.988 193.896 114.1 193.776 114.18 193.632C114.268 193.48 114.312 193.3 114.312 193.092V188.808H115.272V195H114.312V193.992ZM121.436 193.992H121.388C121.012 194.76 120.408 195.144 119.576 195.144C119.192 195.144 118.844 195.068 118.532 194.916C118.22 194.764 117.952 194.548 117.728 194.268C117.512 193.988 117.344 193.648 117.224 193.248C117.112 192.848 117.056 192.4 117.056 191.904C117.056 191.408 117.112 190.96 117.224 190.56C117.344 190.16 117.512 189.82 117.728 189.54C117.952 189.26 118.22 189.044 118.532 188.892C118.844 188.74 119.192 188.664 119.576 188.664C120.008 188.664 120.376 188.76 120.68 188.952C120.992 189.136 121.228 189.424 121.388 189.816H121.436V186.12H122.396V195H121.436V193.992ZM119.84 194.28C120.056 194.28 120.26 194.252 120.452 194.196C120.652 194.14 120.824 194.06 120.968 193.956C121.112 193.844 121.224 193.712 121.304 193.56C121.392 193.4 121.436 193.22 121.436 193.02V190.716C121.436 190.548 121.392 190.392 121.304 190.248C121.224 190.096 121.112 189.968 120.968 189.864C120.824 189.76 120.652 189.68 120.452 189.624C120.26 189.56 120.056 189.528 119.84 189.528C119.296 189.528 118.868 189.7 118.556 190.044C118.244 190.38 118.088 190.824 118.088 191.376V192.432C118.088 192.984 118.244 193.432 118.556 193.776C118.868 194.112 119.296 194.28 119.84 194.28ZM126.925 195.144C126.501 195.144 126.117 195.068 125.773 194.916C125.437 194.764 125.145 194.548 124.897 194.268C124.657 193.98 124.469 193.64 124.333 193.248C124.205 192.848 124.141 192.4 124.141 191.904C124.141 191.416 124.205 190.972 124.333 190.572C124.469 190.172 124.657 189.832 124.897 189.552C125.145 189.264 125.437 189.044 125.773 188.892C126.117 188.74 126.501 188.664 126.925 188.664C127.341 188.664 127.713 188.74 128.041 188.892C128.369 189.044 128.649 189.256 128.881 189.528C129.113 189.792 129.289 190.108 129.409 190.476C129.537 190.844 129.601 191.248 129.601 191.688V192.144H125.149V192.432C125.149 192.696 125.189 192.944 125.269 193.176C125.357 193.4 125.477 193.596 125.629 193.764C125.789 193.932 125.981 194.064 126.205 194.16C126.437 194.256 126.697 194.304 126.985 194.304C127.377 194.304 127.717 194.212 128.005 194.028C128.301 193.844 128.529 193.58 128.689 193.236L129.373 193.728C129.173 194.152 128.861 194.496 128.437 194.76C128.013 195.016 127.509 195.144 126.925 195.144ZM126.925 189.468C126.661 189.468 126.421 189.516 126.205 189.612C125.989 189.7 125.801 189.828 125.641 189.996C125.489 190.164 125.369 190.364 125.281 190.596C125.193 190.82 125.149 191.068 125.149 191.34V191.424H128.569V191.292C128.569 190.74 128.417 190.3 128.113 189.972C127.817 189.636 127.421 189.468 126.925 189.468ZM132.075 195.144C131.819 195.144 131.631 195.08 131.511 194.952C131.399 194.824 131.343 194.656 131.343 194.448V194.292C131.343 194.084 131.399 193.916 131.511 193.788C131.631 193.66 131.819 193.596 132.075 193.596C132.331 193.596 132.515 193.66 132.627 193.788C132.747 193.916 132.807 194.084 132.807 194.292V194.448C132.807 194.656 132.747 194.824 132.627 194.952C132.515 195.08 132.331 195.144 132.075 195.144ZM132.075 190.212C131.819 190.212 131.631 190.148 131.511 190.02C131.399 189.892 131.343 189.724 131.343 189.516V189.36C131.343 189.152 131.399 188.984 131.511 188.856C131.631 188.728 131.819 188.664 132.075 188.664C132.331 188.664 132.515 188.728 132.627 188.856C132.747 188.984 132.807 189.152 132.807 189.36V189.516C132.807 189.724 132.747 189.892 132.627 190.02C132.515 190.148 132.331 190.212 132.075 190.212ZM140.583 195.144C139.583 195.144 138.851 194.764 138.387 194.004C137.931 193.244 137.703 192.18 137.703 190.812C137.703 189.444 137.931 188.38 138.387 187.62C138.851 186.86 139.583 186.48 140.583 186.48C141.583 186.48 142.311 186.86 142.767 187.62C143.231 188.38 143.463 189.444 143.463 190.812C143.463 192.18 143.231 193.244 142.767 194.004C142.311 194.764 141.583 195.144 140.583 195.144ZM140.583 194.268C140.911 194.268 141.191 194.2 141.423 194.064C141.655 193.928 141.843 193.736 141.987 193.488C142.131 193.24 142.235 192.948 142.299 192.612C142.371 192.276 142.407 191.904 142.407 191.496V190.128C142.407 189.72 142.371 189.348 142.299 189.012C142.235 188.676 142.131 188.384 141.987 188.136C141.843 187.888 141.655 187.696 141.423 187.56C141.191 187.424 140.911 187.356 140.583 187.356C140.255 187.356 139.975 187.424 139.743 187.56C139.511 187.696 139.323 187.888 139.179 188.136C139.035 188.384 138.927 188.676 138.855 189.012C138.791 189.348 138.759 189.72 138.759 190.128V191.496C138.759 191.904 138.791 192.276 138.855 192.612C138.927 192.948 139.035 193.24 139.179 193.488C139.323 193.736 139.511 193.928 139.743 194.064C139.975 194.2 140.255 194.268 140.583 194.268ZM145.97 195.144C145.714 195.144 145.526 195.08 145.406 194.952C145.294 194.824 145.238 194.656 145.238 194.448V194.292C145.238 194.084 145.294 193.916 145.406 193.788C145.526 193.66 145.714 193.596 145.97 193.596C146.226 193.596 146.41 193.66 146.522 193.788C146.642 193.916 146.702 194.084 146.702 194.292V194.448C146.702 194.656 146.642 194.824 146.522 194.952C146.41 195.08 146.226 195.144 145.97 195.144ZM153.744 187.512H150.072L149.832 190.704H149.916C150.116 190.424 150.34 190.2 150.588 190.032C150.844 189.864 151.192 189.78 151.632 189.78C151.992 189.78 152.324 189.84 152.628 189.96C152.932 190.08 153.196 190.252 153.42 190.476C153.644 190.692 153.816 190.96 153.936 191.28C154.064 191.6 154.128 191.964 154.128 192.372C154.128 192.78 154.064 193.156 153.936 193.5C153.808 193.836 153.62 194.128 153.372 194.376C153.132 194.616 152.836 194.804 152.484 194.94C152.14 195.076 151.748 195.144 151.308 195.144C150.956 195.144 150.644 195.104 150.372 195.024C150.108 194.944 149.872 194.836 149.664 194.7C149.456 194.564 149.272 194.412 149.112 194.244C148.96 194.076 148.82 193.9 148.692 193.716L149.448 193.14C149.552 193.308 149.66 193.46 149.772 193.596C149.892 193.732 150.02 193.848 150.156 193.944C150.3 194.04 150.464 194.116 150.648 194.172C150.832 194.22 151.052 194.244 151.308 194.244C151.884 194.244 152.32 194.092 152.616 193.788C152.912 193.484 153.06 193.056 153.06 192.504V192.384C153.06 191.832 152.912 191.404 152.616 191.1C152.32 190.796 151.884 190.644 151.308 190.644C150.924 190.644 150.62 190.716 150.396 190.86C150.18 190.996 149.984 191.16 149.808 191.352L148.956 191.232L149.256 186.624H153.744V187.512ZM158.735 195.144C158.303 195.144 157.911 195.072 157.559 194.928C157.215 194.776 156.919 194.564 156.671 194.292C156.431 194.012 156.247 193.672 156.119 193.272C155.991 192.872 155.927 192.424 155.927 191.928C155.927 191.304 156.019 190.72 156.203 190.176C156.387 189.624 156.623 189.124 156.911 188.676C157.207 188.22 157.531 187.82 157.883 187.476C158.235 187.124 158.579 186.84 158.915 186.624H160.211C159.763 186.952 159.363 187.272 159.011 187.584C158.659 187.896 158.351 188.224 158.087 188.568C157.823 188.904 157.599 189.268 157.415 189.66C157.231 190.044 157.083 190.48 156.971 190.968L157.031 190.992C157.231 190.648 157.487 190.364 157.799 190.14C158.119 189.908 158.535 189.792 159.047 189.792C159.407 189.792 159.739 189.852 160.043 189.972C160.347 190.092 160.607 190.264 160.823 190.488C161.039 190.712 161.207 190.984 161.327 191.304C161.455 191.624 161.519 191.98 161.519 192.372C161.519 192.78 161.451 193.156 161.315 193.5C161.187 193.836 160.999 194.128 160.751 194.376C160.511 194.616 160.219 194.804 159.875 194.94C159.531 195.076 159.151 195.144 158.735 195.144ZM158.723 194.268C159.275 194.268 159.703 194.116 160.007 193.812C160.319 193.508 160.475 193.072 160.475 192.504V192.408C160.475 191.84 160.319 191.404 160.007 191.1C159.703 190.796 159.275 190.644 158.723 190.644C158.171 190.644 157.739 190.796 157.427 191.1C157.123 191.404 156.971 191.84 156.971 192.408V192.504C156.971 193.072 157.123 193.508 157.427 193.812C157.739 194.116 158.171 194.268 158.723 194.268Z" fill="black"/>
<rect x="20" y="50" width="28" height="170" fill="#DDE1E6"/>
<rect x="20" y="112" width="28" height="108" fill="#A56EFF"/>
<line x1="20" y1="111" x2="48" y2="111" stroke="white" stroke-width="2"/>
<path d="M282.681 187.944H282.621L281.913 189.348L279.909 192.996L277.905 189.348L277.197 187.944H277.137V195H276.153V186.624H277.497L279.897 191.136H279.957L282.369 186.624H283.665V195H282.681V187.944ZM290.455 195C290.095 195 289.835 194.904 289.675 194.712C289.523 194.52 289.427 194.28 289.387 193.992H289.327C289.191 194.376 288.967 194.664 288.655 194.856C288.343 195.048 287.971 195.144 287.539 195.144C286.883 195.144 286.371 194.976 286.003 194.64C285.643 194.304 285.463 193.848 285.463 193.272C285.463 192.688 285.675 192.24 286.099 191.928C286.531 191.616 287.199 191.46 288.103 191.46H289.327V190.848C289.327 190.408 289.207 190.072 288.967 189.84C288.727 189.608 288.359 189.492 287.863 189.492C287.487 189.492 287.171 189.576 286.915 189.744C286.667 189.912 286.459 190.136 286.291 190.416L285.715 189.876C285.883 189.54 286.151 189.256 286.519 189.024C286.887 188.784 287.351 188.664 287.911 188.664C288.663 188.664 289.247 188.848 289.663 189.216C290.079 189.584 290.287 190.096 290.287 190.752V194.16H290.995V195H290.455ZM287.695 194.328C287.935 194.328 288.155 194.3 288.355 194.244C288.555 194.188 288.727 194.108 288.871 194.004C289.015 193.9 289.127 193.78 289.207 193.644C289.287 193.508 289.327 193.36 289.327 193.2V192.18H288.055C287.503 192.18 287.099 192.26 286.843 192.42C286.595 192.58 286.471 192.812 286.471 193.116V193.368C286.471 193.672 286.579 193.908 286.795 194.076C287.019 194.244 287.319 194.328 287.695 194.328ZM297.746 195.684C297.746 196.324 297.494 196.792 296.99 197.088C296.494 197.392 295.746 197.544 294.746 197.544C293.778 197.544 293.082 197.412 292.658 197.148C292.234 196.884 292.022 196.508 292.022 196.02C292.022 195.684 292.11 195.42 292.286 195.228C292.462 195.044 292.702 194.908 293.006 194.82V194.688C292.638 194.512 292.454 194.224 292.454 193.824C292.454 193.512 292.554 193.276 292.754 193.116C292.954 192.948 293.21 192.824 293.522 192.744V192.696C293.154 192.52 292.866 192.268 292.658 191.94C292.458 191.612 292.358 191.232 292.358 190.8C292.358 190.488 292.414 190.2 292.526 189.936C292.638 189.672 292.794 189.448 292.994 189.264C293.202 189.072 293.446 188.924 293.726 188.82C294.014 188.716 294.334 188.664 294.686 188.664C295.126 188.664 295.518 188.744 295.862 188.904V188.796C295.862 188.556 295.918 188.36 296.03 188.208C296.142 188.048 296.326 187.968 296.582 187.968H297.506V188.808H296.33V189.204C296.554 189.396 296.726 189.628 296.846 189.9C296.974 190.164 297.038 190.464 297.038 190.8C297.038 191.112 296.982 191.4 296.87 191.664C296.758 191.928 296.598 192.156 296.39 192.348C296.19 192.532 295.946 192.676 295.658 192.78C295.37 192.884 295.05 192.936 294.698 192.936C294.498 192.936 294.298 192.916 294.098 192.876C293.89 192.932 293.702 193.016 293.534 193.128C293.366 193.232 293.282 193.38 293.282 193.572C293.282 193.756 293.37 193.88 293.546 193.944C293.722 194.008 293.95 194.04 294.23 194.04H295.55C296.318 194.04 296.874 194.188 297.218 194.484C297.57 194.772 297.746 195.172 297.746 195.684ZM296.846 195.756C296.846 195.508 296.75 195.308 296.558 195.156C296.374 195.012 296.042 194.94 295.562 194.94H293.498C293.114 195.116 292.922 195.396 292.922 195.78C292.922 196.052 293.022 196.284 293.222 196.476C293.43 196.668 293.778 196.764 294.266 196.764H295.154C295.69 196.764 296.106 196.68 296.402 196.512C296.698 196.344 296.846 196.092 296.846 195.756ZM294.698 192.168C295.106 192.168 295.43 192.072 295.67 191.88C295.91 191.68 296.03 191.376 296.03 190.968V190.632C296.03 190.224 295.91 189.924 295.67 189.732C295.43 189.532 295.106 189.432 294.698 189.432C294.29 189.432 293.966 189.532 293.726 189.732C293.486 189.924 293.366 190.224 293.366 190.632V190.968C293.366 191.376 293.486 191.68 293.726 191.88C293.966 192.072 294.29 192.168 294.698 192.168ZM299.025 195V188.808H299.985V189.816H300.033C300.185 189.464 300.397 189.184 300.669 188.976C300.949 188.768 301.321 188.664 301.785 188.664C302.425 188.664 302.929 188.872 303.297 189.288C303.673 189.696 303.861 190.276 303.861 191.028V195H302.901V191.196C302.901 190.084 302.433 189.528 301.497 189.528C301.305 189.528 301.117 189.552 300.933 189.6C300.757 189.648 300.597 189.72 300.453 189.816C300.309 189.912 300.193 190.036 300.105 190.188C300.025 190.332 299.985 190.504 299.985 190.704V195H299.025ZM306.486 187.356C306.278 187.356 306.126 187.308 306.03 187.212C305.942 187.108 305.898 186.976 305.898 186.816V186.66C305.898 186.5 305.942 186.372 306.03 186.276C306.126 186.172 306.278 186.12 306.486 186.12C306.694 186.12 306.842 186.172 306.93 186.276C307.026 186.372 307.074 186.5 307.074 186.66V186.816C307.074 186.976 307.026 187.108 306.93 187.212C306.842 187.308 306.694 187.356 306.486 187.356ZM306.006 188.808H306.966V195H306.006V188.808ZM310.534 195C310.198 195 309.942 194.908 309.766 194.724C309.598 194.532 309.514 194.284 309.514 193.98V189.648H308.494V188.808H309.07C309.278 188.808 309.418 188.768 309.49 188.688C309.57 188.6 309.61 188.452 309.61 188.244V187.092H310.474V188.808H311.83V189.648H310.474V194.16H311.734V195H310.534ZM317.349 193.992H317.301C317.237 194.136 317.157 194.28 317.061 194.424C316.973 194.56 316.861 194.684 316.725 194.796C316.589 194.9 316.425 194.984 316.233 195.048C316.041 195.112 315.817 195.144 315.561 195.144C314.921 195.144 314.413 194.94 314.037 194.532C313.661 194.116 313.473 193.532 313.473 192.78V188.808H314.433V192.612C314.433 193.724 314.905 194.28 315.849 194.28C316.041 194.28 316.225 194.256 316.401 194.208C316.585 194.16 316.745 194.088 316.881 193.992C317.025 193.896 317.137 193.776 317.217 193.632C317.305 193.48 317.349 193.3 317.349 193.092V188.808H318.309V195H317.349V193.992ZM324.473 193.992H324.425C324.049 194.76 323.445 195.144 322.613 195.144C322.229 195.144 321.881 195.068 321.569 194.916C321.257 194.764 320.989 194.548 320.765 194.268C320.549 193.988 320.381 193.648 320.261 193.248C320.149 192.848 320.093 192.4 320.093 191.904C320.093 191.408 320.149 190.96 320.261 190.56C320.381 190.16 320.549 189.82 320.765 189.54C320.989 189.26 321.257 189.044 321.569 188.892C321.881 188.74 322.229 188.664 322.613 188.664C323.045 188.664 323.413 188.76 323.717 188.952C324.029 189.136 324.265 189.424 324.425 189.816H324.473V186.12H325.433V195H324.473V193.992ZM322.877 194.28C323.093 194.28 323.297 194.252 323.489 194.196C323.689 194.14 323.861 194.06 324.005 193.956C324.149 193.844 324.261 193.712 324.341 193.56C324.429 193.4 324.473 193.22 324.473 193.02V190.716C324.473 190.548 324.429 190.392 324.341 190.248C324.261 190.096 324.149 189.968 324.005 189.864C323.861 189.76 323.689 189.68 323.489 189.624C323.297 189.56 323.093 189.528 322.877 189.528C322.333 189.528 321.905 189.7 321.593 190.044C321.281 190.38 321.125 190.824 321.125 191.376V192.432C321.125 192.984 321.281 193.432 321.593 193.776C321.905 194.112 322.333 194.28 322.877 194.28ZM329.962 195.144C329.538 195.144 329.154 195.068 328.81 194.916C328.474 194.764 328.182 194.548 327.934 194.268C327.694 193.98 327.506 193.64 327.37 193.248C327.242 192.848 327.178 192.4 327.178 191.904C327.178 191.416 327.242 190.972 327.37 190.572C327.506 190.172 327.694 189.832 327.934 189.552C328.182 189.264 328.474 189.044 328.81 188.892C329.154 188.74 329.538 188.664 329.962 188.664C330.378 188.664 330.75 188.74 331.078 188.892C331.406 189.044 331.686 189.256 331.918 189.528C332.15 189.792 332.326 190.108 332.446 190.476C332.574 190.844 332.638 191.248 332.638 191.688V192.144H328.186V192.432C328.186 192.696 328.226 192.944 328.306 193.176C328.394 193.4 328.514 193.596 328.666 193.764C328.826 193.932 329.018 194.064 329.242 194.16C329.474 194.256 329.734 194.304 330.022 194.304C330.414 194.304 330.754 194.212 331.042 194.028C331.338 193.844 331.566 193.58 331.726 193.236L332.41 193.728C332.21 194.152 331.898 194.496 331.474 194.76C331.05 195.016 330.546 195.144 329.962 195.144ZM329.962 189.468C329.698 189.468 329.458 189.516 329.242 189.612C329.026 189.7 328.838 189.828 328.678 189.996C328.526 190.164 328.406 190.364 328.318 190.596C328.23 190.82 328.186 191.068 328.186 191.34V191.424H331.606V191.292C331.606 190.74 331.454 190.3 331.15 189.972C330.854 189.636 330.458 189.468 329.962 189.468ZM335.112 195.144C334.856 195.144 334.668 195.08 334.548 194.952C334.436 194.824 334.38 194.656 334.38 194.448V194.292C334.38 194.084 334.436 193.916 334.548 193.788C334.668 193.66 334.856 193.596 335.112 193.596C335.368 193.596 335.552 193.66 335.664 193.788C335.784 193.916 335.844 194.084 335.844 194.292V194.448C335.844 194.656 335.784 194.824 335.664 194.952C335.552 195.08 335.368 195.144 335.112 195.144ZM335.112 190.212C334.856 190.212 334.668 190.148 334.548 190.02C334.436 189.892 334.38 189.724 334.38 189.516V189.36C334.38 189.152 334.436 188.984 334.548 188.856C334.668 188.728 334.856 188.664 335.112 188.664C335.368 188.664 335.552 188.728 335.664 188.856C335.784 188.984 335.844 189.152 335.844 189.36V189.516C335.844 189.724 335.784 189.892 335.664 190.02C335.552 190.148 335.368 190.212 335.112 190.212ZM343.62 195.144C342.62 195.144 341.888 194.764 341.424 194.004C340.968 193.244 340.74 192.18 340.74 190.812C340.74 189.444 340.968 188.38 341.424 187.62C341.888 186.86 342.62 186.48 343.62 186.48C344.62 186.48 345.348 186.86 345.804 187.62C346.268 188.38 346.5 189.444 346.5 190.812C346.5 192.18 346.268 193.244 345.804 194.004C345.348 194.764 344.62 195.144 343.62 195.144ZM343.62 194.268C343.948 194.268 344.228 194.2 344.46 194.064C344.692 193.928 344.88 193.736 345.024 193.488C345.168 193.24 345.272 192.948 345.336 192.612C345.408 192.276 345.444 191.904 345.444 191.496V190.128C345.444 189.72 345.408 189.348 345.336 189.012C345.272 188.676 345.168 188.384 345.024 188.136C344.88 187.888 344.692 187.696 344.46 187.56C344.228 187.424 343.948 187.356 343.62 187.356C343.292 187.356 343.012 187.424 342.78 187.56C342.548 187.696 342.36 187.888 342.216 188.136C342.072 188.384 341.964 188.676 341.892 189.012C341.828 189.348 341.796 189.72 341.796 190.128V191.496C341.796 191.904 341.828 192.276 341.892 192.612C341.964 192.948 342.072 193.24 342.216 193.488C342.36 193.736 342.548 193.928 342.78 194.064C343.012 194.2 343.292 194.268 343.62 194.268ZM349.007 195.144C348.751 195.144 348.563 195.08 348.443 194.952C348.331 194.824 348.275 194.656 348.275 194.448V194.292C348.275 194.084 348.331 193.916 348.443 193.788C348.563 193.66 348.751 193.596 349.007 193.596C349.263 193.596 349.447 193.66 349.559 193.788C349.679 193.916 349.739 194.084 349.739 194.292V194.448C349.739 194.656 349.679 194.824 349.559 194.952C349.447 195.08 349.263 195.144 349.007 195.144ZM356.781 187.512H353.109L352.869 190.704H352.953C353.153 190.424 353.377 190.2 353.625 190.032C353.881 189.864 354.229 189.78 354.669 189.78C355.029 189.78 355.361 189.84 355.665 189.96C355.969 190.08 356.233 190.252 356.457 190.476C356.681 190.692 356.853 190.96 356.973 191.28C357.101 191.6 357.165 191.964 357.165 192.372C357.165 192.78 357.101 193.156 356.973 193.5C356.845 193.836 356.657 194.128 356.409 194.376C356.169 194.616 355.873 194.804 355.521 194.94C355.177 195.076 354.785 195.144 354.345 195.144C353.993 195.144 353.681 195.104 353.409 195.024C353.145 194.944 352.909 194.836 352.701 194.7C352.493 194.564 352.309 194.412 352.149 194.244C351.997 194.076 351.857 193.9 351.729 193.716L352.485 193.14C352.589 193.308 352.697 193.46 352.809 193.596C352.929 193.732 353.057 193.848 353.193 193.944C353.337 194.04 353.501 194.116 353.685 194.172C353.869 194.22 354.089 194.244 354.345 194.244C354.921 194.244 355.357 194.092 355.653 193.788C355.949 193.484 356.097 193.056 356.097 192.504V192.384C356.097 191.832 355.949 191.404 355.653 191.1C355.357 190.796 354.921 190.644 354.345 190.644C353.961 190.644 353.657 190.716 353.433 190.86C353.217 190.996 353.021 191.16 352.845 191.352L351.993 191.232L352.293 186.624H356.781V187.512ZM291.036 215V206.624H294.372C295.124 206.624 295.7 206.84 296.1 207.272C296.508 207.696 296.712 208.28 296.712 209.024C296.712 209.768 296.508 210.356 296.1 210.788C295.7 211.212 295.124 211.424 294.372 211.424H292.044V215H291.036ZM292.044 210.536H294.372C294.772 210.536 295.08 210.432 295.296 210.224C295.52 210.016 295.632 209.72 295.632 209.336V208.712C295.632 208.328 295.52 208.032 295.296 207.824C295.08 207.616 294.772 207.512 294.372 207.512H292.044V210.536ZM298.377 206.12H299.337V209.816H299.385C299.537 209.464 299.749 209.184 300.021 208.976C300.301 208.768 300.673 208.664 301.137 208.664C301.777 208.664 302.281 208.872 302.649 209.288C303.025 209.696 303.213 210.276 303.213 211.028V215H302.253V211.196C302.253 210.084 301.785 209.528 300.849 209.528C300.657 209.528 300.469 209.552 300.285 209.6C300.109 209.648 299.949 209.72 299.805 209.816C299.661 209.912 299.545 210.036 299.457 210.188C299.377 210.332 299.337 210.504 299.337 210.704V215H298.377V206.12ZM309.857 215C309.497 215 309.237 214.904 309.077 214.712C308.925 214.52 308.829 214.28 308.789 213.992H308.729C308.593 214.376 308.369 214.664 308.057 214.856C307.745 215.048 307.373 215.144 306.941 215.144C306.285 215.144 305.773 214.976 305.405 214.64C305.045 214.304 304.865 213.848 304.865 213.272C304.865 212.688 305.077 212.24 305.501 211.928C305.933 211.616 306.601 211.46 307.505 211.46H308.729V210.848C308.729 210.408 308.609 210.072 308.369 209.84C308.129 209.608 307.761 209.492 307.265 209.492C306.889 209.492 306.573 209.576 306.317 209.744C306.069 209.912 305.861 210.136 305.693 210.416L305.117 209.876C305.285 209.54 305.553 209.256 305.921 209.024C306.289 208.784 306.753 208.664 307.313 208.664C308.065 208.664 308.649 208.848 309.065 209.216C309.481 209.584 309.689 210.096 309.689 210.752V214.16H310.397V215H309.857ZM307.097 214.328C307.337 214.328 307.557 214.3 307.757 214.244C307.957 214.188 308.129 214.108 308.273 214.004C308.417 213.9 308.529 213.78 308.609 213.644C308.689 213.508 308.729 213.36 308.729 213.2V212.18H307.457C306.905 212.18 306.501 212.26 306.245 212.42C305.997 212.58 305.873 212.812 305.873 213.116V213.368C305.873 213.672 305.981 213.908 306.197 214.076C306.421 214.244 306.721 214.328 307.097 214.328ZM313.787 215.144C313.211 215.144 312.727 215.036 312.335 214.82C311.951 214.596 311.619 214.3 311.339 213.932L312.023 213.38C312.263 213.684 312.531 213.92 312.827 214.088C313.123 214.248 313.467 214.328 313.859 214.328C314.267 214.328 314.583 214.24 314.807 214.064C315.039 213.888 315.155 213.64 315.155 213.32C315.155 213.08 315.075 212.876 314.915 212.708C314.763 212.532 314.483 212.412 314.075 212.348L313.583 212.276C313.295 212.236 313.031 212.176 312.791 212.096C312.551 212.008 312.339 211.896 312.155 211.76C311.979 211.616 311.839 211.44 311.735 211.232C311.639 211.024 311.591 210.776 311.591 210.488C311.591 210.184 311.647 209.92 311.759 209.696C311.871 209.464 312.023 209.272 312.215 209.12C312.415 208.968 312.651 208.856 312.923 208.784C313.195 208.704 313.487 208.664 313.799 208.664C314.303 208.664 314.723 208.752 315.059 208.928C315.403 209.104 315.703 209.348 315.959 209.66L315.323 210.236C315.187 210.044 314.987 209.872 314.723 209.72C314.459 209.56 314.127 209.48 313.727 209.48C313.327 209.48 313.023 209.568 312.815 209.744C312.615 209.912 312.515 210.144 312.515 210.44C312.515 210.744 312.615 210.964 312.815 211.1C313.023 211.236 313.319 211.336 313.703 211.4L314.183 211.472C314.871 211.576 315.359 211.776 315.647 212.072C315.935 212.36 316.079 212.74 316.079 213.212C316.079 213.812 315.875 214.284 315.467 214.628C315.059 214.972 314.499 215.144 313.787 215.144ZM320.263 215.144C319.839 215.144 319.455 215.068 319.111 214.916C318.775 214.764 318.483 214.548 318.235 214.268C317.995 213.98 317.807 213.64 317.671 213.248C317.543 212.848 317.479 212.4 317.479 211.904C317.479 211.416 317.543 210.972 317.671 210.572C317.807 210.172 317.995 209.832 318.235 209.552C318.483 209.264 318.775 209.044 319.111 208.892C319.455 208.74 319.839 208.664 320.263 208.664C320.679 208.664 321.051 208.74 321.379 208.892C321.707 209.044 321.987 209.256 322.219 209.528C322.451 209.792 322.627 210.108 322.747 210.476C322.875 210.844 322.939 211.248 322.939 211.688V212.144H318.487V212.432C318.487 212.696 318.527 212.944 318.607 213.176C318.695 213.4 318.815 213.596 318.967 213.764C319.127 213.932 319.319 214.064 319.543 214.16C319.775 214.256 320.035 214.304 320.323 214.304C320.715 214.304 321.055 214.212 321.343 214.028C321.639 213.844 321.867 213.58 322.027 213.236L322.711 213.728C322.511 214.152 322.199 214.496 321.775 214.76C321.351 215.016 320.847 215.144 320.263 215.144ZM320.263 209.468C319.999 209.468 319.759 209.516 319.543 209.612C319.327 209.7 319.139 209.828 318.979 209.996C318.827 210.164 318.707 210.364 318.619 210.596C318.531 210.82 318.487 211.068 318.487 211.34V211.424H321.907V211.292C321.907 210.74 321.755 210.3 321.451 209.972C321.155 209.636 320.759 209.468 320.263 209.468ZM325.413 215.144C325.157 215.144 324.969 215.08 324.849 214.952C324.737 214.824 324.681 214.656 324.681 214.448V214.292C324.681 214.084 324.737 213.916 324.849 213.788C324.969 213.66 325.157 213.596 325.413 213.596C325.669 213.596 325.853 213.66 325.965 213.788C326.085 213.916 326.145 214.084 326.145 214.292V214.448C326.145 214.656 326.085 214.824 325.965 214.952C325.853 215.08 325.669 215.144 325.413 215.144ZM325.413 210.212C325.157 210.212 324.969 210.148 324.849 210.02C324.737 209.892 324.681 209.724 324.681 209.516V209.36C324.681 209.152 324.737 208.984 324.849 208.856C324.969 208.728 325.157 208.664 325.413 208.664C325.669 208.664 325.853 208.728 325.965 208.856C326.085 208.984 326.145 209.152 326.145 209.36V209.516C326.145 209.724 326.085 209.892 325.965 210.02C325.853 210.148 325.669 210.212 325.413 210.212ZM333.453 210.176C334.021 210.176 334.445 210.048 334.725 209.792C335.013 209.528 335.157 209.192 335.157 208.784V208.7C335.157 208.26 335.017 207.932 334.737 207.716C334.465 207.492 334.105 207.38 333.657 207.38C333.225 207.38 332.873 207.476 332.601 207.668C332.329 207.852 332.105 208.104 331.929 208.424L331.185 207.848C331.289 207.68 331.413 207.516 331.557 207.356C331.709 207.188 331.885 207.04 332.085 206.912C332.285 206.784 332.517 206.68 332.781 206.6C333.045 206.52 333.345 206.48 333.681 206.48C334.033 206.48 334.365 206.528 334.677 206.624C334.989 206.712 335.257 206.848 335.481 207.032C335.713 207.208 335.893 207.428 336.021 207.692C336.157 207.956 336.225 208.256 336.225 208.592C336.225 208.864 336.181 209.108 336.093 209.324C336.013 209.54 335.901 209.728 335.757 209.888C335.613 210.048 335.441 210.184 335.241 210.296C335.049 210.408 334.841 210.492 334.617 210.548V210.596C334.841 210.644 335.057 210.724 335.265 210.836C335.481 210.94 335.669 211.08 335.829 211.256C335.997 211.424 336.129 211.632 336.225 211.88C336.329 212.12 336.381 212.396 336.381 212.708C336.381 213.068 336.313 213.4 336.177 213.704C336.041 214 335.849 214.256 335.601 214.472C335.353 214.68 335.053 214.844 334.701 214.964C334.349 215.084 333.961 215.144 333.537 215.144C333.177 215.144 332.857 215.104 332.577 215.024C332.297 214.944 332.049 214.836 331.833 214.7C331.617 214.564 331.425 214.412 331.257 214.244C331.097 214.076 330.953 213.9 330.825 213.716L331.581 213.14C331.685 213.308 331.797 213.46 331.917 213.596C332.045 213.732 332.185 213.848 332.337 213.944C332.489 214.04 332.661 214.116 332.853 214.172C333.045 214.22 333.269 214.244 333.525 214.244C334.117 214.244 334.565 214.112 334.869 213.848C335.173 213.576 335.325 213.192 335.325 212.696V212.6C335.325 212.104 335.173 211.724 334.869 211.46C334.565 211.188 334.117 211.052 333.525 211.052H332.541V210.176H333.453ZM338.732 215V214.112H341.072V207.368H340.988L338.876 209.336L338.288 208.7L340.508 206.624H342.08V214.112H344.24V215H338.732ZM348.631 215.144C347.631 215.144 346.899 214.764 346.435 214.004C345.979 213.244 345.751 212.18 345.751 210.812C345.751 209.444 345.979 208.38 346.435 207.62C346.899 206.86 347.631 206.48 348.631 206.48C349.631 206.48 350.359 206.86 350.815 207.62C351.279 208.38 351.511 209.444 351.511 210.812C351.511 212.18 351.279 213.244 350.815 214.004C350.359 214.764 349.631 215.144 348.631 215.144ZM348.631 214.268C348.959 214.268 349.239 214.2 349.471 214.064C349.703 213.928 349.891 213.736 350.035 213.488C350.179 213.24 350.283 212.948 350.347 212.612C350.419 212.276 350.455 211.904 350.455 211.496V210.128C350.455 209.72 350.419 209.348 350.347 209.012C350.283 208.676 350.179 208.384 350.035 208.136C349.891 207.888 349.703 207.696 349.471 207.56C349.239 207.424 348.959 207.356 348.631 207.356C348.303 207.356 348.023 207.424 347.791 207.56C347.559 207.696 347.371 207.888 347.227 208.136C347.083 208.384 346.975 208.676 346.903 209.012C346.839 209.348 346.807 209.72 346.807 210.128V211.496C346.807 211.904 346.839 212.276 346.903 212.612C346.975 212.948 347.083 213.24 347.227 213.488C347.371 213.736 347.559 213.928 347.791 214.064C348.023 214.2 348.303 214.268 348.631 214.268ZM355.195 210.608C354.907 210.608 354.639 210.556 354.391 210.452C354.151 210.348 353.939 210.204 353.755 210.02C353.579 209.836 353.439 209.62 353.335 209.372C353.231 209.116 353.179 208.84 353.179 208.544C353.179 208.248 353.231 207.976 353.335 207.728C353.439 207.472 353.579 207.252 353.755 207.068C353.939 206.884 354.151 206.74 354.391 206.636C354.639 206.532 354.907 206.48 355.195 206.48C355.483 206.48 355.747 206.532 355.987 206.636C356.235 206.74 356.447 206.884 356.623 207.068C356.807 207.252 356.951 207.472 357.055 207.728C357.159 207.976 357.211 208.248 357.211 208.544C357.211 208.84 357.159 209.116 357.055 209.372C356.951 209.62 356.807 209.836 356.623 210.02C356.447 210.204 356.235 210.348 355.987 210.452C355.747 210.556 355.483 210.608 355.195 210.608ZM355.195 209.84C355.555 209.84 355.839 209.716 356.047 209.468C356.263 209.212 356.371 208.904 356.371 208.544C356.371 208.184 356.263 207.88 356.047 207.632C355.839 207.376 355.555 207.248 355.195 207.248C354.835 207.248 354.547 207.376 354.331 207.632C354.123 207.88 354.019 208.184 354.019 208.544C354.019 208.904 354.123 209.212 354.331 209.468C354.547 209.716 354.835 209.84 355.195 209.84Z" fill="black"/>
<circle cx="308" cy="106" r="60" fill="#DDE1E6"/>
<ellipse cx="308.5" cy="107" rx="36.5" ry="36" fill="#A56EFF"/>
<path d="M330.911 134.996C331.461 135.045 331.947 134.639 331.996 134.089L332.794 125.124C332.843 124.574 332.436 124.088 331.886 124.039C331.336 123.99 330.851 124.397 330.802 124.947L330.093 132.915L322.124 132.206C321.574 132.157 321.088 132.564 321.039 133.114C320.99 133.664 321.397 134.149 321.947 134.198L330.911 134.996ZM307.343 107.281L330.233 134.642L331.767 133.358L308.877 105.997L307.343 107.281Z" fill="white"/>
<path d="M310.36 22L309.52 19.528H306.136L305.296 22H304.276L307.204 13.624H308.488L311.416 22H310.36ZM307.852 14.56H307.792L306.376 18.64H309.268L307.852 14.56ZM313.027 22V15.808H313.987V16.816H314.035C314.107 16.656 314.187 16.508 314.275 16.372C314.371 16.228 314.483 16.104 314.611 16C314.747 15.896 314.903 15.816 315.079 15.76C315.255 15.696 315.464 15.664 315.704 15.664C316.112 15.664 316.487 15.764 316.831 15.964C317.175 16.156 317.431 16.476 317.599 16.924H317.623C317.735 16.588 317.944 16.296 318.248 16.048C318.559 15.792 318.979 15.664 319.507 15.664C320.14 15.664 320.632 15.872 320.984 16.288C321.344 16.696 321.524 17.276 321.524 18.028V22H320.564V18.196C320.564 17.644 320.456 17.228 320.24 16.948C320.024 16.668 319.68 16.528 319.207 16.528C319.016 16.528 318.832 16.552 318.655 16.6C318.488 16.648 318.336 16.72 318.2 16.816C318.063 16.912 317.955 17.036 317.875 17.188C317.796 17.332 317.756 17.504 317.756 17.704V22H316.795V18.196C316.795 17.644 316.687 17.228 316.471 16.948C316.255 16.668 315.919 16.528 315.463 16.528C315.271 16.528 315.087 16.552 314.911 16.6C314.735 16.648 314.579 16.72 314.443 16.816C314.307 16.912 314.195 17.036 314.107 17.188C314.027 17.332 313.987 17.504 313.987 17.704V22H313.027ZM323.824 15.808H324.784V16.816H324.832C324.992 16.424 325.224 16.136 325.528 15.952C325.84 15.76 326.212 15.664 326.644 15.664C327.028 15.664 327.376 15.74 327.688 15.892C328 16.044 328.264 16.26 328.48 16.54C328.704 16.82 328.872 17.16 328.984 17.56C329.104 17.96 329.164 18.408 329.164 18.904C329.164 19.4 329.104 19.848 328.984 20.248C328.872 20.648 328.704 20.988 328.48 21.268C328.264 21.548 328 21.764 327.688 21.916C327.376 22.068 327.028 22.144 326.644 22.144C325.804 22.144 325.2 21.76 324.832 20.992H324.784V24.4H323.824V15.808ZM326.38 21.28C326.924 21.28 327.352 21.112 327.664 20.776C327.976 20.432 328.132 19.984 328.132 19.432V18.376C328.132 17.824 327.976 17.38 327.664 17.044C327.352 16.7 326.924 16.528 326.38 16.528C326.164 16.528 325.956 16.56 325.756 16.624C325.564 16.68 325.396 16.76 325.252 16.864C325.108 16.968 324.992 17.096 324.904 17.248C324.824 17.392 324.784 17.548 324.784 17.716V20.02C324.784 20.22 324.824 20.4 324.904 20.56C324.992 20.712 325.108 20.844 325.252 20.956C325.396 21.06 325.564 21.14 325.756 21.196C325.956 21.252 326.164 21.28 326.38 21.28ZM332.125 22C331.789 22 331.533 21.908 331.357 21.724C331.189 21.532 331.105 21.292 331.105 21.004V13.12H332.065V21.16H332.977V22H332.125ZM335.175 14.356C334.967 14.356 334.815 14.308 334.719 14.212C334.631 14.108 334.587 13.976 334.587 13.816V13.66C334.587 13.5 334.631 13.372 334.719 13.276C334.815 13.172 334.967 13.12 335.175 13.12C335.383 13.12 335.531 13.172 335.619 13.276C335.715 13.372 335.763 13.5 335.763 13.66V13.816C335.763 13.976 335.715 14.108 335.619 14.212C335.531 14.308 335.383 14.356 335.175 14.356ZM334.695 15.808H335.655V22H334.695V15.808ZM339.383 22C339.047 22 338.791 21.908 338.615 21.724C338.447 21.532 338.363 21.284 338.363 20.98V16.648H337.343V15.808H337.919C338.127 15.808 338.267 15.768 338.339 15.688C338.419 15.6 338.459 15.452 338.459 15.244V14.092H339.323V15.808H340.679V16.648H339.323V21.16H340.583V22H339.383ZM346.358 20.992H346.31C346.246 21.136 346.166 21.28 346.07 21.424C345.982 21.56 345.87 21.684 345.734 21.796C345.598 21.9 345.434 21.984 345.242 22.048C345.05 22.112 344.826 22.144 344.57 22.144C343.93 22.144 343.422 21.94 343.046 21.532C342.67 21.116 342.482 20.532 342.482 19.78V15.808H343.442V19.612C343.442 20.724 343.914 21.28 344.858 21.28C345.05 21.28 345.234 21.256 345.41 21.208C345.594 21.16 345.754 21.088 345.89 20.992C346.034 20.896 346.146 20.776 346.226 20.632C346.314 20.48 346.358 20.3 346.358 20.092V15.808H347.318V22H346.358V20.992ZM353.642 20.992H353.594C353.218 21.76 352.614 22.144 351.782 22.144C351.398 22.144 351.05 22.068 350.738 21.916C350.426 21.764 350.158 21.548 349.934 21.268C349.718 20.988 349.55 20.648 349.43 20.248C349.318 19.848 349.262 19.4 349.262 18.904C349.262 18.408 349.318 17.96 349.43 17.56C349.55 17.16 349.718 16.82 349.934 16.54C350.158 16.26 350.426 16.044 350.738 15.892C351.05 15.74 351.398 15.664 351.782 15.664C352.214 15.664 352.582 15.76 352.886 15.952C353.198 16.136 353.434 16.424 353.594 16.816H353.642V13.12H354.602V22H353.642V20.992ZM352.046 21.28C352.262 21.28 352.466 21.252 352.658 21.196C352.858 21.14 353.03 21.06 353.174 20.956C353.318 20.844 353.43 20.712 353.51 20.56C353.598 20.4 353.642 20.22 353.642 20.02V17.716C353.642 17.548 353.598 17.392 353.51 17.248C353.43 17.096 353.318 16.968 353.174 16.864C353.03 16.76 352.858 16.68 352.658 16.624C352.466 16.56 352.262 16.528 352.046 16.528C351.502 16.528 351.074 16.7 350.762 17.044C350.45 17.38 350.294 17.824 350.294 18.376V19.432C350.294 19.984 350.45 20.432 350.762 20.776C351.074 21.112 351.502 21.28 352.046 21.28ZM359.291 22.144C358.867 22.144 358.483 22.068 358.139 21.916C357.803 21.764 357.511 21.548 357.263 21.268C357.023 20.98 356.835 20.64 356.699 20.248C356.571 19.848 356.507 19.4 356.507 18.904C356.507 18.416 356.571 17.972 356.699 17.572C356.835 17.172 357.023 16.832 357.263 16.552C357.511 16.264 357.803 16.044 358.139 15.892C358.483 15.74 358.867 15.664 359.291 15.664C359.707 15.664 360.079 15.74 360.407 15.892C360.735 16.044 361.015 16.256 361.247 16.528C361.479 16.792 361.655 17.108 361.775 17.476C361.903 17.844 361.967 18.248 361.967 18.688V19.144H357.515V19.432C357.515 19.696 357.555 19.944 357.635 20.176C357.723 20.4 357.843 20.596 357.995 20.764C358.155 20.932 358.347 21.064 358.571 21.16C358.803 21.256 359.063 21.304 359.351 21.304C359.743 21.304 360.083 21.212 360.371 21.028C360.667 20.844 360.895 20.58 361.055 20.236L361.739 20.728C361.539 21.152 361.227 21.496 360.803 21.76C360.379 22.016 359.875 22.144 359.291 22.144ZM359.291 16.468C359.027 16.468 358.787 16.516 358.571 16.612C358.355 16.7 358.167 16.828 358.007 16.996C357.855 17.164 357.735 17.364 357.647 17.596C357.559 17.82 357.515 18.068 357.515 18.34V18.424H360.935V18.292C360.935 17.74 360.783 17.3 360.479 16.972C360.183 16.636 359.787 16.468 359.291 16.468Z" fill="black"/>
<path d="M17.116 22V13.624H20.452C21.204 13.624 21.78 13.84 22.18 14.272C22.588 14.696 22.792 15.28 22.792 16.024C22.792 16.768 22.588 17.356 22.18 17.788C21.78 18.212 21.204 18.424 20.452 18.424H18.124V22H17.116ZM18.124 17.536H20.452C20.852 17.536 21.16 17.432 21.376 17.224C21.6 17.016 21.712 16.72 21.712 16.336V15.712C21.712 15.328 21.6 15.032 21.376 14.824C21.16 14.616 20.852 14.512 20.452 14.512H18.124V17.536ZM24.5002 22V15.808H25.4602V16.948H25.5202C25.6322 16.652 25.8322 16.388 26.1202 16.156C26.4082 15.924 26.8042 15.808 27.3082 15.808H27.6802V16.768H27.1162C26.5962 16.768 26.1882 16.868 25.8922 17.068C25.6042 17.26 25.4602 17.504 25.4602 17.8V22H24.5002ZM31.5078 22.144C31.0918 22.144 30.7118 22.068 30.3678 21.916C30.0238 21.764 29.7278 21.548 29.4798 21.268C29.2398 20.98 29.0518 20.64 28.9158 20.248C28.7798 19.848 28.7118 19.4 28.7118 18.904C28.7118 18.416 28.7798 17.972 28.9158 17.572C29.0518 17.172 29.2398 16.832 29.4798 16.552C29.7278 16.264 30.0238 16.044 30.3678 15.892C30.7118 15.74 31.0918 15.664 31.5078 15.664C31.9238 15.664 32.2998 15.74 32.6358 15.892C32.9798 16.044 33.2758 16.264 33.5238 16.552C33.7718 16.832 33.9638 17.172 34.0998 17.572C34.2358 17.972 34.3038 18.416 34.3038 18.904C34.3038 19.4 34.2358 19.848 34.0998 20.248C33.9638 20.64 33.7718 20.98 33.5238 21.268C33.2758 21.548 32.9798 21.764 32.6358 21.916C32.2998 22.068 31.9238 22.144 31.5078 22.144ZM31.5078 21.292C32.0278 21.292 32.4518 21.132 32.7798 20.812C33.1078 20.492 33.2718 20.004 33.2718 19.348V18.46C33.2718 17.804 33.1078 17.316 32.7798 16.996C32.4518 16.676 32.0278 16.516 31.5078 16.516C30.9878 16.516 30.5638 16.676 30.2358 16.996C29.9078 17.316 29.7438 17.804 29.7438 18.46V19.348C29.7438 20.004 29.9078 20.492 30.2358 20.812C30.5638 21.132 30.9878 21.292 31.5078 21.292ZM36.2027 13.12H37.1627V16.816H37.2107C37.3707 16.424 37.6027 16.136 37.9067 15.952C38.2187 15.76 38.5907 15.664 39.0227 15.664C39.4067 15.664 39.7547 15.74 40.0667 15.892C40.3787 16.044 40.6427 16.26 40.8587 16.54C41.0827 16.82 41.2507 17.16 41.3627 17.56C41.4827 17.96 41.5427 18.408 41.5427 18.904C41.5427 19.4 41.4827 19.848 41.3627 20.248C41.2507 20.648 41.0827 20.988 40.8587 21.268C40.6427 21.548 40.3787 21.764 40.0667 21.916C39.7547 22.068 39.4067 22.144 39.0227 22.144C38.1827 22.144 37.5787 21.76 37.2107 20.992H37.1627V22H36.2027V13.12ZM38.7587 21.28C39.3027 21.28 39.7307 21.112 40.0427 20.776C40.3547 20.432 40.5107 19.984 40.5107 19.432V18.376C40.5107 17.824 40.3547 17.38 40.0427 17.044C39.7307 16.7 39.3027 16.528 38.7587 16.528C38.5427 16.528 38.3347 16.56 38.1347 16.624C37.9427 16.68 37.7747 16.76 37.6307 16.864C37.4867 16.968 37.3707 17.096 37.2827 17.248C37.2027 17.392 37.1627 17.548 37.1627 17.716V20.02C37.1627 20.22 37.2027 20.4 37.2827 20.56C37.3707 20.712 37.4867 20.844 37.6307 20.956C37.7747 21.06 37.9427 21.14 38.1347 21.196C38.3347 21.252 38.5427 21.28 38.7587 21.28ZM47.9836 22C47.6236 22 47.3636 21.904 47.2036 21.712C47.0516 21.52 46.9556 21.28 46.9156 20.992H46.8556C46.7196 21.376 46.4956 21.664 46.1836 21.856C45.8716 22.048 45.4996 22.144 45.0676 22.144C44.4116 22.144 43.8996 21.976 43.5316 21.64C43.1716 21.304 42.9916 20.848 42.9916 20.272C42.9916 19.688 43.2036 19.24 43.6276 18.928C44.0596 18.616 44.7276 18.46 45.6316 18.46H46.8556V17.848C46.8556 17.408 46.7356 17.072 46.4956 16.84C46.2556 16.608 45.8876 16.492 45.3916 16.492C45.0156 16.492 44.6996 16.576 44.4436 16.744C44.1956 16.912 43.9876 17.136 43.8196 17.416L43.2436 16.876C43.4116 16.54 43.6796 16.256 44.0476 16.024C44.4156 15.784 44.8796 15.664 45.4396 15.664C46.1916 15.664 46.7756 15.848 47.1916 16.216C47.6076 16.584 47.8156 17.096 47.8156 17.752V21.16H48.5236V22H47.9836ZM45.2236 21.328C45.4636 21.328 45.6836 21.3 45.8836 21.244C46.0836 21.188 46.2556 21.108 46.3996 21.004C46.5436 20.9 46.6556 20.78 46.7356 20.644C46.8156 20.508 46.8556 20.36 46.8556 20.2V19.18H45.5836C45.0316 19.18 44.6276 19.26 44.3716 19.42C44.1236 19.58 43.9996 19.812 43.9996 20.116V20.368C43.9996 20.672 44.1076 20.908 44.3236 21.076C44.5476 21.244 44.8476 21.328 45.2236 21.328ZM50.2137 13.12H51.1737V16.816H51.2217C51.3817 16.424 51.6137 16.136 51.9177 15.952C52.2297 15.76 52.6017 15.664 53.0337 15.664C53.4177 15.664 53.7657 15.74 54.0777 15.892C54.3897 16.044 54.6537 16.26 54.8697 16.54C55.0937 16.82 55.2617 17.16 55.3737 17.56C55.4937 17.96 55.5537 18.408 55.5537 18.904C55.5537 19.4 55.4937 19.848 55.3737 20.248C55.2617 20.648 55.0937 20.988 54.8697 21.268C54.6537 21.548 54.3897 21.764 54.0777 21.916C53.7657 22.068 53.4177 22.144 53.0337 22.144C52.1937 22.144 51.5897 21.76 51.2217 20.992H51.1737V22H50.2137V13.12ZM52.7697 21.28C53.3137 21.28 53.7417 21.112 54.0537 20.776C54.3657 20.432 54.5217 19.984 54.5217 19.432V18.376C54.5217 17.824 54.3657 17.38 54.0537 17.044C53.7417 16.7 53.3137 16.528 52.7697 16.528C52.5537 16.528 52.3457 16.56 52.1457 16.624C51.9537 16.68 51.7857 16.76 51.6417 16.864C51.4977 16.968 51.3817 17.096 51.2937 17.248C51.2137 17.392 51.1737 17.548 51.1737 17.716V20.02C51.1737 20.22 51.2137 20.4 51.2937 20.56C51.3817 20.712 51.4977 20.844 51.6417 20.956C51.7857 21.06 51.9537 21.14 52.1457 21.196C52.3457 21.252 52.5537 21.28 52.7697 21.28ZM57.9747 14.356C57.7667 14.356 57.6147 14.308 57.5187 14.212C57.4307 14.108 57.3867 13.976 57.3867 13.816V13.66C57.3867 13.5 57.4307 13.372 57.5187 13.276C57.6147 13.172 57.7667 13.12 57.9747 13.12C58.1827 13.12 58.3307 13.172 58.4187 13.276C58.5147 13.372 58.5627 13.5 58.5627 13.66V13.816C58.5627 13.976 58.5147 14.108 58.4187 14.212C58.3307 14.308 58.1827 14.356 57.9747 14.356ZM57.4947 15.808H58.4547V22H57.4947V15.808ZM61.8347 22C61.4987 22 61.2427 21.908 61.0667 21.724C60.8987 21.532 60.8147 21.292 60.8147 21.004V13.12H61.7747V21.16H62.6867V22H61.8347ZM64.8842 14.356C64.6762 14.356 64.5242 14.308 64.4282 14.212C64.3402 14.108 64.2962 13.976 64.2962 13.816V13.66C64.2962 13.5 64.3402 13.372 64.4282 13.276C64.5242 13.172 64.6762 13.12 64.8842 13.12C65.0922 13.12 65.2402 13.172 65.3282 13.276C65.4242 13.372 65.4722 13.5 65.4722 13.66V13.816C65.4722 13.976 65.4242 14.108 65.3282 14.212C65.2402 14.308 65.0922 14.356 64.8842 14.356ZM64.4042 15.808H65.3642V22H64.4042V15.808ZM69.0922 22C68.7562 22 68.5002 21.908 68.3242 21.724C68.1562 21.532 68.0722 21.284 68.0722 20.98V16.648H67.0522V15.808H67.6282C67.8362 15.808 67.9762 15.768 68.0482 15.688C68.1282 15.6 68.1682 15.452 68.1682 15.244V14.092H69.0322V15.808H70.3882V16.648H69.0322V21.16H70.2922V22H69.0922ZM76.0673 15.808H77.0153L74.2433 23.44C74.1713 23.624 74.0993 23.776 74.0273 23.896C73.9553 24.024 73.8673 24.124 73.7633 24.196C73.6593 24.268 73.5273 24.32 73.3673 24.352C73.2153 24.384 73.0273 24.4 72.8033 24.4H72.3113V23.56H73.2833L73.7513 22.24L71.4353 15.808H72.3953L73.8833 20.02L74.1713 21.028H74.2313L74.5673 20.02L76.0673 15.808Z" fill="black"/>
<line y1="0.5" x2="384" y2="0.5" stroke="#C1C7CD"/>
<line y1="240.5" x2="384" y2="240.5" stroke="#C1C7CD"/>
<line x1="176.5" y1="1" x2="176.5" y2="241" stroke="#C1C7CD"/>
<line x1="384.5" y1="1" x2="384.5" y2="241" stroke="#C1C7CD"/>
<line x1="0.5" y1="1" x2="0.5" y2="241" stroke="#C1C7CD"/>
<path d="M111.646 106.646C111.451 106.842 111.451 107.158 111.646 107.354L114.828 110.536C115.024 110.731 115.34 110.731 115.536 110.536C115.731 110.34 115.731 110.024 115.536 109.828L112.707 107L115.536 104.172C115.731 103.976 115.731 103.66 115.536 103.464C115.34 103.269 115.024 103.269 114.828 103.464L111.646 106.646ZM241 106.5L112 106.5V107.5L241 107.5V106.5Z" fill="black"/>
<path d="M211.789 88.12C211.309 88.12 210.906 88.03 210.579 87.85C210.259 87.6633 209.983 87.4167 209.749 87.11L210.319 86.65C210.519 86.9033 210.743 87.1 210.989 87.24C211.236 87.3733 211.523 87.44 211.849 87.44C212.189 87.44 212.453 87.3667 212.639 87.22C212.833 87.0733 212.929 86.8667 212.929 86.6C212.929 86.4 212.863 86.23 212.729 86.09C212.603 85.9433 212.369 85.8433 212.029 85.79L211.619 85.73C211.379 85.6967 211.159 85.6467 210.959 85.58C210.759 85.5067 210.583 85.4133 210.429 85.3C210.283 85.18 210.166 85.0333 210.079 84.86C209.999 84.6867 209.959 84.48 209.959 84.24C209.959 83.9867 210.006 83.7667 210.099 83.58C210.193 83.3867 210.319 83.2267 210.479 83.1C210.646 82.9733 210.843 82.88 211.069 82.82C211.296 82.7533 211.539 82.72 211.799 82.72C212.219 82.72 212.569 82.7933 212.849 82.94C213.136 83.0867 213.386 83.29 213.599 83.55L213.069 84.03C212.956 83.87 212.789 83.7267 212.569 83.6C212.349 83.4667 212.073 83.4 211.739 83.4C211.406 83.4 211.153 83.4733 210.979 83.62C210.813 83.76 210.729 83.9533 210.729 84.2C210.729 84.4533 210.813 84.6367 210.979 84.75C211.153 84.8633 211.399 84.9467 211.719 85L212.119 85.06C212.693 85.1467 213.099 85.3133 213.339 85.56C213.579 85.8 213.699 86.1167 213.699 86.51C213.699 87.01 213.529 87.4033 213.189 87.69C212.849 87.9767 212.383 88.12 211.789 88.12ZM218.573 87.16H218.533C218.219 87.8 217.716 88.12 217.023 88.12C216.703 88.12 216.413 88.0567 216.153 87.93C215.893 87.8033 215.669 87.6233 215.483 87.39C215.303 87.1567 215.163 86.8733 215.063 86.54C214.969 86.2067 214.923 85.8333 214.923 85.42C214.923 85.0067 214.969 84.6333 215.063 84.3C215.163 83.9667 215.303 83.6833 215.483 83.45C215.669 83.2167 215.893 83.0367 216.153 82.91C216.413 82.7833 216.703 82.72 217.023 82.72C217.383 82.72 217.689 82.8 217.943 82.96C218.203 83.1133 218.399 83.3533 218.533 83.68H218.573V82.84H219.373V90H218.573V87.16ZM217.243 87.4C217.423 87.4 217.593 87.3767 217.753 87.33C217.919 87.2833 218.063 87.2167 218.183 87.13C218.303 87.0367 218.396 86.9267 218.463 86.8C218.536 86.6667 218.573 86.5167 218.573 86.35V84.43C218.573 84.29 218.536 84.16 218.463 84.04C218.396 83.9133 218.303 83.8067 218.183 83.72C218.063 83.6333 217.919 83.5667 217.753 83.52C217.593 83.4667 217.423 83.44 217.243 83.44C216.789 83.44 216.433 83.5833 216.173 83.87C215.913 84.15 215.783 84.52 215.783 84.98V85.86C215.783 86.32 215.913 86.6933 216.173 86.98C216.433 87.26 216.789 87.4 217.243 87.4ZM224.413 87.16H224.373C224.32 87.28 224.253 87.4 224.173 87.52C224.1 87.6333 224.007 87.7367 223.893 87.83C223.78 87.9167 223.643 87.9867 223.483 88.04C223.323 88.0933 223.137 88.12 222.923 88.12C222.39 88.12 221.967 87.95 221.653 87.61C221.34 87.2633 221.183 86.7767 221.183 86.15V82.84H221.983V86.01C221.983 86.9367 222.377 87.4 223.163 87.4C223.323 87.4 223.477 87.38 223.623 87.34C223.777 87.3 223.91 87.24 224.023 87.16C224.143 87.08 224.237 86.98 224.303 86.86C224.377 86.7333 224.413 86.5833 224.413 86.41V82.84H225.213V88H224.413V87.16ZM230.827 88C230.527 88 230.31 87.92 230.177 87.76C230.05 87.6 229.97 87.4 229.937 87.16H229.887C229.774 87.48 229.587 87.72 229.327 87.88C229.067 88.04 228.757 88.12 228.397 88.12C227.85 88.12 227.424 87.98 227.117 87.7C226.817 87.42 226.667 87.04 226.667 86.56C226.667 86.0733 226.844 85.7 227.197 85.44C227.557 85.18 228.114 85.05 228.867 85.05H229.887V84.54C229.887 84.1733 229.787 83.8933 229.587 83.7C229.387 83.5067 229.08 83.41 228.667 83.41C228.354 83.41 228.09 83.48 227.877 83.62C227.67 83.76 227.497 83.9467 227.357 84.18L226.877 83.73C227.017 83.45 227.24 83.2133 227.547 83.02C227.854 82.82 228.24 82.72 228.707 82.72C229.334 82.72 229.82 82.8733 230.167 83.18C230.514 83.4867 230.687 83.9133 230.687 84.46V87.3H231.277V88H230.827ZM228.527 87.44C228.727 87.44 228.91 87.4167 229.077 87.37C229.244 87.3233 229.387 87.2567 229.507 87.17C229.627 87.0833 229.72 86.9833 229.787 86.87C229.854 86.7567 229.887 86.6333 229.887 86.5V85.65H228.827C228.367 85.65 228.03 85.7167 227.817 85.85C227.61 85.9833 227.507 86.1767 227.507 86.43V86.64C227.507 86.8933 227.597 87.09 227.777 87.23C227.964 87.37 228.214 87.44 228.527 87.44ZM232.579 88V82.84H233.379V83.79H233.429C233.522 83.5433 233.689 83.3233 233.929 83.13C234.169 82.9367 234.499 82.84 234.919 82.84H235.229V83.64H234.759C234.325 83.64 233.985 83.7233 233.739 83.89C233.499 84.05 233.379 84.2533 233.379 84.5V88H232.579ZM238.302 88.12C237.948 88.12 237.628 88.0567 237.342 87.93C237.062 87.8033 236.818 87.6233 236.612 87.39C236.412 87.15 236.255 86.8667 236.142 86.54C236.035 86.2067 235.982 85.8333 235.982 85.42C235.982 85.0133 236.035 84.6433 236.142 84.31C236.255 83.9767 236.412 83.6933 236.612 83.46C236.818 83.22 237.062 83.0367 237.342 82.91C237.628 82.7833 237.948 82.72 238.302 82.72C238.648 82.72 238.958 82.7833 239.232 82.91C239.505 83.0367 239.738 83.2133 239.932 83.44C240.125 83.66 240.272 83.9233 240.372 84.23C240.478 84.5367 240.532 84.8733 240.532 85.24V85.62H236.822V85.86C236.822 86.08 236.855 86.2867 236.922 86.48C236.995 86.6667 237.095 86.83 237.222 86.97C237.355 87.11 237.515 87.22 237.702 87.3C237.895 87.38 238.112 87.42 238.352 87.42C238.678 87.42 238.962 87.3433 239.202 87.19C239.448 87.0367 239.638 86.8167 239.772 86.53L240.342 86.94C240.175 87.2933 239.915 87.58 239.562 87.8C239.208 88.0133 238.788 88.12 238.302 88.12ZM238.302 83.39C238.082 83.39 237.882 83.43 237.702 83.51C237.522 83.5833 237.365 83.69 237.232 83.83C237.105 83.97 237.005 84.1367 236.932 84.33C236.858 84.5167 236.822 84.7233 236.822 84.95V85.02H239.672V84.91C239.672 84.45 239.545 84.0833 239.292 83.81C239.045 83.53 238.715 83.39 238.302 83.39ZM192.552 100V94.84H193.352V95.68H193.392C193.452 95.5467 193.519 95.4233 193.592 95.31C193.672 95.19 193.766 95.0867 193.872 95C193.986 94.9133 194.116 94.8467 194.262 94.8C194.409 94.7467 194.582 94.72 194.782 94.72C195.122 94.72 195.436 94.8033 195.722 94.97C196.009 95.13 196.222 95.3967 196.362 95.77H196.382C196.476 95.49 196.649 95.2467 196.902 95.04C197.162 94.8267 197.512 94.72 197.952 94.72C198.479 94.72 198.889 94.8933 199.182 95.24C199.482 95.58 199.632 96.0633 199.632 96.69V100H198.832V96.83C198.832 96.37 198.742 96.0233 198.562 95.79C198.382 95.5567 198.096 95.44 197.702 95.44C197.542 95.44 197.389 95.46 197.242 95.5C197.102 95.54 196.976 95.6 196.862 95.68C196.749 95.76 196.659 95.8633 196.592 95.99C196.526 96.11 196.492 96.2533 196.492 96.42V100H195.692V96.83C195.692 96.37 195.602 96.0233 195.422 95.79C195.242 95.5567 194.962 95.44 194.582 95.44C194.422 95.44 194.269 95.46 194.122 95.5C193.976 95.54 193.846 95.6 193.732 95.68C193.619 95.76 193.526 95.8633 193.452 95.99C193.386 96.11 193.352 96.2533 193.352 96.42V100H192.552ZM205.193 100C204.893 100 204.676 99.92 204.543 99.76C204.416 99.6 204.336 99.4 204.303 99.16H204.253C204.14 99.48 203.953 99.72 203.693 99.88C203.433 100.04 203.123 100.12 202.763 100.12C202.216 100.12 201.79 99.98 201.483 99.7C201.183 99.42 201.033 99.04 201.033 98.56C201.033 98.0733 201.21 97.7 201.563 97.44C201.923 97.18 202.48 97.05 203.233 97.05H204.253V96.54C204.253 96.1733 204.153 95.8933 203.953 95.7C203.753 95.5067 203.446 95.41 203.033 95.41C202.72 95.41 202.456 95.48 202.243 95.62C202.036 95.76 201.863 95.9467 201.723 96.18L201.243 95.73C201.383 95.45 201.606 95.2133 201.913 95.02C202.22 94.82 202.606 94.72 203.073 94.72C203.7 94.72 204.186 94.8733 204.533 95.18C204.88 95.4867 205.053 95.9133 205.053 96.46V99.3H205.643V100H205.193ZM202.893 99.44C203.093 99.44 203.276 99.4167 203.443 99.37C203.61 99.3233 203.753 99.2567 203.873 99.17C203.993 99.0833 204.086 98.9833 204.153 98.87C204.22 98.7567 204.253 98.6333 204.253 98.5V97.65H203.193C202.733 97.65 202.396 97.7167 202.183 97.85C201.976 97.9833 201.873 98.1767 201.873 98.43V98.64C201.873 98.8933 201.963 99.09 202.143 99.23C202.33 99.37 202.58 99.44 202.893 99.44ZM211.295 100.57C211.295 101.103 211.085 101.493 210.665 101.74C210.251 101.993 209.628 102.12 208.795 102.12C207.988 102.12 207.408 102.01 207.055 101.79C206.701 101.57 206.525 101.257 206.525 100.85C206.525 100.57 206.598 100.35 206.745 100.19C206.891 100.037 207.091 99.9233 207.345 99.85V99.74C207.038 99.5933 206.885 99.3533 206.885 99.02C206.885 98.76 206.968 98.5633 207.135 98.43C207.301 98.29 207.515 98.1867 207.775 98.12V98.08C207.468 97.9333 207.228 97.7233 207.055 97.45C206.888 97.1767 206.805 96.86 206.805 96.5C206.805 96.24 206.851 96 206.945 95.78C207.038 95.56 207.168 95.3733 207.335 95.22C207.508 95.06 207.711 94.9367 207.945 94.85C208.185 94.7633 208.451 94.72 208.745 94.72C209.111 94.72 209.438 94.7867 209.725 94.92V94.83C209.725 94.63 209.771 94.4667 209.865 94.34C209.958 94.2067 210.111 94.14 210.325 94.14H211.095V94.84H210.115V95.17C210.301 95.33 210.445 95.5233 210.545 95.75C210.651 95.97 210.705 96.22 210.705 96.5C210.705 96.76 210.658 97 210.565 97.22C210.471 97.44 210.338 97.63 210.165 97.79C209.998 97.9433 209.795 98.0633 209.555 98.15C209.315 98.2367 209.048 98.28 208.755 98.28C208.588 98.28 208.421 98.2633 208.255 98.23C208.081 98.2767 207.925 98.3467 207.785 98.44C207.645 98.5267 207.575 98.65 207.575 98.81C207.575 98.9633 207.648 99.0667 207.795 99.12C207.941 99.1733 208.131 99.2 208.365 99.2H209.465C210.105 99.2 210.568 99.3233 210.855 99.57C211.148 99.81 211.295 100.143 211.295 100.57ZM210.545 100.63C210.545 100.423 210.465 100.257 210.305 100.13C210.151 100.01 209.875 99.95 209.475 99.95H207.755C207.435 100.097 207.275 100.33 207.275 100.65C207.275 100.877 207.358 101.07 207.525 101.23C207.698 101.39 207.988 101.47 208.395 101.47H209.135C209.581 101.47 209.928 101.4 210.175 101.26C210.421 101.12 210.545 100.91 210.545 100.63ZM208.755 97.64C209.095 97.64 209.365 97.56 209.565 97.4C209.765 97.2333 209.865 96.98 209.865 96.64V96.36C209.865 96.02 209.765 95.77 209.565 95.61C209.365 95.4433 209.095 95.36 208.755 95.36C208.415 95.36 208.145 95.4433 207.945 95.61C207.745 95.77 207.645 96.02 207.645 96.36V96.64C207.645 96.98 207.745 97.2333 207.945 97.4C208.145 97.56 208.415 97.64 208.755 97.64ZM212.388 100V94.84H213.188V95.68H213.228C213.355 95.3867 213.531 95.1533 213.758 94.98C213.991 94.8067 214.301 94.72 214.688 94.72C215.221 94.72 215.641 94.8933 215.948 95.24C216.261 95.58 216.418 96.0633 216.418 96.69V100H215.618V96.83C215.618 95.9033 215.228 95.44 214.448 95.44C214.288 95.44 214.131 95.46 213.978 95.5C213.831 95.54 213.698 95.6 213.578 95.68C213.458 95.76 213.361 95.8633 213.288 95.99C213.221 96.11 213.188 96.2533 213.188 96.42V100H212.388ZM218.631 93.63C218.458 93.63 218.331 93.59 218.251 93.51C218.178 93.4233 218.141 93.3133 218.141 93.18V93.05C218.141 92.9167 218.178 92.81 218.251 92.73C218.331 92.6433 218.458 92.6 218.631 92.6C218.805 92.6 218.928 92.6433 219.001 92.73C219.081 92.81 219.121 92.9167 219.121 93.05V93.18C219.121 93.3133 219.081 93.4233 219.001 93.51C218.928 93.59 218.805 93.63 218.631 93.63ZM218.231 94.84H219.031V100H218.231V94.84ZM222.031 100C221.751 100 221.538 99.9233 221.391 99.77C221.251 99.61 221.181 99.4033 221.181 99.15V95.54H220.331V94.84H220.811C220.985 94.84 221.101 94.8067 221.161 94.74C221.228 94.6667 221.261 94.5433 221.261 94.37V93.41H221.981V94.84H223.111V95.54H221.981V99.3H223.031V100H222.031ZM227.737 99.16H227.697C227.644 99.28 227.577 99.4 227.497 99.52C227.424 99.6333 227.331 99.7367 227.217 99.83C227.104 99.9167 226.967 99.9867 226.807 100.04C226.647 100.093 226.461 100.12 226.247 100.12C225.714 100.12 225.291 99.95 224.977 99.61C224.664 99.2633 224.507 98.7767 224.507 98.15V94.84H225.307V98.01C225.307 98.9367 225.701 99.4 226.487 99.4C226.647 99.4 226.801 99.38 226.947 99.34C227.101 99.3 227.234 99.24 227.347 99.16C227.467 99.08 227.561 98.98 227.627 98.86C227.701 98.7333 227.737 98.5833 227.737 98.41V94.84H228.537V100H227.737V99.16ZM233.701 99.16H233.661C233.348 99.8 232.844 100.12 232.151 100.12C231.831 100.12 231.541 100.057 231.281 99.93C231.021 99.8033 230.798 99.6233 230.611 99.39C230.431 99.1567 230.291 98.8733 230.191 98.54C230.098 98.2067 230.051 97.8333 230.051 97.42C230.051 97.0067 230.098 96.6333 230.191 96.3C230.291 95.9667 230.431 95.6833 230.611 95.45C230.798 95.2167 231.021 95.0367 231.281 94.91C231.541 94.7833 231.831 94.72 232.151 94.72C232.511 94.72 232.818 94.8 233.071 94.96C233.331 95.1133 233.528 95.3533 233.661 95.68H233.701V92.6H234.501V100H233.701V99.16ZM232.371 99.4C232.551 99.4 232.721 99.3767 232.881 99.33C233.048 99.2833 233.191 99.2167 233.311 99.13C233.431 99.0367 233.524 98.9267 233.591 98.8C233.664 98.6667 233.701 98.5167 233.701 98.35V96.43C233.701 96.29 233.664 96.16 233.591 96.04C233.524 95.9133 233.431 95.8067 233.311 95.72C233.191 95.6333 233.048 95.5667 232.881 95.52C232.721 95.4667 232.551 95.44 232.371 95.44C231.918 95.44 231.561 95.5833 231.301 95.87C231.041 96.15 230.911 96.52 230.911 96.98V97.86C230.911 98.32 231.041 98.6933 231.301 98.98C231.561 99.26 231.918 99.4 232.371 99.4ZM238.302 100.12C237.948 100.12 237.628 100.057 237.342 99.93C237.062 99.8033 236.818 99.6233 236.612 99.39C236.412 99.15 236.255 98.8667 236.142 98.54C236.035 98.2067 235.982 97.8333 235.982 97.42C235.982 97.0133 236.035 96.6433 236.142 96.31C236.255 95.9767 236.412 95.6933 236.612 95.46C236.818 95.22 237.062 95.0367 237.342 94.91C237.628 94.7833 237.948 94.72 238.302 94.72C238.648 94.72 238.958 94.7833 239.232 94.91C239.505 95.0367 239.738 95.2133 239.932 95.44C240.125 95.66 240.272 95.9233 240.372 96.23C240.478 96.5367 240.532 96.8733 240.532 97.24V97.62H236.822V97.86C236.822 98.08 236.855 98.2867 236.922 98.48C236.995 98.6667 237.095 98.83 237.222 98.97C237.355 99.11 237.515 99.22 237.702 99.3C237.895 99.38 238.112 99.42 238.352 99.42C238.678 99.42 238.962 99.3433 239.202 99.19C239.448 99.0367 239.638 98.8167 239.772 98.53L240.342 98.94C240.175 99.2933 239.915 99.58 239.562 99.8C239.208 100.013 238.788 100.12 238.302 100.12ZM238.302 95.39C238.082 95.39 237.882 95.43 237.702 95.51C237.522 95.5833 237.365 95.69 237.232 95.83C237.105 95.97 237.005 96.1367 236.932 96.33C236.858 96.5167 236.822 96.7233 236.822 96.95V97.02H239.672V96.91C239.672 96.45 239.545 96.0833 239.292 95.81C239.045 95.53 238.715 95.39 238.302 95.39Z" fill="black"/>
</svg>
