<svg width="1198" height="1027" viewBox="0 0 1198 1027" fill="none" xmlns="http://www.w3.org/2000/svg">
<rect x="1.5" y="2.5" width="552" height="361" fill="white" stroke="black" stroke-width="3"/>
<path d="M24 274H90.4697L137.731 202H327L374 274H411.5H438.235L481 202H532" stroke="black" stroke-width="3"/>
<line x1="111.5" y1="114" x2="111.5" y2="327" stroke="black" stroke-width="3" stroke-dasharray="15 15"/>
<line x1="228.5" y1="114" x2="228.5" y2="327" stroke="black" stroke-width="3" stroke-dasharray="15 15"/>
<line x1="347.5" y1="114" x2="347.5" y2="327" stroke="black" stroke-width="3" stroke-dasharray="15 15"/>
<line x1="465.5" y1="114" x2="465.5" y2="327" stroke="black" stroke-width="3" stroke-dasharray="15 15"/>
<path d="M113.086 74H108.727V45.1016L99.9844 48.3125V44.375L112.406 39.7109H113.086V74Z" fill="black"/>
<path d="M349.086 74H344.727V45.1016L335.984 48.3125V44.375L348.406 39.7109H349.086V74Z" fill="black"/>
<path d="M238.234 59.4453C238.234 64.5234 237.367 68.2969 235.633 70.7656C233.898 73.2344 231.188 74.4688 227.5 74.4688C223.859 74.4688 221.164 73.2656 219.414 70.8594C217.664 68.4375 216.758 64.8281 216.695 60.0312V54.2422C216.695 49.2266 217.562 45.5 219.297 43.0625C221.031 40.625 223.75 39.4062 227.453 39.4062C231.125 39.4062 233.828 40.5859 235.562 42.9453C237.297 45.2891 238.188 48.9141 238.234 53.8203V59.4453ZM233.898 53.5156C233.898 49.8438 233.383 47.1719 232.352 45.5C231.32 43.8125 229.688 42.9688 227.453 42.9688C225.234 42.9688 223.617 43.8047 222.602 45.4766C221.586 47.1484 221.062 49.7188 221.031 53.1875V60.125C221.031 63.8125 221.562 66.5391 222.625 68.3047C223.703 70.0547 225.328 70.9297 227.5 70.9297C229.641 70.9297 231.227 70.1016 232.258 68.4453C233.305 66.7891 233.852 64.1797 233.898 60.6172V53.5156Z" fill="black"/>
<path d="M467.086 74H462.727V45.1016L453.984 48.3125V44.375L466.406 39.7109H467.086V74Z" fill="black"/>
<path d="M1196.5 677C1196.5 869.469 1040.25 1025.5 847.5 1025.5C654.751 1025.5 498.5 869.469 498.5 677C498.5 484.531 654.751 328.5 847.5 328.5C1040.25 328.5 1196.5 484.531 1196.5 677Z" fill="#C4C4C4" stroke="black" stroke-width="3"/>
<circle cx="848" cy="677" r="81.5" fill="white" stroke="black" stroke-width="3"/>
<line x1="0.546136" y1="363.603" x2="683.546" y2="630.603" stroke="black" stroke-width="3"/>
<line x1="556.47" y1="0.701795" x2="684.47" y2="631.702" stroke="black" stroke-width="3"/>
</svg>
