<svg width="385" height="241" viewBox="0 0 385 241" fill="none" xmlns="http://www.w3.org/2000/svg">
<path d="M79.644 187.944H79.584L78.876 189.348L76.872 192.996L74.868 189.348L74.16 187.944H74.1V195H73.116V186.624H74.46L76.86 191.136H76.92L79.332 186.624H80.628V195H79.644V187.944ZM87.4183 195C87.0583 195 86.7983 194.904 86.6383 194.712C86.4863 194.52 86.3903 194.28 86.3503 193.992H86.2903C86.1543 194.376 85.9303 194.664 85.6183 194.856C85.3063 195.048 84.9343 195.144 84.5023 195.144C83.8463 195.144 83.3343 194.976 82.9663 194.64C82.6063 194.304 82.4263 193.848 82.4263 193.272C82.4263 192.688 82.6383 192.24 83.0623 191.928C83.4943 191.616 84.1623 191.46 85.0663 191.46H86.2903V190.848C86.2903 190.408 86.1703 190.072 85.9303 189.84C85.6903 189.608 85.3223 189.492 84.8263 189.492C84.4503 189.492 84.1343 189.576 83.8783 189.744C83.6303 189.912 83.4223 190.136 83.2543 190.416L82.6783 189.876C82.8463 189.54 83.1143 189.256 83.4823 189.024C83.8503 188.784 84.3143 188.664 84.8743 188.664C85.6263 188.664 86.2103 188.848 86.6263 189.216C87.0423 189.584 87.2503 190.096 87.2503 190.752V194.16H87.9583V195H87.4183ZM84.6583 194.328C84.8983 194.328 85.1183 194.3 85.3183 194.244C85.5183 194.188 85.6903 194.108 85.8343 194.004C85.9783 193.9 86.0903 193.78 86.1703 193.644C86.2503 193.508 86.2903 193.36 86.2903 193.2V192.18H85.0183C84.4663 192.18 84.0623 192.26 83.8063 192.42C83.5583 192.58 83.4343 192.812 83.4343 193.116V193.368C83.4343 193.672 83.5423 193.908 83.7583 194.076C83.9823 194.244 84.2823 194.328 84.6583 194.328ZM94.7084 195.684C94.7084 196.324 94.4564 196.792 93.9524 197.088C93.4564 197.392 92.7084 197.544 91.7084 197.544C90.7404 197.544 90.0444 197.412 89.6204 197.148C89.1964 196.884 88.9844 196.508 88.9844 196.02C88.9844 195.684 89.0724 195.42 89.2484 195.228C89.4244 195.044 89.6644 194.908 89.9684 194.82V194.688C89.6004 194.512 89.4164 194.224 89.4164 193.824C89.4164 193.512 89.5164 193.276 89.7164 193.116C89.9164 192.948 90.1724 192.824 90.4844 192.744V192.696C90.1164 192.52 89.8284 192.268 89.6204 191.94C89.4204 191.612 89.3204 191.232 89.3204 190.8C89.3204 190.488 89.3764 190.2 89.4884 189.936C89.6004 189.672 89.7564 189.448 89.9564 189.264C90.1644 189.072 90.4084 188.924 90.6884 188.82C90.9764 188.716 91.2964 188.664 91.6484 188.664C92.0884 188.664 92.4804 188.744 92.8244 188.904V188.796C92.8244 188.556 92.8804 188.36 92.9924 188.208C93.1044 188.048 93.2884 187.968 93.5444 187.968H94.4684V188.808H93.2924V189.204C93.5164 189.396 93.6884 189.628 93.8084 189.9C93.9364 190.164 94.0004 190.464 94.0004 190.8C94.0004 191.112 93.9444 191.4 93.8324 191.664C93.7204 191.928 93.5604 192.156 93.3524 192.348C93.1524 192.532 92.9084 192.676 92.6204 192.78C92.3324 192.884 92.0124 192.936 91.6604 192.936C91.4604 192.936 91.2604 192.916 91.0604 192.876C90.8524 192.932 90.6644 193.016 90.4964 193.128C90.3284 193.232 90.2444 193.38 90.2444 193.572C90.2444 193.756 90.3324 193.88 90.5084 193.944C90.6844 194.008 90.9124 194.04 91.1924 194.04H92.5124C93.2804 194.04 93.8364 194.188 94.1804 194.484C94.5324 194.772 94.7084 195.172 94.7084 195.684ZM93.8084 195.756C93.8084 195.508 93.7124 195.308 93.5204 195.156C93.3364 195.012 93.0044 194.94 92.5244 194.94H90.4604C90.0764 195.116 89.8844 195.396 89.8844 195.78C89.8844 196.052 89.9844 196.284 90.1844 196.476C90.3924 196.668 90.7404 196.764 91.2284 196.764H92.1164C92.6524 196.764 93.0684 196.68 93.3644 196.512C93.6604 196.344 93.8084 196.092 93.8084 195.756ZM91.6604 192.168C92.0684 192.168 92.3924 192.072 92.6324 191.88C92.8724 191.68 92.9924 191.376 92.9924 190.968V190.632C92.9924 190.224 92.8724 189.924 92.6324 189.732C92.3924 189.532 92.0684 189.432 91.6604 189.432C91.2524 189.432 90.9284 189.532 90.6884 189.732C90.4484 189.924 90.3284 190.224 90.3284 190.632V190.968C90.3284 191.376 90.4484 191.68 90.6884 191.88C90.9284 192.072 91.2524 192.168 91.6604 192.168ZM95.9883 195V188.808H96.9483V189.816H96.9963C97.1483 189.464 97.3603 189.184 97.6323 188.976C97.9123 188.768 98.2843 188.664 98.7483 188.664C99.3883 188.664 99.8923 188.872 100.26 189.288C100.636 189.696 100.824 190.276 100.824 191.028V195H99.8643V191.196C99.8643 190.084 99.3963 189.528 98.4603 189.528C98.2683 189.528 98.0803 189.552 97.8963 189.6C97.7203 189.648 97.5603 189.72 97.4163 189.816C97.2723 189.912 97.1563 190.036 97.0683 190.188C96.9883 190.332 96.9483 190.504 96.9483 190.704V195H95.9883ZM103.449 187.356C103.241 187.356 103.089 187.308 102.993 187.212C102.905 187.108 102.861 186.976 102.861 186.816V186.66C102.861 186.5 102.905 186.372 102.993 186.276C103.089 186.172 103.241 186.12 103.449 186.12C103.657 186.12 103.805 186.172 103.893 186.276C103.989 186.372 104.037 186.5 104.037 186.66V186.816C104.037 186.976 103.989 187.108 103.893 187.212C103.805 187.308 103.657 187.356 103.449 187.356ZM102.969 188.808H103.929V195H102.969V188.808ZM107.497 195C107.161 195 106.905 194.908 106.729 194.724C106.561 194.532 106.477 194.284 106.477 193.98V189.648H105.457V188.808H106.033C106.241 188.808 106.381 188.768 106.453 188.688C106.533 188.6 106.573 188.452 106.573 188.244V187.092H107.437V188.808H108.793V189.648H107.437V194.16H108.697V195H107.497ZM114.312 193.992H114.264C114.2 194.136 114.12 194.28 114.024 194.424C113.936 194.56 113.824 194.684 113.688 194.796C113.552 194.9 113.388 194.984 113.196 195.048C113.004 195.112 112.78 195.144 112.524 195.144C111.884 195.144 111.376 194.94 111 194.532C110.624 194.116 110.436 193.532 110.436 192.78V188.808H111.396V192.612C111.396 193.724 111.868 194.28 112.812 194.28C113.004 194.28 113.188 194.256 113.364 194.208C113.548 194.16 113.708 194.088 113.844 193.992C113.988 193.896 114.1 193.776 114.18 193.632C114.268 193.48 114.312 193.3 114.312 193.092V188.808H115.272V195H114.312V193.992ZM121.436 193.992H121.388C121.012 194.76 120.408 195.144 119.576 195.144C119.192 195.144 118.844 195.068 118.532 194.916C118.22 194.764 117.952 194.548 117.728 194.268C117.512 193.988 117.344 193.648 117.224 193.248C117.112 192.848 117.056 192.4 117.056 191.904C117.056 191.408 117.112 190.96 117.224 190.56C117.344 190.16 117.512 189.82 117.728 189.54C117.952 189.26 118.22 189.044 118.532 188.892C118.844 188.74 119.192 188.664 119.576 188.664C120.008 188.664 120.376 188.76 120.68 188.952C120.992 189.136 121.228 189.424 121.388 189.816H121.436V186.12H122.396V195H121.436V193.992ZM119.84 194.28C120.056 194.28 120.26 194.252 120.452 194.196C120.652 194.14 120.824 194.06 120.968 193.956C121.112 193.844 121.224 193.712 121.304 193.56C121.392 193.4 121.436 193.22 121.436 193.02V190.716C121.436 190.548 121.392 190.392 121.304 190.248C121.224 190.096 121.112 189.968 120.968 189.864C120.824 189.76 120.652 189.68 120.452 189.624C120.26 189.56 120.056 189.528 119.84 189.528C119.296 189.528 118.868 189.7 118.556 190.044C118.244 190.38 118.088 190.824 118.088 191.376V192.432C118.088 192.984 118.244 193.432 118.556 193.776C118.868 194.112 119.296 194.28 119.84 194.28ZM126.925 195.144C126.501 195.144 126.117 195.068 125.773 194.916C125.437 194.764 125.145 194.548 124.897 194.268C124.657 193.98 124.469 193.64 124.333 193.248C124.205 192.848 124.141 192.4 124.141 191.904C124.141 191.416 124.205 190.972 124.333 190.572C124.469 190.172 124.657 189.832 124.897 189.552C125.145 189.264 125.437 189.044 125.773 188.892C126.117 188.74 126.501 188.664 126.925 188.664C127.341 188.664 127.713 188.74 128.041 188.892C128.369 189.044 128.649 189.256 128.881 189.528C129.113 189.792 129.289 190.108 129.409 190.476C129.537 190.844 129.601 191.248 129.601 191.688V192.144H125.149V192.432C125.149 192.696 125.189 192.944 125.269 193.176C125.357 193.4 125.477 193.596 125.629 193.764C125.789 193.932 125.981 194.064 126.205 194.16C126.437 194.256 126.697 194.304 126.985 194.304C127.377 194.304 127.717 194.212 128.005 194.028C128.301 193.844 128.529 193.58 128.689 193.236L129.373 193.728C129.173 194.152 128.861 194.496 128.437 194.76C128.013 195.016 127.509 195.144 126.925 195.144ZM126.925 189.468C126.661 189.468 126.421 189.516 126.205 189.612C125.989 189.7 125.801 189.828 125.641 189.996C125.489 190.164 125.369 190.364 125.281 190.596C125.193 190.82 125.149 191.068 125.149 191.34V191.424H128.569V191.292C128.569 190.74 128.417 190.3 128.113 189.972C127.817 189.636 127.421 189.468 126.925 189.468ZM132.075 195.144C131.819 195.144 131.631 195.08 131.511 194.952C131.399 194.824 131.343 194.656 131.343 194.448V194.292C131.343 194.084 131.399 193.916 131.511 193.788C131.631 193.66 131.819 193.596 132.075 193.596C132.331 193.596 132.515 193.66 132.627 193.788C132.747 193.916 132.807 194.084 132.807 194.292V194.448C132.807 194.656 132.747 194.824 132.627 194.952C132.515 195.08 132.331 195.144 132.075 195.144ZM132.075 190.212C131.819 190.212 131.631 190.148 131.511 190.02C131.399 189.892 131.343 189.724 131.343 189.516V189.36C131.343 189.152 131.399 188.984 131.511 188.856C131.631 188.728 131.819 188.664 132.075 188.664C132.331 188.664 132.515 188.728 132.627 188.856C132.747 188.984 132.807 189.152 132.807 189.36V189.516C132.807 189.724 132.747 189.892 132.627 190.02C132.515 190.148 132.331 190.212 132.075 190.212ZM140.583 195.144C139.583 195.144 138.851 194.764 138.387 194.004C137.931 193.244 137.703 192.18 137.703 190.812C137.703 189.444 137.931 188.38 138.387 187.62C138.851 186.86 139.583 186.48 140.583 186.48C141.583 186.48 142.311 186.86 142.767 187.62C143.231 188.38 143.463 189.444 143.463 190.812C143.463 192.18 143.231 193.244 142.767 194.004C142.311 194.764 141.583 195.144 140.583 195.144ZM140.583 194.268C140.911 194.268 141.191 194.2 141.423 194.064C141.655 193.928 141.843 193.736 141.987 193.488C142.131 193.24 142.235 192.948 142.299 192.612C142.371 192.276 142.407 191.904 142.407 191.496V190.128C142.407 189.72 142.371 189.348 142.299 189.012C142.235 188.676 142.131 188.384 141.987 188.136C141.843 187.888 141.655 187.696 141.423 187.56C141.191 187.424 140.911 187.356 140.583 187.356C140.255 187.356 139.975 187.424 139.743 187.56C139.511 187.696 139.323 187.888 139.179 188.136C139.035 188.384 138.927 188.676 138.855 189.012C138.791 189.348 138.759 189.72 138.759 190.128V191.496C138.759 191.904 138.791 192.276 138.855 192.612C138.927 192.948 139.035 193.24 139.179 193.488C139.323 193.736 139.511 193.928 139.743 194.064C139.975 194.2 140.255 194.268 140.583 194.268ZM145.97 195.144C145.714 195.144 145.526 195.08 145.406 194.952C145.294 194.824 145.238 194.656 145.238 194.448V194.292C145.238 194.084 145.294 193.916 145.406 193.788C145.526 193.66 145.714 193.596 145.97 193.596C146.226 193.596 146.41 193.66 146.522 193.788C146.642 193.916 146.702 194.084 146.702 194.292V194.448C146.702 194.656 146.642 194.824 146.522 194.952C146.41 195.08 146.226 195.144 145.97 195.144ZM151.38 195.144C150.948 195.144 150.556 195.072 150.204 194.928C149.86 194.776 149.564 194.564 149.316 194.292C149.076 194.012 148.892 193.672 148.764 193.272C148.636 192.872 148.572 192.424 148.572 191.928C148.572 191.304 148.664 190.72 148.848 190.176C149.032 189.624 149.268 189.124 149.556 188.676C149.852 188.22 150.176 187.82 150.528 187.476C150.88 187.124 151.224 186.84 151.56 186.624H152.856C152.408 186.952 152.008 187.272 151.656 187.584C151.304 187.896 150.996 188.224 150.732 188.568C150.468 188.904 150.244 189.268 150.06 189.66C149.876 190.044 149.728 190.48 149.616 190.968L149.676 190.992C149.876 190.648 150.132 190.364 150.444 190.14C150.764 189.908 151.18 189.792 151.692 189.792C152.052 189.792 152.384 189.852 152.688 189.972C152.992 190.092 153.252 190.264 153.468 190.488C153.684 190.712 153.852 190.984 153.972 191.304C154.1 191.624 154.164 191.98 154.164 192.372C154.164 192.78 154.096 193.156 153.96 193.5C153.832 193.836 153.644 194.128 153.396 194.376C153.156 194.616 152.864 194.804 152.52 194.94C152.176 195.076 151.796 195.144 151.38 195.144ZM151.368 194.268C151.92 194.268 152.348 194.116 152.652 193.812C152.964 193.508 153.12 193.072 153.12 192.504V192.408C153.12 191.84 152.964 191.404 152.652 191.1C152.348 190.796 151.92 190.644 151.368 190.644C150.816 190.644 150.384 190.796 150.072 191.1C149.768 191.404 149.616 191.84 149.616 192.408V192.504C149.616 193.072 149.768 193.508 150.072 193.812C150.384 194.116 150.816 194.268 151.368 194.268ZM158.735 195.144C158.303 195.144 157.911 195.072 157.559 194.928C157.215 194.776 156.919 194.564 156.671 194.292C156.431 194.012 156.247 193.672 156.119 193.272C155.991 192.872 155.927 192.424 155.927 191.928C155.927 191.304 156.019 190.72 156.203 190.176C156.387 189.624 156.623 189.124 156.911 188.676C157.207 188.22 157.531 187.82 157.883 187.476C158.235 187.124 158.579 186.84 158.915 186.624H160.211C159.763 186.952 159.363 187.272 159.011 187.584C158.659 187.896 158.351 188.224 158.087 188.568C157.823 188.904 157.599 189.268 157.415 189.66C157.231 190.044 157.083 190.48 156.971 190.968L157.031 190.992C157.231 190.648 157.487 190.364 157.799 190.14C158.119 189.908 158.535 189.792 159.047 189.792C159.407 189.792 159.739 189.852 160.043 189.972C160.347 190.092 160.607 190.264 160.823 190.488C161.039 190.712 161.207 190.984 161.327 191.304C161.455 191.624 161.519 191.98 161.519 192.372C161.519 192.78 161.451 193.156 161.315 193.5C161.187 193.836 160.999 194.128 160.751 194.376C160.511 194.616 160.219 194.804 159.875 194.94C159.531 195.076 159.151 195.144 158.735 195.144ZM158.723 194.268C159.275 194.268 159.703 194.116 160.007 193.812C160.319 193.508 160.475 193.072 160.475 192.504V192.408C160.475 191.84 160.319 191.404 160.007 191.1C159.703 190.796 159.275 190.644 158.723 190.644C158.171 190.644 157.739 190.796 157.427 191.1C157.123 191.404 156.971 191.84 156.971 192.408V192.504C156.971 193.072 157.123 193.508 157.427 193.812C157.739 194.116 158.171 194.268 158.723 194.268Z" fill="black"/>
<rect x="20" y="50" width="28" height="170" fill="#DDE1E6"/>
<rect x="20" y="112" width="28" height="108" fill="#A56EFF"/>
<line x1="20" y1="111" x2="48" y2="111" stroke="white" stroke-width="2"/>
<path d="M215.644 187.944H215.584L214.876 189.348L212.872 192.996L210.868 189.348L210.16 187.944H210.1V195H209.116V186.624H210.46L212.86 191.136H212.92L215.332 186.624H216.628V195H215.644V187.944ZM223.418 195C223.058 195 222.798 194.904 222.638 194.712C222.486 194.52 222.39 194.28 222.35 193.992H222.29C222.154 194.376 221.93 194.664 221.618 194.856C221.306 195.048 220.934 195.144 220.502 195.144C219.846 195.144 219.334 194.976 218.966 194.64C218.606 194.304 218.426 193.848 218.426 193.272C218.426 192.688 218.638 192.24 219.062 191.928C219.494 191.616 220.162 191.46 221.066 191.46H222.29V190.848C222.29 190.408 222.17 190.072 221.93 189.84C221.69 189.608 221.322 189.492 220.826 189.492C220.45 189.492 220.134 189.576 219.878 189.744C219.63 189.912 219.422 190.136 219.254 190.416L218.678 189.876C218.846 189.54 219.114 189.256 219.482 189.024C219.85 188.784 220.314 188.664 220.874 188.664C221.626 188.664 222.21 188.848 222.626 189.216C223.042 189.584 223.25 190.096 223.25 190.752V194.16H223.958V195H223.418ZM220.658 194.328C220.898 194.328 221.118 194.3 221.318 194.244C221.518 194.188 221.69 194.108 221.834 194.004C221.978 193.9 222.09 193.78 222.17 193.644C222.25 193.508 222.29 193.36 222.29 193.2V192.18H221.018C220.466 192.18 220.062 192.26 219.806 192.42C219.558 192.58 219.434 192.812 219.434 193.116V193.368C219.434 193.672 219.542 193.908 219.758 194.076C219.982 194.244 220.282 194.328 220.658 194.328ZM230.708 195.684C230.708 196.324 230.456 196.792 229.952 197.088C229.456 197.392 228.708 197.544 227.708 197.544C226.74 197.544 226.044 197.412 225.62 197.148C225.196 196.884 224.984 196.508 224.984 196.02C224.984 195.684 225.072 195.42 225.248 195.228C225.424 195.044 225.664 194.908 225.968 194.82V194.688C225.6 194.512 225.416 194.224 225.416 193.824C225.416 193.512 225.516 193.276 225.716 193.116C225.916 192.948 226.172 192.824 226.484 192.744V192.696C226.116 192.52 225.828 192.268 225.62 191.94C225.42 191.612 225.32 191.232 225.32 190.8C225.32 190.488 225.376 190.2 225.488 189.936C225.6 189.672 225.756 189.448 225.956 189.264C226.164 189.072 226.408 188.924 226.688 188.82C226.976 188.716 227.296 188.664 227.648 188.664C228.088 188.664 228.48 188.744 228.824 188.904V188.796C228.824 188.556 228.88 188.36 228.992 188.208C229.104 188.048 229.288 187.968 229.544 187.968H230.468V188.808H229.292V189.204C229.516 189.396 229.688 189.628 229.808 189.9C229.936 190.164 230 190.464 230 190.8C230 191.112 229.944 191.4 229.832 191.664C229.72 191.928 229.56 192.156 229.352 192.348C229.152 192.532 228.908 192.676 228.62 192.78C228.332 192.884 228.012 192.936 227.66 192.936C227.46 192.936 227.26 192.916 227.06 192.876C226.852 192.932 226.664 193.016 226.496 193.128C226.328 193.232 226.244 193.38 226.244 193.572C226.244 193.756 226.332 193.88 226.508 193.944C226.684 194.008 226.912 194.04 227.192 194.04H228.512C229.28 194.04 229.836 194.188 230.18 194.484C230.532 194.772 230.708 195.172 230.708 195.684ZM229.808 195.756C229.808 195.508 229.712 195.308 229.52 195.156C229.336 195.012 229.004 194.94 228.524 194.94H226.46C226.076 195.116 225.884 195.396 225.884 195.78C225.884 196.052 225.984 196.284 226.184 196.476C226.392 196.668 226.74 196.764 227.228 196.764H228.116C228.652 196.764 229.068 196.68 229.364 196.512C229.66 196.344 229.808 196.092 229.808 195.756ZM227.66 192.168C228.068 192.168 228.392 192.072 228.632 191.88C228.872 191.68 228.992 191.376 228.992 190.968V190.632C228.992 190.224 228.872 189.924 228.632 189.732C228.392 189.532 228.068 189.432 227.66 189.432C227.252 189.432 226.928 189.532 226.688 189.732C226.448 189.924 226.328 190.224 226.328 190.632V190.968C226.328 191.376 226.448 191.68 226.688 191.88C226.928 192.072 227.252 192.168 227.66 192.168ZM231.988 195V188.808H232.948V189.816H232.996C233.148 189.464 233.36 189.184 233.632 188.976C233.912 188.768 234.284 188.664 234.748 188.664C235.388 188.664 235.892 188.872 236.26 189.288C236.636 189.696 236.824 190.276 236.824 191.028V195H235.864V191.196C235.864 190.084 235.396 189.528 234.46 189.528C234.268 189.528 234.08 189.552 233.896 189.6C233.72 189.648 233.56 189.72 233.416 189.816C233.272 189.912 233.156 190.036 233.068 190.188C232.988 190.332 232.948 190.504 232.948 190.704V195H231.988ZM239.449 187.356C239.241 187.356 239.089 187.308 238.993 187.212C238.905 187.108 238.861 186.976 238.861 186.816V186.66C238.861 186.5 238.905 186.372 238.993 186.276C239.089 186.172 239.241 186.12 239.449 186.12C239.657 186.12 239.805 186.172 239.893 186.276C239.989 186.372 240.037 186.5 240.037 186.66V186.816C240.037 186.976 239.989 187.108 239.893 187.212C239.805 187.308 239.657 187.356 239.449 187.356ZM238.969 188.808H239.929V195H238.969V188.808ZM243.497 195C243.161 195 242.905 194.908 242.729 194.724C242.561 194.532 242.477 194.284 242.477 193.98V189.648H241.457V188.808H242.033C242.241 188.808 242.381 188.768 242.453 188.688C242.533 188.6 242.573 188.452 242.573 188.244V187.092H243.437V188.808H244.793V189.648H243.437V194.16H244.697V195H243.497ZM250.312 193.992H250.264C250.2 194.136 250.12 194.28 250.024 194.424C249.936 194.56 249.824 194.684 249.688 194.796C249.552 194.9 249.388 194.984 249.196 195.048C249.004 195.112 248.78 195.144 248.524 195.144C247.884 195.144 247.376 194.94 247 194.532C246.624 194.116 246.436 193.532 246.436 192.78V188.808H247.396V192.612C247.396 193.724 247.868 194.28 248.812 194.28C249.004 194.28 249.188 194.256 249.364 194.208C249.548 194.16 249.708 194.088 249.844 193.992C249.988 193.896 250.1 193.776 250.18 193.632C250.268 193.48 250.312 193.3 250.312 193.092V188.808H251.272V195H250.312V193.992ZM257.436 193.992H257.388C257.012 194.76 256.408 195.144 255.576 195.144C255.192 195.144 254.844 195.068 254.532 194.916C254.22 194.764 253.952 194.548 253.728 194.268C253.512 193.988 253.344 193.648 253.224 193.248C253.112 192.848 253.056 192.4 253.056 191.904C253.056 191.408 253.112 190.96 253.224 190.56C253.344 190.16 253.512 189.82 253.728 189.54C253.952 189.26 254.22 189.044 254.532 188.892C254.844 188.74 255.192 188.664 255.576 188.664C256.008 188.664 256.376 188.76 256.68 188.952C256.992 189.136 257.228 189.424 257.388 189.816H257.436V186.12H258.396V195H257.436V193.992ZM255.84 194.28C256.056 194.28 256.26 194.252 256.452 194.196C256.652 194.14 256.824 194.06 256.968 193.956C257.112 193.844 257.224 193.712 257.304 193.56C257.392 193.4 257.436 193.22 257.436 193.02V190.716C257.436 190.548 257.392 190.392 257.304 190.248C257.224 190.096 257.112 189.968 256.968 189.864C256.824 189.76 256.652 189.68 256.452 189.624C256.26 189.56 256.056 189.528 255.84 189.528C255.296 189.528 254.868 189.7 254.556 190.044C254.244 190.38 254.088 190.824 254.088 191.376V192.432C254.088 192.984 254.244 193.432 254.556 193.776C254.868 194.112 255.296 194.28 255.84 194.28ZM262.925 195.144C262.501 195.144 262.117 195.068 261.773 194.916C261.437 194.764 261.145 194.548 260.897 194.268C260.657 193.98 260.469 193.64 260.333 193.248C260.205 192.848 260.141 192.4 260.141 191.904C260.141 191.416 260.205 190.972 260.333 190.572C260.469 190.172 260.657 189.832 260.897 189.552C261.145 189.264 261.437 189.044 261.773 188.892C262.117 188.74 262.501 188.664 262.925 188.664C263.341 188.664 263.713 188.74 264.041 188.892C264.369 189.044 264.649 189.256 264.881 189.528C265.113 189.792 265.289 190.108 265.409 190.476C265.537 190.844 265.601 191.248 265.601 191.688V192.144H261.149V192.432C261.149 192.696 261.189 192.944 261.269 193.176C261.357 193.4 261.477 193.596 261.629 193.764C261.789 193.932 261.981 194.064 262.205 194.16C262.437 194.256 262.697 194.304 262.985 194.304C263.377 194.304 263.717 194.212 264.005 194.028C264.301 193.844 264.529 193.58 264.689 193.236L265.373 193.728C265.173 194.152 264.861 194.496 264.437 194.76C264.013 195.016 263.509 195.144 262.925 195.144ZM262.925 189.468C262.661 189.468 262.421 189.516 262.205 189.612C261.989 189.7 261.801 189.828 261.641 189.996C261.489 190.164 261.369 190.364 261.281 190.596C261.193 190.82 261.149 191.068 261.149 191.34V191.424H264.569V191.292C264.569 190.74 264.417 190.3 264.113 189.972C263.817 189.636 263.421 189.468 262.925 189.468ZM268.075 195.144C267.819 195.144 267.631 195.08 267.511 194.952C267.399 194.824 267.343 194.656 267.343 194.448V194.292C267.343 194.084 267.399 193.916 267.511 193.788C267.631 193.66 267.819 193.596 268.075 193.596C268.331 193.596 268.515 193.66 268.627 193.788C268.747 193.916 268.807 194.084 268.807 194.292V194.448C268.807 194.656 268.747 194.824 268.627 194.952C268.515 195.08 268.331 195.144 268.075 195.144ZM268.075 190.212C267.819 190.212 267.631 190.148 267.511 190.02C267.399 189.892 267.343 189.724 267.343 189.516V189.36C267.343 189.152 267.399 188.984 267.511 188.856C267.631 188.728 267.819 188.664 268.075 188.664C268.331 188.664 268.515 188.728 268.627 188.856C268.747 188.984 268.807 189.152 268.807 189.36V189.516C268.807 189.724 268.747 189.892 268.627 190.02C268.515 190.148 268.331 190.212 268.075 190.212ZM276.583 195.144C275.583 195.144 274.851 194.764 274.387 194.004C273.931 193.244 273.703 192.18 273.703 190.812C273.703 189.444 273.931 188.38 274.387 187.62C274.851 186.86 275.583 186.48 276.583 186.48C277.583 186.48 278.311 186.86 278.767 187.62C279.231 188.38 279.463 189.444 279.463 190.812C279.463 192.18 279.231 193.244 278.767 194.004C278.311 194.764 277.583 195.144 276.583 195.144ZM276.583 194.268C276.911 194.268 277.191 194.2 277.423 194.064C277.655 193.928 277.843 193.736 277.987 193.488C278.131 193.24 278.235 192.948 278.299 192.612C278.371 192.276 278.407 191.904 278.407 191.496V190.128C278.407 189.72 278.371 189.348 278.299 189.012C278.235 188.676 278.131 188.384 277.987 188.136C277.843 187.888 277.655 187.696 277.423 187.56C277.191 187.424 276.911 187.356 276.583 187.356C276.255 187.356 275.975 187.424 275.743 187.56C275.511 187.696 275.323 187.888 275.179 188.136C275.035 188.384 274.927 188.676 274.855 189.012C274.791 189.348 274.759 189.72 274.759 190.128V191.496C274.759 191.904 274.791 192.276 274.855 192.612C274.927 192.948 275.035 193.24 275.179 193.488C275.323 193.736 275.511 193.928 275.743 194.064C275.975 194.2 276.255 194.268 276.583 194.268ZM281.97 195.144C281.714 195.144 281.526 195.08 281.406 194.952C281.294 194.824 281.238 194.656 281.238 194.448V194.292C281.238 194.084 281.294 193.916 281.406 193.788C281.526 193.66 281.714 193.596 281.97 193.596C282.226 193.596 282.41 193.66 282.522 193.788C282.642 193.916 282.702 194.084 282.702 194.292V194.448C282.702 194.656 282.642 194.824 282.522 194.952C282.41 195.08 282.226 195.144 281.97 195.144ZM285.868 195L289.072 187.488H285.496V189.048H284.596V186.624H290.092V187.512L286.948 195H285.868ZM297.099 187.512H293.427L293.187 190.704H293.271C293.471 190.424 293.695 190.2 293.943 190.032C294.199 189.864 294.547 189.78 294.987 189.78C295.347 189.78 295.679 189.84 295.983 189.96C296.287 190.08 296.551 190.252 296.775 190.476C296.999 190.692 297.171 190.96 297.291 191.28C297.419 191.6 297.483 191.964 297.483 192.372C297.483 192.78 297.419 193.156 297.291 193.5C297.163 193.836 296.975 194.128 296.727 194.376C296.487 194.616 296.191 194.804 295.839 194.94C295.495 195.076 295.103 195.144 294.663 195.144C294.311 195.144 293.999 195.104 293.727 195.024C293.463 194.944 293.227 194.836 293.019 194.7C292.811 194.564 292.627 194.412 292.467 194.244C292.315 194.076 292.175 193.9 292.047 193.716L292.803 193.14C292.907 193.308 293.015 193.46 293.127 193.596C293.247 193.732 293.375 193.848 293.511 193.944C293.655 194.04 293.819 194.116 294.003 194.172C294.187 194.22 294.407 194.244 294.663 194.244C295.239 194.244 295.675 194.092 295.971 193.788C296.267 193.484 296.415 193.056 296.415 192.504V192.384C296.415 191.832 296.267 191.404 295.971 191.1C295.675 190.796 295.239 190.644 294.663 190.644C294.279 190.644 293.975 190.716 293.751 190.86C293.535 190.996 293.339 191.16 293.163 191.352L292.311 191.232L292.611 186.624H297.099V187.512ZM209.116 215V206.624H212.452C213.204 206.624 213.78 206.84 214.18 207.272C214.588 207.696 214.792 208.28 214.792 209.024C214.792 209.768 214.588 210.356 214.18 210.788C213.78 211.212 213.204 211.424 212.452 211.424H210.124V215H209.116ZM210.124 210.536H212.452C212.852 210.536 213.16 210.432 213.376 210.224C213.6 210.016 213.712 209.72 213.712 209.336V208.712C213.712 208.328 213.6 208.032 213.376 207.824C213.16 207.616 212.852 207.512 212.452 207.512H210.124V210.536ZM216.457 206.12H217.417V209.816H217.465C217.617 209.464 217.829 209.184 218.101 208.976C218.381 208.768 218.753 208.664 219.217 208.664C219.857 208.664 220.361 208.872 220.729 209.288C221.105 209.696 221.293 210.276 221.293 211.028V215H220.333V211.196C220.333 210.084 219.865 209.528 218.929 209.528C218.737 209.528 218.549 209.552 218.365 209.6C218.189 209.648 218.029 209.72 217.885 209.816C217.741 209.912 217.625 210.036 217.537 210.188C217.457 210.332 217.417 210.504 217.417 210.704V215H216.457V206.12ZM227.938 215C227.578 215 227.318 214.904 227.158 214.712C227.006 214.52 226.91 214.28 226.87 213.992H226.81C226.674 214.376 226.45 214.664 226.138 214.856C225.826 215.048 225.454 215.144 225.022 215.144C224.366 215.144 223.854 214.976 223.486 214.64C223.126 214.304 222.946 213.848 222.946 213.272C222.946 212.688 223.158 212.24 223.582 211.928C224.014 211.616 224.682 211.46 225.586 211.46H226.81V210.848C226.81 210.408 226.69 210.072 226.45 209.84C226.21 209.608 225.842 209.492 225.346 209.492C224.97 209.492 224.654 209.576 224.398 209.744C224.15 209.912 223.942 210.136 223.774 210.416L223.198 209.876C223.366 209.54 223.634 209.256 224.002 209.024C224.37 208.784 224.834 208.664 225.394 208.664C226.146 208.664 226.73 208.848 227.146 209.216C227.562 209.584 227.77 210.096 227.77 210.752V214.16H228.478V215H227.938ZM225.178 214.328C225.418 214.328 225.638 214.3 225.838 214.244C226.038 214.188 226.21 214.108 226.354 214.004C226.498 213.9 226.61 213.78 226.69 213.644C226.77 213.508 226.81 213.36 226.81 213.2V212.18H225.538C224.986 212.18 224.582 212.26 224.326 212.42C224.078 212.58 223.954 212.812 223.954 213.116V213.368C223.954 213.672 224.062 213.908 224.278 214.076C224.502 214.244 224.802 214.328 225.178 214.328ZM231.868 215.144C231.292 215.144 230.808 215.036 230.416 214.82C230.032 214.596 229.7 214.3 229.42 213.932L230.104 213.38C230.344 213.684 230.612 213.92 230.908 214.088C231.204 214.248 231.548 214.328 231.94 214.328C232.348 214.328 232.664 214.24 232.888 214.064C233.12 213.888 233.236 213.64 233.236 213.32C233.236 213.08 233.156 212.876 232.996 212.708C232.844 212.532 232.564 212.412 232.156 212.348L231.664 212.276C231.376 212.236 231.112 212.176 230.872 212.096C230.632 212.008 230.42 211.896 230.236 211.76C230.06 211.616 229.92 211.44 229.816 211.232C229.72 211.024 229.672 210.776 229.672 210.488C229.672 210.184 229.728 209.92 229.84 209.696C229.952 209.464 230.104 209.272 230.296 209.12C230.496 208.968 230.732 208.856 231.004 208.784C231.276 208.704 231.568 208.664 231.88 208.664C232.384 208.664 232.804 208.752 233.14 208.928C233.484 209.104 233.784 209.348 234.04 209.66L233.404 210.236C233.268 210.044 233.068 209.872 232.804 209.72C232.54 209.56 232.208 209.48 231.808 209.48C231.408 209.48 231.104 209.568 230.896 209.744C230.696 209.912 230.596 210.144 230.596 210.44C230.596 210.744 230.696 210.964 230.896 211.1C231.104 211.236 231.4 211.336 231.784 211.4L232.264 211.472C232.952 211.576 233.44 211.776 233.728 212.072C234.016 212.36 234.16 212.74 234.16 213.212C234.16 213.812 233.956 214.284 233.548 214.628C233.14 214.972 232.58 215.144 231.868 215.144ZM238.343 215.144C237.919 215.144 237.535 215.068 237.191 214.916C236.855 214.764 236.563 214.548 236.315 214.268C236.075 213.98 235.887 213.64 235.751 213.248C235.623 212.848 235.559 212.4 235.559 211.904C235.559 211.416 235.623 210.972 235.751 210.572C235.887 210.172 236.075 209.832 236.315 209.552C236.563 209.264 236.855 209.044 237.191 208.892C237.535 208.74 237.919 208.664 238.343 208.664C238.759 208.664 239.131 208.74 239.459 208.892C239.787 209.044 240.067 209.256 240.299 209.528C240.531 209.792 240.707 210.108 240.827 210.476C240.955 210.844 241.019 211.248 241.019 211.688V212.144H236.567V212.432C236.567 212.696 236.607 212.944 236.687 213.176C236.775 213.4 236.895 213.596 237.047 213.764C237.207 213.932 237.399 214.064 237.623 214.16C237.855 214.256 238.115 214.304 238.403 214.304C238.795 214.304 239.135 214.212 239.423 214.028C239.719 213.844 239.947 213.58 240.107 213.236L240.791 213.728C240.591 214.152 240.279 214.496 239.855 214.76C239.431 215.016 238.927 215.144 238.343 215.144ZM238.343 209.468C238.079 209.468 237.839 209.516 237.623 209.612C237.407 209.7 237.219 209.828 237.059 209.996C236.907 210.164 236.787 210.364 236.699 210.596C236.611 210.82 236.567 211.068 236.567 211.34V211.424H239.987V211.292C239.987 210.74 239.835 210.3 239.531 209.972C239.235 209.636 238.839 209.468 238.343 209.468ZM243.493 215.144C243.237 215.144 243.049 215.08 242.929 214.952C242.817 214.824 242.761 214.656 242.761 214.448V214.292C242.761 214.084 242.817 213.916 242.929 213.788C243.049 213.66 243.237 213.596 243.493 213.596C243.749 213.596 243.933 213.66 244.045 213.788C244.165 213.916 244.225 214.084 244.225 214.292V214.448C244.225 214.656 244.165 214.824 244.045 214.952C243.933 215.08 243.749 215.144 243.493 215.144ZM243.493 210.212C243.237 210.212 243.049 210.148 242.929 210.02C242.817 209.892 242.761 209.724 242.761 209.516V209.36C242.761 209.152 242.817 208.984 242.929 208.856C243.049 208.728 243.237 208.664 243.493 208.664C243.749 208.664 243.933 208.728 244.045 208.856C244.165 208.984 244.225 209.152 244.225 209.36V209.516C244.225 209.724 244.165 209.892 244.045 210.02C243.933 210.148 243.749 210.212 243.493 210.212ZM252.901 215V213.356H248.857V212.468L252.361 206.624H253.861V212.516H255.073V213.356H253.861V215H252.901ZM249.805 212.516H252.901V207.404H252.841L249.805 212.516ZM261.733 207.512H258.061L257.821 210.704H257.905C258.105 210.424 258.329 210.2 258.577 210.032C258.833 209.864 259.181 209.78 259.621 209.78C259.981 209.78 260.313 209.84 260.617 209.96C260.921 210.08 261.185 210.252 261.409 210.476C261.633 210.692 261.805 210.96 261.925 211.28C262.053 211.6 262.117 211.964 262.117 212.372C262.117 212.78 262.053 213.156 261.925 213.5C261.797 213.836 261.609 214.128 261.361 214.376C261.121 214.616 260.825 214.804 260.473 214.94C260.129 215.076 259.737 215.144 259.297 215.144C258.945 215.144 258.633 215.104 258.361 215.024C258.097 214.944 257.861 214.836 257.653 214.7C257.445 214.564 257.261 214.412 257.101 214.244C256.949 214.076 256.809 213.9 256.681 213.716L257.437 213.14C257.541 213.308 257.649 213.46 257.761 213.596C257.881 213.732 258.009 213.848 258.145 213.944C258.289 214.04 258.453 214.116 258.637 214.172C258.821 214.22 259.041 214.244 259.297 214.244C259.873 214.244 260.309 214.092 260.605 213.788C260.901 213.484 261.049 213.056 261.049 212.504V212.384C261.049 211.832 260.901 211.404 260.605 211.1C260.309 210.796 259.873 210.644 259.297 210.644C258.913 210.644 258.609 210.716 258.385 210.86C258.169 210.996 257.973 211.16 257.797 211.352L256.945 211.232L257.245 206.624H261.733V207.512ZM265.92 210.608C265.632 210.608 265.364 210.556 265.116 210.452C264.876 210.348 264.664 210.204 264.48 210.02C264.304 209.836 264.164 209.62 264.06 209.372C263.956 209.116 263.904 208.84 263.904 208.544C263.904 208.248 263.956 207.976 264.06 207.728C264.164 207.472 264.304 207.252 264.48 207.068C264.664 206.884 264.876 206.74 265.116 206.636C265.364 206.532 265.632 206.48 265.92 206.48C266.208 206.48 266.472 206.532 266.712 206.636C266.96 206.74 267.172 206.884 267.348 207.068C267.532 207.252 267.676 207.472 267.78 207.728C267.884 207.976 267.936 208.248 267.936 208.544C267.936 208.84 267.884 209.116 267.78 209.372C267.676 209.62 267.532 209.836 267.348 210.02C267.172 210.204 266.96 210.348 266.712 210.452C266.472 210.556 266.208 210.608 265.92 210.608ZM265.92 209.84C266.28 209.84 266.564 209.716 266.772 209.468C266.988 209.212 267.096 208.904 267.096 208.544C267.096 208.184 266.988 207.88 266.772 207.632C266.564 207.376 266.28 207.248 265.92 207.248C265.56 207.248 265.272 207.376 265.056 207.632C264.848 207.88 264.744 208.184 264.744 208.544C264.744 208.904 264.848 209.212 265.056 209.468C265.272 209.716 265.56 209.84 265.92 209.84Z" fill="black"/>
<circle cx="268" cy="106" r="60" fill="#DDE1E6"/>
<circle cx="268.811" cy="105.189" r="47.8378" fill="#A56EFF"/>
<path d="M306.284 80.2181C306.374 79.6733 306.006 79.1582 305.461 79.0676L296.583 77.5916C296.038 77.5011 295.523 77.8693 295.433 78.4141C295.342 78.9589 295.71 79.474 296.255 79.5645L304.147 80.8766L302.835 88.7682C302.744 89.3131 303.113 89.8281 303.657 89.9187C304.202 90.0093 304.717 89.6411 304.808 89.0962L306.284 80.2181ZM268.692 107.453L305.879 80.8676L304.716 79.2406L267.529 105.826L268.692 107.453Z" fill="white"/>
<path d="M215.36 22L214.52 19.528H211.136L210.296 22H209.276L212.204 13.624H213.488L216.416 22H215.36ZM212.852 14.56H212.792L211.376 18.64H214.268L212.852 14.56ZM218.027 22V15.808H218.987V16.816H219.035C219.107 16.656 219.187 16.508 219.275 16.372C219.371 16.228 219.483 16.104 219.611 16C219.747 15.896 219.903 15.816 220.079 15.76C220.255 15.696 220.464 15.664 220.704 15.664C221.112 15.664 221.487 15.764 221.831 15.964C222.175 16.156 222.431 16.476 222.599 16.924H222.623C222.735 16.588 222.944 16.296 223.248 16.048C223.559 15.792 223.979 15.664 224.507 15.664C225.14 15.664 225.632 15.872 225.984 16.288C226.344 16.696 226.524 17.276 226.524 18.028V22H225.564V18.196C225.564 17.644 225.456 17.228 225.24 16.948C225.024 16.668 224.68 16.528 224.207 16.528C224.016 16.528 223.832 16.552 223.655 16.6C223.488 16.648 223.336 16.72 223.2 16.816C223.063 16.912 222.955 17.036 222.875 17.188C222.796 17.332 222.756 17.504 222.756 17.704V22H221.795V18.196C221.795 17.644 221.687 17.228 221.471 16.948C221.255 16.668 220.919 16.528 220.463 16.528C220.271 16.528 220.087 16.552 219.911 16.6C219.735 16.648 219.579 16.72 219.443 16.816C219.307 16.912 219.195 17.036 219.107 17.188C219.027 17.332 218.987 17.504 218.987 17.704V22H218.027ZM228.824 15.808H229.784V16.816H229.832C229.992 16.424 230.224 16.136 230.528 15.952C230.84 15.76 231.212 15.664 231.644 15.664C232.028 15.664 232.376 15.74 232.688 15.892C233 16.044 233.264 16.26 233.48 16.54C233.704 16.82 233.872 17.16 233.984 17.56C234.104 17.96 234.164 18.408 234.164 18.904C234.164 19.4 234.104 19.848 233.984 20.248C233.872 20.648 233.704 20.988 233.48 21.268C233.264 21.548 233 21.764 232.688 21.916C232.376 22.068 232.028 22.144 231.644 22.144C230.804 22.144 230.2 21.76 229.832 20.992H229.784V24.4H228.824V15.808ZM231.38 21.28C231.924 21.28 232.352 21.112 232.664 20.776C232.976 20.432 233.132 19.984 233.132 19.432V18.376C233.132 17.824 232.976 17.38 232.664 17.044C232.352 16.7 231.924 16.528 231.38 16.528C231.164 16.528 230.956 16.56 230.756 16.624C230.564 16.68 230.396 16.76 230.252 16.864C230.108 16.968 229.992 17.096 229.904 17.248C229.824 17.392 229.784 17.548 229.784 17.716V20.02C229.784 20.22 229.824 20.4 229.904 20.56C229.992 20.712 230.108 20.844 230.252 20.956C230.396 21.06 230.564 21.14 230.756 21.196C230.956 21.252 231.164 21.28 231.38 21.28ZM237.125 22C236.789 22 236.533 21.908 236.357 21.724C236.189 21.532 236.105 21.292 236.105 21.004V13.12H237.065V21.16H237.977V22H237.125ZM240.175 14.356C239.967 14.356 239.815 14.308 239.719 14.212C239.631 14.108 239.587 13.976 239.587 13.816V13.66C239.587 13.5 239.631 13.372 239.719 13.276C239.815 13.172 239.967 13.12 240.175 13.12C240.383 13.12 240.531 13.172 240.619 13.276C240.715 13.372 240.763 13.5 240.763 13.66V13.816C240.763 13.976 240.715 14.108 240.619 14.212C240.531 14.308 240.383 14.356 240.175 14.356ZM239.695 15.808H240.655V22H239.695V15.808ZM244.383 22C244.047 22 243.791 21.908 243.615 21.724C243.447 21.532 243.363 21.284 243.363 20.98V16.648H242.343V15.808H242.919C243.127 15.808 243.267 15.768 243.339 15.688C243.419 15.6 243.459 15.452 243.459 15.244V14.092H244.323V15.808H245.679V16.648H244.323V21.16H245.583V22H244.383ZM251.358 20.992H251.31C251.246 21.136 251.166 21.28 251.07 21.424C250.982 21.56 250.87 21.684 250.734 21.796C250.598 21.9 250.434 21.984 250.242 22.048C250.05 22.112 249.826 22.144 249.57 22.144C248.93 22.144 248.422 21.94 248.046 21.532C247.67 21.116 247.482 20.532 247.482 19.78V15.808H248.442V19.612C248.442 20.724 248.914 21.28 249.858 21.28C250.05 21.28 250.234 21.256 250.41 21.208C250.594 21.16 250.754 21.088 250.89 20.992C251.034 20.896 251.146 20.776 251.226 20.632C251.314 20.48 251.358 20.3 251.358 20.092V15.808H252.318V22H251.358V20.992ZM258.642 20.992H258.594C258.218 21.76 257.614 22.144 256.782 22.144C256.398 22.144 256.05 22.068 255.738 21.916C255.426 21.764 255.158 21.548 254.934 21.268C254.718 20.988 254.55 20.648 254.43 20.248C254.318 19.848 254.262 19.4 254.262 18.904C254.262 18.408 254.318 17.96 254.43 17.56C254.55 17.16 254.718 16.82 254.934 16.54C255.158 16.26 255.426 16.044 255.738 15.892C256.05 15.74 256.398 15.664 256.782 15.664C257.214 15.664 257.582 15.76 257.886 15.952C258.198 16.136 258.434 16.424 258.594 16.816H258.642V13.12H259.602V22H258.642V20.992ZM257.046 21.28C257.262 21.28 257.466 21.252 257.658 21.196C257.858 21.14 258.03 21.06 258.174 20.956C258.318 20.844 258.43 20.712 258.51 20.56C258.598 20.4 258.642 20.22 258.642 20.02V17.716C258.642 17.548 258.598 17.392 258.51 17.248C258.43 17.096 258.318 16.968 258.174 16.864C258.03 16.76 257.858 16.68 257.658 16.624C257.466 16.56 257.262 16.528 257.046 16.528C256.502 16.528 256.074 16.7 255.762 17.044C255.45 17.38 255.294 17.824 255.294 18.376V19.432C255.294 19.984 255.45 20.432 255.762 20.776C256.074 21.112 256.502 21.28 257.046 21.28ZM264.291 22.144C263.867 22.144 263.483 22.068 263.139 21.916C262.803 21.764 262.511 21.548 262.263 21.268C262.023 20.98 261.835 20.64 261.699 20.248C261.571 19.848 261.507 19.4 261.507 18.904C261.507 18.416 261.571 17.972 261.699 17.572C261.835 17.172 262.023 16.832 262.263 16.552C262.511 16.264 262.803 16.044 263.139 15.892C263.483 15.74 263.867 15.664 264.291 15.664C264.707 15.664 265.079 15.74 265.407 15.892C265.735 16.044 266.015 16.256 266.247 16.528C266.479 16.792 266.655 17.108 266.775 17.476C266.903 17.844 266.967 18.248 266.967 18.688V19.144H262.515V19.432C262.515 19.696 262.555 19.944 262.635 20.176C262.723 20.4 262.843 20.596 262.995 20.764C263.155 20.932 263.347 21.064 263.571 21.16C263.803 21.256 264.063 21.304 264.351 21.304C264.743 21.304 265.083 21.212 265.371 21.028C265.667 20.844 265.895 20.58 266.055 20.236L266.739 20.728C266.539 21.152 266.227 21.496 265.803 21.76C265.379 22.016 264.875 22.144 264.291 22.144ZM264.291 16.468C264.027 16.468 263.787 16.516 263.571 16.612C263.355 16.7 263.167 16.828 263.007 16.996C262.855 17.164 262.735 17.364 262.647 17.596C262.559 17.82 262.515 18.068 262.515 18.34V18.424H265.935V18.292C265.935 17.74 265.783 17.3 265.479 16.972C265.183 16.636 264.787 16.468 264.291 16.468Z" fill="black"/>
<path d="M17.116 22V13.624H20.452C21.204 13.624 21.78 13.84 22.18 14.272C22.588 14.696 22.792 15.28 22.792 16.024C22.792 16.768 22.588 17.356 22.18 17.788C21.78 18.212 21.204 18.424 20.452 18.424H18.124V22H17.116ZM18.124 17.536H20.452C20.852 17.536 21.16 17.432 21.376 17.224C21.6 17.016 21.712 16.72 21.712 16.336V15.712C21.712 15.328 21.6 15.032 21.376 14.824C21.16 14.616 20.852 14.512 20.452 14.512H18.124V17.536ZM24.5002 22V15.808H25.4602V16.948H25.5202C25.6322 16.652 25.8322 16.388 26.1202 16.156C26.4082 15.924 26.8042 15.808 27.3082 15.808H27.6802V16.768H27.1162C26.5962 16.768 26.1882 16.868 25.8922 17.068C25.6042 17.26 25.4602 17.504 25.4602 17.8V22H24.5002ZM31.5078 22.144C31.0918 22.144 30.7118 22.068 30.3678 21.916C30.0238 21.764 29.7278 21.548 29.4798 21.268C29.2398 20.98 29.0518 20.64 28.9158 20.248C28.7798 19.848 28.7118 19.4 28.7118 18.904C28.7118 18.416 28.7798 17.972 28.9158 17.572C29.0518 17.172 29.2398 16.832 29.4798 16.552C29.7278 16.264 30.0238 16.044 30.3678 15.892C30.7118 15.74 31.0918 15.664 31.5078 15.664C31.9238 15.664 32.2998 15.74 32.6358 15.892C32.9798 16.044 33.2758 16.264 33.5238 16.552C33.7718 16.832 33.9638 17.172 34.0998 17.572C34.2358 17.972 34.3038 18.416 34.3038 18.904C34.3038 19.4 34.2358 19.848 34.0998 20.248C33.9638 20.64 33.7718 20.98 33.5238 21.268C33.2758 21.548 32.9798 21.764 32.6358 21.916C32.2998 22.068 31.9238 22.144 31.5078 22.144ZM31.5078 21.292C32.0278 21.292 32.4518 21.132 32.7798 20.812C33.1078 20.492 33.2718 20.004 33.2718 19.348V18.46C33.2718 17.804 33.1078 17.316 32.7798 16.996C32.4518 16.676 32.0278 16.516 31.5078 16.516C30.9878 16.516 30.5638 16.676 30.2358 16.996C29.9078 17.316 29.7438 17.804 29.7438 18.46V19.348C29.7438 20.004 29.9078 20.492 30.2358 20.812C30.5638 21.132 30.9878 21.292 31.5078 21.292ZM36.2027 13.12H37.1627V16.816H37.2107C37.3707 16.424 37.6027 16.136 37.9067 15.952C38.2187 15.76 38.5907 15.664 39.0227 15.664C39.4067 15.664 39.7547 15.74 40.0667 15.892C40.3787 16.044 40.6427 16.26 40.8587 16.54C41.0827 16.82 41.2507 17.16 41.3627 17.56C41.4827 17.96 41.5427 18.408 41.5427 18.904C41.5427 19.4 41.4827 19.848 41.3627 20.248C41.2507 20.648 41.0827 20.988 40.8587 21.268C40.6427 21.548 40.3787 21.764 40.0667 21.916C39.7547 22.068 39.4067 22.144 39.0227 22.144C38.1827 22.144 37.5787 21.76 37.2107 20.992H37.1627V22H36.2027V13.12ZM38.7587 21.28C39.3027 21.28 39.7307 21.112 40.0427 20.776C40.3547 20.432 40.5107 19.984 40.5107 19.432V18.376C40.5107 17.824 40.3547 17.38 40.0427 17.044C39.7307 16.7 39.3027 16.528 38.7587 16.528C38.5427 16.528 38.3347 16.56 38.1347 16.624C37.9427 16.68 37.7747 16.76 37.6307 16.864C37.4867 16.968 37.3707 17.096 37.2827 17.248C37.2027 17.392 37.1627 17.548 37.1627 17.716V20.02C37.1627 20.22 37.2027 20.4 37.2827 20.56C37.3707 20.712 37.4867 20.844 37.6307 20.956C37.7747 21.06 37.9427 21.14 38.1347 21.196C38.3347 21.252 38.5427 21.28 38.7587 21.28ZM47.9836 22C47.6236 22 47.3636 21.904 47.2036 21.712C47.0516 21.52 46.9556 21.28 46.9156 20.992H46.8556C46.7196 21.376 46.4956 21.664 46.1836 21.856C45.8716 22.048 45.4996 22.144 45.0676 22.144C44.4116 22.144 43.8996 21.976 43.5316 21.64C43.1716 21.304 42.9916 20.848 42.9916 20.272C42.9916 19.688 43.2036 19.24 43.6276 18.928C44.0596 18.616 44.7276 18.46 45.6316 18.46H46.8556V17.848C46.8556 17.408 46.7356 17.072 46.4956 16.84C46.2556 16.608 45.8876 16.492 45.3916 16.492C45.0156 16.492 44.6996 16.576 44.4436 16.744C44.1956 16.912 43.9876 17.136 43.8196 17.416L43.2436 16.876C43.4116 16.54 43.6796 16.256 44.0476 16.024C44.4156 15.784 44.8796 15.664 45.4396 15.664C46.1916 15.664 46.7756 15.848 47.1916 16.216C47.6076 16.584 47.8156 17.096 47.8156 17.752V21.16H48.5236V22H47.9836ZM45.2236 21.328C45.4636 21.328 45.6836 21.3 45.8836 21.244C46.0836 21.188 46.2556 21.108 46.3996 21.004C46.5436 20.9 46.6556 20.78 46.7356 20.644C46.8156 20.508 46.8556 20.36 46.8556 20.2V19.18H45.5836C45.0316 19.18 44.6276 19.26 44.3716 19.42C44.1236 19.58 43.9996 19.812 43.9996 20.116V20.368C43.9996 20.672 44.1076 20.908 44.3236 21.076C44.5476 21.244 44.8476 21.328 45.2236 21.328ZM50.2137 13.12H51.1737V16.816H51.2217C51.3817 16.424 51.6137 16.136 51.9177 15.952C52.2297 15.76 52.6017 15.664 53.0337 15.664C53.4177 15.664 53.7657 15.74 54.0777 15.892C54.3897 16.044 54.6537 16.26 54.8697 16.54C55.0937 16.82 55.2617 17.16 55.3737 17.56C55.4937 17.96 55.5537 18.408 55.5537 18.904C55.5537 19.4 55.4937 19.848 55.3737 20.248C55.2617 20.648 55.0937 20.988 54.8697 21.268C54.6537 21.548 54.3897 21.764 54.0777 21.916C53.7657 22.068 53.4177 22.144 53.0337 22.144C52.1937 22.144 51.5897 21.76 51.2217 20.992H51.1737V22H50.2137V13.12ZM52.7697 21.28C53.3137 21.28 53.7417 21.112 54.0537 20.776C54.3657 20.432 54.5217 19.984 54.5217 19.432V18.376C54.5217 17.824 54.3657 17.38 54.0537 17.044C53.7417 16.7 53.3137 16.528 52.7697 16.528C52.5537 16.528 52.3457 16.56 52.1457 16.624C51.9537 16.68 51.7857 16.76 51.6417 16.864C51.4977 16.968 51.3817 17.096 51.2937 17.248C51.2137 17.392 51.1737 17.548 51.1737 17.716V20.02C51.1737 20.22 51.2137 20.4 51.2937 20.56C51.3817 20.712 51.4977 20.844 51.6417 20.956C51.7857 21.06 51.9537 21.14 52.1457 21.196C52.3457 21.252 52.5537 21.28 52.7697 21.28ZM57.9747 14.356C57.7667 14.356 57.6147 14.308 57.5187 14.212C57.4307 14.108 57.3867 13.976 57.3867 13.816V13.66C57.3867 13.5 57.4307 13.372 57.5187 13.276C57.6147 13.172 57.7667 13.12 57.9747 13.12C58.1827 13.12 58.3307 13.172 58.4187 13.276C58.5147 13.372 58.5627 13.5 58.5627 13.66V13.816C58.5627 13.976 58.5147 14.108 58.4187 14.212C58.3307 14.308 58.1827 14.356 57.9747 14.356ZM57.4947 15.808H58.4547V22H57.4947V15.808ZM61.8347 22C61.4987 22 61.2427 21.908 61.0667 21.724C60.8987 21.532 60.8147 21.292 60.8147 21.004V13.12H61.7747V21.16H62.6867V22H61.8347ZM64.8842 14.356C64.6762 14.356 64.5242 14.308 64.4282 14.212C64.3402 14.108 64.2962 13.976 64.2962 13.816V13.66C64.2962 13.5 64.3402 13.372 64.4282 13.276C64.5242 13.172 64.6762 13.12 64.8842 13.12C65.0922 13.12 65.2402 13.172 65.3282 13.276C65.4242 13.372 65.4722 13.5 65.4722 13.66V13.816C65.4722 13.976 65.4242 14.108 65.3282 14.212C65.2402 14.308 65.0922 14.356 64.8842 14.356ZM64.4042 15.808H65.3642V22H64.4042V15.808ZM69.0922 22C68.7562 22 68.5002 21.908 68.3242 21.724C68.1562 21.532 68.0722 21.284 68.0722 20.98V16.648H67.0522V15.808H67.6282C67.8362 15.808 67.9762 15.768 68.0482 15.688C68.1282 15.6 68.1682 15.452 68.1682 15.244V14.092H69.0322V15.808H70.3882V16.648H69.0322V21.16H70.2922V22H69.0922ZM76.0673 15.808H77.0153L74.2433 23.44C74.1713 23.624 74.0993 23.776 74.0273 23.896C73.9553 24.024 73.8673 24.124 73.7633 24.196C73.6593 24.268 73.5273 24.32 73.3673 24.352C73.2153 24.384 73.0273 24.4 72.8033 24.4H72.3113V23.56H73.2833L73.7513 22.24L71.4353 15.808H72.3953L73.8833 20.02L74.1713 21.028H74.2313L74.5673 20.02L76.0673 15.808Z" fill="black"/>
<line y1="0.5" x2="384" y2="0.5" stroke="#C1C7CD"/>
<line y1="240.5" x2="384" y2="240.5" stroke="#C1C7CD"/>
<line x1="192.5" y1="1" x2="192.5" y2="241" stroke="#C1C7CD"/>
<line x1="384.5" y1="1" x2="384.5" y2="241" stroke="#C1C7CD"/>
<line x1="0.5" y1="1" x2="0.5" y2="241" stroke="#C1C7CD"/>
</svg>
