<?xml version="1.0" encoding="utf-8" standalone="no"?>
<!DOCTYPE svg PUBLIC "-//W3C//DTD SVG 1.1//EN"
  "http://www.w3.org/Graphics/SVG/1.1/DTD/svg11.dtd">
<!-- Created with matplotlib (https://matplotlib.org/) -->
<svg height="168.9334pt" version="1.1" viewBox="0 0 450.7296 168.9334" width="450.7296pt" xmlns="http://www.w3.org/2000/svg" xmlns:xlink="http://www.w3.org/1999/xlink">
 <defs>
  <style type="text/css">
*{stroke-linecap:butt;stroke-linejoin:round;}
  </style>
 </defs>
 <g id="figure_1">
  <g id="patch_1">
   <path d="M 0 168.9334 
L 450.7296 168.9334 
L 450.7296 0 
L 0 0 
z
" style="fill:#ffffff;"/>
  </g>
  <g id="axes_1">
   <g id="line2d_1">
    <path clip-path="url(#p5a983e2976)" d="M 98.102 43.5608 
L 438.9845 43.5608 
" style="fill:none;stroke:#000000;stroke-linecap:square;stroke-width:2;"/>
   </g>
   <g id="line2d_2">
    <path clip-path="url(#p5a983e2976)" d="M 98.102 89.0118 
L 438.9845 89.0118 
" style="fill:none;stroke:#000000;stroke-linecap:square;stroke-width:2;"/>
   </g>
   <g id="line2d_3">
    <path clip-path="url(#p5a983e2976)" d="M 98.102 134.4628 
L 438.9845 134.4628 
" style="fill:none;stroke:#000000;stroke-linecap:square;stroke-width:2;"/>
   </g>
   <g id="line2d_4">
    <path clip-path="url(#p5a983e2976)" d="M 166.2785 89.0118 
L 166.2785 43.5608 
" style="fill:none;stroke:#bb8bff;stroke-linecap:square;stroke-width:2;"/>
   </g>
   <g id="line2d_5">
    <path clip-path="url(#p5a983e2976)" d="M 211.7295 134.4628 
L 211.7295 43.5608 
" style="fill:none;stroke:#bb8bff;stroke-linecap:square;stroke-width:2;"/>
   </g>
   <g id="line2d_6">
    <path clip-path="url(#p5a983e2976)" d="M 302.6315 134.4628 
L 302.6315 89.0118 
" style="fill:none;stroke:#bb8bff;stroke-linecap:square;stroke-width:2;"/>
   </g>
   <g id="line2d_7">
    <path clip-path="url(#p5a983e2976)" d="M 348.0825 134.4628 
L 348.0825 43.5608 
" style="fill:none;stroke:#bb8bff;stroke-linecap:square;stroke-width:2;"/>
   </g>
   <g id="patch_2">
    <path clip-path="url(#p5a983e2976)" d="M 106.055925 58.332375 
L 135.599075 58.332375 
L 135.599075 28.789225 
L 106.055925 28.789225 
z
" style="fill:#bb8bff;"/>
   </g>
   <g id="patch_3">
    <path clip-path="url(#p5a983e2976)" d="M 106.055925 103.783375 
L 135.599075 103.783375 
L 135.599075 74.240225 
L 106.055925 74.240225 
z
" style="fill:#bb8bff;"/>
   </g>
   <g id="patch_4">
    <path clip-path="url(#p5a983e2976)" d="M 106.055925 149.234375 
L 135.599075 149.234375 
L 135.599075 119.691225 
L 106.055925 119.691225 
z
" style="fill:#bb8bff;"/>
   </g>
   <g id="patch_5">
    <path clip-path="url(#p5a983e2976)" d="M 166.2785 47.992273 
C 167.45374 47.992273 168.581004 47.525345 169.412024 46.694324 
C 170.243045 45.863304 170.709973 44.73604 170.709973 43.5608 
C 170.709973 42.38556 170.243045 41.258296 169.412024 40.427276 
C 168.581004 39.596255 167.45374 39.129328 166.2785 39.129328 
C 165.10326 39.129328 163.975996 39.596255 163.144976 40.427276 
C 162.313955 41.258296 161.847027 42.38556 161.847027 43.5608 
C 161.847027 44.73604 162.313955 45.863304 163.144976 46.694324 
C 163.975996 47.525345 165.10326 47.992273 166.2785 47.992273 
z
" style="fill:#bb8bff;stroke:#bb8bff;stroke-linejoin:miter;stroke-width:1.5;"/>
   </g>
   <g id="patch_6">
    <path clip-path="url(#p5a983e2976)" d="M 151.506925 103.783375 
L 181.050075 103.783375 
L 181.050075 74.240225 
L 151.506925 74.240225 
z
" style="fill:#bb8bff;"/>
   </g>
   <g id="patch_7">
    <path clip-path="url(#p5a983e2976)" d="M 211.7295 138.894273 
C 212.90474 138.894273 214.032004 138.427345 214.863024 137.596324 
C 215.694045 136.765304 216.160973 135.63804 216.160973 134.4628 
C 216.160973 133.28756 215.694045 132.160296 214.863024 131.329276 
C 214.032004 130.498255 212.90474 130.031328 211.7295 130.031328 
C 210.55426 130.031328 209.426996 130.498255 208.595976 131.329276 
C 207.764955 132.160296 207.298027 133.28756 207.298027 134.4628 
C 207.298027 135.63804 207.764955 136.765304 208.595976 137.596324 
C 209.426996 138.427345 210.55426 138.894273 211.7295 138.894273 
z
" style="fill:#bb8bff;stroke:#bb8bff;stroke-linejoin:miter;stroke-width:1.5;"/>
   </g>
   <g id="patch_8">
    <path clip-path="url(#p5a983e2976)" d="M 196.957925 58.332375 
L 226.501075 58.332375 
L 226.501075 28.789225 
L 196.957925 28.789225 
z
" style="fill:#bb8bff;"/>
   </g>
   <g id="patch_9">
    <path clip-path="url(#p5a983e2976)" d="M 242.408925 103.783375 
L 271.952075 103.783375 
L 271.952075 74.240225 
L 242.408925 74.240225 
z
" style="fill:#bb8bff;"/>
   </g>
   <g id="patch_10">
    <path clip-path="url(#p5a983e2976)" d="M 242.408925 58.332375 
L 271.952075 58.332375 
L 271.952075 28.789225 
L 242.408925 28.789225 
z
" style="fill:#bb8bff;"/>
   </g>
   <g id="patch_11">
    <path clip-path="url(#p5a983e2976)" d="M 242.408925 149.234375 
L 271.952075 149.234375 
L 271.952075 119.691225 
L 242.408925 119.691225 
z
" style="fill:#bb8bff;"/>
   </g>
   <g id="patch_12">
    <path clip-path="url(#p5a983e2976)" d="M 302.6315 93.443273 
C 303.80674 93.443273 304.934004 92.976345 305.765024 92.145324 
C 306.596045 91.314304 307.062973 90.18704 307.062973 89.0118 
C 307.062973 87.83656 306.596045 86.709296 305.765024 85.878276 
C 304.934004 85.047255 303.80674 84.580328 302.6315 84.580328 
C 301.45626 84.580328 300.328996 85.047255 299.497976 85.878276 
C 298.666955 86.709296 298.200028 87.83656 298.200028 89.0118 
C 298.200028 90.18704 298.666955 91.314304 299.497976 92.145324 
C 300.328996 92.976345 301.45626 93.443273 302.6315 93.443273 
z
" style="fill:#bb8bff;stroke:#bb8bff;stroke-linejoin:miter;stroke-width:1.5;"/>
   </g>
   <g id="patch_13">
    <path clip-path="url(#p5a983e2976)" d="M 287.859925 149.234375 
L 317.403075 149.234375 
L 317.403075 119.691225 
L 287.859925 119.691225 
z
" style="fill:#bb8bff;"/>
   </g>
   <g id="patch_14">
    <path clip-path="url(#p5a983e2976)" d="M 348.0825 138.894273 
C 349.25774 138.894273 350.385004 138.427345 351.216024 137.596324 
C 352.047045 136.765304 352.513972 135.63804 352.513972 134.4628 
C 352.513972 133.28756 352.047045 132.160296 351.216024 131.329276 
C 350.385004 130.498255 349.25774 130.031328 348.0825 130.031328 
C 346.90726 130.031328 345.779996 130.498255 344.948976 131.329276 
C 344.117955 132.160296 343.651027 133.28756 343.651027 134.4628 
C 343.651027 135.63804 344.117955 136.765304 344.948976 137.596324 
C 345.779996 138.427345 346.90726 138.894273 348.0825 138.894273 
z
" style="fill:#bb8bff;stroke:#bb8bff;stroke-linejoin:miter;stroke-width:1.5;"/>
   </g>
   <g id="patch_15">
    <path clip-path="url(#p5a983e2976)" d="M 333.310925 58.332375 
L 362.854075 58.332375 
L 362.854075 28.789225 
L 333.310925 28.789225 
z
" style="fill:#bb8bff;"/>
   </g>
   <g id="patch_16">
    <path clip-path="url(#p5a983e2976)" d="M 378.761925 103.783375 
L 408.305075 103.783375 
L 408.305075 74.240225 
L 378.761925 74.240225 
z
" style="fill:#bb8bff;"/>
   </g>
   <g id="patch_17">
    <path clip-path="url(#p5a983e2976)" d="M 378.761925 58.332375 
L 408.305075 58.332375 
L 408.305075 28.789225 
L 378.761925 28.789225 
z
" style="fill:#bb8bff;"/>
   </g>
   <g id="patch_18">
    <path clip-path="url(#p5a983e2976)" d="M 378.761925 149.234375 
L 408.305075 149.234375 
L 408.305075 119.691225 
L 378.761925 119.691225 
z
" style="fill:#bb8bff;"/>
   </g>
   <g id="text_1">
    <g clip-path="url(#p5a983e2976)">
     <!-- $R_y$ -->
     <defs>
      <path d="M 25.203125 64.796875 
L 20.21875 38.921875 
L 32.90625 38.921875 
Q 40.375 38.921875 44.984375 43.046875 
Q 49.609375 47.171875 49.609375 53.8125 
Q 49.609375 59.125 46.5 61.953125 
Q 43.40625 64.796875 37.59375 64.796875 
z
M 43.3125 35.015625 
Q 46.4375 34.28125 48.515625 31.390625 
Q 50.59375 28.515625 53.328125 19.921875 
L 59.515625 0 
L 49.125 0 
L 43.40625 18.703125 
Q 41.21875 25.921875 38.328125 28.359375 
Q 35.453125 30.8125 29.5 30.8125 
L 18.609375 30.8125 
L 12.59375 0 
L 2.6875 0 
L 16.890625 72.90625 
L 39.109375 72.90625 
Q 49.21875 72.90625 54.609375 68.328125 
Q 60.015625 63.765625 60.015625 55.171875 
Q 60.015625 47.5625 55.421875 41.984375 
Q 50.828125 36.421875 43.3125 35.015625 
z
" id="DejaVuSans-Oblique-82"/>
      <path d="M 24.8125 -5.078125 
Q 18.5625 -15.578125 14.625 -18.1875 
Q 10.6875 -20.796875 4.59375 -20.796875 
L -2.484375 -20.796875 
L -0.984375 -13.28125 
L 4.203125 -13.28125 
Q 7.953125 -13.28125 10.59375 -11.234375 
Q 13.234375 -9.1875 16.5 -3.21875 
L 19.28125 2 
L 7.171875 54.6875 
L 16.703125 54.6875 
L 25.78125 12.796875 
L 50.875 54.6875 
L 60.296875 54.6875 
z
" id="DejaVuSans-Oblique-121"/>
     </defs>
     <g transform="translate(113.4175 41.859328)scale(0.13 -0.13)">
      <use transform="translate(0 0.09375)" xlink:href="#DejaVuSans-Oblique-82"/>
      <use transform="translate(69.482422 -16.3125)scale(0.7)" xlink:href="#DejaVuSans-Oblique-121"/>
     </g>
    </g>
   </g>
   <g id="text_2">
    <g clip-path="url(#p5a983e2976)">
     <!-- 1 -->
     <defs>
      <path d="M 12.40625 8.296875 
L 28.515625 8.296875 
L 28.515625 63.921875 
L 10.984375 60.40625 
L 10.984375 69.390625 
L 28.421875 72.90625 
L 38.28125 72.90625 
L 38.28125 8.296875 
L 54.390625 8.296875 
L 54.390625 0 
L 12.40625 0 
z
" id="DejaVuSans-49"/>
     </defs>
     <g transform="translate(118.2825 54.631245)scale(0.08 -0.08)">
      <use xlink:href="#DejaVuSans-49"/>
     </g>
    </g>
   </g>
   <g id="text_3">
    <g clip-path="url(#p5a983e2976)">
     <!-- $R_y$ -->
     <g transform="translate(113.4175 87.310328)scale(0.13 -0.13)">
      <use transform="translate(0 0.09375)" xlink:href="#DejaVuSans-Oblique-82"/>
      <use transform="translate(69.482422 -16.3125)scale(0.7)" xlink:href="#DejaVuSans-Oblique-121"/>
     </g>
    </g>
   </g>
   <g id="text_4">
    <g clip-path="url(#p5a983e2976)">
     <!-- 1 -->
     <g transform="translate(118.2825 100.082245)scale(0.08 -0.08)">
      <use xlink:href="#DejaVuSans-49"/>
     </g>
    </g>
   </g>
   <g id="text_5">
    <g clip-path="url(#p5a983e2976)">
     <!-- $R_y$ -->
     <g transform="translate(113.4175 132.761328)scale(0.13 -0.13)">
      <use transform="translate(0 0.09375)" xlink:href="#DejaVuSans-Oblique-82"/>
      <use transform="translate(69.482422 -16.3125)scale(0.7)" xlink:href="#DejaVuSans-Oblique-121"/>
     </g>
    </g>
   </g>
   <g id="text_6">
    <g clip-path="url(#p5a983e2976)">
     <!-- 1 -->
     <g transform="translate(118.2825 145.533245)scale(0.08 -0.08)">
      <use xlink:href="#DejaVuSans-49"/>
     </g>
    </g>
   </g>
   <g id="text_7">
    <g clip-path="url(#p5a983e2976)">
     <!-- $Z$ -->
     <defs>
      <path d="M 13.09375 72.90625 
L 70.3125 72.90625 
L 68.890625 65.375 
L 12.40625 8.296875 
L 58.890625 8.296875 
L 57.328125 0 
L -2.203125 0 
L -0.78125 7.515625 
L 55.71875 64.59375 
L 11.53125 64.59375 
z
" id="DejaVuSans-Oblique-90"/>
     </defs>
     <g transform="translate(161.7935 92.598988)scale(0.13 -0.13)">
      <use transform="translate(0 0.09375)" xlink:href="#DejaVuSans-Oblique-90"/>
     </g>
    </g>
   </g>
   <g id="text_8">
    <g clip-path="url(#p5a983e2976)">
     <!-- $Z$ -->
     <g transform="translate(207.2445 47.147988)scale(0.13 -0.13)">
      <use transform="translate(0 0.09375)" xlink:href="#DejaVuSans-Oblique-90"/>
     </g>
    </g>
   </g>
   <g id="text_9">
    <g clip-path="url(#p5a983e2976)">
     <!-- $R_y$ -->
     <g transform="translate(249.7705 87.310328)scale(0.13 -0.13)">
      <use transform="translate(0 0.09375)" xlink:href="#DejaVuSans-Oblique-82"/>
      <use transform="translate(69.482422 -16.3125)scale(0.7)" xlink:href="#DejaVuSans-Oblique-121"/>
     </g>
    </g>
   </g>
   <g id="text_10">
    <g clip-path="url(#p5a983e2976)">
     <!-- 1 -->
     <g transform="translate(254.6355 100.082245)scale(0.08 -0.08)">
      <use xlink:href="#DejaVuSans-49"/>
     </g>
    </g>
   </g>
   <g id="text_11">
    <g clip-path="url(#p5a983e2976)">
     <!-- $R_y$ -->
     <g transform="translate(249.7705 41.859328)scale(0.13 -0.13)">
      <use transform="translate(0 0.09375)" xlink:href="#DejaVuSans-Oblique-82"/>
      <use transform="translate(69.482422 -16.3125)scale(0.7)" xlink:href="#DejaVuSans-Oblique-121"/>
     </g>
    </g>
   </g>
   <g id="text_12">
    <g clip-path="url(#p5a983e2976)">
     <!-- 1 -->
     <g transform="translate(254.6355 54.631245)scale(0.08 -0.08)">
      <use xlink:href="#DejaVuSans-49"/>
     </g>
    </g>
   </g>
   <g id="text_13">
    <g clip-path="url(#p5a983e2976)">
     <!-- $R_y$ -->
     <g transform="translate(249.7705 132.761328)scale(0.13 -0.13)">
      <use transform="translate(0 0.09375)" xlink:href="#DejaVuSans-Oblique-82"/>
      <use transform="translate(69.482422 -16.3125)scale(0.7)" xlink:href="#DejaVuSans-Oblique-121"/>
     </g>
    </g>
   </g>
   <g id="text_14">
    <g clip-path="url(#p5a983e2976)">
     <!-- 1 -->
     <g transform="translate(254.6355 145.533245)scale(0.08 -0.08)">
      <use xlink:href="#DejaVuSans-49"/>
     </g>
    </g>
   </g>
   <g id="text_15">
    <g clip-path="url(#p5a983e2976)">
     <!-- $Z$ -->
     <g transform="translate(298.1465 138.049988)scale(0.13 -0.13)">
      <use transform="translate(0 0.09375)" xlink:href="#DejaVuSans-Oblique-90"/>
     </g>
    </g>
   </g>
   <g id="text_16">
    <g clip-path="url(#p5a983e2976)">
     <!-- $Z$ -->
     <g transform="translate(343.5975 47.147988)scale(0.13 -0.13)">
      <use transform="translate(0 0.09375)" xlink:href="#DejaVuSans-Oblique-90"/>
     </g>
    </g>
   </g>
   <g id="text_17">
    <g clip-path="url(#p5a983e2976)">
     <!-- $R_y$ -->
     <g transform="translate(386.1235 87.310328)scale(0.13 -0.13)">
      <use transform="translate(0 0.09375)" xlink:href="#DejaVuSans-Oblique-82"/>
      <use transform="translate(69.482422 -16.3125)scale(0.7)" xlink:href="#DejaVuSans-Oblique-121"/>
     </g>
    </g>
   </g>
   <g id="text_18">
    <g clip-path="url(#p5a983e2976)">
     <!-- 1 -->
     <g transform="translate(390.9885 100.082245)scale(0.08 -0.08)">
      <use xlink:href="#DejaVuSans-49"/>
     </g>
    </g>
   </g>
   <g id="text_19">
    <g clip-path="url(#p5a983e2976)">
     <!-- $R_y$ -->
     <g transform="translate(386.1235 41.859328)scale(0.13 -0.13)">
      <use transform="translate(0 0.09375)" xlink:href="#DejaVuSans-Oblique-82"/>
      <use transform="translate(69.482422 -16.3125)scale(0.7)" xlink:href="#DejaVuSans-Oblique-121"/>
     </g>
    </g>
   </g>
   <g id="text_20">
    <g clip-path="url(#p5a983e2976)">
     <!-- 1 -->
     <g transform="translate(390.9885 54.631245)scale(0.08 -0.08)">
      <use xlink:href="#DejaVuSans-49"/>
     </g>
    </g>
   </g>
   <g id="text_21">
    <g clip-path="url(#p5a983e2976)">
     <!-- $R_y$ -->
     <g transform="translate(386.1235 132.761328)scale(0.13 -0.13)">
      <use transform="translate(0 0.09375)" xlink:href="#DejaVuSans-Oblique-82"/>
      <use transform="translate(69.482422 -16.3125)scale(0.7)" xlink:href="#DejaVuSans-Oblique-121"/>
     </g>
    </g>
   </g>
   <g id="text_22">
    <g clip-path="url(#p5a983e2976)">
     <!-- 1 -->
     <g transform="translate(390.9885 145.533245)scale(0.08 -0.08)">
      <use xlink:href="#DejaVuSans-49"/>
     </g>
    </g>
   </g>
   <g id="text_23">
    <g clip-path="url(#p5a983e2976)">
     <!-- $q_{0}$ -->
     <defs>
      <path d="M 41.703125 8.203125 
Q 38.09375 3.46875 33.171875 1.015625 
Q 28.265625 -1.421875 22.3125 -1.421875 
Q 14.015625 -1.421875 9.296875 4.171875 
Q 4.59375 9.765625 4.59375 19.578125 
Q 4.59375 27.484375 7.5 34.859375 
Q 10.40625 42.234375 15.828125 48.09375 
Q 19.34375 51.90625 23.90625 53.953125 
Q 28.46875 56 33.5 56 
Q 39.546875 56 43.453125 53.609375 
Q 47.359375 51.21875 49.125 46.390625 
L 50.6875 54.59375 
L 59.71875 54.59375 
L 45.125 -20.609375 
L 36.078125 -20.609375 
z
M 13.921875 20.90625 
Q 13.921875 13.671875 16.9375 9.890625 
Q 19.96875 6.109375 25.6875 6.109375 
Q 34.1875 6.109375 40.1875 14.234375 
Q 46.1875 22.359375 46.1875 33.984375 
Q 46.1875 41.015625 43.078125 44.75 
Q 39.984375 48.484375 34.1875 48.484375 
Q 29.9375 48.484375 26.3125 46.5 
Q 22.703125 44.53125 20.015625 40.71875 
Q 17.1875 36.71875 15.546875 31.34375 
Q 13.921875 25.984375 13.921875 20.90625 
z
" id="DejaVuSans-Oblique-113"/>
      <path d="M 31.78125 66.40625 
Q 24.171875 66.40625 20.328125 58.90625 
Q 16.5 51.421875 16.5 36.375 
Q 16.5 21.390625 20.328125 13.890625 
Q 24.171875 6.390625 31.78125 6.390625 
Q 39.453125 6.390625 43.28125 13.890625 
Q 47.125 21.390625 47.125 36.375 
Q 47.125 51.421875 43.28125 58.90625 
Q 39.453125 66.40625 31.78125 66.40625 
z
M 31.78125 74.21875 
Q 44.046875 74.21875 50.515625 64.515625 
Q 56.984375 54.828125 56.984375 36.375 
Q 56.984375 17.96875 50.515625 8.265625 
Q 44.046875 -1.421875 31.78125 -1.421875 
Q 19.53125 -1.421875 13.0625 8.265625 
Q 6.59375 17.96875 6.59375 36.375 
Q 6.59375 54.828125 13.0625 64.515625 
Q 19.53125 74.21875 31.78125 74.21875 
z
" id="DejaVuSans-48"/>
     </defs>
     <g transform="translate(57.339 48.011777)scale(0.1625 -0.1625)">
      <use xlink:href="#DejaVuSans-Oblique-113"/>
      <use transform="translate(63.476562 -16.40625)scale(0.7)" xlink:href="#DejaVuSans-48"/>
     </g>
    </g>
   </g>
   <g id="text_24">
    <g clip-path="url(#p5a983e2976)">
     <!-- $q_{1}$ -->
     <g transform="translate(57.339 93.462777)scale(0.1625 -0.1625)">
      <use xlink:href="#DejaVuSans-Oblique-113"/>
      <use transform="translate(63.476562 -16.40625)scale(0.7)" xlink:href="#DejaVuSans-49"/>
     </g>
    </g>
   </g>
   <g id="text_25">
    <g clip-path="url(#p5a983e2976)">
     <!-- $q_{2}$ -->
     <defs>
      <path d="M 19.1875 8.296875 
L 53.609375 8.296875 
L 53.609375 0 
L 7.328125 0 
L 7.328125 8.296875 
Q 12.9375 14.109375 22.625 23.890625 
Q 32.328125 33.6875 34.8125 36.53125 
Q 39.546875 41.84375 41.421875 45.53125 
Q 43.3125 49.21875 43.3125 52.78125 
Q 43.3125 58.59375 39.234375 62.25 
Q 35.15625 65.921875 28.609375 65.921875 
Q 23.96875 65.921875 18.8125 64.3125 
Q 13.671875 62.703125 7.8125 59.421875 
L 7.8125 69.390625 
Q 13.765625 71.78125 18.9375 73 
Q 24.125 74.21875 28.421875 74.21875 
Q 39.75 74.21875 46.484375 68.546875 
Q 53.21875 62.890625 53.21875 53.421875 
Q 53.21875 48.921875 51.53125 44.890625 
Q 49.859375 40.875 45.40625 35.40625 
Q 44.1875 33.984375 37.640625 27.21875 
Q 31.109375 20.453125 19.1875 8.296875 
z
" id="DejaVuSans-50"/>
     </defs>
     <g transform="translate(57.339 138.913777)scale(0.1625 -0.1625)">
      <use xlink:href="#DejaVuSans-Oblique-113"/>
      <use transform="translate(63.476562 -16.40625)scale(0.7)" xlink:href="#DejaVuSans-50"/>
     </g>
    </g>
   </g>
  </g>
 </g>
 <defs>
  <clipPath id="p5a983e2976">
   <rect height="154.5334" width="436.3296" x="7.2" y="7.2"/>
  </clipPath>
 </defs>
</svg>
