<?xml version="1.0" encoding="utf-8" standalone="no"?>
<!DOCTYPE svg PUBLIC "-//W3C//DTD SVG 1.1//EN"
  "http://www.w3.org/Graphics/SVG/1.1/DTD/svg11.dtd">
<!-- Created with matplotlib (https://matplotlib.org/) -->
<svg height="214.3844pt" version="1.1" viewBox="0 0 541.6316 214.3844" width="541.6316pt" xmlns="http://www.w3.org/2000/svg" xmlns:xlink="http://www.w3.org/1999/xlink">
 <defs>
  <style type="text/css">
*{stroke-linecap:butt;stroke-linejoin:round;}
  </style>
 </defs>
 <g id="figure_1">
  <g id="patch_1">
   <path d="M 0 214.3844 
L 541.6316 214.3844 
L 541.6316 0 
L 0 0 
z
" style="fill:#ffffff;"/>
  </g>
  <g id="axes_1">
   <g id="line2d_1">
    <path clip-path="url(#pb04a39414f)" d="M 98.102 43.5608 
L 529.8865 43.5608 
" style="fill:none;stroke:#000000;stroke-linecap:square;stroke-width:2;"/>
   </g>
   <g id="line2d_2">
    <path clip-path="url(#pb04a39414f)" d="M 98.102 89.0118 
L 529.8865 89.0118 
" style="fill:none;stroke:#000000;stroke-linecap:square;stroke-width:2;"/>
   </g>
   <g id="line2d_3">
    <path clip-path="url(#pb04a39414f)" d="M 98.102 134.4628 
L 529.8865 134.4628 
" style="fill:none;stroke:#000000;stroke-linecap:square;stroke-width:2;"/>
   </g>
   <g id="line2d_4">
    <path clip-path="url(#pb04a39414f)" d="M 98.102 179.9138 
L 529.8865 179.9138 
" style="fill:none;stroke:#000000;stroke-linecap:square;stroke-width:2;"/>
   </g>
   <g id="line2d_5">
    <path clip-path="url(#pb04a39414f)" d="M 166.2785 134.4628 
L 166.2785 89.0118 
" style="fill:none;stroke:#bb8bff;stroke-linecap:square;stroke-width:2;"/>
   </g>
   <g id="line2d_6">
    <path clip-path="url(#pb04a39414f)" d="M 211.7295 179.9138 
L 211.7295 89.0118 
" style="fill:none;stroke:#bb8bff;stroke-linecap:square;stroke-width:2;"/>
   </g>
   <g id="line2d_7">
    <path clip-path="url(#pb04a39414f)" d="M 302.6315 179.9138 
L 302.6315 134.4628 
" style="fill:none;stroke:#bb8bff;stroke-linecap:square;stroke-width:2;"/>
   </g>
   <g id="line2d_8">
    <path clip-path="url(#pb04a39414f)" d="M 348.0825 179.9138 
L 348.0825 89.0118 
" style="fill:none;stroke:#bb8bff;stroke-linecap:square;stroke-width:2;"/>
   </g>
   <g id="line2d_9">
    <path clip-path="url(#pb04a39414f)" d="M 438.9845 179.9138 
L 438.9845 43.5608 
" style="fill:none;stroke:#bb8bff;stroke-linecap:square;stroke-width:2;"/>
   </g>
   <g id="patch_2">
    <path clip-path="url(#pb04a39414f)" d="M 106.055925 58.332375 
L 135.599075 58.332375 
L 135.599075 28.789225 
L 106.055925 28.789225 
z
" style="fill:#6fa4ff;"/>
   </g>
   <g id="patch_3">
    <path clip-path="url(#pb04a39414f)" d="M 106.055925 103.783375 
L 135.599075 103.783375 
L 135.599075 74.240225 
L 106.055925 74.240225 
z
" style="fill:#bb8bff;"/>
   </g>
   <g id="patch_4">
    <path clip-path="url(#pb04a39414f)" d="M 106.055925 149.234375 
L 135.599075 149.234375 
L 135.599075 119.691225 
L 106.055925 119.691225 
z
" style="fill:#bb8bff;"/>
   </g>
   <g id="patch_5">
    <path clip-path="url(#pb04a39414f)" d="M 106.055925 194.685375 
L 135.599075 194.685375 
L 135.599075 165.142225 
L 106.055925 165.142225 
z
" style="fill:#bb8bff;"/>
   </g>
   <g id="patch_6">
    <path clip-path="url(#pb04a39414f)" d="M 166.2785 93.443273 
C 167.45374 93.443273 168.581004 92.976345 169.412024 92.145324 
C 170.243045 91.314304 170.709972 90.18704 170.709972 89.0118 
C 170.709972 87.83656 170.243045 86.709296 169.412024 85.878276 
C 168.581004 85.047255 167.45374 84.580328 166.2785 84.580328 
C 165.10326 84.580328 163.975996 85.047255 163.144976 85.878276 
C 162.313955 86.709296 161.847027 87.83656 161.847027 89.0118 
C 161.847027 90.18704 162.313955 91.314304 163.144976 92.145324 
C 163.975996 92.976345 165.10326 93.443273 166.2785 93.443273 
z
" style="fill:#bb8bff;stroke:#bb8bff;stroke-linejoin:miter;stroke-width:1.5;"/>
   </g>
   <g id="patch_7">
    <path clip-path="url(#pb04a39414f)" d="M 151.506925 149.234375 
L 181.050075 149.234375 
L 181.050075 119.691225 
L 151.506925 119.691225 
z
" style="fill:#bb8bff;"/>
   </g>
   <g id="patch_8">
    <path clip-path="url(#pb04a39414f)" d="M 211.7295 184.345272 
C 212.90474 184.345272 214.032004 183.878345 214.863024 183.047324 
C 215.694045 182.216304 216.160972 181.08904 216.160972 179.9138 
C 216.160972 178.73856 215.694045 177.611296 214.863024 176.780276 
C 214.032004 175.949255 212.90474 175.482327 211.7295 175.482327 
C 210.55426 175.482327 209.426996 175.949255 208.595976 176.780276 
C 207.764955 177.611296 207.298027 178.73856 207.298027 179.9138 
C 207.298027 181.08904 207.764955 182.216304 208.595976 183.047324 
C 209.426996 183.878345 210.55426 184.345272 211.7295 184.345272 
z
" style="fill:#bb8bff;stroke:#bb8bff;stroke-linejoin:miter;stroke-width:1.5;"/>
   </g>
   <g id="patch_9">
    <path clip-path="url(#pb04a39414f)" d="M 196.957925 103.783375 
L 226.501075 103.783375 
L 226.501075 74.240225 
L 196.957925 74.240225 
z
" style="fill:#bb8bff;"/>
   </g>
   <g id="patch_10">
    <path clip-path="url(#pb04a39414f)" d="M 242.408925 149.234375 
L 271.952075 149.234375 
L 271.952075 119.691225 
L 242.408925 119.691225 
z
" style="fill:#bb8bff;"/>
   </g>
   <g id="patch_11">
    <path clip-path="url(#pb04a39414f)" d="M 242.408925 103.783375 
L 271.952075 103.783375 
L 271.952075 74.240225 
L 242.408925 74.240225 
z
" style="fill:#bb8bff;"/>
   </g>
   <g id="patch_12">
    <path clip-path="url(#pb04a39414f)" d="M 242.408925 194.685375 
L 271.952075 194.685375 
L 271.952075 165.142225 
L 242.408925 165.142225 
z
" style="fill:#bb8bff;"/>
   </g>
   <g id="patch_13">
    <path clip-path="url(#pb04a39414f)" d="M 302.6315 138.894273 
C 303.80674 138.894273 304.934004 138.427345 305.765024 137.596324 
C 306.596045 136.765304 307.062972 135.63804 307.062972 134.4628 
C 307.062972 133.28756 306.596045 132.160296 305.765024 131.329276 
C 304.934004 130.498255 303.80674 130.031328 302.6315 130.031328 
C 301.45626 130.031328 300.328996 130.498255 299.497976 131.329276 
C 298.666955 132.160296 298.200027 133.28756 298.200027 134.4628 
C 298.200027 135.63804 298.666955 136.765304 299.497976 137.596324 
C 300.328996 138.427345 301.45626 138.894273 302.6315 138.894273 
z
" style="fill:#bb8bff;stroke:#bb8bff;stroke-linejoin:miter;stroke-width:1.5;"/>
   </g>
   <g id="patch_14">
    <path clip-path="url(#pb04a39414f)" d="M 287.859925 194.685375 
L 317.403075 194.685375 
L 317.403075 165.142225 
L 287.859925 165.142225 
z
" style="fill:#bb8bff;"/>
   </g>
   <g id="patch_15">
    <path clip-path="url(#pb04a39414f)" d="M 348.0825 184.345272 
C 349.25774 184.345272 350.385004 183.878345 351.216024 183.047324 
C 352.047045 182.216304 352.513972 181.08904 352.513972 179.9138 
C 352.513972 178.73856 352.047045 177.611296 351.216024 176.780276 
C 350.385004 175.949255 349.25774 175.482327 348.0825 175.482327 
C 346.90726 175.482327 345.779996 175.949255 344.948976 176.780276 
C 344.117955 177.611296 343.651027 178.73856 343.651027 179.9138 
C 343.651027 181.08904 344.117955 182.216304 344.948976 183.047324 
C 345.779996 183.878345 346.90726 184.345272 348.0825 184.345272 
z
" style="fill:#bb8bff;stroke:#bb8bff;stroke-linejoin:miter;stroke-width:1.5;"/>
   </g>
   <g id="patch_16">
    <path clip-path="url(#pb04a39414f)" d="M 333.310925 103.783375 
L 362.854075 103.783375 
L 362.854075 74.240225 
L 333.310925 74.240225 
z
" style="fill:#bb8bff;"/>
   </g>
   <g id="patch_17">
    <path clip-path="url(#pb04a39414f)" d="M 378.761925 149.234375 
L 408.305075 149.234375 
L 408.305075 119.691225 
L 378.761925 119.691225 
z
" style="fill:#bb8bff;"/>
   </g>
   <g id="patch_18">
    <path clip-path="url(#pb04a39414f)" d="M 378.761925 103.783375 
L 408.305075 103.783375 
L 408.305075 74.240225 
L 378.761925 74.240225 
z
" style="fill:#bb8bff;"/>
   </g>
   <g id="patch_19">
    <path clip-path="url(#pb04a39414f)" d="M 378.761925 194.685375 
L 408.305075 194.685375 
L 408.305075 165.142225 
L 378.761925 165.142225 
z
" style="fill:#bb8bff;"/>
   </g>
   <g id="patch_20">
    <path clip-path="url(#pb04a39414f)" d="M 438.9845 47.992273 
C 440.15974 47.992273 441.287004 47.525345 442.118024 46.694324 
C 442.949045 45.863304 443.415972 44.73604 443.415972 43.5608 
C 443.415972 42.38556 442.949045 41.258296 442.118024 40.427276 
C 441.287004 39.596255 440.15974 39.129328 438.9845 39.129328 
C 437.80926 39.129328 436.681996 39.596255 435.850976 40.427276 
C 435.019955 41.258296 434.553027 42.38556 434.553027 43.5608 
C 434.553027 44.73604 435.019955 45.863304 435.850976 46.694324 
C 436.681996 47.525345 437.80926 47.992273 438.9845 47.992273 
z
" style="fill:#bb8bff;stroke:#bb8bff;stroke-linejoin:miter;stroke-width:1.5;"/>
   </g>
   <g id="patch_21">
    <path clip-path="url(#pb04a39414f)" d="M 424.212925 194.685375 
L 453.756075 194.685375 
L 453.756075 165.142225 
L 424.212925 165.142225 
z
" style="fill:#bb8bff;"/>
   </g>
   <g id="patch_22">
    <path clip-path="url(#pb04a39414f)" d="M 469.663925 58.332375 
L 499.207075 58.332375 
L 499.207075 28.789225 
L 469.663925 28.789225 
z
" style="fill:#6fa4ff;"/>
   </g>
   <g id="text_1">
    <g clip-path="url(#pb04a39414f)">
     <!-- $H$ -->
     <defs>
      <path d="M 16.890625 72.90625 
L 26.8125 72.90625 
L 21 43.015625 
L 56.78125 43.015625 
L 62.59375 72.90625 
L 72.515625 72.90625 
L 58.296875 0 
L 48.390625 0 
L 55.171875 34.71875 
L 19.390625 34.71875 
L 12.59375 0 
L 2.6875 0 
z
" id="DejaVuSans-Oblique-72"/>
     </defs>
     <g transform="translate(115.8875 47.147988)scale(0.13 -0.13)">
      <use transform="translate(0 0.09375)" xlink:href="#DejaVuSans-Oblique-72"/>
     </g>
    </g>
   </g>
   <g id="text_2">
    <g clip-path="url(#pb04a39414f)">
     <!-- $R_y$ -->
     <defs>
      <path d="M 25.203125 64.796875 
L 20.21875 38.921875 
L 32.90625 38.921875 
Q 40.375 38.921875 44.984375 43.046875 
Q 49.609375 47.171875 49.609375 53.8125 
Q 49.609375 59.125 46.5 61.953125 
Q 43.40625 64.796875 37.59375 64.796875 
z
M 43.3125 35.015625 
Q 46.4375 34.28125 48.515625 31.390625 
Q 50.59375 28.515625 53.328125 19.921875 
L 59.515625 0 
L 49.125 0 
L 43.40625 18.703125 
Q 41.21875 25.921875 38.328125 28.359375 
Q 35.453125 30.8125 29.5 30.8125 
L 18.609375 30.8125 
L 12.59375 0 
L 2.6875 0 
L 16.890625 72.90625 
L 39.109375 72.90625 
Q 49.21875 72.90625 54.609375 68.328125 
Q 60.015625 63.765625 60.015625 55.171875 
Q 60.015625 47.5625 55.421875 41.984375 
Q 50.828125 36.421875 43.3125 35.015625 
z
" id="DejaVuSans-Oblique-82"/>
      <path d="M 24.8125 -5.078125 
Q 18.5625 -15.578125 14.625 -18.1875 
Q 10.6875 -20.796875 4.59375 -20.796875 
L -2.484375 -20.796875 
L -0.984375 -13.28125 
L 4.203125 -13.28125 
Q 7.953125 -13.28125 10.59375 -11.234375 
Q 13.234375 -9.1875 16.5 -3.21875 
L 19.28125 2 
L 7.171875 54.6875 
L 16.703125 54.6875 
L 25.78125 12.796875 
L 50.875 54.6875 
L 60.296875 54.6875 
z
" id="DejaVuSans-Oblique-121"/>
     </defs>
     <g transform="translate(113.4175 87.310328)scale(0.13 -0.13)">
      <use transform="translate(0 0.09375)" xlink:href="#DejaVuSans-Oblique-82"/>
      <use transform="translate(69.482422 -16.3125)scale(0.7)" xlink:href="#DejaVuSans-Oblique-121"/>
     </g>
    </g>
   </g>
   <g id="text_3">
    <g clip-path="url(#pb04a39414f)">
     <!-- 1 -->
     <defs>
      <path d="M 12.40625 8.296875 
L 28.515625 8.296875 
L 28.515625 63.921875 
L 10.984375 60.40625 
L 10.984375 69.390625 
L 28.421875 72.90625 
L 38.28125 72.90625 
L 38.28125 8.296875 
L 54.390625 8.296875 
L 54.390625 0 
L 12.40625 0 
z
" id="DejaVuSans-49"/>
     </defs>
     <g transform="translate(118.2825 100.082245)scale(0.08 -0.08)">
      <use xlink:href="#DejaVuSans-49"/>
     </g>
    </g>
   </g>
   <g id="text_4">
    <g clip-path="url(#pb04a39414f)">
     <!-- $R_y$ -->
     <g transform="translate(113.4175 132.761327)scale(0.13 -0.13)">
      <use transform="translate(0 0.09375)" xlink:href="#DejaVuSans-Oblique-82"/>
      <use transform="translate(69.482422 -16.3125)scale(0.7)" xlink:href="#DejaVuSans-Oblique-121"/>
     </g>
    </g>
   </g>
   <g id="text_5">
    <g clip-path="url(#pb04a39414f)">
     <!-- 1 -->
     <g transform="translate(118.2825 145.533245)scale(0.08 -0.08)">
      <use xlink:href="#DejaVuSans-49"/>
     </g>
    </g>
   </g>
   <g id="text_6">
    <g clip-path="url(#pb04a39414f)">
     <!-- $R_y$ -->
     <g transform="translate(113.4175 178.212327)scale(0.13 -0.13)">
      <use transform="translate(0 0.09375)" xlink:href="#DejaVuSans-Oblique-82"/>
      <use transform="translate(69.482422 -16.3125)scale(0.7)" xlink:href="#DejaVuSans-Oblique-121"/>
     </g>
    </g>
   </g>
   <g id="text_7">
    <g clip-path="url(#pb04a39414f)">
     <!-- 1 -->
     <g transform="translate(118.2825 190.984245)scale(0.08 -0.08)">
      <use xlink:href="#DejaVuSans-49"/>
     </g>
    </g>
   </g>
   <g id="text_8">
    <g clip-path="url(#pb04a39414f)">
     <!-- $Z$ -->
     <defs>
      <path d="M 13.09375 72.90625 
L 70.3125 72.90625 
L 68.890625 65.375 
L 12.40625 8.296875 
L 58.890625 8.296875 
L 57.328125 0 
L -2.203125 0 
L -0.78125 7.515625 
L 55.71875 64.59375 
L 11.53125 64.59375 
z
" id="DejaVuSans-Oblique-90"/>
     </defs>
     <g transform="translate(161.7935 138.049987)scale(0.13 -0.13)">
      <use transform="translate(0 0.09375)" xlink:href="#DejaVuSans-Oblique-90"/>
     </g>
    </g>
   </g>
   <g id="text_9">
    <g clip-path="url(#pb04a39414f)">
     <!-- $Z$ -->
     <g transform="translate(207.2445 92.598988)scale(0.13 -0.13)">
      <use transform="translate(0 0.09375)" xlink:href="#DejaVuSans-Oblique-90"/>
     </g>
    </g>
   </g>
   <g id="text_10">
    <g clip-path="url(#pb04a39414f)">
     <!-- $R_y$ -->
     <g transform="translate(249.7705 132.761327)scale(0.13 -0.13)">
      <use transform="translate(0 0.09375)" xlink:href="#DejaVuSans-Oblique-82"/>
      <use transform="translate(69.482422 -16.3125)scale(0.7)" xlink:href="#DejaVuSans-Oblique-121"/>
     </g>
    </g>
   </g>
   <g id="text_11">
    <g clip-path="url(#pb04a39414f)">
     <!-- 1 -->
     <g transform="translate(254.6355 145.533245)scale(0.08 -0.08)">
      <use xlink:href="#DejaVuSans-49"/>
     </g>
    </g>
   </g>
   <g id="text_12">
    <g clip-path="url(#pb04a39414f)">
     <!-- $R_y$ -->
     <g transform="translate(249.7705 87.310328)scale(0.13 -0.13)">
      <use transform="translate(0 0.09375)" xlink:href="#DejaVuSans-Oblique-82"/>
      <use transform="translate(69.482422 -16.3125)scale(0.7)" xlink:href="#DejaVuSans-Oblique-121"/>
     </g>
    </g>
   </g>
   <g id="text_13">
    <g clip-path="url(#pb04a39414f)">
     <!-- 1 -->
     <g transform="translate(254.6355 100.082245)scale(0.08 -0.08)">
      <use xlink:href="#DejaVuSans-49"/>
     </g>
    </g>
   </g>
   <g id="text_14">
    <g clip-path="url(#pb04a39414f)">
     <!-- $R_y$ -->
     <g transform="translate(249.7705 178.212327)scale(0.13 -0.13)">
      <use transform="translate(0 0.09375)" xlink:href="#DejaVuSans-Oblique-82"/>
      <use transform="translate(69.482422 -16.3125)scale(0.7)" xlink:href="#DejaVuSans-Oblique-121"/>
     </g>
    </g>
   </g>
   <g id="text_15">
    <g clip-path="url(#pb04a39414f)">
     <!-- 1 -->
     <g transform="translate(254.6355 190.984245)scale(0.08 -0.08)">
      <use xlink:href="#DejaVuSans-49"/>
     </g>
    </g>
   </g>
   <g id="text_16">
    <g clip-path="url(#pb04a39414f)">
     <!-- $Z$ -->
     <g transform="translate(298.1465 183.500987)scale(0.13 -0.13)">
      <use transform="translate(0 0.09375)" xlink:href="#DejaVuSans-Oblique-90"/>
     </g>
    </g>
   </g>
   <g id="text_17">
    <g clip-path="url(#pb04a39414f)">
     <!-- $Z$ -->
     <g transform="translate(343.5975 92.598988)scale(0.13 -0.13)">
      <use transform="translate(0 0.09375)" xlink:href="#DejaVuSans-Oblique-90"/>
     </g>
    </g>
   </g>
   <g id="text_18">
    <g clip-path="url(#pb04a39414f)">
     <!-- $R_y$ -->
     <g transform="translate(386.1235 132.761327)scale(0.13 -0.13)">
      <use transform="translate(0 0.09375)" xlink:href="#DejaVuSans-Oblique-82"/>
      <use transform="translate(69.482422 -16.3125)scale(0.7)" xlink:href="#DejaVuSans-Oblique-121"/>
     </g>
    </g>
   </g>
   <g id="text_19">
    <g clip-path="url(#pb04a39414f)">
     <!-- 1 -->
     <g transform="translate(390.9885 145.533245)scale(0.08 -0.08)">
      <use xlink:href="#DejaVuSans-49"/>
     </g>
    </g>
   </g>
   <g id="text_20">
    <g clip-path="url(#pb04a39414f)">
     <!-- $R_y$ -->
     <g transform="translate(386.1235 87.310328)scale(0.13 -0.13)">
      <use transform="translate(0 0.09375)" xlink:href="#DejaVuSans-Oblique-82"/>
      <use transform="translate(69.482422 -16.3125)scale(0.7)" xlink:href="#DejaVuSans-Oblique-121"/>
     </g>
    </g>
   </g>
   <g id="text_21">
    <g clip-path="url(#pb04a39414f)">
     <!-- 1 -->
     <g transform="translate(390.9885 100.082245)scale(0.08 -0.08)">
      <use xlink:href="#DejaVuSans-49"/>
     </g>
    </g>
   </g>
   <g id="text_22">
    <g clip-path="url(#pb04a39414f)">
     <!-- $R_y$ -->
     <g transform="translate(386.1235 178.212327)scale(0.13 -0.13)">
      <use transform="translate(0 0.09375)" xlink:href="#DejaVuSans-Oblique-82"/>
      <use transform="translate(69.482422 -16.3125)scale(0.7)" xlink:href="#DejaVuSans-Oblique-121"/>
     </g>
    </g>
   </g>
   <g id="text_23">
    <g clip-path="url(#pb04a39414f)">
     <!-- 1 -->
     <g transform="translate(390.9885 190.984245)scale(0.08 -0.08)">
      <use xlink:href="#DejaVuSans-49"/>
     </g>
    </g>
   </g>
   <g id="text_24">
    <g clip-path="url(#pb04a39414f)">
     <!-- $Z$ -->
     <g transform="translate(434.4995 183.500987)scale(0.13 -0.13)">
      <use transform="translate(0 0.09375)" xlink:href="#DejaVuSans-Oblique-90"/>
     </g>
    </g>
   </g>
   <g id="text_25">
    <g clip-path="url(#pb04a39414f)">
     <!-- $H$ -->
     <g transform="translate(479.4955 47.147988)scale(0.13 -0.13)">
      <use transform="translate(0 0.09375)" xlink:href="#DejaVuSans-Oblique-72"/>
     </g>
    </g>
   </g>
   <g id="text_26">
    <g clip-path="url(#pb04a39414f)">
     <!-- $q_{0}$ -->
     <defs>
      <path d="M 41.703125 8.203125 
Q 38.09375 3.46875 33.171875 1.015625 
Q 28.265625 -1.421875 22.3125 -1.421875 
Q 14.015625 -1.421875 9.296875 4.171875 
Q 4.59375 9.765625 4.59375 19.578125 
Q 4.59375 27.484375 7.5 34.859375 
Q 10.40625 42.234375 15.828125 48.09375 
Q 19.34375 51.90625 23.90625 53.953125 
Q 28.46875 56 33.5 56 
Q 39.546875 56 43.453125 53.609375 
Q 47.359375 51.21875 49.125 46.390625 
L 50.6875 54.59375 
L 59.71875 54.59375 
L 45.125 -20.609375 
L 36.078125 -20.609375 
z
M 13.921875 20.90625 
Q 13.921875 13.671875 16.9375 9.890625 
Q 19.96875 6.109375 25.6875 6.109375 
Q 34.1875 6.109375 40.1875 14.234375 
Q 46.1875 22.359375 46.1875 33.984375 
Q 46.1875 41.015625 43.078125 44.75 
Q 39.984375 48.484375 34.1875 48.484375 
Q 29.9375 48.484375 26.3125 46.5 
Q 22.703125 44.53125 20.015625 40.71875 
Q 17.1875 36.71875 15.546875 31.34375 
Q 13.921875 25.984375 13.921875 20.90625 
z
" id="DejaVuSans-Oblique-113"/>
      <path d="M 31.78125 66.40625 
Q 24.171875 66.40625 20.328125 58.90625 
Q 16.5 51.421875 16.5 36.375 
Q 16.5 21.390625 20.328125 13.890625 
Q 24.171875 6.390625 31.78125 6.390625 
Q 39.453125 6.390625 43.28125 13.890625 
Q 47.125 21.390625 47.125 36.375 
Q 47.125 51.421875 43.28125 58.90625 
Q 39.453125 66.40625 31.78125 66.40625 
z
M 31.78125 74.21875 
Q 44.046875 74.21875 50.515625 64.515625 
Q 56.984375 54.828125 56.984375 36.375 
Q 56.984375 17.96875 50.515625 8.265625 
Q 44.046875 -1.421875 31.78125 -1.421875 
Q 19.53125 -1.421875 13.0625 8.265625 
Q 6.59375 17.96875 6.59375 36.375 
Q 6.59375 54.828125 13.0625 64.515625 
Q 19.53125 74.21875 31.78125 74.21875 
z
" id="DejaVuSans-48"/>
     </defs>
     <g transform="translate(57.339 48.011777)scale(0.1625 -0.1625)">
      <use xlink:href="#DejaVuSans-Oblique-113"/>
      <use transform="translate(63.476562 -16.40625)scale(0.7)" xlink:href="#DejaVuSans-48"/>
     </g>
    </g>
   </g>
   <g id="text_27">
    <g clip-path="url(#pb04a39414f)">
     <!-- $q_{1}$ -->
     <g transform="translate(57.339 93.462777)scale(0.1625 -0.1625)">
      <use xlink:href="#DejaVuSans-Oblique-113"/>
      <use transform="translate(63.476562 -16.40625)scale(0.7)" xlink:href="#DejaVuSans-49"/>
     </g>
    </g>
   </g>
   <g id="text_28">
    <g clip-path="url(#pb04a39414f)">
     <!-- $q_{2}$ -->
     <defs>
      <path d="M 19.1875 8.296875 
L 53.609375 8.296875 
L 53.609375 0 
L 7.328125 0 
L 7.328125 8.296875 
Q 12.9375 14.109375 22.625 23.890625 
Q 32.328125 33.6875 34.8125 36.53125 
Q 39.546875 41.84375 41.421875 45.53125 
Q 43.3125 49.21875 43.3125 52.78125 
Q 43.3125 58.59375 39.234375 62.25 
Q 35.15625 65.921875 28.609375 65.921875 
Q 23.96875 65.921875 18.8125 64.3125 
Q 13.671875 62.703125 7.8125 59.421875 
L 7.8125 69.390625 
Q 13.765625 71.78125 18.9375 73 
Q 24.125 74.21875 28.421875 74.21875 
Q 39.75 74.21875 46.484375 68.546875 
Q 53.21875 62.890625 53.21875 53.421875 
Q 53.21875 48.921875 51.53125 44.890625 
Q 49.859375 40.875 45.40625 35.40625 
Q 44.1875 33.984375 37.640625 27.21875 
Q 31.109375 20.453125 19.1875 8.296875 
z
" id="DejaVuSans-50"/>
     </defs>
     <g transform="translate(57.339 138.913777)scale(0.1625 -0.1625)">
      <use xlink:href="#DejaVuSans-Oblique-113"/>
      <use transform="translate(63.476562 -16.40625)scale(0.7)" xlink:href="#DejaVuSans-50"/>
     </g>
    </g>
   </g>
   <g id="text_29">
    <g clip-path="url(#pb04a39414f)">
     <!-- $q_{3}$ -->
     <defs>
      <path d="M 40.578125 39.3125 
Q 47.65625 37.796875 51.625 33 
Q 55.609375 28.21875 55.609375 21.1875 
Q 55.609375 10.40625 48.1875 4.484375 
Q 40.765625 -1.421875 27.09375 -1.421875 
Q 22.515625 -1.421875 17.65625 -0.515625 
Q 12.796875 0.390625 7.625 2.203125 
L 7.625 11.71875 
Q 11.71875 9.328125 16.59375 8.109375 
Q 21.484375 6.890625 26.8125 6.890625 
Q 36.078125 6.890625 40.9375 10.546875 
Q 45.796875 14.203125 45.796875 21.1875 
Q 45.796875 27.640625 41.28125 31.265625 
Q 36.765625 34.90625 28.71875 34.90625 
L 20.21875 34.90625 
L 20.21875 43.015625 
L 29.109375 43.015625 
Q 36.375 43.015625 40.234375 45.921875 
Q 44.09375 48.828125 44.09375 54.296875 
Q 44.09375 59.90625 40.109375 62.90625 
Q 36.140625 65.921875 28.71875 65.921875 
Q 24.65625 65.921875 20.015625 65.03125 
Q 15.375 64.15625 9.8125 62.3125 
L 9.8125 71.09375 
Q 15.4375 72.65625 20.34375 73.4375 
Q 25.25 74.21875 29.59375 74.21875 
Q 40.828125 74.21875 47.359375 69.109375 
Q 53.90625 64.015625 53.90625 55.328125 
Q 53.90625 49.265625 50.4375 45.09375 
Q 46.96875 40.921875 40.578125 39.3125 
z
" id="DejaVuSans-51"/>
     </defs>
     <g transform="translate(57.339 184.364777)scale(0.1625 -0.1625)">
      <use xlink:href="#DejaVuSans-Oblique-113"/>
      <use transform="translate(63.476562 -16.40625)scale(0.7)" xlink:href="#DejaVuSans-51"/>
     </g>
    </g>
   </g>
  </g>
 </g>
 <defs>
  <clipPath id="pb04a39414f">
   <rect height="199.9844" width="527.2316" x="7.2" y="7.2"/>
  </clipPath>
 </defs>
</svg>
