<?xml version="1.0" encoding="UTF-8" standalone="no"?>
<svg
   xmlns:dc="http://purl.org/dc/elements/1.1/"
   xmlns:cc="http://creativecommons.org/ns#"
   xmlns:rdf="http://www.w3.org/1999/02/22-rdf-syntax-ns#"
   xmlns:svg="http://www.w3.org/2000/svg"
   xmlns="http://www.w3.org/2000/svg"
   xmlns:xlink="http://www.w3.org/1999/xlink"
   xmlns:sodipodi="http://sodipodi.sourceforge.net/DTD/sodipodi-0.dtd"
   xmlns:inkscape="http://www.inkscape.org/namespaces/inkscape"
   inkscape:version="1.0beta2 (2b71d25, 2019-12-03)"
   sodipodi:docname="deutsch_balanced2.svg"
   id="svg1006"
   width="450pt"
   viewBox="0 0 450.00002 220"
   version="1.1"
   height="220pt">
  <metadata
     id="metadata1010">
    <rdf:RDF>
      <cc:Work
         rdf:about="">
        <dc:format>image/svg+xml</dc:format>
        <dc:type
           rdf:resource="http://purl.org/dc/dcmitype/StillImage" />
        <dc:title></dc:title>
      </cc:Work>
    </rdf:RDF>
  </metadata>
  <sodipodi:namedview
     inkscape:current-layer="svg1006"
     inkscape:window-maximized="0"
     inkscape:window-y="25"
     inkscape:window-x="148"
     inkscape:cy="359.27441"
     inkscape:cx="606.07669"
     inkscape:zoom="0.58740345"
     showgrid="false"
     id="namedview1008"
     inkscape:window-height="1073"
     inkscape:window-width="1471"
     inkscape:pageshadow="2"
     inkscape:pageopacity="0"
     guidetolerance="10"
     gridtolerance="10"
     objecttolerance="10"
     borderopacity="1"
     inkscape:document-rotation="0"
     bordercolor="#666666"
     pagecolor="#ffffff" />
  <defs
     id="defs835">
    <style
       id="style833"
       type="text/css">
*{stroke-linecap:butt;stroke-linejoin:round;}
  </style>
  </defs>
  <g
     transform="translate(339.95734,181.0089)"
     id="patch_1">
    <path
       d="M 0,264.88 H 599.592 V 0 H 0 Z"
       style="fill:#ffffff"
       id="path837"
       inkscape:connector-curvature="0" />
  </g>
  <g
     transform="translate(-117.46611,-25.536112)"
     id="line2d_1">
    <path
       inkscape:connector-curvature="0"
       id="path840"
       style="fill:none;stroke:#000000;stroke-width:2;stroke-linecap:square"
       d="m 188.20928,68.1464 h 340.8825"
       clip-path="url(#p70cecc0e7a)" />
  </g>
  <g
     transform="translate(-117.46611,-25.536112)"
     id="line2d_2">
    <path
       inkscape:connector-curvature="0"
       id="path843"
       style="fill:none;stroke:#000000;stroke-width:2;stroke-linecap:square"
       d="m 188.20928,113.5974 h 340.8825"
       clip-path="url(#p70cecc0e7a)" />
  </g>
  <g
     transform="translate(-117.46611,-25.536112)"
     id="line2d_3">
    <path
       inkscape:connector-curvature="0"
       id="path846"
       style="fill:none;stroke:#000000;stroke-width:2;stroke-linecap:square"
       d="m 188.20928,159.0484 h 340.8825"
       clip-path="url(#p70cecc0e7a)" />
  </g>
  <g
     transform="translate(-117.46611,-25.536112)"
     id="line2d_4">
    <path
       inkscape:connector-curvature="0"
       id="path849"
       style="fill:none;stroke:#000000;stroke-width:2;stroke-linecap:square"
       d="m 188.20928,204.4994 h 340.8825"
       clip-path="url(#p70cecc0e7a)" />
  </g>
  <g
     transform="translate(-117.46611,-25.536112)"
     id="patch_2">
    <path
       inkscape:connector-curvature="0"
       id="path852"
       style="opacity:0.6;fill:#bdbdbd"
       d="m 247.52283,227.2249 h 17.72589 V 45.4209 h -17.72589 z"
       clip-path="url(#p70cecc0e7a)" />
  </g>
  <g
     transform="translate(-117.46611,-25.536112)"
     id="patch_3">
    <path
       inkscape:connector-curvature="0"
       id="path855"
       style="opacity:0.6;fill:#bdbdbd"
       d="m 429.32684,227.2249 h 17.72588 V 45.4209 h -17.72588 z"
       clip-path="url(#p70cecc0e7a)" />
  </g>
  <g
     transform="translate(-117.46611,-25.536112)"
     id="line2d_5">
    <path
       inkscape:connector-curvature="0"
       id="path858"
       style="fill:none;stroke:#6fa4ff;stroke-width:2;stroke-linecap:square"
       d="M 301.83678,204.4994 V 68.1464"
       clip-path="url(#p70cecc0e7a)" />
  </g>
  <g
     transform="translate(-117.46611,-25.536112)"
     id="line2d_6">
    <path
       inkscape:connector-curvature="0"
       id="path861"
       style="fill:none;stroke:#6fa4ff;stroke-width:2;stroke-linecap:square"
       d="m 347.28778,204.4994 v -90.902"
       clip-path="url(#p70cecc0e7a)" />
  </g>
  <g
     transform="translate(-117.46611,-25.536112)"
     id="line2d_7">
    <path
       inkscape:connector-curvature="0"
       id="path864"
       style="fill:none;stroke:#6fa4ff;stroke-width:2;stroke-linecap:square"
       d="m 392.73878,204.4994 v -45.451"
       clip-path="url(#p70cecc0e7a)" />
  </g>
  <g
     transform="translate(-117.46611,-25.536112)"
     id="patch_4">
    <path
       inkscape:connector-curvature="0"
       id="path867"
       style="fill:#05bab6"
       d="m 196.1632,128.36897 h 29.54315 V 98.825825 H 196.1632 Z"
       clip-path="url(#p70cecc0e7a)" />
  </g>
  <g
     transform="translate(-117.46611,-25.536112)"
     id="patch_5">
    <path
       inkscape:connector-curvature="0"
       id="path870"
       style="fill:#6fa4ff;stroke:#6fa4ff;stroke-width:1.5;stroke-linejoin:miter"
       d="m 301.83678,72.577872 c 1.17524,0 2.3025,-0.466927 3.13352,-1.297948 0.83103,-0.83102 1.29795,-1.958284 1.29795,-3.133524 0,-1.17524 -0.46692,-2.302504 -1.29795,-3.133524 -0.83102,-0.831021 -1.95828,-1.297948 -3.13352,-1.297948 -1.17524,0 -2.3025,0.466927 -3.13352,1.297948 -0.83103,0.83102 -1.29795,1.958284 -1.29795,3.133524 0,1.17524 0.46692,2.302504 1.29795,3.133524 0.83102,0.831021 1.95828,1.297948 3.13352,1.297948 z"
       clip-path="url(#p70cecc0e7a)" />
  </g>
  <g
     transform="translate(-117.46611,-25.536112)"
     id="patch_6">
    <path
       inkscape:connector-curvature="0"
       id="path873"
       style="fill:#6fa4ff;stroke:#6fa4ff;stroke-width:2;stroke-linejoin:miter"
       d="m 301.83678,214.8395 c 2.74223,0 5.37251,-1.0895 7.31156,-3.02854 1.93904,-1.93905 3.02854,-4.56933 3.02854,-7.31156 0,-2.74223 -1.0895,-5.37251 -3.02854,-7.31156 -1.93905,-1.93904 -4.56933,-3.02854 -7.31156,-3.02854 -2.74223,0 -5.37251,1.0895 -7.31156,3.02854 -1.93904,1.93905 -3.02854,4.56933 -3.02854,7.31156 0,2.74223 1.0895,5.37251 3.02854,7.31156 1.93905,1.93904 4.56933,3.02854 7.31156,3.02854 z"
       clip-path="url(#p70cecc0e7a)" />
  </g>
  <g
     transform="translate(-117.46611,-25.536112)"
     id="patch_7">
    <path
       inkscape:connector-curvature="0"
       id="path876"
       style="fill:#6fa4ff;stroke:#6fa4ff;stroke-width:1.5;stroke-linejoin:miter"
       d="m 347.28778,118.02887 c 1.17524,0 2.3025,-0.46693 3.13352,-1.29795 0.83102,-0.83102 1.29795,-1.95828 1.29795,-3.13352 0,-1.17524 -0.46693,-2.3025 -1.29795,-3.13352 -0.83102,-0.83102 -1.95828,-1.29795 -3.13352,-1.29795 -1.17524,0 -2.3025,0.46693 -3.13352,1.29795 -0.83103,0.83102 -1.29795,1.95828 -1.29795,3.13352 0,1.17524 0.46692,2.3025 1.29795,3.13352 0.83102,0.83102 1.95828,1.29795 3.13352,1.29795 z"
       clip-path="url(#p70cecc0e7a)" />
  </g>
  <g
     transform="translate(-117.46611,-25.536112)"
     id="patch_8">
    <path
       inkscape:connector-curvature="0"
       id="path879"
       style="fill:#6fa4ff;stroke:#6fa4ff;stroke-width:2;stroke-linejoin:miter"
       d="m 347.28778,214.8395 c 2.74223,0 5.37251,-1.0895 7.31156,-3.02854 1.93904,-1.93905 3.02854,-4.56933 3.02854,-7.31156 0,-2.74223 -1.0895,-5.37251 -3.02854,-7.31156 -1.93905,-1.93904 -4.56933,-3.02854 -7.31156,-3.02854 -2.74223,0 -5.37251,1.0895 -7.31156,3.02854 -1.93904,1.93905 -3.02854,4.56933 -3.02854,7.31156 0,2.74223 1.0895,5.37251 3.02854,7.31156 1.93905,1.93904 4.56933,3.02854 7.31156,3.02854 z"
       clip-path="url(#p70cecc0e7a)" />
  </g>
  <g
     transform="translate(-117.46611,-25.536112)"
     id="patch_9">
    <path
       inkscape:connector-curvature="0"
       id="path882"
       style="fill:#6fa4ff;stroke:#6fa4ff;stroke-width:1.5;stroke-linejoin:miter"
       d="m 392.73878,163.47987 c 1.17524,0 2.3025,-0.46693 3.13352,-1.29795 0.83102,-0.83102 1.29795,-1.95828 1.29795,-3.13352 0,-1.17524 -0.46693,-2.3025 -1.29795,-3.13352 -0.83102,-0.83103 -1.95828,-1.29795 -3.13352,-1.29795 -1.17524,0 -2.3025,0.46692 -3.13352,1.29795 -0.83103,0.83102 -1.29795,1.95828 -1.29795,3.13352 0,1.17524 0.46692,2.3025 1.29795,3.13352 0.83102,0.83102 1.95828,1.29795 3.13352,1.29795 z"
       clip-path="url(#p70cecc0e7a)" />
  </g>
  <g
     transform="translate(-117.46611,-25.536112)"
     id="patch_10">
    <path
       inkscape:connector-curvature="0"
       id="path885"
       style="fill:#6fa4ff;stroke:#6fa4ff;stroke-width:2;stroke-linejoin:miter"
       d="m 392.73878,214.8395 c 2.74223,0 5.37251,-1.0895 7.31156,-3.02854 1.93904,-1.93905 3.02854,-4.56933 3.02854,-7.31156 0,-2.74223 -1.0895,-5.37251 -3.02854,-7.31156 -1.93905,-1.93904 -4.56933,-3.02854 -7.31156,-3.02854 -2.74223,0 -5.37251,1.0895 -7.31156,3.02854 -1.93904,1.93905 -3.02854,4.56933 -3.02854,7.31156 0,2.74223 1.0895,5.37251 3.02854,7.31156 1.93905,1.93904 4.56933,3.02854 7.31156,3.02854 z"
       clip-path="url(#p70cecc0e7a)" />
  </g>
  <g
     transform="translate(-117.46611,-25.536112)"
     id="patch_11">
    <path
       inkscape:connector-curvature="0"
       id="path888"
       style="fill:#05bab6"
       d="m 468.86921,128.36897 h 29.54314 V 98.825825 h -29.54314 z"
       clip-path="url(#p70cecc0e7a)" />
  </g>
  <g
     transform="translate(-117.46611,-25.536112)"
     id="line2d_8">
    <path
       inkscape:connector-curvature="0"
       id="path891"
       style="fill:none;stroke:#000000;stroke-dasharray:3.7, 1.6;stroke-dashoffset:0"
       d="m 256.38578,45.4209 v 45.451"
       clip-path="url(#p70cecc0e7a)" />
  </g>
  <g
     transform="translate(-117.46611,-25.536112)"
     id="line2d_9">
    <path
       inkscape:connector-curvature="0"
       id="path894"
       style="fill:none;stroke:#000000;stroke-dasharray:3.7, 1.6;stroke-dashoffset:0"
       d="m 256.38578,90.8719 v 45.451"
       clip-path="url(#p70cecc0e7a)" />
  </g>
  <g
     transform="translate(-117.46611,-25.536112)"
     id="line2d_10">
    <path
       inkscape:connector-curvature="0"
       id="path897"
       style="fill:none;stroke:#000000;stroke-dasharray:3.7, 1.6;stroke-dashoffset:0"
       d="m 256.38578,136.3229 v 45.451"
       clip-path="url(#p70cecc0e7a)" />
  </g>
  <g
     transform="translate(-117.46611,-25.536112)"
     id="line2d_11">
    <path
       inkscape:connector-curvature="0"
       id="path900"
       style="fill:none;stroke:#000000;stroke-dasharray:3.7, 1.6;stroke-dashoffset:0"
       d="m 256.38578,181.7739 v 45.451"
       clip-path="url(#p70cecc0e7a)" />
  </g>
  <g
     transform="translate(-117.46611,-25.536112)"
     id="line2d_12">
    <path
       inkscape:connector-curvature="0"
       id="path903"
       style="fill:none;stroke:#ffffff;stroke-width:2;stroke-linecap:square"
       d="M 301.83678,210.40803 V 198.59077"
       clip-path="url(#p70cecc0e7a)" />
  </g>
  <g
     transform="translate(-117.46611,-25.536112)"
     id="line2d_13">
    <path
       inkscape:connector-curvature="0"
       id="path906"
       style="fill:none;stroke:#ffffff;stroke-width:2;stroke-linecap:square"
       d="m 295.92815,204.4994 h 11.81726"
       clip-path="url(#p70cecc0e7a)" />
  </g>
  <g
     transform="translate(-117.46611,-25.536112)"
     id="line2d_14">
    <path
       inkscape:connector-curvature="0"
       id="path909"
       style="fill:none;stroke:#ffffff;stroke-width:2;stroke-linecap:square"
       d="M 347.28778,210.40803 V 198.59077"
       clip-path="url(#p70cecc0e7a)" />
  </g>
  <g
     transform="translate(-117.46611,-25.536112)"
     id="line2d_15">
    <path
       inkscape:connector-curvature="0"
       id="path912"
       style="fill:none;stroke:#ffffff;stroke-width:2;stroke-linecap:square"
       d="m 341.37915,204.4994 h 11.81726"
       clip-path="url(#p70cecc0e7a)" />
  </g>
  <g
     transform="translate(-117.46611,-25.536112)"
     id="line2d_16">
    <path
       inkscape:connector-curvature="0"
       id="path915"
       style="fill:none;stroke:#ffffff;stroke-width:2;stroke-linecap:square"
       d="M 392.73878,210.40803 V 198.59077"
       clip-path="url(#p70cecc0e7a)" />
  </g>
  <g
     transform="translate(-117.46611,-25.536112)"
     id="line2d_17">
    <path
       inkscape:connector-curvature="0"
       id="path918"
       style="fill:none;stroke:#ffffff;stroke-width:2;stroke-linecap:square"
       d="m 386.83015,204.4994 h 11.81726"
       clip-path="url(#p70cecc0e7a)" />
  </g>
  <g
     transform="translate(-117.46611,-25.536112)"
     id="line2d_18">
    <path
       inkscape:connector-curvature="0"
       id="path921"
       style="fill:none;stroke:#000000;stroke-dasharray:3.7, 1.6;stroke-dashoffset:0"
       d="m 438.18978,45.4209 v 45.451"
       clip-path="url(#p70cecc0e7a)" />
  </g>
  <g
     transform="translate(-117.46611,-25.536112)"
     id="line2d_19">
    <path
       inkscape:connector-curvature="0"
       id="path924"
       style="fill:none;stroke:#000000;stroke-dasharray:3.7, 1.6;stroke-dashoffset:0"
       d="m 438.18978,90.8719 v 45.451"
       clip-path="url(#p70cecc0e7a)" />
  </g>
  <g
     transform="translate(-117.46611,-25.536112)"
     id="line2d_20">
    <path
       inkscape:connector-curvature="0"
       id="path927"
       style="fill:none;stroke:#000000;stroke-dasharray:3.7, 1.6;stroke-dashoffset:0"
       d="m 438.18978,136.3229 v 45.451"
       clip-path="url(#p70cecc0e7a)" />
  </g>
  <g
     transform="translate(-117.46611,-25.536112)"
     id="line2d_21">
    <path
       inkscape:connector-curvature="0"
       id="path930"
       style="fill:none;stroke:#000000;stroke-dasharray:3.7, 1.6;stroke-dashoffset:0"
       d="m 438.18978,181.7739 v 45.451"
       clip-path="url(#p70cecc0e7a)" />
  </g>
  <g
     transform="translate(-117.46611,-25.536112)"
     id="text_1">
    <g
       id="g940"
       clip-path="url(#p70cecc0e7a)">
      <!-- $X$ -->
      <defs
         id="defs934">
        <path
           inkscape:connector-curvature="0"
           id="DejaVuSans-Oblique-88"
           d="m 13.71875,72.90625 h 9.96875 l 12.5,-26.328125 22.609375,26.328125 H 70.3125 L 40.28125,38.09375 58.40625,0 H 48.484375 L 33.796875,30.71875 7.171875,0 H -4.296875 L 29.78125,39.203125 Z" />
      </defs>
      <g
         id="g938"
         transform="matrix(0.13,0,0,-0.13,206.44978,117.18459)">
        <use
           height="100%"
           width="100%"
           y="0"
           x="0"
           id="use936"
           xlink:href="#DejaVuSans-Oblique-88"
           transform="translate(0,0.09375)" />
      </g>
    </g>
  </g>
  <g
     transform="translate(-117.46611,-25.536112)"
     id="text_2">
    <g
       id="g947"
       clip-path="url(#p70cecc0e7a)">
      <!-- $X$ -->
      <g
         id="g945"
         transform="matrix(0.13,0,0,-0.13,479.15578,117.18459)">
        <use
           height="100%"
           width="100%"
           y="0"
           x="0"
           id="use943"
           xlink:href="#DejaVuSans-Oblique-88"
           transform="translate(0,0.09375)" />
      </g>
    </g>
  </g>
  <g
     transform="translate(-117.46611,-25.536112)"
     id="text_3">
    <g
       id="g960"
       clip-path="url(#p70cecc0e7a)">
      <!-- ${q}_{0}$ -->
      <defs
         id="defs952">
        <path
           inkscape:connector-curvature="0"
           id="DejaVuSans-Oblique-113"
           d="m 41.703125,8.203125 q -3.609375,-4.734375 -8.53125,-7.1875 -4.90625,-2.4375 -10.859375,-2.4375 -8.296875,0 -13.015625,5.59375 -4.703125,5.59375 -4.703125,15.40625 0,7.90625 2.90625,15.28125 2.90625,7.375 8.328125,13.234375 3.515625,3.8125 8.078125,5.859375 Q 28.46875,56 33.5,56 q 6.046875,0 9.953125,-2.390625 3.90625,-2.390625 5.671875,-7.21875 l 1.5625,8.203125 h 9.03125 L 45.125,-20.609375 H 36.078125 Z M 13.921875,20.90625 q 0,-7.234375 3.015625,-11.015625 3.03125,-3.78125 8.75,-3.78125 8.5,0 14.5,8.125 6,8.125 6,19.75 0,7.03125 -3.109375,10.765625 -3.09375,3.734375 -8.890625,3.734375 -4.25,0 -7.875,-1.984375 -3.609375,-1.96875 -6.296875,-5.78125 -2.828125,-4 -4.46875,-9.375 -1.625,-5.359375 -1.625,-10.4375 z" />
        <path
           inkscape:connector-curvature="0"
           id="DejaVuSans-48"
           d="m 31.78125,66.40625 q -7.609375,0 -11.453125,-7.5 Q 16.5,51.421875 16.5,36.375 q 0,-14.984375 3.828125,-22.484375 3.84375,-7.5 11.453125,-7.5 7.671875,0 11.5,7.5 3.84375,7.5 3.84375,22.484375 0,15.046875 -3.84375,22.53125 -3.828125,7.5 -11.5,7.5 z m 0,7.8125 q 12.265625,0 18.734375,-9.703125 6.46875,-9.6875 6.46875,-28.140625 0,-18.40625 -6.46875,-28.109375 -6.46875,-9.6875 -18.734375,-9.6875 -12.25,0 -18.71875,9.6875 Q 6.59375,17.96875 6.59375,36.375 q 0,18.453125 6.46875,28.140625 6.46875,9.703125 18.71875,9.703125 z" />
      </defs>
      <g
         id="g958"
         transform="matrix(0.1625,0,0,-0.1625,147.44628,72.597377)">
        <use
           height="100%"
           width="100%"
           y="0"
           x="0"
           id="use954"
           xlink:href="#DejaVuSans-Oblique-113" />
        <use
           height="100%"
           width="100%"
           y="0"
           x="0"
           id="use956"
           xlink:href="#DejaVuSans-48"
           transform="matrix(0.7,0,0,0.7,63.476562,-16.40625)" />
      </g>
    </g>
  </g>
  <g
     transform="translate(-117.46611,-25.536112)"
     id="text_4">
    <g
       id="g972"
       clip-path="url(#p70cecc0e7a)">
      <!-- ${q}_{1}$ -->
      <defs
         id="defs964">
        <path
           inkscape:connector-curvature="0"
           id="DejaVuSans-49"
           d="m 12.40625,8.296875 h 16.109375 v 55.625 L 10.984375,60.40625 v 8.984375 l 17.4375,3.515625 H 38.28125 V 8.296875 H 54.390625 V 0 H 12.40625 Z" />
      </defs>
      <g
         id="g970"
         transform="matrix(0.1625,0,0,-0.1625,147.44628,118.04838)">
        <use
           height="100%"
           width="100%"
           y="0"
           x="0"
           id="use966"
           xlink:href="#DejaVuSans-Oblique-113" />
        <use
           height="100%"
           width="100%"
           y="0"
           x="0"
           id="use968"
           xlink:href="#DejaVuSans-49"
           transform="matrix(0.7,0,0,0.7,63.476562,-16.40625)" />
      </g>
    </g>
  </g>
  <g
     transform="translate(-117.46611,-25.536112)"
     id="text_5">
    <g
       id="g984"
       clip-path="url(#p70cecc0e7a)">
      <!-- ${q}_{2}$ -->
      <defs
         id="defs976">
        <path
           inkscape:connector-curvature="0"
           id="DejaVuSans-50"
           d="M 19.1875,8.296875 H 53.609375 V 0 H 7.328125 v 8.296875 q 5.609375,5.8125 15.296875,15.59375 9.703125,9.796875 12.1875,12.640625 4.734375,5.3125 6.609375,9 1.890625,3.6875 1.890625,7.25 0,5.8125 -4.078125,9.46875 -4.078125,3.671875 -10.625,3.671875 -4.640625,0 -9.796875,-1.609375 -5.140625,-1.609375 -11,-4.890625 v 9.96875 Q 13.765625,71.78125 18.9375,73 q 5.1875,1.21875 9.484375,1.21875 11.328125,0 18.0625,-5.671875 6.734375,-5.65625 6.734375,-15.125 0,-4.5 -1.6875,-8.53125 Q 49.859375,40.875 45.40625,35.40625 44.1875,33.984375 37.640625,27.21875 31.109375,20.453125 19.1875,8.296875 Z" />
      </defs>
      <g
         id="g982"
         transform="matrix(0.1625,0,0,-0.1625,147.44628,163.49938)">
        <use
           height="100%"
           width="100%"
           y="0"
           x="0"
           id="use978"
           xlink:href="#DejaVuSans-Oblique-113" />
        <use
           height="100%"
           width="100%"
           y="0"
           x="0"
           id="use980"
           xlink:href="#DejaVuSans-50"
           transform="matrix(0.7,0,0,0.7,63.476562,-16.40625)" />
      </g>
    </g>
  </g>
  <g
     transform="translate(-117.46611,-25.536112)"
     id="text_6">
    <g
       id="g996"
       clip-path="url(#p70cecc0e7a)">
      <!-- ${q}_{3}$ -->
      <defs
         id="defs988">
        <path
           inkscape:connector-curvature="0"
           id="DejaVuSans-51"
           d="M 40.578125,39.3125 Q 47.65625,37.796875 51.625,33 q 3.984375,-4.78125 3.984375,-11.8125 0,-10.78125 -7.421875,-16.703125 -7.421875,-5.90625 -21.09375,-5.90625 -4.578125,0 -9.4375,0.90625 -4.859375,0.90625 -10.03125,2.71875 v 9.515625 q 4.09375,-2.390625 8.96875,-3.609375 4.890625,-1.21875 10.21875,-1.21875 9.265625,0 14.125,3.65625 4.859375,3.65625 4.859375,10.640625 0,6.453125 -4.515625,10.078125 -4.515625,3.640625 -12.5625,3.640625 h -8.5 v 8.109375 h 8.890625 q 7.265625,0 11.125,2.90625 3.859375,2.90625 3.859375,8.375 0,5.609375 -3.984375,8.609375 -3.96875,3.015625 -11.390625,3.015625 -4.0625,0 -8.703125,-0.890625 Q 15.375,64.15625 9.8125,62.3125 v 8.78125 q 5.625,1.5625 10.53125,2.34375 4.90625,0.78125 9.25,0.78125 11.234375,0 17.765625,-5.109375 6.546875,-5.09375 6.546875,-13.78125 0,-6.0625 -3.46875,-10.234375 -3.46875,-4.171875 -9.859375,-5.78125 z" />
      </defs>
      <g
         id="g994"
         transform="matrix(0.1625,0,0,-0.1625,147.44628,208.95038)">
        <use
           height="100%"
           width="100%"
           y="0"
           x="0"
           id="use990"
           xlink:href="#DejaVuSans-Oblique-113" />
        <use
           height="100%"
           width="100%"
           y="0"
           x="0"
           id="use992"
           xlink:href="#DejaVuSans-51"
           transform="matrix(0.7,0,0,0.7,63.476562,-16.40625)" />
      </g>
    </g>
  </g>
  <defs
     id="defs1004">
    <clipPath
       id="p70cecc0e7a">
      <rect
         id="rect1001"
         y="31.785601"
         x="80.944923"
         width="452.69196"
         height="199.98441" />
    </clipPath>
  </defs>
</svg>
